G04 #@! TF.GenerationSoftware,KiCad,Pcbnew,6.0.11-2627ca5db0~126~ubuntu20.04.1*
G04 #@! TF.CreationDate,2023-10-18T23:30:25-05:00*
G04 #@! TF.ProjectId,lir-multi-charger,6c69722d-6d75-46c7-9469-2d6368617267,rev?*
G04 #@! TF.SameCoordinates,Original*
G04 #@! TF.FileFunction,Copper,L2,Bot*
G04 #@! TF.FilePolarity,Positive*
%FSLAX46Y46*%
G04 Gerber Fmt 4.6, Leading zero omitted, Abs format (unit mm)*
G04 Created by KiCad (PCBNEW 6.0.11-2627ca5db0~126~ubuntu20.04.1) date 2023-10-18 23:30:25*
%MOMM*%
%LPD*%
G01*
G04 APERTURE LIST*
G04 #@! TA.AperFunction,Profile*
%ADD10C,0.050000*%
G04 #@! TD*
G04 #@! TA.AperFunction,EtchedComponent*
%ADD11C,0.010000*%
G04 #@! TD*
G04 #@! TA.AperFunction,ComponentPad*
%ADD12C,1.998980*%
G04 #@! TD*
G04 #@! TA.AperFunction,ComponentPad*
%ADD13R,1.700000X1.700000*%
G04 #@! TD*
G04 #@! TA.AperFunction,ComponentPad*
%ADD14O,1.700000X1.700000*%
G04 #@! TD*
G04 #@! TA.AperFunction,ComponentPad*
%ADD15C,1.700000*%
G04 #@! TD*
G04 #@! TA.AperFunction,ComponentPad*
%ADD16O,2.100000X1.000000*%
G04 #@! TD*
G04 #@! TA.AperFunction,ComponentPad*
%ADD17O,1.600000X1.000000*%
G04 #@! TD*
G04 #@! TA.AperFunction,ViaPad*
%ADD18C,0.800000*%
G04 #@! TD*
G04 #@! TA.AperFunction,Conductor*
%ADD19C,0.250000*%
G04 #@! TD*
G04 APERTURE END LIST*
D10*
X180000000Y-100000000D02*
G75*
G03*
X190000000Y-110000000I10000000J0D01*
G01*
X110000000Y-100000000D02*
X180000000Y-100000000D01*
X190000000Y-148000000D02*
G75*
G03*
X180000000Y-158000000I0J-10000000D01*
G01*
X110000000Y-158000000D02*
X180000000Y-158000000D01*
X100000000Y-110000000D02*
X100000000Y-148000000D01*
X100000000Y-110000000D02*
G75*
G03*
X110000000Y-100000000I0J10000000D01*
G01*
X190000000Y-110000000D02*
X190000000Y-148000000D01*
X110000000Y-158000000D02*
G75*
G03*
X100000000Y-148000000I-10000000J0D01*
G01*
G36*
X104839835Y-119206051D02*
G01*
X104923655Y-119650675D01*
X105542227Y-119905671D01*
X105913267Y-119653366D01*
X105986704Y-119603626D01*
X106084059Y-119538338D01*
X106168347Y-119482574D01*
X106235191Y-119439198D01*
X106280214Y-119411073D01*
X106299038Y-119401062D01*
X106310599Y-119408181D01*
X106345156Y-119438014D01*
X106397454Y-119486972D01*
X106463060Y-119550560D01*
X106537543Y-119624283D01*
X106616473Y-119703645D01*
X106695416Y-119784151D01*
X106769944Y-119861305D01*
X106835623Y-119930613D01*
X106888023Y-119987577D01*
X106922713Y-120027704D01*
X106935261Y-120046497D01*
X106932342Y-120054571D01*
X106912131Y-120090589D01*
X106875223Y-120149864D01*
X106824610Y-120227750D01*
X106763285Y-120319601D01*
X106694239Y-120420770D01*
X106656347Y-120475946D01*
X106591166Y-120572004D01*
X106535283Y-120655837D01*
X106491677Y-120722897D01*
X106463329Y-120768639D01*
X106453217Y-120788516D01*
X106453383Y-120789617D01*
X106462303Y-120814814D01*
X106482766Y-120866267D01*
X106511920Y-120937255D01*
X106546913Y-121021055D01*
X106584892Y-121110948D01*
X106623005Y-121200211D01*
X106658399Y-121282123D01*
X106688222Y-121349963D01*
X106709621Y-121397010D01*
X106719744Y-121416542D01*
X106725734Y-121418275D01*
X106762126Y-121426089D01*
X106826987Y-121439035D01*
X106915125Y-121456099D01*
X107021347Y-121476271D01*
X107140462Y-121498538D01*
X107203243Y-121510343D01*
X107318472Y-121532868D01*
X107419222Y-121553670D01*
X107499986Y-121571555D01*
X107555258Y-121585328D01*
X107579531Y-121593794D01*
X107583891Y-121602186D01*
X107591123Y-121643192D01*
X107596806Y-121711488D01*
X107600942Y-121800649D01*
X107603537Y-121904248D01*
X107604596Y-122015860D01*
X107604121Y-122129058D01*
X107602119Y-122237416D01*
X107598593Y-122334509D01*
X107593547Y-122413910D01*
X107586987Y-122469192D01*
X107578916Y-122493930D01*
X107574018Y-122496720D01*
X107537490Y-122508689D01*
X107474125Y-122524525D01*
X107391246Y-122542494D01*
X107296178Y-122560861D01*
X107264102Y-122566711D01*
X107115953Y-122593918D01*
X106999521Y-122615783D01*
X106910769Y-122633213D01*
X106845663Y-122647116D01*
X106800166Y-122658397D01*
X106770242Y-122667963D01*
X106751854Y-122676721D01*
X106740967Y-122685577D01*
X106739702Y-122687063D01*
X106721898Y-122718051D01*
X106695554Y-122774754D01*
X106663221Y-122850519D01*
X106627453Y-122938694D01*
X106590804Y-123032627D01*
X106555826Y-123125667D01*
X106525073Y-123211161D01*
X106501098Y-123282456D01*
X106486455Y-123332902D01*
X106483696Y-123355846D01*
X106485541Y-123358823D01*
X106504635Y-123387613D01*
X106540544Y-123440715D01*
X106589938Y-123513237D01*
X106649487Y-123600287D01*
X106715863Y-123696974D01*
X106734080Y-123723576D01*
X106798137Y-123818995D01*
X106853497Y-123904332D01*
X106896999Y-123974525D01*
X106925484Y-124024514D01*
X106935792Y-124049236D01*
X106933571Y-124055736D01*
X106910418Y-124087764D01*
X106864737Y-124140065D01*
X106799801Y-124209119D01*
X106718879Y-124291406D01*
X106625245Y-124383406D01*
X106571725Y-124434901D01*
X106487102Y-124515103D01*
X106413035Y-124583798D01*
X106353501Y-124637372D01*
X106312477Y-124672205D01*
X106293941Y-124684683D01*
X106281206Y-124680058D01*
X106241996Y-124658177D01*
X106185055Y-124622393D01*
X106117810Y-124577237D01*
X106069998Y-124544285D01*
X105974545Y-124478847D01*
X105872685Y-124409348D01*
X105779648Y-124346195D01*
X105597392Y-124222920D01*
X105444401Y-124305640D01*
X105408377Y-124324733D01*
X105342863Y-124357392D01*
X105292200Y-124379939D01*
X105265124Y-124388346D01*
X105256263Y-124377550D01*
X105234259Y-124336443D01*
X105201759Y-124268669D01*
X105160570Y-124178529D01*
X105112502Y-124070325D01*
X105059362Y-123948357D01*
X105002959Y-123816928D01*
X104945102Y-123680338D01*
X104887598Y-123542887D01*
X104832257Y-123408878D01*
X104780886Y-123282611D01*
X104735295Y-123168388D01*
X104697292Y-123070510D01*
X104668684Y-122993277D01*
X104651281Y-122940991D01*
X104646891Y-122917953D01*
X104647188Y-122917280D01*
X104667637Y-122895983D01*
X104710410Y-122862628D01*
X104766677Y-122824131D01*
X104784437Y-122812376D01*
X104919574Y-122700855D01*
X105031416Y-122568026D01*
X105117315Y-122419418D01*
X105174622Y-122260560D01*
X105200691Y-122096980D01*
X105192873Y-121934208D01*
X105161204Y-121789435D01*
X105104342Y-121643244D01*
X105021448Y-121512823D01*
X104907691Y-121388933D01*
X104862993Y-121349355D01*
X104718495Y-121251843D01*
X104562398Y-121186170D01*
X104399227Y-121151750D01*
X104233503Y-121147994D01*
X104069752Y-121174314D01*
X103912496Y-121230123D01*
X103766258Y-121314834D01*
X103635564Y-121427857D01*
X103524934Y-121568607D01*
X103503665Y-121603462D01*
X103431370Y-121762775D01*
X103392975Y-121928672D01*
X103387474Y-122096857D01*
X103413861Y-122263033D01*
X103471130Y-122422904D01*
X103558277Y-122572173D01*
X103674296Y-122706543D01*
X103818182Y-122821719D01*
X103822854Y-122824822D01*
X103878524Y-122864053D01*
X103920249Y-122897406D01*
X103939306Y-122917953D01*
X103936902Y-122934061D01*
X103921951Y-122980964D01*
X103895441Y-123053659D01*
X103859180Y-123147845D01*
X103814976Y-123259218D01*
X103764636Y-123383478D01*
X103709967Y-123516322D01*
X103652778Y-123653447D01*
X103594876Y-123790552D01*
X103538070Y-123923335D01*
X103484166Y-124047494D01*
X103434972Y-124158726D01*
X103392297Y-124252729D01*
X103357947Y-124325202D01*
X103333731Y-124371842D01*
X103321457Y-124388346D01*
X103311249Y-124386111D01*
X103271146Y-124370046D01*
X103211878Y-124341879D01*
X103142179Y-124305640D01*
X102989189Y-124222920D01*
X102806933Y-124346195D01*
X102753087Y-124382699D01*
X102652934Y-124450904D01*
X102553085Y-124519218D01*
X102468771Y-124577237D01*
X102422239Y-124608856D01*
X102361760Y-124648140D01*
X102316917Y-124675032D01*
X102295015Y-124685003D01*
X102285605Y-124680770D01*
X102251591Y-124654841D01*
X102199155Y-124609190D01*
X102132861Y-124548306D01*
X102057273Y-124476681D01*
X101976956Y-124398803D01*
X101896473Y-124319165D01*
X101820389Y-124242255D01*
X101753267Y-124172565D01*
X101699672Y-124114584D01*
X101664168Y-124072804D01*
X101651319Y-124051713D01*
X101652060Y-124047701D01*
X101667353Y-124015040D01*
X101700022Y-123958532D01*
X101746910Y-123883283D01*
X101804861Y-123794395D01*
X101870717Y-123696974D01*
X101889187Y-123670102D01*
X101954042Y-123575543D01*
X102011169Y-123491947D01*
X102057238Y-123424204D01*
X102088919Y-123377206D01*
X102102884Y-123355846D01*
X102103228Y-123354931D01*
X102099106Y-123328798D01*
X102083367Y-123275860D01*
X102058564Y-123202767D01*
X102027249Y-123116172D01*
X101991977Y-123022728D01*
X101955300Y-122929085D01*
X101919772Y-122841897D01*
X101887946Y-122767815D01*
X101862376Y-122713491D01*
X101845613Y-122685577D01*
X101843934Y-122683844D01*
X101831932Y-122675076D01*
X101811663Y-122666235D01*
X101779089Y-122656412D01*
X101730176Y-122644703D01*
X101660887Y-122630200D01*
X101567185Y-122611996D01*
X101445036Y-122589186D01*
X101290402Y-122560861D01*
X101258330Y-122554900D01*
X101166453Y-122536472D01*
X101089167Y-122519012D01*
X101033796Y-122504253D01*
X101007665Y-122493930D01*
X101003293Y-122485317D01*
X100996005Y-122443946D01*
X100990229Y-122375361D01*
X100985970Y-122285988D01*
X100983233Y-122182255D01*
X100982022Y-122070585D01*
X100982342Y-121957407D01*
X100984196Y-121849146D01*
X100987590Y-121752228D01*
X100992527Y-121673079D01*
X100999012Y-121618126D01*
X101007049Y-121593794D01*
X101015256Y-121590199D01*
X101056079Y-121578868D01*
X101125084Y-121562842D01*
X101216763Y-121543315D01*
X101325610Y-121521482D01*
X101446118Y-121498538D01*
X101511917Y-121486279D01*
X101624695Y-121465021D01*
X101721767Y-121446407D01*
X101797942Y-121431448D01*
X101848029Y-121421156D01*
X101866836Y-121416542D01*
X101867543Y-121415591D01*
X101879521Y-121391430D01*
X101902354Y-121340814D01*
X101933190Y-121270458D01*
X101969173Y-121187078D01*
X102007451Y-121097390D01*
X102045169Y-121008109D01*
X102079473Y-120925952D01*
X102107509Y-120857633D01*
X102126424Y-120809868D01*
X102133363Y-120789374D01*
X102130302Y-120782163D01*
X102109932Y-120747848D01*
X102072982Y-120690090D01*
X102022420Y-120613419D01*
X101961217Y-120522368D01*
X101892341Y-120421470D01*
X101854554Y-120366213D01*
X101789342Y-120269335D01*
X101733431Y-120184313D01*
X101689801Y-120115782D01*
X101661437Y-120068380D01*
X101651319Y-120046743D01*
X101658350Y-120035007D01*
X101687757Y-119999938D01*
X101736001Y-119946865D01*
X101798653Y-119880284D01*
X101871285Y-119804694D01*
X101949468Y-119724592D01*
X102028774Y-119644474D01*
X102104773Y-119568838D01*
X102173038Y-119502182D01*
X102229140Y-119449002D01*
X102268650Y-119413796D01*
X102287139Y-119401062D01*
X102297403Y-119406013D01*
X102335090Y-119428977D01*
X102395908Y-119468058D01*
X102475473Y-119520392D01*
X102569403Y-119583116D01*
X102673314Y-119653366D01*
X103044354Y-119905671D01*
X103353640Y-119778173D01*
X103662925Y-119650675D01*
X103746746Y-119206051D01*
X103830566Y-118761427D01*
X104756014Y-118761427D01*
X104839835Y-119206051D01*
G37*
D11*
X104839835Y-119206051D02*
X104923655Y-119650675D01*
X105542227Y-119905671D01*
X105913267Y-119653366D01*
X105986704Y-119603626D01*
X106084059Y-119538338D01*
X106168347Y-119482574D01*
X106235191Y-119439198D01*
X106280214Y-119411073D01*
X106299038Y-119401062D01*
X106310599Y-119408181D01*
X106345156Y-119438014D01*
X106397454Y-119486972D01*
X106463060Y-119550560D01*
X106537543Y-119624283D01*
X106616473Y-119703645D01*
X106695416Y-119784151D01*
X106769944Y-119861305D01*
X106835623Y-119930613D01*
X106888023Y-119987577D01*
X106922713Y-120027704D01*
X106935261Y-120046497D01*
X106932342Y-120054571D01*
X106912131Y-120090589D01*
X106875223Y-120149864D01*
X106824610Y-120227750D01*
X106763285Y-120319601D01*
X106694239Y-120420770D01*
X106656347Y-120475946D01*
X106591166Y-120572004D01*
X106535283Y-120655837D01*
X106491677Y-120722897D01*
X106463329Y-120768639D01*
X106453217Y-120788516D01*
X106453383Y-120789617D01*
X106462303Y-120814814D01*
X106482766Y-120866267D01*
X106511920Y-120937255D01*
X106546913Y-121021055D01*
X106584892Y-121110948D01*
X106623005Y-121200211D01*
X106658399Y-121282123D01*
X106688222Y-121349963D01*
X106709621Y-121397010D01*
X106719744Y-121416542D01*
X106725734Y-121418275D01*
X106762126Y-121426089D01*
X106826987Y-121439035D01*
X106915125Y-121456099D01*
X107021347Y-121476271D01*
X107140462Y-121498538D01*
X107203243Y-121510343D01*
X107318472Y-121532868D01*
X107419222Y-121553670D01*
X107499986Y-121571555D01*
X107555258Y-121585328D01*
X107579531Y-121593794D01*
X107583891Y-121602186D01*
X107591123Y-121643192D01*
X107596806Y-121711488D01*
X107600942Y-121800649D01*
X107603537Y-121904248D01*
X107604596Y-122015860D01*
X107604121Y-122129058D01*
X107602119Y-122237416D01*
X107598593Y-122334509D01*
X107593547Y-122413910D01*
X107586987Y-122469192D01*
X107578916Y-122493930D01*
X107574018Y-122496720D01*
X107537490Y-122508689D01*
X107474125Y-122524525D01*
X107391246Y-122542494D01*
X107296178Y-122560861D01*
X107264102Y-122566711D01*
X107115953Y-122593918D01*
X106999521Y-122615783D01*
X106910769Y-122633213D01*
X106845663Y-122647116D01*
X106800166Y-122658397D01*
X106770242Y-122667963D01*
X106751854Y-122676721D01*
X106740967Y-122685577D01*
X106739702Y-122687063D01*
X106721898Y-122718051D01*
X106695554Y-122774754D01*
X106663221Y-122850519D01*
X106627453Y-122938694D01*
X106590804Y-123032627D01*
X106555826Y-123125667D01*
X106525073Y-123211161D01*
X106501098Y-123282456D01*
X106486455Y-123332902D01*
X106483696Y-123355846D01*
X106485541Y-123358823D01*
X106504635Y-123387613D01*
X106540544Y-123440715D01*
X106589938Y-123513237D01*
X106649487Y-123600287D01*
X106715863Y-123696974D01*
X106734080Y-123723576D01*
X106798137Y-123818995D01*
X106853497Y-123904332D01*
X106896999Y-123974525D01*
X106925484Y-124024514D01*
X106935792Y-124049236D01*
X106933571Y-124055736D01*
X106910418Y-124087764D01*
X106864737Y-124140065D01*
X106799801Y-124209119D01*
X106718879Y-124291406D01*
X106625245Y-124383406D01*
X106571725Y-124434901D01*
X106487102Y-124515103D01*
X106413035Y-124583798D01*
X106353501Y-124637372D01*
X106312477Y-124672205D01*
X106293941Y-124684683D01*
X106281206Y-124680058D01*
X106241996Y-124658177D01*
X106185055Y-124622393D01*
X106117810Y-124577237D01*
X106069998Y-124544285D01*
X105974545Y-124478847D01*
X105872685Y-124409348D01*
X105779648Y-124346195D01*
X105597392Y-124222920D01*
X105444401Y-124305640D01*
X105408377Y-124324733D01*
X105342863Y-124357392D01*
X105292200Y-124379939D01*
X105265124Y-124388346D01*
X105256263Y-124377550D01*
X105234259Y-124336443D01*
X105201759Y-124268669D01*
X105160570Y-124178529D01*
X105112502Y-124070325D01*
X105059362Y-123948357D01*
X105002959Y-123816928D01*
X104945102Y-123680338D01*
X104887598Y-123542887D01*
X104832257Y-123408878D01*
X104780886Y-123282611D01*
X104735295Y-123168388D01*
X104697292Y-123070510D01*
X104668684Y-122993277D01*
X104651281Y-122940991D01*
X104646891Y-122917953D01*
X104647188Y-122917280D01*
X104667637Y-122895983D01*
X104710410Y-122862628D01*
X104766677Y-122824131D01*
X104784437Y-122812376D01*
X104919574Y-122700855D01*
X105031416Y-122568026D01*
X105117315Y-122419418D01*
X105174622Y-122260560D01*
X105200691Y-122096980D01*
X105192873Y-121934208D01*
X105161204Y-121789435D01*
X105104342Y-121643244D01*
X105021448Y-121512823D01*
X104907691Y-121388933D01*
X104862993Y-121349355D01*
X104718495Y-121251843D01*
X104562398Y-121186170D01*
X104399227Y-121151750D01*
X104233503Y-121147994D01*
X104069752Y-121174314D01*
X103912496Y-121230123D01*
X103766258Y-121314834D01*
X103635564Y-121427857D01*
X103524934Y-121568607D01*
X103503665Y-121603462D01*
X103431370Y-121762775D01*
X103392975Y-121928672D01*
X103387474Y-122096857D01*
X103413861Y-122263033D01*
X103471130Y-122422904D01*
X103558277Y-122572173D01*
X103674296Y-122706543D01*
X103818182Y-122821719D01*
X103822854Y-122824822D01*
X103878524Y-122864053D01*
X103920249Y-122897406D01*
X103939306Y-122917953D01*
X103936902Y-122934061D01*
X103921951Y-122980964D01*
X103895441Y-123053659D01*
X103859180Y-123147845D01*
X103814976Y-123259218D01*
X103764636Y-123383478D01*
X103709967Y-123516322D01*
X103652778Y-123653447D01*
X103594876Y-123790552D01*
X103538070Y-123923335D01*
X103484166Y-124047494D01*
X103434972Y-124158726D01*
X103392297Y-124252729D01*
X103357947Y-124325202D01*
X103333731Y-124371842D01*
X103321457Y-124388346D01*
X103311249Y-124386111D01*
X103271146Y-124370046D01*
X103211878Y-124341879D01*
X103142179Y-124305640D01*
X102989189Y-124222920D01*
X102806933Y-124346195D01*
X102753087Y-124382699D01*
X102652934Y-124450904D01*
X102553085Y-124519218D01*
X102468771Y-124577237D01*
X102422239Y-124608856D01*
X102361760Y-124648140D01*
X102316917Y-124675032D01*
X102295015Y-124685003D01*
X102285605Y-124680770D01*
X102251591Y-124654841D01*
X102199155Y-124609190D01*
X102132861Y-124548306D01*
X102057273Y-124476681D01*
X101976956Y-124398803D01*
X101896473Y-124319165D01*
X101820389Y-124242255D01*
X101753267Y-124172565D01*
X101699672Y-124114584D01*
X101664168Y-124072804D01*
X101651319Y-124051713D01*
X101652060Y-124047701D01*
X101667353Y-124015040D01*
X101700022Y-123958532D01*
X101746910Y-123883283D01*
X101804861Y-123794395D01*
X101870717Y-123696974D01*
X101889187Y-123670102D01*
X101954042Y-123575543D01*
X102011169Y-123491947D01*
X102057238Y-123424204D01*
X102088919Y-123377206D01*
X102102884Y-123355846D01*
X102103228Y-123354931D01*
X102099106Y-123328798D01*
X102083367Y-123275860D01*
X102058564Y-123202767D01*
X102027249Y-123116172D01*
X101991977Y-123022728D01*
X101955300Y-122929085D01*
X101919772Y-122841897D01*
X101887946Y-122767815D01*
X101862376Y-122713491D01*
X101845613Y-122685577D01*
X101843934Y-122683844D01*
X101831932Y-122675076D01*
X101811663Y-122666235D01*
X101779089Y-122656412D01*
X101730176Y-122644703D01*
X101660887Y-122630200D01*
X101567185Y-122611996D01*
X101445036Y-122589186D01*
X101290402Y-122560861D01*
X101258330Y-122554900D01*
X101166453Y-122536472D01*
X101089167Y-122519012D01*
X101033796Y-122504253D01*
X101007665Y-122493930D01*
X101003293Y-122485317D01*
X100996005Y-122443946D01*
X100990229Y-122375361D01*
X100985970Y-122285988D01*
X100983233Y-122182255D01*
X100982022Y-122070585D01*
X100982342Y-121957407D01*
X100984196Y-121849146D01*
X100987590Y-121752228D01*
X100992527Y-121673079D01*
X100999012Y-121618126D01*
X101007049Y-121593794D01*
X101015256Y-121590199D01*
X101056079Y-121578868D01*
X101125084Y-121562842D01*
X101216763Y-121543315D01*
X101325610Y-121521482D01*
X101446118Y-121498538D01*
X101511917Y-121486279D01*
X101624695Y-121465021D01*
X101721767Y-121446407D01*
X101797942Y-121431448D01*
X101848029Y-121421156D01*
X101866836Y-121416542D01*
X101867543Y-121415591D01*
X101879521Y-121391430D01*
X101902354Y-121340814D01*
X101933190Y-121270458D01*
X101969173Y-121187078D01*
X102007451Y-121097390D01*
X102045169Y-121008109D01*
X102079473Y-120925952D01*
X102107509Y-120857633D01*
X102126424Y-120809868D01*
X102133363Y-120789374D01*
X102130302Y-120782163D01*
X102109932Y-120747848D01*
X102072982Y-120690090D01*
X102022420Y-120613419D01*
X101961217Y-120522368D01*
X101892341Y-120421470D01*
X101854554Y-120366213D01*
X101789342Y-120269335D01*
X101733431Y-120184313D01*
X101689801Y-120115782D01*
X101661437Y-120068380D01*
X101651319Y-120046743D01*
X101658350Y-120035007D01*
X101687757Y-119999938D01*
X101736001Y-119946865D01*
X101798653Y-119880284D01*
X101871285Y-119804694D01*
X101949468Y-119724592D01*
X102028774Y-119644474D01*
X102104773Y-119568838D01*
X102173038Y-119502182D01*
X102229140Y-119449002D01*
X102268650Y-119413796D01*
X102287139Y-119401062D01*
X102297403Y-119406013D01*
X102335090Y-119428977D01*
X102395908Y-119468058D01*
X102475473Y-119520392D01*
X102569403Y-119583116D01*
X102673314Y-119653366D01*
X103044354Y-119905671D01*
X103353640Y-119778173D01*
X103662925Y-119650675D01*
X103746746Y-119206051D01*
X103830566Y-118761427D01*
X104756014Y-118761427D01*
X104839835Y-119206051D01*
D12*
X186690000Y-139700000D03*
X186690000Y-143510000D03*
D13*
X156464000Y-112500000D03*
D14*
X156464000Y-115040000D03*
D13*
X177292000Y-121920000D03*
D14*
X177292000Y-124460000D03*
D13*
X177800000Y-106680000D03*
D14*
X177800000Y-104140000D03*
D15*
X177800000Y-115316000D03*
D14*
X177800000Y-117856000D03*
D16*
X182290000Y-121160000D03*
X182290000Y-112520000D03*
D17*
X186470000Y-121160000D03*
X186470000Y-112520000D03*
D13*
X133604000Y-107437000D03*
D14*
X133604000Y-109977000D03*
D18*
X179644000Y-114967500D03*
X176409900Y-116585900D03*
X167545800Y-116041300D03*
X163797100Y-121939700D03*
X168355300Y-117766300D03*
X149776700Y-112727700D03*
X151346400Y-152344800D03*
X151530200Y-106331000D03*
X146454500Y-118373700D03*
X160124300Y-141182700D03*
X152305500Y-116991700D03*
X135636000Y-140208000D03*
X138703300Y-116258300D03*
X138965800Y-117995400D03*
X138256800Y-141276200D03*
X132380800Y-112224100D03*
X138150100Y-106242400D03*
X167480400Y-122374800D03*
X149586200Y-118454800D03*
X137601400Y-124548800D03*
X137318000Y-118512400D03*
D19*
X138326700Y-137517300D02*
X138326700Y-124248300D01*
X135636000Y-140208000D02*
X138326700Y-137517300D01*
X138326700Y-124248300D02*
X138223400Y-124145000D01*
X138223400Y-124145000D02*
X138223400Y-116738200D01*
X138223400Y-116738200D02*
X138703300Y-116258300D01*
X178239400Y-116585900D02*
X179644000Y-115181300D01*
X179644000Y-115181300D02*
X179644000Y-114967500D01*
X176409900Y-116585900D02*
X178239400Y-116585900D01*
X186470000Y-112520000D02*
X186470000Y-121160000D01*
X167970500Y-117766300D02*
X167970500Y-116466000D01*
X167970500Y-116466000D02*
X167545800Y-116041300D01*
X163797100Y-121939700D02*
X167970500Y-117766300D01*
X168355300Y-117766300D02*
X167970500Y-117766300D01*
X149776700Y-115051500D02*
X149776700Y-112727700D01*
X151346400Y-152344800D02*
X151346400Y-123265600D01*
X146454500Y-118373700D02*
X149776700Y-115051500D01*
X149776700Y-108084500D02*
X151530200Y-106331000D01*
X149776700Y-112727700D02*
X149776700Y-108084500D01*
X151346400Y-123265600D02*
X146454500Y-118373700D01*
X152305500Y-116991700D02*
X160124300Y-124810500D01*
X160124300Y-124810500D02*
X160124300Y-141182700D01*
X138965800Y-117995400D02*
X138965800Y-140567200D01*
X138965800Y-140567200D02*
X138256800Y-141276200D01*
X132380800Y-106467500D02*
X132605900Y-106242400D01*
X132380800Y-112224100D02*
X132380800Y-106467500D01*
X132605900Y-106242400D02*
X138150100Y-106242400D01*
X175661900Y-122374800D02*
X167480400Y-122374800D01*
X176116700Y-121920000D02*
X175661900Y-122374800D01*
X177292000Y-121920000D02*
X176116700Y-121920000D01*
X149586200Y-118454800D02*
X155288700Y-112752300D01*
X155288700Y-112752300D02*
X155288700Y-112500000D01*
X156464000Y-112500000D02*
X155288700Y-112500000D01*
X137601400Y-118795800D02*
X137601400Y-124548800D01*
X133604000Y-107437000D02*
X133604000Y-108612300D01*
X137318000Y-118512400D02*
X137601400Y-118795800D01*
X133604000Y-108612300D02*
X133971300Y-108612300D01*
X133971300Y-108612300D02*
X137318000Y-111959000D01*
X137318000Y-111959000D02*
X137318000Y-118512400D01*
G04 #@! TA.AperFunction,Conductor*
G36*
X179447940Y-100528502D02*
G01*
X179494433Y-100582158D01*
X179505762Y-100630706D01*
X179505885Y-100634777D01*
X179563358Y-101267238D01*
X179658913Y-101895075D01*
X179792201Y-102515996D01*
X179962737Y-103127738D01*
X179963359Y-103129542D01*
X179963362Y-103129550D01*
X180169275Y-103726265D01*
X180169281Y-103726280D01*
X180169897Y-103728066D01*
X180170618Y-103729808D01*
X180170625Y-103729825D01*
X180327279Y-104108018D01*
X180412927Y-104314791D01*
X180413761Y-104316504D01*
X180413766Y-104316515D01*
X180574323Y-104646267D01*
X180690939Y-104885772D01*
X181002918Y-105438926D01*
X181003940Y-105440506D01*
X181003945Y-105440515D01*
X181346692Y-105970633D01*
X181346700Y-105970645D01*
X181347727Y-105972233D01*
X181348849Y-105973758D01*
X181348856Y-105973768D01*
X181697393Y-106447443D01*
X181724107Y-106483748D01*
X181725328Y-106485213D01*
X182091969Y-106925149D01*
X182130685Y-106971605D01*
X182565977Y-107434023D01*
X183028395Y-107869315D01*
X183029848Y-107870526D01*
X183029856Y-107870533D01*
X183391484Y-108171912D01*
X183516252Y-108275893D01*
X183517791Y-108277025D01*
X183517793Y-108277027D01*
X184026232Y-108651144D01*
X184026242Y-108651151D01*
X184027767Y-108652273D01*
X184029355Y-108653300D01*
X184029367Y-108653308D01*
X184559485Y-108996055D01*
X184559494Y-108996060D01*
X184561074Y-108997082D01*
X185114228Y-109309061D01*
X185115939Y-109309894D01*
X185683485Y-109586234D01*
X185683496Y-109586239D01*
X185685209Y-109587073D01*
X185737605Y-109608776D01*
X186270175Y-109829375D01*
X186270192Y-109829382D01*
X186271934Y-109830103D01*
X186273720Y-109830719D01*
X186273735Y-109830725D01*
X186870450Y-110036638D01*
X186870458Y-110036641D01*
X186872262Y-110037263D01*
X187484004Y-110207799D01*
X188104925Y-110341087D01*
X188106800Y-110341372D01*
X188106798Y-110341372D01*
X188730901Y-110436359D01*
X188730909Y-110436360D01*
X188732762Y-110436642D01*
X189365223Y-110494115D01*
X189367116Y-110494172D01*
X189367129Y-110494173D01*
X189369178Y-110494235D01*
X189369294Y-110494238D01*
X189436782Y-110516282D01*
X189481638Y-110571314D01*
X189491500Y-110620181D01*
X189491500Y-147379819D01*
X189471498Y-147447940D01*
X189417842Y-147494433D01*
X189369294Y-147505762D01*
X189369178Y-147505765D01*
X189367129Y-147505827D01*
X189367116Y-147505828D01*
X189365223Y-147505885D01*
X188732762Y-147563358D01*
X188730909Y-147563640D01*
X188730901Y-147563641D01*
X188240702Y-147638248D01*
X188104925Y-147658913D01*
X187484004Y-147792201D01*
X186872262Y-147962737D01*
X186870458Y-147963359D01*
X186870450Y-147963362D01*
X186273735Y-148169275D01*
X186273720Y-148169281D01*
X186271934Y-148169897D01*
X186270192Y-148170618D01*
X186270175Y-148170625D01*
X185932129Y-148310649D01*
X185685209Y-148412927D01*
X185683496Y-148413761D01*
X185683485Y-148413766D01*
X185216110Y-148641332D01*
X185114228Y-148690939D01*
X184561074Y-149002918D01*
X184559494Y-149003940D01*
X184559485Y-149003945D01*
X184029367Y-149346692D01*
X184029355Y-149346700D01*
X184027767Y-149347727D01*
X184026242Y-149348849D01*
X184026232Y-149348856D01*
X183940643Y-149411834D01*
X183516252Y-149724107D01*
X183514787Y-149725328D01*
X183057048Y-150106806D01*
X183028395Y-150130685D01*
X182565977Y-150565977D01*
X182130685Y-151028395D01*
X182129474Y-151029848D01*
X182129467Y-151029856D01*
X181788051Y-151439524D01*
X181724107Y-151516252D01*
X181722975Y-151517791D01*
X181722973Y-151517793D01*
X181387846Y-151973244D01*
X181347727Y-152027767D01*
X181346700Y-152029355D01*
X181346692Y-152029367D01*
X181093459Y-152421036D01*
X181002918Y-152561074D01*
X180690939Y-153114228D01*
X180690106Y-153115939D01*
X180439219Y-153631211D01*
X180412927Y-153685209D01*
X180412194Y-153686979D01*
X180170625Y-154270175D01*
X180170618Y-154270192D01*
X180169897Y-154271934D01*
X180169281Y-154273720D01*
X180169275Y-154273735D01*
X179963362Y-154870450D01*
X179962737Y-154872262D01*
X179792201Y-155484004D01*
X179658913Y-156104925D01*
X179563358Y-156732762D01*
X179505885Y-157365223D01*
X179505828Y-157367116D01*
X179505827Y-157367129D01*
X179505762Y-157369294D01*
X179483718Y-157436782D01*
X179428686Y-157481638D01*
X179379819Y-157491500D01*
X110620181Y-157491500D01*
X110552060Y-157471498D01*
X110505567Y-157417842D01*
X110494238Y-157369294D01*
X110494173Y-157367129D01*
X110494172Y-157367116D01*
X110494115Y-157365223D01*
X110436642Y-156732762D01*
X110341087Y-156104925D01*
X110207799Y-155484004D01*
X110037263Y-154872262D01*
X110036638Y-154870450D01*
X109830725Y-154273735D01*
X109830719Y-154273720D01*
X109830103Y-154271934D01*
X109829382Y-154270192D01*
X109829375Y-154270175D01*
X109587806Y-153686979D01*
X109587073Y-153685209D01*
X109560782Y-153631211D01*
X109309894Y-153115939D01*
X109309061Y-153114228D01*
X108997082Y-152561074D01*
X108906541Y-152421036D01*
X108653308Y-152029367D01*
X108653300Y-152029355D01*
X108652273Y-152027767D01*
X108612155Y-151973244D01*
X108580139Y-151929733D01*
X120487822Y-151929733D01*
X120487975Y-151934121D01*
X120487975Y-151934127D01*
X120495684Y-152154872D01*
X120497625Y-152210458D01*
X120498387Y-152214781D01*
X120498388Y-152214788D01*
X120522164Y-152349624D01*
X120546402Y-152487087D01*
X120633203Y-152754235D01*
X120756340Y-153006702D01*
X120758795Y-153010341D01*
X120758798Y-153010347D01*
X120767782Y-153023666D01*
X120913415Y-153239576D01*
X121101371Y-153448322D01*
X121316550Y-153628879D01*
X121554764Y-153777731D01*
X121811375Y-153891982D01*
X122081390Y-153969407D01*
X122085740Y-153970018D01*
X122085743Y-153970019D01*
X122188690Y-153984487D01*
X122359552Y-154008500D01*
X122570146Y-154008500D01*
X122572332Y-154008347D01*
X122572336Y-154008347D01*
X122775827Y-153994118D01*
X122775832Y-153994117D01*
X122780212Y-153993811D01*
X123054970Y-153935409D01*
X123059099Y-153933906D01*
X123059103Y-153933905D01*
X123314781Y-153840846D01*
X123314785Y-153840844D01*
X123318926Y-153839337D01*
X123566942Y-153707464D01*
X123570503Y-153704877D01*
X123790629Y-153544947D01*
X123790632Y-153544944D01*
X123794192Y-153542358D01*
X123996252Y-153347231D01*
X124169188Y-153125882D01*
X124171384Y-153122078D01*
X124171389Y-153122071D01*
X124291403Y-152914200D01*
X124309636Y-152882619D01*
X124414862Y-152622176D01*
X124429686Y-152562720D01*
X124481753Y-152353893D01*
X124481754Y-152353888D01*
X124482817Y-152349624D01*
X124512178Y-152070267D01*
X124510694Y-152027767D01*
X124502529Y-151793939D01*
X124502528Y-151793933D01*
X124502375Y-151789542D01*
X124491275Y-151726587D01*
X124454360Y-151517236D01*
X124453598Y-151512913D01*
X124366797Y-151245765D01*
X124243660Y-150993298D01*
X124241205Y-150989659D01*
X124241202Y-150989653D01*
X124160935Y-150870653D01*
X124086585Y-150760424D01*
X123898629Y-150551678D01*
X123683450Y-150371121D01*
X123445236Y-150222269D01*
X123188625Y-150108018D01*
X122918610Y-150030593D01*
X122914260Y-150029982D01*
X122914257Y-150029981D01*
X122811310Y-150015513D01*
X122640448Y-149991500D01*
X122429854Y-149991500D01*
X122427668Y-149991653D01*
X122427664Y-149991653D01*
X122224173Y-150005882D01*
X122224168Y-150005883D01*
X122219788Y-150006189D01*
X121945030Y-150064591D01*
X121940901Y-150066094D01*
X121940897Y-150066095D01*
X121685219Y-150159154D01*
X121685215Y-150159156D01*
X121681074Y-150160663D01*
X121433058Y-150292536D01*
X121429499Y-150295122D01*
X121429497Y-150295123D01*
X121324895Y-150371121D01*
X121205808Y-150457642D01*
X121003748Y-150652769D01*
X120830812Y-150874118D01*
X120828616Y-150877922D01*
X120828611Y-150877929D01*
X120714794Y-151075067D01*
X120690364Y-151117381D01*
X120585138Y-151377824D01*
X120584073Y-151382097D01*
X120584072Y-151382099D01*
X120519203Y-151642276D01*
X120517183Y-151650376D01*
X120516724Y-151654744D01*
X120516723Y-151654749D01*
X120488281Y-151925364D01*
X120487822Y-151929733D01*
X108580139Y-151929733D01*
X108277027Y-151517793D01*
X108277025Y-151517791D01*
X108275893Y-151516252D01*
X108211949Y-151439525D01*
X107870533Y-151029856D01*
X107870526Y-151029848D01*
X107869315Y-151028395D01*
X107434023Y-150565977D01*
X106971605Y-150130685D01*
X106942953Y-150106806D01*
X106485213Y-149725328D01*
X106483748Y-149724107D01*
X106059357Y-149411834D01*
X105973768Y-149348856D01*
X105973758Y-149348849D01*
X105972233Y-149347727D01*
X105970645Y-149346700D01*
X105970633Y-149346692D01*
X105440515Y-149003945D01*
X105440506Y-149003940D01*
X105438926Y-149002918D01*
X104885772Y-148690939D01*
X104783890Y-148641332D01*
X104316515Y-148413766D01*
X104316504Y-148413761D01*
X104314791Y-148412927D01*
X104067871Y-148310649D01*
X103729825Y-148170625D01*
X103729808Y-148170618D01*
X103728066Y-148169897D01*
X103726280Y-148169281D01*
X103726265Y-148169275D01*
X103129550Y-147963362D01*
X103129542Y-147963359D01*
X103127738Y-147962737D01*
X102515996Y-147792201D01*
X101895075Y-147658913D01*
X101759298Y-147638248D01*
X101269099Y-147563641D01*
X101269091Y-147563640D01*
X101267238Y-147563358D01*
X100634777Y-147505885D01*
X100632884Y-147505828D01*
X100632871Y-147505827D01*
X100630822Y-147505765D01*
X100630706Y-147505762D01*
X100563218Y-147483718D01*
X100518362Y-147428686D01*
X100508500Y-147379819D01*
X100508500Y-128929733D01*
X102987822Y-128929733D01*
X102997625Y-129210458D01*
X102998387Y-129214781D01*
X102998388Y-129214788D01*
X103022164Y-129349624D01*
X103046402Y-129487087D01*
X103133203Y-129754235D01*
X103256340Y-130006702D01*
X103258795Y-130010341D01*
X103258798Y-130010347D01*
X103331890Y-130118710D01*
X103413415Y-130239576D01*
X103601371Y-130448322D01*
X103816550Y-130628879D01*
X104054764Y-130777731D01*
X104311375Y-130891982D01*
X104581390Y-130969407D01*
X104585740Y-130970018D01*
X104585743Y-130970019D01*
X104688690Y-130984487D01*
X104859552Y-131008500D01*
X105070146Y-131008500D01*
X105072332Y-131008347D01*
X105072336Y-131008347D01*
X105275827Y-130994118D01*
X105275832Y-130994117D01*
X105280212Y-130993811D01*
X105554970Y-130935409D01*
X105559099Y-130933906D01*
X105559103Y-130933905D01*
X105814781Y-130840846D01*
X105814785Y-130840844D01*
X105818926Y-130839337D01*
X106066942Y-130707464D01*
X106171896Y-130631211D01*
X106290629Y-130544947D01*
X106290632Y-130544944D01*
X106294192Y-130542358D01*
X106496252Y-130347231D01*
X106669188Y-130125882D01*
X106671384Y-130122078D01*
X106671389Y-130122071D01*
X106807435Y-129886431D01*
X106809636Y-129882619D01*
X106914862Y-129622176D01*
X106948544Y-129487087D01*
X106981753Y-129353893D01*
X106981754Y-129353888D01*
X106982817Y-129349624D01*
X107012178Y-129070267D01*
X107002375Y-128789542D01*
X106978608Y-128654749D01*
X106954360Y-128517236D01*
X106953598Y-128512913D01*
X106866797Y-128245765D01*
X106743660Y-127993298D01*
X106741205Y-127989659D01*
X106741202Y-127989653D01*
X106660935Y-127870653D01*
X106586585Y-127760424D01*
X106398629Y-127551678D01*
X106183450Y-127371121D01*
X105945236Y-127222269D01*
X105688625Y-127108018D01*
X105418610Y-127030593D01*
X105414260Y-127029982D01*
X105414257Y-127029981D01*
X105311310Y-127015513D01*
X105140448Y-126991500D01*
X104929854Y-126991500D01*
X104927668Y-126991653D01*
X104927664Y-126991653D01*
X104724173Y-127005882D01*
X104724168Y-127005883D01*
X104719788Y-127006189D01*
X104445030Y-127064591D01*
X104440901Y-127066094D01*
X104440897Y-127066095D01*
X104185219Y-127159154D01*
X104185215Y-127159156D01*
X104181074Y-127160663D01*
X103933058Y-127292536D01*
X103929499Y-127295122D01*
X103929497Y-127295123D01*
X103824895Y-127371121D01*
X103705808Y-127457642D01*
X103503748Y-127652769D01*
X103330812Y-127874118D01*
X103328616Y-127877922D01*
X103328611Y-127877929D01*
X103214794Y-128075067D01*
X103190364Y-128117381D01*
X103085138Y-128377824D01*
X103084073Y-128382097D01*
X103084072Y-128382099D01*
X103050379Y-128517236D01*
X103017183Y-128650376D01*
X102987822Y-128929733D01*
X100508500Y-128929733D01*
X100508500Y-123016472D01*
X100528502Y-122948351D01*
X100582158Y-122901858D01*
X100652432Y-122891754D01*
X100698267Y-122907800D01*
X100708071Y-122913553D01*
X100722965Y-122923799D01*
X100737448Y-122935377D01*
X100737451Y-122935378D01*
X100744463Y-122940984D01*
X100777087Y-122954389D01*
X100779502Y-122955472D01*
X100781795Y-122956818D01*
X100786319Y-122958605D01*
X100786327Y-122958609D01*
X100812205Y-122968832D01*
X100813798Y-122969474D01*
X100845196Y-122982375D01*
X100848104Y-122983613D01*
X100858432Y-122988163D01*
X100858440Y-122988166D01*
X100862892Y-122990127D01*
X100865934Y-122990938D01*
X100867315Y-122991464D01*
X100872207Y-122993474D01*
X100872211Y-122993475D01*
X100880515Y-122996887D01*
X100889443Y-122997831D01*
X100895586Y-122999384D01*
X100897777Y-122999759D01*
X100907971Y-123002189D01*
X100911197Y-123003003D01*
X100920647Y-123005522D01*
X100927803Y-123007883D01*
X100927814Y-123007848D01*
X100932474Y-123009286D01*
X100936996Y-123011075D01*
X100941740Y-123012147D01*
X100941741Y-123012147D01*
X100964052Y-123017187D01*
X100968738Y-123018341D01*
X100988197Y-123023528D01*
X100988209Y-123023530D01*
X100992537Y-123024684D01*
X100996985Y-123025212D01*
X100999822Y-123025756D01*
X101008845Y-123027307D01*
X101015037Y-123028706D01*
X101021503Y-123030348D01*
X101021683Y-123030399D01*
X101026252Y-123032079D01*
X101057972Y-123038441D01*
X101060778Y-123039040D01*
X101089261Y-123045474D01*
X101093729Y-123045832D01*
X101095351Y-123046079D01*
X101101132Y-123047098D01*
X101119225Y-123050726D01*
X101122384Y-123051464D01*
X101125171Y-123052445D01*
X101129956Y-123053334D01*
X101129966Y-123053337D01*
X101157540Y-123058462D01*
X101158022Y-123058570D01*
X101158537Y-123058750D01*
X101160090Y-123059034D01*
X101160092Y-123059035D01*
X101165469Y-123060020D01*
X101167482Y-123060406D01*
X101193496Y-123065623D01*
X101196435Y-123065787D01*
X101199721Y-123066301D01*
X101232816Y-123072452D01*
X101233378Y-123072475D01*
X101233839Y-123072543D01*
X101351388Y-123094075D01*
X101351691Y-123094131D01*
X101376389Y-123098743D01*
X101408973Y-123104828D01*
X101472265Y-123136996D01*
X101503165Y-123182735D01*
X101512367Y-123206229D01*
X101512924Y-123207679D01*
X101514812Y-123212680D01*
X101520159Y-123283475D01*
X101500841Y-123328449D01*
X101469763Y-123373761D01*
X101468770Y-123375105D01*
X101467700Y-123376256D01*
X101446579Y-123407500D01*
X101446147Y-123408133D01*
X101429077Y-123432967D01*
X101429063Y-123432989D01*
X101426654Y-123436494D01*
X101425929Y-123437958D01*
X101425076Y-123439310D01*
X101409472Y-123462393D01*
X101401207Y-123474619D01*
X101398856Y-123477881D01*
X101396550Y-123480446D01*
X101378127Y-123508705D01*
X101377648Y-123509439D01*
X101376499Y-123511171D01*
X101358795Y-123537360D01*
X101357291Y-123540454D01*
X101355119Y-123543993D01*
X101340390Y-123566586D01*
X101338031Y-123570204D01*
X101334990Y-123574591D01*
X101332245Y-123577775D01*
X101329673Y-123581902D01*
X101329669Y-123581908D01*
X101314545Y-123606179D01*
X101313159Y-123608353D01*
X101296618Y-123633725D01*
X101294851Y-123637522D01*
X101292053Y-123642278D01*
X101284934Y-123653704D01*
X101281171Y-123658995D01*
X101281302Y-123659085D01*
X101278546Y-123663101D01*
X101275488Y-123666893D01*
X101267939Y-123679951D01*
X101260755Y-123692376D01*
X101258614Y-123695942D01*
X101244706Y-123718263D01*
X101242897Y-123722369D01*
X101240806Y-123726326D01*
X101240738Y-123726290D01*
X101237795Y-123732091D01*
X101234003Y-123738651D01*
X101229476Y-123745898D01*
X101219269Y-123761065D01*
X101217207Y-123765469D01*
X101217200Y-123765481D01*
X101214003Y-123772309D01*
X101208983Y-123781928D01*
X101204712Y-123789315D01*
X101198067Y-123799620D01*
X101191748Y-123808441D01*
X101178488Y-123846276D01*
X101177964Y-123847770D01*
X101173175Y-123859506D01*
X101171388Y-123863324D01*
X101171327Y-123863295D01*
X101169860Y-123866634D01*
X101162625Y-123881209D01*
X101162624Y-123881212D01*
X101158632Y-123889254D01*
X101157058Y-123898090D01*
X101157057Y-123898094D01*
X101153115Y-123920230D01*
X101149601Y-123934845D01*
X101139374Y-123968419D01*
X101139274Y-123977399D01*
X101139145Y-123988893D01*
X101137201Y-124009575D01*
X101132839Y-124034065D01*
X101134421Y-124048626D01*
X101135640Y-124059851D01*
X101136274Y-124078545D01*
X101135589Y-124095488D01*
X101135589Y-124095492D01*
X101135227Y-124104460D01*
X101137397Y-124113170D01*
X101137741Y-124114552D01*
X101137543Y-124114601D01*
X101137638Y-124115533D01*
X101137731Y-124115507D01*
X101139451Y-124121645D01*
X101140387Y-124125178D01*
X101140734Y-124126569D01*
X101142484Y-124133596D01*
X101145483Y-124150444D01*
X101146955Y-124163988D01*
X101148726Y-124180294D01*
X101152163Y-124188591D01*
X101152164Y-124188595D01*
X101158652Y-124204259D01*
X101164508Y-124222024D01*
X101170776Y-124247190D01*
X101175302Y-124254940D01*
X101186112Y-124273450D01*
X101187024Y-124275254D01*
X101187902Y-124278482D01*
X101192209Y-124285509D01*
X101192213Y-124285516D01*
X101211528Y-124317024D01*
X101212909Y-124319333D01*
X101240426Y-124366451D01*
X101240428Y-124366454D01*
X101244955Y-124374205D01*
X101251478Y-124380376D01*
X101253588Y-124383035D01*
X101256903Y-124386532D01*
X101268086Y-124399691D01*
X101269174Y-124400992D01*
X101288701Y-124424680D01*
X101290319Y-124426684D01*
X101292723Y-124429725D01*
X101295440Y-124433768D01*
X101299471Y-124438129D01*
X101299974Y-124438673D01*
X101304668Y-124444049D01*
X101309273Y-124449636D01*
X101309277Y-124449640D01*
X101314691Y-124456208D01*
X101317399Y-124458048D01*
X101319699Y-124460429D01*
X101332249Y-124475198D01*
X101335604Y-124478165D01*
X101335648Y-124478204D01*
X101344707Y-124487067D01*
X101349756Y-124492530D01*
X101353257Y-124496540D01*
X101355670Y-124499977D01*
X101378877Y-124524072D01*
X101380615Y-124525915D01*
X101398171Y-124544908D01*
X101398184Y-124544920D01*
X101401212Y-124548196D01*
X101404451Y-124550829D01*
X101408402Y-124554728D01*
X101423542Y-124570447D01*
X101425573Y-124572695D01*
X101427204Y-124574953D01*
X101430618Y-124578404D01*
X101430623Y-124578410D01*
X101452325Y-124600348D01*
X101453497Y-124601549D01*
X101473004Y-124621802D01*
X101473018Y-124621815D01*
X101476116Y-124625031D01*
X101478305Y-124626737D01*
X101480548Y-124628877D01*
X101503960Y-124652543D01*
X101505532Y-124654241D01*
X101506862Y-124656042D01*
X101510311Y-124659455D01*
X101510319Y-124659464D01*
X101532884Y-124681792D01*
X101533835Y-124682742D01*
X101553879Y-124703003D01*
X101557348Y-124706510D01*
X101559129Y-124707859D01*
X101560840Y-124709453D01*
X101588024Y-124736353D01*
X101589500Y-124737915D01*
X101590781Y-124739612D01*
X101594269Y-124742994D01*
X101594276Y-124743002D01*
X101617159Y-124765190D01*
X101618072Y-124766084D01*
X101641985Y-124789746D01*
X101643696Y-124791014D01*
X101645318Y-124792494D01*
X101671828Y-124818198D01*
X101673567Y-124819999D01*
X101675042Y-124821908D01*
X101701458Y-124846939D01*
X101702409Y-124847852D01*
X101723056Y-124867872D01*
X101723064Y-124867878D01*
X101726283Y-124871000D01*
X101728230Y-124872413D01*
X101730144Y-124874121D01*
X101742641Y-124885962D01*
X101748411Y-124891429D01*
X101751449Y-124894308D01*
X101754043Y-124896923D01*
X101756062Y-124899453D01*
X101778823Y-124920356D01*
X101781827Y-124923115D01*
X101783265Y-124924457D01*
X101803174Y-124943323D01*
X101803185Y-124943332D01*
X101806427Y-124946404D01*
X101809061Y-124948270D01*
X101811905Y-124950739D01*
X101822741Y-124960690D01*
X101827318Y-124965113D01*
X101828669Y-124966486D01*
X101831810Y-124970216D01*
X101855612Y-124990938D01*
X101858070Y-124993137D01*
X101878971Y-125012332D01*
X101882682Y-125014874D01*
X101885383Y-125017022D01*
X101889681Y-125020598D01*
X101892494Y-125023047D01*
X101900650Y-125030817D01*
X101905099Y-125035452D01*
X101905103Y-125035456D01*
X101908474Y-125038967D01*
X101912340Y-125041914D01*
X101912350Y-125041923D01*
X101920454Y-125048100D01*
X101932053Y-125059048D01*
X101937908Y-125064177D01*
X101943752Y-125070988D01*
X101951273Y-125075885D01*
X101951274Y-125075886D01*
X101985967Y-125098476D01*
X101993597Y-125103857D01*
X102000054Y-125108779D01*
X102003620Y-125111497D01*
X102007531Y-125113680D01*
X102016309Y-125118580D01*
X102023629Y-125122999D01*
X102038467Y-125132660D01*
X102042900Y-125134654D01*
X102046220Y-125136468D01*
X102054936Y-125141696D01*
X102074766Y-125154708D01*
X102083351Y-125157328D01*
X102085170Y-125158181D01*
X102085949Y-125158449D01*
X102091694Y-125160656D01*
X102099535Y-125165033D01*
X102128294Y-125171603D01*
X102135076Y-125173353D01*
X102143074Y-125175657D01*
X102148070Y-125177097D01*
X102149966Y-125177660D01*
X102194682Y-125191307D01*
X102215449Y-125197645D01*
X102219570Y-125197693D01*
X102223530Y-125198834D01*
X102278922Y-125198611D01*
X102292012Y-125198559D01*
X102293998Y-125198567D01*
X102303959Y-125198684D01*
X102362528Y-125199372D01*
X102366501Y-125198261D01*
X102370620Y-125198244D01*
X102434576Y-125179263D01*
X102434898Y-125180349D01*
X102437577Y-125178958D01*
X102441989Y-125178510D01*
X102450306Y-125175133D01*
X102453136Y-125174430D01*
X102459661Y-125172201D01*
X102466682Y-125170237D01*
X102466686Y-125170235D01*
X102471374Y-125168924D01*
X102474311Y-125167587D01*
X102477758Y-125166448D01*
X102503019Y-125158951D01*
X102503021Y-125158950D01*
X102511630Y-125156395D01*
X102528539Y-125145485D01*
X102540572Y-125138628D01*
X102542192Y-125137819D01*
X102546707Y-125135986D01*
X102550885Y-125133480D01*
X102553524Y-125132163D01*
X102555284Y-125131239D01*
X102555212Y-125131107D01*
X102559158Y-125128960D01*
X102563235Y-125127104D01*
X102587133Y-125111805D01*
X102590224Y-125109890D01*
X102592995Y-125108228D01*
X102599261Y-125104958D01*
X102599217Y-125104878D01*
X102603492Y-125102549D01*
X102607931Y-125100558D01*
X102612008Y-125097910D01*
X102612015Y-125097906D01*
X102631851Y-125085021D01*
X102635660Y-125082642D01*
X102657473Y-125069561D01*
X102660960Y-125066727D01*
X102664621Y-125064161D01*
X102664755Y-125064352D01*
X102674812Y-125057456D01*
X102677759Y-125056060D01*
X102705337Y-125037321D01*
X102707516Y-125035873D01*
X102715300Y-125030817D01*
X102732873Y-125019402D01*
X102735553Y-125017060D01*
X102737707Y-125015506D01*
X102758365Y-125001290D01*
X102758849Y-125000959D01*
X102787870Y-124981239D01*
X102788789Y-124980402D01*
X102789731Y-124979707D01*
X102843625Y-124942620D01*
X102843744Y-124942538D01*
X102942424Y-124875024D01*
X102963133Y-124860921D01*
X103030696Y-124839112D01*
X103079909Y-124847708D01*
X103079989Y-124847739D01*
X103084031Y-124849660D01*
X103088303Y-124850988D01*
X103088306Y-124850989D01*
X103091121Y-124851864D01*
X103099271Y-124854707D01*
X103124115Y-124864344D01*
X103125716Y-124864965D01*
X103127001Y-124865472D01*
X103150356Y-124874828D01*
X103150362Y-124874830D01*
X103154521Y-124876496D01*
X103156566Y-124876994D01*
X103157418Y-124877295D01*
X103157805Y-124877412D01*
X103162348Y-124879174D01*
X103167109Y-124880216D01*
X103171766Y-124881620D01*
X103171744Y-124881692D01*
X103183388Y-124885144D01*
X103200436Y-124891582D01*
X103200437Y-124891582D01*
X103208836Y-124894754D01*
X103217787Y-124895441D01*
X103217792Y-124895442D01*
X103228848Y-124896291D01*
X103249001Y-124899494D01*
X103261249Y-124902476D01*
X103282554Y-124901501D01*
X103283739Y-124901447D01*
X103299140Y-124901684D01*
X103304105Y-124902065D01*
X103355494Y-124906009D01*
X103356338Y-124905831D01*
X103357195Y-124905894D01*
X103365749Y-124904060D01*
X103365751Y-124904060D01*
X103403490Y-124895969D01*
X103403503Y-124896031D01*
X103403662Y-124895961D01*
X103408186Y-124895754D01*
X103414355Y-124893640D01*
X103428201Y-124890671D01*
X103499416Y-124875648D01*
X103500175Y-124875241D01*
X103501018Y-124875060D01*
X103564937Y-124840499D01*
X103601724Y-124820764D01*
X103621290Y-124810268D01*
X103621291Y-124810267D01*
X103629033Y-124806114D01*
X103629648Y-124805509D01*
X103630405Y-124805100D01*
X103682076Y-124753967D01*
X103682219Y-124753827D01*
X103685771Y-124750334D01*
X103696625Y-124740910D01*
X103697010Y-124740518D01*
X103704139Y-124735065D01*
X103709450Y-124727832D01*
X103714304Y-124722882D01*
X103719072Y-124717356D01*
X103728574Y-124707953D01*
X103728575Y-124707951D01*
X103734956Y-124701637D01*
X103739307Y-124693787D01*
X103739311Y-124693782D01*
X103750059Y-124674391D01*
X103759160Y-124660278D01*
X103766017Y-124651058D01*
X103767776Y-124648693D01*
X103768391Y-124647560D01*
X103771032Y-124643963D01*
X103775691Y-124634991D01*
X103785750Y-124615616D01*
X103786803Y-124613631D01*
X103802493Y-124584721D01*
X103802493Y-124584720D01*
X103803033Y-124585013D01*
X103803604Y-124583087D01*
X103804834Y-124581277D01*
X103806913Y-124576891D01*
X103807100Y-124576564D01*
X103809730Y-124571385D01*
X103820169Y-124552149D01*
X103821007Y-124548268D01*
X103822685Y-124544479D01*
X103828605Y-124533078D01*
X103828608Y-124533072D01*
X103830669Y-124529102D01*
X103832148Y-124524877D01*
X103833928Y-124520756D01*
X103833936Y-124520760D01*
X103836651Y-124514148D01*
X103839672Y-124507774D01*
X103841469Y-124504263D01*
X103843336Y-124501417D01*
X103845973Y-124495609D01*
X103857690Y-124469799D01*
X103858563Y-124467917D01*
X103870189Y-124443389D01*
X103870190Y-124443386D01*
X103872106Y-124439344D01*
X103873111Y-124436100D01*
X103874689Y-124432355D01*
X103886390Y-124406578D01*
X103887302Y-124404736D01*
X103888415Y-124403004D01*
X103903404Y-124369111D01*
X103903822Y-124368181D01*
X103915935Y-124341501D01*
X103915940Y-124341486D01*
X103917786Y-124337421D01*
X103918359Y-124335458D01*
X103919147Y-124333517D01*
X103937896Y-124291125D01*
X103938489Y-124289903D01*
X103939261Y-124288681D01*
X103954391Y-124253831D01*
X103954635Y-124253275D01*
X103967157Y-124224963D01*
X103967165Y-124224943D01*
X103968700Y-124221472D01*
X103969088Y-124220093D01*
X103969598Y-124218807D01*
X103993397Y-124163988D01*
X103993846Y-124163047D01*
X103994448Y-124162084D01*
X104009540Y-124126808D01*
X104009782Y-124126247D01*
X104022546Y-124096847D01*
X104022549Y-124096839D01*
X104023776Y-124094013D01*
X104024074Y-124092923D01*
X104024461Y-124091931D01*
X104051455Y-124028832D01*
X104051839Y-124028018D01*
X104052360Y-124027176D01*
X104067296Y-123991809D01*
X104067523Y-123991274D01*
X104080416Y-123961138D01*
X104080419Y-123961129D01*
X104081489Y-123958629D01*
X104081746Y-123957673D01*
X104082069Y-123956830D01*
X104110457Y-123889610D01*
X104110818Y-123888836D01*
X104111316Y-123888022D01*
X104126282Y-123852138D01*
X104140167Y-123819259D01*
X104140408Y-123818343D01*
X104140716Y-123817529D01*
X104168702Y-123750424D01*
X104169086Y-123749589D01*
X104169607Y-123748730D01*
X104173242Y-123739897D01*
X104176770Y-123731326D01*
X104221193Y-123675944D01*
X104288506Y-123653371D01*
X104357336Y-123670773D01*
X104405832Y-123722625D01*
X104409521Y-123730642D01*
X104410134Y-123732107D01*
X104413222Y-123739488D01*
X104413444Y-123740021D01*
X104423853Y-123765226D01*
X104427049Y-123772966D01*
X104427549Y-123773811D01*
X104427925Y-123774632D01*
X104456141Y-123842079D01*
X104456441Y-123842876D01*
X104456670Y-123843789D01*
X104457690Y-123846196D01*
X104457693Y-123846205D01*
X104460349Y-123852474D01*
X104471831Y-123879580D01*
X104485617Y-123912534D01*
X104486102Y-123913346D01*
X104486460Y-123914117D01*
X104514728Y-123980855D01*
X104515055Y-123981713D01*
X104515303Y-123982680D01*
X104516393Y-123985220D01*
X104516398Y-123985233D01*
X104530507Y-124018108D01*
X104530676Y-124018503D01*
X104544508Y-124051159D01*
X104545029Y-124052023D01*
X104545406Y-124052825D01*
X104571303Y-124113170D01*
X104571941Y-124114657D01*
X104572328Y-124115655D01*
X104572626Y-124116792D01*
X104581119Y-124136284D01*
X104587880Y-124151803D01*
X104588156Y-124152441D01*
X104602020Y-124184747D01*
X104602630Y-124185747D01*
X104603096Y-124186727D01*
X104607989Y-124197957D01*
X104625646Y-124238482D01*
X104626061Y-124239435D01*
X104626590Y-124240777D01*
X104626985Y-124242241D01*
X104628614Y-124245908D01*
X104628618Y-124245918D01*
X104642317Y-124276755D01*
X104642677Y-124277574D01*
X104656469Y-124309230D01*
X104657270Y-124310527D01*
X104657890Y-124311812D01*
X104675453Y-124351346D01*
X104676294Y-124353423D01*
X104676896Y-124355564D01*
X104678920Y-124359993D01*
X104678922Y-124359999D01*
X104692080Y-124388793D01*
X104692628Y-124390008D01*
X104703076Y-124413527D01*
X104706259Y-124420693D01*
X104707438Y-124422573D01*
X104708459Y-124424638D01*
X104718559Y-124446741D01*
X104720346Y-124450979D01*
X104721448Y-124454635D01*
X104735190Y-124483291D01*
X104736173Y-124485341D01*
X104737162Y-124487455D01*
X104748166Y-124511536D01*
X104750032Y-124515619D01*
X104752085Y-124518815D01*
X104754261Y-124523062D01*
X104755839Y-124526352D01*
X104760785Y-124538312D01*
X104761053Y-124538922D01*
X104762662Y-124543513D01*
X104764957Y-124547800D01*
X104764959Y-124547805D01*
X104769528Y-124556340D01*
X104774449Y-124566764D01*
X104776551Y-124575057D01*
X104782250Y-124584721D01*
X104794250Y-124605070D01*
X104792232Y-124606260D01*
X104794208Y-124608605D01*
X104795138Y-124607996D01*
X104801997Y-124618477D01*
X104805104Y-124623476D01*
X104806021Y-124625031D01*
X104807692Y-124627865D01*
X104810236Y-124632392D01*
X104818819Y-124648427D01*
X104818830Y-124648444D01*
X104820942Y-124652390D01*
X104823599Y-124656005D01*
X104824226Y-124657000D01*
X104830310Y-124666219D01*
X104833963Y-124672414D01*
X104841660Y-124681792D01*
X104846069Y-124687164D01*
X104854105Y-124698109D01*
X104870761Y-124723563D01*
X104870763Y-124723565D01*
X104875679Y-124731078D01*
X104882506Y-124736909D01*
X104882508Y-124736911D01*
X104883964Y-124738154D01*
X104883786Y-124738362D01*
X104885790Y-124740639D01*
X104885986Y-124740906D01*
X104894680Y-124747551D01*
X104899983Y-124751837D01*
X104915618Y-124765190D01*
X104923228Y-124771690D01*
X104926474Y-124774560D01*
X104972613Y-124816797D01*
X104980398Y-124820623D01*
X104980928Y-124820972D01*
X104987525Y-124826606D01*
X104995711Y-124830285D01*
X104995714Y-124830287D01*
X105044592Y-124852255D01*
X105048514Y-124854099D01*
X105066809Y-124863090D01*
X105104624Y-124881674D01*
X105113170Y-124883161D01*
X105113774Y-124883346D01*
X105121688Y-124886903D01*
X105183658Y-124895503D01*
X105187891Y-124896164D01*
X105249535Y-124906892D01*
X105258155Y-124905921D01*
X105258793Y-124905929D01*
X105267382Y-124907121D01*
X105276261Y-124905810D01*
X105276266Y-124905810D01*
X105329252Y-124897986D01*
X105333528Y-124897429D01*
X105367157Y-124893640D01*
X105386783Y-124891429D01*
X105386785Y-124891428D01*
X105395700Y-124890424D01*
X105431714Y-124875338D01*
X105447480Y-124869930D01*
X105450478Y-124869119D01*
X105464441Y-124865341D01*
X105468897Y-124863358D01*
X105469434Y-124863167D01*
X105473077Y-124861646D01*
X105475394Y-124860741D01*
X105479679Y-124859411D01*
X105497813Y-124850801D01*
X105567925Y-124839650D01*
X105622871Y-124860539D01*
X105684456Y-124902558D01*
X105684686Y-124902716D01*
X105779077Y-124967425D01*
X105779226Y-124967527D01*
X105794351Y-124977952D01*
X105796472Y-124979518D01*
X105798336Y-124981240D01*
X105828394Y-125001425D01*
X105829564Y-125002221D01*
X105856767Y-125020969D01*
X105859033Y-125022095D01*
X105861322Y-125023536D01*
X105865516Y-125026352D01*
X105870225Y-125029985D01*
X105870372Y-125029787D01*
X105874291Y-125032695D01*
X105877959Y-125035883D01*
X105882074Y-125038469D01*
X105882078Y-125038472D01*
X105903606Y-125052001D01*
X105906805Y-125054080D01*
X105925660Y-125066742D01*
X105925679Y-125066753D01*
X105929396Y-125069249D01*
X105933438Y-125071197D01*
X105937076Y-125073281D01*
X105952050Y-125083348D01*
X105953001Y-125084092D01*
X105953005Y-125084095D01*
X105956837Y-125087090D01*
X105961086Y-125089462D01*
X105961093Y-125089466D01*
X105967130Y-125092835D01*
X105968282Y-125093585D01*
X105969288Y-125094594D01*
X105972801Y-125096526D01*
X105982840Y-125102047D01*
X105989162Y-125105767D01*
X105999984Y-125112569D01*
X106004081Y-125114393D01*
X106006764Y-125115824D01*
X106012812Y-125119317D01*
X106019395Y-125124861D01*
X106027609Y-125128484D01*
X106027610Y-125128485D01*
X106038466Y-125133274D01*
X106049001Y-125138522D01*
X106063170Y-125146429D01*
X106064391Y-125146898D01*
X106068322Y-125149060D01*
X106072893Y-125150720D01*
X106072904Y-125150725D01*
X106097917Y-125159809D01*
X106105756Y-125162957D01*
X106145759Y-125180602D01*
X106145761Y-125180602D01*
X106153973Y-125184225D01*
X106162873Y-125185397D01*
X106165523Y-125185746D01*
X106165473Y-125186126D01*
X106166599Y-125186441D01*
X106166671Y-125185897D01*
X106176387Y-125187177D01*
X106176390Y-125187177D01*
X106178485Y-125187453D01*
X106203049Y-125190688D01*
X106212384Y-125192276D01*
X106245834Y-125199270D01*
X106260828Y-125202405D01*
X106269775Y-125201702D01*
X106277028Y-125202166D01*
X106283649Y-125202340D01*
X106290906Y-125202258D01*
X106299804Y-125203430D01*
X106309968Y-125201857D01*
X106348730Y-125195859D01*
X106358133Y-125194764D01*
X106398520Y-125191592D01*
X106398522Y-125191592D01*
X106407467Y-125190889D01*
X106415856Y-125187704D01*
X106422937Y-125186116D01*
X106429356Y-125184421D01*
X106436296Y-125182306D01*
X106445163Y-125180934D01*
X106453289Y-125177128D01*
X106453292Y-125177127D01*
X106489989Y-125159939D01*
X106498708Y-125156248D01*
X106536585Y-125141867D01*
X106544979Y-125138680D01*
X106568807Y-125120665D01*
X106586511Y-125107280D01*
X106596693Y-125100338D01*
X106610189Y-125092073D01*
X106610195Y-125092069D01*
X106614347Y-125089526D01*
X106618063Y-125086371D01*
X106619254Y-125085508D01*
X106622635Y-125082948D01*
X106622563Y-125082856D01*
X106626087Y-125080101D01*
X106629817Y-125077590D01*
X106644469Y-125064352D01*
X106646424Y-125062586D01*
X106654902Y-125055574D01*
X106657287Y-125053771D01*
X106662310Y-125049973D01*
X106663441Y-125048451D01*
X106664002Y-125047957D01*
X106667258Y-125045831D01*
X106690126Y-125025252D01*
X106692853Y-125022868D01*
X106710542Y-125007849D01*
X106710548Y-125007843D01*
X106713966Y-125004941D01*
X106716940Y-125001581D01*
X106720139Y-124998447D01*
X106720260Y-124998571D01*
X106724273Y-124994524D01*
X106727647Y-124991489D01*
X106730310Y-124989239D01*
X106732897Y-124987494D01*
X106736452Y-124984197D01*
X106736457Y-124984193D01*
X106758723Y-124963542D01*
X106760078Y-124962304D01*
X106783931Y-124940838D01*
X106785929Y-124938446D01*
X106788494Y-124935930D01*
X106799115Y-124926079D01*
X106807685Y-124918130D01*
X106809436Y-124916611D01*
X106811303Y-124915323D01*
X106837934Y-124890083D01*
X106838682Y-124889382D01*
X106863323Y-124866528D01*
X106864750Y-124864766D01*
X106866415Y-124863090D01*
X106896484Y-124834592D01*
X106897624Y-124833584D01*
X106898933Y-124832666D01*
X106901987Y-124829728D01*
X106926054Y-124806572D01*
X106926741Y-124805916D01*
X106951719Y-124782243D01*
X106951739Y-124782264D01*
X106956099Y-124778082D01*
X106956603Y-124777721D01*
X106982810Y-124751971D01*
X106983702Y-124751105D01*
X107004605Y-124730993D01*
X107004609Y-124730989D01*
X107007845Y-124727875D01*
X107009196Y-124726143D01*
X107010775Y-124724494D01*
X107027610Y-124707953D01*
X107051058Y-124684915D01*
X107054110Y-124682091D01*
X107056956Y-124679975D01*
X107060369Y-124676504D01*
X107060374Y-124676500D01*
X107081142Y-124655381D01*
X107082637Y-124653886D01*
X107105067Y-124631848D01*
X107107214Y-124629035D01*
X107110147Y-124625887D01*
X107138536Y-124597020D01*
X107142892Y-124592828D01*
X107146482Y-124590032D01*
X107151202Y-124585013D01*
X107168974Y-124566114D01*
X107170929Y-124564080D01*
X107182663Y-124552149D01*
X107191776Y-124542882D01*
X107194440Y-124539265D01*
X107194564Y-124539119D01*
X107198667Y-124534537D01*
X107200464Y-124532626D01*
X107212771Y-124519540D01*
X107218019Y-124514579D01*
X107217969Y-124514528D01*
X107221447Y-124511118D01*
X107225174Y-124507988D01*
X107243780Y-124486686D01*
X107246858Y-124483291D01*
X107261004Y-124468248D01*
X107261011Y-124468239D01*
X107264076Y-124464980D01*
X107266650Y-124461317D01*
X107269481Y-124457841D01*
X107273943Y-124452153D01*
X107283601Y-124441094D01*
X107288966Y-124435325D01*
X107290508Y-124433768D01*
X107303135Y-124421014D01*
X107309322Y-124412455D01*
X107316528Y-124403396D01*
X107321422Y-124397792D01*
X107323862Y-124394033D01*
X107326565Y-124390453D01*
X107326704Y-124390558D01*
X107338588Y-124375620D01*
X107347750Y-124366138D01*
X107347755Y-124366131D01*
X107353991Y-124359677D01*
X107371316Y-124326698D01*
X107371321Y-124326691D01*
X107375902Y-124317970D01*
X107384376Y-124304097D01*
X107393007Y-124291824D01*
X107393008Y-124291822D01*
X107398169Y-124284483D01*
X107403640Y-124268426D01*
X107411360Y-124250469D01*
X107418230Y-124237392D01*
X107418230Y-124237391D01*
X107422403Y-124229448D01*
X107425740Y-124212920D01*
X107428760Y-124197957D01*
X107433003Y-124182250D01*
X107436711Y-124171367D01*
X107445609Y-124145254D01*
X107446003Y-124136290D01*
X107446004Y-124136284D01*
X107446827Y-124117564D01*
X107448902Y-124099672D01*
X107452382Y-124081277D01*
X107454052Y-124072452D01*
X107452820Y-124059851D01*
X107451303Y-124044331D01*
X107450826Y-124026543D01*
X107451672Y-124007273D01*
X107452066Y-123998306D01*
X107445464Y-123971395D01*
X107442433Y-123953634D01*
X107440610Y-123934992D01*
X107439737Y-123926060D01*
X107426595Y-123893342D01*
X107425744Y-123891012D01*
X107425137Y-123888537D01*
X107412539Y-123858323D01*
X107411919Y-123856809D01*
X107397462Y-123820819D01*
X107396645Y-123818729D01*
X107393104Y-123809419D01*
X107393104Y-123809418D01*
X107391438Y-123805039D01*
X107390393Y-123803205D01*
X107390328Y-123803056D01*
X107388259Y-123797904D01*
X107388255Y-123797897D01*
X107384910Y-123789570D01*
X107379361Y-123782515D01*
X107376749Y-123777998D01*
X107374021Y-123774027D01*
X107368757Y-123765191D01*
X107367547Y-123763113D01*
X107361950Y-123753289D01*
X107358738Y-123746793D01*
X107358678Y-123746824D01*
X107356442Y-123742505D01*
X107354544Y-123738020D01*
X107339680Y-123714035D01*
X107337315Y-123710057D01*
X107329271Y-123695942D01*
X107324896Y-123688264D01*
X107322142Y-123684717D01*
X107319718Y-123681089D01*
X107315511Y-123675036D01*
X107310498Y-123666948D01*
X107307786Y-123662284D01*
X107306058Y-123658424D01*
X107287868Y-123630384D01*
X107286509Y-123628241D01*
X107270549Y-123602489D01*
X107267848Y-123599262D01*
X107264687Y-123594650D01*
X107255309Y-123580194D01*
X107250071Y-123572119D01*
X107248151Y-123568950D01*
X107246770Y-123565993D01*
X107227309Y-123537004D01*
X107226216Y-123535348D01*
X107211303Y-123512359D01*
X107211300Y-123512355D01*
X107208864Y-123508600D01*
X107206720Y-123506144D01*
X107204492Y-123503017D01*
X107182220Y-123469839D01*
X107181200Y-123468202D01*
X107180359Y-123466444D01*
X107162065Y-123439729D01*
X107161954Y-123439553D01*
X107161844Y-123439324D01*
X107157200Y-123432559D01*
X107156557Y-123431613D01*
X107139869Y-123406754D01*
X107138571Y-123405313D01*
X107137422Y-123403742D01*
X107119125Y-123377024D01*
X107118711Y-123376419D01*
X107118540Y-123376233D01*
X107118418Y-123376068D01*
X107116835Y-123373761D01*
X107085762Y-123328498D01*
X107063698Y-123261018D01*
X107072257Y-123211391D01*
X107072842Y-123209892D01*
X107083385Y-123182871D01*
X107126776Y-123126681D01*
X107177511Y-123104834D01*
X107209456Y-123098835D01*
X107209951Y-123098743D01*
X107349880Y-123073045D01*
X107352187Y-123072702D01*
X107354311Y-123072625D01*
X107359091Y-123071702D01*
X107359096Y-123071701D01*
X107390341Y-123065665D01*
X107391630Y-123065423D01*
X107420168Y-123060218D01*
X107420169Y-123060218D01*
X107424581Y-123059413D01*
X107426665Y-123058716D01*
X107428877Y-123058219D01*
X107443996Y-123055298D01*
X107450272Y-123054086D01*
X107456354Y-123053082D01*
X107460959Y-123052810D01*
X107465713Y-123051779D01*
X107465715Y-123051779D01*
X107492989Y-123045866D01*
X107495784Y-123045293D01*
X107520459Y-123040526D01*
X107520463Y-123040525D01*
X107524852Y-123039677D01*
X107529075Y-123038216D01*
X107529519Y-123038097D01*
X107535440Y-123036662D01*
X107544096Y-123034785D01*
X107550206Y-123033850D01*
X107550173Y-123033654D01*
X107554976Y-123032841D01*
X107559823Y-123032401D01*
X107580206Y-123027307D01*
X107588893Y-123025136D01*
X107592745Y-123024237D01*
X107597255Y-123023259D01*
X107618961Y-123018553D01*
X107623157Y-123016994D01*
X107627468Y-123015733D01*
X107627499Y-123015840D01*
X107633394Y-123014015D01*
X107635838Y-123013404D01*
X107646047Y-123011296D01*
X107659372Y-123009116D01*
X107663986Y-123007604D01*
X107663991Y-123007603D01*
X107664948Y-123007289D01*
X107676550Y-123004093D01*
X107678828Y-123003581D01*
X107687776Y-123002874D01*
X107734047Y-122985282D01*
X107747929Y-122980905D01*
X107776027Y-122973805D01*
X107810291Y-122953637D01*
X107815339Y-122950666D01*
X107823440Y-122946288D01*
X107834176Y-122940984D01*
X107867427Y-122924556D01*
X107874039Y-122918478D01*
X107881437Y-122913404D01*
X107881470Y-122913453D01*
X107892694Y-122905137D01*
X107895052Y-122903749D01*
X107895057Y-122903745D01*
X107902789Y-122899194D01*
X107909781Y-122891754D01*
X107918823Y-122882131D01*
X107933391Y-122868876D01*
X107944798Y-122860023D01*
X107951886Y-122854522D01*
X107964639Y-122836894D01*
X107969115Y-122831076D01*
X107975713Y-122825009D01*
X107980351Y-122817322D01*
X107981781Y-122815573D01*
X107987525Y-122809022D01*
X107997366Y-122798549D01*
X107997367Y-122798547D01*
X108003515Y-122792005D01*
X108014115Y-122771128D01*
X108024374Y-122754322D01*
X108032842Y-122742617D01*
X108032843Y-122742615D01*
X108038101Y-122735347D01*
X108049362Y-122703692D01*
X108051132Y-122700024D01*
X108051707Y-122699071D01*
X108051847Y-122698542D01*
X108053884Y-122694319D01*
X108053406Y-122694108D01*
X108054604Y-122691388D01*
X108054685Y-122691228D01*
X108054716Y-122691133D01*
X108057025Y-122685889D01*
X108061769Y-122678273D01*
X108072929Y-122638346D01*
X108075567Y-122630032D01*
X108084392Y-122605226D01*
X108087402Y-122596766D01*
X108087916Y-122587800D01*
X108089248Y-122581215D01*
X108090553Y-122575793D01*
X108090887Y-122574103D01*
X108092196Y-122569422D01*
X108094750Y-122547900D01*
X108095756Y-122541045D01*
X108103973Y-122494057D01*
X108105520Y-122485211D01*
X108104523Y-122476289D01*
X108104800Y-122467317D01*
X108105597Y-122467342D01*
X108105615Y-122456338D01*
X108107814Y-122437807D01*
X108107701Y-122433099D01*
X108107603Y-122429081D01*
X108107820Y-122418045D01*
X108108548Y-122406591D01*
X108108549Y-122406586D01*
X108108549Y-122406577D01*
X108109105Y-122400310D01*
X108109380Y-122397897D01*
X108110303Y-122393117D01*
X108111440Y-122361813D01*
X108111610Y-122358409D01*
X108113114Y-122334752D01*
X108113114Y-122334751D01*
X108113398Y-122330282D01*
X108113046Y-122325821D01*
X108113015Y-122321806D01*
X108113094Y-122316276D01*
X108113870Y-122294889D01*
X108114159Y-122290519D01*
X108114792Y-122286894D01*
X108115425Y-122252661D01*
X108115486Y-122250419D01*
X108116456Y-122223694D01*
X108116619Y-122219207D01*
X108116231Y-122215554D01*
X108116194Y-122211001D01*
X108116815Y-122177446D01*
X108116979Y-122174149D01*
X108117449Y-122171211D01*
X108117598Y-122135737D01*
X108117618Y-122133956D01*
X108118131Y-122106155D01*
X108118214Y-122101681D01*
X108117849Y-122098744D01*
X108117767Y-122095383D01*
X108117928Y-122056908D01*
X108118039Y-122053808D01*
X108118452Y-122050985D01*
X108118114Y-122015339D01*
X108118109Y-122013688D01*
X108118115Y-122012423D01*
X108118246Y-121981146D01*
X108117854Y-121978324D01*
X108117732Y-121975137D01*
X108117631Y-121964407D01*
X108117382Y-121938256D01*
X108117461Y-121934581D01*
X108117878Y-121931376D01*
X108116999Y-121896250D01*
X108116966Y-121894318D01*
X108116707Y-121866997D01*
X108116707Y-121866992D01*
X108116664Y-121862509D01*
X108116177Y-121859321D01*
X108115980Y-121855610D01*
X108115257Y-121826752D01*
X108115274Y-121821143D01*
X108115744Y-121816811D01*
X108115519Y-121811953D01*
X108115519Y-121811939D01*
X108114207Y-121783677D01*
X108114110Y-121780987D01*
X108113759Y-121766935D01*
X108113358Y-121750933D01*
X108112635Y-121746656D01*
X108112218Y-121740812D01*
X108111517Y-121725694D01*
X108111608Y-121718490D01*
X108111534Y-121718490D01*
X108111506Y-121713628D01*
X108111854Y-121708767D01*
X108109512Y-121680615D01*
X108109213Y-121676010D01*
X108108254Y-121655342D01*
X108108254Y-121655339D01*
X108108046Y-121650864D01*
X108107205Y-121646458D01*
X108106680Y-121642013D01*
X108106682Y-121642013D01*
X108105703Y-121634851D01*
X108104575Y-121621294D01*
X108104168Y-121613403D01*
X108103864Y-121598259D01*
X108103864Y-121598256D01*
X108103766Y-121593397D01*
X108101905Y-121582843D01*
X108100426Y-121571424D01*
X108100169Y-121568335D01*
X108100169Y-121568333D01*
X108099797Y-121563868D01*
X108098172Y-121556775D01*
X108095092Y-121533703D01*
X108094421Y-121517024D01*
X108094421Y-121517022D01*
X108094060Y-121508058D01*
X108072808Y-121444924D01*
X108069469Y-121433130D01*
X108065318Y-121415178D01*
X108065316Y-121415172D01*
X108063293Y-121406426D01*
X108058895Y-121398596D01*
X108055655Y-121390231D01*
X108055813Y-121390170D01*
X108051896Y-121381261D01*
X108051761Y-121380848D01*
X108051759Y-121380844D01*
X108048962Y-121372313D01*
X108043882Y-121364909D01*
X108043880Y-121364904D01*
X108029290Y-121343637D01*
X108021384Y-121330456D01*
X108020269Y-121328310D01*
X108020264Y-121328302D01*
X108018204Y-121324337D01*
X108015603Y-121320705D01*
X108013252Y-121316872D01*
X108013342Y-121316817D01*
X108010091Y-121311707D01*
X108009800Y-121311188D01*
X108000241Y-121294170D01*
X107995657Y-121286009D01*
X107995657Y-121286008D01*
X107991260Y-121278181D01*
X107978757Y-121265947D01*
X107964438Y-121249247D01*
X107959479Y-121242320D01*
X107959477Y-121242318D01*
X107954256Y-121235026D01*
X107924000Y-121211306D01*
X107913615Y-121202203D01*
X107907907Y-121196618D01*
X107886130Y-121175308D01*
X107876319Y-121170074D01*
X107870689Y-121167071D01*
X107852256Y-121155060D01*
X107845564Y-121149814D01*
X107838498Y-121144274D01*
X107828654Y-121140337D01*
X107802787Y-121129992D01*
X107791771Y-121124871D01*
X107790706Y-121124404D01*
X107786408Y-121122112D01*
X107763013Y-121113952D01*
X107757739Y-121111978D01*
X107701924Y-121089658D01*
X107692988Y-121088798D01*
X107690924Y-121088297D01*
X107684906Y-121087421D01*
X107669101Y-121084326D01*
X107662832Y-121082931D01*
X107662419Y-121082828D01*
X107656256Y-121081124D01*
X107654591Y-121080618D01*
X107650063Y-121078849D01*
X107645313Y-121077797D01*
X107645306Y-121077795D01*
X107619176Y-121072008D01*
X107615985Y-121071258D01*
X107588371Y-121064377D01*
X107583913Y-121063921D01*
X107580679Y-121063355D01*
X107575152Y-121062260D01*
X107568228Y-121060727D01*
X107565018Y-121059909D01*
X107562228Y-121058865D01*
X107557468Y-121057882D01*
X107557464Y-121057881D01*
X107527546Y-121051704D01*
X107525783Y-121051327D01*
X107511332Y-121048127D01*
X107494249Y-121044344D01*
X107491286Y-121044119D01*
X107487953Y-121043529D01*
X107484209Y-121042756D01*
X107460523Y-121037865D01*
X107458334Y-121037337D01*
X107456243Y-121036580D01*
X107451474Y-121035648D01*
X107451471Y-121035647D01*
X107420308Y-121029556D01*
X107419001Y-121029293D01*
X107390586Y-121023426D01*
X107390585Y-121023426D01*
X107386198Y-121022520D01*
X107383988Y-121022384D01*
X107381713Y-121022010D01*
X107340282Y-121013912D01*
X107338880Y-121013587D01*
X107337446Y-121013079D01*
X107300457Y-121006124D01*
X107299569Y-121005954D01*
X107265573Y-120999308D01*
X107264163Y-120999237D01*
X107263196Y-120999087D01*
X107235382Y-120993887D01*
X107235253Y-120993863D01*
X107199775Y-120987192D01*
X107199776Y-120987192D01*
X107199121Y-120987069D01*
X107198893Y-120987059D01*
X107198699Y-120987030D01*
X107163546Y-120980458D01*
X107149503Y-120977833D01*
X107086218Y-120945654D01*
X107050377Y-120884368D01*
X107053359Y-120813434D01*
X107068393Y-120783233D01*
X107080268Y-120765732D01*
X107080667Y-120765147D01*
X107095076Y-120744166D01*
X107095400Y-120743730D01*
X107095828Y-120743274D01*
X107118014Y-120710766D01*
X107135083Y-120685912D01*
X107137413Y-120682519D01*
X107137417Y-120682512D01*
X107138405Y-120681074D01*
X107138680Y-120680517D01*
X107138972Y-120680056D01*
X107165416Y-120641310D01*
X107166685Y-120639578D01*
X107168137Y-120637998D01*
X107188502Y-120607495D01*
X107189211Y-120606444D01*
X107208205Y-120578614D01*
X107209147Y-120576698D01*
X107210318Y-120574822D01*
X107230052Y-120545265D01*
X107231654Y-120543026D01*
X107233388Y-120541091D01*
X107253007Y-120510901D01*
X107253867Y-120509595D01*
X107269653Y-120485951D01*
X107269655Y-120485948D01*
X107272145Y-120482218D01*
X107273264Y-120479881D01*
X107274736Y-120477463D01*
X107284599Y-120462286D01*
X107287395Y-120458244D01*
X107289986Y-120455238D01*
X107307869Y-120426517D01*
X107309179Y-120424459D01*
X107323444Y-120402508D01*
X107323445Y-120402507D01*
X107325886Y-120398750D01*
X107327131Y-120396065D01*
X107334697Y-120384653D01*
X107334664Y-120384631D01*
X107337363Y-120380587D01*
X107340372Y-120376757D01*
X107342756Y-120372509D01*
X107344563Y-120369289D01*
X107345754Y-120367462D01*
X107347330Y-120365887D01*
X107350244Y-120360570D01*
X107350248Y-120360564D01*
X107358204Y-120346047D01*
X107361755Y-120339976D01*
X107362421Y-120338907D01*
X107364481Y-120336084D01*
X107368593Y-120329547D01*
X107374398Y-120322706D01*
X107378049Y-120314513D01*
X107378051Y-120314510D01*
X107386295Y-120296010D01*
X107391500Y-120285643D01*
X107396013Y-120277600D01*
X107396016Y-120277593D01*
X107398199Y-120273703D01*
X107398883Y-120271936D01*
X107399126Y-120271458D01*
X107399317Y-120271035D01*
X107401652Y-120266774D01*
X107410124Y-120243343D01*
X107413521Y-120234914D01*
X107415434Y-120230623D01*
X107434270Y-120188353D01*
X107435476Y-120179456D01*
X107435899Y-120176338D01*
X107435931Y-120176163D01*
X107437829Y-120171257D01*
X107439480Y-120151800D01*
X107439639Y-120149922D01*
X107440329Y-120143656D01*
X107441143Y-120137649D01*
X107442632Y-120128960D01*
X107451206Y-120087655D01*
X107451206Y-120087651D01*
X107453031Y-120078860D01*
X107452315Y-120069910D01*
X107452875Y-120060951D01*
X107453021Y-120060960D01*
X107453035Y-120060463D01*
X107452888Y-120060464D01*
X107452821Y-120051490D01*
X107454026Y-120042596D01*
X107451264Y-120024291D01*
X107446392Y-119992001D01*
X107445382Y-119983246D01*
X107442018Y-119941184D01*
X107442017Y-119941182D01*
X107441302Y-119932237D01*
X107438104Y-119923850D01*
X107436127Y-119915095D01*
X107436270Y-119915063D01*
X107436144Y-119914582D01*
X107436003Y-119914624D01*
X107433419Y-119906028D01*
X107432080Y-119897153D01*
X107428305Y-119889014D01*
X107428304Y-119889010D01*
X107410550Y-119850729D01*
X107407126Y-119842614D01*
X107392091Y-119803187D01*
X107392091Y-119803186D01*
X107388893Y-119794801D01*
X107380707Y-119784005D01*
X107357352Y-119753207D01*
X107350892Y-119743836D01*
X107339917Y-119726269D01*
X107339910Y-119726260D01*
X107337334Y-119722136D01*
X107334150Y-119718453D01*
X107333915Y-119718135D01*
X107331446Y-119715121D01*
X107329295Y-119711899D01*
X107326301Y-119708560D01*
X107326298Y-119708556D01*
X107311567Y-119692128D01*
X107304976Y-119684140D01*
X107300016Y-119677599D01*
X107297877Y-119676014D01*
X107297007Y-119675040D01*
X107295732Y-119673419D01*
X107293026Y-119669371D01*
X107288261Y-119664191D01*
X107272609Y-119647176D01*
X107270023Y-119644276D01*
X107255309Y-119627256D01*
X107255306Y-119627253D01*
X107252372Y-119623859D01*
X107248985Y-119620914D01*
X107245825Y-119617745D01*
X107245915Y-119617655D01*
X107241548Y-119613409D01*
X107239830Y-119611542D01*
X107237619Y-119608981D01*
X107235863Y-119606437D01*
X107211604Y-119580838D01*
X107210327Y-119579470D01*
X107191617Y-119559130D01*
X107188586Y-119555835D01*
X107186208Y-119553892D01*
X107183711Y-119551402D01*
X107169566Y-119536476D01*
X107168223Y-119534960D01*
X107167064Y-119533314D01*
X107163687Y-119529818D01*
X107163682Y-119529812D01*
X107141334Y-119506676D01*
X107140571Y-119505879D01*
X107117310Y-119481333D01*
X107115733Y-119480083D01*
X107114263Y-119478652D01*
X107092012Y-119455617D01*
X107090984Y-119454476D01*
X107090062Y-119453188D01*
X107087124Y-119450192D01*
X107087116Y-119450183D01*
X107063694Y-119426297D01*
X107063034Y-119425619D01*
X107042021Y-119403866D01*
X107039131Y-119400874D01*
X107037870Y-119399894D01*
X107036781Y-119398852D01*
X107010593Y-119372146D01*
X107009652Y-119371116D01*
X107008768Y-119369899D01*
X107005960Y-119367076D01*
X107005953Y-119367068D01*
X106982065Y-119343050D01*
X106981634Y-119342615D01*
X106957300Y-119317798D01*
X106956114Y-119316891D01*
X106955066Y-119315903D01*
X106929287Y-119289983D01*
X106928192Y-119288802D01*
X106927204Y-119287465D01*
X106924101Y-119284394D01*
X106924092Y-119284384D01*
X106900505Y-119261038D01*
X106899920Y-119260456D01*
X106875633Y-119236035D01*
X106874306Y-119235035D01*
X106873126Y-119233939D01*
X106866309Y-119227192D01*
X106852031Y-119213059D01*
X106850497Y-119211436D01*
X106849166Y-119209672D01*
X106831190Y-119192249D01*
X106822869Y-119184184D01*
X106821924Y-119183259D01*
X106810801Y-119172250D01*
X106798089Y-119159667D01*
X106796322Y-119158357D01*
X106794626Y-119156810D01*
X106782750Y-119145299D01*
X106779797Y-119142261D01*
X106777586Y-119139435D01*
X106774031Y-119136107D01*
X106752437Y-119115892D01*
X106750898Y-119114427D01*
X106728364Y-119092586D01*
X106726527Y-119091253D01*
X106717710Y-119082486D01*
X106717571Y-119082624D01*
X106714144Y-119079170D01*
X106710992Y-119075459D01*
X106706857Y-119071889D01*
X106701538Y-119067296D01*
X106700616Y-119066383D01*
X106699885Y-119065267D01*
X106697016Y-119062819D01*
X106697011Y-119062814D01*
X106684841Y-119052430D01*
X106680520Y-119048568D01*
X106672442Y-119041006D01*
X106672441Y-119041005D01*
X106669172Y-119037945D01*
X106665503Y-119035379D01*
X106662736Y-119033136D01*
X106657319Y-119028946D01*
X106641115Y-119015120D01*
X106632204Y-119006735D01*
X106617681Y-118991673D01*
X106609887Y-118987219D01*
X106609884Y-118987217D01*
X106572108Y-118965631D01*
X106566638Y-118962318D01*
X106552858Y-118953487D01*
X106525767Y-118936126D01*
X106517148Y-118933597D01*
X106516951Y-118933507D01*
X106506704Y-118928258D01*
X106489971Y-118918696D01*
X106481240Y-118916609D01*
X106481238Y-118916608D01*
X106473020Y-118914643D01*
X106452132Y-118907671D01*
X106444373Y-118904302D01*
X106444372Y-118904302D01*
X106436138Y-118900726D01*
X106427235Y-118899605D01*
X106427233Y-118899605D01*
X106397922Y-118895916D01*
X106384366Y-118893450D01*
X106346913Y-118884496D01*
X106337948Y-118884943D01*
X106337946Y-118884943D01*
X106329500Y-118885364D01*
X106307493Y-118884534D01*
X106307191Y-118884496D01*
X106290199Y-118882357D01*
X106252165Y-118888467D01*
X106238477Y-118889903D01*
X106213092Y-118891169D01*
X106208967Y-118891375D01*
X106200006Y-118891822D01*
X106183533Y-118897544D01*
X106162187Y-118902921D01*
X106153834Y-118904263D01*
X106153833Y-118904263D01*
X106144971Y-118905687D01*
X106110171Y-118922230D01*
X106098784Y-118926898D01*
X106097840Y-118927310D01*
X106093240Y-118928908D01*
X106088950Y-118931190D01*
X106088942Y-118931193D01*
X106071423Y-118940510D01*
X106066364Y-118943056D01*
X106049091Y-118951268D01*
X106047255Y-118952097D01*
X106046571Y-118952454D01*
X106042092Y-118954369D01*
X106041906Y-118953933D01*
X106040072Y-118954296D01*
X106040561Y-118955324D01*
X106025849Y-118962318D01*
X106012129Y-118968840D01*
X106005428Y-118974816D01*
X106001234Y-118977600D01*
X105988948Y-118986246D01*
X105989223Y-118986669D01*
X105960265Y-119005461D01*
X105958494Y-119006589D01*
X105931867Y-119023222D01*
X105929151Y-119025513D01*
X105925607Y-119027951D01*
X105921648Y-119030520D01*
X105920078Y-119031464D01*
X105918375Y-119032245D01*
X105914342Y-119034913D01*
X105914339Y-119034915D01*
X105887315Y-119052793D01*
X105886413Y-119053385D01*
X105857897Y-119071889D01*
X105856496Y-119073113D01*
X105854971Y-119074191D01*
X105833539Y-119088371D01*
X105832478Y-119089020D01*
X105831275Y-119089581D01*
X105803815Y-119107996D01*
X105799798Y-119110690D01*
X105799143Y-119111126D01*
X105772952Y-119128454D01*
X105772933Y-119128468D01*
X105769979Y-119130422D01*
X105768993Y-119131299D01*
X105767969Y-119132035D01*
X105733498Y-119155152D01*
X105732743Y-119155620D01*
X105731856Y-119156038D01*
X105701707Y-119176458D01*
X105699906Y-119177678D01*
X105699461Y-119177977D01*
X105670079Y-119197682D01*
X105669346Y-119198343D01*
X105668638Y-119198858D01*
X105658222Y-119205912D01*
X105657959Y-119206076D01*
X105657598Y-119206247D01*
X105631401Y-119224061D01*
X105625144Y-119228316D01*
X105624945Y-119228451D01*
X105594776Y-119248885D01*
X105594486Y-119249149D01*
X105594214Y-119249348D01*
X105554997Y-119276015D01*
X105487420Y-119297779D01*
X105418803Y-119279554D01*
X105370932Y-119227124D01*
X105360328Y-119195165D01*
X105345099Y-119114385D01*
X105337616Y-119074691D01*
X105337615Y-119074689D01*
X105337127Y-119072097D01*
X105316431Y-118962318D01*
X105272098Y-118727158D01*
X105269920Y-118703046D01*
X105269925Y-118702328D01*
X105269994Y-118691020D01*
X105257753Y-118648190D01*
X105255091Y-118636938D01*
X105253795Y-118630066D01*
X105247256Y-118610885D01*
X105245372Y-118604868D01*
X105232040Y-118558221D01*
X105229574Y-118549593D01*
X105224785Y-118542003D01*
X105223104Y-118538245D01*
X105221245Y-118534593D01*
X105218349Y-118526098D01*
X105213186Y-118518760D01*
X105213185Y-118518757D01*
X105185265Y-118479071D01*
X105181756Y-118473807D01*
X105178498Y-118468643D01*
X105151085Y-118425195D01*
X105144354Y-118419251D01*
X105141692Y-118416123D01*
X105138878Y-118413134D01*
X105133715Y-118405795D01*
X105088767Y-118369947D01*
X105083936Y-118365891D01*
X105047564Y-118333769D01*
X105040836Y-118327827D01*
X105032712Y-118324013D01*
X105029258Y-118321744D01*
X105025732Y-118319674D01*
X105018720Y-118314081D01*
X104978303Y-118297526D01*
X104965518Y-118292289D01*
X104959729Y-118289746D01*
X104915815Y-118269129D01*
X104915814Y-118269129D01*
X104907691Y-118265315D01*
X104898828Y-118263935D01*
X104894920Y-118262740D01*
X104890915Y-118261732D01*
X104882606Y-118258329D01*
X104825418Y-118252345D01*
X104819147Y-118251529D01*
X104796013Y-118247927D01*
X104789775Y-118247927D01*
X104776662Y-118247243D01*
X104745241Y-118243955D01*
X104736315Y-118243021D01*
X104727484Y-118244630D01*
X104720591Y-118245886D01*
X104698005Y-118247927D01*
X103892502Y-118247927D01*
X103868404Y-118245601D01*
X103868247Y-118245570D01*
X103856595Y-118243300D01*
X103812247Y-118247394D01*
X103800665Y-118247927D01*
X103793697Y-118247927D01*
X103789267Y-118248561D01*
X103789260Y-118248562D01*
X103773665Y-118250796D01*
X103767383Y-118251536D01*
X103719064Y-118255996D01*
X103719063Y-118255996D01*
X103710128Y-118256821D01*
X103701782Y-118260121D01*
X103697787Y-118261075D01*
X103693848Y-118262227D01*
X103684962Y-118263499D01*
X103676792Y-118267214D01*
X103676791Y-118267214D01*
X103632617Y-118287299D01*
X103626794Y-118289771D01*
X103573343Y-118310906D01*
X103566253Y-118316420D01*
X103562684Y-118318458D01*
X103559233Y-118320665D01*
X103551062Y-118324380D01*
X103544263Y-118330238D01*
X103544262Y-118330239D01*
X103518013Y-118352857D01*
X103508945Y-118360671D01*
X103507509Y-118361908D01*
X103502615Y-118365915D01*
X103464321Y-118395697D01*
X103464318Y-118395700D01*
X103457236Y-118401208D01*
X103451982Y-118408485D01*
X103449128Y-118411444D01*
X103446431Y-118414536D01*
X103439632Y-118420394D01*
X103434750Y-118427926D01*
X103434749Y-118427927D01*
X103408358Y-118468643D01*
X103404805Y-118473835D01*
X103371141Y-118520468D01*
X103368141Y-118528927D01*
X103366233Y-118532566D01*
X103364512Y-118536291D01*
X103359629Y-118543824D01*
X103351829Y-118569906D01*
X103343155Y-118598909D01*
X103341192Y-118604919D01*
X103333365Y-118626991D01*
X103332463Y-118631777D01*
X103332212Y-118633109D01*
X103329110Y-118645872D01*
X103317484Y-118684746D01*
X103317429Y-118693721D01*
X103317429Y-118693723D01*
X103317386Y-118700738D01*
X103315207Y-118723308D01*
X103236636Y-119140089D01*
X103236636Y-119140090D01*
X103226253Y-119195164D01*
X103193977Y-119258400D01*
X103132636Y-119294148D01*
X103061707Y-119291057D01*
X103031582Y-119276013D01*
X102994878Y-119251054D01*
X102994471Y-119250755D01*
X102994049Y-119250363D01*
X102961437Y-119228316D01*
X102939014Y-119213068D01*
X102932922Y-119208925D01*
X102932915Y-119208920D01*
X102931570Y-119208006D01*
X102931057Y-119207755D01*
X102930635Y-119207490D01*
X102889622Y-119179763D01*
X102888723Y-119179107D01*
X102887833Y-119178290D01*
X102883203Y-119175198D01*
X102856103Y-119157101D01*
X102855507Y-119156701D01*
X102854526Y-119156038D01*
X102826458Y-119137062D01*
X102825368Y-119136532D01*
X102824413Y-119135939D01*
X102793302Y-119115164D01*
X102792173Y-119114351D01*
X102791077Y-119113358D01*
X102759382Y-119092511D01*
X102758857Y-119092162D01*
X102733221Y-119075043D01*
X102733210Y-119075036D01*
X102729978Y-119072878D01*
X102728648Y-119072242D01*
X102727448Y-119071506D01*
X102710691Y-119060484D01*
X102708827Y-119059167D01*
X102707155Y-119057684D01*
X102700496Y-119053405D01*
X102676410Y-119037927D01*
X102675285Y-119037196D01*
X102651033Y-119021244D01*
X102647290Y-119018782D01*
X102646798Y-119018551D01*
X102639642Y-119013987D01*
X102636444Y-119011284D01*
X102632295Y-119008756D01*
X102632291Y-119008753D01*
X102608799Y-118994439D01*
X102606246Y-118992841D01*
X102604539Y-118991744D01*
X102581671Y-118977049D01*
X102581927Y-118976651D01*
X102569137Y-118968000D01*
X102568456Y-118967439D01*
X102556991Y-118957990D01*
X102548741Y-118954455D01*
X102548739Y-118954454D01*
X102501678Y-118934290D01*
X102496557Y-118931959D01*
X102481071Y-118924489D01*
X102481068Y-118924488D01*
X102477028Y-118922539D01*
X102472199Y-118921007D01*
X102460678Y-118916723D01*
X102449825Y-118912073D01*
X102421790Y-118900061D01*
X102408275Y-118898427D01*
X102385304Y-118893441D01*
X102380882Y-118892038D01*
X102380881Y-118892038D01*
X102372326Y-118889324D01*
X102363355Y-118889120D01*
X102363353Y-118889120D01*
X102349489Y-118888806D01*
X102330016Y-118888363D01*
X102317770Y-118887486D01*
X102275763Y-118882407D01*
X102266907Y-118883874D01*
X102266905Y-118883874D01*
X102262337Y-118884631D01*
X102238887Y-118886293D01*
X102237840Y-118886269D01*
X102225273Y-118885984D01*
X102184400Y-118896935D01*
X102172405Y-118899529D01*
X102162511Y-118901168D01*
X102139510Y-118904978D01*
X102139507Y-118904979D01*
X102130651Y-118906446D01*
X102118384Y-118912352D01*
X102096338Y-118920529D01*
X102091863Y-118921728D01*
X102091861Y-118921729D01*
X102083194Y-118924051D01*
X102053842Y-118941897D01*
X102052291Y-118939345D01*
X102050696Y-118940699D01*
X102051850Y-118942486D01*
X102046936Y-118945660D01*
X102033216Y-118953353D01*
X102033200Y-118953360D01*
X102033194Y-118953363D01*
X102028814Y-118955472D01*
X102016364Y-118964047D01*
X102011439Y-118967439D01*
X102005429Y-118971330D01*
X101965186Y-118995797D01*
X101965178Y-118995803D01*
X101957511Y-119000465D01*
X101951455Y-119007097D01*
X101951430Y-119007118D01*
X101943929Y-119014659D01*
X101933683Y-119024116D01*
X101922730Y-119034225D01*
X101921117Y-119035688D01*
X101917330Y-119039063D01*
X101912556Y-119042811D01*
X101912691Y-119042978D01*
X101908903Y-119046050D01*
X101904905Y-119048810D01*
X101901381Y-119052151D01*
X101901373Y-119052157D01*
X101883011Y-119069563D01*
X101880161Y-119072183D01*
X101859997Y-119090150D01*
X101857112Y-119093570D01*
X101853981Y-119096787D01*
X101853892Y-119096700D01*
X101849732Y-119101109D01*
X101847983Y-119102767D01*
X101845419Y-119105049D01*
X101842913Y-119106835D01*
X101839433Y-119110233D01*
X101817731Y-119131423D01*
X101816388Y-119132716D01*
X101809874Y-119138891D01*
X101793016Y-119154871D01*
X101791110Y-119157277D01*
X101788647Y-119159821D01*
X101774003Y-119174120D01*
X101772518Y-119175475D01*
X101770895Y-119176655D01*
X101749767Y-119197682D01*
X101744718Y-119202707D01*
X101743862Y-119203551D01*
X101719650Y-119227192D01*
X101718426Y-119228785D01*
X101717037Y-119230255D01*
X101694353Y-119252831D01*
X101693243Y-119253861D01*
X101691969Y-119254802D01*
X101689033Y-119257768D01*
X101665518Y-119281523D01*
X101664854Y-119282188D01*
X101640412Y-119306514D01*
X101639458Y-119307780D01*
X101638409Y-119308910D01*
X101612151Y-119335437D01*
X101611123Y-119336405D01*
X101609932Y-119337297D01*
X101583531Y-119364346D01*
X101582990Y-119364896D01*
X101561352Y-119386756D01*
X101561343Y-119386765D01*
X101558587Y-119389550D01*
X101557702Y-119390744D01*
X101556735Y-119391800D01*
X101531200Y-119417961D01*
X101530046Y-119419064D01*
X101528727Y-119420069D01*
X101502687Y-119447170D01*
X101502130Y-119447745D01*
X101478058Y-119472408D01*
X101477081Y-119473746D01*
X101476009Y-119474934D01*
X101455411Y-119496372D01*
X101453835Y-119497905D01*
X101452099Y-119499256D01*
X101426960Y-119525971D01*
X101426062Y-119526914D01*
X101402836Y-119551087D01*
X101401556Y-119552868D01*
X101400049Y-119554570D01*
X101388657Y-119566676D01*
X101385707Y-119569629D01*
X101382932Y-119571866D01*
X101359741Y-119597378D01*
X101358305Y-119598931D01*
X101339843Y-119618551D01*
X101336769Y-119621818D01*
X101335495Y-119623630D01*
X101326910Y-119632519D01*
X101327057Y-119632663D01*
X101323652Y-119636140D01*
X101319987Y-119639345D01*
X101316857Y-119643078D01*
X101312048Y-119648813D01*
X101311441Y-119649443D01*
X101310719Y-119649928D01*
X101309115Y-119651855D01*
X101309112Y-119651858D01*
X101298845Y-119664191D01*
X101295244Y-119668331D01*
X101282983Y-119681819D01*
X101280465Y-119685535D01*
X101279975Y-119686158D01*
X101268941Y-119697749D01*
X101265602Y-119701611D01*
X101258830Y-119707501D01*
X101253984Y-119715053D01*
X101253982Y-119715055D01*
X101249711Y-119721710D01*
X101244319Y-119729069D01*
X101244338Y-119729082D01*
X101242145Y-119732174D01*
X101241189Y-119733314D01*
X101240851Y-119733858D01*
X101238408Y-119736793D01*
X101235906Y-119740970D01*
X101235905Y-119740971D01*
X101221776Y-119764556D01*
X101220735Y-119766263D01*
X101209720Y-119784005D01*
X101208718Y-119785592D01*
X101184240Y-119823739D01*
X101184239Y-119823742D01*
X101179392Y-119831295D01*
X101176861Y-119839900D01*
X101176860Y-119839903D01*
X101168710Y-119867616D01*
X101164005Y-119880842D01*
X101149349Y-119915749D01*
X101148337Y-119924667D01*
X101148336Y-119924670D01*
X101147309Y-119933722D01*
X101142994Y-119955060D01*
X101137892Y-119972409D01*
X101137878Y-119981385D01*
X101137878Y-119981386D01*
X101137834Y-120010274D01*
X101137030Y-120024285D01*
X101132761Y-120061901D01*
X101134293Y-120070746D01*
X101135846Y-120079716D01*
X101137694Y-120101411D01*
X101137666Y-120119498D01*
X101140171Y-120128115D01*
X101140172Y-120128119D01*
X101148237Y-120155858D01*
X101151399Y-120169535D01*
X101157858Y-120206834D01*
X101187996Y-120268285D01*
X101191649Y-120276458D01*
X101194701Y-120283994D01*
X101200260Y-120297722D01*
X101202759Y-120301898D01*
X101202763Y-120301906D01*
X101204070Y-120304091D01*
X101209763Y-120314806D01*
X101210002Y-120315235D01*
X101211901Y-120319296D01*
X101214356Y-120323046D01*
X101216540Y-120326964D01*
X101216348Y-120327071D01*
X101217586Y-120329242D01*
X101218670Y-120330833D01*
X101222625Y-120338897D01*
X101227934Y-120344706D01*
X101233307Y-120353590D01*
X101235155Y-120357813D01*
X101237771Y-120361922D01*
X101251871Y-120384070D01*
X101253703Y-120387038D01*
X101265786Y-120407231D01*
X101265791Y-120407239D01*
X101268093Y-120411085D01*
X101270920Y-120414570D01*
X101273462Y-120418204D01*
X101276507Y-120422766D01*
X101279390Y-120427295D01*
X101281137Y-120430238D01*
X101282410Y-120433034D01*
X101285084Y-120437101D01*
X101285085Y-120437102D01*
X101301774Y-120462480D01*
X101302784Y-120464042D01*
X101317655Y-120487400D01*
X101317662Y-120487410D01*
X101320067Y-120491187D01*
X101322063Y-120493514D01*
X101324067Y-120496380D01*
X101338861Y-120518876D01*
X101340062Y-120520844D01*
X101341024Y-120522897D01*
X101343739Y-120526930D01*
X101343749Y-120526948D01*
X101361500Y-120553318D01*
X101362251Y-120554446D01*
X101378085Y-120578525D01*
X101378093Y-120578535D01*
X101380556Y-120582281D01*
X101382049Y-120583969D01*
X101383421Y-120585880D01*
X101406661Y-120620407D01*
X101407440Y-120621656D01*
X101408107Y-120623054D01*
X101429431Y-120654237D01*
X101429761Y-120654723D01*
X101449160Y-120683542D01*
X101450201Y-120684694D01*
X101451092Y-120685912D01*
X101467774Y-120710307D01*
X101467832Y-120710392D01*
X101517434Y-120783055D01*
X101539320Y-120850594D01*
X101521218Y-120919244D01*
X101468874Y-120967209D01*
X101436710Y-120977912D01*
X101417406Y-120981551D01*
X101417139Y-120981601D01*
X101390958Y-120986478D01*
X101390209Y-120986589D01*
X101389369Y-120986618D01*
X101351086Y-120993906D01*
X101350681Y-120993982D01*
X101315821Y-121000477D01*
X101315022Y-121000747D01*
X101314282Y-121000914D01*
X101267963Y-121009733D01*
X101265900Y-121010054D01*
X101263839Y-121010144D01*
X101259069Y-121011101D01*
X101259067Y-121011101D01*
X101227636Y-121017405D01*
X101226426Y-121017641D01*
X101222078Y-121018469D01*
X101193350Y-121023939D01*
X101191397Y-121024609D01*
X101189345Y-121025086D01*
X101153989Y-121032178D01*
X101151397Y-121032611D01*
X101148912Y-121032748D01*
X101144154Y-121033762D01*
X101144150Y-121033762D01*
X101113430Y-121040305D01*
X101111962Y-121040608D01*
X101079626Y-121047094D01*
X101077276Y-121047926D01*
X101074703Y-121048554D01*
X101056118Y-121052513D01*
X101051652Y-121053327D01*
X101047881Y-121053605D01*
X101043144Y-121054705D01*
X101043132Y-121054707D01*
X101014647Y-121061323D01*
X101012391Y-121061826D01*
X101010354Y-121062260D01*
X100982051Y-121068288D01*
X100979604Y-121069187D01*
X100966872Y-121071751D01*
X100966897Y-121071876D01*
X100962121Y-121072812D01*
X100957284Y-121073377D01*
X100931821Y-121080444D01*
X100926705Y-121081748D01*
X100904000Y-121087021D01*
X100899523Y-121088760D01*
X100887589Y-121092721D01*
X100884896Y-121093469D01*
X100883428Y-121093866D01*
X100850569Y-121102551D01*
X100850553Y-121102557D01*
X100845860Y-121103797D01*
X100843168Y-121104976D01*
X100835186Y-121107356D01*
X100820410Y-121111032D01*
X100820403Y-121111035D01*
X100811692Y-121113202D01*
X100803937Y-121117729D01*
X100803936Y-121117729D01*
X100780057Y-121131667D01*
X100767109Y-121138255D01*
X100750006Y-121145749D01*
X100750005Y-121145750D01*
X100741784Y-121149352D01*
X100731660Y-121157836D01*
X100714265Y-121170069D01*
X100698013Y-121179555D01*
X100629100Y-121196618D01*
X100561899Y-121173715D01*
X100517748Y-121118116D01*
X100508500Y-121070734D01*
X100508500Y-114429733D01*
X103487822Y-114429733D01*
X103487975Y-114434121D01*
X103487975Y-114434127D01*
X103496113Y-114667150D01*
X103497625Y-114710458D01*
X103498387Y-114714781D01*
X103498388Y-114714788D01*
X103521402Y-114845305D01*
X103546402Y-114987087D01*
X103633203Y-115254235D01*
X103635131Y-115258188D01*
X103635133Y-115258193D01*
X103684082Y-115358551D01*
X103756340Y-115506702D01*
X103758795Y-115510341D01*
X103758798Y-115510347D01*
X103802779Y-115575551D01*
X103913415Y-115739576D01*
X103916360Y-115742847D01*
X103916361Y-115742848D01*
X103932978Y-115761303D01*
X104101371Y-115948322D01*
X104316550Y-116128879D01*
X104554764Y-116277731D01*
X104811375Y-116391982D01*
X104815603Y-116393194D01*
X104815602Y-116393194D01*
X105030296Y-116454756D01*
X105081390Y-116469407D01*
X105085740Y-116470018D01*
X105085743Y-116470019D01*
X105188690Y-116484487D01*
X105359552Y-116508500D01*
X105570146Y-116508500D01*
X105572332Y-116508347D01*
X105572336Y-116508347D01*
X105775827Y-116494118D01*
X105775832Y-116494117D01*
X105780212Y-116493811D01*
X106054970Y-116435409D01*
X106059099Y-116433906D01*
X106059103Y-116433905D01*
X106314781Y-116340846D01*
X106314785Y-116340844D01*
X106318926Y-116339337D01*
X106566942Y-116207464D01*
X106570503Y-116204877D01*
X106790629Y-116044947D01*
X106790632Y-116044944D01*
X106794192Y-116042358D01*
X106820203Y-116017240D01*
X106917284Y-115923489D01*
X106996252Y-115847231D01*
X107169188Y-115625882D01*
X107171384Y-115622078D01*
X107171389Y-115622071D01*
X107303905Y-115392545D01*
X107309636Y-115382619D01*
X107414862Y-115122176D01*
X107427483Y-115071557D01*
X107481753Y-114853893D01*
X107481754Y-114853888D01*
X107482817Y-114849624D01*
X107483765Y-114840610D01*
X107511719Y-114574636D01*
X107511719Y-114574633D01*
X107512178Y-114570267D01*
X107512025Y-114565873D01*
X107502529Y-114293939D01*
X107502528Y-114293933D01*
X107502375Y-114289542D01*
X107501531Y-114284751D01*
X107455392Y-114023087D01*
X107453598Y-114012913D01*
X107366797Y-113745765D01*
X107359726Y-113731266D01*
X107289994Y-113588297D01*
X107243660Y-113493298D01*
X107241205Y-113489659D01*
X107241202Y-113489653D01*
X107160935Y-113370653D01*
X107086585Y-113260424D01*
X106898629Y-113051678D01*
X106683450Y-112871121D01*
X106445236Y-112722269D01*
X106188625Y-112608018D01*
X106033992Y-112563678D01*
X105922837Y-112531805D01*
X105922836Y-112531805D01*
X105918610Y-112530593D01*
X105914260Y-112529982D01*
X105914257Y-112529981D01*
X105811310Y-112515513D01*
X105640448Y-112491500D01*
X105429854Y-112491500D01*
X105427668Y-112491653D01*
X105427664Y-112491653D01*
X105224173Y-112505882D01*
X105224168Y-112505883D01*
X105219788Y-112506189D01*
X104945030Y-112564591D01*
X104940901Y-112566094D01*
X104940897Y-112566095D01*
X104685219Y-112659154D01*
X104685215Y-112659156D01*
X104681074Y-112660663D01*
X104433058Y-112792536D01*
X104429499Y-112795122D01*
X104429497Y-112795123D01*
X104252242Y-112923906D01*
X104205808Y-112957642D01*
X104003748Y-113152769D01*
X103830812Y-113374118D01*
X103828616Y-113377922D01*
X103828611Y-113377929D01*
X103752722Y-113509373D01*
X103690364Y-113617381D01*
X103585138Y-113877824D01*
X103584073Y-113882097D01*
X103584072Y-113882099D01*
X103530066Y-114098706D01*
X103517183Y-114150376D01*
X103516724Y-114154744D01*
X103516723Y-114154749D01*
X103491841Y-114391492D01*
X103487822Y-114429733D01*
X100508500Y-114429733D01*
X100508500Y-112224100D01*
X131467296Y-112224100D01*
X131487258Y-112414028D01*
X131546273Y-112595656D01*
X131641760Y-112761044D01*
X131769547Y-112902966D01*
X131924048Y-113015218D01*
X131930076Y-113017902D01*
X131930078Y-113017903D01*
X132092481Y-113090209D01*
X132098512Y-113092894D01*
X132191912Y-113112747D01*
X132278856Y-113131228D01*
X132278861Y-113131228D01*
X132285313Y-113132600D01*
X132476287Y-113132600D01*
X132482739Y-113131228D01*
X132482744Y-113131228D01*
X132569687Y-113112747D01*
X132663088Y-113092894D01*
X132669119Y-113090209D01*
X132831522Y-113017903D01*
X132831524Y-113017902D01*
X132837552Y-113015218D01*
X132992053Y-112902966D01*
X133119840Y-112761044D01*
X133215327Y-112595656D01*
X133274342Y-112414028D01*
X133294304Y-112224100D01*
X133284749Y-112133186D01*
X133275032Y-112040735D01*
X133275032Y-112040733D01*
X133274342Y-112034172D01*
X133215327Y-111852544D01*
X133189039Y-111807011D01*
X133161376Y-111759098D01*
X133119840Y-111687156D01*
X133046663Y-111605885D01*
X133015947Y-111541879D01*
X133014300Y-111521576D01*
X133014300Y-111389060D01*
X133034302Y-111320939D01*
X133087958Y-111274446D01*
X133158232Y-111264342D01*
X133185249Y-111271350D01*
X133223692Y-111286030D01*
X133228760Y-111287061D01*
X133228763Y-111287062D01*
X133336017Y-111308883D01*
X133442597Y-111330567D01*
X133447772Y-111330757D01*
X133447774Y-111330757D01*
X133660673Y-111338564D01*
X133660677Y-111338564D01*
X133665837Y-111338753D01*
X133670957Y-111338097D01*
X133670959Y-111338097D01*
X133882288Y-111311025D01*
X133882289Y-111311025D01*
X133887416Y-111310368D01*
X133892366Y-111308883D01*
X134096429Y-111247661D01*
X134096434Y-111247659D01*
X134101384Y-111246174D01*
X134301994Y-111147896D01*
X134483860Y-111018173D01*
X134642096Y-110860489D01*
X134772453Y-110679077D01*
X134797431Y-110628539D01*
X134816907Y-110589131D01*
X134865021Y-110536924D01*
X134933722Y-110519017D01*
X135001198Y-110541095D01*
X135018959Y-110555863D01*
X136647595Y-112184499D01*
X136681621Y-112246811D01*
X136684500Y-112273594D01*
X136684500Y-117809876D01*
X136664498Y-117877997D01*
X136652142Y-117894179D01*
X136578960Y-117975456D01*
X136483473Y-118140844D01*
X136424458Y-118322472D01*
X136423768Y-118329033D01*
X136423768Y-118329035D01*
X136413374Y-118427927D01*
X136404496Y-118512400D01*
X136405186Y-118518965D01*
X136423554Y-118693723D01*
X136424458Y-118702328D01*
X136483473Y-118883956D01*
X136486776Y-118889678D01*
X136486777Y-118889679D01*
X136509426Y-118928908D01*
X136578960Y-119049344D01*
X136583378Y-119054251D01*
X136583379Y-119054252D01*
X136696390Y-119179763D01*
X136706747Y-119191266D01*
X136795772Y-119255947D01*
X136830975Y-119281523D01*
X136861248Y-119303518D01*
X136867284Y-119306205D01*
X136867285Y-119306206D01*
X136893149Y-119317722D01*
X136947245Y-119363702D01*
X136967900Y-119432828D01*
X136967900Y-123846276D01*
X136947898Y-123914397D01*
X136935542Y-123930579D01*
X136862360Y-124011856D01*
X136834650Y-124059851D01*
X136774946Y-124163262D01*
X136766873Y-124177244D01*
X136707858Y-124358872D01*
X136707168Y-124365433D01*
X136707168Y-124365435D01*
X136688876Y-124539472D01*
X136687896Y-124548800D01*
X136688586Y-124555365D01*
X136706943Y-124730019D01*
X136707858Y-124738728D01*
X136766873Y-124920356D01*
X136770176Y-124926078D01*
X136770177Y-124926079D01*
X136793487Y-124966453D01*
X136862360Y-125085744D01*
X136866778Y-125090651D01*
X136866779Y-125090652D01*
X136967187Y-125202166D01*
X136990147Y-125227666D01*
X137144648Y-125339918D01*
X137150676Y-125342602D01*
X137150678Y-125342603D01*
X137160862Y-125347137D01*
X137319112Y-125417594D01*
X137396004Y-125433938D01*
X137499456Y-125455928D01*
X137499461Y-125455928D01*
X137505913Y-125457300D01*
X137567200Y-125457300D01*
X137635321Y-125477302D01*
X137681814Y-125530958D01*
X137693200Y-125583300D01*
X137693200Y-137202705D01*
X137673198Y-137270826D01*
X137656295Y-137291800D01*
X135685500Y-139262595D01*
X135623188Y-139296621D01*
X135596405Y-139299500D01*
X135540513Y-139299500D01*
X135534061Y-139300872D01*
X135534056Y-139300872D01*
X135447113Y-139319353D01*
X135353712Y-139339206D01*
X135347682Y-139341891D01*
X135347681Y-139341891D01*
X135185278Y-139414197D01*
X135185276Y-139414198D01*
X135179248Y-139416882D01*
X135024747Y-139529134D01*
X134896960Y-139671056D01*
X134801473Y-139836444D01*
X134742458Y-140018072D01*
X134741768Y-140024633D01*
X134741768Y-140024635D01*
X134734620Y-140092643D01*
X134722496Y-140208000D01*
X134723186Y-140214565D01*
X134741701Y-140390722D01*
X134742458Y-140397928D01*
X134801473Y-140579556D01*
X134804776Y-140585278D01*
X134804777Y-140585279D01*
X134817467Y-140607258D01*
X134896960Y-140744944D01*
X134901378Y-140749851D01*
X134901379Y-140749852D01*
X134993059Y-140851673D01*
X135024747Y-140886866D01*
X135101349Y-140942521D01*
X135170514Y-140992772D01*
X135179248Y-140999118D01*
X135185276Y-141001802D01*
X135185278Y-141001803D01*
X135326344Y-141064609D01*
X135353712Y-141076794D01*
X135429179Y-141092835D01*
X135534056Y-141115128D01*
X135534061Y-141115128D01*
X135540513Y-141116500D01*
X135731487Y-141116500D01*
X135737939Y-141115128D01*
X135737944Y-141115128D01*
X135842821Y-141092835D01*
X135918288Y-141076794D01*
X135945656Y-141064609D01*
X136086722Y-141001803D01*
X136086724Y-141001802D01*
X136092752Y-140999118D01*
X136101487Y-140992772D01*
X136170651Y-140942521D01*
X136247253Y-140886866D01*
X136278941Y-140851673D01*
X136370621Y-140749852D01*
X136370622Y-140749851D01*
X136375040Y-140744944D01*
X136454533Y-140607258D01*
X136467223Y-140585279D01*
X136467224Y-140585278D01*
X136470527Y-140579556D01*
X136529542Y-140397928D01*
X136530300Y-140390722D01*
X136546907Y-140232707D01*
X136573920Y-140167050D01*
X136583122Y-140156782D01*
X138117205Y-138622699D01*
X138179517Y-138588673D01*
X138250332Y-138593738D01*
X138307168Y-138636285D01*
X138331979Y-138702805D01*
X138332300Y-138711794D01*
X138332300Y-140241700D01*
X138312298Y-140309821D01*
X138258642Y-140356314D01*
X138206300Y-140367700D01*
X138161313Y-140367700D01*
X138154861Y-140369072D01*
X138154856Y-140369072D01*
X138067913Y-140387553D01*
X137974512Y-140407406D01*
X137968482Y-140410091D01*
X137968481Y-140410091D01*
X137806078Y-140482397D01*
X137806076Y-140482398D01*
X137800048Y-140485082D01*
X137645547Y-140597334D01*
X137641126Y-140602244D01*
X137641125Y-140602245D01*
X137551593Y-140701681D01*
X137517760Y-140739256D01*
X137498259Y-140773033D01*
X137435373Y-140881955D01*
X137422273Y-140904644D01*
X137363258Y-141086272D01*
X137362568Y-141092833D01*
X137362568Y-141092835D01*
X137348679Y-141224982D01*
X137343296Y-141276200D01*
X137363258Y-141466128D01*
X137422273Y-141647756D01*
X137517760Y-141813144D01*
X137522178Y-141818051D01*
X137522179Y-141818052D01*
X137616427Y-141922725D01*
X137645547Y-141955066D01*
X137731646Y-142017621D01*
X137780157Y-142052866D01*
X137800048Y-142067318D01*
X137806076Y-142070002D01*
X137806078Y-142070003D01*
X137853688Y-142091200D01*
X137974512Y-142144994D01*
X138067912Y-142164847D01*
X138154856Y-142183328D01*
X138154861Y-142183328D01*
X138161313Y-142184700D01*
X138352287Y-142184700D01*
X138358739Y-142183328D01*
X138358744Y-142183328D01*
X138445688Y-142164847D01*
X138539088Y-142144994D01*
X138659912Y-142091200D01*
X138707522Y-142070003D01*
X138707524Y-142070002D01*
X138713552Y-142067318D01*
X138733444Y-142052866D01*
X138781954Y-142017621D01*
X138868053Y-141955066D01*
X138897173Y-141922725D01*
X138991421Y-141818052D01*
X138991422Y-141818051D01*
X138995840Y-141813144D01*
X139091327Y-141647756D01*
X139150342Y-141466128D01*
X139167707Y-141300906D01*
X139194720Y-141235250D01*
X139203922Y-141224982D01*
X139358047Y-141070857D01*
X139366337Y-141063313D01*
X139372818Y-141059200D01*
X139382180Y-141049231D01*
X139419458Y-141009533D01*
X139422213Y-141006691D01*
X139441934Y-140986970D01*
X139444412Y-140983775D01*
X139452118Y-140974753D01*
X139476958Y-140948301D01*
X139482386Y-140942521D01*
X139492146Y-140924768D01*
X139502999Y-140908245D01*
X139510553Y-140898506D01*
X139515413Y-140892241D01*
X139532976Y-140851657D01*
X139538183Y-140841027D01*
X139559495Y-140802260D01*
X139561466Y-140794583D01*
X139561468Y-140794578D01*
X139564532Y-140782642D01*
X139570938Y-140763930D01*
X139575834Y-140752617D01*
X139578981Y-140745345D01*
X139580390Y-140736454D01*
X139585897Y-140701681D01*
X139588304Y-140690060D01*
X139597328Y-140654911D01*
X139597328Y-140654910D01*
X139599300Y-140647230D01*
X139599300Y-140626969D01*
X139600851Y-140607258D01*
X139602779Y-140595085D01*
X139604019Y-140587257D01*
X139599859Y-140543246D01*
X139599300Y-140531389D01*
X139599300Y-118697924D01*
X139619302Y-118629803D01*
X139631658Y-118613621D01*
X139704840Y-118532344D01*
X139766703Y-118425195D01*
X139796434Y-118373700D01*
X145540996Y-118373700D01*
X145541686Y-118380265D01*
X145558877Y-118543824D01*
X145560958Y-118563628D01*
X145619973Y-118745256D01*
X145715460Y-118910644D01*
X145719878Y-118915551D01*
X145719879Y-118915552D01*
X145834614Y-119042978D01*
X145843247Y-119052566D01*
X145923662Y-119110991D01*
X145988422Y-119158042D01*
X145997748Y-119164818D01*
X146003776Y-119167502D01*
X146003778Y-119167503D01*
X146164528Y-119239073D01*
X146172212Y-119242494D01*
X146256156Y-119260337D01*
X146352556Y-119280828D01*
X146352561Y-119280828D01*
X146359013Y-119282200D01*
X146414906Y-119282200D01*
X146483027Y-119302202D01*
X146504001Y-119319105D01*
X150675995Y-123491099D01*
X150710021Y-123553411D01*
X150712900Y-123580194D01*
X150712900Y-151642276D01*
X150692898Y-151710397D01*
X150680542Y-151726579D01*
X150607360Y-151807856D01*
X150511873Y-151973244D01*
X150452858Y-152154872D01*
X150432896Y-152344800D01*
X150452858Y-152534728D01*
X150511873Y-152716356D01*
X150607360Y-152881744D01*
X150611778Y-152886651D01*
X150611779Y-152886652D01*
X150730725Y-153018755D01*
X150735147Y-153023666D01*
X150834243Y-153095664D01*
X150875835Y-153125882D01*
X150889648Y-153135918D01*
X150895676Y-153138602D01*
X150895678Y-153138603D01*
X151058081Y-153210909D01*
X151064112Y-153213594D01*
X151157513Y-153233447D01*
X151244456Y-153251928D01*
X151244461Y-153251928D01*
X151250913Y-153253300D01*
X151441887Y-153253300D01*
X151448339Y-153251928D01*
X151448344Y-153251928D01*
X151535287Y-153233447D01*
X151628688Y-153213594D01*
X151634719Y-153210909D01*
X151797122Y-153138603D01*
X151797124Y-153138602D01*
X151803152Y-153135918D01*
X151816966Y-153125882D01*
X151858557Y-153095664D01*
X151957653Y-153023666D01*
X151962075Y-153018755D01*
X152081021Y-152886652D01*
X152081022Y-152886651D01*
X152085440Y-152881744D01*
X152180927Y-152716356D01*
X152239942Y-152534728D01*
X152259904Y-152344800D01*
X152239942Y-152154872D01*
X152180927Y-151973244D01*
X152155806Y-151929733D01*
X165487822Y-151929733D01*
X165487975Y-151934121D01*
X165487975Y-151934127D01*
X165495684Y-152154872D01*
X165497625Y-152210458D01*
X165498387Y-152214781D01*
X165498388Y-152214788D01*
X165522164Y-152349624D01*
X165546402Y-152487087D01*
X165633203Y-152754235D01*
X165756340Y-153006702D01*
X165758795Y-153010341D01*
X165758798Y-153010347D01*
X165767782Y-153023666D01*
X165913415Y-153239576D01*
X166101371Y-153448322D01*
X166316550Y-153628879D01*
X166554764Y-153777731D01*
X166811375Y-153891982D01*
X167081390Y-153969407D01*
X167085740Y-153970018D01*
X167085743Y-153970019D01*
X167188690Y-153984487D01*
X167359552Y-154008500D01*
X167570146Y-154008500D01*
X167572332Y-154008347D01*
X167572336Y-154008347D01*
X167775827Y-153994118D01*
X167775832Y-153994117D01*
X167780212Y-153993811D01*
X168054970Y-153935409D01*
X168059099Y-153933906D01*
X168059103Y-153933905D01*
X168314781Y-153840846D01*
X168314785Y-153840844D01*
X168318926Y-153839337D01*
X168566942Y-153707464D01*
X168570503Y-153704877D01*
X168790629Y-153544947D01*
X168790632Y-153544944D01*
X168794192Y-153542358D01*
X168996252Y-153347231D01*
X169169188Y-153125882D01*
X169171384Y-153122078D01*
X169171389Y-153122071D01*
X169291403Y-152914200D01*
X169309636Y-152882619D01*
X169414862Y-152622176D01*
X169429686Y-152562720D01*
X169481753Y-152353893D01*
X169481754Y-152353888D01*
X169482817Y-152349624D01*
X169512178Y-152070267D01*
X169510694Y-152027767D01*
X169502529Y-151793939D01*
X169502528Y-151793933D01*
X169502375Y-151789542D01*
X169491275Y-151726587D01*
X169454360Y-151517236D01*
X169453598Y-151512913D01*
X169366797Y-151245765D01*
X169243660Y-150993298D01*
X169241205Y-150989659D01*
X169241202Y-150989653D01*
X169160935Y-150870653D01*
X169086585Y-150760424D01*
X168898629Y-150551678D01*
X168683450Y-150371121D01*
X168445236Y-150222269D01*
X168188625Y-150108018D01*
X167918610Y-150030593D01*
X167914260Y-150029982D01*
X167914257Y-150029981D01*
X167811310Y-150015513D01*
X167640448Y-149991500D01*
X167429854Y-149991500D01*
X167427668Y-149991653D01*
X167427664Y-149991653D01*
X167224173Y-150005882D01*
X167224168Y-150005883D01*
X167219788Y-150006189D01*
X166945030Y-150064591D01*
X166940901Y-150066094D01*
X166940897Y-150066095D01*
X166685219Y-150159154D01*
X166685215Y-150159156D01*
X166681074Y-150160663D01*
X166433058Y-150292536D01*
X166429499Y-150295122D01*
X166429497Y-150295123D01*
X166324895Y-150371121D01*
X166205808Y-150457642D01*
X166003748Y-150652769D01*
X165830812Y-150874118D01*
X165828616Y-150877922D01*
X165828611Y-150877929D01*
X165714794Y-151075067D01*
X165690364Y-151117381D01*
X165585138Y-151377824D01*
X165584073Y-151382097D01*
X165584072Y-151382099D01*
X165519203Y-151642276D01*
X165517183Y-151650376D01*
X165516724Y-151654744D01*
X165516723Y-151654749D01*
X165488281Y-151925364D01*
X165487822Y-151929733D01*
X152155806Y-151929733D01*
X152085440Y-151807856D01*
X152012263Y-151726585D01*
X151981547Y-151662579D01*
X151979900Y-151642276D01*
X151979900Y-144742299D01*
X185822531Y-144742299D01*
X185828258Y-144749949D01*
X185999278Y-144854750D01*
X186008072Y-144859231D01*
X186218147Y-144946247D01*
X186227532Y-144949296D01*
X186448634Y-145002379D01*
X186458381Y-145003922D01*
X186685070Y-145021763D01*
X186694930Y-145021763D01*
X186921619Y-145003922D01*
X186931366Y-145002379D01*
X187152468Y-144949296D01*
X187161853Y-144946247D01*
X187371928Y-144859231D01*
X187380722Y-144854750D01*
X187548076Y-144752196D01*
X187557536Y-144741740D01*
X187553752Y-144732962D01*
X186702812Y-143882022D01*
X186688868Y-143874408D01*
X186687035Y-143874539D01*
X186680420Y-143878790D01*
X185829291Y-144729919D01*
X185822531Y-144742299D01*
X151979900Y-144742299D01*
X151979900Y-143514930D01*
X185178237Y-143514930D01*
X185196078Y-143741619D01*
X185197621Y-143751366D01*
X185250704Y-143972468D01*
X185253753Y-143981853D01*
X185340769Y-144191928D01*
X185345250Y-144200722D01*
X185447804Y-144368076D01*
X185458260Y-144377536D01*
X185467038Y-144373752D01*
X186317978Y-143522812D01*
X186324356Y-143511132D01*
X187054408Y-143511132D01*
X187054539Y-143512965D01*
X187058790Y-143519580D01*
X187909919Y-144370709D01*
X187922299Y-144377469D01*
X187929949Y-144371742D01*
X188034750Y-144200722D01*
X188039231Y-144191928D01*
X188126247Y-143981853D01*
X188129296Y-143972468D01*
X188182379Y-143751366D01*
X188183922Y-143741619D01*
X188201763Y-143514930D01*
X188201763Y-143505070D01*
X188183922Y-143278381D01*
X188182379Y-143268634D01*
X188129296Y-143047532D01*
X188126247Y-143038147D01*
X188039231Y-142828072D01*
X188034750Y-142819278D01*
X187932196Y-142651924D01*
X187921740Y-142642464D01*
X187912962Y-142646248D01*
X187062022Y-143497188D01*
X187054408Y-143511132D01*
X186324356Y-143511132D01*
X186325592Y-143508868D01*
X186325461Y-143507035D01*
X186321210Y-143500420D01*
X185470081Y-142649291D01*
X185457701Y-142642531D01*
X185450051Y-142648258D01*
X185345250Y-142819278D01*
X185340769Y-142828072D01*
X185253753Y-143038147D01*
X185250704Y-143047532D01*
X185197621Y-143268634D01*
X185196078Y-143278381D01*
X185178237Y-143505070D01*
X185178237Y-143514930D01*
X151979900Y-143514930D01*
X151979900Y-123344363D01*
X151980427Y-123333179D01*
X151982101Y-123325691D01*
X151979962Y-123257632D01*
X151979900Y-123253675D01*
X151979900Y-123225744D01*
X151979394Y-123221738D01*
X151978461Y-123209892D01*
X151978392Y-123207679D01*
X151977073Y-123165710D01*
X151971422Y-123146258D01*
X151967414Y-123126906D01*
X151965867Y-123114663D01*
X151964874Y-123106803D01*
X151961956Y-123099432D01*
X151948600Y-123065697D01*
X151944755Y-123054470D01*
X151943666Y-123050723D01*
X151932418Y-123012007D01*
X151928384Y-123005185D01*
X151928381Y-123005179D01*
X151922106Y-122994568D01*
X151913410Y-122976818D01*
X151908872Y-122965356D01*
X151908869Y-122965351D01*
X151905952Y-122957983D01*
X151881666Y-122924556D01*
X151879973Y-122922225D01*
X151873457Y-122912307D01*
X151861834Y-122892655D01*
X151850942Y-122874237D01*
X151836618Y-122859913D01*
X151823776Y-122844878D01*
X151811872Y-122828493D01*
X151777806Y-122800311D01*
X151769027Y-122792322D01*
X147439500Y-118462795D01*
X147435134Y-118454800D01*
X148672696Y-118454800D01*
X148673386Y-118461365D01*
X148691790Y-118636466D01*
X148692658Y-118644728D01*
X148751673Y-118826356D01*
X148754976Y-118832078D01*
X148754977Y-118832079D01*
X148784827Y-118883781D01*
X148847160Y-118991744D01*
X148851578Y-118996651D01*
X148851579Y-118996652D01*
X148957586Y-119114385D01*
X148974947Y-119133666D01*
X149038833Y-119180082D01*
X149121040Y-119239809D01*
X149129448Y-119245918D01*
X149135476Y-119248602D01*
X149135478Y-119248603D01*
X149297881Y-119320909D01*
X149303912Y-119323594D01*
X149381717Y-119340132D01*
X149484256Y-119361928D01*
X149484261Y-119361928D01*
X149490713Y-119363300D01*
X149681687Y-119363300D01*
X149688139Y-119361928D01*
X149688144Y-119361928D01*
X149790683Y-119340132D01*
X149868488Y-119323594D01*
X149874519Y-119320909D01*
X150036922Y-119248603D01*
X150036924Y-119248602D01*
X150042952Y-119245918D01*
X150051361Y-119239809D01*
X150133567Y-119180082D01*
X150197453Y-119133666D01*
X150214814Y-119114385D01*
X150320821Y-118996652D01*
X150320822Y-118996651D01*
X150325240Y-118991744D01*
X150387573Y-118883781D01*
X150417423Y-118832079D01*
X150417424Y-118832078D01*
X150420727Y-118826356D01*
X150479742Y-118644728D01*
X150480611Y-118636466D01*
X150491039Y-118537247D01*
X150497107Y-118479506D01*
X150524120Y-118413850D01*
X150533322Y-118403582D01*
X151397619Y-117539285D01*
X151459931Y-117505259D01*
X151530746Y-117510324D01*
X151580349Y-117544069D01*
X151694247Y-117670566D01*
X151793343Y-117742564D01*
X151833929Y-117772051D01*
X151848748Y-117782818D01*
X151854776Y-117785502D01*
X151854778Y-117785503D01*
X151969895Y-117836756D01*
X152023212Y-117860494D01*
X152105557Y-117877997D01*
X152203556Y-117898828D01*
X152203561Y-117898828D01*
X152210013Y-117900200D01*
X152265906Y-117900200D01*
X152334027Y-117920202D01*
X152355001Y-117937105D01*
X159453895Y-125036000D01*
X159487921Y-125098312D01*
X159490800Y-125125095D01*
X159490800Y-140480176D01*
X159470798Y-140548297D01*
X159458442Y-140564479D01*
X159385260Y-140645756D01*
X159289773Y-140811144D01*
X159230758Y-140992772D01*
X159210796Y-141182700D01*
X159230758Y-141372628D01*
X159289773Y-141554256D01*
X159385260Y-141719644D01*
X159513047Y-141861566D01*
X159597225Y-141922725D01*
X159647083Y-141958949D01*
X159667548Y-141973818D01*
X159673576Y-141976502D01*
X159673578Y-141976503D01*
X159835981Y-142048809D01*
X159842012Y-142051494D01*
X159935413Y-142071347D01*
X160022356Y-142089828D01*
X160022361Y-142089828D01*
X160028813Y-142091200D01*
X160219787Y-142091200D01*
X160226239Y-142089828D01*
X160226244Y-142089828D01*
X160313187Y-142071347D01*
X160406588Y-142051494D01*
X160412619Y-142048809D01*
X160575022Y-141976503D01*
X160575024Y-141976502D01*
X160581052Y-141973818D01*
X160601518Y-141958949D01*
X160651375Y-141922725D01*
X160735553Y-141861566D01*
X160863340Y-141719644D01*
X160958827Y-141554256D01*
X161017842Y-141372628D01*
X161037804Y-141182700D01*
X161033905Y-141145604D01*
X172387787Y-141145604D01*
X172397567Y-141356899D01*
X172447125Y-141562534D01*
X172449607Y-141567992D01*
X172449608Y-141567996D01*
X172493053Y-141663546D01*
X172534674Y-141755087D01*
X172657054Y-141927611D01*
X172809850Y-142073881D01*
X172987548Y-142188620D01*
X172993114Y-142190863D01*
X173178168Y-142265442D01*
X173178171Y-142265443D01*
X173183737Y-142267686D01*
X173391337Y-142308228D01*
X173396899Y-142308500D01*
X173552846Y-142308500D01*
X173710566Y-142293452D01*
X173762351Y-142278260D01*
X185822464Y-142278260D01*
X185826248Y-142287038D01*
X186677188Y-143137978D01*
X186691132Y-143145592D01*
X186692965Y-143145461D01*
X186699580Y-143141210D01*
X187550709Y-142290081D01*
X187557469Y-142277701D01*
X187551742Y-142270051D01*
X187380722Y-142165250D01*
X187371928Y-142160769D01*
X187161853Y-142073753D01*
X187152468Y-142070704D01*
X186931366Y-142017621D01*
X186921619Y-142016078D01*
X186694930Y-141998237D01*
X186685070Y-141998237D01*
X186458381Y-142016078D01*
X186448634Y-142017621D01*
X186227532Y-142070704D01*
X186218147Y-142073753D01*
X186008072Y-142160769D01*
X185999278Y-142165250D01*
X185831924Y-142267804D01*
X185822464Y-142278260D01*
X173762351Y-142278260D01*
X173913534Y-142233908D01*
X173997111Y-142190863D01*
X174096249Y-142139804D01*
X174096252Y-142139802D01*
X174101580Y-142137058D01*
X174267920Y-142006396D01*
X174271852Y-142001865D01*
X174271855Y-142001862D01*
X174402621Y-141851167D01*
X174406552Y-141846637D01*
X174409552Y-141841451D01*
X174409555Y-141841447D01*
X174509467Y-141668742D01*
X174512473Y-141663546D01*
X174581861Y-141463729D01*
X174609052Y-141276200D01*
X174611352Y-141260336D01*
X174611352Y-141260333D01*
X174612213Y-141254396D01*
X174602433Y-141043101D01*
X174575730Y-140932299D01*
X185822531Y-140932299D01*
X185828258Y-140939949D01*
X185999278Y-141044750D01*
X186008072Y-141049231D01*
X186218147Y-141136247D01*
X186227532Y-141139296D01*
X186448634Y-141192379D01*
X186458381Y-141193922D01*
X186685070Y-141211763D01*
X186694930Y-141211763D01*
X186921619Y-141193922D01*
X186931366Y-141192379D01*
X187152468Y-141139296D01*
X187161853Y-141136247D01*
X187371928Y-141049231D01*
X187380722Y-141044750D01*
X187548076Y-140942196D01*
X187557536Y-140931740D01*
X187553752Y-140922962D01*
X186702812Y-140072022D01*
X186688868Y-140064408D01*
X186687035Y-140064539D01*
X186680420Y-140068790D01*
X185829291Y-140919919D01*
X185822531Y-140932299D01*
X174575730Y-140932299D01*
X174552875Y-140837466D01*
X174540026Y-140809205D01*
X174467806Y-140650368D01*
X174465326Y-140644913D01*
X174342946Y-140472389D01*
X174190150Y-140326119D01*
X174012452Y-140211380D01*
X173952354Y-140187160D01*
X173821832Y-140134558D01*
X173821829Y-140134557D01*
X173816263Y-140132314D01*
X173608663Y-140091772D01*
X173603101Y-140091500D01*
X173447154Y-140091500D01*
X173289434Y-140106548D01*
X173086466Y-140166092D01*
X173081139Y-140168836D01*
X173081138Y-140168836D01*
X172903751Y-140260196D01*
X172903748Y-140260198D01*
X172898420Y-140262942D01*
X172732080Y-140393604D01*
X172728148Y-140398135D01*
X172728145Y-140398138D01*
X172639338Y-140500479D01*
X172593448Y-140553363D01*
X172590448Y-140558549D01*
X172590445Y-140558553D01*
X172540485Y-140644913D01*
X172487527Y-140736454D01*
X172418139Y-140936271D01*
X172417278Y-140942206D01*
X172417278Y-140942208D01*
X172388702Y-141139296D01*
X172387787Y-141145604D01*
X161033905Y-141145604D01*
X161017842Y-140992772D01*
X160958827Y-140811144D01*
X160863340Y-140645756D01*
X160790163Y-140564485D01*
X160759447Y-140500479D01*
X160757800Y-140480176D01*
X160757800Y-139704930D01*
X185178237Y-139704930D01*
X185196078Y-139931619D01*
X185197621Y-139941366D01*
X185250704Y-140162468D01*
X185253753Y-140171853D01*
X185340769Y-140381928D01*
X185345250Y-140390722D01*
X185447804Y-140558076D01*
X185458260Y-140567536D01*
X185467038Y-140563752D01*
X186317978Y-139712812D01*
X186324356Y-139701132D01*
X187054408Y-139701132D01*
X187054539Y-139702965D01*
X187058790Y-139709580D01*
X187909919Y-140560709D01*
X187922299Y-140567469D01*
X187929949Y-140561742D01*
X188034750Y-140390722D01*
X188039231Y-140381928D01*
X188126247Y-140171853D01*
X188129296Y-140162468D01*
X188182379Y-139941366D01*
X188183922Y-139931619D01*
X188201763Y-139704930D01*
X188201763Y-139695070D01*
X188183922Y-139468381D01*
X188182379Y-139458634D01*
X188129296Y-139237532D01*
X188126247Y-139228147D01*
X188039231Y-139018072D01*
X188034750Y-139009278D01*
X187932196Y-138841924D01*
X187921740Y-138832464D01*
X187912962Y-138836248D01*
X187062022Y-139687188D01*
X187054408Y-139701132D01*
X186324356Y-139701132D01*
X186325592Y-139698868D01*
X186325461Y-139697035D01*
X186321210Y-139690420D01*
X185470081Y-138839291D01*
X185457701Y-138832531D01*
X185450051Y-138838258D01*
X185345250Y-139009278D01*
X185340769Y-139018072D01*
X185253753Y-139228147D01*
X185250704Y-139237532D01*
X185197621Y-139458634D01*
X185196078Y-139468381D01*
X185178237Y-139695070D01*
X185178237Y-139704930D01*
X160757800Y-139704930D01*
X160757800Y-138468260D01*
X185822464Y-138468260D01*
X185826248Y-138477038D01*
X186677188Y-139327978D01*
X186691132Y-139335592D01*
X186692965Y-139335461D01*
X186699580Y-139331210D01*
X187550709Y-138480081D01*
X187557469Y-138467701D01*
X187551742Y-138460051D01*
X187380722Y-138355250D01*
X187371928Y-138350769D01*
X187161853Y-138263753D01*
X187152468Y-138260704D01*
X186931366Y-138207621D01*
X186921619Y-138206078D01*
X186694930Y-138188237D01*
X186685070Y-138188237D01*
X186458381Y-138206078D01*
X186448634Y-138207621D01*
X186227532Y-138260704D01*
X186218147Y-138263753D01*
X186008072Y-138350769D01*
X185999278Y-138355250D01*
X185831924Y-138457804D01*
X185822464Y-138468260D01*
X160757800Y-138468260D01*
X160757800Y-133645604D01*
X172387787Y-133645604D01*
X172397567Y-133856899D01*
X172447125Y-134062534D01*
X172449607Y-134067992D01*
X172449608Y-134067996D01*
X172493053Y-134163546D01*
X172534674Y-134255087D01*
X172657054Y-134427611D01*
X172809850Y-134573881D01*
X172987548Y-134688620D01*
X172993114Y-134690863D01*
X173178168Y-134765442D01*
X173178171Y-134765443D01*
X173183737Y-134767686D01*
X173391337Y-134808228D01*
X173396899Y-134808500D01*
X173552846Y-134808500D01*
X173710566Y-134793452D01*
X173913534Y-134733908D01*
X173997111Y-134690863D01*
X174096249Y-134639804D01*
X174096252Y-134639802D01*
X174101580Y-134637058D01*
X174267920Y-134506396D01*
X174271852Y-134501865D01*
X174271855Y-134501862D01*
X174402621Y-134351167D01*
X174406552Y-134346637D01*
X174409552Y-134341451D01*
X174409555Y-134341447D01*
X174509467Y-134168742D01*
X174512473Y-134163546D01*
X174581861Y-133963729D01*
X174612213Y-133754396D01*
X174602433Y-133543101D01*
X174552875Y-133337466D01*
X174509525Y-133242122D01*
X174467806Y-133150368D01*
X174465326Y-133144913D01*
X174342946Y-132972389D01*
X174190150Y-132826119D01*
X174012452Y-132711380D01*
X173952354Y-132687160D01*
X173821832Y-132634558D01*
X173821829Y-132634557D01*
X173816263Y-132632314D01*
X173608663Y-132591772D01*
X173603101Y-132591500D01*
X173447154Y-132591500D01*
X173289434Y-132606548D01*
X173086466Y-132666092D01*
X173081139Y-132668836D01*
X173081138Y-132668836D01*
X172903751Y-132760196D01*
X172903748Y-132760198D01*
X172898420Y-132762942D01*
X172732080Y-132893604D01*
X172728148Y-132898135D01*
X172728145Y-132898138D01*
X172659474Y-132977275D01*
X172593448Y-133053363D01*
X172590448Y-133058549D01*
X172590445Y-133058553D01*
X172543312Y-133140026D01*
X172487527Y-133236454D01*
X172418139Y-133436271D01*
X172387787Y-133645604D01*
X160757800Y-133645604D01*
X160757800Y-128929733D01*
X182987822Y-128929733D01*
X182997625Y-129210458D01*
X182998387Y-129214781D01*
X182998388Y-129214788D01*
X183022164Y-129349624D01*
X183046402Y-129487087D01*
X183133203Y-129754235D01*
X183256340Y-130006702D01*
X183258795Y-130010341D01*
X183258798Y-130010347D01*
X183331890Y-130118710D01*
X183413415Y-130239576D01*
X183601371Y-130448322D01*
X183816550Y-130628879D01*
X184054764Y-130777731D01*
X184311375Y-130891982D01*
X184581390Y-130969407D01*
X184585740Y-130970018D01*
X184585743Y-130970019D01*
X184688690Y-130984487D01*
X184859552Y-131008500D01*
X185070146Y-131008500D01*
X185072332Y-131008347D01*
X185072336Y-131008347D01*
X185275827Y-130994118D01*
X185275832Y-130994117D01*
X185280212Y-130993811D01*
X185554970Y-130935409D01*
X185559099Y-130933906D01*
X185559103Y-130933905D01*
X185814781Y-130840846D01*
X185814785Y-130840844D01*
X185818926Y-130839337D01*
X186066942Y-130707464D01*
X186171896Y-130631211D01*
X186290629Y-130544947D01*
X186290632Y-130544944D01*
X186294192Y-130542358D01*
X186496252Y-130347231D01*
X186669188Y-130125882D01*
X186671384Y-130122078D01*
X186671389Y-130122071D01*
X186807435Y-129886431D01*
X186809636Y-129882619D01*
X186914862Y-129622176D01*
X186948544Y-129487087D01*
X186981753Y-129353893D01*
X186981754Y-129353888D01*
X186982817Y-129349624D01*
X187012178Y-129070267D01*
X187002375Y-128789542D01*
X186978608Y-128654749D01*
X186954360Y-128517236D01*
X186953598Y-128512913D01*
X186866797Y-128245765D01*
X186743660Y-127993298D01*
X186741205Y-127989659D01*
X186741202Y-127989653D01*
X186660935Y-127870653D01*
X186586585Y-127760424D01*
X186398629Y-127551678D01*
X186183450Y-127371121D01*
X185945236Y-127222269D01*
X185688625Y-127108018D01*
X185418610Y-127030593D01*
X185414260Y-127029982D01*
X185414257Y-127029981D01*
X185311310Y-127015513D01*
X185140448Y-126991500D01*
X184929854Y-126991500D01*
X184927668Y-126991653D01*
X184927664Y-126991653D01*
X184724173Y-127005882D01*
X184724168Y-127005883D01*
X184719788Y-127006189D01*
X184445030Y-127064591D01*
X184440901Y-127066094D01*
X184440897Y-127066095D01*
X184185219Y-127159154D01*
X184185215Y-127159156D01*
X184181074Y-127160663D01*
X183933058Y-127292536D01*
X183929499Y-127295122D01*
X183929497Y-127295123D01*
X183824895Y-127371121D01*
X183705808Y-127457642D01*
X183503748Y-127652769D01*
X183330812Y-127874118D01*
X183328616Y-127877922D01*
X183328611Y-127877929D01*
X183214794Y-128075067D01*
X183190364Y-128117381D01*
X183085138Y-128377824D01*
X183084073Y-128382097D01*
X183084072Y-128382099D01*
X183050379Y-128517236D01*
X183017183Y-128650376D01*
X182987822Y-128929733D01*
X160757800Y-128929733D01*
X160757800Y-124889267D01*
X160758327Y-124878084D01*
X160760002Y-124870591D01*
X160759713Y-124861376D01*
X160757862Y-124802514D01*
X160757800Y-124798555D01*
X160757800Y-124770644D01*
X160757295Y-124766644D01*
X160756362Y-124754801D01*
X160756332Y-124753827D01*
X160754973Y-124710611D01*
X160749321Y-124691157D01*
X160745313Y-124671800D01*
X160743768Y-124659570D01*
X160743768Y-124659569D01*
X160742774Y-124651703D01*
X160739855Y-124644330D01*
X160726496Y-124610588D01*
X160722651Y-124599358D01*
X160712529Y-124564517D01*
X160712529Y-124564516D01*
X160710318Y-124556907D01*
X160706285Y-124550088D01*
X160706283Y-124550083D01*
X160700007Y-124539472D01*
X160691312Y-124521724D01*
X160683852Y-124502883D01*
X160657864Y-124467113D01*
X160651348Y-124457193D01*
X160632880Y-124425965D01*
X160632878Y-124425962D01*
X160628842Y-124419138D01*
X160614521Y-124404817D01*
X160601680Y-124389783D01*
X160594431Y-124379806D01*
X160589772Y-124373393D01*
X160555695Y-124345202D01*
X160546916Y-124337212D01*
X158149404Y-121939700D01*
X162883596Y-121939700D01*
X162884286Y-121946265D01*
X162902562Y-122120148D01*
X162903558Y-122129628D01*
X162962573Y-122311256D01*
X162965876Y-122316978D01*
X162965877Y-122316979D01*
X162970923Y-122325718D01*
X163058060Y-122476644D01*
X163062478Y-122481551D01*
X163062479Y-122481552D01*
X163181425Y-122613655D01*
X163185847Y-122618566D01*
X163340348Y-122730818D01*
X163346376Y-122733502D01*
X163346378Y-122733503D01*
X163508781Y-122805809D01*
X163514812Y-122808494D01*
X163592509Y-122825009D01*
X163695156Y-122846828D01*
X163695161Y-122846828D01*
X163701613Y-122848200D01*
X163892587Y-122848200D01*
X163899039Y-122846828D01*
X163899044Y-122846828D01*
X164001691Y-122825009D01*
X164079388Y-122808494D01*
X164085419Y-122805809D01*
X164247822Y-122733503D01*
X164247824Y-122733502D01*
X164253852Y-122730818D01*
X164408353Y-122618566D01*
X164412775Y-122613655D01*
X164531721Y-122481552D01*
X164531722Y-122481551D01*
X164536140Y-122476644D01*
X164594940Y-122374800D01*
X166566896Y-122374800D01*
X166567586Y-122381365D01*
X166581262Y-122511481D01*
X166586858Y-122564728D01*
X166645873Y-122746356D01*
X166649176Y-122752078D01*
X166649177Y-122752079D01*
X166672545Y-122792554D01*
X166741360Y-122911744D01*
X166745778Y-122916651D01*
X166745779Y-122916652D01*
X166864725Y-123048755D01*
X166869147Y-123053666D01*
X167023648Y-123165918D01*
X167029676Y-123168602D01*
X167029678Y-123168603D01*
X167158020Y-123225744D01*
X167198112Y-123243594D01*
X167280085Y-123261018D01*
X167378456Y-123281928D01*
X167378461Y-123281928D01*
X167384913Y-123283300D01*
X167575887Y-123283300D01*
X167582339Y-123281928D01*
X167582344Y-123281928D01*
X167680715Y-123261018D01*
X167762688Y-123243594D01*
X167802780Y-123225744D01*
X167931122Y-123168603D01*
X167931124Y-123168602D01*
X167937152Y-123165918D01*
X167982101Y-123133261D01*
X168074260Y-123066303D01*
X168091653Y-123053666D01*
X168096068Y-123048763D01*
X168100980Y-123044340D01*
X168102105Y-123045589D01*
X168155414Y-123012749D01*
X168188600Y-123008300D01*
X175583133Y-123008300D01*
X175594316Y-123008827D01*
X175601809Y-123010502D01*
X175609735Y-123010253D01*
X175609736Y-123010253D01*
X175669886Y-123008362D01*
X175673845Y-123008300D01*
X175701756Y-123008300D01*
X175705691Y-123007803D01*
X175705756Y-123007795D01*
X175717593Y-123006862D01*
X175749851Y-123005848D01*
X175753870Y-123005722D01*
X175761789Y-123005473D01*
X175781243Y-122999821D01*
X175800600Y-122995813D01*
X175812830Y-122994268D01*
X175812831Y-122994268D01*
X175820697Y-122993274D01*
X175828068Y-122990355D01*
X175828070Y-122990355D01*
X175849297Y-122981951D01*
X175919997Y-122975472D01*
X175982977Y-123008245D01*
X175996506Y-123023538D01*
X176003623Y-123033034D01*
X176078739Y-123133261D01*
X176195295Y-123220615D01*
X176203704Y-123223767D01*
X176203705Y-123223768D01*
X176312451Y-123264535D01*
X176369216Y-123307176D01*
X176393916Y-123373738D01*
X176378709Y-123443087D01*
X176359316Y-123469568D01*
X176236233Y-123598367D01*
X176232629Y-123602138D01*
X176106743Y-123786680D01*
X176071180Y-123863295D01*
X176018215Y-123977399D01*
X176012688Y-123989305D01*
X175952989Y-124204570D01*
X175929251Y-124426695D01*
X175929548Y-124431848D01*
X175929548Y-124431851D01*
X175941812Y-124644547D01*
X175942110Y-124649715D01*
X175943247Y-124654761D01*
X175943248Y-124654767D01*
X175965061Y-124751555D01*
X175991222Y-124867639D01*
X176045703Y-125001810D01*
X176073087Y-125069249D01*
X176075266Y-125074616D01*
X176122397Y-125151527D01*
X176149564Y-125195859D01*
X176191987Y-125265088D01*
X176338250Y-125433938D01*
X176510126Y-125576632D01*
X176703000Y-125689338D01*
X176911692Y-125769030D01*
X176916760Y-125770061D01*
X176916763Y-125770062D01*
X177024017Y-125791883D01*
X177130597Y-125813567D01*
X177135772Y-125813757D01*
X177135774Y-125813757D01*
X177348673Y-125821564D01*
X177348677Y-125821564D01*
X177353837Y-125821753D01*
X177358957Y-125821097D01*
X177358959Y-125821097D01*
X177570288Y-125794025D01*
X177570289Y-125794025D01*
X177575416Y-125793368D01*
X177580366Y-125791883D01*
X177784429Y-125730661D01*
X177784434Y-125730659D01*
X177789384Y-125729174D01*
X177989994Y-125630896D01*
X178171860Y-125501173D01*
X178217264Y-125455928D01*
X178326435Y-125347137D01*
X178330096Y-125343489D01*
X178389594Y-125260689D01*
X178457435Y-125166277D01*
X178460453Y-125162077D01*
X178466064Y-125150725D01*
X178557136Y-124966453D01*
X178557137Y-124966451D01*
X178559430Y-124961811D01*
X178602273Y-124820799D01*
X178622865Y-124753023D01*
X178622865Y-124753021D01*
X178624370Y-124748069D01*
X178653529Y-124526590D01*
X178653648Y-124521713D01*
X178655074Y-124463365D01*
X178655074Y-124463361D01*
X178655156Y-124460000D01*
X178636852Y-124237361D01*
X178582431Y-124020702D01*
X178493354Y-123815840D01*
X178451034Y-123750424D01*
X178374822Y-123632617D01*
X178374820Y-123632614D01*
X178372014Y-123628277D01*
X178352873Y-123607241D01*
X178224798Y-123466488D01*
X178193746Y-123402642D01*
X178202141Y-123332143D01*
X178247317Y-123277375D01*
X178273761Y-123263706D01*
X178380297Y-123223767D01*
X178388705Y-123220615D01*
X178505261Y-123133261D01*
X178592615Y-123016705D01*
X178643745Y-122880316D01*
X178650500Y-122818134D01*
X178650500Y-121152925D01*
X180726645Y-121152925D01*
X180729253Y-121181584D01*
X180743123Y-121333983D01*
X180744570Y-121349888D01*
X180746308Y-121355794D01*
X180746309Y-121355798D01*
X180763868Y-121415458D01*
X180800410Y-121539619D01*
X180803263Y-121545077D01*
X180803265Y-121545081D01*
X180841052Y-121617359D01*
X180892040Y-121714890D01*
X181015968Y-121869025D01*
X181020692Y-121872989D01*
X181024581Y-121876252D01*
X181167474Y-121996154D01*
X181172872Y-121999121D01*
X181172877Y-121999125D01*
X181277986Y-122056908D01*
X181340787Y-122091433D01*
X181346654Y-122093294D01*
X181346656Y-122093295D01*
X181480983Y-122135906D01*
X181529306Y-122151235D01*
X181683227Y-122168500D01*
X182889769Y-122168500D01*
X182892825Y-122168200D01*
X182892832Y-122168200D01*
X182951340Y-122162463D01*
X183036833Y-122154080D01*
X183042734Y-122152298D01*
X183042736Y-122152298D01*
X183149221Y-122120148D01*
X183226169Y-122096916D01*
X183400796Y-122004066D01*
X183492705Y-121929107D01*
X183549287Y-121882960D01*
X183549290Y-121882957D01*
X183554062Y-121879065D01*
X183562368Y-121869025D01*
X183676201Y-121731425D01*
X183676203Y-121731421D01*
X183680130Y-121726675D01*
X183774198Y-121552701D01*
X183832682Y-121363768D01*
X183835515Y-121336815D01*
X183852711Y-121173204D01*
X183852711Y-121173202D01*
X183853355Y-121167075D01*
X183852067Y-121152925D01*
X185156645Y-121152925D01*
X185159253Y-121181584D01*
X185173123Y-121333983D01*
X185174570Y-121349888D01*
X185176308Y-121355794D01*
X185176309Y-121355798D01*
X185193868Y-121415458D01*
X185230410Y-121539619D01*
X185233263Y-121545077D01*
X185233265Y-121545081D01*
X185271052Y-121617359D01*
X185322040Y-121714890D01*
X185445968Y-121869025D01*
X185450692Y-121872989D01*
X185454581Y-121876252D01*
X185597474Y-121996154D01*
X185602872Y-121999121D01*
X185602877Y-121999125D01*
X185707986Y-122056908D01*
X185770787Y-122091433D01*
X185776654Y-122093294D01*
X185776656Y-122093295D01*
X185910983Y-122135906D01*
X185959306Y-122151235D01*
X186113227Y-122168500D01*
X186819769Y-122168500D01*
X186822825Y-122168200D01*
X186822832Y-122168200D01*
X186881340Y-122162463D01*
X186966833Y-122154080D01*
X186972734Y-122152298D01*
X186972736Y-122152298D01*
X187079221Y-122120148D01*
X187156169Y-122096916D01*
X187330796Y-122004066D01*
X187422705Y-121929107D01*
X187479287Y-121882960D01*
X187479290Y-121882957D01*
X187484062Y-121879065D01*
X187492368Y-121869025D01*
X187606201Y-121731425D01*
X187606203Y-121731421D01*
X187610130Y-121726675D01*
X187704198Y-121552701D01*
X187762682Y-121363768D01*
X187765515Y-121336815D01*
X187782711Y-121173204D01*
X187782711Y-121173202D01*
X187783355Y-121167075D01*
X187773050Y-121053841D01*
X187765989Y-120976251D01*
X187765988Y-120976248D01*
X187765430Y-120970112D01*
X187760184Y-120952285D01*
X187711330Y-120786294D01*
X187709590Y-120780381D01*
X187699919Y-120761881D01*
X187636171Y-120639945D01*
X187617960Y-120605110D01*
X187494032Y-120450975D01*
X187487727Y-120445684D01*
X187416699Y-120386085D01*
X187342526Y-120323846D01*
X187337128Y-120320879D01*
X187337123Y-120320875D01*
X187169213Y-120228567D01*
X187170577Y-120226086D01*
X187125194Y-120188660D01*
X187103500Y-120117975D01*
X187103500Y-113560629D01*
X187123502Y-113492508D01*
X187170346Y-113449378D01*
X187330796Y-113364066D01*
X187417062Y-113293709D01*
X187479287Y-113242960D01*
X187479290Y-113242957D01*
X187484062Y-113239065D01*
X187496344Y-113224219D01*
X187606201Y-113091425D01*
X187606203Y-113091421D01*
X187610130Y-113086675D01*
X187704198Y-112912701D01*
X187762682Y-112723768D01*
X187774975Y-112606806D01*
X187782711Y-112533204D01*
X187782711Y-112533202D01*
X187783355Y-112527075D01*
X187767799Y-112356144D01*
X187765989Y-112336251D01*
X187765988Y-112336248D01*
X187765430Y-112330112D01*
X187759651Y-112310474D01*
X187722574Y-112184499D01*
X187709590Y-112140381D01*
X187705013Y-112131625D01*
X187638163Y-112003755D01*
X187617960Y-111965110D01*
X187494032Y-111810975D01*
X187487727Y-111805684D01*
X187471334Y-111791929D01*
X187342526Y-111683846D01*
X187337128Y-111680879D01*
X187337123Y-111680875D01*
X187174608Y-111591533D01*
X187174609Y-111591533D01*
X187169213Y-111588567D01*
X187163346Y-111586706D01*
X187163344Y-111586705D01*
X186986564Y-111530627D01*
X186986563Y-111530627D01*
X186980694Y-111528765D01*
X186826773Y-111511500D01*
X186120231Y-111511500D01*
X186117175Y-111511800D01*
X186117168Y-111511800D01*
X186065750Y-111516842D01*
X185973167Y-111525920D01*
X185967266Y-111527702D01*
X185967264Y-111527702D01*
X185920308Y-111541879D01*
X185783831Y-111583084D01*
X185609204Y-111675934D01*
X185573067Y-111705407D01*
X185460713Y-111797040D01*
X185460710Y-111797043D01*
X185455938Y-111800935D01*
X185452011Y-111805682D01*
X185452009Y-111805684D01*
X185333799Y-111948575D01*
X185333797Y-111948579D01*
X185329870Y-111953325D01*
X185235802Y-112127299D01*
X185177318Y-112316232D01*
X185176674Y-112322357D01*
X185176674Y-112322358D01*
X185158833Y-112492112D01*
X185156645Y-112512925D01*
X185157204Y-112519065D01*
X185170279Y-112662733D01*
X185174570Y-112709888D01*
X185176308Y-112715794D01*
X185176309Y-112715798D01*
X185179812Y-112727700D01*
X185230410Y-112899619D01*
X185233263Y-112905077D01*
X185233265Y-112905081D01*
X185280720Y-112995853D01*
X185322040Y-113074890D01*
X185445968Y-113229025D01*
X185450692Y-113232989D01*
X185457933Y-113239065D01*
X185597474Y-113356154D01*
X185602872Y-113359121D01*
X185602877Y-113359125D01*
X185770787Y-113451433D01*
X185769423Y-113453914D01*
X185814806Y-113491340D01*
X185836500Y-113562025D01*
X185836500Y-120119371D01*
X185816498Y-120187492D01*
X185769654Y-120230622D01*
X185609204Y-120315934D01*
X185534628Y-120376757D01*
X185460713Y-120437040D01*
X185460710Y-120437043D01*
X185455938Y-120440935D01*
X185452011Y-120445682D01*
X185452009Y-120445684D01*
X185333799Y-120588575D01*
X185333797Y-120588579D01*
X185329870Y-120593325D01*
X185235802Y-120767299D01*
X185177318Y-120956232D01*
X185176674Y-120962357D01*
X185176674Y-120962358D01*
X185157384Y-121145897D01*
X185156645Y-121152925D01*
X183852067Y-121152925D01*
X183843050Y-121053841D01*
X183835989Y-120976251D01*
X183835988Y-120976248D01*
X183835430Y-120970112D01*
X183830184Y-120952285D01*
X183781330Y-120786294D01*
X183779590Y-120780381D01*
X183769919Y-120761881D01*
X183706171Y-120639945D01*
X183687960Y-120605110D01*
X183564032Y-120450975D01*
X183507171Y-120403263D01*
X183467846Y-120344154D01*
X183466720Y-120273167D01*
X183483952Y-120235920D01*
X183556442Y-120129255D01*
X183560277Y-120123612D01*
X183627530Y-119955466D01*
X183628644Y-119948738D01*
X183628645Y-119948734D01*
X183655993Y-119783539D01*
X183655993Y-119783536D01*
X183657108Y-119776802D01*
X183656467Y-119764556D01*
X183647987Y-119602766D01*
X183647630Y-119595953D01*
X183640996Y-119571866D01*
X183601352Y-119427941D01*
X183599539Y-119421359D01*
X183515078Y-119261164D01*
X183510673Y-119255951D01*
X183510670Y-119255947D01*
X183402594Y-119128057D01*
X183402590Y-119128053D01*
X183398187Y-119122843D01*
X183392762Y-119118695D01*
X183259743Y-119016994D01*
X183259739Y-119016991D01*
X183254322Y-119012850D01*
X183136674Y-118957990D01*
X183096369Y-118939195D01*
X183096366Y-118939194D01*
X183090192Y-118936315D01*
X183083544Y-118934829D01*
X183083541Y-118934828D01*
X182940796Y-118902921D01*
X182913457Y-118896810D01*
X182907912Y-118896500D01*
X182774756Y-118896500D01*
X182771359Y-118896869D01*
X182761537Y-118897936D01*
X182639963Y-118911143D01*
X182537399Y-118945660D01*
X182474796Y-118966728D01*
X182474794Y-118966729D01*
X182468325Y-118968906D01*
X182313095Y-119062177D01*
X182308138Y-119066865D01*
X182308135Y-119066867D01*
X182186473Y-119181918D01*
X182181515Y-119186607D01*
X182177683Y-119192245D01*
X182177680Y-119192249D01*
X182092357Y-119317798D01*
X182079723Y-119336388D01*
X182012470Y-119504534D01*
X182011356Y-119511262D01*
X182011355Y-119511266D01*
X181984007Y-119676461D01*
X181982892Y-119683198D01*
X181983249Y-119690015D01*
X181983249Y-119690019D01*
X181991061Y-119839072D01*
X181992370Y-119864047D01*
X181994181Y-119870620D01*
X181994181Y-119870623D01*
X182027625Y-119992040D01*
X182026431Y-120063027D01*
X181987048Y-120122099D01*
X181921981Y-120150501D01*
X181906149Y-120151500D01*
X181690231Y-120151500D01*
X181687175Y-120151800D01*
X181687168Y-120151800D01*
X181628660Y-120157537D01*
X181543167Y-120165920D01*
X181537266Y-120167702D01*
X181537264Y-120167702D01*
X181471717Y-120187492D01*
X181353831Y-120223084D01*
X181179204Y-120315934D01*
X181104628Y-120376757D01*
X181030713Y-120437040D01*
X181030710Y-120437043D01*
X181025938Y-120440935D01*
X181022011Y-120445682D01*
X181022009Y-120445684D01*
X180903799Y-120588575D01*
X180903797Y-120588579D01*
X180899870Y-120593325D01*
X180805802Y-120767299D01*
X180747318Y-120956232D01*
X180746674Y-120962357D01*
X180746674Y-120962358D01*
X180727384Y-121145897D01*
X180726645Y-121152925D01*
X178650500Y-121152925D01*
X178650500Y-121021866D01*
X178643745Y-120959684D01*
X178592615Y-120823295D01*
X178505261Y-120706739D01*
X178388705Y-120619385D01*
X178252316Y-120568255D01*
X178190134Y-120561500D01*
X176393866Y-120561500D01*
X176331684Y-120568255D01*
X176195295Y-120619385D01*
X176078739Y-120706739D01*
X175991385Y-120823295D01*
X175940255Y-120959684D01*
X175933500Y-121021866D01*
X175933500Y-121221836D01*
X175913498Y-121289957D01*
X175862618Y-121333161D01*
X175863104Y-121333983D01*
X175858315Y-121336815D01*
X175858311Y-121336818D01*
X175856282Y-121338018D01*
X175856278Y-121338020D01*
X175845668Y-121344294D01*
X175827918Y-121352990D01*
X175816456Y-121357528D01*
X175816451Y-121357531D01*
X175809083Y-121360448D01*
X175802668Y-121365109D01*
X175773325Y-121386427D01*
X175763407Y-121392943D01*
X175753568Y-121398762D01*
X175725337Y-121415458D01*
X175711013Y-121429782D01*
X175695981Y-121442621D01*
X175679593Y-121454528D01*
X175651412Y-121488593D01*
X175643422Y-121497373D01*
X175436400Y-121704395D01*
X175374088Y-121738421D01*
X175347305Y-121741300D01*
X168188600Y-121741300D01*
X168120479Y-121721298D01*
X168101253Y-121704957D01*
X168100980Y-121705260D01*
X168096068Y-121700837D01*
X168091653Y-121695934D01*
X168029620Y-121650864D01*
X167942494Y-121587563D01*
X167942493Y-121587562D01*
X167937152Y-121583682D01*
X167931124Y-121580998D01*
X167931122Y-121580997D01*
X167768719Y-121508691D01*
X167768718Y-121508691D01*
X167762688Y-121506006D01*
X167669288Y-121486153D01*
X167582344Y-121467672D01*
X167582339Y-121467672D01*
X167575887Y-121466300D01*
X167384913Y-121466300D01*
X167378461Y-121467672D01*
X167378456Y-121467672D01*
X167291512Y-121486153D01*
X167198112Y-121506006D01*
X167192082Y-121508691D01*
X167192081Y-121508691D01*
X167029678Y-121580997D01*
X167029676Y-121580998D01*
X167023648Y-121583682D01*
X167018307Y-121587562D01*
X167018306Y-121587563D01*
X166982741Y-121613403D01*
X166869147Y-121695934D01*
X166864726Y-121700844D01*
X166864725Y-121700845D01*
X166751335Y-121826778D01*
X166741360Y-121837856D01*
X166688676Y-121929107D01*
X166656044Y-121985628D01*
X166645873Y-122003244D01*
X166586858Y-122184872D01*
X166586168Y-122191433D01*
X166586168Y-122191435D01*
X166583683Y-122215083D01*
X166566896Y-122374800D01*
X164594940Y-122374800D01*
X164623277Y-122325718D01*
X164628323Y-122316979D01*
X164628324Y-122316978D01*
X164631627Y-122311256D01*
X164690642Y-122129628D01*
X164691639Y-122120148D01*
X164704527Y-121997521D01*
X164708007Y-121964406D01*
X164735020Y-121898750D01*
X164744222Y-121888482D01*
X167962452Y-118670252D01*
X168024764Y-118636226D01*
X168077744Y-118636100D01*
X168253356Y-118673428D01*
X168253361Y-118673428D01*
X168259813Y-118674800D01*
X168450787Y-118674800D01*
X168457239Y-118673428D01*
X168457244Y-118673428D01*
X168562728Y-118651006D01*
X168637588Y-118635094D01*
X168643619Y-118632409D01*
X168806022Y-118560103D01*
X168806024Y-118560102D01*
X168812052Y-118557418D01*
X168830763Y-118543824D01*
X168923435Y-118476493D01*
X168966553Y-118445166D01*
X168988858Y-118420394D01*
X169089921Y-118308152D01*
X169089922Y-118308151D01*
X169094340Y-118303244D01*
X169189827Y-118137856D01*
X169248842Y-117956228D01*
X169252378Y-117922590D01*
X169268114Y-117772865D01*
X169268804Y-117766300D01*
X169258742Y-117670566D01*
X169249532Y-117582935D01*
X169249532Y-117582933D01*
X169248842Y-117576372D01*
X169189827Y-117394744D01*
X169094340Y-117229356D01*
X169082846Y-117216590D01*
X168970975Y-117092345D01*
X168970974Y-117092344D01*
X168966553Y-117087434D01*
X168812052Y-116975182D01*
X168806024Y-116972498D01*
X168806022Y-116972497D01*
X168707013Y-116928416D01*
X168678751Y-116915833D01*
X168624656Y-116869853D01*
X168604000Y-116800726D01*
X168604000Y-116585900D01*
X175496396Y-116585900D01*
X175497086Y-116592465D01*
X175509992Y-116715255D01*
X175516358Y-116775828D01*
X175575373Y-116957456D01*
X175578676Y-116963178D01*
X175578677Y-116963179D01*
X175588738Y-116980605D01*
X175670860Y-117122844D01*
X175675278Y-117127751D01*
X175675279Y-117127752D01*
X175766764Y-117229356D01*
X175798647Y-117264766D01*
X175953148Y-117377018D01*
X175959176Y-117379702D01*
X175959178Y-117379703D01*
X176121581Y-117452009D01*
X176127612Y-117454694D01*
X176221012Y-117474547D01*
X176307956Y-117493028D01*
X176307961Y-117493028D01*
X176314413Y-117494400D01*
X176332152Y-117494400D01*
X176400273Y-117514402D01*
X176446766Y-117568058D01*
X176457439Y-117633789D01*
X176437251Y-117822695D01*
X176437548Y-117827848D01*
X176437548Y-117827851D01*
X176443202Y-117925908D01*
X176450110Y-118045715D01*
X176451247Y-118050761D01*
X176451248Y-118050767D01*
X176472165Y-118143579D01*
X176499222Y-118263639D01*
X176541247Y-118367135D01*
X176579510Y-118461365D01*
X176583266Y-118470616D01*
X176604848Y-118505835D01*
X176693809Y-118651006D01*
X176699987Y-118661088D01*
X176846250Y-118829938D01*
X176985638Y-118945660D01*
X177013559Y-118968840D01*
X177018126Y-118972632D01*
X177211000Y-119085338D01*
X177215825Y-119087180D01*
X177215826Y-119087181D01*
X177230143Y-119092648D01*
X177419692Y-119165030D01*
X177424760Y-119166061D01*
X177424763Y-119166062D01*
X177513836Y-119184184D01*
X177638597Y-119209567D01*
X177643772Y-119209757D01*
X177643774Y-119209757D01*
X177856673Y-119217564D01*
X177856677Y-119217564D01*
X177861837Y-119217753D01*
X177866957Y-119217097D01*
X177866959Y-119217097D01*
X178078288Y-119190025D01*
X178078289Y-119190025D01*
X178083416Y-119189368D01*
X178102315Y-119183698D01*
X178292429Y-119126661D01*
X178292434Y-119126659D01*
X178297384Y-119125174D01*
X178497994Y-119026896D01*
X178679860Y-118897173D01*
X178685679Y-118891375D01*
X178834435Y-118743137D01*
X178838096Y-118739489D01*
X178846953Y-118727164D01*
X178965435Y-118562277D01*
X178968453Y-118558077D01*
X178971245Y-118552429D01*
X179065136Y-118362453D01*
X179065137Y-118362451D01*
X179067430Y-118357811D01*
X179132370Y-118144069D01*
X179161529Y-117922590D01*
X179163156Y-117856000D01*
X179144852Y-117633361D01*
X179090431Y-117416702D01*
X179001354Y-117211840D01*
X178880014Y-117024277D01*
X178873687Y-117017323D01*
X178842631Y-116953481D01*
X178851022Y-116882981D01*
X178877780Y-116843424D01*
X179847349Y-115873855D01*
X179910250Y-115839703D01*
X179919833Y-115837666D01*
X179926288Y-115836294D01*
X180025557Y-115792097D01*
X180094722Y-115761303D01*
X180094724Y-115761302D01*
X180100752Y-115758618D01*
X180122458Y-115742848D01*
X180210650Y-115678772D01*
X180255253Y-115646366D01*
X180319015Y-115575551D01*
X180378621Y-115509352D01*
X180378622Y-115509351D01*
X180383040Y-115504444D01*
X180453376Y-115382619D01*
X180475223Y-115344779D01*
X180475224Y-115344778D01*
X180478527Y-115339056D01*
X180537542Y-115157428D01*
X180540131Y-115132800D01*
X180556814Y-114974065D01*
X180557504Y-114967500D01*
X180544655Y-114845251D01*
X180538232Y-114784135D01*
X180538232Y-114784133D01*
X180537542Y-114777572D01*
X180478527Y-114595944D01*
X180461166Y-114565873D01*
X180419319Y-114493393D01*
X180383040Y-114430556D01*
X180360147Y-114405130D01*
X180259675Y-114293545D01*
X180259674Y-114293544D01*
X180255253Y-114288634D01*
X180110962Y-114183800D01*
X180106094Y-114180263D01*
X180106093Y-114180262D01*
X180100752Y-114176382D01*
X180094724Y-114173698D01*
X180094722Y-114173697D01*
X179932319Y-114101391D01*
X179932318Y-114101391D01*
X179926288Y-114098706D01*
X179825271Y-114077234D01*
X179745944Y-114060372D01*
X179745939Y-114060372D01*
X179739487Y-114059000D01*
X179548513Y-114059000D01*
X179542061Y-114060372D01*
X179542056Y-114060372D01*
X179462729Y-114077234D01*
X179361712Y-114098706D01*
X179355682Y-114101391D01*
X179355681Y-114101391D01*
X179193278Y-114173697D01*
X179193276Y-114173698D01*
X179187248Y-114176382D01*
X179181907Y-114180262D01*
X179181906Y-114180263D01*
X179177038Y-114183800D01*
X179032747Y-114288634D01*
X178988951Y-114337275D01*
X178961385Y-114367890D01*
X178900940Y-114405130D01*
X178829956Y-114403778D01*
X178774557Y-114368381D01*
X178729670Y-114319051D01*
X178584561Y-114204450D01*
X178558414Y-114183800D01*
X178558410Y-114183798D01*
X178554359Y-114180598D01*
X178545063Y-114175466D01*
X178406011Y-114098706D01*
X178358789Y-114072638D01*
X178353920Y-114070914D01*
X178353916Y-114070912D01*
X178153087Y-113999795D01*
X178153083Y-113999794D01*
X178148212Y-113998069D01*
X178143119Y-113997162D01*
X178143116Y-113997161D01*
X177933373Y-113959800D01*
X177933367Y-113959799D01*
X177928284Y-113958894D01*
X177854452Y-113957992D01*
X177710081Y-113956228D01*
X177710079Y-113956228D01*
X177704911Y-113956165D01*
X177484091Y-113989955D01*
X177271756Y-114059357D01*
X177073607Y-114162507D01*
X177069474Y-114165610D01*
X177069471Y-114165612D01*
X176945568Y-114258641D01*
X176894965Y-114296635D01*
X176850073Y-114343612D01*
X176771949Y-114425364D01*
X176740629Y-114458138D01*
X176614743Y-114642680D01*
X176581272Y-114714788D01*
X176546496Y-114789707D01*
X176520688Y-114845305D01*
X176460989Y-115060570D01*
X176437251Y-115282695D01*
X176437548Y-115287848D01*
X176437548Y-115287851D01*
X176449261Y-115490991D01*
X176450110Y-115505715D01*
X176451248Y-115510763D01*
X176451248Y-115510766D01*
X176454163Y-115523699D01*
X176449627Y-115594550D01*
X176407506Y-115651702D01*
X176341173Y-115677008D01*
X176331246Y-115677400D01*
X176314413Y-115677400D01*
X176307961Y-115678772D01*
X176307956Y-115678772D01*
X176221013Y-115697253D01*
X176127612Y-115717106D01*
X176121582Y-115719791D01*
X176121581Y-115719791D01*
X175959178Y-115792097D01*
X175959176Y-115792098D01*
X175953148Y-115794782D01*
X175798647Y-115907034D01*
X175794226Y-115911944D01*
X175794225Y-115911945D01*
X175683665Y-116034735D01*
X175670860Y-116048956D01*
X175650529Y-116084171D01*
X175583319Y-116200582D01*
X175575373Y-116214344D01*
X175516358Y-116395972D01*
X175515668Y-116402533D01*
X175515668Y-116402535D01*
X175504595Y-116507888D01*
X175496396Y-116585900D01*
X168604000Y-116585900D01*
X168604000Y-116544763D01*
X168604527Y-116533579D01*
X168606201Y-116526091D01*
X168604062Y-116458032D01*
X168604000Y-116454075D01*
X168604000Y-116426144D01*
X168603494Y-116422138D01*
X168602561Y-116410292D01*
X168601422Y-116374037D01*
X168601173Y-116366110D01*
X168595522Y-116346658D01*
X168591514Y-116327306D01*
X168589968Y-116315068D01*
X168589967Y-116315066D01*
X168588974Y-116307203D01*
X168572694Y-116266086D01*
X168568859Y-116254885D01*
X168556518Y-116212406D01*
X168552485Y-116205587D01*
X168552483Y-116205582D01*
X168546207Y-116194971D01*
X168537510Y-116177221D01*
X168530052Y-116158383D01*
X168504071Y-116122623D01*
X168497553Y-116112701D01*
X168475042Y-116074636D01*
X168477644Y-116073097D01*
X168457336Y-116022573D01*
X168440032Y-115857934D01*
X168440031Y-115857931D01*
X168439342Y-115851372D01*
X168380327Y-115669744D01*
X168374136Y-115659020D01*
X168328186Y-115579434D01*
X168284840Y-115504356D01*
X168251369Y-115467182D01*
X168161475Y-115367345D01*
X168161474Y-115367344D01*
X168157053Y-115362434D01*
X168047302Y-115282695D01*
X168007894Y-115254063D01*
X168007893Y-115254062D01*
X168002552Y-115250182D01*
X167996524Y-115247498D01*
X167996522Y-115247497D01*
X167834119Y-115175191D01*
X167834118Y-115175191D01*
X167828088Y-115172506D01*
X167726276Y-115150865D01*
X167647744Y-115134172D01*
X167647739Y-115134172D01*
X167641287Y-115132800D01*
X167450313Y-115132800D01*
X167443861Y-115134172D01*
X167443856Y-115134172D01*
X167365324Y-115150865D01*
X167263512Y-115172506D01*
X167257482Y-115175191D01*
X167257481Y-115175191D01*
X167095078Y-115247497D01*
X167095076Y-115247498D01*
X167089048Y-115250182D01*
X167083707Y-115254062D01*
X167083706Y-115254063D01*
X167044298Y-115282695D01*
X166934547Y-115362434D01*
X166930126Y-115367344D01*
X166930125Y-115367345D01*
X166840232Y-115467182D01*
X166806760Y-115504356D01*
X166763414Y-115579434D01*
X166717465Y-115659020D01*
X166711273Y-115669744D01*
X166652258Y-115851372D01*
X166651568Y-115857933D01*
X166651568Y-115857935D01*
X166645119Y-115919292D01*
X166632296Y-116041300D01*
X166632986Y-116047865D01*
X166649563Y-116205582D01*
X166652258Y-116231228D01*
X166711273Y-116412856D01*
X166806760Y-116578244D01*
X166811178Y-116583151D01*
X166811179Y-116583152D01*
X166930125Y-116715255D01*
X166934547Y-116720166D01*
X167002126Y-116769265D01*
X167046868Y-116801772D01*
X167089048Y-116832418D01*
X167095076Y-116835102D01*
X167095078Y-116835103D01*
X167262249Y-116909532D01*
X167316345Y-116955512D01*
X167337000Y-117024639D01*
X167337000Y-117451706D01*
X167316998Y-117519827D01*
X167300095Y-117540801D01*
X163846600Y-120994295D01*
X163784288Y-121028321D01*
X163757505Y-121031200D01*
X163701613Y-121031200D01*
X163695161Y-121032572D01*
X163695156Y-121032572D01*
X163626838Y-121047094D01*
X163514812Y-121070906D01*
X163508782Y-121073591D01*
X163508781Y-121073591D01*
X163346378Y-121145897D01*
X163346376Y-121145898D01*
X163340348Y-121148582D01*
X163335007Y-121152462D01*
X163335006Y-121152463D01*
X163303563Y-121175308D01*
X163185847Y-121260834D01*
X163181426Y-121265744D01*
X163181425Y-121265745D01*
X163065261Y-121394759D01*
X163058060Y-121402756D01*
X163024753Y-121460446D01*
X162982458Y-121533703D01*
X162962573Y-121568144D01*
X162903558Y-121749772D01*
X162902868Y-121756333D01*
X162902868Y-121756335D01*
X162889056Y-121887748D01*
X162883596Y-121939700D01*
X158149404Y-121939700D01*
X153252622Y-117042917D01*
X153218596Y-116980605D01*
X153216407Y-116966992D01*
X153215201Y-116955512D01*
X153199042Y-116801772D01*
X153140027Y-116620144D01*
X153124047Y-116592465D01*
X153096506Y-116544763D01*
X153044540Y-116454756D01*
X153015174Y-116422141D01*
X152921175Y-116317745D01*
X152921174Y-116317744D01*
X152916753Y-116312834D01*
X152866584Y-116276384D01*
X152823231Y-116220163D01*
X152817156Y-116149427D01*
X152851551Y-116085354D01*
X155158006Y-113778899D01*
X155220318Y-113744873D01*
X155291133Y-113749938D01*
X155322665Y-113767167D01*
X155338319Y-113778899D01*
X155367295Y-113800615D01*
X155375704Y-113803767D01*
X155375705Y-113803768D01*
X155484451Y-113844535D01*
X155541216Y-113887176D01*
X155565916Y-113953738D01*
X155550709Y-114023087D01*
X155531316Y-114049568D01*
X155410130Y-114176382D01*
X155404629Y-114182138D01*
X155278743Y-114366680D01*
X155184688Y-114569305D01*
X155124989Y-114784570D01*
X155101251Y-115006695D01*
X155101548Y-115011848D01*
X155101548Y-115011851D01*
X155108145Y-115126259D01*
X155114110Y-115229715D01*
X155115247Y-115234761D01*
X155115248Y-115234767D01*
X155128486Y-115293505D01*
X155163222Y-115447639D01*
X155247266Y-115654616D01*
X155260388Y-115676029D01*
X155333160Y-115794782D01*
X155363987Y-115845088D01*
X155510250Y-116013938D01*
X155586846Y-116077529D01*
X155673448Y-116149427D01*
X155682126Y-116156632D01*
X155875000Y-116269338D01*
X156083692Y-116349030D01*
X156088760Y-116350061D01*
X156088763Y-116350062D01*
X156167642Y-116366110D01*
X156302597Y-116393567D01*
X156307772Y-116393757D01*
X156307774Y-116393757D01*
X156520673Y-116401564D01*
X156520677Y-116401564D01*
X156525837Y-116401753D01*
X156530957Y-116401097D01*
X156530959Y-116401097D01*
X156742288Y-116374025D01*
X156742289Y-116374025D01*
X156747416Y-116373368D01*
X156796997Y-116358493D01*
X156956429Y-116310661D01*
X156956434Y-116310659D01*
X156961384Y-116309174D01*
X157161994Y-116210896D01*
X157343860Y-116081173D01*
X157351965Y-116073097D01*
X157498435Y-115927137D01*
X157502096Y-115923489D01*
X157537762Y-115873855D01*
X157629435Y-115746277D01*
X157632453Y-115742077D01*
X157635494Y-115735925D01*
X157729136Y-115546453D01*
X157729137Y-115546451D01*
X157731430Y-115541811D01*
X157796370Y-115328069D01*
X157825529Y-115106590D01*
X157826578Y-115063665D01*
X157827074Y-115043365D01*
X157827074Y-115043361D01*
X157827156Y-115040000D01*
X157808852Y-114817361D01*
X157754431Y-114600702D01*
X157665354Y-114395840D01*
X157544014Y-114208277D01*
X157540532Y-114204450D01*
X157396798Y-114046488D01*
X157365746Y-113982642D01*
X157374141Y-113912143D01*
X157419317Y-113857375D01*
X157445761Y-113843706D01*
X157552297Y-113803767D01*
X157560705Y-113800615D01*
X157677261Y-113713261D01*
X157764615Y-113596705D01*
X157815745Y-113460316D01*
X157822500Y-113398134D01*
X157822500Y-112512925D01*
X180726645Y-112512925D01*
X180727204Y-112519065D01*
X180740279Y-112662733D01*
X180744570Y-112709888D01*
X180746308Y-112715794D01*
X180746309Y-112715798D01*
X180749812Y-112727700D01*
X180800410Y-112899619D01*
X180803263Y-112905077D01*
X180803265Y-112905081D01*
X180850720Y-112995853D01*
X180892040Y-113074890D01*
X181015968Y-113229025D01*
X181020692Y-113232989D01*
X181027933Y-113239065D01*
X181167474Y-113356154D01*
X181172872Y-113359121D01*
X181172877Y-113359125D01*
X181265276Y-113409921D01*
X181340787Y-113451433D01*
X181346654Y-113453294D01*
X181346656Y-113453295D01*
X181485220Y-113497250D01*
X181529306Y-113511235D01*
X181683227Y-113528500D01*
X181904777Y-113528500D01*
X181972898Y-113548502D01*
X182019391Y-113602158D01*
X182029495Y-113672432D01*
X182021766Y-113701292D01*
X182012470Y-113724534D01*
X182011356Y-113731262D01*
X182011355Y-113731266D01*
X181986385Y-113882099D01*
X181982892Y-113903198D01*
X181983249Y-113910015D01*
X181983249Y-113910019D01*
X181989047Y-114020635D01*
X181992370Y-114084047D01*
X181994181Y-114090620D01*
X181994181Y-114090623D01*
X182027784Y-114212617D01*
X182040461Y-114258641D01*
X182124922Y-114418836D01*
X182129327Y-114424049D01*
X182129330Y-114424053D01*
X182237406Y-114551943D01*
X182237410Y-114551947D01*
X182241813Y-114557157D01*
X182247237Y-114561304D01*
X182247238Y-114561305D01*
X182380257Y-114663006D01*
X182380261Y-114663009D01*
X182385678Y-114667150D01*
X182479916Y-114711094D01*
X182543631Y-114740805D01*
X182543634Y-114740806D01*
X182549808Y-114743685D01*
X182556456Y-114745171D01*
X182556459Y-114745172D01*
X182662421Y-114768857D01*
X182726543Y-114783190D01*
X182732088Y-114783500D01*
X182865244Y-114783500D01*
X183000037Y-114768857D01*
X183160699Y-114714788D01*
X183165204Y-114713272D01*
X183165206Y-114713271D01*
X183171675Y-114711094D01*
X183326905Y-114617823D01*
X183331862Y-114613135D01*
X183331865Y-114613133D01*
X183453527Y-114498082D01*
X183453529Y-114498080D01*
X183458485Y-114493393D01*
X183462317Y-114487755D01*
X183462320Y-114487751D01*
X183556442Y-114349255D01*
X183560277Y-114343612D01*
X183627530Y-114175466D01*
X183628644Y-114168738D01*
X183628645Y-114168734D01*
X183655993Y-114003539D01*
X183655993Y-114003536D01*
X183657108Y-113996802D01*
X183656750Y-113989955D01*
X183647987Y-113822766D01*
X183647630Y-113815953D01*
X183644274Y-113803767D01*
X183601352Y-113647941D01*
X183599539Y-113641359D01*
X183515078Y-113481164D01*
X183492628Y-113454598D01*
X183463937Y-113389657D01*
X183474910Y-113319514D01*
X183509232Y-113275628D01*
X183549282Y-113242964D01*
X183549286Y-113242960D01*
X183554062Y-113239065D01*
X183566344Y-113224219D01*
X183676201Y-113091425D01*
X183676203Y-113091421D01*
X183680130Y-113086675D01*
X183774198Y-112912701D01*
X183832682Y-112723768D01*
X183844975Y-112606806D01*
X183852711Y-112533204D01*
X183852711Y-112533202D01*
X183853355Y-112527075D01*
X183837799Y-112356144D01*
X183835989Y-112336251D01*
X183835988Y-112336248D01*
X183835430Y-112330112D01*
X183829651Y-112310474D01*
X183792574Y-112184499D01*
X183779590Y-112140381D01*
X183775013Y-112131625D01*
X183708163Y-112003755D01*
X183687960Y-111965110D01*
X183564032Y-111810975D01*
X183557727Y-111805684D01*
X183541334Y-111791929D01*
X183412526Y-111683846D01*
X183407128Y-111680879D01*
X183407123Y-111680875D01*
X183244608Y-111591533D01*
X183244609Y-111591533D01*
X183239213Y-111588567D01*
X183233346Y-111586706D01*
X183233344Y-111586705D01*
X183056564Y-111530627D01*
X183056563Y-111530627D01*
X183050694Y-111528765D01*
X182896773Y-111511500D01*
X181690231Y-111511500D01*
X181687175Y-111511800D01*
X181687168Y-111511800D01*
X181635750Y-111516842D01*
X181543167Y-111525920D01*
X181537266Y-111527702D01*
X181537264Y-111527702D01*
X181490308Y-111541879D01*
X181353831Y-111583084D01*
X181179204Y-111675934D01*
X181143067Y-111705407D01*
X181030713Y-111797040D01*
X181030710Y-111797043D01*
X181025938Y-111800935D01*
X181022011Y-111805682D01*
X181022009Y-111805684D01*
X180903799Y-111948575D01*
X180903797Y-111948579D01*
X180899870Y-111953325D01*
X180805802Y-112127299D01*
X180747318Y-112316232D01*
X180746674Y-112322357D01*
X180746674Y-112322358D01*
X180728833Y-112492112D01*
X180726645Y-112512925D01*
X157822500Y-112512925D01*
X157822500Y-111601866D01*
X157815745Y-111539684D01*
X157764615Y-111403295D01*
X157677261Y-111286739D01*
X157560705Y-111199385D01*
X157424316Y-111148255D01*
X157362134Y-111141500D01*
X155565866Y-111141500D01*
X155503684Y-111148255D01*
X155367295Y-111199385D01*
X155250739Y-111286739D01*
X155163385Y-111403295D01*
X155112255Y-111539684D01*
X155105500Y-111601866D01*
X155105500Y-111801880D01*
X155085498Y-111870001D01*
X155031842Y-111916494D01*
X155029065Y-111917575D01*
X155024368Y-111919785D01*
X155016825Y-111922236D01*
X155010129Y-111926486D01*
X155010128Y-111926486D01*
X155009869Y-111926650D01*
X154988742Y-111937415D01*
X154988454Y-111937529D01*
X154988449Y-111937532D01*
X154981083Y-111940448D01*
X154974675Y-111945104D01*
X154974669Y-111945107D01*
X154935648Y-111973458D01*
X154929111Y-111977901D01*
X154881682Y-112008000D01*
X154876256Y-112013778D01*
X154876255Y-112013779D01*
X154876041Y-112014007D01*
X154858254Y-112029688D01*
X154858009Y-112029866D01*
X154858007Y-112029868D01*
X154851593Y-112034528D01*
X154846539Y-112040637D01*
X154846538Y-112040638D01*
X154815797Y-112077796D01*
X154810566Y-112083730D01*
X154777542Y-112118898D01*
X154777540Y-112118901D01*
X154772114Y-112124679D01*
X154768145Y-112131899D01*
X154754819Y-112151506D01*
X154754620Y-112151746D01*
X154754616Y-112151753D01*
X154749567Y-112157856D01*
X154746193Y-112165027D01*
X154725653Y-112208676D01*
X154722071Y-112215708D01*
X154695005Y-112264940D01*
X154693035Y-112272615D01*
X154693032Y-112272621D01*
X154692956Y-112272919D01*
X154684924Y-112295228D01*
X154684794Y-112295503D01*
X154684791Y-112295511D01*
X154681417Y-112302682D01*
X154677664Y-112322358D01*
X154670895Y-112357843D01*
X154669171Y-112365558D01*
X154655200Y-112419970D01*
X154655200Y-112428207D01*
X154652968Y-112451816D01*
X154651425Y-112459905D01*
X154648831Y-112459410D01*
X154628976Y-112514081D01*
X154616554Y-112528542D01*
X149635700Y-117509395D01*
X149573388Y-117543421D01*
X149546605Y-117546300D01*
X149490713Y-117546300D01*
X149484261Y-117547672D01*
X149484256Y-117547672D01*
X149397313Y-117566153D01*
X149303912Y-117586006D01*
X149297882Y-117588691D01*
X149297881Y-117588691D01*
X149135478Y-117660997D01*
X149135476Y-117660998D01*
X149129448Y-117663682D01*
X149124107Y-117667562D01*
X149124106Y-117667563D01*
X149086571Y-117694834D01*
X148974947Y-117775934D01*
X148970526Y-117780844D01*
X148970525Y-117780845D01*
X148863058Y-117900200D01*
X148847160Y-117917856D01*
X148751673Y-118083244D01*
X148692658Y-118264872D01*
X148691968Y-118271433D01*
X148691968Y-118271435D01*
X148677000Y-118413850D01*
X148672696Y-118454800D01*
X147435134Y-118454800D01*
X147405474Y-118400483D01*
X147410539Y-118329668D01*
X147439500Y-118284605D01*
X150168947Y-115555157D01*
X150177237Y-115547613D01*
X150183718Y-115543500D01*
X150230359Y-115493832D01*
X150233113Y-115490991D01*
X150252834Y-115471270D01*
X150255312Y-115468075D01*
X150263018Y-115459053D01*
X150287858Y-115432601D01*
X150293286Y-115426821D01*
X150303046Y-115409068D01*
X150313899Y-115392545D01*
X150321453Y-115382806D01*
X150326313Y-115376541D01*
X150343876Y-115335957D01*
X150349083Y-115325327D01*
X150370395Y-115286560D01*
X150372366Y-115278883D01*
X150372368Y-115278878D01*
X150375432Y-115266942D01*
X150381838Y-115248230D01*
X150382156Y-115247497D01*
X150389881Y-115229645D01*
X150391121Y-115221817D01*
X150391123Y-115221810D01*
X150396799Y-115185976D01*
X150399205Y-115174356D01*
X150408228Y-115139211D01*
X150408228Y-115139210D01*
X150410200Y-115131530D01*
X150410200Y-115111276D01*
X150411751Y-115091565D01*
X150413680Y-115079386D01*
X150414920Y-115071557D01*
X150410759Y-115027538D01*
X150410200Y-115015681D01*
X150410200Y-113430224D01*
X150430202Y-113362103D01*
X150442558Y-113345921D01*
X150515740Y-113264644D01*
X150611227Y-113099256D01*
X150670242Y-112917628D01*
X150690204Y-112727700D01*
X150670242Y-112537772D01*
X150611227Y-112356144D01*
X150596198Y-112330112D01*
X150548103Y-112246811D01*
X150515740Y-112190756D01*
X150442563Y-112109485D01*
X150411847Y-112045479D01*
X150410200Y-112025176D01*
X150410200Y-109679733D01*
X163987822Y-109679733D01*
X163987975Y-109684121D01*
X163987975Y-109684127D01*
X163996138Y-109917864D01*
X163997625Y-109960458D01*
X163998387Y-109964781D01*
X163998388Y-109964788D01*
X164022164Y-110099624D01*
X164046402Y-110237087D01*
X164133203Y-110504235D01*
X164135131Y-110508188D01*
X164135133Y-110508193D01*
X164151181Y-110541095D01*
X164256340Y-110756702D01*
X164258795Y-110760341D01*
X164258798Y-110760347D01*
X164323514Y-110856292D01*
X164413415Y-110989576D01*
X164601371Y-111198322D01*
X164604733Y-111201143D01*
X164604734Y-111201144D01*
X164610437Y-111205929D01*
X164816550Y-111378879D01*
X165054764Y-111527731D01*
X165311375Y-111641982D01*
X165581390Y-111719407D01*
X165585740Y-111720018D01*
X165585743Y-111720019D01*
X165688690Y-111734487D01*
X165859552Y-111758500D01*
X166070146Y-111758500D01*
X166072332Y-111758347D01*
X166072336Y-111758347D01*
X166275827Y-111744118D01*
X166275832Y-111744117D01*
X166280212Y-111743811D01*
X166554970Y-111685409D01*
X166559099Y-111683906D01*
X166559103Y-111683905D01*
X166814781Y-111590846D01*
X166814785Y-111590844D01*
X166818926Y-111589337D01*
X167066942Y-111457464D01*
X167141500Y-111403295D01*
X167290629Y-111294947D01*
X167290632Y-111294944D01*
X167294192Y-111292358D01*
X167299677Y-111287062D01*
X167394947Y-111195060D01*
X167496252Y-111097231D01*
X167669188Y-110875882D01*
X167671384Y-110872078D01*
X167671389Y-110872071D01*
X167807435Y-110636431D01*
X167809636Y-110632619D01*
X167914862Y-110372176D01*
X167922542Y-110341372D01*
X167981753Y-110103893D01*
X167981754Y-110103888D01*
X167982817Y-110099624D01*
X167989372Y-110037263D01*
X168011719Y-109824636D01*
X168011719Y-109824633D01*
X168012178Y-109820267D01*
X168012025Y-109815873D01*
X168002529Y-109543939D01*
X168002528Y-109543933D01*
X168002375Y-109539542D01*
X167999566Y-109523608D01*
X167954360Y-109267236D01*
X167953598Y-109262913D01*
X167866797Y-108995765D01*
X167743660Y-108743298D01*
X167741205Y-108739659D01*
X167741202Y-108739653D01*
X167596916Y-108525741D01*
X167586585Y-108510424D01*
X167398629Y-108301678D01*
X167350599Y-108261376D01*
X167314424Y-108231021D01*
X167275098Y-108171912D01*
X167273972Y-108100924D01*
X167311403Y-108040596D01*
X167375508Y-108010083D01*
X167395416Y-108008500D01*
X167570146Y-108008500D01*
X167572332Y-108008347D01*
X167572336Y-108008347D01*
X167775827Y-107994118D01*
X167775832Y-107994117D01*
X167780212Y-107993811D01*
X168054970Y-107935409D01*
X168059099Y-107933906D01*
X168059103Y-107933905D01*
X168314781Y-107840846D01*
X168314785Y-107840844D01*
X168318926Y-107839337D01*
X168566942Y-107707464D01*
X168572536Y-107703400D01*
X168744951Y-107578134D01*
X176441500Y-107578134D01*
X176448255Y-107640316D01*
X176499385Y-107776705D01*
X176586739Y-107893261D01*
X176703295Y-107980615D01*
X176839684Y-108031745D01*
X176901866Y-108038500D01*
X178698134Y-108038500D01*
X178760316Y-108031745D01*
X178896705Y-107980615D01*
X179013261Y-107893261D01*
X179100615Y-107776705D01*
X179151745Y-107640316D01*
X179158500Y-107578134D01*
X179158500Y-105781866D01*
X179151745Y-105719684D01*
X179100615Y-105583295D01*
X179013261Y-105466739D01*
X178896705Y-105379385D01*
X178777687Y-105334767D01*
X178720923Y-105292125D01*
X178696223Y-105225564D01*
X178711430Y-105156215D01*
X178732977Y-105127535D01*
X178834052Y-105026812D01*
X178840730Y-105018965D01*
X178965003Y-104846020D01*
X178970313Y-104837183D01*
X179064670Y-104646267D01*
X179068469Y-104636672D01*
X179130377Y-104432910D01*
X179132555Y-104422837D01*
X179133986Y-104411962D01*
X179131775Y-104397778D01*
X179118617Y-104394000D01*
X176483225Y-104394000D01*
X176469694Y-104397973D01*
X176468257Y-104407966D01*
X176498565Y-104542446D01*
X176501645Y-104552275D01*
X176581770Y-104749603D01*
X176586413Y-104758794D01*
X176697694Y-104940388D01*
X176703777Y-104948699D01*
X176843213Y-105109667D01*
X176850577Y-105116879D01*
X176855522Y-105120985D01*
X176895156Y-105179889D01*
X176896653Y-105250870D01*
X176859537Y-105311392D01*
X176819264Y-105335910D01*
X176711705Y-105376232D01*
X176711704Y-105376233D01*
X176703295Y-105379385D01*
X176586739Y-105466739D01*
X176499385Y-105583295D01*
X176448255Y-105719684D01*
X176441500Y-105781866D01*
X176441500Y-107578134D01*
X168744951Y-107578134D01*
X168790629Y-107544947D01*
X168790632Y-107544944D01*
X168794192Y-107542358D01*
X168996252Y-107347231D01*
X169169188Y-107125882D01*
X169171384Y-107122078D01*
X169171389Y-107122071D01*
X169288628Y-106919006D01*
X169309636Y-106882619D01*
X169414862Y-106622176D01*
X169415928Y-106617901D01*
X169481753Y-106353893D01*
X169481754Y-106353888D01*
X169482817Y-106349624D01*
X169483341Y-106344644D01*
X169511719Y-106074636D01*
X169511719Y-106074633D01*
X169512178Y-106070267D01*
X169511557Y-106052472D01*
X169502529Y-105793939D01*
X169502528Y-105793933D01*
X169502375Y-105789542D01*
X169499330Y-105772270D01*
X169466008Y-105583295D01*
X169453598Y-105512913D01*
X169366797Y-105245765D01*
X169356945Y-105225564D01*
X169260006Y-105026812D01*
X169243660Y-104993298D01*
X169241205Y-104989659D01*
X169241202Y-104989653D01*
X169138359Y-104837183D01*
X169086585Y-104760424D01*
X168898629Y-104551678D01*
X168683450Y-104371121D01*
X168445236Y-104222269D01*
X168188625Y-104108018D01*
X167918610Y-104030593D01*
X167914260Y-104029982D01*
X167914257Y-104029981D01*
X167811310Y-104015513D01*
X167640448Y-103991500D01*
X167429854Y-103991500D01*
X167427668Y-103991653D01*
X167427664Y-103991653D01*
X167224173Y-104005882D01*
X167224168Y-104005883D01*
X167219788Y-104006189D01*
X166945030Y-104064591D01*
X166940901Y-104066094D01*
X166940897Y-104066095D01*
X166685219Y-104159154D01*
X166685215Y-104159156D01*
X166681074Y-104160663D01*
X166433058Y-104292536D01*
X166429499Y-104295122D01*
X166429497Y-104295123D01*
X166239849Y-104432910D01*
X166205808Y-104457642D01*
X166003748Y-104652769D01*
X165830812Y-104874118D01*
X165828616Y-104877922D01*
X165828611Y-104877929D01*
X165742654Y-105026812D01*
X165690364Y-105117381D01*
X165585138Y-105377824D01*
X165584073Y-105382097D01*
X165584072Y-105382099D01*
X165518761Y-105644048D01*
X165517183Y-105650376D01*
X165516724Y-105654744D01*
X165516723Y-105654749D01*
X165502556Y-105789542D01*
X165487822Y-105929733D01*
X165487975Y-105934121D01*
X165487975Y-105934127D01*
X165497040Y-106193698D01*
X165497625Y-106210458D01*
X165498387Y-106214781D01*
X165498388Y-106214788D01*
X165527911Y-106382217D01*
X165546402Y-106487087D01*
X165633203Y-106754235D01*
X165635131Y-106758188D01*
X165635133Y-106758193D01*
X165647843Y-106784252D01*
X165756340Y-107006702D01*
X165758795Y-107010341D01*
X165758798Y-107010347D01*
X165827746Y-107112566D01*
X165913415Y-107239576D01*
X166101371Y-107448322D01*
X166149401Y-107488624D01*
X166185576Y-107518979D01*
X166224902Y-107578088D01*
X166226028Y-107649076D01*
X166188597Y-107709404D01*
X166124492Y-107739917D01*
X166104584Y-107741500D01*
X165929854Y-107741500D01*
X165927668Y-107741653D01*
X165927664Y-107741653D01*
X165724173Y-107755882D01*
X165724168Y-107755883D01*
X165719788Y-107756189D01*
X165445030Y-107814591D01*
X165440901Y-107816094D01*
X165440897Y-107816095D01*
X165185219Y-107909154D01*
X165185215Y-107909156D01*
X165181074Y-107910663D01*
X164933058Y-108042536D01*
X164929499Y-108045122D01*
X164929497Y-108045123D01*
X164824895Y-108121121D01*
X164705808Y-108207642D01*
X164503748Y-108402769D01*
X164330812Y-108624118D01*
X164328616Y-108627922D01*
X164328611Y-108627929D01*
X164214848Y-108824974D01*
X164190364Y-108867381D01*
X164085138Y-109127824D01*
X164084073Y-109132097D01*
X164084072Y-109132099D01*
X164036381Y-109323379D01*
X164017183Y-109400376D01*
X164016724Y-109404744D01*
X164016723Y-109404749D01*
X163994849Y-109612873D01*
X163987822Y-109679733D01*
X150410200Y-109679733D01*
X150410200Y-108399094D01*
X150430202Y-108330973D01*
X150447105Y-108309999D01*
X151480699Y-107276405D01*
X151543011Y-107242379D01*
X151569794Y-107239500D01*
X151625687Y-107239500D01*
X151632139Y-107238128D01*
X151632144Y-107238128D01*
X151719087Y-107219647D01*
X151812488Y-107199794D01*
X151818519Y-107197109D01*
X151980922Y-107124803D01*
X151980924Y-107124802D01*
X151986952Y-107122118D01*
X152141453Y-107009866D01*
X152209962Y-106933779D01*
X152264821Y-106872852D01*
X152264822Y-106872851D01*
X152269240Y-106867944D01*
X152364727Y-106702556D01*
X152423742Y-106520928D01*
X152426218Y-106497375D01*
X152443014Y-106337565D01*
X152443704Y-106331000D01*
X152423742Y-106141072D01*
X152364727Y-105959444D01*
X152269240Y-105794056D01*
X152259319Y-105783037D01*
X152145875Y-105657045D01*
X152145874Y-105657044D01*
X152141453Y-105652134D01*
X152030623Y-105571611D01*
X151992294Y-105543763D01*
X151992293Y-105543762D01*
X151986952Y-105539882D01*
X151980924Y-105537198D01*
X151980922Y-105537197D01*
X151818519Y-105464891D01*
X151818518Y-105464891D01*
X151812488Y-105462206D01*
X151719087Y-105442353D01*
X151632144Y-105423872D01*
X151632139Y-105423872D01*
X151625687Y-105422500D01*
X151434713Y-105422500D01*
X151428261Y-105423872D01*
X151428256Y-105423872D01*
X151341312Y-105442353D01*
X151247912Y-105462206D01*
X151241882Y-105464891D01*
X151241881Y-105464891D01*
X151079478Y-105537197D01*
X151079476Y-105537198D01*
X151073448Y-105539882D01*
X151068107Y-105543762D01*
X151068106Y-105543763D01*
X151029777Y-105571611D01*
X150918947Y-105652134D01*
X150914526Y-105657044D01*
X150914525Y-105657045D01*
X150801082Y-105783037D01*
X150791160Y-105794056D01*
X150695673Y-105959444D01*
X150636658Y-106141072D01*
X150635968Y-106147633D01*
X150635968Y-106147635D01*
X150619293Y-106306292D01*
X150592280Y-106371949D01*
X150583078Y-106382217D01*
X149384447Y-107580848D01*
X149376161Y-107588388D01*
X149369682Y-107592500D01*
X149364257Y-107598277D01*
X149323057Y-107642151D01*
X149320302Y-107644993D01*
X149300565Y-107664730D01*
X149298085Y-107667927D01*
X149290382Y-107676947D01*
X149260114Y-107709179D01*
X149256295Y-107716125D01*
X149256293Y-107716128D01*
X149250352Y-107726934D01*
X149239501Y-107743453D01*
X149227086Y-107759459D01*
X149223941Y-107766728D01*
X149223938Y-107766732D01*
X149209526Y-107800037D01*
X149204309Y-107810687D01*
X149183005Y-107849440D01*
X149181034Y-107857115D01*
X149181034Y-107857116D01*
X149179306Y-107863846D01*
X149178237Y-107868012D01*
X149177967Y-107869062D01*
X149171563Y-107887766D01*
X149163519Y-107906355D01*
X149162280Y-107914178D01*
X149162277Y-107914188D01*
X149156601Y-107950024D01*
X149154195Y-107961644D01*
X149148515Y-107983767D01*
X149143200Y-108004470D01*
X149143200Y-108024724D01*
X149141649Y-108044434D01*
X149138480Y-108064443D01*
X149141929Y-108100924D01*
X149142641Y-108108461D01*
X149143200Y-108120319D01*
X149143200Y-112025176D01*
X149123198Y-112093297D01*
X149110842Y-112109479D01*
X149037660Y-112190756D01*
X149005297Y-112246811D01*
X148957203Y-112330112D01*
X148942173Y-112356144D01*
X148883158Y-112537772D01*
X148863196Y-112727700D01*
X148883158Y-112917628D01*
X148942173Y-113099256D01*
X149037660Y-113264644D01*
X149110837Y-113345915D01*
X149141553Y-113409921D01*
X149143200Y-113430224D01*
X149143200Y-114736905D01*
X149123198Y-114805026D01*
X149106295Y-114826000D01*
X146504000Y-117428295D01*
X146441688Y-117462321D01*
X146414905Y-117465200D01*
X146359013Y-117465200D01*
X146352561Y-117466572D01*
X146352556Y-117466572D01*
X146265613Y-117485053D01*
X146172212Y-117504906D01*
X146166182Y-117507591D01*
X146166181Y-117507591D01*
X146003778Y-117579897D01*
X146003776Y-117579898D01*
X145997748Y-117582582D01*
X145992407Y-117586462D01*
X145992406Y-117586463D01*
X145972990Y-117600570D01*
X145843247Y-117694834D01*
X145838826Y-117699744D01*
X145838825Y-117699745D01*
X145728121Y-117822695D01*
X145715460Y-117836756D01*
X145668637Y-117917856D01*
X145623867Y-117995400D01*
X145619973Y-118002144D01*
X145560958Y-118183772D01*
X145560268Y-118190333D01*
X145560268Y-118190335D01*
X145549002Y-118297526D01*
X145540996Y-118373700D01*
X139796434Y-118373700D01*
X139797023Y-118372679D01*
X139797024Y-118372678D01*
X139800327Y-118366956D01*
X139859342Y-118185328D01*
X139860166Y-118177494D01*
X139878614Y-118001965D01*
X139879304Y-117995400D01*
X139871755Y-117923574D01*
X139860032Y-117812035D01*
X139860032Y-117812033D01*
X139859342Y-117805472D01*
X139800327Y-117623844D01*
X139704840Y-117458456D01*
X139662970Y-117411954D01*
X139581475Y-117321445D01*
X139581474Y-117321444D01*
X139577053Y-117316534D01*
X139450308Y-117224448D01*
X139427894Y-117208163D01*
X139427893Y-117208162D01*
X139422552Y-117204282D01*
X139416526Y-117201599D01*
X139416519Y-117201595D01*
X139327001Y-117161740D01*
X139272905Y-117115760D01*
X139252255Y-117047833D01*
X139271607Y-116979525D01*
X139304186Y-116944699D01*
X139309204Y-116941053D01*
X139309208Y-116941049D01*
X139314553Y-116937166D01*
X139322432Y-116928416D01*
X139437921Y-116800152D01*
X139437922Y-116800151D01*
X139442340Y-116795244D01*
X139537827Y-116629856D01*
X139596842Y-116448228D01*
X139598094Y-116436322D01*
X139616114Y-116264865D01*
X139616804Y-116258300D01*
X139616114Y-116251735D01*
X139597532Y-116074935D01*
X139597532Y-116074933D01*
X139596842Y-116068372D01*
X139537827Y-115886744D01*
X139516779Y-115850287D01*
X139463853Y-115758618D01*
X139442340Y-115721356D01*
X139401528Y-115676029D01*
X139318975Y-115584345D01*
X139318974Y-115584344D01*
X139314553Y-115579434D01*
X139160052Y-115467182D01*
X139154024Y-115464498D01*
X139154022Y-115464497D01*
X138991619Y-115392191D01*
X138991618Y-115392191D01*
X138985588Y-115389506D01*
X138890362Y-115369265D01*
X138805244Y-115351172D01*
X138805239Y-115351172D01*
X138798787Y-115349800D01*
X138607813Y-115349800D01*
X138601361Y-115351172D01*
X138601356Y-115351172D01*
X138516238Y-115369265D01*
X138421012Y-115389506D01*
X138414982Y-115392191D01*
X138414981Y-115392191D01*
X138252578Y-115464497D01*
X138252576Y-115464498D01*
X138246548Y-115467182D01*
X138241207Y-115471062D01*
X138241206Y-115471063D01*
X138151561Y-115536194D01*
X138084693Y-115560053D01*
X138015542Y-115543972D01*
X137966061Y-115493058D01*
X137951500Y-115434258D01*
X137951500Y-112037768D01*
X137952027Y-112026585D01*
X137953702Y-112019092D01*
X137953354Y-112008000D01*
X137951562Y-111951002D01*
X137951500Y-111947044D01*
X137951500Y-111919144D01*
X137950996Y-111915153D01*
X137950063Y-111903311D01*
X137948923Y-111867036D01*
X137948674Y-111859111D01*
X137946461Y-111851493D01*
X137943021Y-111839652D01*
X137939012Y-111820293D01*
X137938442Y-111815781D01*
X137936474Y-111800203D01*
X137933558Y-111792837D01*
X137933556Y-111792831D01*
X137920200Y-111759098D01*
X137916355Y-111747868D01*
X137906230Y-111713017D01*
X137906230Y-111713016D01*
X137904019Y-111705407D01*
X137893705Y-111687966D01*
X137885008Y-111670213D01*
X137880472Y-111658758D01*
X137877552Y-111651383D01*
X137851563Y-111615612D01*
X137845047Y-111605692D01*
X137844805Y-111605283D01*
X137822542Y-111567638D01*
X137808221Y-111553317D01*
X137795380Y-111538283D01*
X137791022Y-111532285D01*
X137783472Y-111521893D01*
X137749395Y-111493702D01*
X137740616Y-111485712D01*
X134929410Y-108674505D01*
X134895384Y-108612193D01*
X134900449Y-108541377D01*
X134902930Y-108535954D01*
X134904615Y-108533705D01*
X134914570Y-108507152D01*
X134952971Y-108404715D01*
X134955745Y-108397316D01*
X134962500Y-108335134D01*
X134962500Y-107001900D01*
X134982502Y-106933779D01*
X135036158Y-106887286D01*
X135088500Y-106875900D01*
X137441900Y-106875900D01*
X137510021Y-106895902D01*
X137529247Y-106912243D01*
X137529520Y-106911940D01*
X137534432Y-106916363D01*
X137538847Y-106921266D01*
X137556070Y-106933779D01*
X137654035Y-107004955D01*
X137693348Y-107033518D01*
X137699376Y-107036202D01*
X137699378Y-107036203D01*
X137861781Y-107108509D01*
X137867812Y-107111194D01*
X137953215Y-107129347D01*
X138048156Y-107149528D01*
X138048161Y-107149528D01*
X138054613Y-107150900D01*
X138245587Y-107150900D01*
X138252039Y-107149528D01*
X138252044Y-107149528D01*
X138346985Y-107129347D01*
X138432388Y-107111194D01*
X138438419Y-107108509D01*
X138600822Y-107036203D01*
X138600824Y-107036202D01*
X138606852Y-107033518D01*
X138646166Y-107004955D01*
X138690163Y-106972989D01*
X138761353Y-106921266D01*
X138889140Y-106779344D01*
X138984627Y-106613956D01*
X139043642Y-106432328D01*
X139047524Y-106395399D01*
X139062914Y-106248965D01*
X139063604Y-106242400D01*
X139050594Y-106118617D01*
X139044332Y-106059035D01*
X139044332Y-106059033D01*
X139043642Y-106052472D01*
X138984627Y-105870844D01*
X138889140Y-105705456D01*
X138872982Y-105687510D01*
X138765775Y-105568445D01*
X138765774Y-105568444D01*
X138761353Y-105563534D01*
X138621888Y-105462206D01*
X138612194Y-105455163D01*
X138612193Y-105455162D01*
X138606852Y-105451282D01*
X138600824Y-105448598D01*
X138600822Y-105448597D01*
X138438419Y-105376291D01*
X138438418Y-105376291D01*
X138432388Y-105373606D01*
X138338987Y-105353753D01*
X138252044Y-105335272D01*
X138252039Y-105335272D01*
X138245587Y-105333900D01*
X138054613Y-105333900D01*
X138048161Y-105335272D01*
X138048156Y-105335272D01*
X137961212Y-105353753D01*
X137867812Y-105373606D01*
X137861782Y-105376291D01*
X137861781Y-105376291D01*
X137699378Y-105448597D01*
X137699376Y-105448598D01*
X137693348Y-105451282D01*
X137688007Y-105455162D01*
X137688006Y-105455163D01*
X137602570Y-105517236D01*
X137538847Y-105563534D01*
X137534432Y-105568437D01*
X137529520Y-105572860D01*
X137528395Y-105571611D01*
X137475086Y-105604451D01*
X137441900Y-105608900D01*
X132684663Y-105608900D01*
X132673479Y-105608373D01*
X132665991Y-105606699D01*
X132658068Y-105606948D01*
X132597933Y-105608838D01*
X132593975Y-105608900D01*
X132566044Y-105608900D01*
X132562129Y-105609395D01*
X132562125Y-105609395D01*
X132562067Y-105609403D01*
X132562038Y-105609406D01*
X132550196Y-105610339D01*
X132506010Y-105611727D01*
X132488644Y-105616772D01*
X132486558Y-105617378D01*
X132467206Y-105621386D01*
X132454968Y-105622932D01*
X132454966Y-105622933D01*
X132447103Y-105623926D01*
X132405986Y-105640206D01*
X132394785Y-105644041D01*
X132352306Y-105656382D01*
X132345487Y-105660415D01*
X132345482Y-105660417D01*
X132334871Y-105666693D01*
X132317121Y-105675390D01*
X132298283Y-105682848D01*
X132291867Y-105687509D01*
X132291866Y-105687510D01*
X132262525Y-105708828D01*
X132252601Y-105715347D01*
X132221360Y-105733822D01*
X132221355Y-105733826D01*
X132214537Y-105737858D01*
X132200213Y-105752182D01*
X132185181Y-105765021D01*
X132168793Y-105776928D01*
X132149893Y-105799774D01*
X132140612Y-105810993D01*
X132132622Y-105819773D01*
X131988547Y-105963848D01*
X131980261Y-105971388D01*
X131973782Y-105975500D01*
X131968357Y-105981277D01*
X131927157Y-106025151D01*
X131924402Y-106027993D01*
X131904665Y-106047730D01*
X131902185Y-106050927D01*
X131894482Y-106059947D01*
X131864214Y-106092179D01*
X131860395Y-106099125D01*
X131860393Y-106099128D01*
X131854452Y-106109934D01*
X131843601Y-106126453D01*
X131831186Y-106142459D01*
X131828041Y-106149728D01*
X131828038Y-106149732D01*
X131813626Y-106183037D01*
X131808409Y-106193687D01*
X131787105Y-106232440D01*
X131785134Y-106240115D01*
X131785134Y-106240116D01*
X131782067Y-106252062D01*
X131775663Y-106270766D01*
X131767619Y-106289355D01*
X131766380Y-106297178D01*
X131766377Y-106297188D01*
X131760701Y-106333024D01*
X131758295Y-106344644D01*
X131751285Y-106371949D01*
X131747300Y-106387470D01*
X131747300Y-106407724D01*
X131745749Y-106427434D01*
X131742580Y-106447443D01*
X131746328Y-106487087D01*
X131746741Y-106491461D01*
X131747300Y-106503319D01*
X131747300Y-111521576D01*
X131727298Y-111589697D01*
X131714942Y-111605879D01*
X131641760Y-111687156D01*
X131600224Y-111759098D01*
X131572562Y-111807011D01*
X131546273Y-111852544D01*
X131487258Y-112034172D01*
X131486568Y-112040733D01*
X131486568Y-112040735D01*
X131476851Y-112133186D01*
X131467296Y-112224100D01*
X100508500Y-112224100D01*
X100508500Y-110620181D01*
X100528502Y-110552060D01*
X100582158Y-110505567D01*
X100630706Y-110494238D01*
X100630822Y-110494235D01*
X100632871Y-110494173D01*
X100632884Y-110494172D01*
X100634777Y-110494115D01*
X101267238Y-110436642D01*
X101269091Y-110436360D01*
X101269099Y-110436359D01*
X101893202Y-110341372D01*
X101893200Y-110341372D01*
X101895075Y-110341087D01*
X102515996Y-110207799D01*
X103127738Y-110037263D01*
X103129542Y-110036641D01*
X103129550Y-110036638D01*
X103726265Y-109830725D01*
X103726280Y-109830719D01*
X103728066Y-109830103D01*
X103729808Y-109829382D01*
X103729825Y-109829375D01*
X104262395Y-109608776D01*
X104314791Y-109587073D01*
X104316504Y-109586239D01*
X104316515Y-109586234D01*
X104884061Y-109309894D01*
X104885772Y-109309061D01*
X105438926Y-108997082D01*
X105440506Y-108996060D01*
X105440515Y-108996055D01*
X105970633Y-108653308D01*
X105970645Y-108653300D01*
X105972233Y-108652273D01*
X105973758Y-108651151D01*
X105973768Y-108651144D01*
X106482207Y-108277027D01*
X106482209Y-108277025D01*
X106483748Y-108275893D01*
X106608516Y-108171912D01*
X106970144Y-107870533D01*
X106970152Y-107870526D01*
X106971605Y-107869315D01*
X107434023Y-107434023D01*
X107869315Y-106971605D01*
X107908032Y-106925149D01*
X108274672Y-106485213D01*
X108275893Y-106483748D01*
X108302607Y-106447443D01*
X108651144Y-105973768D01*
X108651151Y-105973758D01*
X108652273Y-105972233D01*
X108653300Y-105970645D01*
X108653308Y-105970633D01*
X108996055Y-105440515D01*
X108996060Y-105440506D01*
X108997082Y-105438926D01*
X109309061Y-104885772D01*
X109425677Y-104646267D01*
X109586234Y-104316515D01*
X109586239Y-104316504D01*
X109587073Y-104314791D01*
X109672721Y-104108018D01*
X109769579Y-103874183D01*
X176464389Y-103874183D01*
X176465912Y-103882607D01*
X176478292Y-103886000D01*
X177527885Y-103886000D01*
X177543124Y-103881525D01*
X177544329Y-103880135D01*
X177546000Y-103872452D01*
X177546000Y-103867885D01*
X178054000Y-103867885D01*
X178058475Y-103883124D01*
X178059865Y-103884329D01*
X178067548Y-103886000D01*
X179118344Y-103886000D01*
X179131875Y-103882027D01*
X179133180Y-103872947D01*
X179091214Y-103705875D01*
X179087894Y-103696124D01*
X179002972Y-103500814D01*
X178998105Y-103491739D01*
X178882426Y-103312926D01*
X178876136Y-103304757D01*
X178732806Y-103147240D01*
X178725273Y-103140215D01*
X178558139Y-103008222D01*
X178549552Y-103002517D01*
X178363117Y-102899599D01*
X178353705Y-102895369D01*
X178152959Y-102824280D01*
X178142988Y-102821646D01*
X178071837Y-102808972D01*
X178058540Y-102810432D01*
X178054000Y-102824989D01*
X178054000Y-103867885D01*
X177546000Y-103867885D01*
X177546000Y-102823102D01*
X177542082Y-102809758D01*
X177527806Y-102807771D01*
X177489324Y-102813660D01*
X177479288Y-102816051D01*
X177276868Y-102882212D01*
X177267359Y-102886209D01*
X177078463Y-102984542D01*
X177069738Y-102990036D01*
X176899433Y-103117905D01*
X176891726Y-103124748D01*
X176744590Y-103278717D01*
X176738104Y-103286727D01*
X176618098Y-103462649D01*
X176613000Y-103471623D01*
X176523338Y-103664783D01*
X176519775Y-103674470D01*
X176464389Y-103874183D01*
X109769579Y-103874183D01*
X109829375Y-103729825D01*
X109829382Y-103729808D01*
X109830103Y-103728066D01*
X109830719Y-103726280D01*
X109830725Y-103726265D01*
X110036638Y-103129550D01*
X110036641Y-103129542D01*
X110037263Y-103127738D01*
X110207799Y-102515996D01*
X110341087Y-101895075D01*
X110436642Y-101267238D01*
X110494115Y-100634777D01*
X110494238Y-100630706D01*
X110516282Y-100563218D01*
X110571314Y-100518362D01*
X110620181Y-100508500D01*
X179379819Y-100508500D01*
X179447940Y-100528502D01*
G37*
G04 #@! TD.AperFunction*
M02*
