M48
; DRILL file {KiCad 7.0.11+dfsg-1build4} date dom 21 sep 2025 21:37:08
; FORMAT={-:-/ absolute / metric / decimal}
; #@! TF.CreationDate,2025-09-21T21:37:08-05:00
; #@! TF.GenerationSoftware,Kicad,Pcbnew,7.0.11+dfsg-1build4
; #@! TF.FileFunction,Plated,1,2,PTH
FMAT,2
METRIC
; #@! TA.AperFunction,Plated,PTH,ViaDrill
T1C0.400
; #@! TA.AperFunction,Plated,PTH,ComponentDrill
T2C0.500
; #@! TA.AperFunction,Plated,PTH,ComponentDrill
T3C0.600
; #@! TA.AperFunction,Plated,PTH,ComponentDrill
T4C1.000
; #@! TA.AperFunction,Plated,PTH,ComponentDrill
T5C1.200
%
G90
G05
T1
X124.46Y-116.84
X127.0Y-119.597
X128.964Y-114.516
X142.082Y-120.834
T2
X186.69Y-139.7
X186.69Y-143.51
T4
X133.604Y-107.437
X133.604Y-109.977
X156.464Y-112.5
X156.464Y-115.04
X177.292Y-121.92
X177.292Y-124.46
X177.8Y-104.14
X177.8Y-106.68
X177.8Y-115.316
X177.8Y-117.856
T5
X130.0Y-153.3
X133.5Y-153.3
X153.0Y-153.3
X156.5Y-153.3
X173.7Y-153.3
X177.2Y-153.3
T3
G00X181.72Y-112.53
M15
G01X182.82Y-112.53
M16
G05
G00X181.72Y-121.17
M15
G01X182.82Y-121.17
M16
G05
G00X186.15Y-112.53
M15
G01X186.75Y-112.53
M16
G05
G00X186.15Y-121.17
M15
G01X186.75Y-121.17
M16
G05
M30
