<?xml version="1.0" standalone="no"?>
 <!DOCTYPE svg PUBLIC "-//W3C//DTD SVG 1.1//EN" 
 "http://www.w3.org/Graphics/SVG/1.1/DTD/svg11.dtd"> 
<svg
  xmlns:svg="http://www.w3.org/2000/svg"
  xmlns="http://www.w3.org/2000/svg"
  xmlns:xlink="http://www.w3.org/1999/xlink"
  version="1.1"
  width="29.700220cm" height="21.000720cm" viewBox="0 0 297002200 210007200">
<title>SVG Picture created as lir-multi-charger-F_Mask.svg date 2023/10/02 20:56:18 </title>
  <desc>Picture generated by PCBNEW </desc>
<g style="fill:#000000; fill-opacity:1.000000;stroke:#000000; stroke-opacity:1.000000;
stroke-linecap:round; stroke-linejoin:round;"
 transform="translate(0 0) scale(1 1)">
</g>
<g style="fill:#000000; fill-opacity:0.0; 
stroke:#000000; stroke-width:0.000000; stroke-opacity:1; 
stroke-linecap:round; stroke-linejoin:round;">
</g>
<g style="fill:#000000; fill-opacity:0.0; 
stroke:#000000; stroke-width:50000.000000; stroke-opacity:1; 
stroke-linecap:round; stroke-linejoin:round;">
<path d="M180000000.000000 100000000.000000 A10000000.000000 10000000.000000 0.0 0 0 190000000.000000 110000000.000000" />
<path d="M110000000 100000000
L180000000 100000000
" />
<path d="M190000000.000000 148000000.000000 A10000000.000000 10000000.000000 0.0 0 0 180000000.000000 158000000.000000" />
<path d="M110000000 158000000
L180000000 158000000
" />
<path d="M100000000 110000000
L100000000 148000000
" />
<path d="M100000000.000000 110000000.000000 A10000000.000000 10000000.000000 0.0 0 0 110000000.000000 100000000.000000" />
<path d="M190000000 110000000
L190000000 148000000
" />
<path d="M110000000.000000 158000000.000000 A10000000.000000 10000000.000000 0.0 0 0 100000000.000000 148000000.000000" />
<path d="M180000000.000000 100000000.000000 A10000000.000000 10000000.000000 0.0 0 0 190000000.000000 110000000.000000" />
<path d="M110000000 100000000
L180000000 100000000
" />
<path d="M190000000.000000 148000000.000000 A10000000.000000 10000000.000000 0.0 0 0 180000000.000000 158000000.000000" />
<path d="M110000000 158000000
L180000000 158000000
" />
<path d="M100000000 110000000
L100000000 148000000
" />
<path d="M100000000.000000 110000000.000000 A10000000.000000 10000000.000000 0.0 0 0 110000000.000000 100000000.000000" />
<path d="M190000000 110000000
L190000000 148000000
" />
<path d="M110000000.000000 158000000.000000 A10000000.000000 10000000.000000 0.0 0 0 100000000.000000 148000000.000000" />
<g >
</g>
<g style="fill:#000000; fill-opacity:1.0; 
stroke:#000000; stroke-width:1.000000; stroke-opacity:1; 
stroke-linecap:round; stroke-linejoin:round;">
<circle cx="105000000.000000" cy="129000000.000000" r="1551000.000000" /> 
</g>
<g style="fill:#000000; fill-opacity:1.0; 
stroke:#000000; stroke-width:21200.000000; stroke-opacity:1; 
stroke-linecap:round; stroke-linejoin:round;">
</g>
<g >
</g>
<g style="fill:#000000; fill-opacity:1.0; 
stroke:#000000; stroke-width:21200.000000; stroke-opacity:1; 
stroke-linecap:round; stroke-linejoin:round;">
</g>
<g style="fill:#000000; fill-opacity:1.0; 
stroke:#000000; stroke-width:1.000000; stroke-opacity:1; 
stroke-linecap:round; stroke-linejoin:round;">
<circle cx="122500000.000000" cy="152000000.000000" r="1551000.000000" /> 
</g>
<g style="fill:#000000; fill-opacity:1.0; 
stroke:#000000; stroke-width:21200.000000; stroke-opacity:1; 
stroke-linecap:round; stroke-linejoin:round;">
</g>
<g >
</g>
<g style="fill:#000000; fill-opacity:1.0; 
stroke:#000000; stroke-width:21200.000000; stroke-opacity:1; 
stroke-linecap:round; stroke-linejoin:round;">
</g>
<g style="fill:#000000; fill-opacity:1.0; 
stroke:#000000; stroke-width:1.000000; stroke-opacity:1; 
stroke-linecap:round; stroke-linejoin:round;">
<circle cx="185000000.000000" cy="129000000.000000" r="1551000.000000" /> 
</g>
<g style="fill:#000000; fill-opacity:1.0; 
stroke:#000000; stroke-width:21200.000000; stroke-opacity:1; 
stroke-linecap:round; stroke-linejoin:round;">
</g>
<g >
</g>
<g >
</g>
<g style="fill:#000000; fill-opacity:1.0; 
stroke:#000000; stroke-width:21200.000000; stroke-opacity:1; 
stroke-linecap:round; stroke-linejoin:round;">
</g>
<g style="fill:#000000; fill-opacity:1.0; 
stroke:#000000; stroke-width:1.000000; stroke-opacity:1; 
stroke-linecap:round; stroke-linejoin:round;">
<circle cx="167500000.000000" cy="152000000.000000" r="1551000.000000" /> 
</g>
<g style="fill:#000000; fill-opacity:1.0; 
stroke:#000000; stroke-width:21200.000000; stroke-opacity:1; 
stroke-linecap:round; stroke-linejoin:round;">
</g>
<g >
</g>
<g style="fill:#000000; fill-opacity:1.0; 
stroke:#000000; stroke-width:21200.000000; stroke-opacity:1; 
stroke-linecap:round; stroke-linejoin:round;">
</g>
<g style="fill:#000000; fill-opacity:1.0; 
stroke:#000000; stroke-width:1.000000; stroke-opacity:1; 
stroke-linecap:round; stroke-linejoin:round;">
<circle cx="174500000.000000" cy="128310000.000000" r="1050490.000000" /> 
</g>
<g style="fill:#000000; fill-opacity:1.0; 
stroke:#000000; stroke-width:21200.000000; stroke-opacity:1; 
stroke-linecap:round; stroke-linejoin:round;">
</g>
<g >
</g>
<g style="fill:#000000; fill-opacity:1.0; 
stroke:#000000; stroke-width:21200.000000; stroke-opacity:1; 
stroke-linecap:round; stroke-linejoin:round;">
</g>
<g style="fill:#000000; fill-opacity:1.0; 
stroke:#000000; stroke-width:1.000000; stroke-opacity:1; 
stroke-linecap:round; stroke-linejoin:round;">
<circle cx="174500000.000000" cy="130850000.000000" r="1050490.000000" /> 
</g>
<g style="fill:#000000; fill-opacity:1.0; 
stroke:#000000; stroke-width:21200.000000; stroke-opacity:1; 
stroke-linecap:round; stroke-linejoin:round;">
</g>
<g >
</g>
<g style="fill:#000000; fill-opacity:1.0; 
stroke:#000000; stroke-width:21200.000000; stroke-opacity:1; 
stroke-linecap:round; stroke-linejoin:round;">
</g>
<g style="fill:#000000; fill-opacity:1.0; 
stroke:#000000; stroke-width:1.000000; stroke-opacity:1; 
stroke-linecap:round; stroke-linejoin:round;">
<circle cx="167500000.000000" cy="106000000.000000" r="1551000.000000" /> 
</g>
<g style="fill:#000000; fill-opacity:1.0; 
stroke:#000000; stroke-width:21200.000000; stroke-opacity:1; 
stroke-linecap:round; stroke-linejoin:round;">
</g>
<g >
</g>
<g style="fill:#000000; fill-opacity:1.0; 
stroke:#000000; stroke-width:21200.000000; stroke-opacity:1; 
stroke-linecap:round; stroke-linejoin:round;">
</g>
<g style="fill:#000000; fill-opacity:1.0; 
stroke:#000000; stroke-width:1.000000; stroke-opacity:1; 
stroke-linecap:round; stroke-linejoin:round;">
<circle cx="105500000.000000" cy="114500000.000000" r="1551000.000000" /> 
</g>
<g style="fill:#000000; fill-opacity:1.0; 
stroke:#000000; stroke-width:21200.000000; stroke-opacity:1; 
stroke-linecap:round; stroke-linejoin:round;">
</g>
<g >
</g>
<g style="fill:#000000; fill-opacity:1.0; 
stroke:#000000; stroke-width:21200.000000; stroke-opacity:1; 
stroke-linecap:round; stroke-linejoin:round;">
</g>
<g style="fill:#000000; fill-opacity:1.0; 
stroke:#000000; stroke-width:1.000000; stroke-opacity:1; 
stroke-linecap:round; stroke-linejoin:round;">
<circle cx="166000000.000000" cy="109750000.000000" r="1551000.000000" /> 
</g>
<g style="fill:#000000; fill-opacity:1.0; 
stroke:#000000; stroke-width:21200.000000; stroke-opacity:1; 
stroke-linecap:round; stroke-linejoin:round;">
</g>
<g >
</g>
<g style="fill:#000000; fill-opacity:1.0; 
stroke:#000000; stroke-width:21200.000000; stroke-opacity:1; 
stroke-linecap:round; stroke-linejoin:round;">
</g>
<g style="fill:#000000; fill-opacity:1.0; 
stroke:#000000; stroke-width:1.000000; stroke-opacity:1; 
stroke-linecap:round; stroke-linejoin:round;">
<path style="fill:#000000; fill-opacity:1.0; 
stroke:#000000; stroke-width:1.000000; stroke-opacity:1; 
stroke-linecap:round; stroke-linejoin:round;fill-rule:evenodd;"
d="M 142880000.000000,124481000.000000
142860483.000000,124477118.000000
142843938.000000,124466062.000000
142832882.000000,124449517.000000
142829000.000000,124430000.000000
142829000.000000,120930000.000000
142832882.000000,120910483.000000
142843938.000000,120893938.000000
142860483.000000,120882882.000000
142880000.000000,120879000.000000
146680000.000000,120879000.000000
146699517.000000,120882882.000000
146716062.000000,120893938.000000
146727118.000000,120910483.000000
146731000.000000,120930000.000000
146731000.000000,124430000.000000
146727118.000000,124449517.000000
146716062.000000,124466062.000000
146699517.000000,124477118.000000
146680000.000000,124481000.000000
Z" /> 
<path style="fill:#000000; fill-opacity:1.0; 
stroke:#000000; stroke-width:1.000000; stroke-opacity:1; 
stroke-linecap:round; stroke-linejoin:round;fill-rule:evenodd;"
d="M 143380000.000000,148081000.000000
143360483.000000,148077118.000000
143343938.000000,148066062.000000
143332882.000000,148049517.000000
143329000.000000,148030000.000000
143329000.000000,142330000.000000
143332882.000000,142310483.000000
143343938.000000,142293938.000000
143360483.000000,142282882.000000
143380000.000000,142279000.000000
146180000.000000,142279000.000000
146199517.000000,142282882.000000
146216062.000000,142293938.000000
146227118.000000,142310483.000000
146231000.000000,142330000.000000
146231000.000000,148030000.000000
146227118.000000,148049517.000000
146216062.000000,148066062.000000
146199517.000000,148077118.000000
146180000.000000,148081000.000000
Z" /> 
</g>
<g >
</g>
<g style="fill:#000000; fill-opacity:1.0; 
stroke:#000000; stroke-width:1.000000; stroke-opacity:1; 
stroke-linecap:round; stroke-linejoin:round;">
<circle cx="162508817.000000" cy="134532543.000000" r="651000.000000" /> 
</g>
<g style="fill:#000000; fill-opacity:1.0; 
stroke:#000000; stroke-width:21200.000000; stroke-opacity:1; 
stroke-linecap:round; stroke-linejoin:round;">
</g>
<g style="fill:#000000; fill-opacity:1.0; 
stroke:#000000; stroke-width:1.000000; stroke-opacity:1; 
stroke-linecap:round; stroke-linejoin:round;">
<circle cx="162508817.000000" cy="142032543.000000" r="651000.000000" /> 
</g>
<g style="fill:#000000; fill-opacity:1.0; 
stroke:#000000; stroke-width:21200.000000; stroke-opacity:1; 
stroke-linecap:round; stroke-linejoin:round;">
</g>
<g style="fill:#000000; fill-opacity:1.0; 
stroke:#000000; stroke-width:1.000000; stroke-opacity:1; 
stroke-linecap:round; stroke-linejoin:round;">
<path style="fill:#000000; fill-opacity:1.0; 
stroke:#000000; stroke-width:1.000000; stroke-opacity:1; 
stroke-linecap:round; stroke-linejoin:round;fill-rule:evenodd;"
d="M 161358817.000000,132683543.000000
161339300.000000,132679661.000000
161322755.000000,132668605.000000
161311699.000000,132652060.000000
161307817.000000,132632543.000000
161307817.000000,128232543.000000
161311699.000000,128213026.000000
161322755.000000,128196481.000000
161339300.000000,128185425.000000
161358817.000000,128181543.000000
163658817.000000,128181543.000000
163678334.000000,128185425.000000
163694879.000000,128196481.000000
163705935.000000,128213026.000000
163709817.000000,128232543.000000
163709817.000000,132632543.000000
163705935.000000,132652060.000000
163694879.000000,132668605.000000
163678334.000000,132679661.000000
163658817.000000,132683543.000000
Z" /> 
<path style="fill:#000000; fill-opacity:1.0; 
stroke:#000000; stroke-width:1.000000; stroke-opacity:1; 
stroke-linecap:round; stroke-linejoin:round;fill-rule:evenodd;"
d="M 161358817.000000,148483543.000000
161339300.000000,148479661.000000
161322755.000000,148468605.000000
161311699.000000,148452060.000000
161307817.000000,148432543.000000
161307817.000000,144432543.000000
161311699.000000,144413026.000000
161322755.000000,144396481.000000
161339300.000000,144385425.000000
161358817.000000,144381543.000000
163658817.000000,144381543.000000
163678334.000000,144385425.000000
163694879.000000,144396481.000000
163705935.000000,144413026.000000
163709817.000000,144432543.000000
163709817.000000,148432543.000000
163705935.000000,148452060.000000
163694879.000000,148468605.000000
163678334.000000,148479661.000000
163658817.000000,148483543.000000
Z" /> 
</g>
<g >
</g>
<g style="fill:#000000; fill-opacity:1.0; 
stroke:#000000; stroke-width:1.000000; stroke-opacity:1; 
stroke-linecap:round; stroke-linejoin:round;">
<path style="fill:#000000; fill-opacity:1.0; 
stroke:#000000; stroke-width:1.000000; stroke-opacity:1; 
stroke-linecap:round; stroke-linejoin:round;fill-rule:evenodd;"
d="M 119970375.000000,116749875.000000
119950858.000000,116745993.000000
119934313.000000,116734937.000000
119923257.000000,116718392.000000
119919375.000000,116698875.000000
119919375.000000,112398875.000000
119923257.000000,112379358.000000
119934313.000000,112362813.000000
119950858.000000,112351757.000000
119970375.000000,112347875.000000
123870375.000000,112347875.000000
123889892.000000,112351757.000000
123906437.000000,112362813.000000
123917493.000000,112379358.000000
123921375.000000,112398875.000000
123921375.000000,116698875.000000
123917493.000000,116718392.000000
123906437.000000,116734937.000000
123889892.000000,116745993.000000
123870375.000000,116749875.000000
Z" /> 
<path style="fill:#000000; fill-opacity:1.0; 
stroke:#000000; stroke-width:1.000000; stroke-opacity:1; 
stroke-linecap:round; stroke-linejoin:round;fill-rule:evenodd;"
d="M 120420375.000000,148458875.000000
120400858.000000,148454993.000000
120384313.000000,148443937.000000
120373257.000000,148427392.000000
120369375.000000,148407875.000000
120369375.000000,141907875.000000
120373257.000000,141888358.000000
120384313.000000,141871813.000000
120400858.000000,141860757.000000
120420375.000000,141856875.000000
123420375.000000,141856875.000000
123439892.000000,141860757.000000
123456437.000000,141871813.000000
123467493.000000,141888358.000000
123471375.000000,141907875.000000
123471375.000000,148407875.000000
123467493.000000,148427392.000000
123456437.000000,148443937.000000
123439892.000000,148454993.000000
123420375.000000,148458875.000000
Z" /> 
</g>
<g >
</g>
<g style="fill:#000000; fill-opacity:1.0; 
stroke:#000000; stroke-width:1.000000; stroke-opacity:1; 
stroke-linecap:round; stroke-linejoin:round;">
<path style="fill:#000000; fill-opacity:1.0; 
stroke:#000000; stroke-width:1.000000; stroke-opacity:1; 
stroke-linecap:round; stroke-linejoin:round;fill-rule:evenodd;"
d="M 178800000.000000,115751000.000000
178780483.000000,115747118.000000
178763938.000000,115736062.000000
178752882.000000,115719517.000000
178749000.000000,115700000.000000
178749000.000000,113300000.000000
178752882.000000,113280483.000000
178763938.000000,113263938.000000
178780483.000000,113252882.000000
178800000.000000,113249000.000000
181200000.000000,113249000.000000
181219517.000000,113252882.000000
181236062.000000,113263938.000000
181247118.000000,113280483.000000
181251000.000000,113300000.000000
181251000.000000,115700000.000000
181247118.000000,115719517.000000
181236062.000000,115736062.000000
181219517.000000,115747118.000000
181200000.000000,115751000.000000
Z" /> 
<circle cx="180000000.000000" cy="111000000.000000" r="1251000.000000" /> 
</g>
<g style="fill:#000000; fill-opacity:1.0; 
stroke:#000000; stroke-width:21200.000000; stroke-opacity:1; 
stroke-linecap:round; stroke-linejoin:round;">
</g>
<g >
</g>
<g >
</g>
<g >
</g>
<g >
</g>
</g> 
</svg>
