<?xml version="1.0" standalone="no"?>
 <!DOCTYPE svg PUBLIC "-//W3C//DTD SVG 1.1//EN" 
 "http://www.w3.org/Graphics/SVG/1.1/DTD/svg11.dtd"> 
<svg
  xmlns:svg="http://www.w3.org/2000/svg"
  xmlns="http://www.w3.org/2000/svg"
  xmlns:xlink="http://www.w3.org/1999/xlink"
  version="1.1"
  width="29.700220cm" height="21.000720cm" viewBox="0 0 297002200 210007200">
<title>SVG Picture created as lir-multi-charger-F_Cu.svg date 2023/10/02 20:56:18 </title>
  <desc>Picture generated by PCBNEW </desc>
<g style="fill:#000000; fill-opacity:1.000000;stroke:#000000; stroke-opacity:1.000000;
stroke-linecap:round; stroke-linejoin:round;"
 transform="translate(0 0) scale(1 1)">
</g>
<g style="fill:#000000; fill-opacity:0.0; 
stroke:#000000; stroke-width:0.000000; stroke-opacity:1; 
stroke-linecap:round; stroke-linejoin:round;">
</g>
<g style="fill:#000000; fill-opacity:0.0; 
stroke:#000000; stroke-width:50000.000000; stroke-opacity:1; 
stroke-linecap:round; stroke-linejoin:round;">
<path d="M180000000.000000 100000000.000000 A10000000.000000 10000000.000000 0.0 0 0 190000000.000000 110000000.000000" />
<path d="M110000000 100000000
L180000000 100000000
" />
<path d="M190000000.000000 148000000.000000 A10000000.000000 10000000.000000 0.0 0 0 180000000.000000 158000000.000000" />
<path d="M110000000 158000000
L180000000 158000000
" />
<path d="M100000000 110000000
L100000000 148000000
" />
<path d="M100000000.000000 110000000.000000 A10000000.000000 10000000.000000 0.0 0 0 110000000.000000 100000000.000000" />
<path d="M190000000 110000000
L190000000 148000000
" />
<path d="M110000000.000000 158000000.000000 A10000000.000000 10000000.000000 0.0 0 0 100000000.000000 148000000.000000" />
<g >
</g>
<g >
</g>
<g >
</g>
<g >
</g>
<g >
</g>
<g >
</g>
<g style="fill:#000000; fill-opacity:0.0; 
stroke:#000000; stroke-width:50000.000000; stroke-opacity:1; 
stroke-linecap:round; stroke-linejoin:round;">
</g>
<g style="fill:#000000; fill-opacity:1.0; 
stroke:#000000; stroke-width:1.000000; stroke-opacity:1; 
stroke-linecap:round; stroke-linejoin:round;">
<circle cx="174500000.000000" cy="128310000.000000" r="999490.000000" /> 
</g>
<g style="fill:#000000; fill-opacity:1.0; 
stroke:#000000; stroke-width:21200.000000; stroke-opacity:1; 
stroke-linecap:round; stroke-linejoin:round;">
</g>
<g >
</g>
<g style="fill:#000000; fill-opacity:1.0; 
stroke:#000000; stroke-width:21200.000000; stroke-opacity:1; 
stroke-linecap:round; stroke-linejoin:round;">
</g>
<g style="fill:#000000; fill-opacity:1.0; 
stroke:#000000; stroke-width:1.000000; stroke-opacity:1; 
stroke-linecap:round; stroke-linejoin:round;">
<circle cx="174500000.000000" cy="130850000.000000" r="999490.000000" /> 
</g>
<g style="fill:#000000; fill-opacity:1.0; 
stroke:#000000; stroke-width:21200.000000; stroke-opacity:1; 
stroke-linecap:round; stroke-linejoin:round;">
</g>
<g >
</g>
<g >
</g>
<g >
</g>
<g >
</g>
<g style="fill:#000000; fill-opacity:1.0; 
stroke:#000000; stroke-width:21200.000000; stroke-opacity:1; 
stroke-linecap:round; stroke-linejoin:round;">
</g>
<g style="fill:#000000; fill-opacity:1.0; 
stroke:#000000; stroke-width:1.000000; stroke-opacity:1; 
stroke-linecap:round; stroke-linejoin:round;">
<path style="fill:#000000; fill-opacity:1.0; 
stroke:#000000; stroke-width:1.000000; stroke-opacity:1; 
stroke-linecap:round; stroke-linejoin:round;fill-rule:evenodd;"
d="M 146680000.000000,124430000.000000
142880000.000000,124430000.000000
142880000.000000,120930000.000000
146680000.000000,120930000.000000
Z" /> 
<path style="fill:#000000; fill-opacity:1.0; 
stroke:#000000; stroke-width:1.000000; stroke-opacity:1; 
stroke-linecap:round; stroke-linejoin:round;fill-rule:evenodd;"
d="M 146180000.000000,148030000.000000
143380000.000000,148030000.000000
143380000.000000,142330000.000000
146180000.000000,142330000.000000
Z" /> 
</g>
<g >
</g>
<g style="fill:#000000; fill-opacity:1.0; 
stroke:#000000; stroke-width:1.000000; stroke-opacity:1; 
stroke-linecap:round; stroke-linejoin:round;">
<path style="fill:#000000; fill-opacity:1.0; 
stroke:#000000; stroke-width:1.000000; stroke-opacity:1; 
stroke-linecap:round; stroke-linejoin:round;fill-rule:evenodd;"
d="M 163658817.000000,132632543.000000
161358817.000000,132632543.000000
161358817.000000,128232543.000000
163658817.000000,128232543.000000
Z" /> 
<path style="fill:#000000; fill-opacity:1.0; 
stroke:#000000; stroke-width:1.000000; stroke-opacity:1; 
stroke-linecap:round; stroke-linejoin:round;fill-rule:evenodd;"
d="M 163658817.000000,148432543.000000
161358817.000000,148432543.000000
161358817.000000,144432543.000000
163658817.000000,144432543.000000
Z" /> 
</g>
<g >
</g>
<g style="fill:#000000; fill-opacity:1.0; 
stroke:#000000; stroke-width:1.000000; stroke-opacity:1; 
stroke-linecap:round; stroke-linejoin:round;">
<path style="fill:#000000; fill-opacity:1.0; 
stroke:#000000; stroke-width:1.000000; stroke-opacity:1; 
stroke-linecap:round; stroke-linejoin:round;fill-rule:evenodd;"
d="M 123870375.000000,116698875.000000
119970375.000000,116698875.000000
119970375.000000,112398875.000000
123870375.000000,112398875.000000
Z" /> 
<path style="fill:#000000; fill-opacity:1.0; 
stroke:#000000; stroke-width:1.000000; stroke-opacity:1; 
stroke-linecap:round; stroke-linejoin:round;fill-rule:evenodd;"
d="M 123420375.000000,148407875.000000
120420375.000000,148407875.000000
120420375.000000,141907875.000000
123420375.000000,141907875.000000
Z" /> 
</g>
<g >
</g>
<g style="fill:#000000; fill-opacity:1.0; 
stroke:#000000; stroke-width:1.000000; stroke-opacity:1; 
stroke-linecap:round; stroke-linejoin:round;">
<path style="fill:#000000; fill-opacity:1.0; 
stroke:#000000; stroke-width:1.000000; stroke-opacity:1; 
stroke-linecap:round; stroke-linejoin:round;fill-rule:evenodd;"
d="M 181200000.000000,115700000.000000
178800000.000000,115700000.000000
178800000.000000,113300000.000000
181200000.000000,113300000.000000
Z" /> 
<circle cx="180000000.000000" cy="111000000.000000" r="1200000.000000" /> 
</g>
<g style="fill:#000000; fill-opacity:1.0; 
stroke:#000000; stroke-width:21200.000000; stroke-opacity:1; 
stroke-linecap:round; stroke-linejoin:round;">
</g>
<g >
</g>
<g >
</g>
<g >
</g>
<g >
</g>
<g style="fill:#000000; fill-opacity:1.0; 
stroke:#000000; stroke-width:21200.000000; stroke-opacity:1; 
stroke-linecap:round; stroke-linejoin:round;">
<g >
</g>
<g style="fill:#000000; fill-opacity:1.0; 
stroke:#000000; stroke-width:1.000000; stroke-opacity:1; 
stroke-linecap:round; stroke-linejoin:round;">
<path style="fill:#000000; fill-opacity:1.0; 
stroke:#000000; stroke-width:1.000000; stroke-opacity:1; 
stroke-linecap:round; stroke-linejoin:round;fill-rule:evenodd;"
d="M 179447940.000000,100528502.000000
179494433.000000,100582158.000000
179505762.000000,100630706.000000
179505885.000000,100634777.000000
179563358.000000,101267238.000000
179658913.000000,101895075.000000
179792201.000000,102515996.000000
179962737.000000,103127738.000000
179963359.000000,103129542.000000
179963362.000000,103129550.000000
180169275.000000,103726265.000000
180169281.000000,103726280.000000
180169897.000000,103728066.000000
180170618.000000,103729808.000000
180170625.000000,103729825.000000
180327279.000000,104108018.000000
180412927.000000,104314791.000000
180413761.000000,104316504.000000
180413766.000000,104316515.000000
180440354.000000,104371121.000000
180690939.000000,104885772.000000
181002918.000000,105438926.000000
181003940.000000,105440506.000000
181003945.000000,105440515.000000
181346692.000000,105970633.000000
181346700.000000,105970645.000000
181347727.000000,105972233.000000
181348849.000000,105973758.000000
181348856.000000,105973768.000000
181628558.000000,106353893.000000
181724107.000000,106483748.000000
181725328.000000,106485213.000000
181946039.000000,106750046.000000
182130685.000000,106971605.000000
182565977.000000,107434023.000000
183028395.000000,107869315.000000
183029848.000000,107870526.000000
183029856.000000,107870533.000000
183391484.000000,108171912.000000
183516252.000000,108275893.000000
183517791.000000,108277025.000000
183517793.000000,108277027.000000
184026232.000000,108651144.000000
184026242.000000,108651151.000000
184027767.000000,108652273.000000
184029355.000000,108653300.000000
184029367.000000,108653308.000000
184559485.000000,108996055.000000
184559494.000000,108996060.000000
184561074.000000,108997082.000000
185114228.000000,109309061.000000
185115939.000000,109309894.000000
185683485.000000,109586234.000000
185683496.000000,109586239.000000
185685209.000000,109587073.000000
185737605.000000,109608776.000000
186270175.000000,109829375.000000
186270192.000000,109829382.000000
186271934.000000,109830103.000000
186273720.000000,109830719.000000
186273735.000000,109830725.000000
186870450.000000,110036638.000000
186870458.000000,110036641.000000
186872262.000000,110037263.000000
187484004.000000,110207799.000000
188104925.000000,110341087.000000
188106800.000000,110341372.000000
188106798.000000,110341372.000000
188730901.000000,110436359.000000
188730909.000000,110436360.000000
188732762.000000,110436642.000000
189365223.000000,110494115.000000
189367116.000000,110494172.000000
189367129.000000,110494173.000000
189369178.000000,110494235.000000
189369294.000000,110494238.000000
189436782.000000,110516282.000000
189481638.000000,110571314.000000
189491500.000000,110620181.000000
189491500.000000,147379819.000000
189471498.000000,147447940.000000
189417842.000000,147494433.000000
189369294.000000,147505762.000000
189369178.000000,147505765.000000
189367129.000000,147505827.000000
189367116.000000,147505828.000000
189365223.000000,147505885.000000
188732762.000000,147563358.000000
188730909.000000,147563640.000000
188730901.000000,147563641.000000
188240702.000000,147638248.000000
188104925.000000,147658913.000000
187484004.000000,147792201.000000
186872262.000000,147962737.000000
186870458.000000,147963359.000000
186870450.000000,147963362.000000
186273735.000000,148169275.000000
186273720.000000,148169281.000000
186271934.000000,148169897.000000
186270192.000000,148170618.000000
186270175.000000,148170625.000000
185932129.000000,148310649.000000
185685209.000000,148412927.000000
185683496.000000,148413761.000000
185683485.000000,148413766.000000
185216110.000000,148641332.000000
185114228.000000,148690939.000000
184561074.000000,149002918.000000
184559494.000000,149003940.000000
184559485.000000,149003945.000000
184029367.000000,149346692.000000
184029355.000000,149346700.000000
184027767.000000,149347727.000000
184026242.000000,149348849.000000
184026232.000000,149348856.000000
183940643.000000,149411834.000000
183516252.000000,149724107.000000
183514787.000000,149725328.000000
183057048.000000,150106806.000000
183028395.000000,150130685.000000
182565977.000000,150565977.000000
182130685.000000,151028395.000000
182129474.000000,151029848.000000
182129467.000000,151029856.000000
181788051.000000,151439524.000000
181724107.000000,151516252.000000
181722975.000000,151517791.000000
181722973.000000,151517793.000000
181416629.000000,151934127.000000
181347727.000000,152027767.000000
181346700.000000,152029355.000000
181346692.000000,152029367.000000
181093459.000000,152421036.000000
181002918.000000,152561074.000000
180690939.000000,153114228.000000
180690106.000000,153115939.000000
180439219.000000,153631211.000000
180412927.000000,153685209.000000
180412194.000000,153686979.000000
180170625.000000,154270175.000000
180170618.000000,154270192.000000
180169897.000000,154271934.000000
180169281.000000,154273720.000000
180169275.000000,154273735.000000
179963362.000000,154870450.000000
179962737.000000,154872262.000000
179792201.000000,155484004.000000
179658913.000000,156104925.000000
179563358.000000,156732762.000000
179505885.000000,157365223.000000
179505828.000000,157367116.000000
179505827.000000,157367129.000000
179505762.000000,157369294.000000
179483718.000000,157436782.000000
179428686.000000,157481638.000000
179379819.000000,157491500.000000
110620181.000000,157491500.000000
110552060.000000,157471498.000000
110505567.000000,157417842.000000
110494238.000000,157369294.000000
110494173.000000,157367129.000000
110494172.000000,157367116.000000
110494115.000000,157365223.000000
110436642.000000,156732762.000000
110341087.000000,156104925.000000
110207799.000000,155484004.000000
110037263.000000,154872262.000000
110036638.000000,154870450.000000
109830725.000000,154273735.000000
109830719.000000,154273720.000000
109830103.000000,154271934.000000
109829382.000000,154270192.000000
109829375.000000,154270175.000000
109587806.000000,153686979.000000
109587073.000000,153685209.000000
109560782.000000,153631211.000000
109309894.000000,153115939.000000
109309061.000000,153114228.000000
108997082.000000,152561074.000000
108906541.000000,152421036.000000
108653308.000000,152029367.000000
108653300.000000,152029355.000000
108652273.000000,152027767.000000
108583372.000000,151934127.000000
108580139.000000,151929733.000000
120487822.000000,151929733.000000
120487975.000000,151934121.000000
120487975.000000,151934127.000000
120491192.000000,152026232.000000
120497625.000000,152210458.000000
120498387.000000,152214781.000000
120498388.000000,152214788.000000
120522164.000000,152349624.000000
120546402.000000,152487087.000000
120633203.000000,152754235.000000
120756340.000000,153006702.000000
120758795.000000,153010341.000000
120758798.000000,153010347.000000
120827748.000000,153112569.000000
120913415.000000,153239576.000000
121101371.000000,153448322.000000
121316550.000000,153628879.000000
121554764.000000,153777731.000000
121811375.000000,153891982.000000
122081390.000000,153969407.000000
122085740.000000,153970018.000000
122085743.000000,153970019.000000
122188690.000000,153984487.000000
122359552.000000,154008500.000000
122570146.000000,154008500.000000
122572332.000000,154008347.000000
122572336.000000,154008347.000000
122775827.000000,153994118.000000
122775832.000000,153994117.000000
122780212.000000,153993811.000000
123054970.000000,153935409.000000
123059099.000000,153933906.000000
123059103.000000,153933905.000000
123314781.000000,153840846.000000
123314785.000000,153840844.000000
123318926.000000,153839337.000000
123566942.000000,153707464.000000
123570503.000000,153704877.000000
123790629.000000,153544947.000000
123790632.000000,153544944.000000
123794192.000000,153542358.000000
123996252.000000,153347231.000000
124169188.000000,153125882.000000
124171384.000000,153122078.000000
124171389.000000,153122071.000000
124307435.000000,152886431.000000
124309636.000000,152882619.000000
124414862.000000,152622176.000000
124429686.000000,152562720.000000
124481753.000000,152353893.000000
124481754.000000,152353888.000000
124482817.000000,152349624.000000
124512178.000000,152070267.000000
124510694.000000,152027767.000000
124507271.000000,151929733.000000
165487822.000000,151929733.000000
165487975.000000,151934121.000000
165487975.000000,151934127.000000
165491192.000000,152026232.000000
165497625.000000,152210458.000000
165498387.000000,152214781.000000
165498388.000000,152214788.000000
165522164.000000,152349624.000000
165546402.000000,152487087.000000
165633203.000000,152754235.000000
165756340.000000,153006702.000000
165758795.000000,153010341.000000
165758798.000000,153010347.000000
165827748.000000,153112569.000000
165913415.000000,153239576.000000
166101371.000000,153448322.000000
166316550.000000,153628879.000000
166554764.000000,153777731.000000
166811375.000000,153891982.000000
167081390.000000,153969407.000000
167085740.000000,153970018.000000
167085743.000000,153970019.000000
167188690.000000,153984487.000000
167359552.000000,154008500.000000
167570146.000000,154008500.000000
167572332.000000,154008347.000000
167572336.000000,154008347.000000
167775827.000000,153994118.000000
167775832.000000,153994117.000000
167780212.000000,153993811.000000
168054970.000000,153935409.000000
168059099.000000,153933906.000000
168059103.000000,153933905.000000
168314781.000000,153840846.000000
168314785.000000,153840844.000000
168318926.000000,153839337.000000
168566942.000000,153707464.000000
168570503.000000,153704877.000000
168790629.000000,153544947.000000
168790632.000000,153544944.000000
168794192.000000,153542358.000000
168996252.000000,153347231.000000
169169188.000000,153125882.000000
169171384.000000,153122078.000000
169171389.000000,153122071.000000
169307435.000000,152886431.000000
169309636.000000,152882619.000000
169414862.000000,152622176.000000
169429686.000000,152562720.000000
169481753.000000,152353893.000000
169481754.000000,152353888.000000
169482817.000000,152349624.000000
169512178.000000,152070267.000000
169510694.000000,152027767.000000
169502529.000000,151793939.000000
169502528.000000,151793933.000000
169502375.000000,151789542.000000
169478608.000000,151654749.000000
169454360.000000,151517236.000000
169453598.000000,151512913.000000
169366797.000000,151245765.000000
169243660.000000,150993298.000000
169241205.000000,150989659.000000
169241202.000000,150989653.000000
169160935.000000,150870653.000000
169086585.000000,150760424.000000
168898629.000000,150551678.000000
168683450.000000,150371121.000000
168445236.000000,150222269.000000
168188625.000000,150108018.000000
167918610.000000,150030593.000000
167914260.000000,150029982.000000
167914257.000000,150029981.000000
167811310.000000,150015513.000000
167640448.000000,149991500.000000
167429854.000000,149991500.000000
167427668.000000,149991653.000000
167427664.000000,149991653.000000
167224173.000000,150005882.000000
167224168.000000,150005883.000000
167219788.000000,150006189.000000
166945030.000000,150064591.000000
166940901.000000,150066094.000000
166940897.000000,150066095.000000
166685219.000000,150159154.000000
166685215.000000,150159156.000000
166681074.000000,150160663.000000
166433058.000000,150292536.000000
166429499.000000,150295122.000000
166429497.000000,150295123.000000
166324895.000000,150371121.000000
166205808.000000,150457642.000000
166003748.000000,150652769.000000
165830812.000000,150874118.000000
165828616.000000,150877922.000000
165828611.000000,150877929.000000
165714794.000000,151075067.000000
165690364.000000,151117381.000000
165585138.000000,151377824.000000
165584073.000000,151382097.000000
165584072.000000,151382099.000000
165550240.000000,151517793.000000
165517183.000000,151650376.000000
165487822.000000,151929733.000000
124507271.000000,151929733.000000
124502529.000000,151793939.000000
124502528.000000,151793933.000000
124502375.000000,151789542.000000
124478608.000000,151654749.000000
124454360.000000,151517236.000000
124453598.000000,151512913.000000
124366797.000000,151245765.000000
124243660.000000,150993298.000000
124241205.000000,150989659.000000
124241202.000000,150989653.000000
124160935.000000,150870653.000000
124086585.000000,150760424.000000
123898629.000000,150551678.000000
123683450.000000,150371121.000000
123445236.000000,150222269.000000
123188625.000000,150108018.000000
122918610.000000,150030593.000000
122914260.000000,150029982.000000
122914257.000000,150029981.000000
122811310.000000,150015513.000000
122640448.000000,149991500.000000
122429854.000000,149991500.000000
122427668.000000,149991653.000000
122427664.000000,149991653.000000
122224173.000000,150005882.000000
122224168.000000,150005883.000000
122219788.000000,150006189.000000
121945030.000000,150064591.000000
121940901.000000,150066094.000000
121940897.000000,150066095.000000
121685219.000000,150159154.000000
121685215.000000,150159156.000000
121681074.000000,150160663.000000
121433058.000000,150292536.000000
121429499.000000,150295122.000000
121429497.000000,150295123.000000
121324895.000000,150371121.000000
121205808.000000,150457642.000000
121003748.000000,150652769.000000
120830812.000000,150874118.000000
120828616.000000,150877922.000000
120828611.000000,150877929.000000
120714794.000000,151075067.000000
120690364.000000,151117381.000000
120585138.000000,151377824.000000
120584073.000000,151382097.000000
120584072.000000,151382099.000000
120550240.000000,151517793.000000
120517183.000000,151650376.000000
120487822.000000,151929733.000000
108580139.000000,151929733.000000
108277027.000000,151517793.000000
108277025.000000,151517791.000000
108275893.000000,151516252.000000
108211949.000000,151439525.000000
107870533.000000,151029856.000000
107870526.000000,151029848.000000
107869315.000000,151028395.000000
107434023.000000,150565977.000000
106971605.000000,150130685.000000
106942953.000000,150106806.000000
106485213.000000,149725328.000000
106483748.000000,149724107.000000
106059357.000000,149411834.000000
105973768.000000,149348856.000000
105973758.000000,149348849.000000
105972233.000000,149347727.000000
105970645.000000,149346700.000000
105970633.000000,149346692.000000
105440515.000000,149003945.000000
105440506.000000,149003940.000000
105438926.000000,149002918.000000
104885772.000000,148690939.000000
104783890.000000,148641332.000000
104403274.000000,148456009.000000
119911875.000000,148456009.000000
119918630.000000,148518191.000000
119969760.000000,148654580.000000
120057114.000000,148771136.000000
120173670.000000,148858490.000000
120310059.000000,148909620.000000
120372241.000000,148916375.000000
123468509.000000,148916375.000000
123530691.000000,148909620.000000
123667080.000000,148858490.000000
123783636.000000,148771136.000000
123870990.000000,148654580.000000
123922120.000000,148518191.000000
123928875.000000,148456009.000000
123928875.000000,148078134.000000
142871500.000000,148078134.000000
142878255.000000,148140316.000000
142929385.000000,148276705.000000
143016739.000000,148393261.000000
143133295.000000,148480615.000000
143269684.000000,148531745.000000
143331866.000000,148538500.000000
146228134.000000,148538500.000000
146290316.000000,148531745.000000
146426540.000000,148480677.000000
160850317.000000,148480677.000000
160857072.000000,148542859.000000
160908202.000000,148679248.000000
160995556.000000,148795804.000000
161112112.000000,148883158.000000
161248501.000000,148934288.000000
161310683.000000,148941043.000000
163706951.000000,148941043.000000
163769133.000000,148934288.000000
163905522.000000,148883158.000000
164022078.000000,148795804.000000
164109432.000000,148679248.000000
164160562.000000,148542859.000000
164167317.000000,148480677.000000
164167317.000000,144384409.000000
164160562.000000,144322227.000000
164109432.000000,144185838.000000
164022078.000000,144069282.000000
163905522.000000,143981928.000000
163769133.000000,143930798.000000
163706951.000000,143924043.000000
161310683.000000,143924043.000000
161248501.000000,143930798.000000
161112112.000000,143981928.000000
160995556.000000,144069282.000000
160908202.000000,144185838.000000
160857072.000000,144322227.000000
160850317.000000,144384409.000000
160850317.000000,148480677.000000
146426540.000000,148480677.000000
146426705.000000,148480615.000000
146543261.000000,148393261.000000
146630615.000000,148276705.000000
146681745.000000,148140316.000000
146688500.000000,148078134.000000
146688500.000000,142281866.000000
146681745.000000,142219684.000000
146630615.000000,142083295.000000
146551811.000000,141978147.000000
161396604.000000,141978147.000000
161406384.000000,142189442.000000
161455942.000000,142395077.000000
161458424.000000,142400535.000000
161458425.000000,142400539.000000
161501870.000000,142496089.000000
161543491.000000,142587630.000000
161665871.000000,142760154.000000
161818667.000000,142906424.000000
161996365.000000,143021163.000000
162001931.000000,143023406.000000
162186985.000000,143097985.000000
162186988.000000,143097986.000000
162192554.000000,143100229.000000
162400154.000000,143140771.000000
162405716.000000,143141043.000000
162561663.000000,143141043.000000
162719383.000000,143125995.000000
162922351.000000,143066451.000000
163005928.000000,143023406.000000
163105066.000000,142972347.000000
163105069.000000,142972345.000000
163110397.000000,142969601.000000
163276737.000000,142838939.000000
163280669.000000,142834408.000000
163280672.000000,142834405.000000
163411438.000000,142683710.000000
163415369.000000,142679180.000000
163418369.000000,142673994.000000
163418372.000000,142673990.000000
163518284.000000,142501285.000000
163521290.000000,142496089.000000
163590678.000000,142296272.000000
163591539.000000,142290335.000000
163620169.000000,142092879.000000
163620169.000000,142092876.000000
163621030.000000,142086939.000000
163611250.000000,141875644.000000
163561692.000000,141670009.000000
163557674.000000,141661170.000000
163476623.000000,141482911.000000
163474143.000000,141477456.000000
163351763.000000,141304932.000000
163198967.000000,141158662.000000
163021269.000000,141043923.000000
162961171.000000,141019703.000000
162830649.000000,140967101.000000
162830646.000000,140967100.000000
162825080.000000,140964857.000000
162617480.000000,140924315.000000
162611918.000000,140924043.000000
162455971.000000,140924043.000000
162298251.000000,140939091.000000
162095283.000000,140998635.000000
162089956.000000,141001379.000000
162089955.000000,141001379.000000
161912568.000000,141092739.000000
161912565.000000,141092741.000000
161907237.000000,141095485.000000
161740897.000000,141226147.000000
161736965.000000,141230678.000000
161736962.000000,141230681.000000
161668291.000000,141309818.000000
161602265.000000,141385906.000000
161599265.000000,141391092.000000
161599262.000000,141391096.000000
161552129.000000,141472569.000000
161496344.000000,141568997.000000
161426956.000000,141768814.000000
161426095.000000,141774749.000000
161426095.000000,141774751.000000
161413277.000000,141863158.000000
161396604.000000,141978147.000000
146551811.000000,141978147.000000
146543261.000000,141966739.000000
146426705.000000,141879385.000000
146290316.000000,141828255.000000
146228134.000000,141821500.000000
143331866.000000,141821500.000000
143269684.000000,141828255.000000
143133295.000000,141879385.000000
143016739.000000,141966739.000000
142929385.000000,142083295.000000
142878255.000000,142219684.000000
142871500.000000,142281866.000000
142871500.000000,148078134.000000
123928875.000000,148078134.000000
123928875.000000,141859741.000000
123922120.000000,141797559.000000
123870990.000000,141661170.000000
123783636.000000,141544614.000000
123667080.000000,141457260.000000
123530691.000000,141406130.000000
123468509.000000,141399375.000000
120372241.000000,141399375.000000
120310059.000000,141406130.000000
120173670.000000,141457260.000000
120057114.000000,141544614.000000
119969760.000000,141661170.000000
119918630.000000,141797559.000000
119911875.000000,141859741.000000
119911875.000000,148456009.000000
104403274.000000,148456009.000000
104316515.000000,148413766.000000
104316504.000000,148413761.000000
104314791.000000,148412927.000000
104067871.000000,148310649.000000
103729825.000000,148170625.000000
103729808.000000,148170618.000000
103728066.000000,148169897.000000
103726280.000000,148169281.000000
103726265.000000,148169275.000000
103129550.000000,147963362.000000
103129542.000000,147963359.000000
103127738.000000,147962737.000000
102515996.000000,147792201.000000
101895075.000000,147658913.000000
101759298.000000,147638248.000000
101269099.000000,147563641.000000
101269091.000000,147563640.000000
101267238.000000,147563358.000000
100634777.000000,147505885.000000
100632884.000000,147505828.000000
100632871.000000,147505827.000000
100630822.000000,147505765.000000
100630706.000000,147505762.000000
100563218.000000,147483718.000000
100518362.000000,147428686.000000
100508500.000000,147379819.000000
100508500.000000,134478147.000000
161396604.000000,134478147.000000
161406384.000000,134689442.000000
161455942.000000,134895077.000000
161458424.000000,134900535.000000
161458425.000000,134900539.000000
161501870.000000,134996089.000000
161543491.000000,135087630.000000
161665871.000000,135260154.000000
161818667.000000,135406424.000000
161996365.000000,135521163.000000
162001931.000000,135523406.000000
162186985.000000,135597985.000000
162186988.000000,135597986.000000
162192554.000000,135600229.000000
162400154.000000,135640771.000000
162405716.000000,135641043.000000
162561663.000000,135641043.000000
162719383.000000,135625995.000000
162922351.000000,135566451.000000
163005928.000000,135523406.000000
163105066.000000,135472347.000000
163105069.000000,135472345.000000
163110397.000000,135469601.000000
163276737.000000,135338939.000000
163280669.000000,135334408.000000
163280672.000000,135334405.000000
163411438.000000,135183710.000000
163415369.000000,135179180.000000
163418369.000000,135173994.000000
163418372.000000,135173990.000000
163518284.000000,135001285.000000
163521290.000000,134996089.000000
163590678.000000,134796272.000000
163621030.000000,134586939.000000
163611250.000000,134375644.000000
163561692.000000,134170009.000000
163518342.000000,134074665.000000
163476623.000000,133982911.000000
163474143.000000,133977456.000000
163351763.000000,133804932.000000
163198967.000000,133658662.000000
163021269.000000,133543923.000000
162961171.000000,133519703.000000
162830649.000000,133467101.000000
162830646.000000,133467100.000000
162825080.000000,133464857.000000
162617480.000000,133424315.000000
162611918.000000,133424043.000000
162455971.000000,133424043.000000
162298251.000000,133439091.000000
162095283.000000,133498635.000000
162089956.000000,133501379.000000
162089955.000000,133501379.000000
161912568.000000,133592739.000000
161912565.000000,133592741.000000
161907237.000000,133595485.000000
161740897.000000,133726147.000000
161736965.000000,133730678.000000
161736962.000000,133730681.000000
161668291.000000,133809818.000000
161602265.000000,133885906.000000
161599265.000000,133891092.000000
161599262.000000,133891096.000000
161552129.000000,133972569.000000
161496344.000000,134068997.000000
161426956.000000,134268814.000000
161396604.000000,134478147.000000
100508500.000000,134478147.000000
100508500.000000,132680677.000000
160850317.000000,132680677.000000
160857072.000000,132742859.000000
160908202.000000,132879248.000000
160995556.000000,132995804.000000
161112112.000000,133083158.000000
161248501.000000,133134288.000000
161310683.000000,133141043.000000
163706951.000000,133141043.000000
163769133.000000,133134288.000000
163905522.000000,133083158.000000
164022078.000000,132995804.000000
164109432.000000,132879248.000000
164160562.000000,132742859.000000
164167317.000000,132680677.000000
164167317.000000,132082299.000000
173632531.000000,132082299.000000
173638258.000000,132089949.000000
173809278.000000,132194750.000000
173818072.000000,132199231.000000
174028147.000000,132286247.000000
174037532.000000,132289296.000000
174258634.000000,132342379.000000
174268381.000000,132343922.000000
174495070.000000,132361763.000000
174504930.000000,132361763.000000
174731619.000000,132343922.000000
174741366.000000,132342379.000000
174962468.000000,132289296.000000
174971853.000000,132286247.000000
175181928.000000,132199231.000000
175190722.000000,132194750.000000
175358076.000000,132092196.000000
175367536.000000,132081740.000000
175363752.000000,132072962.000000
174512812.000000,131222022.000000
174498868.000000,131214408.000000
174497035.000000,131214539.000000
174490420.000000,131218790.000000
173639291.000000,132069919.000000
173632531.000000,132082299.000000
164167317.000000,132082299.000000
164167317.000000,130854930.000000
172988237.000000,130854930.000000
173006078.000000,131081619.000000
173007621.000000,131091366.000000
173060704.000000,131312468.000000
173063753.000000,131321853.000000
173150769.000000,131531928.000000
173155250.000000,131540722.000000
173257804.000000,131708076.000000
173268260.000000,131717536.000000
173277038.000000,131713752.000000
174127978.000000,130862812.000000
174134356.000000,130851132.000000
174864408.000000,130851132.000000
174864539.000000,130852965.000000
174868790.000000,130859580.000000
175719919.000000,131710709.000000
175732299.000000,131717469.000000
175739949.000000,131711742.000000
175844750.000000,131540722.000000
175849231.000000,131531928.000000
175936247.000000,131321853.000000
175939296.000000,131312468.000000
175992379.000000,131091366.000000
175993922.000000,131081619.000000
176011763.000000,130854930.000000
176011763.000000,130845070.000000
175993922.000000,130618381.000000
175992379.000000,130608634.000000
175939296.000000,130387532.000000
175936247.000000,130378147.000000
175849231.000000,130168072.000000
175844750.000000,130159278.000000
175742196.000000,129991924.000000
175731740.000000,129982464.000000
175722962.000000,129986248.000000
174872022.000000,130837188.000000
174864408.000000,130851132.000000
174134356.000000,130851132.000000
174135592.000000,130848868.000000
174135461.000000,130847035.000000
174131210.000000,130840420.000000
173280081.000000,129989291.000000
173267701.000000,129982531.000000
173260051.000000,129988258.000000
173155250.000000,130159278.000000
173150769.000000,130168072.000000
173063753.000000,130378147.000000
173060704.000000,130387532.000000
173007621.000000,130608634.000000
173006078.000000,130618381.000000
172988237.000000,130845070.000000
172988237.000000,130854930.000000
164167317.000000,130854930.000000
164167317.000000,129543863.000000
173631677.000000,129543863.000000
173634048.000000,129577019.000000
173634567.000000,129578411.000000
173633192.000000,129607983.000000
173631760.000000,129616627.000000
173636247.000000,129627037.000000
174487188.000000,130477978.000000
174501132.000000,130485592.000000
174502965.000000,130485461.000000
174509580.000000,130481210.000000
175360709.000000,129630081.000000
175368323.000000,129616137.000000
175365952.000000,129582981.000000
175365433.000000,129581589.000000
175366808.000000,129552017.000000
175368240.000000,129543373.000000
175363753.000000,129532963.000000
174512812.000000,128682022.000000
174498868.000000,128674408.000000
174497035.000000,128674539.000000
174490420.000000,128678790.000000
173639291.000000,129529919.000000
173631677.000000,129543863.000000
164167317.000000,129543863.000000
164167317.000000,128314930.000000
172988237.000000,128314930.000000
173006078.000000,128541619.000000
173007621.000000,128551366.000000
173060704.000000,128772468.000000
173063753.000000,128781853.000000
173150769.000000,128991928.000000
173155250.000000,129000722.000000
173257804.000000,129168076.000000
173268260.000000,129177536.000000
173277038.000000,129173752.000000
174127978.000000,128322812.000000
174134356.000000,128311132.000000
174864408.000000,128311132.000000
174864539.000000,128312965.000000
174868790.000000,128319580.000000
175719919.000000,129170709.000000
175732299.000000,129177469.000000
175739949.000000,129171742.000000
175844750.000000,129000722.000000
175849231.000000,128991928.000000
175874993.000000,128929733.000000
182987822.000000,128929733.000000
182987975.000000,128934121.000000
182987975.000000,128934127.000000
182996237.000000,129170709.000000
182997625.000000,129210458.000000
182998387.000000,129214781.000000
182998388.000000,129214788.000000
183022164.000000,129349624.000000
183046402.000000,129487087.000000
183133203.000000,129754235.000000
183256340.000000,130006702.000000
183258795.000000,130010341.000000
183258798.000000,130010347.000000
183331890.000000,130118710.000000
183413415.000000,130239576.000000
183601371.000000,130448322.000000
183816550.000000,130628879.000000
184054764.000000,130777731.000000
184311375.000000,130891982.000000
184581390.000000,130969407.000000
184585740.000000,130970018.000000
184585743.000000,130970019.000000
184688690.000000,130984487.000000
184859552.000000,131008500.000000
185070146.000000,131008500.000000
185072332.000000,131008347.000000
185072336.000000,131008347.000000
185275827.000000,130994118.000000
185275832.000000,130994117.000000
185280212.000000,130993811.000000
185554970.000000,130935409.000000
185559099.000000,130933906.000000
185559103.000000,130933905.000000
185814781.000000,130840846.000000
185814785.000000,130840844.000000
185818926.000000,130839337.000000
186066942.000000,130707464.000000
186171896.000000,130631211.000000
186290629.000000,130544947.000000
186290632.000000,130544944.000000
186294192.000000,130542358.000000
186360860.000000,130477978.000000
186454519.000000,130387532.000000
186496252.000000,130347231.000000
186669188.000000,130125882.000000
186671384.000000,130122078.000000
186671389.000000,130122071.000000
186807435.000000,129886431.000000
186809636.000000,129882619.000000
186914862.000000,129622176.000000
186918401.000000,129607983.000000
186981753.000000,129353893.000000
186981754.000000,129353888.000000
186982817.000000,129349624.000000
187001622.000000,129170709.000000
187011719.000000,129074636.000000
187011719.000000,129074633.000000
187012178.000000,129070267.000000
187012025.000000,129065873.000000
187002529.000000,128793939.000000
187002528.000000,128793933.000000
187002375.000000,128789542.000000
187001020.000000,128781853.000000
186960378.000000,128551366.000000
186953598.000000,128512913.000000
186866797.000000,128245765.000000
186743660.000000,127993298.000000
186741205.000000,127989659.000000
186741202.000000,127989653.000000
186645340.000000,127847532.000000
186586585.000000,127760424.000000
186398629.000000,127551678.000000
186183450.000000,127371121.000000
185945236.000000,127222269.000000
185688625.000000,127108018.000000
185418610.000000,127030593.000000
185414260.000000,127029982.000000
185414257.000000,127029981.000000
185311310.000000,127015513.000000
185140448.000000,126991500.000000
184929854.000000,126991500.000000
184927668.000000,126991653.000000
184927664.000000,126991653.000000
184724173.000000,127005882.000000
184724168.000000,127005883.000000
184719788.000000,127006189.000000
184445030.000000,127064591.000000
184440901.000000,127066094.000000
184440897.000000,127066095.000000
184185219.000000,127159154.000000
184185215.000000,127159156.000000
184181074.000000,127160663.000000
183933058.000000,127292536.000000
183929499.000000,127295122.000000
183929497.000000,127295123.000000
183721491.000000,127446248.000000
183705808.000000,127457642.000000
183503748.000000,127652769.000000
183330812.000000,127874118.000000
183328616.000000,127877922.000000
183328611.000000,127877929.000000
183218508.000000,128068634.000000
183190364.000000,128117381.000000
183085138.000000,128377824.000000
183084073.000000,128382097.000000
183084072.000000,128382099.000000
183050379.000000,128517236.000000
183017183.000000,128650376.000000
183016724.000000,128654744.000000
183016723.000000,128654749.000000
183013857.000000,128682022.000000
182987822.000000,128929733.000000
175874993.000000,128929733.000000
175936247.000000,128781853.000000
175939296.000000,128772468.000000
175992379.000000,128551366.000000
175993922.000000,128541619.000000
176011763.000000,128314930.000000
176011763.000000,128305070.000000
175993922.000000,128078381.000000
175992379.000000,128068634.000000
175939296.000000,127847532.000000
175936247.000000,127838147.000000
175849231.000000,127628072.000000
175844750.000000,127619278.000000
175742196.000000,127451924.000000
175731740.000000,127442464.000000
175722962.000000,127446248.000000
174872022.000000,128297188.000000
174864408.000000,128311132.000000
174134356.000000,128311132.000000
174135592.000000,128308868.000000
174135461.000000,128307035.000000
174131210.000000,128300420.000000
173280081.000000,127449291.000000
173267701.000000,127442531.000000
173260051.000000,127448258.000000
173155250.000000,127619278.000000
173150769.000000,127628072.000000
173063753.000000,127838147.000000
173060704.000000,127847532.000000
173007621.000000,128068634.000000
173006078.000000,128078381.000000
172988237.000000,128305070.000000
172988237.000000,128314930.000000
164167317.000000,128314930.000000
164167317.000000,128184409.000000
164160562.000000,128122227.000000
164109432.000000,127985838.000000
164022078.000000,127869282.000000
163905522.000000,127781928.000000
163769133.000000,127730798.000000
163706951.000000,127724043.000000
161310683.000000,127724043.000000
161248501.000000,127730798.000000
161112112.000000,127781928.000000
160995556.000000,127869282.000000
160908202.000000,127985838.000000
160857072.000000,128122227.000000
160850317.000000,128184409.000000
160850317.000000,132680677.000000
100508500.000000,132680677.000000
100508500.000000,128929733.000000
102987822.000000,128929733.000000
102987975.000000,128934121.000000
102987975.000000,128934127.000000
102996237.000000,129170709.000000
102997625.000000,129210458.000000
102998387.000000,129214781.000000
102998388.000000,129214788.000000
103022164.000000,129349624.000000
103046402.000000,129487087.000000
103133203.000000,129754235.000000
103256340.000000,130006702.000000
103258795.000000,130010341.000000
103258798.000000,130010347.000000
103331890.000000,130118710.000000
103413415.000000,130239576.000000
103601371.000000,130448322.000000
103816550.000000,130628879.000000
104054764.000000,130777731.000000
104311375.000000,130891982.000000
104581390.000000,130969407.000000
104585740.000000,130970018.000000
104585743.000000,130970019.000000
104688690.000000,130984487.000000
104859552.000000,131008500.000000
105070146.000000,131008500.000000
105072332.000000,131008347.000000
105072336.000000,131008347.000000
105275827.000000,130994118.000000
105275832.000000,130994117.000000
105280212.000000,130993811.000000
105554970.000000,130935409.000000
105559099.000000,130933906.000000
105559103.000000,130933905.000000
105814781.000000,130840846.000000
105814785.000000,130840844.000000
105818926.000000,130839337.000000
106066942.000000,130707464.000000
106171896.000000,130631211.000000
106290629.000000,130544947.000000
106290632.000000,130544944.000000
106294192.000000,130542358.000000
106360860.000000,130477978.000000
106454519.000000,130387532.000000
106496252.000000,130347231.000000
106669188.000000,130125882.000000
106671384.000000,130122078.000000
106671389.000000,130122071.000000
106807435.000000,129886431.000000
106809636.000000,129882619.000000
106914862.000000,129622176.000000
106918401.000000,129607983.000000
106981753.000000,129353893.000000
106981754.000000,129353888.000000
106982817.000000,129349624.000000
107001622.000000,129170709.000000
107011719.000000,129074636.000000
107011719.000000,129074633.000000
107012178.000000,129070267.000000
107012025.000000,129065873.000000
107002529.000000,128793939.000000
107002528.000000,128793933.000000
107002375.000000,128789542.000000
107001020.000000,128781853.000000
106960378.000000,128551366.000000
106953598.000000,128512913.000000
106866797.000000,128245765.000000
106743660.000000,127993298.000000
106741205.000000,127989659.000000
106741202.000000,127989653.000000
106645340.000000,127847532.000000
106586585.000000,127760424.000000
106398629.000000,127551678.000000
106183450.000000,127371121.000000
105945236.000000,127222269.000000
105688625.000000,127108018.000000
105584846.000000,127078260.000000
173632464.000000,127078260.000000
173636248.000000,127087038.000000
174487188.000000,127937978.000000
174501132.000000,127945592.000000
174502965.000000,127945461.000000
174509580.000000,127941210.000000
175360709.000000,127090081.000000
175367469.000000,127077701.000000
175361742.000000,127070051.000000
175190722.000000,126965250.000000
175181928.000000,126960769.000000
174971853.000000,126873753.000000
174962468.000000,126870704.000000
174741366.000000,126817621.000000
174731619.000000,126816078.000000
174504930.000000,126798237.000000
174495070.000000,126798237.000000
174268381.000000,126816078.000000
174258634.000000,126817621.000000
174037532.000000,126870704.000000
174028147.000000,126873753.000000
173818072.000000,126960769.000000
173809278.000000,126965250.000000
173641924.000000,127067804.000000
173632464.000000,127078260.000000
105584846.000000,127078260.000000
105418610.000000,127030593.000000
105414260.000000,127029982.000000
105414257.000000,127029981.000000
105311310.000000,127015513.000000
105140448.000000,126991500.000000
104929854.000000,126991500.000000
104927668.000000,126991653.000000
104927664.000000,126991653.000000
104724173.000000,127005882.000000
104724168.000000,127005883.000000
104719788.000000,127006189.000000
104445030.000000,127064591.000000
104440901.000000,127066094.000000
104440897.000000,127066095.000000
104185219.000000,127159154.000000
104185215.000000,127159156.000000
104181074.000000,127160663.000000
103933058.000000,127292536.000000
103929499.000000,127295122.000000
103929497.000000,127295123.000000
103721491.000000,127446248.000000
103705808.000000,127457642.000000
103503748.000000,127652769.000000
103330812.000000,127874118.000000
103328616.000000,127877922.000000
103328611.000000,127877929.000000
103218508.000000,128068634.000000
103190364.000000,128117381.000000
103085138.000000,128377824.000000
103084073.000000,128382097.000000
103084072.000000,128382099.000000
103050379.000000,128517236.000000
103017183.000000,128650376.000000
103016724.000000,128654744.000000
103016723.000000,128654749.000000
103013857.000000,128682022.000000
102987822.000000,128929733.000000
100508500.000000,128929733.000000
100508500.000000,124478134.000000
142371500.000000,124478134.000000
142378255.000000,124540316.000000
142429385.000000,124676705.000000
142516739.000000,124793261.000000
142633295.000000,124880615.000000
142769684.000000,124931745.000000
142831866.000000,124938500.000000
146728134.000000,124938500.000000
146790316.000000,124931745.000000
146926705.000000,124880615.000000
147043261.000000,124793261.000000
147130615.000000,124676705.000000
147181745.000000,124540316.000000
147188500.000000,124478134.000000
147188500.000000,120881866.000000
147181745.000000,120819684.000000
147130615.000000,120683295.000000
147043261.000000,120566739.000000
146926705.000000,120479385.000000
146790316.000000,120428255.000000
146728134.000000,120421500.000000
142831866.000000,120421500.000000
142769684.000000,120428255.000000
142633295.000000,120479385.000000
142516739.000000,120566739.000000
142429385.000000,120683295.000000
142378255.000000,120819684.000000
142371500.000000,120881866.000000
142371500.000000,124478134.000000
100508500.000000,124478134.000000
100508500.000000,116747009.000000
119461875.000000,116747009.000000
119468630.000000,116809191.000000
119519760.000000,116945580.000000
119607114.000000,117062136.000000
119723670.000000,117149490.000000
119860059.000000,117200620.000000
119922241.000000,117207375.000000
123918509.000000,117207375.000000
123980691.000000,117200620.000000
124117080.000000,117149490.000000
124233636.000000,117062136.000000
124320990.000000,116945580.000000
124372120.000000,116809191.000000
124378875.000000,116747009.000000
124378875.000000,112350741.000000
124372120.000000,112288559.000000
124320990.000000,112152170.000000
124233636.000000,112035614.000000
124117080.000000,111948260.000000
123980691.000000,111897130.000000
123918509.000000,111890375.000000
119922241.000000,111890375.000000
119860059.000000,111897130.000000
119723670.000000,111948260.000000
119607114.000000,112035614.000000
119519760.000000,112152170.000000
119468630.000000,112288559.000000
119461875.000000,112350741.000000
119461875.000000,116747009.000000
100508500.000000,116747009.000000
100508500.000000,114429733.000000
103487822.000000,114429733.000000
103497625.000000,114710458.000000
103498387.000000,114714781.000000
103498388.000000,114714788.000000
103522164.000000,114849624.000000
103546402.000000,114987087.000000
103633203.000000,115254235.000000
103756340.000000,115506702.000000
103758795.000000,115510341.000000
103758798.000000,115510347.000000
103831890.000000,115618710.000000
103913415.000000,115739576.000000
104101371.000000,115948322.000000
104316550.000000,116128879.000000
104554764.000000,116277731.000000
104811375.000000,116391982.000000
105081390.000000,116469407.000000
105085740.000000,116470018.000000
105085743.000000,116470019.000000
105188690.000000,116484487.000000
105359552.000000,116508500.000000
105570146.000000,116508500.000000
105572332.000000,116508347.000000
105572336.000000,116508347.000000
105775827.000000,116494118.000000
105775832.000000,116494117.000000
105780212.000000,116493811.000000
106054970.000000,116435409.000000
106059099.000000,116433906.000000
106059103.000000,116433905.000000
106314781.000000,116340846.000000
106314785.000000,116340844.000000
106318926.000000,116339337.000000
106566942.000000,116207464.000000
106640850.000000,116153767.000000
106790629.000000,116044947.000000
106790632.000000,116044944.000000
106794192.000000,116042358.000000
106996252.000000,115847231.000000
107169188.000000,115625882.000000
107171384.000000,115622078.000000
107171389.000000,115622071.000000
107307435.000000,115386431.000000
107309636.000000,115382619.000000
107414862.000000,115122176.000000
107448544.000000,114987087.000000
107481753.000000,114853893.000000
107481754.000000,114853888.000000
107482817.000000,114849624.000000
107512178.000000,114570267.000000
107502375.000000,114289542.000000
107478608.000000,114154749.000000
107454360.000000,114017236.000000
107453598.000000,114012913.000000
107366797.000000,113745765.000000
107243660.000000,113493298.000000
107241205.000000,113489659.000000
107241202.000000,113489653.000000
107160935.000000,113370653.000000
107086585.000000,113260424.000000
106898629.000000,113051678.000000
106683450.000000,112871121.000000
106445236.000000,112722269.000000
106188625.000000,112608018.000000
105918610.000000,112530593.000000
105914260.000000,112529982.000000
105914257.000000,112529981.000000
105811310.000000,112515513.000000
105640448.000000,112491500.000000
105429854.000000,112491500.000000
105427668.000000,112491653.000000
105427664.000000,112491653.000000
105224173.000000,112505882.000000
105224168.000000,112505883.000000
105219788.000000,112506189.000000
104945030.000000,112564591.000000
104940901.000000,112566094.000000
104940897.000000,112566095.000000
104685219.000000,112659154.000000
104685215.000000,112659156.000000
104681074.000000,112660663.000000
104433058.000000,112792536.000000
104429499.000000,112795122.000000
104429497.000000,112795123.000000
104234579.000000,112936739.000000
104205808.000000,112957642.000000
104003748.000000,113152769.000000
103830812.000000,113374118.000000
103828616.000000,113377922.000000
103828611.000000,113377929.000000
103714794.000000,113575067.000000
103690364.000000,113617381.000000
103585138.000000,113877824.000000
103584073.000000,113882097.000000
103584072.000000,113882099.000000
103550379.000000,114017236.000000
103517183.000000,114150376.000000
103487822.000000,114429733.000000
100508500.000000,114429733.000000
100508500.000000,110620181.000000
100528502.000000,110552060.000000
100582158.000000,110505567.000000
100630706.000000,110494238.000000
100630822.000000,110494235.000000
100632871.000000,110494173.000000
100632884.000000,110494172.000000
100634777.000000,110494115.000000
101267238.000000,110436642.000000
101269091.000000,110436360.000000
101269099.000000,110436359.000000
101893202.000000,110341372.000000
101893200.000000,110341372.000000
101895075.000000,110341087.000000
102515996.000000,110207799.000000
103127738.000000,110037263.000000
103129542.000000,110036641.000000
103129550.000000,110036638.000000
103726265.000000,109830725.000000
103726280.000000,109830719.000000
103728066.000000,109830103.000000
103729808.000000,109829382.000000
103729825.000000,109829375.000000
104091091.000000,109679733.000000
163987822.000000,109679733.000000
163987975.000000,109684121.000000
163987975.000000,109684127.000000
163996138.000000,109917864.000000
163997625.000000,109960458.000000
163998387.000000,109964781.000000
163998388.000000,109964788.000000
164022164.000000,110099624.000000
164046402.000000,110237087.000000
164133203.000000,110504235.000000
164135131.000000,110508188.000000
164135133.000000,110508193.000000
164156529.000000,110552060.000000
164256340.000000,110756702.000000
164258795.000000,110760341.000000
164258798.000000,110760347.000000
164331890.000000,110868710.000000
164413415.000000,110989576.000000
164601371.000000,111198322.000000
164604733.000000,111201143.000000
164604734.000000,111201144.000000
164669105.000000,111255157.000000
164816550.000000,111378879.000000
165054764.000000,111527731.000000
165311375.000000,111641982.000000
165581390.000000,111719407.000000
165585740.000000,111720018.000000
165585743.000000,111720019.000000
165688690.000000,111734487.000000
165859552.000000,111758500.000000
166070146.000000,111758500.000000
166072332.000000,111758347.000000
166072336.000000,111758347.000000
166275827.000000,111744118.000000
166275832.000000,111744117.000000
166280212.000000,111743811.000000
166554970.000000,111685409.000000
166559099.000000,111683906.000000
166559103.000000,111683905.000000
166814781.000000,111590846.000000
166814785.000000,111590844.000000
166818926.000000,111589337.000000
167066942.000000,111457464.000000
167171896.000000,111381211.000000
167290629.000000,111294947.000000
167290632.000000,111294944.000000
167294192.000000,111292358.000000
167496252.000000,111097231.000000
167607257.000000,110955151.000000
178287296.000000,110955151.000000
178287520.000000,110959817.000000
178287520.000000,110959822.000000
178289107.000000,110992848.000000
178299480.000000,111208798.000000
178349021.000000,111457857.000000
178350600.000000,111462255.000000
178350602.000000,111462262.000000
178415564.000000,111643194.000000
178434831.000000,111696858.000000
178437048.000000,111700984.000000
178542441.000000,111897130.000000
178555025.000000,111920551.000000
178557820.000000,111924294.000000
178557822.000000,111924297.000000
178704171.000000,112120282.000000
178704176.000000,112120288.000000
178706963.000000,112124020.000000
178710272.000000,112127300.000000
178710277.000000,112127306.000000
178808859.000000,112225031.000000
178887307.000000,112302797.000000
178891069.000000,112305555.000000
178891072.000000,112305558.000000
178996764.000000,112383054.000000
179092094.000000,112452953.000000
179096229.000000,112455129.000000
179096233.000000,112455131.000000
179284137.000000,112553992.000000
179335109.000000,112603411.000000
179351272.000000,112672544.000000
179327493.000000,112739440.000000
179271322.000000,112782860.000000
179225469.000000,112791500.000000
178751866.000000,112791500.000000
178689684.000000,112798255.000000
178553295.000000,112849385.000000
178436739.000000,112936739.000000
178349385.000000,113053295.000000
178298255.000000,113189684.000000
178291500.000000,113251866.000000
178291500.000000,115748134.000000
178298255.000000,115810316.000000
178349385.000000,115946705.000000
178436739.000000,116063261.000000
178553295.000000,116150615.000000
178689684.000000,116201745.000000
178751866.000000,116208500.000000
181248134.000000,116208500.000000
181310316.000000,116201745.000000
181446705.000000,116150615.000000
181563261.000000,116063261.000000
181650615.000000,115946705.000000
181701745.000000,115810316.000000
181708500.000000,115748134.000000
181708500.000000,113251866.000000
181701745.000000,113189684.000000
181650615.000000,113053295.000000
181563261.000000,112936739.000000
181446705.000000,112849385.000000
181310316.000000,112798255.000000
181248134.000000,112791500.000000
180770964.000000,112791500.000000
180702843.000000,112771498.000000
180656350.000000,112717842.000000
180646246.000000,112647568.000000
180675740.000000,112582988.000000
180721225.000000,112549733.000000
180791110.000000,112519708.000000
180795090.000000,112517245.000000
180795094.000000,112517243.000000
181003064.000000,112388547.000000
181003066.000000,112388545.000000
181007047.000000,112386082.000000
181048794.000000,112350741.000000
181197289.000000,112225031.000000
181197291.000000,112225029.000000
181200862.000000,112222006.000000
181368295.000000,112031084.000000
181505669.000000,111817512.000000
181609967.000000,111585980.000000
181678896.000000,111341575.000000
181710943.000000,111089667.000000
181713291.000000,111000000.000000
181704325.000000,110879347.000000
181694818.000000,110751411.000000
181694817.000000,110751407.000000
181694472.000000,110746759.000000
181667722.000000,110628539.000000
181642320.000000,110516282.000000
181638428.000000,110499082.000000
181636519.000000,110494173.000000
181548084.000000,110266762.000000
181548083.000000,110266760.000000
181546391.000000,110262409.000000
181534306.000000,110241265.000000
181422702.000000,110045997.000000
181422700.000000,110045995.000000
181420383.000000,110041940.000000
181263171.000000,109842517.000000
181090126.000000,109679733.000000
181081610.000000,109671722.000000
181081608.000000,109671720.000000
181078209.000000,109668523.000000
180937085.000000,109570622.000000
180873393.000000,109526437.000000
180873390.000000,109526435.000000
180869561.000000,109523779.000000
180865384.000000,109521719.000000
180865377.000000,109521715.000000
180645996.000000,109413528.000000
180645992.000000,109413527.000000
180641810.000000,109411464.000000
180399960.000000,109334047.000000
180395355.000000,109333297.000000
180153935.000000,109293980.000000
180153934.000000,109293980.000000
180149323.000000,109293229.000000
180022365.000000,109291567.000000
179900083.000000,109289966.000000
179900080.000000,109289966.000000
179895406.000000,109289905.000000
179643787.000000,109324149.000000
179399993.000000,109395208.000000
179395740.000000,109397168.000000
179395739.000000,109397169.000000
179347460.000000,109419426.000000
179169380.000000,109501522.000000
179165471.000000,109504085.000000
178960928.000000,109638189.000000
178960923.000000,109638193.000000
178957015.000000,109640755.000000
178767562.000000,109809848.000000
178605183.000000,110005087.000000
178473447.000000,110222182.000000
178471638.000000,110226496.000000
178471637.000000,110226498.000000
178383445.000000,110436813.000000
178375246.000000,110456365.000000
178374095.000000,110460897.000000
178374094.000000,110460900.000000
178362750.000000,110505567.000000
178312738.000000,110702490.000000
178287296.000000,110955151.000000
167607257.000000,110955151.000000
167669188.000000,110875882.000000
167671384.000000,110872078.000000
167671389.000000,110872071.000000
167807435.000000,110636431.000000
167809636.000000,110632619.000000
167914862.000000,110372176.000000
167922542.000000,110341372.000000
167981753.000000,110103893.000000
167981754.000000,110103888.000000
167982817.000000,110099624.000000
167988454.000000,110045997.000000
168011719.000000,109824636.000000
168011719.000000,109824633.000000
168012178.000000,109820267.000000
168012025.000000,109815873.000000
168002529.000000,109543939.000000
168002528.000000,109543933.000000
168002375.000000,109539542.000000
168000065.000000,109526437.000000
167966141.000000,109334047.000000
167953598.000000,109262913.000000
167866797.000000,108995765.000000
167743660.000000,108743298.000000
167741205.000000,108739659.000000
167741202.000000,108739653.000000
167639022.000000,108588166.000000
167586585.000000,108510424.000000
167398629.000000,108301678.000000
167350599.000000,108261376.000000
167314424.000000,108231021.000000
167275098.000000,108171912.000000
167273972.000000,108100924.000000
167311403.000000,108040596.000000
167375508.000000,108010083.000000
167395416.000000,108008500.000000
167570146.000000,108008500.000000
167572332.000000,108008347.000000
167572336.000000,108008347.000000
167775827.000000,107994118.000000
167775832.000000,107994117.000000
167780212.000000,107993811.000000
168054970.000000,107935409.000000
168059099.000000,107933906.000000
168059103.000000,107933905.000000
168314781.000000,107840846.000000
168314785.000000,107840844.000000
168318926.000000,107839337.000000
168566942.000000,107707464.000000
168570503.000000,107704877.000000
168790629.000000,107544947.000000
168790632.000000,107544944.000000
168794192.000000,107542358.000000
168996252.000000,107347231.000000
169169188.000000,107125882.000000
169171384.000000,107122078.000000
169171389.000000,107122071.000000
169307435.000000,106886431.000000
169309636.000000,106882619.000000
169414862.000000,106622176.000000
169415928.000000,106617901.000000
169481753.000000,106353893.000000
169481754.000000,106353888.000000
169482817.000000,106349624.000000
169512178.000000,106070267.000000
169512025.000000,106065873.000000
169502529.000000,105793939.000000
169502528.000000,105793933.000000
169502375.000000,105789542.000000
169478608.000000,105654749.000000
169470630.000000,105609506.000000
169453598.000000,105512913.000000
169366797.000000,105245765.000000
169243660.000000,104993298.000000
169241205.000000,104989659.000000
169241202.000000,104989653.000000
169160935.000000,104870653.000000
169086585.000000,104760424.000000
168898629.000000,104551678.000000
168683450.000000,104371121.000000
168445236.000000,104222269.000000
168188625.000000,104108018.000000
167918610.000000,104030593.000000
167914260.000000,104029982.000000
167914257.000000,104029981.000000
167811310.000000,104015513.000000
167640448.000000,103991500.000000
167429854.000000,103991500.000000
167427668.000000,103991653.000000
167427664.000000,103991653.000000
167224173.000000,104005882.000000
167224168.000000,104005883.000000
167219788.000000,104006189.000000
166945030.000000,104064591.000000
166940901.000000,104066094.000000
166940897.000000,104066095.000000
166685219.000000,104159154.000000
166685215.000000,104159156.000000
166681074.000000,104160663.000000
166433058.000000,104292536.000000
166429499.000000,104295122.000000
166429497.000000,104295123.000000
166324895.000000,104371121.000000
166205808.000000,104457642.000000
166003748.000000,104652769.000000
165830812.000000,104874118.000000
165828616.000000,104877922.000000
165828611.000000,104877929.000000
165714794.000000,105075068.000000
165690364.000000,105117381.000000
165585138.000000,105377824.000000
165584073.000000,105382097.000000
165584072.000000,105382099.000000
165550379.000000,105517236.000000
165517183.000000,105650376.000000
165487822.000000,105929733.000000
165487975.000000,105934121.000000
165487975.000000,105934127.000000
165492026.000000,106050110.000000
165497625.000000,106210458.000000
165498387.000000,106214781.000000
165498388.000000,106214788.000000
165522164.000000,106349624.000000
165546402.000000,106487087.000000
165633203.000000,106754235.000000
165756340.000000,107006702.000000
165758795.000000,107010341.000000
165758798.000000,107010347.000000
165831890.000000,107118710.000000
165913415.000000,107239576.000000
166101371.000000,107448322.000000
166149401.000000,107488624.000000
166185576.000000,107518979.000000
166224902.000000,107578088.000000
166226028.000000,107649076.000000
166188597.000000,107709404.000000
166124492.000000,107739917.000000
166104584.000000,107741500.000000
165929854.000000,107741500.000000
165927668.000000,107741653.000000
165927664.000000,107741653.000000
165724173.000000,107755882.000000
165724168.000000,107755883.000000
165719788.000000,107756189.000000
165445030.000000,107814591.000000
165440901.000000,107816094.000000
165440897.000000,107816095.000000
165185219.000000,107909154.000000
165185215.000000,107909156.000000
165181074.000000,107910663.000000
164933058.000000,108042536.000000
164929499.000000,108045122.000000
164929497.000000,108045123.000000
164824895.000000,108121121.000000
164705808.000000,108207642.000000
164503748.000000,108402769.000000
164330812.000000,108624118.000000
164328616.000000,108627922.000000
164328611.000000,108627929.000000
164214848.000000,108824974.000000
164190364.000000,108867381.000000
164085138.000000,109127824.000000
164084073.000000,109132097.000000
164084072.000000,109132099.000000
164018472.000000,109395208.000000
164017183.000000,109400376.000000
164016724.000000,109404744.000000
164016723.000000,109404749.000000
163989156.000000,109667042.000000
163987822.000000,109679733.000000
104091091.000000,109679733.000000
104262395.000000,109608776.000000
104314791.000000,109587073.000000
104316504.000000,109586239.000000
104316515.000000,109586234.000000
104884061.000000,109309894.000000
104885772.000000,109309061.000000
105438926.000000,108997082.000000
105440506.000000,108996060.000000
105440515.000000,108996055.000000
105970633.000000,108653308.000000
105970645.000000,108653300.000000
105972233.000000,108652273.000000
105973758.000000,108651151.000000
105973768.000000,108651144.000000
106482207.000000,108277027.000000
106482209.000000,108277025.000000
106483748.000000,108275893.000000
106608516.000000,108171912.000000
106970144.000000,107870533.000000
106970152.000000,107870526.000000
106971605.000000,107869315.000000
107434023.000000,107434023.000000
107869315.000000,106971605.000000
108053962.000000,106750046.000000
108274672.000000,106485213.000000
108275893.000000,106483748.000000
108371442.000000,106353893.000000
108651144.000000,105973768.000000
108651151.000000,105973758.000000
108652273.000000,105972233.000000
108653300.000000,105970645.000000
108653308.000000,105970633.000000
108996055.000000,105440515.000000
108996060.000000,105440506.000000
108997082.000000,105438926.000000
109309061.000000,104885772.000000
109559646.000000,104371121.000000
109586234.000000,104316515.000000
109586239.000000,104316504.000000
109587073.000000,104314791.000000
109672721.000000,104108018.000000
109829375.000000,103729825.000000
109829382.000000,103729808.000000
109830103.000000,103728066.000000
109830719.000000,103726280.000000
109830725.000000,103726265.000000
110036638.000000,103129550.000000
110036641.000000,103129542.000000
110037263.000000,103127738.000000
110207799.000000,102515996.000000
110341087.000000,101895075.000000
110436642.000000,101267238.000000
110494115.000000,100634777.000000
110494238.000000,100630706.000000
110516282.000000,100563218.000000
110571314.000000,100518362.000000
110620181.000000,100508500.000000
179379819.000000,100508500.000000
Z" /> 
</g>
</g>
</g> 
</svg>
