G04 #@! TF.GenerationSoftware,KiCad,Pcbnew,6.0.11-2627ca5db0~126~ubuntu20.04.1*
G04 #@! TF.CreationDate,2023-10-18T23:30:25-05:00*
G04 #@! TF.ProjectId,lir-multi-charger,6c69722d-6d75-46c7-9469-2d6368617267,rev?*
G04 #@! TF.SameCoordinates,Original*
G04 #@! TF.FileFunction,Soldermask,Top*
G04 #@! TF.FilePolarity,Negative*
%FSLAX46Y46*%
G04 Gerber Fmt 4.6, Leading zero omitted, Abs format (unit mm)*
G04 Created by KiCad (PCBNEW 6.0.11-2627ca5db0~126~ubuntu20.04.1) date 2023-10-18 23:30:25*
%MOMM*%
%LPD*%
G01*
G04 APERTURE LIST*
G04 Aperture macros list*
%AMRoundRect*
0 Rectangle with rounded corners*
0 $1 Rounding radius*
0 $2 $3 $4 $5 $6 $7 $8 $9 X,Y pos of 4 corners*
0 Add a 4 corners polygon primitive as box body*
4,1,4,$2,$3,$4,$5,$6,$7,$8,$9,$2,$3,0*
0 Add four circle primitives for the rounded corners*
1,1,$1+$1,$2,$3*
1,1,$1+$1,$4,$5*
1,1,$1+$1,$6,$7*
1,1,$1+$1,$8,$9*
0 Add four rect primitives between the rounded corners*
20,1,$1+$1,$2,$3,$4,$5,0*
20,1,$1+$1,$4,$5,$6,$7,0*
20,1,$1+$1,$6,$7,$8,$9,0*
20,1,$1+$1,$8,$9,$2,$3,0*%
%AMFreePoly0*
4,1,22,0.500000,-0.750000,0.000000,-0.750000,0.000000,-0.745033,-0.079941,-0.743568,-0.215256,-0.701293,-0.333266,-0.622738,-0.424486,-0.514219,-0.481581,-0.384460,-0.499164,-0.250000,-0.500000,-0.250000,-0.500000,0.250000,-0.499164,0.250000,-0.499963,0.256109,-0.478152,0.396186,-0.417904,0.524511,-0.324060,0.630769,-0.204165,0.706417,-0.067858,0.745374,0.000000,0.744959,0.000000,0.750000,
0.500000,0.750000,0.500000,-0.750000,0.500000,-0.750000,$1*%
%AMFreePoly1*
4,1,20,0.000000,0.744959,0.073905,0.744508,0.209726,0.703889,0.328688,0.626782,0.421226,0.519385,0.479903,0.390333,0.500000,0.250000,0.500000,-0.250000,0.499851,-0.262216,0.476331,-0.402017,0.414519,-0.529596,0.319384,-0.634700,0.198574,-0.708877,0.061801,-0.746166,0.000000,-0.745033,0.000000,-0.750000,-0.500000,-0.750000,-0.500000,0.750000,0.000000,0.750000,0.000000,0.744959,
0.000000,0.744959,$1*%
G04 Aperture macros list end*
G04 #@! TA.AperFunction,Profile*
%ADD10C,0.050000*%
G04 #@! TD*
%ADD11C,3.000000*%
%ADD12C,1.998980*%
%ADD13RoundRect,0.250000X-0.450000X0.350000X-0.450000X-0.350000X0.450000X-0.350000X0.450000X0.350000X0*%
%ADD14R,1.700000X1.700000*%
%ADD15O,1.700000X1.700000*%
%ADD16RoundRect,0.250000X0.475000X-0.337500X0.475000X0.337500X-0.475000X0.337500X-0.475000X-0.337500X0*%
%ADD17RoundRect,0.250000X0.450000X-0.350000X0.450000X0.350000X-0.450000X0.350000X-0.450000X-0.350000X0*%
%ADD18RoundRect,0.250000X-0.450000X0.325000X-0.450000X-0.325000X0.450000X-0.325000X0.450000X0.325000X0*%
%ADD19FreePoly0,270.000000*%
%ADD20FreePoly1,270.000000*%
%ADD21R,0.900000X1.200000*%
%ADD22RoundRect,0.150000X-0.675000X-0.150000X0.675000X-0.150000X0.675000X0.150000X-0.675000X0.150000X0*%
%ADD23R,2.700000X3.800000*%
%ADD24RoundRect,0.250000X-0.475000X0.337500X-0.475000X-0.337500X0.475000X-0.337500X0.475000X0.337500X0*%
%ADD25R,3.800000X3.500000*%
%ADD26R,2.800000X5.700000*%
%ADD27C,1.200000*%
%ADD28R,2.300000X4.400000*%
%ADD29R,2.300000X4.000000*%
%ADD30C,1.700000*%
%ADD31C,0.650000*%
%ADD32R,1.450000X0.600000*%
%ADD33R,1.450000X0.300000*%
%ADD34O,2.100000X1.000000*%
%ADD35O,1.600000X1.000000*%
%ADD36R,3.900000X4.300000*%
%ADD37R,3.000000X6.500000*%
G04 APERTURE END LIST*
D10*
X180000000Y-100000000D02*
G75*
G03*
X190000000Y-110000000I10000000J0D01*
G01*
X110000000Y-100000000D02*
X180000000Y-100000000D01*
X190000000Y-148000000D02*
G75*
G03*
X180000000Y-158000000I0J-10000000D01*
G01*
X110000000Y-158000000D02*
X180000000Y-158000000D01*
X100000000Y-110000000D02*
X100000000Y-148000000D01*
X100000000Y-110000000D02*
G75*
G03*
X110000000Y-100000000I0J10000000D01*
G01*
X190000000Y-110000000D02*
X190000000Y-148000000D01*
X110000000Y-158000000D02*
G75*
G03*
X100000000Y-148000000I-10000000J0D01*
G01*
D11*
X105000000Y-129000000D03*
X122500000Y-152000000D03*
X185000000Y-129000000D03*
X167500000Y-152000000D03*
D12*
X186690000Y-139700000D03*
X186690000Y-143510000D03*
D11*
X167500000Y-106000000D03*
X105500000Y-114500000D03*
X166000000Y-109750000D03*
D13*
X139700000Y-101870000D03*
X139700000Y-103870000D03*
D14*
X156464000Y-112500000D03*
D15*
X156464000Y-115040000D03*
D16*
X158085000Y-120147500D03*
X158085000Y-118072500D03*
D17*
X161270000Y-145780000D03*
X161270000Y-143780000D03*
D18*
X134620000Y-151375000D03*
X134620000Y-153425000D03*
D19*
X153116000Y-113458000D03*
D20*
X153116000Y-114758000D03*
D13*
X160020000Y-109490000D03*
X160020000Y-111490000D03*
X149590000Y-101870000D03*
X149590000Y-103870000D03*
D19*
X173736000Y-122286000D03*
D20*
X173736000Y-123586000D03*
D17*
X138430000Y-145780000D03*
X138430000Y-143780000D03*
D18*
X174060000Y-151375000D03*
X174060000Y-153425000D03*
D21*
X172880000Y-110490000D03*
X176180000Y-110490000D03*
D13*
X160020000Y-101870000D03*
X160020000Y-103870000D03*
D14*
X177292000Y-121920000D03*
D15*
X177292000Y-124460000D03*
D22*
X161205000Y-117475000D03*
X161205000Y-118745000D03*
X161205000Y-120015000D03*
X161205000Y-121285000D03*
X166455000Y-121285000D03*
X166455000Y-120015000D03*
X166455000Y-118745000D03*
X166455000Y-117475000D03*
D23*
X163830000Y-119380000D03*
D18*
X152400000Y-151375000D03*
X152400000Y-153425000D03*
D13*
X139700000Y-105680000D03*
X139700000Y-107680000D03*
X149590000Y-105680000D03*
X149590000Y-107680000D03*
X160020000Y-105680000D03*
X160020000Y-107680000D03*
D24*
X142240000Y-120882500D03*
X142240000Y-122957500D03*
X163830000Y-123422500D03*
X163830000Y-125497500D03*
D13*
X139700000Y-109490000D03*
X139700000Y-111490000D03*
D16*
X137160000Y-122957500D03*
X137160000Y-120882500D03*
D25*
X151000000Y-122200000D03*
D26*
X151000000Y-144700000D03*
D14*
X177800000Y-106680000D03*
D15*
X177800000Y-104140000D03*
D27*
X173500000Y-133700000D03*
X173500000Y-141200000D03*
D28*
X173500000Y-129600000D03*
D29*
X173500000Y-145600000D03*
D17*
X181610000Y-147050000D03*
X181610000Y-145050000D03*
X163830000Y-145780000D03*
X163830000Y-143780000D03*
D13*
X149590000Y-109490000D03*
X149590000Y-111490000D03*
D19*
X129840000Y-107870000D03*
D20*
X129840000Y-109170000D03*
D22*
X131995000Y-113665000D03*
X131995000Y-114935000D03*
X131995000Y-116205000D03*
X131995000Y-117475000D03*
X137245000Y-117475000D03*
X137245000Y-116205000D03*
X137245000Y-114935000D03*
X137245000Y-113665000D03*
D23*
X134620000Y-115570000D03*
D30*
X177800000Y-115316000D03*
D15*
X177800000Y-117856000D03*
D18*
X178540000Y-151375000D03*
X178540000Y-153425000D03*
D24*
X139700000Y-125962500D03*
X139700000Y-128037500D03*
D18*
X129540000Y-151375000D03*
X129540000Y-153425000D03*
D31*
X182820000Y-119730000D03*
X182820000Y-113950000D03*
D32*
X181375000Y-120090000D03*
X181375000Y-119290000D03*
D33*
X181375000Y-118090000D03*
X181375000Y-117090000D03*
X181375000Y-116590000D03*
X181375000Y-115590000D03*
D32*
X181375000Y-114390000D03*
X181375000Y-113590000D03*
X181375000Y-113590000D03*
X181375000Y-114390000D03*
D33*
X181375000Y-115090000D03*
X181375000Y-116090000D03*
X181375000Y-117590000D03*
X181375000Y-118590000D03*
D32*
X181375000Y-119290000D03*
X181375000Y-120090000D03*
D34*
X182290000Y-121160000D03*
X182290000Y-112520000D03*
D35*
X186470000Y-121160000D03*
X186470000Y-112520000D03*
D36*
X122500000Y-113741000D03*
D37*
X122500000Y-144350000D03*
D13*
X173800000Y-117110000D03*
X173800000Y-119110000D03*
D21*
X170880000Y-114300000D03*
X174180000Y-114300000D03*
D13*
X170900000Y-117110000D03*
X170900000Y-119110000D03*
D14*
X133604000Y-107437000D03*
D15*
X133604000Y-109977000D03*
D17*
X179070000Y-147050000D03*
X179070000Y-145050000D03*
D22*
X144695000Y-113665000D03*
X144695000Y-114935000D03*
X144695000Y-116205000D03*
X144695000Y-117475000D03*
X149945000Y-117475000D03*
X149945000Y-116205000D03*
X149945000Y-114935000D03*
X149945000Y-113665000D03*
D23*
X147320000Y-115570000D03*
D16*
X141595000Y-116607500D03*
X141595000Y-114532500D03*
D18*
X157480000Y-151375000D03*
X157480000Y-153425000D03*
D17*
X135128000Y-145764000D03*
X135128000Y-143764000D03*
M02*
