G04 #@! TF.GenerationSoftware,KiCad,Pcbnew,7.0.11+dfsg-1build4*
G04 #@! TF.CreationDate,2025-09-21T21:37:11-05:00*
G04 #@! TF.ProjectId,lir-multi-charger,6c69722d-6d75-46c7-9469-2d6368617267,rev?*
G04 #@! TF.SameCoordinates,Original*
G04 #@! TF.FileFunction,Copper,L1,Top*
G04 #@! TF.FilePolarity,Positive*
%FSLAX46Y46*%
G04 Gerber Fmt 4.6, Leading zero omitted, Abs format (unit mm)*
G04 Created by KiCad (PCBNEW 7.0.11+dfsg-1build4) date 2025-09-21 21:37:11*
%MOMM*%
%LPD*%
G01*
G04 APERTURE LIST*
G04 Aperture macros list*
%AMRoundRect*
0 Rectangle with rounded corners*
0 $1 Rounding radius*
0 $2 $3 $4 $5 $6 $7 $8 $9 X,Y pos of 4 corners*
0 Add a 4 corners polygon primitive as box body*
4,1,4,$2,$3,$4,$5,$6,$7,$8,$9,$2,$3,0*
0 Add four circle primitives for the rounded corners*
1,1,$1+$1,$2,$3*
1,1,$1+$1,$4,$5*
1,1,$1+$1,$6,$7*
1,1,$1+$1,$8,$9*
0 Add four rect primitives between the rounded corners*
20,1,$1+$1,$2,$3,$4,$5,0*
20,1,$1+$1,$4,$5,$6,$7,0*
20,1,$1+$1,$6,$7,$8,$9,0*
20,1,$1+$1,$8,$9,$2,$3,0*%
%AMFreePoly0*
4,1,19,0.500000,-0.750000,0.000000,-0.750000,0.000000,-0.744911,-0.071157,-0.744911,-0.207708,-0.704816,-0.327430,-0.627875,-0.420627,-0.520320,-0.479746,-0.390866,-0.500000,-0.250000,-0.500000,0.250000,-0.479746,0.390866,-0.420627,0.520320,-0.327430,0.627875,-0.207708,0.704816,-0.071157,0.744911,0.000000,0.744911,0.000000,0.750000,0.500000,0.750000,0.500000,-0.750000,0.500000,-0.750000,
$1*%
%AMFreePoly1*
4,1,19,0.000000,0.744911,0.071157,0.744911,0.207708,0.704816,0.327430,0.627875,0.420627,0.520320,0.479746,0.390866,0.500000,0.250000,0.500000,-0.250000,0.479746,-0.390866,0.420627,-0.520320,0.327430,-0.627875,0.207708,-0.704816,0.071157,-0.744911,0.000000,-0.744911,0.000000,-0.750000,-0.500000,-0.750000,-0.500000,0.750000,0.000000,0.750000,0.000000,0.744911,0.000000,0.744911,
$1*%
G04 Aperture macros list end*
G04 #@! TA.AperFunction,SMDPad,CuDef*
%ADD10RoundRect,0.250000X-0.450000X0.350000X-0.450000X-0.350000X0.450000X-0.350000X0.450000X0.350000X0*%
G04 #@! TD*
G04 #@! TA.AperFunction,SMDPad,CuDef*
%ADD11R,3.800000X3.500000*%
G04 #@! TD*
G04 #@! TA.AperFunction,SMDPad,CuDef*
%ADD12R,2.800000X5.700000*%
G04 #@! TD*
G04 #@! TA.AperFunction,ComponentPad*
%ADD13R,2.400000X2.400000*%
G04 #@! TD*
G04 #@! TA.AperFunction,ComponentPad*
%ADD14C,2.400000*%
G04 #@! TD*
G04 #@! TA.AperFunction,SMDPad,CuDef*
%ADD15RoundRect,0.250000X0.450000X-0.350000X0.450000X0.350000X-0.450000X0.350000X-0.450000X-0.350000X0*%
G04 #@! TD*
G04 #@! TA.AperFunction,SMDPad,CuDef*
%ADD16RoundRect,0.250000X0.475000X-0.337500X0.475000X0.337500X-0.475000X0.337500X-0.475000X-0.337500X0*%
G04 #@! TD*
G04 #@! TA.AperFunction,SMDPad,CuDef*
%ADD17FreePoly0,270.000000*%
G04 #@! TD*
G04 #@! TA.AperFunction,SMDPad,CuDef*
%ADD18FreePoly1,270.000000*%
G04 #@! TD*
G04 #@! TA.AperFunction,ComponentPad*
%ADD19R,1.700000X1.700000*%
G04 #@! TD*
G04 #@! TA.AperFunction,ComponentPad*
%ADD20O,1.700000X1.700000*%
G04 #@! TD*
G04 #@! TA.AperFunction,SMDPad,CuDef*
%ADD21R,2.300000X4.400000*%
G04 #@! TD*
G04 #@! TA.AperFunction,SMDPad,CuDef*
%ADD22R,2.300000X4.000000*%
G04 #@! TD*
G04 #@! TA.AperFunction,SMDPad,CuDef*
%ADD23RoundRect,0.250000X-0.450000X0.325000X-0.450000X-0.325000X0.450000X-0.325000X0.450000X0.325000X0*%
G04 #@! TD*
G04 #@! TA.AperFunction,SMDPad,CuDef*
%ADD24RoundRect,0.225000X-0.225000X-0.375000X0.225000X-0.375000X0.225000X0.375000X-0.225000X0.375000X0*%
G04 #@! TD*
G04 #@! TA.AperFunction,ComponentPad*
%ADD25R,0.850000X0.850000*%
G04 #@! TD*
G04 #@! TA.AperFunction,SMDPad,CuDef*
%ADD26RoundRect,0.250000X-0.475000X0.337500X-0.475000X-0.337500X0.475000X-0.337500X0.475000X0.337500X0*%
G04 #@! TD*
G04 #@! TA.AperFunction,SMDPad,CuDef*
%ADD27RoundRect,0.162500X-0.617500X-0.162500X0.617500X-0.162500X0.617500X0.162500X-0.617500X0.162500X0*%
G04 #@! TD*
G04 #@! TA.AperFunction,SMDPad,CuDef*
%ADD28R,1.450000X0.600000*%
G04 #@! TD*
G04 #@! TA.AperFunction,SMDPad,CuDef*
%ADD29R,1.450000X0.300000*%
G04 #@! TD*
G04 #@! TA.AperFunction,ComponentPad*
%ADD30O,2.100000X1.000000*%
G04 #@! TD*
G04 #@! TA.AperFunction,ComponentPad*
%ADD31O,1.600000X1.000000*%
G04 #@! TD*
G04 #@! TA.AperFunction,SMDPad,CuDef*
%ADD32R,3.900000X4.300000*%
G04 #@! TD*
G04 #@! TA.AperFunction,SMDPad,CuDef*
%ADD33R,3.000000X6.500000*%
G04 #@! TD*
G04 #@! TA.AperFunction,ViaPad*
%ADD34C,0.800000*%
G04 #@! TD*
G04 #@! TA.AperFunction,Conductor*
%ADD35C,0.250000*%
G04 #@! TD*
G04 #@! TA.AperFunction,Profile*
%ADD36C,0.050000*%
G04 #@! TD*
G04 APERTURE END LIST*
G04 #@! TA.AperFunction,EtchedComponent*
G36*
X153416000Y-114358000D02*
G01*
X152816000Y-114358000D01*
X152816000Y-113858000D01*
X153416000Y-113858000D01*
X153416000Y-114358000D01*
G37*
G04 #@! TD.AperFunction*
G04 #@! TA.AperFunction,EtchedComponent*
G36*
X174036000Y-123186000D02*
G01*
X173436000Y-123186000D01*
X173436000Y-122686000D01*
X174036000Y-122686000D01*
X174036000Y-123186000D01*
G37*
G04 #@! TD.AperFunction*
G04 #@! TA.AperFunction,EtchedComponent*
G36*
X130140000Y-108770000D02*
G01*
X129540000Y-108770000D01*
X129540000Y-108270000D01*
X130140000Y-108270000D01*
X130140000Y-108770000D01*
G37*
G04 #@! TD.AperFunction*
D10*
X139700000Y-101870000D03*
X139700000Y-103870000D03*
D11*
X151000000Y-122200000D03*
D12*
X151000000Y-144700000D03*
D13*
X153000000Y-153300000D03*
D14*
X156500000Y-153300000D03*
D13*
X173700000Y-153300000D03*
D14*
X177200000Y-153300000D03*
D15*
X168402000Y-125333000D03*
X168402000Y-123333000D03*
D16*
X158085000Y-120147500D03*
X158085000Y-118072500D03*
D15*
X138500000Y-143500000D03*
X138500000Y-141500000D03*
D17*
X153116000Y-113458000D03*
D18*
X153116000Y-114758000D03*
D10*
X160020000Y-109490000D03*
X160020000Y-111490000D03*
X149590000Y-101870000D03*
X149590000Y-103870000D03*
D17*
X173736000Y-122286000D03*
D18*
X173736000Y-123586000D03*
D19*
X177292000Y-121920000D03*
D20*
X177292000Y-124460000D03*
D21*
X173500000Y-129600000D03*
D22*
X173500000Y-145600000D03*
D23*
X161500000Y-145775000D03*
X161500000Y-147825000D03*
D19*
X133604000Y-107437000D03*
D20*
X133604000Y-109977000D03*
D10*
X160020000Y-101870000D03*
X160020000Y-103870000D03*
D24*
X170880000Y-114300000D03*
X174180000Y-114300000D03*
D23*
X138500000Y-145775000D03*
X138500000Y-147825000D03*
D13*
X130000000Y-153300000D03*
D14*
X133500000Y-153300000D03*
D10*
X139700000Y-105680000D03*
X139700000Y-107680000D03*
X149590000Y-105680000D03*
X149590000Y-107680000D03*
X160020000Y-105680000D03*
X160020000Y-107680000D03*
D25*
X186690000Y-139700000D03*
D26*
X140589000Y-120882500D03*
X140589000Y-122957500D03*
D27*
X145716000Y-114239000D03*
X145716000Y-115189000D03*
X145716000Y-116139000D03*
X148416000Y-116139000D03*
X148416000Y-115189000D03*
X148416000Y-114239000D03*
D26*
X163830000Y-123422500D03*
X163830000Y-125497500D03*
D19*
X177800000Y-106680000D03*
D20*
X177800000Y-104140000D03*
D10*
X139700000Y-109490000D03*
X139700000Y-111490000D03*
D16*
X137160000Y-122957500D03*
X137160000Y-120882500D03*
D27*
X163369000Y-116017000D03*
X163369000Y-116967000D03*
X163369000Y-117917000D03*
X166069000Y-117917000D03*
X166069000Y-116967000D03*
X166069000Y-116017000D03*
D10*
X149590000Y-109490000D03*
X149590000Y-111490000D03*
D17*
X129840000Y-107870000D03*
D18*
X129840000Y-109170000D03*
D19*
X156464000Y-112500000D03*
D20*
X156464000Y-115040000D03*
D26*
X139700000Y-125962500D03*
X139700000Y-128037500D03*
D23*
X110000000Y-145775000D03*
X110000000Y-147825000D03*
D15*
X145288000Y-120380000D03*
X145288000Y-118380000D03*
D19*
X177800000Y-115316000D03*
D20*
X177800000Y-117856000D03*
D24*
X172880000Y-110490000D03*
X176180000Y-110490000D03*
D10*
X173800000Y-117110000D03*
X173800000Y-119110000D03*
D28*
X181355000Y-120100000D03*
X181355000Y-119300000D03*
D29*
X181355000Y-118100000D03*
X181355000Y-117100000D03*
X181355000Y-116600000D03*
X181355000Y-115600000D03*
D28*
X181355000Y-114400000D03*
X181355000Y-113600000D03*
X181355000Y-113600000D03*
X181355000Y-114400000D03*
D29*
X181355000Y-115100000D03*
X181355000Y-116100000D03*
X181355000Y-117600000D03*
X181355000Y-118600000D03*
D28*
X181355000Y-119300000D03*
X181355000Y-120100000D03*
D30*
X182270000Y-121170000D03*
D31*
X186450000Y-121170000D03*
D30*
X182270000Y-112530000D03*
D31*
X186450000Y-112530000D03*
D32*
X122500000Y-113741000D03*
D33*
X122500000Y-144350000D03*
D10*
X170900000Y-117110000D03*
X170900000Y-119110000D03*
D15*
X161500000Y-143500000D03*
X161500000Y-141500000D03*
D16*
X141595000Y-116607500D03*
X141595000Y-114532500D03*
D15*
X110000000Y-143500000D03*
X110000000Y-141500000D03*
D27*
X130476000Y-114366000D03*
X130476000Y-115316000D03*
X130476000Y-116266000D03*
X133176000Y-116266000D03*
X133176000Y-115316000D03*
X133176000Y-114366000D03*
D15*
X137033000Y-116570000D03*
X137033000Y-114570000D03*
D25*
X186690000Y-143510000D03*
D34*
X124460000Y-116840000D03*
X142082000Y-120834500D03*
X128963900Y-114516000D03*
X127000000Y-119597000D03*
D35*
X133604000Y-109977000D02*
X132428700Y-109977000D01*
X132428700Y-109977000D02*
X131621700Y-109170000D01*
X122500000Y-113741000D02*
X124775300Y-113741000D01*
X124460000Y-116840000D02*
X122500000Y-114880000D01*
X124775300Y-113741000D02*
X129346300Y-109170000D01*
X131621700Y-109170000D02*
X129840000Y-109170000D01*
X122500000Y-114880000D02*
X122500000Y-113741000D01*
X129346300Y-109170000D02*
X129840000Y-109170000D01*
X151000000Y-120124700D02*
X153116000Y-118008700D01*
X153116000Y-115040000D02*
X155288700Y-115040000D01*
X153116000Y-118008700D02*
X153116000Y-115040000D01*
X154940000Y-147320000D02*
X154940000Y-129540000D01*
X153116000Y-115040000D02*
X153116000Y-114758000D01*
X154940000Y-129540000D02*
X151000000Y-125600000D01*
X153000000Y-153300000D02*
X153000000Y-149260000D01*
X153000000Y-149260000D02*
X154940000Y-147320000D01*
X151000000Y-125600000D02*
X151000000Y-122200000D01*
X151000000Y-122200000D02*
X151000000Y-120124700D01*
X156464000Y-115040000D02*
X155288700Y-115040000D01*
X175514000Y-128651000D02*
X175514000Y-125364000D01*
X173700000Y-150840000D02*
X167640000Y-144780000D01*
X177292000Y-125047600D02*
X175197600Y-125047600D01*
X175514000Y-125364000D02*
X175197600Y-125047600D01*
X167640000Y-134620000D02*
X172660000Y-129600000D01*
X172660000Y-129600000D02*
X173500000Y-129600000D01*
X173500000Y-129600000D02*
X174565000Y-129600000D01*
X173700000Y-153300000D02*
X173700000Y-150840000D01*
X167640000Y-144780000D02*
X167640000Y-134620000D01*
X177292000Y-124460000D02*
X177292000Y-125047600D01*
X175197600Y-125047600D02*
X173736000Y-123586000D01*
X174565000Y-129600000D02*
X175514000Y-128651000D01*
X166243000Y-113411000D02*
X167640000Y-114808000D01*
X156996500Y-119059000D02*
X156996500Y-117421000D01*
X160020000Y-103870000D02*
X160007100Y-103882900D01*
X162179000Y-111887000D02*
X163703000Y-113411000D01*
X156996500Y-117421000D02*
X158623000Y-115794500D01*
X163703000Y-113411000D02*
X166243000Y-113411000D01*
X167640000Y-114808000D02*
X167640000Y-117475000D01*
X160007100Y-103882900D02*
X160007100Y-104052100D01*
X158623000Y-115794500D02*
X158623000Y-104902000D01*
X158623000Y-104902000D02*
X159472900Y-104052100D01*
X161012500Y-147825000D02*
X158085000Y-144897500D01*
X167198000Y-117917000D02*
X166069000Y-117917000D01*
X167640000Y-117475000D02*
X167198000Y-117917000D01*
X162179000Y-105410000D02*
X162179000Y-111887000D01*
X159472900Y-104052100D02*
X160007100Y-104052100D01*
X161500000Y-147825000D02*
X161012500Y-147825000D01*
X158085000Y-144897500D02*
X158085000Y-120147500D01*
X160007100Y-104052100D02*
X160821100Y-104052100D01*
X160821100Y-104052100D02*
X162179000Y-105410000D01*
X158085000Y-120147500D02*
X156996500Y-119059000D01*
X151000000Y-144700000D02*
X151000000Y-148720000D01*
X151257000Y-110363000D02*
X150130000Y-111490000D01*
X171323000Y-104013000D02*
X169799000Y-102489000D01*
X149590000Y-115120300D02*
X149521300Y-115189000D01*
X160020000Y-116137500D02*
X158085000Y-118072500D01*
X138303000Y-127635000D02*
X138705500Y-128037500D01*
X169873600Y-116100700D02*
X169817300Y-116157000D01*
X151172800Y-102795000D02*
X150659400Y-103308400D01*
X180865000Y-121683000D02*
X180865000Y-120778274D01*
X141595000Y-114532500D02*
X139504900Y-116622600D01*
X175399200Y-111890300D02*
X173859700Y-111890300D01*
X160020000Y-111490000D02*
X160020000Y-115359300D01*
X170900000Y-122483400D02*
X170900000Y-119110000D01*
X169799000Y-109982000D02*
X171323000Y-108458000D01*
X160708173Y-102795000D02*
X151172800Y-102795000D01*
X181375000Y-113590000D02*
X180324700Y-113590000D01*
X177800000Y-145542000D02*
X181139900Y-142202100D01*
X169799000Y-116138700D02*
X169799000Y-109982000D01*
X165564400Y-118999000D02*
X168845300Y-118999000D01*
X169050400Y-124333000D02*
X170900000Y-122483400D01*
X168845300Y-118999000D02*
X169817200Y-118027100D01*
X172466000Y-114935000D02*
X171831000Y-115570000D01*
X180693600Y-120090000D02*
X180437300Y-120090000D01*
X174780000Y-120090000D02*
X173800000Y-119110000D01*
X147320000Y-154940000D02*
X147320000Y-149860000D01*
X169817300Y-116157000D02*
X169799000Y-116138700D01*
X169817200Y-118027100D02*
X170900000Y-119110000D01*
X181102000Y-120541274D02*
X181102000Y-120498400D01*
X177800000Y-152400000D02*
X177800000Y-145658000D01*
X154940000Y-157480000D02*
X149860000Y-157480000D01*
X177000000Y-153300000D02*
X177800000Y-154100000D01*
X156500000Y-153300000D02*
X156500000Y-155920000D01*
X149590000Y-111490000D02*
X149590000Y-115120300D01*
X164994500Y-124333000D02*
X169050400Y-124333000D01*
X173859700Y-111890300D02*
X172466000Y-113284000D01*
X172466000Y-113284000D02*
X172466000Y-114935000D01*
X150130000Y-111490000D02*
X149590000Y-111490000D01*
X132080000Y-136595300D02*
X133550000Y-135125300D01*
X181139900Y-142202100D02*
X181139900Y-137960100D01*
X141595000Y-114532500D02*
X141595000Y-113385000D01*
X180865000Y-120778274D02*
X181102000Y-120541274D01*
X177000000Y-153300000D02*
X177800000Y-152500000D01*
X181102000Y-121920000D02*
X180865000Y-121683000D01*
X166069000Y-116967000D02*
X164963700Y-116967000D01*
X169986300Y-116100700D02*
X169873600Y-116100700D01*
X160020000Y-115359300D02*
X160020000Y-116137500D01*
X186690000Y-143510000D02*
X186690000Y-139700000D01*
X139504900Y-116622600D02*
X139504900Y-121873400D01*
X180324700Y-113590000D02*
X178625000Y-111890300D01*
X160020000Y-115359300D02*
X160444300Y-114935000D01*
X141595000Y-113385000D02*
X140018600Y-111808500D01*
X122500000Y-144350000D02*
X124325300Y-144350000D01*
X181102000Y-120498400D02*
X180693600Y-120090000D01*
X160444300Y-114935000D02*
X163926800Y-114935000D01*
X133500000Y-153300000D02*
X136940000Y-149860000D01*
X177200000Y-153300000D02*
X177200000Y-153000000D01*
X181102000Y-137922200D02*
X181102000Y-121920000D01*
X169418000Y-116556300D02*
X169817300Y-116157000D01*
X141097000Y-127127000D02*
X141097000Y-123465500D01*
X181139900Y-137960100D02*
X184950100Y-137960100D01*
X151000000Y-148720000D02*
X149860000Y-149860000D01*
X156500000Y-155920000D02*
X154940000Y-157480000D01*
X137160000Y-120882500D02*
X137160000Y-118999000D01*
X138303000Y-126229100D02*
X138303000Y-127635000D01*
X132080000Y-144780000D02*
X132080000Y-136595300D01*
X184950100Y-137960100D02*
X186690000Y-139700000D01*
X173800000Y-119110000D02*
X170900000Y-119110000D01*
X163926800Y-114935000D02*
X164963700Y-115971900D01*
X148905400Y-102921700D02*
X150272700Y-102921700D01*
X164963700Y-116967000D02*
X164963700Y-118398300D01*
X138321100Y-122043600D02*
X138321100Y-126211000D01*
X169799000Y-102489000D02*
X161014173Y-102489000D01*
X137160000Y-118999000D02*
X135001000Y-116840000D01*
X150659400Y-103308400D02*
X151257000Y-103906000D01*
X161014173Y-102489000D02*
X160708173Y-102795000D01*
X181375000Y-120090000D02*
X180693600Y-120090000D01*
X136940000Y-149860000D02*
X137160000Y-149860000D01*
X137160000Y-149860000D02*
X132080000Y-144780000D01*
X139827000Y-127762000D02*
X140462000Y-127762000D01*
X169418000Y-117627900D02*
X169418000Y-116556300D01*
X174752000Y-111243100D02*
X174752000Y-106680000D01*
X177742000Y-145600000D02*
X181139900Y-142202100D01*
X124325300Y-144350000D02*
X133550000Y-135125300D01*
X150272700Y-102921700D02*
X150659400Y-103308400D01*
X181139900Y-137960100D02*
X181102000Y-137922200D01*
X140018600Y-111808500D02*
X139700000Y-111490000D01*
X180437300Y-120090000D02*
X174780000Y-120090000D01*
X173500000Y-145600000D02*
X177742000Y-145600000D01*
X170517000Y-115570000D02*
X169986300Y-116100700D01*
X171323000Y-108458000D02*
X171323000Y-104013000D01*
X149860000Y-157480000D02*
X147320000Y-154940000D01*
X164963700Y-115971900D02*
X164963700Y-116967000D01*
X139700000Y-128037500D02*
X139700000Y-135125300D01*
X151257000Y-103906000D02*
X151257000Y-110363000D01*
X169817200Y-118027100D02*
X169418000Y-117627900D01*
X171831000Y-115570000D02*
X170517000Y-115570000D01*
X174752000Y-106680000D02*
X177292000Y-104140000D01*
X140462000Y-127762000D02*
X141097000Y-127127000D01*
X175399200Y-111890300D02*
X174752000Y-111243100D01*
X177800000Y-145658000D02*
X177742000Y-145600000D01*
X149860000Y-149860000D02*
X137160000Y-149860000D01*
X163830000Y-125497500D02*
X164994500Y-124333000D01*
X135001000Y-116078000D02*
X134239000Y-115316000D01*
X137160000Y-120882500D02*
X138321100Y-122043600D01*
X138321100Y-126211000D02*
X138303000Y-126229100D01*
X138705500Y-128037500D02*
X139700000Y-128037500D01*
X148416000Y-115189000D02*
X149521300Y-115189000D01*
X133550000Y-135125300D02*
X139700000Y-135125300D01*
X139504900Y-121873400D02*
X140589000Y-122957500D01*
X135001000Y-116840000D02*
X135001000Y-116078000D01*
X178625000Y-111890300D02*
X175399200Y-111890300D01*
X177292000Y-104140000D02*
X177800000Y-104140000D01*
X164963700Y-118398300D02*
X165564400Y-118999000D01*
X134239000Y-115316000D02*
X133176000Y-115316000D01*
X140018600Y-111808500D02*
X148905400Y-102921700D01*
X177200000Y-153000000D02*
X177800000Y-152400000D01*
X141097000Y-123465500D02*
X140589000Y-122957500D01*
X163830000Y-123422500D02*
X162433000Y-124819500D01*
X163830000Y-123422500D02*
X163369000Y-122961500D01*
X166862000Y-126873000D02*
X168402000Y-125333000D01*
X173736000Y-122286000D02*
X174102000Y-121920000D01*
X172227000Y-122286000D02*
X169180000Y-125333000D01*
X163195000Y-126873000D02*
X166862000Y-126873000D01*
X162433000Y-124819500D02*
X162433000Y-126111000D01*
X162433000Y-126111000D02*
X163195000Y-126873000D01*
X173736000Y-122286000D02*
X172227000Y-122286000D01*
X169180000Y-125333000D02*
X168402000Y-125333000D01*
X177292000Y-121920000D02*
X176116700Y-121920000D01*
X163369000Y-122961500D02*
X163369000Y-117917000D01*
X174102000Y-121920000D02*
X176116700Y-121920000D01*
X134620000Y-144780000D02*
X134620000Y-142240000D01*
X147310700Y-116139000D02*
X147310700Y-114177400D01*
X137665000Y-147825000D02*
X134620000Y-144780000D01*
X143764000Y-113030000D02*
X143129000Y-113665000D01*
X143129000Y-113665000D02*
X143129000Y-115062000D01*
X147310700Y-114177400D02*
X146721800Y-113588500D01*
X149590000Y-103870000D02*
X146721800Y-106738200D01*
X134620000Y-142240000D02*
X142908000Y-133952000D01*
X148416000Y-116139000D02*
X147310700Y-116139000D01*
X141595000Y-116596000D02*
X141595000Y-116607500D01*
X146721800Y-106738200D02*
X146721800Y-113588500D01*
X142908000Y-133952000D02*
X142908000Y-117920500D01*
X146163300Y-113030000D02*
X143764000Y-113030000D01*
X142908000Y-117920500D02*
X141595000Y-116607500D01*
X146721800Y-113588500D02*
X146163300Y-113030000D01*
X138500000Y-147825000D02*
X137665000Y-147825000D01*
X143129000Y-115062000D02*
X141595000Y-116596000D01*
X156464000Y-112500000D02*
X155288700Y-112500000D01*
X145288000Y-120204100D02*
X145959600Y-120204100D01*
X144240100Y-119156200D02*
X145288000Y-120204100D01*
X144610700Y-116139000D02*
X144240100Y-116509600D01*
X144240100Y-116509600D02*
X144240100Y-119156200D01*
X155288700Y-112500000D02*
X154330700Y-113458000D01*
X145716000Y-116139000D02*
X144610700Y-116139000D01*
X140637000Y-120834500D02*
X140589000Y-120882500D01*
X142082000Y-120834500D02*
X140637000Y-120834500D01*
X145959600Y-120204100D02*
X152705700Y-113458000D01*
X152705700Y-113458000D02*
X153116000Y-113458000D01*
X154330700Y-113458000D02*
X153116000Y-113458000D01*
X145288000Y-120380000D02*
X145288000Y-120204100D01*
X118237000Y-109728000D02*
X118237000Y-116840000D01*
X111760000Y-137160000D02*
X125962500Y-122957500D01*
X120269000Y-118872000D02*
X131191000Y-118872000D01*
X131953000Y-118110000D02*
X131953000Y-117489000D01*
X139700000Y-103870000D02*
X124095000Y-103870000D01*
X135138750Y-122957500D02*
X137160000Y-122957500D01*
X111760000Y-146065000D02*
X111760000Y-137160000D01*
X124095000Y-103870000D02*
X118237000Y-109728000D01*
X131953000Y-119771750D02*
X135138750Y-122957500D01*
X118237000Y-116840000D02*
X120269000Y-118872000D01*
X131953000Y-117489000D02*
X133176000Y-116266000D01*
X131953000Y-118110000D02*
X131953000Y-119771750D01*
X125962500Y-122957500D02*
X137160000Y-122957500D01*
X110000000Y-147825000D02*
X111760000Y-146065000D01*
X131191000Y-118872000D02*
X131953000Y-118110000D01*
X130117200Y-112268000D02*
X128224000Y-114161200D01*
X129973400Y-108003400D02*
X129840000Y-107870000D01*
X133604000Y-107437000D02*
X133604000Y-108003400D01*
X135128000Y-111252000D02*
X134112000Y-112268000D01*
X134112000Y-112268000D02*
X130117200Y-112268000D01*
X138684000Y-115697000D02*
X137811000Y-116570000D01*
X133604000Y-108003400D02*
X129973400Y-108003400D01*
X135128000Y-111125000D02*
X136017000Y-111125000D01*
X129370700Y-116266000D02*
X130476000Y-116266000D01*
X128224000Y-115119300D02*
X129370700Y-116266000D01*
X128224000Y-114161200D02*
X128224000Y-115119300D01*
X137033000Y-116570000D02*
X138874500Y-118411500D01*
X137811000Y-116570000D02*
X137033000Y-116570000D01*
X138684000Y-113792000D02*
X138684000Y-115697000D01*
X133604000Y-108003400D02*
X135128000Y-109527400D01*
X138874500Y-118411500D02*
X138874500Y-125137000D01*
X135128000Y-111125000D02*
X135128000Y-111252000D01*
X138874500Y-125137000D02*
X139700000Y-125962500D01*
X135128000Y-109527400D02*
X135128000Y-111125000D01*
X136017000Y-111125000D02*
X138684000Y-113792000D01*
X177800000Y-107855300D02*
X176180000Y-109475300D01*
X177800000Y-106680000D02*
X177800000Y-107855300D01*
X176180000Y-109475300D02*
X176180000Y-110490000D01*
X181375000Y-119290000D02*
X182180051Y-119290000D01*
X183515000Y-115806100D02*
X182098900Y-114390000D01*
X174955300Y-114300000D02*
X174180000Y-114300000D01*
X178964700Y-113030000D02*
X176225300Y-113030000D01*
X176225300Y-113030000D02*
X174955300Y-114300000D01*
X180324700Y-114390000D02*
X178964700Y-113030000D01*
X182480051Y-118990000D02*
X182508000Y-118990000D01*
X183515000Y-117983000D02*
X183515000Y-115806100D01*
X182098900Y-114390000D02*
X180324700Y-114390000D01*
X182508000Y-118990000D02*
X183515000Y-117983000D01*
X182180051Y-119290000D02*
X182480051Y-118990000D01*
X172720000Y-108077000D02*
X170880000Y-109917000D01*
X160020000Y-101870000D02*
X170577000Y-101870000D01*
X170577000Y-101870000D02*
X172720000Y-104013000D01*
X170880000Y-114300000D02*
X170880000Y-111512700D01*
X171069000Y-110490000D02*
X172880000Y-110490000D01*
X149590000Y-101870000D02*
X139700000Y-101870000D01*
X170880000Y-109917000D02*
X170880000Y-111512700D01*
X170880000Y-110679000D02*
X171069000Y-110490000D01*
X149590000Y-101870000D02*
X160020000Y-101870000D01*
X172720000Y-104013000D02*
X172720000Y-108077000D01*
X170880000Y-111512700D02*
X170880000Y-110679000D01*
X161500000Y-143500000D02*
X161500000Y-145775000D01*
X138500000Y-145775000D02*
X138500000Y-143500000D01*
X160020000Y-107680000D02*
X160020000Y-109490000D01*
X110000000Y-143500000D02*
X110000000Y-145775000D01*
X175082400Y-118110000D02*
X176479400Y-119507000D01*
X178287400Y-119507000D02*
X179704400Y-118090000D01*
X176479400Y-119507000D02*
X178287400Y-119507000D01*
X171900000Y-118110000D02*
X175082400Y-118110000D01*
X179704400Y-118090000D02*
X181375000Y-118090000D01*
X170900000Y-117110000D02*
X171900000Y-118110000D01*
X179959000Y-116455700D02*
X180324700Y-116090000D01*
X178574000Y-116090000D02*
X180324700Y-116090000D01*
X181375000Y-116090000D02*
X180324700Y-116090000D01*
X180082000Y-117090000D02*
X179959000Y-116967000D01*
X181375000Y-117090000D02*
X180082000Y-117090000D01*
X179959000Y-116967000D02*
X179959000Y-116455700D01*
X177800000Y-115316000D02*
X178574000Y-116090000D01*
X180962500Y-117590000D02*
X181375000Y-117590000D01*
X177800000Y-117856000D02*
X178975300Y-117856000D01*
X182880000Y-116590000D02*
X181375000Y-116590000D01*
X179241300Y-117590000D02*
X178975300Y-117856000D01*
X181375000Y-117590000D02*
X182880000Y-117590000D01*
X182880000Y-117590000D02*
X182880000Y-116590000D01*
X180962500Y-117590000D02*
X180324700Y-117590000D01*
X180324700Y-117590000D02*
X179241300Y-117590000D01*
X178975000Y-114141000D02*
X179924000Y-115090000D01*
X173800000Y-117110000D02*
X176769000Y-114141000D01*
X179924000Y-115090000D02*
X181375000Y-115090000D01*
X176769000Y-114141000D02*
X178975000Y-114141000D01*
X161100000Y-141500000D02*
X161100000Y-139636000D01*
X161925000Y-116268500D02*
X162242500Y-115951000D01*
X162242500Y-115951000D02*
X162560000Y-115951000D01*
X161925000Y-138811000D02*
X161925000Y-116268500D01*
X161100000Y-139636000D02*
X161925000Y-138811000D01*
X139700000Y-109490000D02*
X139700000Y-107680000D01*
X163369000Y-116967000D02*
X164474300Y-116967000D01*
X164474300Y-119405300D02*
X164474300Y-116967000D01*
X168402000Y-123333000D02*
X164474300Y-119405300D01*
X165413700Y-114613700D02*
X165413700Y-116017000D01*
X161544000Y-107204000D02*
X161544000Y-113157000D01*
X165413700Y-116017000D02*
X166069000Y-116017000D01*
X161544000Y-113157000D02*
X162560000Y-114173000D01*
X160020000Y-105680000D02*
X161544000Y-107204000D01*
X164973000Y-114173000D02*
X165413700Y-114613700D01*
X162560000Y-114173000D02*
X164973000Y-114173000D01*
X143751900Y-138188100D02*
X143751900Y-115097800D01*
X144610700Y-114239000D02*
X145716000Y-114239000D01*
X143751900Y-115097800D02*
X144610700Y-114239000D01*
X138500000Y-141500000D02*
X140440000Y-141500000D01*
X140440000Y-141500000D02*
X143751900Y-138188100D01*
X146860700Y-116807300D02*
X146860700Y-115189000D01*
X145288000Y-118380000D02*
X146860700Y-116807300D01*
X146860700Y-115189000D02*
X145716000Y-115189000D01*
X147828000Y-113651000D02*
X148416000Y-114239000D01*
X147828000Y-107442000D02*
X147828000Y-113651000D01*
X149590000Y-105680000D02*
X147828000Y-107442000D01*
X149590000Y-109490000D02*
X149590000Y-107680000D01*
X110000000Y-136597000D02*
X110000000Y-141500000D01*
X127000000Y-119597000D02*
X110000000Y-136597000D01*
X128963900Y-114516000D02*
X129220700Y-114516000D01*
X130476000Y-114366000D02*
X129370700Y-114366000D01*
X129220700Y-114516000D02*
X129370700Y-114366000D01*
X135620000Y-113157000D02*
X137033000Y-114570000D01*
X131281000Y-115316000D02*
X131581700Y-115015300D01*
X131581700Y-113909300D02*
X132334000Y-113157000D01*
X130476000Y-115316000D02*
X131281000Y-115316000D01*
X131581700Y-115015300D02*
X131581700Y-113909300D01*
X132334000Y-113157000D02*
X135620000Y-113157000D01*
X132031700Y-115237300D02*
X132031700Y-114876700D01*
X131620700Y-115648300D02*
X132031700Y-115237300D01*
X120777000Y-117983000D02*
X130683000Y-117983000D01*
X131620700Y-117045300D02*
X131620700Y-115648300D01*
X130683000Y-117983000D02*
X131620700Y-117045300D01*
X139700000Y-105680000D02*
X124190000Y-105680000D01*
X119126000Y-110744000D02*
X119126000Y-116332000D01*
X132031700Y-114876700D02*
X132542400Y-114366000D01*
X124190000Y-105680000D02*
X119126000Y-110744000D01*
X132542400Y-114366000D02*
X133176000Y-114366000D01*
X119126000Y-116332000D02*
X120777000Y-117983000D01*
X186470000Y-112520000D02*
X182290000Y-112520000D01*
G04 #@! TA.AperFunction,Conductor*
G36*
X160216121Y-111256002D02*
G01*
X160262614Y-111309658D01*
X160274000Y-111362000D01*
X160274000Y-112598000D01*
X160520517Y-112598000D01*
X160520516Y-112597999D01*
X160624318Y-112587394D01*
X160624330Y-112587392D01*
X160744867Y-112547450D01*
X160815822Y-112545009D01*
X160876832Y-112581317D01*
X160908527Y-112644846D01*
X160910500Y-112667054D01*
X160910500Y-113073146D01*
X160908751Y-113088988D01*
X160909044Y-113089016D01*
X160908298Y-113096907D01*
X160908298Y-113096909D01*
X160909715Y-113141973D01*
X160910438Y-113164984D01*
X160910500Y-113168943D01*
X160910500Y-113196851D01*
X160910501Y-113196869D01*
X160911007Y-113200877D01*
X160911937Y-113212696D01*
X160913326Y-113256888D01*
X160913327Y-113256893D01*
X160918977Y-113276339D01*
X160922986Y-113295697D01*
X160925525Y-113315793D01*
X160925526Y-113315800D01*
X160941800Y-113356903D01*
X160945644Y-113368129D01*
X160957982Y-113410593D01*
X160968294Y-113428031D01*
X160976988Y-113445779D01*
X160984444Y-113464609D01*
X160984450Y-113464620D01*
X161010432Y-113500381D01*
X161016949Y-113510301D01*
X161039458Y-113548362D01*
X161039460Y-113548364D01*
X161039462Y-113548367D01*
X161053779Y-113562684D01*
X161066617Y-113577714D01*
X161078526Y-113594104D01*
X161078530Y-113594109D01*
X161112598Y-113622292D01*
X161121378Y-113630282D01*
X162052752Y-114561656D01*
X162062722Y-114574100D01*
X162062950Y-114573913D01*
X162068001Y-114580019D01*
X162117649Y-114626641D01*
X162120494Y-114629399D01*
X162140223Y-114649129D01*
X162140224Y-114649130D01*
X162140228Y-114649133D01*
X162140230Y-114649135D01*
X162143435Y-114651621D01*
X162152442Y-114659314D01*
X162184679Y-114689586D01*
X162202428Y-114699343D01*
X162218953Y-114710198D01*
X162234959Y-114722614D01*
X162275542Y-114740175D01*
X162286193Y-114745393D01*
X162324940Y-114766695D01*
X162324948Y-114766697D01*
X162344558Y-114771732D01*
X162363267Y-114778137D01*
X162381855Y-114786181D01*
X162425530Y-114793098D01*
X162437141Y-114795502D01*
X162479970Y-114806500D01*
X162500224Y-114806500D01*
X162519934Y-114808051D01*
X162521740Y-114808337D01*
X162539943Y-114811220D01*
X162583961Y-114807058D01*
X162595819Y-114806500D01*
X164654200Y-114806500D01*
X164722321Y-114826502D01*
X164768814Y-114880158D01*
X164780200Y-114932500D01*
X164780200Y-115418432D01*
X164760198Y-115486553D01*
X164706542Y-115533046D01*
X164636268Y-115543150D01*
X164571688Y-115513656D01*
X164546372Y-115483617D01*
X164545490Y-115482158D01*
X164518579Y-115437642D01*
X164518576Y-115437639D01*
X164518574Y-115437636D01*
X164403363Y-115322425D01*
X164403358Y-115322421D01*
X164307327Y-115264368D01*
X164263910Y-115238121D01*
X164263909Y-115238120D01*
X164263908Y-115238120D01*
X164263903Y-115238118D01*
X164108336Y-115189643D01*
X164059158Y-115185174D01*
X164040729Y-115183500D01*
X164040726Y-115183500D01*
X162697274Y-115183500D01*
X162629665Y-115189643D01*
X162629657Y-115189644D01*
X162474094Y-115238118D01*
X162474093Y-115238119D01*
X162376109Y-115297353D01*
X162310502Y-115314674D01*
X162310514Y-115315049D01*
X162308888Y-115315100D01*
X162307465Y-115315476D01*
X162303876Y-115315257D01*
X162234501Y-115317438D01*
X162230543Y-115317500D01*
X162202644Y-115317500D01*
X162202638Y-115317500D01*
X162202632Y-115317501D01*
X162198633Y-115318006D01*
X162186813Y-115318936D01*
X162142614Y-115320325D01*
X162142607Y-115320327D01*
X162123149Y-115325979D01*
X162103804Y-115329985D01*
X162083706Y-115332525D01*
X162083698Y-115332527D01*
X162042590Y-115348802D01*
X162031366Y-115352645D01*
X161988909Y-115364981D01*
X161988907Y-115364981D01*
X161988907Y-115364982D01*
X161982124Y-115368993D01*
X161971464Y-115375297D01*
X161953718Y-115383990D01*
X161934882Y-115391448D01*
X161899110Y-115417437D01*
X161889194Y-115423951D01*
X161851137Y-115446458D01*
X161836811Y-115460784D01*
X161821785Y-115473617D01*
X161805395Y-115485525D01*
X161805393Y-115485527D01*
X161777201Y-115519603D01*
X161769215Y-115528378D01*
X161536336Y-115761257D01*
X161523901Y-115771220D01*
X161524089Y-115771447D01*
X161517982Y-115776499D01*
X161471370Y-115826135D01*
X161468620Y-115828973D01*
X161448863Y-115848731D01*
X161446374Y-115851939D01*
X161438688Y-115860936D01*
X161408418Y-115893173D01*
X161408411Y-115893183D01*
X161398651Y-115910935D01*
X161387803Y-115927450D01*
X161375386Y-115943458D01*
X161357824Y-115984040D01*
X161352604Y-115994695D01*
X161331305Y-116033439D01*
X161331303Y-116033444D01*
X161326267Y-116053059D01*
X161319864Y-116071762D01*
X161311819Y-116090352D01*
X161304901Y-116134025D01*
X161302495Y-116145642D01*
X161291500Y-116188468D01*
X161291500Y-116208723D01*
X161289949Y-116228433D01*
X161289110Y-116233729D01*
X161286780Y-116248443D01*
X161290378Y-116286501D01*
X161290941Y-116292461D01*
X161291500Y-116304319D01*
X161291500Y-138496403D01*
X161271498Y-138564524D01*
X161254595Y-138585499D01*
X160711333Y-139128760D01*
X160698901Y-139138721D01*
X160699089Y-139138948D01*
X160692979Y-139144002D01*
X160646370Y-139193635D01*
X160643620Y-139196473D01*
X160623863Y-139216231D01*
X160621374Y-139219439D01*
X160613688Y-139228436D01*
X160583418Y-139260673D01*
X160583411Y-139260683D01*
X160573651Y-139278435D01*
X160562803Y-139294950D01*
X160550386Y-139310958D01*
X160532824Y-139351540D01*
X160527604Y-139362195D01*
X160506305Y-139400939D01*
X160506303Y-139400944D01*
X160501267Y-139420559D01*
X160494864Y-139439262D01*
X160486819Y-139457852D01*
X160479901Y-139501525D01*
X160477495Y-139513142D01*
X160466500Y-139555968D01*
X160466500Y-139576223D01*
X160464949Y-139595933D01*
X160461780Y-139615942D01*
X160465941Y-139659961D01*
X160466500Y-139671819D01*
X160466500Y-140615436D01*
X160447741Y-140681583D01*
X160357885Y-140827262D01*
X160302113Y-140995572D01*
X160302112Y-140995579D01*
X160291500Y-141099446D01*
X160291500Y-141900544D01*
X160302112Y-142004425D01*
X160357885Y-142172738D01*
X160450970Y-142323652D01*
X160450975Y-142323658D01*
X160538222Y-142410905D01*
X160572248Y-142473217D01*
X160567183Y-142544032D01*
X160538222Y-142589095D01*
X160450975Y-142676341D01*
X160450970Y-142676347D01*
X160357885Y-142827262D01*
X160302113Y-142995572D01*
X160302112Y-142995579D01*
X160291500Y-143099446D01*
X160291500Y-143900544D01*
X160302112Y-144004425D01*
X160357885Y-144172738D01*
X160450970Y-144323652D01*
X160450975Y-144323658D01*
X160576341Y-144449024D01*
X160576347Y-144449029D01*
X160576348Y-144449030D01*
X160727262Y-144542115D01*
X160727263Y-144542115D01*
X160728307Y-144542759D01*
X160775785Y-144595545D01*
X160787188Y-144665620D01*
X160758896Y-144730736D01*
X160728307Y-144757241D01*
X160727263Y-144757884D01*
X160727262Y-144757885D01*
X160655683Y-144802035D01*
X160576347Y-144850970D01*
X160576341Y-144850975D01*
X160450975Y-144976341D01*
X160450970Y-144976347D01*
X160357885Y-145127262D01*
X160302113Y-145295572D01*
X160302112Y-145295579D01*
X160291500Y-145399446D01*
X160291500Y-145903905D01*
X160271498Y-145972026D01*
X160217842Y-146018519D01*
X160147568Y-146028623D01*
X160082988Y-145999129D01*
X160076405Y-145993000D01*
X158755405Y-144672000D01*
X158721379Y-144609688D01*
X158718500Y-144582905D01*
X158718500Y-121322522D01*
X158738502Y-121254401D01*
X158792158Y-121207908D01*
X158804857Y-121202921D01*
X158882738Y-121177115D01*
X159033652Y-121084030D01*
X159159030Y-120958652D01*
X159252115Y-120807738D01*
X159307887Y-120639426D01*
X159318500Y-120535545D01*
X159318499Y-119759456D01*
X159316511Y-119740000D01*
X159307887Y-119655574D01*
X159295546Y-119618330D01*
X159252115Y-119487262D01*
X159159030Y-119336348D01*
X159159029Y-119336347D01*
X159159024Y-119336341D01*
X159033657Y-119210974D01*
X159030547Y-119208515D01*
X159028967Y-119206284D01*
X159028463Y-119205780D01*
X159028549Y-119205693D01*
X158989518Y-119150575D01*
X158986326Y-119079650D01*
X159021986Y-119018259D01*
X159030558Y-119010832D01*
X159033350Y-119008624D01*
X159158629Y-118883345D01*
X159158634Y-118883339D01*
X159251657Y-118732525D01*
X159307393Y-118564321D01*
X159307394Y-118564318D01*
X159317999Y-118460516D01*
X159318000Y-118460516D01*
X159318000Y-118326500D01*
X157957000Y-118326500D01*
X157888879Y-118306498D01*
X157842386Y-118252842D01*
X157831000Y-118200500D01*
X157831000Y-117944500D01*
X157851002Y-117876379D01*
X157904658Y-117829886D01*
X157957000Y-117818500D01*
X159318000Y-117818500D01*
X159318000Y-117684483D01*
X159307394Y-117580681D01*
X159307393Y-117580678D01*
X159251657Y-117412474D01*
X159158634Y-117261660D01*
X159158629Y-117261654D01*
X159033345Y-117136370D01*
X159033339Y-117136365D01*
X158882525Y-117043342D01*
X158714321Y-116987606D01*
X158714318Y-116987605D01*
X158625592Y-116978540D01*
X158559857Y-116951718D01*
X158519059Y-116893615D01*
X158516150Y-116822678D01*
X158549302Y-116764101D01*
X159011657Y-116301745D01*
X159024092Y-116291784D01*
X159023905Y-116291557D01*
X159030016Y-116286501D01*
X159030015Y-116286501D01*
X159030018Y-116286500D01*
X159076676Y-116236812D01*
X159079367Y-116234035D01*
X159099134Y-116214270D01*
X159101617Y-116211067D01*
X159109308Y-116202062D01*
X159139586Y-116169821D01*
X159149345Y-116152067D01*
X159160197Y-116135546D01*
X159172613Y-116119541D01*
X159190168Y-116078970D01*
X159195392Y-116068308D01*
X159195625Y-116067885D01*
X159216695Y-116029560D01*
X159221733Y-116009935D01*
X159228138Y-115991230D01*
X159236181Y-115972645D01*
X159243096Y-115928976D01*
X159245503Y-115917356D01*
X159246766Y-115912440D01*
X159256500Y-115874530D01*
X159256500Y-115854269D01*
X159258051Y-115834558D01*
X159258537Y-115831489D01*
X159261219Y-115814557D01*
X159257059Y-115770544D01*
X159256500Y-115758687D01*
X159256500Y-112709137D01*
X159276502Y-112641016D01*
X159330158Y-112594523D01*
X159400432Y-112584419D01*
X159408841Y-112586445D01*
X159408947Y-112585953D01*
X159415681Y-112587394D01*
X159519483Y-112597999D01*
X159519483Y-112598000D01*
X159766000Y-112598000D01*
X159766000Y-111362000D01*
X159786002Y-111293879D01*
X159839658Y-111247386D01*
X159892000Y-111236000D01*
X160148000Y-111236000D01*
X160216121Y-111256002D01*
G37*
G04 #@! TD.AperFunction*
G04 #@! TA.AperFunction,Conductor*
G36*
X164211012Y-120038370D02*
G01*
X164217595Y-120044499D01*
X167156595Y-122983499D01*
X167190621Y-123045811D01*
X167193500Y-123072594D01*
X167193500Y-123733544D01*
X167204112Y-123837425D01*
X167259885Y-124005738D01*
X167352970Y-124156652D01*
X167352975Y-124156658D01*
X167440222Y-124243905D01*
X167474248Y-124306217D01*
X167469183Y-124377032D01*
X167440222Y-124422095D01*
X167352975Y-124509341D01*
X167352970Y-124509347D01*
X167259885Y-124660262D01*
X167204113Y-124828572D01*
X167204112Y-124828579D01*
X167193500Y-124932446D01*
X167193500Y-125593403D01*
X167173498Y-125661524D01*
X167156596Y-125682498D01*
X166636500Y-126202595D01*
X166574187Y-126236620D01*
X166547404Y-126239500D01*
X165143984Y-126239500D01*
X165075863Y-126219498D01*
X165029370Y-126165842D01*
X165019266Y-126095568D01*
X165024379Y-126073868D01*
X165052393Y-125989325D01*
X165052394Y-125989318D01*
X165062999Y-125885516D01*
X165063000Y-125885516D01*
X165063000Y-125751500D01*
X163702000Y-125751500D01*
X163633879Y-125731498D01*
X163587386Y-125677842D01*
X163576000Y-125625500D01*
X163576000Y-125369500D01*
X163596002Y-125301379D01*
X163649658Y-125254886D01*
X163702000Y-125243500D01*
X165063000Y-125243500D01*
X165063000Y-125109483D01*
X165052394Y-125005681D01*
X165052393Y-125005678D01*
X164996657Y-124837474D01*
X164903634Y-124686660D01*
X164903629Y-124686654D01*
X164778344Y-124561369D01*
X164775551Y-124559161D01*
X164774131Y-124557156D01*
X164773150Y-124556175D01*
X164773317Y-124556007D01*
X164734519Y-124501222D01*
X164731325Y-124430298D01*
X164766983Y-124368905D01*
X164775554Y-124361478D01*
X164778639Y-124359037D01*
X164778652Y-124359030D01*
X164904030Y-124233652D01*
X164997115Y-124082738D01*
X165052887Y-123914426D01*
X165063500Y-123810545D01*
X165063499Y-123034456D01*
X165061634Y-123016204D01*
X165052887Y-122930574D01*
X165050421Y-122923131D01*
X164997115Y-122762262D01*
X164904030Y-122611348D01*
X164904029Y-122611347D01*
X164904024Y-122611341D01*
X164778658Y-122485975D01*
X164778652Y-122485970D01*
X164745758Y-122465681D01*
X164627738Y-122392885D01*
X164543582Y-122364999D01*
X164459427Y-122337113D01*
X164459420Y-122337112D01*
X164355553Y-122326500D01*
X164355545Y-122326500D01*
X164128500Y-122326500D01*
X164060379Y-122306498D01*
X164013886Y-122252842D01*
X164002500Y-122200500D01*
X164002500Y-120133594D01*
X164022502Y-120065473D01*
X164076158Y-120018980D01*
X164146432Y-120008876D01*
X164211012Y-120038370D01*
G37*
G04 #@! TD.AperFunction*
G04 #@! TA.AperFunction,Conductor*
G36*
X135373527Y-113810502D02*
G01*
X135394501Y-113827405D01*
X135787595Y-114220499D01*
X135821621Y-114282811D01*
X135824500Y-114309594D01*
X135824500Y-114970544D01*
X135835112Y-115074425D01*
X135890885Y-115242738D01*
X135983970Y-115393652D01*
X135983975Y-115393658D01*
X136071222Y-115480905D01*
X136105248Y-115543217D01*
X136100183Y-115614032D01*
X136071222Y-115659095D01*
X135983975Y-115746341D01*
X135983970Y-115746347D01*
X135890885Y-115897262D01*
X135835113Y-116065572D01*
X135835112Y-116065579D01*
X135824500Y-116169446D01*
X135824500Y-116970544D01*
X135835112Y-117074425D01*
X135890885Y-117242738D01*
X135983970Y-117393652D01*
X135983975Y-117393658D01*
X136109341Y-117519024D01*
X136109347Y-117519029D01*
X136109348Y-117519030D01*
X136260262Y-117612115D01*
X136428574Y-117667887D01*
X136532455Y-117678500D01*
X137193405Y-117678499D01*
X137261526Y-117698501D01*
X137282500Y-117715404D01*
X138204095Y-118636999D01*
X138238121Y-118699311D01*
X138241000Y-118726094D01*
X138241000Y-119802433D01*
X138220998Y-119870554D01*
X138167342Y-119917047D01*
X138097068Y-119927151D01*
X138048853Y-119909674D01*
X137957525Y-119853342D01*
X137789321Y-119797606D01*
X137789318Y-119797605D01*
X137685516Y-119787000D01*
X137414000Y-119787000D01*
X137414000Y-121010500D01*
X137393998Y-121078621D01*
X137340342Y-121125114D01*
X137288000Y-121136500D01*
X135927000Y-121136500D01*
X135927000Y-121270516D01*
X135937605Y-121374318D01*
X135937606Y-121374321D01*
X135993342Y-121542525D01*
X136086365Y-121693339D01*
X136086370Y-121693345D01*
X136211657Y-121818632D01*
X136214446Y-121820837D01*
X136215863Y-121822838D01*
X136216850Y-121823825D01*
X136216681Y-121823993D01*
X136255479Y-121878775D01*
X136258674Y-121949700D01*
X136223017Y-122011093D01*
X136214457Y-122018511D01*
X136211345Y-122020971D01*
X136085975Y-122146341D01*
X136085970Y-122146347D01*
X136013311Y-122264147D01*
X135960525Y-122311625D01*
X135906070Y-122324000D01*
X135453344Y-122324000D01*
X135385223Y-122303998D01*
X135364249Y-122287095D01*
X133705655Y-120628500D01*
X135927000Y-120628500D01*
X136906000Y-120628500D01*
X136906000Y-119787000D01*
X136634483Y-119787000D01*
X136530681Y-119797605D01*
X136530678Y-119797606D01*
X136362474Y-119853342D01*
X136211660Y-119946365D01*
X136211654Y-119946370D01*
X136086370Y-120071654D01*
X136086365Y-120071660D01*
X135993342Y-120222474D01*
X135937606Y-120390678D01*
X135937605Y-120390681D01*
X135927000Y-120494483D01*
X135927000Y-120628500D01*
X133705655Y-120628500D01*
X132623405Y-119546250D01*
X132589379Y-119483938D01*
X132586500Y-119457155D01*
X132586500Y-118169775D01*
X132588051Y-118150063D01*
X132589141Y-118143182D01*
X132591220Y-118130057D01*
X132587314Y-118088731D01*
X132587059Y-118086036D01*
X132586500Y-118074179D01*
X132586500Y-117803594D01*
X132606502Y-117735473D01*
X132623405Y-117714499D01*
X133201500Y-117136404D01*
X133263812Y-117102378D01*
X133290595Y-117099499D01*
X133847726Y-117099499D01*
X133847728Y-117099499D01*
X133915339Y-117093356D01*
X133937941Y-117086313D01*
X134070905Y-117044881D01*
X134070906Y-117044880D01*
X134070910Y-117044879D01*
X134210358Y-116960579D01*
X134325579Y-116845358D01*
X134409879Y-116705910D01*
X134458356Y-116550339D01*
X134464500Y-116482729D01*
X134464499Y-116049272D01*
X134458356Y-115981661D01*
X134456874Y-115976906D01*
X134410363Y-115827643D01*
X134409194Y-115756656D01*
X134410363Y-115752672D01*
X134457861Y-115600243D01*
X134460610Y-115570000D01*
X134243132Y-115570000D01*
X134177947Y-115551828D01*
X134070910Y-115487121D01*
X134070909Y-115487120D01*
X134070908Y-115487120D01*
X134070903Y-115487118D01*
X133908975Y-115436661D01*
X133909742Y-115434198D01*
X133857111Y-115406653D01*
X133821992Y-115344951D01*
X133825807Y-115274057D01*
X133867344Y-115216479D01*
X133909556Y-115197212D01*
X133908973Y-115195340D01*
X134070905Y-115144881D01*
X134070906Y-115144880D01*
X134070910Y-115144879D01*
X134177947Y-115080171D01*
X134243132Y-115062000D01*
X134460609Y-115062000D01*
X134460609Y-115061999D01*
X134457861Y-115031751D01*
X134457861Y-115031750D01*
X134410363Y-114879324D01*
X134409193Y-114808337D01*
X134410348Y-114804402D01*
X134458356Y-114650339D01*
X134464500Y-114582729D01*
X134464499Y-114149272D01*
X134458356Y-114081661D01*
X134458203Y-114081170D01*
X134418572Y-113953984D01*
X134417403Y-113882997D01*
X134454798Y-113822647D01*
X134518884Y-113792095D01*
X134538867Y-113790500D01*
X135305406Y-113790500D01*
X135373527Y-113810502D01*
G37*
G04 #@! TD.AperFunction*
G04 #@! TA.AperFunction,Conductor*
G36*
X148421481Y-102523502D02*
G01*
X148460601Y-102563353D01*
X148540970Y-102693652D01*
X148540975Y-102693658D01*
X148628222Y-102780905D01*
X148662248Y-102843217D01*
X148657183Y-102914032D01*
X148628222Y-102959095D01*
X148540975Y-103046341D01*
X148540970Y-103046347D01*
X148447885Y-103197262D01*
X148392113Y-103365572D01*
X148392112Y-103365579D01*
X148381500Y-103469446D01*
X148381500Y-104130404D01*
X148361498Y-104198525D01*
X148344595Y-104219499D01*
X146333136Y-106230957D01*
X146320701Y-106240921D01*
X146320889Y-106241148D01*
X146314779Y-106246202D01*
X146268170Y-106295835D01*
X146265420Y-106298673D01*
X146245663Y-106318431D01*
X146243174Y-106321639D01*
X146235488Y-106330636D01*
X146205218Y-106362873D01*
X146205211Y-106362883D01*
X146195451Y-106380635D01*
X146184603Y-106397150D01*
X146172186Y-106413158D01*
X146154624Y-106453740D01*
X146149404Y-106464395D01*
X146128105Y-106503139D01*
X146128103Y-106503144D01*
X146123067Y-106522759D01*
X146116664Y-106541462D01*
X146108619Y-106560052D01*
X146101701Y-106603725D01*
X146099295Y-106615342D01*
X146088300Y-106658168D01*
X146088300Y-106678423D01*
X146086749Y-106698133D01*
X146083580Y-106718142D01*
X146087741Y-106762161D01*
X146088300Y-106774019D01*
X146088300Y-112270500D01*
X146068298Y-112338621D01*
X146014642Y-112385114D01*
X145962300Y-112396500D01*
X143847854Y-112396500D01*
X143832012Y-112394750D01*
X143831985Y-112395044D01*
X143824092Y-112394297D01*
X143756002Y-112396438D01*
X143752044Y-112396500D01*
X143724144Y-112396500D01*
X143724138Y-112396500D01*
X143724132Y-112396501D01*
X143720133Y-112397006D01*
X143708313Y-112397936D01*
X143664111Y-112399325D01*
X143644650Y-112404979D01*
X143625304Y-112408985D01*
X143605204Y-112411525D01*
X143605203Y-112411525D01*
X143564095Y-112427800D01*
X143552870Y-112431643D01*
X143510413Y-112443978D01*
X143510404Y-112443982D01*
X143492962Y-112454297D01*
X143475215Y-112462991D01*
X143456383Y-112470447D01*
X143456381Y-112470448D01*
X143420614Y-112496434D01*
X143410700Y-112502947D01*
X143372636Y-112525459D01*
X143372633Y-112525461D01*
X143358312Y-112539783D01*
X143343283Y-112552619D01*
X143326893Y-112564527D01*
X143298705Y-112598599D01*
X143290718Y-112607376D01*
X142740333Y-113157760D01*
X142727901Y-113167720D01*
X142728089Y-113167947D01*
X142721982Y-113172999D01*
X142675370Y-113222635D01*
X142672620Y-113225473D01*
X142652863Y-113245231D01*
X142650374Y-113248439D01*
X142642688Y-113257436D01*
X142612418Y-113289673D01*
X142612411Y-113289683D01*
X142602651Y-113307435D01*
X142591803Y-113323950D01*
X142579386Y-113339958D01*
X142561824Y-113380540D01*
X142556604Y-113391195D01*
X142531487Y-113436885D01*
X142529309Y-113435687D01*
X142493171Y-113481986D01*
X142426163Y-113505449D01*
X142380080Y-113499219D01*
X142224321Y-113447606D01*
X142224318Y-113447605D01*
X142120516Y-113437000D01*
X141849000Y-113437000D01*
X141849000Y-114660500D01*
X141828998Y-114728621D01*
X141775342Y-114775114D01*
X141723000Y-114786500D01*
X140362000Y-114786500D01*
X140362000Y-114920516D01*
X140372605Y-115024318D01*
X140372606Y-115024321D01*
X140428342Y-115192525D01*
X140521365Y-115343339D01*
X140521370Y-115343345D01*
X140646657Y-115468632D01*
X140649446Y-115470837D01*
X140650863Y-115472838D01*
X140651850Y-115473825D01*
X140651681Y-115473993D01*
X140690479Y-115528775D01*
X140693674Y-115599700D01*
X140658017Y-115661093D01*
X140649457Y-115668511D01*
X140646345Y-115670971D01*
X140520975Y-115796341D01*
X140520970Y-115796347D01*
X140427885Y-115947262D01*
X140372113Y-116115572D01*
X140372112Y-116115579D01*
X140361500Y-116219446D01*
X140361500Y-116995544D01*
X140372112Y-117099425D01*
X140427885Y-117267738D01*
X140520970Y-117418652D01*
X140520975Y-117418658D01*
X140646341Y-117544024D01*
X140646347Y-117544029D01*
X140646348Y-117544030D01*
X140797262Y-117637115D01*
X140965574Y-117692887D01*
X141069455Y-117703500D01*
X141742905Y-117703499D01*
X141811026Y-117723501D01*
X141832000Y-117740404D01*
X142237595Y-118145999D01*
X142271621Y-118208311D01*
X142274500Y-118235094D01*
X142274500Y-119800000D01*
X142254498Y-119868121D01*
X142200842Y-119914614D01*
X142148500Y-119926000D01*
X141986513Y-119926000D01*
X141799707Y-119965706D01*
X141711148Y-120005135D01*
X141640781Y-120014569D01*
X141576485Y-119984462D01*
X141570806Y-119979123D01*
X141537658Y-119945975D01*
X141537652Y-119945970D01*
X141511143Y-119929619D01*
X141386738Y-119852885D01*
X141274299Y-119815627D01*
X141218427Y-119797113D01*
X141218420Y-119797112D01*
X141114553Y-119786500D01*
X140063455Y-119786500D01*
X139959574Y-119797112D01*
X139791259Y-119852886D01*
X139700146Y-119909085D01*
X139631667Y-119927822D01*
X139563928Y-119906562D01*
X139518437Y-119852055D01*
X139508000Y-119801844D01*
X139508000Y-118495355D01*
X139509749Y-118479514D01*
X139509456Y-118479487D01*
X139510201Y-118471594D01*
X139510202Y-118471591D01*
X139508062Y-118403513D01*
X139508000Y-118399554D01*
X139508000Y-118371649D01*
X139508000Y-118371644D01*
X139507492Y-118367630D01*
X139506561Y-118355797D01*
X139506083Y-118340577D01*
X139505173Y-118311610D01*
X139499522Y-118292163D01*
X139495512Y-118272800D01*
X139492974Y-118252703D01*
X139476695Y-118211590D01*
X139472853Y-118200369D01*
X139460518Y-118157907D01*
X139450205Y-118140469D01*
X139441510Y-118122722D01*
X139434052Y-118103883D01*
X139408068Y-118068120D01*
X139401551Y-118058199D01*
X139379041Y-118020135D01*
X139364718Y-118005812D01*
X139351877Y-117990779D01*
X139349862Y-117988006D01*
X139339972Y-117974393D01*
X139331035Y-117967000D01*
X139305905Y-117946210D01*
X139297126Y-117938221D01*
X138406999Y-117048094D01*
X138372973Y-116985782D01*
X138378038Y-116914967D01*
X138406996Y-116869906D01*
X139072661Y-116204241D01*
X139085092Y-116194284D01*
X139084905Y-116194057D01*
X139091016Y-116189001D01*
X139091015Y-116189001D01*
X139091018Y-116189000D01*
X139137676Y-116139312D01*
X139140367Y-116136535D01*
X139160134Y-116116770D01*
X139162617Y-116113567D01*
X139170308Y-116104562D01*
X139200586Y-116072321D01*
X139210345Y-116054567D01*
X139221197Y-116038046D01*
X139233613Y-116022041D01*
X139251168Y-115981470D01*
X139256392Y-115970808D01*
X139259807Y-115964596D01*
X139277695Y-115932060D01*
X139282733Y-115912435D01*
X139289138Y-115893730D01*
X139289375Y-115893183D01*
X139297181Y-115875145D01*
X139304096Y-115831476D01*
X139306503Y-115819856D01*
X139311952Y-115798638D01*
X139317500Y-115777030D01*
X139317500Y-115756769D01*
X139319051Y-115737058D01*
X139322219Y-115717057D01*
X139318059Y-115673045D01*
X139317500Y-115661188D01*
X139317500Y-114278500D01*
X140362000Y-114278500D01*
X141341000Y-114278500D01*
X141341000Y-113437000D01*
X141069483Y-113437000D01*
X140965681Y-113447605D01*
X140965678Y-113447606D01*
X140797474Y-113503342D01*
X140646660Y-113596365D01*
X140646654Y-113596370D01*
X140521370Y-113721654D01*
X140521365Y-113721660D01*
X140428342Y-113872474D01*
X140372606Y-114040678D01*
X140372605Y-114040681D01*
X140362000Y-114144483D01*
X140362000Y-114278500D01*
X139317500Y-114278500D01*
X139317500Y-113875854D01*
X139319249Y-113860012D01*
X139318956Y-113859985D01*
X139319700Y-113852099D01*
X139319702Y-113852092D01*
X139317562Y-113784000D01*
X139317500Y-113780042D01*
X139317500Y-113752150D01*
X139317500Y-113752144D01*
X139316993Y-113748135D01*
X139316062Y-113736306D01*
X139316004Y-113734458D01*
X139314674Y-113692111D01*
X139309020Y-113672652D01*
X139305012Y-113653297D01*
X139302474Y-113633203D01*
X139286195Y-113592087D01*
X139282356Y-113580872D01*
X139279109Y-113569697D01*
X139270019Y-113538407D01*
X139259703Y-113520964D01*
X139251005Y-113503209D01*
X139243552Y-113484383D01*
X139217563Y-113448612D01*
X139211052Y-113438700D01*
X139188542Y-113400638D01*
X139174214Y-113386310D01*
X139161384Y-113371289D01*
X139149472Y-113354893D01*
X139149469Y-113354891D01*
X139149469Y-113354890D01*
X139115394Y-113326700D01*
X139106616Y-113318712D01*
X137531905Y-111744000D01*
X138492000Y-111744000D01*
X138492000Y-111890516D01*
X138502605Y-111994318D01*
X138502606Y-111994321D01*
X138558342Y-112162525D01*
X138651365Y-112313339D01*
X138651370Y-112313345D01*
X138776654Y-112438629D01*
X138776660Y-112438634D01*
X138927474Y-112531657D01*
X139095678Y-112587393D01*
X139095681Y-112587394D01*
X139199483Y-112597999D01*
X139199483Y-112598000D01*
X139446000Y-112598000D01*
X139446000Y-111744000D01*
X139954000Y-111744000D01*
X139954000Y-112598000D01*
X140200517Y-112598000D01*
X140200516Y-112597999D01*
X140304318Y-112587394D01*
X140304321Y-112587393D01*
X140472525Y-112531657D01*
X140623339Y-112438634D01*
X140623345Y-112438629D01*
X140748629Y-112313345D01*
X140748634Y-112313339D01*
X140841657Y-112162525D01*
X140897393Y-111994321D01*
X140897394Y-111994318D01*
X140907999Y-111890516D01*
X140908000Y-111890516D01*
X140908000Y-111744000D01*
X139954000Y-111744000D01*
X139446000Y-111744000D01*
X138492000Y-111744000D01*
X137531905Y-111744000D01*
X136524244Y-110736339D01*
X136514279Y-110723901D01*
X136514052Y-110724090D01*
X136509001Y-110717984D01*
X136509000Y-110717982D01*
X136459348Y-110671356D01*
X136456505Y-110668600D01*
X136436777Y-110648871D01*
X136436771Y-110648866D01*
X136433567Y-110646380D01*
X136424556Y-110638683D01*
X136392325Y-110608417D01*
X136392319Y-110608413D01*
X136374563Y-110598651D01*
X136358047Y-110587802D01*
X136342041Y-110575386D01*
X136301464Y-110557827D01*
X136290807Y-110552605D01*
X136252063Y-110531306D01*
X136252060Y-110531305D01*
X136232436Y-110526266D01*
X136213736Y-110519864D01*
X136207434Y-110517137D01*
X136195145Y-110511819D01*
X136195143Y-110511818D01*
X136195141Y-110511818D01*
X136151474Y-110504901D01*
X136139855Y-110502495D01*
X136097030Y-110491500D01*
X136076776Y-110491500D01*
X136057066Y-110489949D01*
X136037057Y-110486780D01*
X135993039Y-110490941D01*
X135981181Y-110491500D01*
X135887500Y-110491500D01*
X135819379Y-110471498D01*
X135772886Y-110417842D01*
X135761500Y-110365500D01*
X135761500Y-109611249D01*
X135763249Y-109595412D01*
X135762955Y-109595385D01*
X135763701Y-109587492D01*
X135761562Y-109519431D01*
X135761500Y-109515473D01*
X135761500Y-109487551D01*
X135761500Y-109487544D01*
X135760991Y-109483523D01*
X135760061Y-109471696D01*
X135758673Y-109427510D01*
X135753022Y-109408063D01*
X135749012Y-109388700D01*
X135748791Y-109386950D01*
X135746474Y-109368603D01*
X135730192Y-109327481D01*
X135726358Y-109316282D01*
X135714018Y-109273806D01*
X135703700Y-109256361D01*
X135695005Y-109238609D01*
X135687553Y-109219785D01*
X135687550Y-109219779D01*
X135661564Y-109184013D01*
X135655045Y-109174089D01*
X135632541Y-109136035D01*
X135618218Y-109121712D01*
X135605377Y-109106679D01*
X135593471Y-109090292D01*
X135559405Y-109062110D01*
X135550626Y-109054121D01*
X134992472Y-108495967D01*
X134958446Y-108433655D01*
X134956289Y-108393407D01*
X134962500Y-108335638D01*
X134962500Y-106538362D01*
X134962499Y-106538350D01*
X134955990Y-106477803D01*
X134954177Y-106470132D01*
X134957121Y-106469436D01*
X134953060Y-106412730D01*
X134987078Y-106350414D01*
X135049386Y-106316382D01*
X135076183Y-106313500D01*
X138463360Y-106313500D01*
X138531481Y-106333502D01*
X138570599Y-106373351D01*
X138620184Y-106453740D01*
X138650970Y-106503652D01*
X138650975Y-106503658D01*
X138738222Y-106590905D01*
X138772248Y-106653217D01*
X138767183Y-106724032D01*
X138738222Y-106769095D01*
X138650975Y-106856341D01*
X138650970Y-106856347D01*
X138557885Y-107007262D01*
X138502113Y-107175572D01*
X138502112Y-107175579D01*
X138491500Y-107279446D01*
X138491500Y-108080544D01*
X138502112Y-108184425D01*
X138544406Y-108312060D01*
X138557885Y-108352738D01*
X138650970Y-108503652D01*
X138650971Y-108503653D01*
X138650973Y-108503656D01*
X138653502Y-108506855D01*
X138654552Y-108509459D01*
X138654823Y-108509898D01*
X138654748Y-108509944D01*
X138680060Y-108572697D01*
X138666805Y-108642446D01*
X138653502Y-108663145D01*
X138650973Y-108666343D01*
X138557885Y-108817262D01*
X138502113Y-108985572D01*
X138502112Y-108985579D01*
X138491500Y-109089446D01*
X138491500Y-109890544D01*
X138502112Y-109994425D01*
X138557885Y-110162738D01*
X138650970Y-110313652D01*
X138650975Y-110313658D01*
X138738576Y-110401259D01*
X138772602Y-110463571D01*
X138767537Y-110534386D01*
X138738576Y-110579449D01*
X138651370Y-110666654D01*
X138651365Y-110666660D01*
X138558342Y-110817474D01*
X138502606Y-110985678D01*
X138502605Y-110985681D01*
X138492000Y-111089483D01*
X138492000Y-111236000D01*
X140908000Y-111236000D01*
X140908000Y-111089483D01*
X140897394Y-110985681D01*
X140897393Y-110985678D01*
X140841657Y-110817474D01*
X140748634Y-110666660D01*
X140748629Y-110666654D01*
X140661424Y-110579449D01*
X140627398Y-110517137D01*
X140632463Y-110446322D01*
X140661424Y-110401259D01*
X140749024Y-110313658D01*
X140749030Y-110313652D01*
X140842115Y-110162738D01*
X140897887Y-109994426D01*
X140908500Y-109890545D01*
X140908499Y-109089456D01*
X140905705Y-109062110D01*
X140897887Y-108985574D01*
X140894083Y-108974094D01*
X140842115Y-108817262D01*
X140749030Y-108666348D01*
X140749022Y-108666340D01*
X140746502Y-108663152D01*
X140745450Y-108660545D01*
X140745177Y-108660102D01*
X140745252Y-108660055D01*
X140719940Y-108597311D01*
X140733190Y-108527562D01*
X140746502Y-108506848D01*
X140749018Y-108503663D01*
X140749030Y-108503652D01*
X140842115Y-108352738D01*
X140897887Y-108184426D01*
X140908500Y-108080545D01*
X140908499Y-107279456D01*
X140897887Y-107175574D01*
X140842115Y-107007262D01*
X140749030Y-106856348D01*
X140749029Y-106856347D01*
X140749024Y-106856341D01*
X140661778Y-106769095D01*
X140627752Y-106706783D01*
X140632817Y-106635968D01*
X140661778Y-106590905D01*
X140749024Y-106503658D01*
X140749030Y-106503652D01*
X140842115Y-106352738D01*
X140897887Y-106184426D01*
X140908500Y-106080545D01*
X140908499Y-105279456D01*
X140905813Y-105253167D01*
X140897887Y-105175574D01*
X140897849Y-105175458D01*
X140842115Y-105007262D01*
X140749030Y-104856348D01*
X140749022Y-104856340D01*
X140746502Y-104853152D01*
X140745450Y-104850545D01*
X140745177Y-104850102D01*
X140745252Y-104850055D01*
X140719940Y-104787311D01*
X140733190Y-104717562D01*
X140746502Y-104696848D01*
X140749018Y-104693663D01*
X140749030Y-104693652D01*
X140842115Y-104542738D01*
X140897887Y-104374426D01*
X140908500Y-104270545D01*
X140908499Y-103469456D01*
X140905347Y-103438605D01*
X140897887Y-103365574D01*
X140890391Y-103342951D01*
X140842115Y-103197262D01*
X140749030Y-103046348D01*
X140749029Y-103046347D01*
X140749024Y-103046341D01*
X140661778Y-102959095D01*
X140627752Y-102896783D01*
X140632817Y-102825968D01*
X140661778Y-102780905D01*
X140749024Y-102693658D01*
X140749030Y-102693652D01*
X140829400Y-102563351D01*
X140882185Y-102515875D01*
X140936640Y-102503500D01*
X148353360Y-102503500D01*
X148421481Y-102523502D01*
G37*
G04 #@! TD.AperFunction*
G04 #@! TA.AperFunction,Conductor*
G36*
X158851481Y-102523502D02*
G01*
X158890601Y-102563353D01*
X158970970Y-102693652D01*
X158970975Y-102693658D01*
X159058222Y-102780905D01*
X159092248Y-102843217D01*
X159087183Y-102914032D01*
X159058222Y-102959095D01*
X158970975Y-103046341D01*
X158970970Y-103046347D01*
X158877885Y-103197262D01*
X158822113Y-103365572D01*
X158822112Y-103365579D01*
X158811500Y-103469446D01*
X158811500Y-103765405D01*
X158791498Y-103833526D01*
X158774599Y-103854495D01*
X158498691Y-104130404D01*
X158234340Y-104394755D01*
X158221903Y-104404719D01*
X158222091Y-104404946D01*
X158215982Y-104409999D01*
X158169370Y-104459635D01*
X158166620Y-104462473D01*
X158146863Y-104482231D01*
X158144374Y-104485439D01*
X158136688Y-104494436D01*
X158106418Y-104526673D01*
X158106411Y-104526683D01*
X158096651Y-104544435D01*
X158085803Y-104560950D01*
X158073386Y-104576958D01*
X158055824Y-104617540D01*
X158050604Y-104628195D01*
X158029305Y-104666939D01*
X158029303Y-104666944D01*
X158024267Y-104686559D01*
X158017864Y-104705262D01*
X158009819Y-104723852D01*
X158002901Y-104767525D01*
X158000495Y-104779142D01*
X157989500Y-104821968D01*
X157989500Y-104842223D01*
X157987949Y-104861933D01*
X157984780Y-104881942D01*
X157988941Y-104925961D01*
X157989500Y-104937819D01*
X157989500Y-111325271D01*
X157969498Y-111393392D01*
X157915842Y-111439885D01*
X157845568Y-111449989D01*
X157780988Y-111420495D01*
X157762632Y-111400780D01*
X157677261Y-111286738D01*
X157560207Y-111199112D01*
X157560202Y-111199110D01*
X157423204Y-111148011D01*
X157423196Y-111148009D01*
X157362649Y-111141500D01*
X157362638Y-111141500D01*
X155565362Y-111141500D01*
X155565350Y-111141500D01*
X155504803Y-111148009D01*
X155504795Y-111148011D01*
X155367797Y-111199110D01*
X155367792Y-111199112D01*
X155250738Y-111286738D01*
X155163112Y-111403792D01*
X155163110Y-111403797D01*
X155112011Y-111540795D01*
X155112009Y-111540803D01*
X155105500Y-111601350D01*
X155105500Y-111800752D01*
X155085498Y-111868873D01*
X155040628Y-111907752D01*
X155041927Y-111909948D01*
X155017662Y-111924297D01*
X154999915Y-111932991D01*
X154981083Y-111940447D01*
X154981081Y-111940448D01*
X154945314Y-111966434D01*
X154935400Y-111972947D01*
X154897336Y-111995459D01*
X154897333Y-111995461D01*
X154883012Y-112009783D01*
X154867983Y-112022619D01*
X154851593Y-112034527D01*
X154823405Y-112068599D01*
X154815418Y-112077376D01*
X154204453Y-112688340D01*
X154142141Y-112722365D01*
X154071325Y-112717300D01*
X154032846Y-112694469D01*
X153975520Y-112644797D01*
X153975521Y-112644797D01*
X153975518Y-112644795D01*
X153852512Y-112565744D01*
X153852507Y-112565741D01*
X153720906Y-112505640D01*
X153717405Y-112504747D01*
X153581425Y-112464819D01*
X153439117Y-112444358D01*
X153439112Y-112444358D01*
X153382514Y-112444358D01*
X153382218Y-112444271D01*
X153330236Y-112444271D01*
X152901764Y-112444271D01*
X152850295Y-112444271D01*
X152849486Y-112444358D01*
X152792882Y-112444358D01*
X152659496Y-112463537D01*
X152659491Y-112463537D01*
X152656456Y-112463974D01*
X152650568Y-112464820D01*
X152510278Y-112506014D01*
X152510263Y-112506020D01*
X152379492Y-112565741D01*
X152379487Y-112565744D01*
X152256478Y-112644797D01*
X152256472Y-112644802D01*
X152151176Y-112736040D01*
X152149427Y-112737451D01*
X152147816Y-112738952D01*
X152052064Y-112849457D01*
X151974330Y-112970412D01*
X151913586Y-113103423D01*
X151873082Y-113241369D01*
X151873077Y-113241390D01*
X151853299Y-113378954D01*
X151823806Y-113443535D01*
X151817677Y-113450117D01*
X149853113Y-115414680D01*
X149790801Y-115448706D01*
X149719985Y-115443641D01*
X149719036Y-115443000D01*
X149483132Y-115443000D01*
X149417947Y-115424828D01*
X149310910Y-115360121D01*
X149310909Y-115360120D01*
X149310908Y-115360120D01*
X149310903Y-115360118D01*
X149148975Y-115309661D01*
X149149742Y-115307198D01*
X149097111Y-115279653D01*
X149061992Y-115217951D01*
X149065807Y-115147057D01*
X149107344Y-115089479D01*
X149149556Y-115070212D01*
X149148973Y-115068340D01*
X149310905Y-115017881D01*
X149310906Y-115017880D01*
X149310910Y-115017879D01*
X149417947Y-114953171D01*
X149483132Y-114935000D01*
X149700609Y-114935000D01*
X149700609Y-114934999D01*
X149697861Y-114904751D01*
X149697861Y-114904750D01*
X149650363Y-114752324D01*
X149649193Y-114681337D01*
X149650348Y-114677402D01*
X149698356Y-114523339D01*
X149704500Y-114455729D01*
X149704499Y-114022272D01*
X149698356Y-113954661D01*
X149698145Y-113953984D01*
X149649881Y-113799094D01*
X149649879Y-113799091D01*
X149649879Y-113799090D01*
X149565579Y-113659642D01*
X149565578Y-113659641D01*
X149565574Y-113659636D01*
X149450363Y-113544425D01*
X149450358Y-113544421D01*
X149385464Y-113505191D01*
X149310910Y-113460121D01*
X149310909Y-113460120D01*
X149310908Y-113460120D01*
X149310903Y-113460118D01*
X149155336Y-113411643D01*
X149106158Y-113407174D01*
X149087729Y-113405500D01*
X149087726Y-113405500D01*
X148587500Y-113405500D01*
X148519379Y-113385498D01*
X148472886Y-113331842D01*
X148461500Y-113279500D01*
X148461500Y-112536671D01*
X148481502Y-112468550D01*
X148535158Y-112422057D01*
X148605432Y-112411953D01*
X148660022Y-112435418D01*
X148660415Y-112434782D01*
X148664718Y-112437436D01*
X148665655Y-112437839D01*
X148666661Y-112438634D01*
X148817474Y-112531657D01*
X148985678Y-112587393D01*
X148985681Y-112587394D01*
X149089483Y-112597999D01*
X149089483Y-112598000D01*
X149336000Y-112598000D01*
X149336000Y-111744000D01*
X149844000Y-111744000D01*
X149844000Y-112598000D01*
X150090517Y-112598000D01*
X150090516Y-112597999D01*
X150194318Y-112587394D01*
X150194321Y-112587393D01*
X150362525Y-112531657D01*
X150513339Y-112438634D01*
X150513345Y-112438629D01*
X150638629Y-112313345D01*
X150638634Y-112313339D01*
X150731657Y-112162525D01*
X150787393Y-111994321D01*
X150787394Y-111994318D01*
X150797999Y-111890516D01*
X150798000Y-111890516D01*
X150798000Y-111744000D01*
X149844000Y-111744000D01*
X149336000Y-111744000D01*
X149336000Y-111362000D01*
X149356002Y-111293879D01*
X149409658Y-111247386D01*
X149462000Y-111236000D01*
X150798000Y-111236000D01*
X150798000Y-111089483D01*
X150787394Y-110985681D01*
X150787393Y-110985678D01*
X150731657Y-110817474D01*
X150638634Y-110666660D01*
X150638629Y-110666654D01*
X150551424Y-110579449D01*
X150517398Y-110517137D01*
X150522463Y-110446322D01*
X150551424Y-110401259D01*
X150639024Y-110313658D01*
X150639030Y-110313652D01*
X150732115Y-110162738D01*
X150787887Y-109994426D01*
X150798500Y-109890545D01*
X150798499Y-109089456D01*
X150795705Y-109062110D01*
X150787887Y-108985574D01*
X150784083Y-108974094D01*
X150732115Y-108817262D01*
X150639030Y-108666348D01*
X150639022Y-108666340D01*
X150636502Y-108663152D01*
X150635450Y-108660545D01*
X150635177Y-108660102D01*
X150635252Y-108660055D01*
X150609940Y-108597311D01*
X150623190Y-108527562D01*
X150636502Y-108506848D01*
X150639018Y-108503663D01*
X150639030Y-108503652D01*
X150732115Y-108352738D01*
X150787887Y-108184426D01*
X150798500Y-108080545D01*
X150798499Y-107279456D01*
X150787887Y-107175574D01*
X150732115Y-107007262D01*
X150639030Y-106856348D01*
X150639029Y-106856347D01*
X150639024Y-106856341D01*
X150551778Y-106769095D01*
X150517752Y-106706783D01*
X150522817Y-106635968D01*
X150551778Y-106590905D01*
X150639024Y-106503658D01*
X150639030Y-106503652D01*
X150732115Y-106352738D01*
X150787887Y-106184426D01*
X150798500Y-106080545D01*
X150798499Y-105279456D01*
X150795813Y-105253167D01*
X150787887Y-105175574D01*
X150787849Y-105175458D01*
X150732115Y-105007262D01*
X150639030Y-104856348D01*
X150639022Y-104856340D01*
X150636502Y-104853152D01*
X150635450Y-104850545D01*
X150635177Y-104850102D01*
X150635252Y-104850055D01*
X150609940Y-104787311D01*
X150623190Y-104717562D01*
X150636502Y-104696848D01*
X150639018Y-104693663D01*
X150639030Y-104693652D01*
X150732115Y-104542738D01*
X150787887Y-104374426D01*
X150798500Y-104270545D01*
X150798499Y-103469456D01*
X150795347Y-103438605D01*
X150787887Y-103365574D01*
X150780391Y-103342951D01*
X150732115Y-103197262D01*
X150639030Y-103046348D01*
X150639029Y-103046347D01*
X150639024Y-103046341D01*
X150551778Y-102959095D01*
X150517752Y-102896783D01*
X150522817Y-102825968D01*
X150551778Y-102780905D01*
X150639024Y-102693658D01*
X150639030Y-102693652D01*
X150719400Y-102563351D01*
X150772185Y-102515875D01*
X150826640Y-102503500D01*
X158783360Y-102503500D01*
X158851481Y-102523502D01*
G37*
G04 #@! TD.AperFunction*
G04 #@! TA.AperFunction,Conductor*
G36*
X179941621Y-100020502D02*
G01*
X179988114Y-100074158D01*
X179999500Y-100126500D01*
X179999500Y-100302184D01*
X180035991Y-100905455D01*
X180035991Y-100905457D01*
X180108838Y-101505396D01*
X180108839Y-101505403D01*
X180217778Y-102099865D01*
X180362415Y-102686683D01*
X180542215Y-103263681D01*
X180756514Y-103828742D01*
X180756534Y-103828790D01*
X181004567Y-104379897D01*
X181004568Y-104379899D01*
X181285427Y-104915032D01*
X181598085Y-105432230D01*
X181598094Y-105432244D01*
X181839073Y-105781362D01*
X181941410Y-105929623D01*
X182314134Y-106405370D01*
X182314138Y-106405375D01*
X182314140Y-106405377D01*
X182314141Y-106405378D01*
X182714896Y-106857738D01*
X182714917Y-106857760D01*
X183142239Y-107285082D01*
X183142261Y-107285103D01*
X183476902Y-107581568D01*
X183594630Y-107685866D01*
X184070377Y-108058590D01*
X184183648Y-108136775D01*
X184567755Y-108401905D01*
X184567769Y-108401914D01*
X185084967Y-108714572D01*
X185601319Y-108985574D01*
X185620106Y-108995434D01*
X186171228Y-109243474D01*
X186736320Y-109457785D01*
X187313321Y-109637586D01*
X187900126Y-109782220D01*
X188494593Y-109891160D01*
X188786399Y-109926592D01*
X189094543Y-109964008D01*
X189094546Y-109964008D01*
X189094553Y-109964009D01*
X189597419Y-109994427D01*
X189697816Y-110000500D01*
X189697817Y-110000500D01*
X189873500Y-110000500D01*
X189941621Y-110020502D01*
X189988114Y-110074158D01*
X189999500Y-110126500D01*
X189999500Y-147873500D01*
X189979498Y-147941621D01*
X189925842Y-147988114D01*
X189873500Y-147999500D01*
X189697816Y-147999500D01*
X189094544Y-148035991D01*
X189094542Y-148035991D01*
X188494603Y-148108838D01*
X188494596Y-148108839D01*
X187900134Y-148217778D01*
X187313316Y-148362415D01*
X186736318Y-148542215D01*
X186171257Y-148756514D01*
X186171209Y-148756534D01*
X185620102Y-149004567D01*
X185620100Y-149004568D01*
X185084967Y-149285427D01*
X184567769Y-149598085D01*
X184567755Y-149598094D01*
X184070380Y-149941407D01*
X183594622Y-150314140D01*
X183594621Y-150314141D01*
X183142261Y-150714896D01*
X183142239Y-150714917D01*
X182714917Y-151142239D01*
X182714896Y-151142261D01*
X182314141Y-151594621D01*
X182314140Y-151594622D01*
X181941407Y-152070380D01*
X181598094Y-152567755D01*
X181598085Y-152567769D01*
X181285427Y-153084967D01*
X181004568Y-153620100D01*
X181004567Y-153620102D01*
X180756534Y-154171209D01*
X180756514Y-154171257D01*
X180542215Y-154736318D01*
X180362415Y-155313316D01*
X180217778Y-155900134D01*
X180108839Y-156494596D01*
X180108838Y-156494603D01*
X180035991Y-157094542D01*
X180035991Y-157094544D01*
X179999500Y-157697815D01*
X179999500Y-157873500D01*
X179979498Y-157941621D01*
X179925842Y-157988114D01*
X179873500Y-157999500D01*
X110126500Y-157999500D01*
X110058379Y-157979498D01*
X110011886Y-157925842D01*
X110000500Y-157873500D01*
X110000500Y-157697815D01*
X109964008Y-157094544D01*
X109964008Y-157094542D01*
X109891161Y-156494603D01*
X109891160Y-156494596D01*
X109891160Y-156494593D01*
X109782220Y-155900126D01*
X109637586Y-155313321D01*
X109457785Y-154736320D01*
X109386611Y-154548649D01*
X128291500Y-154548649D01*
X128298009Y-154609196D01*
X128298011Y-154609204D01*
X128349110Y-154746202D01*
X128349112Y-154746207D01*
X128436738Y-154863261D01*
X128553792Y-154950887D01*
X128553794Y-154950888D01*
X128553796Y-154950889D01*
X128612875Y-154972924D01*
X128690795Y-155001988D01*
X128690803Y-155001990D01*
X128751350Y-155008499D01*
X128751355Y-155008499D01*
X128751362Y-155008500D01*
X128751368Y-155008500D01*
X131248632Y-155008500D01*
X131248638Y-155008500D01*
X131248645Y-155008499D01*
X131248649Y-155008499D01*
X131309196Y-155001990D01*
X131309199Y-155001989D01*
X131309201Y-155001989D01*
X131446204Y-154950889D01*
X131563261Y-154863261D01*
X131623103Y-154783322D01*
X131650887Y-154746207D01*
X131650887Y-154746206D01*
X131650889Y-154746204D01*
X131701989Y-154609201D01*
X131708500Y-154548638D01*
X131708500Y-154076343D01*
X131728502Y-154008222D01*
X131782158Y-153961729D01*
X131852432Y-153951625D01*
X131917012Y-153981119D01*
X131951791Y-154030312D01*
X131956828Y-154043147D01*
X131956828Y-154043148D01*
X132084824Y-154264844D01*
X132084829Y-154264852D01*
X132125250Y-154315537D01*
X132125252Y-154315537D01*
X132935570Y-153505219D01*
X132975901Y-153602588D01*
X133072075Y-153727925D01*
X133197412Y-153824099D01*
X133294779Y-153864429D01*
X132484421Y-154674786D01*
X132484421Y-154674787D01*
X132643610Y-154783321D01*
X132643611Y-154783322D01*
X132874239Y-154894386D01*
X133118862Y-154969844D01*
X133118870Y-154969845D01*
X133372008Y-155008000D01*
X133627992Y-155008000D01*
X133881129Y-154969845D01*
X133881141Y-154969843D01*
X134125746Y-154894392D01*
X134125753Y-154894389D01*
X134356397Y-154783318D01*
X134356399Y-154783317D01*
X134515577Y-154674789D01*
X134515578Y-154674787D01*
X133705220Y-153864429D01*
X133802588Y-153824099D01*
X133927925Y-153727925D01*
X134024099Y-153602589D01*
X134064429Y-153505220D01*
X134874747Y-154315538D01*
X134874748Y-154315537D01*
X134915172Y-154264849D01*
X134915172Y-154264848D01*
X135043171Y-154043148D01*
X135043173Y-154043144D01*
X135136693Y-153804856D01*
X135136694Y-153804854D01*
X135193658Y-153555281D01*
X135212788Y-153300000D01*
X135193658Y-153044718D01*
X135136694Y-152795145D01*
X135136693Y-152795143D01*
X135043173Y-152556855D01*
X135043171Y-152556851D01*
X134915175Y-152335155D01*
X134874747Y-152284460D01*
X134064429Y-153094778D01*
X134024099Y-152997412D01*
X133927925Y-152872075D01*
X133802588Y-152775901D01*
X133705220Y-152735570D01*
X134515578Y-151925211D01*
X134356390Y-151816678D01*
X134356389Y-151816677D01*
X134125753Y-151705610D01*
X134125746Y-151705607D01*
X133881141Y-151630156D01*
X133881129Y-151630154D01*
X133627992Y-151592000D01*
X133372008Y-151592000D01*
X133118870Y-151630154D01*
X133118862Y-151630155D01*
X132874239Y-151705613D01*
X132643611Y-151816677D01*
X132643603Y-151816682D01*
X132484421Y-151925210D01*
X132484421Y-151925212D01*
X133294779Y-152735570D01*
X133197412Y-152775901D01*
X133072075Y-152872075D01*
X132975901Y-152997411D01*
X132935570Y-153094779D01*
X132125252Y-152284461D01*
X132125250Y-152284461D01*
X132084828Y-152335148D01*
X132084825Y-152335153D01*
X131956828Y-152556851D01*
X131951790Y-152569690D01*
X131908283Y-152625794D01*
X131841350Y-152649470D01*
X131772243Y-152633201D01*
X131722902Y-152582152D01*
X131708500Y-152523656D01*
X131708500Y-152051367D01*
X131708499Y-152051350D01*
X131701990Y-151990803D01*
X131701988Y-151990795D01*
X131650889Y-151853797D01*
X131650887Y-151853792D01*
X131563261Y-151736738D01*
X131446207Y-151649112D01*
X131446202Y-151649110D01*
X131309204Y-151598011D01*
X131309196Y-151598009D01*
X131248649Y-151591500D01*
X131248638Y-151591500D01*
X128751362Y-151591500D01*
X128751350Y-151591500D01*
X128690803Y-151598009D01*
X128690795Y-151598011D01*
X128553797Y-151649110D01*
X128553792Y-151649112D01*
X128436738Y-151736738D01*
X128349112Y-151853792D01*
X128349110Y-151853797D01*
X128298011Y-151990795D01*
X128298009Y-151990803D01*
X128291500Y-152051350D01*
X128291500Y-154548649D01*
X109386611Y-154548649D01*
X109243474Y-154171228D01*
X108995434Y-153620106D01*
X108995431Y-153620100D01*
X108714572Y-153084967D01*
X108401914Y-152567769D01*
X108401905Y-152567755D01*
X108100561Y-152131182D01*
X120749500Y-152131182D01*
X120771224Y-152275311D01*
X120788604Y-152390619D01*
X120865933Y-152641314D01*
X120865938Y-152641327D01*
X120979773Y-152877706D01*
X120979777Y-152877713D01*
X121093640Y-153044718D01*
X121127567Y-153094479D01*
X121306019Y-153286805D01*
X121511143Y-153450386D01*
X121511146Y-153450388D01*
X121738352Y-153581566D01*
X121738356Y-153581567D01*
X121738357Y-153581568D01*
X121982584Y-153677420D01*
X122238370Y-153735802D01*
X122434506Y-153750500D01*
X122434507Y-153750500D01*
X122565493Y-153750500D01*
X122565494Y-153750500D01*
X122761630Y-153735802D01*
X123017416Y-153677420D01*
X123261643Y-153581568D01*
X123261645Y-153581566D01*
X123261647Y-153581566D01*
X123478040Y-153456631D01*
X123488857Y-153450386D01*
X123693981Y-153286805D01*
X123872433Y-153094479D01*
X124020228Y-152877704D01*
X124134063Y-152641323D01*
X124134066Y-152641314D01*
X124211395Y-152390619D01*
X124219755Y-152335155D01*
X124250500Y-152131182D01*
X124250500Y-151868818D01*
X124211396Y-151609385D01*
X124211395Y-151609383D01*
X124211395Y-151609380D01*
X124134066Y-151358685D01*
X124134061Y-151358672D01*
X124085854Y-151258570D01*
X124020228Y-151122296D01*
X124020226Y-151122293D01*
X124020222Y-151122286D01*
X123884933Y-150923855D01*
X123872433Y-150905521D01*
X123693981Y-150713195D01*
X123488857Y-150549614D01*
X123488852Y-150549611D01*
X123488853Y-150549611D01*
X123261647Y-150418433D01*
X123261639Y-150418430D01*
X123017419Y-150322581D01*
X123017417Y-150322580D01*
X122761633Y-150264198D01*
X122614528Y-150253174D01*
X122565494Y-150249500D01*
X122434506Y-150249500D01*
X122395278Y-150252439D01*
X122238366Y-150264198D01*
X121982582Y-150322580D01*
X121982580Y-150322581D01*
X121738360Y-150418430D01*
X121738352Y-150418433D01*
X121511146Y-150549611D01*
X121306018Y-150713195D01*
X121127566Y-150905522D01*
X121127562Y-150905527D01*
X120979777Y-151122286D01*
X120979773Y-151122293D01*
X120865938Y-151358672D01*
X120865933Y-151358685D01*
X120788604Y-151609380D01*
X120769408Y-151736738D01*
X120749500Y-151868818D01*
X120749500Y-152131182D01*
X108100561Y-152131182D01*
X108058592Y-152070380D01*
X108058590Y-152070377D01*
X107685866Y-151594630D01*
X107571467Y-151465500D01*
X107285103Y-151142261D01*
X107285082Y-151142239D01*
X106857760Y-150714917D01*
X106857738Y-150714896D01*
X106405378Y-150314141D01*
X106405377Y-150314140D01*
X106405375Y-150314138D01*
X106405370Y-150314134D01*
X105929623Y-149941410D01*
X105682123Y-149770573D01*
X105432244Y-149598094D01*
X105432230Y-149598085D01*
X104915032Y-149285427D01*
X104379899Y-149004568D01*
X104379897Y-149004567D01*
X103828790Y-148756534D01*
X103828786Y-148756532D01*
X103828772Y-148756526D01*
X103828758Y-148756520D01*
X103828742Y-148756514D01*
X103263681Y-148542215D01*
X102686683Y-148362415D01*
X102602176Y-148341586D01*
X102099874Y-148217780D01*
X102099870Y-148217779D01*
X102099865Y-148217778D01*
X102005822Y-148200544D01*
X108791500Y-148200544D01*
X108802112Y-148304425D01*
X108857885Y-148472738D01*
X108950970Y-148623652D01*
X108950975Y-148623658D01*
X109076341Y-148749024D01*
X109076347Y-148749029D01*
X109076348Y-148749030D01*
X109227262Y-148842115D01*
X109395574Y-148897887D01*
X109499455Y-148908500D01*
X110500544Y-148908499D01*
X110604426Y-148897887D01*
X110772738Y-148842115D01*
X110923652Y-148749030D01*
X111049030Y-148623652D01*
X111142115Y-148472738D01*
X111197887Y-148304426D01*
X111208500Y-148200545D01*
X111208499Y-147564593D01*
X111228501Y-147496473D01*
X111245399Y-147475504D01*
X112148660Y-146572243D01*
X112161098Y-146562280D01*
X112160910Y-146562053D01*
X112167016Y-146557001D01*
X112167015Y-146557001D01*
X112167018Y-146557000D01*
X112213662Y-146507327D01*
X112216352Y-146504551D01*
X112236135Y-146484770D01*
X112238614Y-146481573D01*
X112246311Y-146472559D01*
X112276586Y-146440321D01*
X112286346Y-146422565D01*
X112297195Y-146406050D01*
X112309614Y-146390041D01*
X112327179Y-146349446D01*
X112332384Y-146338821D01*
X112353695Y-146300060D01*
X112358733Y-146280434D01*
X112365137Y-146261732D01*
X112368299Y-146254425D01*
X112373181Y-146243145D01*
X112380096Y-146199481D01*
X112382504Y-146187852D01*
X112393500Y-146145030D01*
X112393500Y-146124775D01*
X112395051Y-146105063D01*
X112398220Y-146085057D01*
X112394059Y-146041036D01*
X112393500Y-146029179D01*
X112393500Y-144604000D01*
X120492000Y-144604000D01*
X120492000Y-147648597D01*
X120498505Y-147709093D01*
X120549555Y-147845964D01*
X120549555Y-147845965D01*
X120637095Y-147962904D01*
X120754034Y-148050444D01*
X120890906Y-148101494D01*
X120951402Y-148107999D01*
X120951415Y-148108000D01*
X122246000Y-148108000D01*
X122246000Y-144604000D01*
X122754000Y-144604000D01*
X122754000Y-148108000D01*
X124048585Y-148108000D01*
X124048597Y-148107999D01*
X124109093Y-148101494D01*
X124245964Y-148050444D01*
X124245965Y-148050444D01*
X124362904Y-147962904D01*
X124450444Y-147845965D01*
X124450444Y-147845964D01*
X124501494Y-147709093D01*
X124507999Y-147648597D01*
X124508000Y-147648585D01*
X124508000Y-144604000D01*
X122754000Y-144604000D01*
X122246000Y-144604000D01*
X120492000Y-144604000D01*
X112393500Y-144604000D01*
X112393500Y-144096000D01*
X120492000Y-144096000D01*
X122246000Y-144096000D01*
X122246000Y-140592000D01*
X122754000Y-140592000D01*
X122754000Y-144096000D01*
X124508000Y-144096000D01*
X124508000Y-141051414D01*
X124507999Y-141051402D01*
X124501494Y-140990906D01*
X124450444Y-140854035D01*
X124450444Y-140854034D01*
X124362904Y-140737095D01*
X124245965Y-140649555D01*
X124109093Y-140598505D01*
X124048597Y-140592000D01*
X122754000Y-140592000D01*
X122246000Y-140592000D01*
X120951402Y-140592000D01*
X120890906Y-140598505D01*
X120754035Y-140649555D01*
X120754034Y-140649555D01*
X120637095Y-140737095D01*
X120549555Y-140854034D01*
X120549555Y-140854035D01*
X120498505Y-140990906D01*
X120492000Y-141051402D01*
X120492000Y-144096000D01*
X112393500Y-144096000D01*
X112393500Y-137474594D01*
X112413502Y-137406473D01*
X112430405Y-137385499D01*
X121524405Y-128291500D01*
X138467000Y-128291500D01*
X138467000Y-128425516D01*
X138477605Y-128529318D01*
X138477606Y-128529321D01*
X138533342Y-128697525D01*
X138626365Y-128848339D01*
X138626370Y-128848345D01*
X138751654Y-128973629D01*
X138751660Y-128973634D01*
X138902474Y-129066657D01*
X139070678Y-129122393D01*
X139070681Y-129122394D01*
X139174483Y-129132999D01*
X139174483Y-129133000D01*
X139446000Y-129133000D01*
X139446000Y-128291500D01*
X139954000Y-128291500D01*
X139954000Y-129133000D01*
X140225517Y-129133000D01*
X140225516Y-129132999D01*
X140329318Y-129122394D01*
X140329321Y-129122393D01*
X140497525Y-129066657D01*
X140648339Y-128973634D01*
X140648345Y-128973629D01*
X140773629Y-128848345D01*
X140773634Y-128848339D01*
X140866657Y-128697525D01*
X140922393Y-128529321D01*
X140922394Y-128529318D01*
X140932999Y-128425516D01*
X140933000Y-128425516D01*
X140933000Y-128291500D01*
X139954000Y-128291500D01*
X139446000Y-128291500D01*
X138467000Y-128291500D01*
X121524405Y-128291500D01*
X126188000Y-123627905D01*
X126250312Y-123593879D01*
X126277095Y-123591000D01*
X135058720Y-123591000D01*
X135078974Y-123591000D01*
X135098684Y-123592551D01*
X135100891Y-123592900D01*
X135118693Y-123595720D01*
X135162711Y-123591558D01*
X135174569Y-123591000D01*
X135906070Y-123591000D01*
X135974191Y-123611002D01*
X136013309Y-123650851D01*
X136045108Y-123702404D01*
X136085970Y-123768652D01*
X136085975Y-123768658D01*
X136211341Y-123894024D01*
X136211347Y-123894029D01*
X136211348Y-123894030D01*
X136362262Y-123987115D01*
X136530574Y-124042887D01*
X136634455Y-124053500D01*
X137685544Y-124053499D01*
X137789426Y-124042887D01*
X137957738Y-123987115D01*
X138048854Y-123930913D01*
X138117332Y-123912177D01*
X138185071Y-123933436D01*
X138230563Y-123987943D01*
X138241000Y-124038155D01*
X138241000Y-125053146D01*
X138239251Y-125068988D01*
X138239544Y-125069016D01*
X138238798Y-125076907D01*
X138240938Y-125144984D01*
X138241000Y-125148943D01*
X138241000Y-125176851D01*
X138241001Y-125176869D01*
X138241507Y-125180877D01*
X138242437Y-125192696D01*
X138243826Y-125236888D01*
X138243827Y-125236893D01*
X138249477Y-125256339D01*
X138253486Y-125275697D01*
X138256025Y-125295793D01*
X138256026Y-125295800D01*
X138272300Y-125336903D01*
X138276144Y-125348129D01*
X138288482Y-125390593D01*
X138298794Y-125408031D01*
X138307488Y-125425779D01*
X138314944Y-125444609D01*
X138314950Y-125444620D01*
X138340932Y-125480381D01*
X138347449Y-125490301D01*
X138369958Y-125528362D01*
X138369959Y-125528363D01*
X138369961Y-125528366D01*
X138384279Y-125542684D01*
X138397117Y-125557714D01*
X138409026Y-125574104D01*
X138409030Y-125574109D01*
X138420815Y-125583858D01*
X138460554Y-125642692D01*
X138466500Y-125680943D01*
X138466500Y-126350544D01*
X138477112Y-126454425D01*
X138532885Y-126622738D01*
X138625970Y-126773652D01*
X138625975Y-126773658D01*
X138751345Y-126899028D01*
X138754450Y-126901483D01*
X138756027Y-126903710D01*
X138756537Y-126904220D01*
X138756449Y-126904307D01*
X138795481Y-126959422D01*
X138798673Y-127030347D01*
X138763014Y-127091739D01*
X138754454Y-127099157D01*
X138751654Y-127101370D01*
X138626370Y-127226654D01*
X138626365Y-127226660D01*
X138533342Y-127377474D01*
X138477606Y-127545678D01*
X138477605Y-127545681D01*
X138467000Y-127649483D01*
X138467000Y-127783500D01*
X140933000Y-127783500D01*
X140933000Y-127649483D01*
X140922394Y-127545681D01*
X140922393Y-127545678D01*
X140866657Y-127377474D01*
X140773634Y-127226660D01*
X140773629Y-127226654D01*
X140648344Y-127101369D01*
X140645551Y-127099161D01*
X140644131Y-127097156D01*
X140643150Y-127096175D01*
X140643317Y-127096007D01*
X140604519Y-127041222D01*
X140601325Y-126970298D01*
X140636983Y-126908905D01*
X140645554Y-126901478D01*
X140648639Y-126899037D01*
X140648652Y-126899030D01*
X140774030Y-126773652D01*
X140867115Y-126622738D01*
X140922887Y-126454426D01*
X140933500Y-126350545D01*
X140933499Y-125574456D01*
X140926158Y-125502599D01*
X140922887Y-125470574D01*
X140904990Y-125416563D01*
X140867115Y-125302262D01*
X140774030Y-125151348D01*
X140774029Y-125151347D01*
X140774024Y-125151341D01*
X140648658Y-125025975D01*
X140648652Y-125025970D01*
X140615758Y-125005681D01*
X140497738Y-124932885D01*
X140413582Y-124904999D01*
X140329427Y-124877113D01*
X140329420Y-124877112D01*
X140225553Y-124866500D01*
X140225545Y-124866500D01*
X139634000Y-124866500D01*
X139565879Y-124846498D01*
X139519386Y-124792842D01*
X139508000Y-124740500D01*
X139508000Y-124037566D01*
X139528002Y-123969445D01*
X139581658Y-123922952D01*
X139651932Y-123912848D01*
X139700147Y-123930326D01*
X139791471Y-123986656D01*
X139959678Y-124042393D01*
X139959681Y-124042394D01*
X140063483Y-124052999D01*
X140063483Y-124053000D01*
X140335000Y-124053000D01*
X140335000Y-123211500D01*
X140843000Y-123211500D01*
X140843000Y-124053000D01*
X141114517Y-124053000D01*
X141114516Y-124052999D01*
X141218318Y-124042394D01*
X141218321Y-124042393D01*
X141386525Y-123986657D01*
X141537339Y-123893634D01*
X141537345Y-123893629D01*
X141662629Y-123768345D01*
X141662634Y-123768339D01*
X141755657Y-123617525D01*
X141811393Y-123449321D01*
X141811394Y-123449318D01*
X141821999Y-123345516D01*
X141822000Y-123345516D01*
X141822000Y-123211500D01*
X140843000Y-123211500D01*
X140335000Y-123211500D01*
X140335000Y-122829500D01*
X140355002Y-122761379D01*
X140408658Y-122714886D01*
X140461000Y-122703500D01*
X141822000Y-122703500D01*
X141822000Y-122569483D01*
X141811394Y-122465681D01*
X141811393Y-122465678D01*
X141755657Y-122297474D01*
X141662634Y-122146660D01*
X141662629Y-122146654D01*
X141537344Y-122021369D01*
X141534551Y-122019161D01*
X141533131Y-122017156D01*
X141532150Y-122016175D01*
X141532317Y-122016007D01*
X141493519Y-121961222D01*
X141490325Y-121890298D01*
X141525983Y-121828905D01*
X141534554Y-121821478D01*
X141537640Y-121819037D01*
X141537652Y-121819030D01*
X141637233Y-121719448D01*
X141699543Y-121685425D01*
X141770359Y-121690489D01*
X141777577Y-121693439D01*
X141799709Y-121703293D01*
X141799710Y-121703293D01*
X141799712Y-121703294D01*
X141986513Y-121743000D01*
X142148500Y-121743000D01*
X142216621Y-121763002D01*
X142263114Y-121816658D01*
X142274500Y-121869000D01*
X142274500Y-133637404D01*
X142254498Y-133705525D01*
X142237595Y-133726499D01*
X134231336Y-141732757D01*
X134218901Y-141742721D01*
X134219089Y-141742948D01*
X134212979Y-141748002D01*
X134166370Y-141797635D01*
X134163620Y-141800473D01*
X134143863Y-141820231D01*
X134141374Y-141823439D01*
X134133688Y-141832436D01*
X134103418Y-141864673D01*
X134103411Y-141864683D01*
X134093651Y-141882435D01*
X134082803Y-141898950D01*
X134070386Y-141914958D01*
X134052824Y-141955540D01*
X134047604Y-141966195D01*
X134026305Y-142004939D01*
X134026303Y-142004944D01*
X134021267Y-142024559D01*
X134014864Y-142043262D01*
X134006819Y-142061852D01*
X133999901Y-142105525D01*
X133997495Y-142117142D01*
X133986500Y-142159968D01*
X133986500Y-142180223D01*
X133984949Y-142199933D01*
X133981780Y-142219942D01*
X133985941Y-142263961D01*
X133986500Y-142275819D01*
X133986500Y-144696146D01*
X133984751Y-144711988D01*
X133985044Y-144712016D01*
X133984298Y-144719907D01*
X133986438Y-144787984D01*
X133986500Y-144791943D01*
X133986500Y-144819851D01*
X133986501Y-144819869D01*
X133987007Y-144823877D01*
X133987937Y-144835696D01*
X133989326Y-144879888D01*
X133989327Y-144879893D01*
X133994977Y-144899339D01*
X133998986Y-144918697D01*
X134001525Y-144938793D01*
X134001526Y-144938800D01*
X134017800Y-144979903D01*
X134021644Y-144991129D01*
X134033982Y-145033593D01*
X134044294Y-145051031D01*
X134052988Y-145068779D01*
X134060444Y-145087609D01*
X134060450Y-145087620D01*
X134086432Y-145123381D01*
X134092949Y-145133301D01*
X134115458Y-145171362D01*
X134115459Y-145171363D01*
X134115461Y-145171366D01*
X134129779Y-145185684D01*
X134142617Y-145200714D01*
X134154526Y-145217104D01*
X134154530Y-145217109D01*
X134188598Y-145245292D01*
X134197378Y-145253282D01*
X137157753Y-148213657D01*
X137167720Y-148226097D01*
X137167947Y-148225910D01*
X137172999Y-148232017D01*
X137222666Y-148278657D01*
X137225510Y-148281414D01*
X137245226Y-148301131D01*
X137248423Y-148303611D01*
X137257444Y-148311316D01*
X137295458Y-148347013D01*
X137294533Y-148347997D01*
X137332832Y-148397660D01*
X137335022Y-148403744D01*
X137357883Y-148472734D01*
X137450970Y-148623652D01*
X137450975Y-148623658D01*
X137576341Y-148749024D01*
X137576347Y-148749029D01*
X137576348Y-148749030D01*
X137727262Y-148842115D01*
X137895574Y-148897887D01*
X137999455Y-148908500D01*
X139000544Y-148908499D01*
X139104426Y-148897887D01*
X139272738Y-148842115D01*
X139423652Y-148749030D01*
X139549030Y-148623652D01*
X139642115Y-148472738D01*
X139697887Y-148304426D01*
X139708500Y-148200545D01*
X139708499Y-147449456D01*
X139697887Y-147345574D01*
X139642115Y-147177262D01*
X139549030Y-147026348D01*
X139549029Y-147026347D01*
X139549024Y-147026341D01*
X139423654Y-146900971D01*
X139420956Y-146898838D01*
X139419584Y-146896901D01*
X139418463Y-146895780D01*
X139418654Y-146895588D01*
X139379925Y-146840899D01*
X139376733Y-146769974D01*
X139412392Y-146708582D01*
X139420956Y-146701162D01*
X139423649Y-146699031D01*
X139423652Y-146699030D01*
X139549030Y-146573652D01*
X139642115Y-146422738D01*
X139697887Y-146254426D01*
X139708500Y-146150545D01*
X139708499Y-145399456D01*
X139697887Y-145295574D01*
X139642115Y-145127262D01*
X139549030Y-144976348D01*
X139549029Y-144976347D01*
X139549024Y-144976341D01*
X139526683Y-144954000D01*
X149092000Y-144954000D01*
X149092000Y-147598597D01*
X149098505Y-147659093D01*
X149149555Y-147795964D01*
X149149555Y-147795965D01*
X149237095Y-147912904D01*
X149354034Y-148000444D01*
X149490906Y-148051494D01*
X149551402Y-148057999D01*
X149551415Y-148058000D01*
X150746000Y-148058000D01*
X150746000Y-144954000D01*
X151254000Y-144954000D01*
X151254000Y-148058000D01*
X152448585Y-148058000D01*
X152448597Y-148057999D01*
X152509093Y-148051494D01*
X152645964Y-148000444D01*
X152645965Y-148000444D01*
X152762904Y-147912904D01*
X152850444Y-147795965D01*
X152850444Y-147795964D01*
X152901494Y-147659093D01*
X152907999Y-147598597D01*
X152908000Y-147598585D01*
X152908000Y-144954000D01*
X151254000Y-144954000D01*
X150746000Y-144954000D01*
X149092000Y-144954000D01*
X139526683Y-144954000D01*
X139423658Y-144850975D01*
X139423652Y-144850970D01*
X139398889Y-144835696D01*
X139272738Y-144757885D01*
X139272733Y-144757883D01*
X139271692Y-144757241D01*
X139224214Y-144704455D01*
X139212811Y-144634380D01*
X139241103Y-144569265D01*
X139271692Y-144542759D01*
X139272733Y-144542116D01*
X139272738Y-144542115D01*
X139423652Y-144449030D01*
X139426682Y-144446000D01*
X149092000Y-144446000D01*
X150746000Y-144446000D01*
X150746000Y-141342000D01*
X151254000Y-141342000D01*
X151254000Y-144446000D01*
X152908000Y-144446000D01*
X152908000Y-141801414D01*
X152907999Y-141801402D01*
X152901494Y-141740906D01*
X152850444Y-141604035D01*
X152850444Y-141604034D01*
X152762904Y-141487095D01*
X152645965Y-141399555D01*
X152509093Y-141348505D01*
X152448597Y-141342000D01*
X151254000Y-141342000D01*
X150746000Y-141342000D01*
X149551402Y-141342000D01*
X149490906Y-141348505D01*
X149354035Y-141399555D01*
X149354034Y-141399555D01*
X149237095Y-141487095D01*
X149149555Y-141604034D01*
X149149555Y-141604035D01*
X149098505Y-141740906D01*
X149092000Y-141801402D01*
X149092000Y-144446000D01*
X139426682Y-144446000D01*
X139549030Y-144323652D01*
X139642115Y-144172738D01*
X139697887Y-144004426D01*
X139708500Y-143900545D01*
X139708499Y-143099456D01*
X139697887Y-142995574D01*
X139642115Y-142827262D01*
X139549030Y-142676348D01*
X139549029Y-142676347D01*
X139549024Y-142676341D01*
X139461778Y-142589095D01*
X139427752Y-142526783D01*
X139432817Y-142455968D01*
X139461778Y-142410905D01*
X139549024Y-142323658D01*
X139549030Y-142323652D01*
X139629400Y-142193351D01*
X139682185Y-142145875D01*
X139736640Y-142133500D01*
X140356147Y-142133500D01*
X140371988Y-142135249D01*
X140372016Y-142134956D01*
X140379902Y-142135700D01*
X140379909Y-142135702D01*
X140447986Y-142133562D01*
X140451945Y-142133500D01*
X140479851Y-142133500D01*
X140479856Y-142133500D01*
X140483867Y-142132992D01*
X140495699Y-142132061D01*
X140539889Y-142130673D01*
X140559347Y-142125019D01*
X140578694Y-142121013D01*
X140598797Y-142118474D01*
X140639910Y-142102195D01*
X140651130Y-142098353D01*
X140675913Y-142091154D01*
X140693591Y-142086019D01*
X140693595Y-142086017D01*
X140711026Y-142075708D01*
X140728780Y-142067009D01*
X140747617Y-142059552D01*
X140783392Y-142033558D01*
X140793298Y-142027051D01*
X140831362Y-142004542D01*
X140845685Y-141990218D01*
X140860724Y-141977374D01*
X140877107Y-141965472D01*
X140905303Y-141931386D01*
X140913272Y-141922630D01*
X144140560Y-138695343D01*
X144152998Y-138685380D01*
X144152810Y-138685153D01*
X144158916Y-138680101D01*
X144158915Y-138680101D01*
X144158918Y-138680100D01*
X144205561Y-138630428D01*
X144208251Y-138627652D01*
X144228035Y-138607870D01*
X144230514Y-138604673D01*
X144238211Y-138595659D01*
X144268486Y-138563421D01*
X144278246Y-138545665D01*
X144289095Y-138529150D01*
X144301514Y-138513141D01*
X144319079Y-138472546D01*
X144324284Y-138461921D01*
X144345595Y-138423160D01*
X144350633Y-138403534D01*
X144357037Y-138384832D01*
X144365080Y-138366247D01*
X144365079Y-138366247D01*
X144365081Y-138366245D01*
X144371996Y-138322581D01*
X144374404Y-138310952D01*
X144385400Y-138268130D01*
X144385400Y-138247875D01*
X144386951Y-138228163D01*
X144390120Y-138208157D01*
X144385959Y-138164136D01*
X144385400Y-138152279D01*
X144385400Y-121553572D01*
X144405402Y-121485451D01*
X144459058Y-121438958D01*
X144529332Y-121428854D01*
X144551021Y-121433964D01*
X144683574Y-121477887D01*
X144787455Y-121488500D01*
X145788544Y-121488499D01*
X145892426Y-121477887D01*
X146060738Y-121422115D01*
X146211652Y-121329030D01*
X146337030Y-121203652D01*
X146430115Y-121052738D01*
X146485887Y-120884426D01*
X146496500Y-120780545D01*
X146496499Y-120615293D01*
X146516501Y-120547173D01*
X146533399Y-120526203D01*
X151801051Y-115258551D01*
X151863361Y-115224527D01*
X151934176Y-115229592D01*
X151991012Y-115272139D01*
X151996142Y-115279527D01*
X152052057Y-115366532D01*
X152052057Y-115366533D01*
X152052059Y-115366535D01*
X152052062Y-115366540D01*
X152052065Y-115366544D01*
X152147821Y-115477051D01*
X152256482Y-115571205D01*
X152379488Y-115650256D01*
X152408843Y-115663662D01*
X152462498Y-115710154D01*
X152482500Y-115778274D01*
X152482500Y-117694104D01*
X152462498Y-117762225D01*
X152445595Y-117783199D01*
X150611336Y-119617457D01*
X150598901Y-119627421D01*
X150599089Y-119627648D01*
X150592979Y-119632702D01*
X150546370Y-119682335D01*
X150543620Y-119685173D01*
X150523863Y-119704931D01*
X150521374Y-119708139D01*
X150513688Y-119717136D01*
X150483418Y-119749373D01*
X150483411Y-119749383D01*
X150473651Y-119767135D01*
X150462803Y-119783650D01*
X150450386Y-119799658D01*
X150432824Y-119840240D01*
X150427604Y-119850894D01*
X150413694Y-119876198D01*
X150363351Y-119926258D01*
X150303278Y-119941500D01*
X149051350Y-119941500D01*
X148990803Y-119948009D01*
X148990795Y-119948011D01*
X148853797Y-119999110D01*
X148853792Y-119999112D01*
X148736738Y-120086738D01*
X148649112Y-120203792D01*
X148649110Y-120203797D01*
X148598011Y-120340795D01*
X148598009Y-120340803D01*
X148591500Y-120401350D01*
X148591500Y-123998649D01*
X148598009Y-124059196D01*
X148598011Y-124059204D01*
X148649110Y-124196202D01*
X148649112Y-124196207D01*
X148736738Y-124313261D01*
X148853792Y-124400887D01*
X148853794Y-124400888D01*
X148853796Y-124400889D01*
X148889216Y-124414100D01*
X148990795Y-124451988D01*
X148990803Y-124451990D01*
X149051350Y-124458499D01*
X149051355Y-124458499D01*
X149051362Y-124458500D01*
X150240500Y-124458500D01*
X150308621Y-124478502D01*
X150355114Y-124532158D01*
X150366500Y-124584500D01*
X150366500Y-125516146D01*
X150364751Y-125531988D01*
X150365044Y-125532016D01*
X150364298Y-125539907D01*
X150366438Y-125607984D01*
X150366500Y-125611943D01*
X150366500Y-125639851D01*
X150366501Y-125639869D01*
X150367007Y-125643877D01*
X150367937Y-125655696D01*
X150369326Y-125699888D01*
X150369327Y-125699893D01*
X150374977Y-125719339D01*
X150378986Y-125738697D01*
X150381525Y-125758793D01*
X150381526Y-125758800D01*
X150397800Y-125799903D01*
X150401644Y-125811129D01*
X150413982Y-125853593D01*
X150424294Y-125871031D01*
X150432988Y-125888779D01*
X150440444Y-125907609D01*
X150440450Y-125907620D01*
X150466432Y-125943381D01*
X150472949Y-125953301D01*
X150495458Y-125991362D01*
X150495459Y-125991363D01*
X150495461Y-125991366D01*
X150509779Y-126005684D01*
X150522617Y-126020714D01*
X150534526Y-126037104D01*
X150534530Y-126037109D01*
X150568598Y-126065292D01*
X150577378Y-126073282D01*
X154269595Y-129765499D01*
X154303621Y-129827811D01*
X154306500Y-129854594D01*
X154306500Y-147005404D01*
X154286498Y-147073525D01*
X154269595Y-147094499D01*
X152611336Y-148752757D01*
X152598901Y-148762721D01*
X152599089Y-148762948D01*
X152592979Y-148768002D01*
X152546370Y-148817635D01*
X152543620Y-148820473D01*
X152523863Y-148840231D01*
X152521374Y-148843439D01*
X152513688Y-148852436D01*
X152483418Y-148884673D01*
X152483411Y-148884683D01*
X152473651Y-148902435D01*
X152462803Y-148918950D01*
X152450386Y-148934958D01*
X152432824Y-148975540D01*
X152427604Y-148986195D01*
X152406305Y-149024939D01*
X152406303Y-149024944D01*
X152401267Y-149044559D01*
X152394864Y-149063262D01*
X152386819Y-149081852D01*
X152379901Y-149125525D01*
X152377495Y-149137142D01*
X152366500Y-149179968D01*
X152366500Y-149200223D01*
X152364949Y-149219933D01*
X152361780Y-149239942D01*
X152365941Y-149283961D01*
X152366500Y-149295819D01*
X152366500Y-151465500D01*
X152346498Y-151533621D01*
X152292842Y-151580114D01*
X152240500Y-151591500D01*
X151751350Y-151591500D01*
X151690803Y-151598009D01*
X151690795Y-151598011D01*
X151553797Y-151649110D01*
X151553792Y-151649112D01*
X151436738Y-151736738D01*
X151349112Y-151853792D01*
X151349110Y-151853797D01*
X151298011Y-151990795D01*
X151298009Y-151990803D01*
X151291500Y-152051350D01*
X151291500Y-154548649D01*
X151298009Y-154609196D01*
X151298011Y-154609204D01*
X151349110Y-154746202D01*
X151349112Y-154746207D01*
X151436738Y-154863261D01*
X151553792Y-154950887D01*
X151553794Y-154950888D01*
X151553796Y-154950889D01*
X151612875Y-154972924D01*
X151690795Y-155001988D01*
X151690803Y-155001990D01*
X151751350Y-155008499D01*
X151751355Y-155008499D01*
X151751362Y-155008500D01*
X151751368Y-155008500D01*
X154248632Y-155008500D01*
X154248638Y-155008500D01*
X154248645Y-155008499D01*
X154248649Y-155008499D01*
X154309196Y-155001990D01*
X154309199Y-155001989D01*
X154309201Y-155001989D01*
X154446204Y-154950889D01*
X154563261Y-154863261D01*
X154623103Y-154783322D01*
X154650887Y-154746207D01*
X154650887Y-154746206D01*
X154650889Y-154746204D01*
X154701989Y-154609201D01*
X154708500Y-154548638D01*
X154708500Y-154076343D01*
X154728502Y-154008222D01*
X154782158Y-153961729D01*
X154852432Y-153951625D01*
X154917012Y-153981119D01*
X154951791Y-154030312D01*
X154956828Y-154043147D01*
X154956828Y-154043148D01*
X155084824Y-154264844D01*
X155084829Y-154264852D01*
X155125250Y-154315537D01*
X155125252Y-154315537D01*
X155935570Y-153505219D01*
X155975901Y-153602588D01*
X156072075Y-153727925D01*
X156197412Y-153824099D01*
X156294779Y-153864429D01*
X155484421Y-154674786D01*
X155484421Y-154674787D01*
X155643610Y-154783321D01*
X155643611Y-154783322D01*
X155874239Y-154894386D01*
X156118862Y-154969844D01*
X156118870Y-154969845D01*
X156372008Y-155008000D01*
X156627992Y-155008000D01*
X156881129Y-154969845D01*
X156881141Y-154969843D01*
X157125746Y-154894392D01*
X157125753Y-154894389D01*
X157356397Y-154783318D01*
X157356399Y-154783317D01*
X157515577Y-154674789D01*
X157515578Y-154674787D01*
X156705220Y-153864429D01*
X156802588Y-153824099D01*
X156927925Y-153727925D01*
X157024099Y-153602589D01*
X157064429Y-153505220D01*
X157874747Y-154315538D01*
X157874748Y-154315537D01*
X157915172Y-154264849D01*
X157915172Y-154264848D01*
X158043171Y-154043148D01*
X158043173Y-154043144D01*
X158136693Y-153804856D01*
X158136694Y-153804854D01*
X158193658Y-153555281D01*
X158212788Y-153300000D01*
X158193658Y-153044718D01*
X158136694Y-152795145D01*
X158136693Y-152795143D01*
X158043173Y-152556855D01*
X158043171Y-152556851D01*
X157915175Y-152335155D01*
X157874747Y-152284460D01*
X157064429Y-153094778D01*
X157024099Y-152997412D01*
X156927925Y-152872075D01*
X156802588Y-152775901D01*
X156705220Y-152735570D01*
X157309607Y-152131182D01*
X165749500Y-152131182D01*
X165771224Y-152275311D01*
X165788604Y-152390619D01*
X165865933Y-152641314D01*
X165865938Y-152641327D01*
X165979773Y-152877706D01*
X165979777Y-152877713D01*
X166093640Y-153044718D01*
X166127567Y-153094479D01*
X166306019Y-153286805D01*
X166511143Y-153450386D01*
X166511146Y-153450388D01*
X166738352Y-153581566D01*
X166738356Y-153581567D01*
X166738357Y-153581568D01*
X166982584Y-153677420D01*
X167238370Y-153735802D01*
X167434506Y-153750500D01*
X167434507Y-153750500D01*
X167565493Y-153750500D01*
X167565494Y-153750500D01*
X167761630Y-153735802D01*
X168017416Y-153677420D01*
X168261643Y-153581568D01*
X168261645Y-153581566D01*
X168261647Y-153581566D01*
X168478040Y-153456631D01*
X168488857Y-153450386D01*
X168693981Y-153286805D01*
X168872433Y-153094479D01*
X169020228Y-152877704D01*
X169134063Y-152641323D01*
X169134066Y-152641314D01*
X169211395Y-152390619D01*
X169219755Y-152335155D01*
X169250500Y-152131182D01*
X169250500Y-151868818D01*
X169211396Y-151609385D01*
X169211395Y-151609383D01*
X169211395Y-151609380D01*
X169134066Y-151358685D01*
X169134061Y-151358672D01*
X169085854Y-151258570D01*
X169020228Y-151122296D01*
X169020226Y-151122293D01*
X169020222Y-151122286D01*
X168884933Y-150923855D01*
X168872433Y-150905521D01*
X168693981Y-150713195D01*
X168488857Y-150549614D01*
X168488852Y-150549611D01*
X168488853Y-150549611D01*
X168261647Y-150418433D01*
X168261639Y-150418430D01*
X168017419Y-150322581D01*
X168017417Y-150322580D01*
X167761633Y-150264198D01*
X167614528Y-150253174D01*
X167565494Y-150249500D01*
X167434506Y-150249500D01*
X167395278Y-150252439D01*
X167238366Y-150264198D01*
X166982582Y-150322580D01*
X166982580Y-150322581D01*
X166738360Y-150418430D01*
X166738352Y-150418433D01*
X166511146Y-150549611D01*
X166306018Y-150713195D01*
X166127566Y-150905522D01*
X166127562Y-150905527D01*
X165979777Y-151122286D01*
X165979773Y-151122293D01*
X165865938Y-151358672D01*
X165865933Y-151358685D01*
X165788604Y-151609380D01*
X165769408Y-151736738D01*
X165749500Y-151868818D01*
X165749500Y-152131182D01*
X157309607Y-152131182D01*
X157515578Y-151925211D01*
X157356390Y-151816678D01*
X157356389Y-151816677D01*
X157125753Y-151705610D01*
X157125746Y-151705607D01*
X156881141Y-151630156D01*
X156881129Y-151630154D01*
X156627992Y-151592000D01*
X156372008Y-151592000D01*
X156118870Y-151630154D01*
X156118862Y-151630155D01*
X155874239Y-151705613D01*
X155643611Y-151816677D01*
X155643603Y-151816682D01*
X155484421Y-151925210D01*
X155484421Y-151925212D01*
X156294779Y-152735570D01*
X156197412Y-152775901D01*
X156072075Y-152872075D01*
X155975901Y-152997411D01*
X155935570Y-153094779D01*
X155125252Y-152284461D01*
X155125250Y-152284461D01*
X155084828Y-152335148D01*
X155084825Y-152335153D01*
X154956828Y-152556851D01*
X154951790Y-152569690D01*
X154908283Y-152625794D01*
X154841350Y-152649470D01*
X154772243Y-152633201D01*
X154722902Y-152582152D01*
X154708500Y-152523656D01*
X154708500Y-152051367D01*
X154708499Y-152051350D01*
X154701990Y-151990803D01*
X154701988Y-151990795D01*
X154650889Y-151853797D01*
X154650887Y-151853792D01*
X154563261Y-151736738D01*
X154446207Y-151649112D01*
X154446202Y-151649110D01*
X154309204Y-151598011D01*
X154309196Y-151598009D01*
X154248649Y-151591500D01*
X154248638Y-151591500D01*
X153759500Y-151591500D01*
X153691379Y-151571498D01*
X153644886Y-151517842D01*
X153633500Y-151465500D01*
X153633500Y-149574593D01*
X153653502Y-149506472D01*
X153670400Y-149485503D01*
X155328657Y-147827245D01*
X155341092Y-147817284D01*
X155340905Y-147817057D01*
X155347016Y-147812001D01*
X155347015Y-147812001D01*
X155347018Y-147812000D01*
X155393676Y-147762312D01*
X155396367Y-147759535D01*
X155416134Y-147739770D01*
X155418617Y-147736567D01*
X155426308Y-147727562D01*
X155456586Y-147695321D01*
X155466345Y-147677567D01*
X155477197Y-147661046D01*
X155489613Y-147645041D01*
X155507168Y-147604470D01*
X155512392Y-147593808D01*
X155533694Y-147555061D01*
X155533695Y-147555060D01*
X155538733Y-147535435D01*
X155545138Y-147516730D01*
X155547010Y-147512405D01*
X155553181Y-147498145D01*
X155560096Y-147454481D01*
X155562504Y-147442852D01*
X155573500Y-147400030D01*
X155573500Y-147379775D01*
X155575051Y-147360063D01*
X155578220Y-147340057D01*
X155574059Y-147296036D01*
X155573500Y-147284179D01*
X155573500Y-129623849D01*
X155575249Y-129608012D01*
X155574955Y-129607985D01*
X155575701Y-129600092D01*
X155573562Y-129532031D01*
X155573500Y-129528073D01*
X155573500Y-129500151D01*
X155573500Y-129500144D01*
X155572991Y-129496123D01*
X155572061Y-129484296D01*
X155570673Y-129440110D01*
X155565022Y-129420663D01*
X155561012Y-129401300D01*
X155559663Y-129390619D01*
X155558474Y-129381203D01*
X155542192Y-129340081D01*
X155538358Y-129328882D01*
X155526018Y-129286406D01*
X155515700Y-129268961D01*
X155507005Y-129251209D01*
X155499553Y-129232385D01*
X155499550Y-129232379D01*
X155473564Y-129196613D01*
X155467045Y-129186689D01*
X155444541Y-129148635D01*
X155430218Y-129134312D01*
X155417377Y-129119279D01*
X155405471Y-129102892D01*
X155371405Y-129074710D01*
X155362626Y-129066721D01*
X151670405Y-125374500D01*
X151636379Y-125312188D01*
X151633500Y-125285405D01*
X151633500Y-124584500D01*
X151653502Y-124516379D01*
X151707158Y-124469886D01*
X151759500Y-124458500D01*
X152948632Y-124458500D01*
X152948638Y-124458500D01*
X152948645Y-124458499D01*
X152948649Y-124458499D01*
X153009196Y-124451990D01*
X153009199Y-124451989D01*
X153009201Y-124451989D01*
X153146204Y-124400889D01*
X153177856Y-124377195D01*
X153263261Y-124313261D01*
X153350887Y-124196207D01*
X153350887Y-124196206D01*
X153350889Y-124196204D01*
X153401989Y-124059201D01*
X153406485Y-124017387D01*
X153408499Y-123998649D01*
X153408500Y-123998632D01*
X153408500Y-120401367D01*
X153408499Y-120401350D01*
X153401990Y-120340803D01*
X153401988Y-120340795D01*
X153366269Y-120245032D01*
X153350889Y-120203796D01*
X153350888Y-120203794D01*
X153350887Y-120203792D01*
X153263261Y-120086738D01*
X153146207Y-119999112D01*
X153146202Y-119999110D01*
X153009204Y-119948011D01*
X153009196Y-119948009D01*
X152948649Y-119941500D01*
X152948638Y-119941500D01*
X152383294Y-119941500D01*
X152315173Y-119921498D01*
X152268680Y-119867842D01*
X152258576Y-119797568D01*
X152288070Y-119732988D01*
X152294199Y-119726405D01*
X152880134Y-119140470D01*
X153504660Y-118515943D01*
X153517098Y-118505980D01*
X153516910Y-118505753D01*
X153523016Y-118500701D01*
X153523015Y-118500701D01*
X153523018Y-118500700D01*
X153569662Y-118451027D01*
X153572352Y-118448251D01*
X153592135Y-118428470D01*
X153594614Y-118425273D01*
X153602311Y-118416259D01*
X153632586Y-118384021D01*
X153642346Y-118366265D01*
X153653195Y-118349750D01*
X153665614Y-118333741D01*
X153683179Y-118293146D01*
X153688384Y-118282521D01*
X153709695Y-118243760D01*
X153714733Y-118224134D01*
X153721137Y-118205432D01*
X153729181Y-118186845D01*
X153736096Y-118143181D01*
X153738504Y-118131552D01*
X153738888Y-118130057D01*
X153749500Y-118088730D01*
X153749500Y-118068475D01*
X153751051Y-118048763D01*
X153754220Y-118028757D01*
X153750059Y-117984736D01*
X153749500Y-117972879D01*
X153749500Y-115799500D01*
X153769502Y-115731379D01*
X153823158Y-115684886D01*
X153875500Y-115673500D01*
X155186962Y-115673500D01*
X155255083Y-115693502D01*
X155292445Y-115730585D01*
X155388275Y-115877265D01*
X155388279Y-115877270D01*
X155540762Y-116042908D01*
X155577834Y-116071762D01*
X155718424Y-116181189D01*
X155916426Y-116288342D01*
X155916427Y-116288342D01*
X155916428Y-116288343D01*
X156028227Y-116326723D01*
X156129365Y-116361444D01*
X156351431Y-116398500D01*
X156351435Y-116398500D01*
X156576565Y-116398500D01*
X156576569Y-116398500D01*
X156798635Y-116361444D01*
X156834024Y-116349294D01*
X156904946Y-116346093D01*
X156966342Y-116381744D01*
X156998718Y-116444929D01*
X156991794Y-116515587D01*
X156964031Y-116557562D01*
X156607836Y-116913757D01*
X156595401Y-116923721D01*
X156595589Y-116923948D01*
X156589479Y-116929002D01*
X156542870Y-116978635D01*
X156540120Y-116981473D01*
X156520363Y-117001231D01*
X156517874Y-117004439D01*
X156510188Y-117013436D01*
X156479918Y-117045673D01*
X156479911Y-117045683D01*
X156470151Y-117063435D01*
X156459303Y-117079950D01*
X156446886Y-117095958D01*
X156429324Y-117136540D01*
X156424104Y-117147195D01*
X156402805Y-117185939D01*
X156402803Y-117185944D01*
X156397767Y-117205559D01*
X156391364Y-117224262D01*
X156383319Y-117242852D01*
X156376401Y-117286525D01*
X156373995Y-117298142D01*
X156363000Y-117340968D01*
X156363000Y-117361223D01*
X156361449Y-117380933D01*
X156358280Y-117400942D01*
X156362441Y-117444961D01*
X156363000Y-117456819D01*
X156363000Y-118975146D01*
X156361251Y-118990988D01*
X156361544Y-118991016D01*
X156360798Y-118998907D01*
X156362938Y-119066984D01*
X156363000Y-119070943D01*
X156363000Y-119098851D01*
X156363001Y-119098869D01*
X156363507Y-119102877D01*
X156364437Y-119114696D01*
X156365826Y-119158888D01*
X156365827Y-119158893D01*
X156371477Y-119178339D01*
X156375486Y-119197697D01*
X156378025Y-119217793D01*
X156378026Y-119217800D01*
X156394300Y-119258903D01*
X156398144Y-119270129D01*
X156410482Y-119312593D01*
X156420794Y-119330031D01*
X156429488Y-119347779D01*
X156436944Y-119366609D01*
X156436950Y-119366620D01*
X156462932Y-119402381D01*
X156469449Y-119412301D01*
X156491958Y-119450362D01*
X156491959Y-119450363D01*
X156491961Y-119450366D01*
X156506279Y-119464684D01*
X156519117Y-119479714D01*
X156531026Y-119496104D01*
X156531030Y-119496109D01*
X156565098Y-119524292D01*
X156573878Y-119532282D01*
X156814595Y-119772999D01*
X156848621Y-119835311D01*
X156851500Y-119862094D01*
X156851500Y-120535544D01*
X156862112Y-120639425D01*
X156917885Y-120807738D01*
X157010970Y-120958652D01*
X157010975Y-120958658D01*
X157136341Y-121084024D01*
X157136347Y-121084029D01*
X157136348Y-121084030D01*
X157287262Y-121177115D01*
X157365132Y-121202918D01*
X157423503Y-121243330D01*
X157450760Y-121308886D01*
X157451500Y-121322522D01*
X157451500Y-144813646D01*
X157449751Y-144829488D01*
X157450044Y-144829516D01*
X157449298Y-144837407D01*
X157449298Y-144837409D01*
X157449805Y-144853529D01*
X157451438Y-144905484D01*
X157451500Y-144909443D01*
X157451500Y-144937351D01*
X157451501Y-144937369D01*
X157452007Y-144941377D01*
X157452937Y-144953196D01*
X157454326Y-144997388D01*
X157454327Y-144997393D01*
X157459977Y-145016839D01*
X157463986Y-145036197D01*
X157466525Y-145056293D01*
X157466526Y-145056300D01*
X157482800Y-145097403D01*
X157486644Y-145108629D01*
X157498982Y-145151093D01*
X157509294Y-145168531D01*
X157517988Y-145186279D01*
X157525444Y-145205109D01*
X157525450Y-145205120D01*
X157551432Y-145240881D01*
X157557949Y-145250801D01*
X157580458Y-145288862D01*
X157580459Y-145288863D01*
X157580461Y-145288866D01*
X157594779Y-145303184D01*
X157607617Y-145318214D01*
X157619526Y-145334604D01*
X157619530Y-145334609D01*
X157653598Y-145362792D01*
X157662378Y-145370782D01*
X160254595Y-147962999D01*
X160288621Y-148025311D01*
X160291500Y-148052093D01*
X160291500Y-148200544D01*
X160302112Y-148304425D01*
X160357885Y-148472738D01*
X160450970Y-148623652D01*
X160450975Y-148623658D01*
X160576341Y-148749024D01*
X160576347Y-148749029D01*
X160576348Y-148749030D01*
X160727262Y-148842115D01*
X160895574Y-148897887D01*
X160999455Y-148908500D01*
X162000544Y-148908499D01*
X162104426Y-148897887D01*
X162272738Y-148842115D01*
X162423652Y-148749030D01*
X162549030Y-148623652D01*
X162642115Y-148472738D01*
X162697887Y-148304426D01*
X162708500Y-148200545D01*
X162708499Y-147449456D01*
X162697887Y-147345574D01*
X162642115Y-147177262D01*
X162549030Y-147026348D01*
X162549029Y-147026347D01*
X162549024Y-147026341D01*
X162423654Y-146900971D01*
X162420956Y-146898838D01*
X162419584Y-146896901D01*
X162418463Y-146895780D01*
X162418654Y-146895588D01*
X162379925Y-146840899D01*
X162376733Y-146769974D01*
X162412392Y-146708582D01*
X162420956Y-146701162D01*
X162423649Y-146699031D01*
X162423652Y-146699030D01*
X162549030Y-146573652D01*
X162642115Y-146422738D01*
X162697887Y-146254426D01*
X162708500Y-146150545D01*
X162708499Y-145399456D01*
X162697887Y-145295574D01*
X162642115Y-145127262D01*
X162549030Y-144976348D01*
X162549029Y-144976347D01*
X162549024Y-144976341D01*
X162423658Y-144850975D01*
X162423652Y-144850970D01*
X162398889Y-144835696D01*
X162272738Y-144757885D01*
X162272733Y-144757883D01*
X162271692Y-144757241D01*
X162224214Y-144704455D01*
X162212811Y-144634380D01*
X162241103Y-144569265D01*
X162271692Y-144542759D01*
X162272733Y-144542116D01*
X162272738Y-144542115D01*
X162423652Y-144449030D01*
X162549030Y-144323652D01*
X162642115Y-144172738D01*
X162697887Y-144004426D01*
X162708500Y-143900545D01*
X162708499Y-143099456D01*
X162697887Y-142995574D01*
X162642115Y-142827262D01*
X162549030Y-142676348D01*
X162549029Y-142676347D01*
X162549024Y-142676341D01*
X162461778Y-142589095D01*
X162427752Y-142526783D01*
X162432817Y-142455968D01*
X162461778Y-142410905D01*
X162549024Y-142323658D01*
X162549030Y-142323652D01*
X162642115Y-142172738D01*
X162697887Y-142004426D01*
X162708500Y-141900545D01*
X162708499Y-141099456D01*
X162697887Y-140995574D01*
X162642115Y-140827262D01*
X162549030Y-140676348D01*
X162549029Y-140676347D01*
X162549024Y-140676341D01*
X162423658Y-140550975D01*
X162423652Y-140550970D01*
X162371707Y-140518930D01*
X162272738Y-140457885D01*
X162169135Y-140423555D01*
X162104427Y-140402113D01*
X162104420Y-140402112D01*
X162000553Y-140391500D01*
X162000545Y-140391500D01*
X161859500Y-140391500D01*
X161791379Y-140371498D01*
X161744886Y-140317842D01*
X161733500Y-140265500D01*
X161733500Y-139950594D01*
X161753502Y-139882473D01*
X161770400Y-139861503D01*
X162313659Y-139318243D01*
X162326093Y-139308284D01*
X162325905Y-139308057D01*
X162332016Y-139303001D01*
X162332015Y-139303001D01*
X162332018Y-139303000D01*
X162378676Y-139253312D01*
X162381367Y-139250535D01*
X162401134Y-139230770D01*
X162403617Y-139227567D01*
X162411308Y-139218562D01*
X162441586Y-139186321D01*
X162451345Y-139168567D01*
X162462197Y-139152046D01*
X162474613Y-139136041D01*
X162492168Y-139095470D01*
X162497392Y-139084808D01*
X162518694Y-139046061D01*
X162518695Y-139046060D01*
X162523733Y-139026435D01*
X162530138Y-139007730D01*
X162538181Y-138989145D01*
X162545096Y-138945481D01*
X162547504Y-138933852D01*
X162558500Y-138891030D01*
X162558500Y-138870775D01*
X162560051Y-138851063D01*
X162563220Y-138831057D01*
X162559059Y-138787036D01*
X162558500Y-138775179D01*
X162558500Y-127436595D01*
X162578502Y-127368474D01*
X162632158Y-127321981D01*
X162702432Y-127311877D01*
X162767012Y-127341371D01*
X162773591Y-127347496D01*
X162775230Y-127349135D01*
X162778435Y-127351621D01*
X162787442Y-127359314D01*
X162819679Y-127389586D01*
X162837428Y-127399343D01*
X162853954Y-127410199D01*
X162864567Y-127418432D01*
X162869959Y-127422614D01*
X162910542Y-127440175D01*
X162921193Y-127445393D01*
X162959940Y-127466695D01*
X162959948Y-127466697D01*
X162979558Y-127471732D01*
X162998267Y-127478137D01*
X163016855Y-127486181D01*
X163060530Y-127493098D01*
X163072141Y-127495502D01*
X163114970Y-127506500D01*
X163135224Y-127506500D01*
X163154934Y-127508051D01*
X163157141Y-127508400D01*
X163174943Y-127511220D01*
X163218961Y-127507058D01*
X163230819Y-127506500D01*
X166778147Y-127506500D01*
X166793988Y-127508249D01*
X166794016Y-127507956D01*
X166801902Y-127508700D01*
X166801909Y-127508702D01*
X166869986Y-127506562D01*
X166873945Y-127506500D01*
X166901851Y-127506500D01*
X166901856Y-127506500D01*
X166905867Y-127505992D01*
X166917699Y-127505061D01*
X166961889Y-127503673D01*
X166981347Y-127498019D01*
X167000694Y-127494013D01*
X167020797Y-127491474D01*
X167061910Y-127475195D01*
X167073130Y-127471353D01*
X167097913Y-127464154D01*
X167115591Y-127459019D01*
X167115595Y-127459017D01*
X167133026Y-127448708D01*
X167150780Y-127440009D01*
X167169617Y-127432552D01*
X167205392Y-127406558D01*
X167215298Y-127400051D01*
X167253362Y-127377542D01*
X167267685Y-127363218D01*
X167282724Y-127350374D01*
X167299107Y-127338472D01*
X167327303Y-127304386D01*
X167335262Y-127295640D01*
X168152501Y-126478401D01*
X168214811Y-126444378D01*
X168241594Y-126441499D01*
X168902544Y-126441499D01*
X169006426Y-126430887D01*
X169174738Y-126375115D01*
X169325652Y-126282030D01*
X169451030Y-126156652D01*
X169544115Y-126005738D01*
X169599887Y-125837426D01*
X169599887Y-125837422D01*
X169602050Y-125830896D01*
X169604243Y-125831622D01*
X169624788Y-125789186D01*
X169645302Y-125764389D01*
X169653273Y-125755629D01*
X172257177Y-123151726D01*
X172319488Y-123117702D01*
X172390304Y-123122767D01*
X172447139Y-123165314D01*
X172471950Y-123231834D01*
X172472271Y-123240823D01*
X172472271Y-123657889D01*
X172491481Y-123791499D01*
X172493080Y-123802621D01*
X172493082Y-123802630D01*
X172533586Y-123940576D01*
X172594331Y-124073588D01*
X172594334Y-124073593D01*
X172672048Y-124194520D01*
X172672057Y-124194533D01*
X172672059Y-124194535D01*
X172672062Y-124194540D01*
X172672065Y-124194544D01*
X172767821Y-124305051D01*
X172876482Y-124399205D01*
X172999488Y-124478256D01*
X172999490Y-124478257D01*
X172999492Y-124478258D01*
X173131091Y-124538358D01*
X173134581Y-124539248D01*
X173270573Y-124579180D01*
X173412888Y-124599642D01*
X173469486Y-124599642D01*
X173469782Y-124599729D01*
X173521764Y-124599729D01*
X173801635Y-124599729D01*
X173869756Y-124619731D01*
X173890730Y-124636634D01*
X174690353Y-125436257D01*
X174700320Y-125448697D01*
X174700547Y-125448510D01*
X174705599Y-125454617D01*
X174755267Y-125501258D01*
X174758109Y-125504013D01*
X174843595Y-125589499D01*
X174877621Y-125651811D01*
X174880500Y-125678594D01*
X174880500Y-126770779D01*
X174860498Y-126838900D01*
X174806842Y-126885393D01*
X174741033Y-126896057D01*
X174698652Y-126891501D01*
X174698643Y-126891500D01*
X174698638Y-126891500D01*
X172301362Y-126891500D01*
X172301350Y-126891500D01*
X172240803Y-126898009D01*
X172240795Y-126898011D01*
X172103797Y-126949110D01*
X172103792Y-126949112D01*
X171986738Y-127036738D01*
X171899112Y-127153792D01*
X171899110Y-127153797D01*
X171848011Y-127290795D01*
X171848009Y-127290803D01*
X171841500Y-127351350D01*
X171841500Y-129470404D01*
X171821498Y-129538525D01*
X171804595Y-129559499D01*
X167251336Y-134112757D01*
X167238901Y-134122721D01*
X167239089Y-134122948D01*
X167232979Y-134128002D01*
X167186370Y-134177635D01*
X167183620Y-134180473D01*
X167163863Y-134200231D01*
X167161374Y-134203439D01*
X167153688Y-134212436D01*
X167123418Y-134244673D01*
X167123411Y-134244683D01*
X167113651Y-134262435D01*
X167102803Y-134278950D01*
X167090386Y-134294958D01*
X167072824Y-134335540D01*
X167067604Y-134346195D01*
X167046305Y-134384939D01*
X167046303Y-134384944D01*
X167041267Y-134404559D01*
X167034864Y-134423262D01*
X167026819Y-134441852D01*
X167019901Y-134485525D01*
X167017495Y-134497142D01*
X167006500Y-134539968D01*
X167006500Y-134560223D01*
X167004949Y-134579933D01*
X167001780Y-134599942D01*
X167005941Y-134643961D01*
X167006500Y-134655819D01*
X167006500Y-144696146D01*
X167004751Y-144711988D01*
X167005044Y-144712016D01*
X167004298Y-144719907D01*
X167006438Y-144787984D01*
X167006500Y-144791943D01*
X167006500Y-144819851D01*
X167006501Y-144819869D01*
X167007007Y-144823877D01*
X167007937Y-144835696D01*
X167009326Y-144879888D01*
X167009327Y-144879893D01*
X167014977Y-144899339D01*
X167018986Y-144918697D01*
X167021525Y-144938793D01*
X167021526Y-144938800D01*
X167037800Y-144979903D01*
X167041644Y-144991129D01*
X167053982Y-145033593D01*
X167064294Y-145051031D01*
X167072988Y-145068779D01*
X167080444Y-145087609D01*
X167080450Y-145087620D01*
X167106432Y-145123381D01*
X167112949Y-145133301D01*
X167135458Y-145171362D01*
X167135459Y-145171363D01*
X167135461Y-145171366D01*
X167149779Y-145185684D01*
X167162617Y-145200714D01*
X167174526Y-145217104D01*
X167174530Y-145217109D01*
X167208598Y-145245292D01*
X167217378Y-145253282D01*
X173029595Y-151065499D01*
X173063621Y-151127811D01*
X173066500Y-151154594D01*
X173066500Y-151465500D01*
X173046498Y-151533621D01*
X172992842Y-151580114D01*
X172940500Y-151591500D01*
X172451350Y-151591500D01*
X172390803Y-151598009D01*
X172390795Y-151598011D01*
X172253797Y-151649110D01*
X172253792Y-151649112D01*
X172136738Y-151736738D01*
X172049112Y-151853792D01*
X172049110Y-151853797D01*
X171998011Y-151990795D01*
X171998009Y-151990803D01*
X171991500Y-152051350D01*
X171991500Y-154548649D01*
X171998009Y-154609196D01*
X171998011Y-154609204D01*
X172049110Y-154746202D01*
X172049112Y-154746207D01*
X172136738Y-154863261D01*
X172253792Y-154950887D01*
X172253794Y-154950888D01*
X172253796Y-154950889D01*
X172312875Y-154972924D01*
X172390795Y-155001988D01*
X172390803Y-155001990D01*
X172451350Y-155008499D01*
X172451355Y-155008499D01*
X172451362Y-155008500D01*
X172451368Y-155008500D01*
X174948632Y-155008500D01*
X174948638Y-155008500D01*
X174948645Y-155008499D01*
X174948649Y-155008499D01*
X175009196Y-155001990D01*
X175009199Y-155001989D01*
X175009201Y-155001989D01*
X175146204Y-154950889D01*
X175263261Y-154863261D01*
X175323103Y-154783322D01*
X175350887Y-154746207D01*
X175350887Y-154746206D01*
X175350889Y-154746204D01*
X175401989Y-154609201D01*
X175408500Y-154548638D01*
X175408500Y-154076343D01*
X175428502Y-154008222D01*
X175482158Y-153961729D01*
X175552432Y-153951625D01*
X175617012Y-153981119D01*
X175651791Y-154030312D01*
X175656828Y-154043147D01*
X175656828Y-154043148D01*
X175784824Y-154264844D01*
X175784829Y-154264852D01*
X175825250Y-154315537D01*
X175825252Y-154315537D01*
X176635570Y-153505219D01*
X176675901Y-153602588D01*
X176772075Y-153727925D01*
X176897412Y-153824099D01*
X176994779Y-153864429D01*
X176184421Y-154674786D01*
X176184421Y-154674787D01*
X176343610Y-154783321D01*
X176343611Y-154783322D01*
X176574239Y-154894386D01*
X176818862Y-154969844D01*
X176818870Y-154969845D01*
X177072008Y-155008000D01*
X177327992Y-155008000D01*
X177581129Y-154969845D01*
X177581141Y-154969843D01*
X177825746Y-154894392D01*
X177825753Y-154894389D01*
X178056397Y-154783318D01*
X178056399Y-154783317D01*
X178215577Y-154674789D01*
X178215578Y-154674787D01*
X177405220Y-153864429D01*
X177502588Y-153824099D01*
X177627925Y-153727925D01*
X177724099Y-153602589D01*
X177764429Y-153505220D01*
X178574747Y-154315538D01*
X178574748Y-154315537D01*
X178615172Y-154264849D01*
X178615172Y-154264848D01*
X178743171Y-154043148D01*
X178743173Y-154043144D01*
X178836693Y-153804856D01*
X178836694Y-153804854D01*
X178893658Y-153555281D01*
X178912788Y-153300000D01*
X178893658Y-153044718D01*
X178836694Y-152795145D01*
X178836693Y-152795143D01*
X178743173Y-152556855D01*
X178743171Y-152556851D01*
X178615175Y-152335155D01*
X178574747Y-152284460D01*
X177764429Y-153094778D01*
X177724099Y-152997412D01*
X177627925Y-152872075D01*
X177502588Y-152775901D01*
X177405220Y-152735570D01*
X178215578Y-151925211D01*
X178056390Y-151816678D01*
X178056389Y-151816677D01*
X177825753Y-151705610D01*
X177825746Y-151705607D01*
X177581141Y-151630156D01*
X177581129Y-151630154D01*
X177327992Y-151592000D01*
X177072008Y-151592000D01*
X176818870Y-151630154D01*
X176818862Y-151630155D01*
X176574239Y-151705613D01*
X176343611Y-151816677D01*
X176343603Y-151816682D01*
X176184421Y-151925210D01*
X176184421Y-151925212D01*
X176994779Y-152735570D01*
X176897412Y-152775901D01*
X176772075Y-152872075D01*
X176675901Y-152997411D01*
X176635570Y-153094779D01*
X175825252Y-152284461D01*
X175825250Y-152284461D01*
X175784828Y-152335148D01*
X175784825Y-152335153D01*
X175656828Y-152556851D01*
X175651790Y-152569690D01*
X175608283Y-152625794D01*
X175541350Y-152649470D01*
X175472243Y-152633201D01*
X175422902Y-152582152D01*
X175408500Y-152523656D01*
X175408500Y-152051367D01*
X175408499Y-152051350D01*
X175401990Y-151990803D01*
X175401988Y-151990795D01*
X175350889Y-151853797D01*
X175350887Y-151853792D01*
X175263261Y-151736738D01*
X175146207Y-151649112D01*
X175146202Y-151649110D01*
X175009204Y-151598011D01*
X175009196Y-151598009D01*
X174948649Y-151591500D01*
X174948638Y-151591500D01*
X174459500Y-151591500D01*
X174391379Y-151571498D01*
X174344886Y-151517842D01*
X174333500Y-151465500D01*
X174333500Y-150923855D01*
X174335249Y-150908014D01*
X174334956Y-150907987D01*
X174335701Y-150900094D01*
X174335702Y-150900091D01*
X174333562Y-150832013D01*
X174333500Y-150828054D01*
X174333500Y-150800149D01*
X174333500Y-150800144D01*
X174332992Y-150796130D01*
X174332061Y-150784297D01*
X174330673Y-150740110D01*
X174325022Y-150720663D01*
X174321012Y-150701300D01*
X174318474Y-150681203D01*
X174302195Y-150640090D01*
X174298353Y-150628869D01*
X174286018Y-150586407D01*
X174275705Y-150568969D01*
X174267010Y-150551222D01*
X174259552Y-150532383D01*
X174233568Y-150496620D01*
X174227051Y-150486699D01*
X174204541Y-150448635D01*
X174190218Y-150434312D01*
X174177377Y-150419279D01*
X174165471Y-150402892D01*
X174131405Y-150374710D01*
X174122626Y-150366721D01*
X172038836Y-148282931D01*
X172004810Y-148220619D01*
X172009875Y-148149804D01*
X172052422Y-148092968D01*
X172118942Y-148068157D01*
X172171964Y-148075780D01*
X172240907Y-148101494D01*
X172301402Y-148107999D01*
X172301415Y-148108000D01*
X173246000Y-148108000D01*
X173246000Y-145854000D01*
X173754000Y-145854000D01*
X173754000Y-148108000D01*
X174698585Y-148108000D01*
X174698597Y-148107999D01*
X174759093Y-148101494D01*
X174895964Y-148050444D01*
X174895965Y-148050444D01*
X175012904Y-147962904D01*
X175100444Y-147845965D01*
X175100444Y-147845964D01*
X175151494Y-147709093D01*
X175157999Y-147648597D01*
X175158000Y-147648585D01*
X175158000Y-145854000D01*
X173754000Y-145854000D01*
X173246000Y-145854000D01*
X171842000Y-145854000D01*
X171842000Y-147648597D01*
X171848505Y-147709094D01*
X171874219Y-147778036D01*
X171879283Y-147848852D01*
X171845258Y-147911164D01*
X171782946Y-147945189D01*
X171712130Y-147940123D01*
X171667068Y-147911163D01*
X169101905Y-145346000D01*
X171842000Y-145346000D01*
X173246000Y-145346000D01*
X173246000Y-143092000D01*
X173754000Y-143092000D01*
X173754000Y-145346000D01*
X175158000Y-145346000D01*
X175158000Y-143764000D01*
X185757000Y-143764000D01*
X185757000Y-143983597D01*
X185763505Y-144044093D01*
X185814555Y-144180964D01*
X185814555Y-144180965D01*
X185902095Y-144297904D01*
X186019034Y-144385444D01*
X186155906Y-144436494D01*
X186216402Y-144442999D01*
X186216415Y-144443000D01*
X186436000Y-144443000D01*
X186436000Y-143764000D01*
X186944000Y-143764000D01*
X186944000Y-144443000D01*
X187163585Y-144443000D01*
X187163597Y-144442999D01*
X187224093Y-144436494D01*
X187360964Y-144385444D01*
X187360965Y-144385444D01*
X187477904Y-144297904D01*
X187565444Y-144180965D01*
X187565444Y-144180964D01*
X187616494Y-144044093D01*
X187622999Y-143983597D01*
X187623000Y-143983585D01*
X187623000Y-143764000D01*
X186944000Y-143764000D01*
X186436000Y-143764000D01*
X185757000Y-143764000D01*
X175158000Y-143764000D01*
X175158000Y-143551414D01*
X175157999Y-143551402D01*
X175153547Y-143510000D01*
X186435102Y-143510000D01*
X186454505Y-143607545D01*
X186509760Y-143690240D01*
X186592455Y-143745495D01*
X186665376Y-143760000D01*
X186714624Y-143760000D01*
X186787545Y-143745495D01*
X186870240Y-143690240D01*
X186925495Y-143607545D01*
X186944898Y-143510000D01*
X186925495Y-143412455D01*
X186870240Y-143329760D01*
X186787545Y-143274505D01*
X186714624Y-143260000D01*
X186665376Y-143260000D01*
X186592455Y-143274505D01*
X186509760Y-143329760D01*
X186454505Y-143412455D01*
X186435102Y-143510000D01*
X175153547Y-143510000D01*
X175151494Y-143490906D01*
X175100444Y-143354035D01*
X175100444Y-143354034D01*
X175027056Y-143256000D01*
X185757000Y-143256000D01*
X186436000Y-143256000D01*
X186436000Y-142577000D01*
X186944000Y-142577000D01*
X186944000Y-143256000D01*
X187623000Y-143256000D01*
X187623000Y-143036414D01*
X187622999Y-143036402D01*
X187616494Y-142975906D01*
X187565444Y-142839035D01*
X187565444Y-142839034D01*
X187477904Y-142722095D01*
X187360965Y-142634555D01*
X187224093Y-142583505D01*
X187163597Y-142577000D01*
X186944000Y-142577000D01*
X186436000Y-142577000D01*
X186216402Y-142577000D01*
X186155906Y-142583505D01*
X186019035Y-142634555D01*
X186019034Y-142634555D01*
X185902095Y-142722095D01*
X185814555Y-142839034D01*
X185814555Y-142839035D01*
X185763505Y-142975906D01*
X185757000Y-143036402D01*
X185757000Y-143256000D01*
X175027056Y-143256000D01*
X175012904Y-143237095D01*
X174895965Y-143149555D01*
X174759093Y-143098505D01*
X174698597Y-143092000D01*
X173754000Y-143092000D01*
X173246000Y-143092000D01*
X172301402Y-143092000D01*
X172240906Y-143098505D01*
X172104035Y-143149555D01*
X172104034Y-143149555D01*
X171987095Y-143237095D01*
X171899555Y-143354034D01*
X171899555Y-143354035D01*
X171848505Y-143490906D01*
X171842000Y-143551402D01*
X171842000Y-145346000D01*
X169101905Y-145346000D01*
X168310405Y-144554500D01*
X168276379Y-144492188D01*
X168273500Y-144465405D01*
X168273500Y-141153683D01*
X172645740Y-141153683D01*
X172655754Y-141338404D01*
X172655756Y-141338415D01*
X172705243Y-141516651D01*
X172705246Y-141516659D01*
X172791899Y-141680104D01*
X172910924Y-141820230D01*
X172911663Y-141821100D01*
X173045209Y-141922619D01*
X173058939Y-141933056D01*
X173226833Y-142010732D01*
X173407503Y-142050500D01*
X173407506Y-142050500D01*
X173546105Y-142050500D01*
X173546113Y-142050500D01*
X173557365Y-142049276D01*
X173683903Y-142035515D01*
X173683905Y-142035514D01*
X173683910Y-142035514D01*
X173859221Y-141976444D01*
X174017736Y-141881070D01*
X174152041Y-141753849D01*
X174255858Y-141600730D01*
X174324331Y-141428875D01*
X174354260Y-141246317D01*
X174344245Y-141061593D01*
X174325916Y-140995579D01*
X174294756Y-140883348D01*
X174294755Y-140883347D01*
X174294754Y-140883341D01*
X174251601Y-140801946D01*
X174208100Y-140719895D01*
X174088342Y-140578906D01*
X174088337Y-140578900D01*
X173941064Y-140466946D01*
X173941063Y-140466945D01*
X173941060Y-140466943D01*
X173773166Y-140389267D01*
X173592503Y-140349501D01*
X173592500Y-140349500D01*
X173592497Y-140349500D01*
X173453887Y-140349500D01*
X173453877Y-140349500D01*
X173316096Y-140364484D01*
X173316087Y-140364486D01*
X173140779Y-140423555D01*
X173140776Y-140423557D01*
X172982266Y-140518928D01*
X172982265Y-140518929D01*
X172847961Y-140646148D01*
X172744139Y-140799273D01*
X172675669Y-140971122D01*
X172675668Y-140971125D01*
X172645740Y-141153682D01*
X172645740Y-141153683D01*
X168273500Y-141153683D01*
X168273500Y-139954000D01*
X185757000Y-139954000D01*
X185757000Y-140173597D01*
X185763505Y-140234093D01*
X185814555Y-140370964D01*
X185814555Y-140370965D01*
X185902095Y-140487904D01*
X186019034Y-140575444D01*
X186155906Y-140626494D01*
X186216402Y-140632999D01*
X186216415Y-140633000D01*
X186436000Y-140633000D01*
X186436000Y-139954000D01*
X186944000Y-139954000D01*
X186944000Y-140633000D01*
X187163585Y-140633000D01*
X187163597Y-140632999D01*
X187224093Y-140626494D01*
X187360964Y-140575444D01*
X187360965Y-140575444D01*
X187477904Y-140487904D01*
X187565444Y-140370965D01*
X187565444Y-140370964D01*
X187616494Y-140234093D01*
X187622999Y-140173597D01*
X187623000Y-140173585D01*
X187623000Y-139954000D01*
X186944000Y-139954000D01*
X186436000Y-139954000D01*
X185757000Y-139954000D01*
X168273500Y-139954000D01*
X168273500Y-139700000D01*
X186435102Y-139700000D01*
X186454505Y-139797545D01*
X186509760Y-139880240D01*
X186592455Y-139935495D01*
X186665376Y-139950000D01*
X186714624Y-139950000D01*
X186787545Y-139935495D01*
X186870240Y-139880240D01*
X186925495Y-139797545D01*
X186944898Y-139700000D01*
X186925495Y-139602455D01*
X186870240Y-139519760D01*
X186787545Y-139464505D01*
X186714624Y-139450000D01*
X186665376Y-139450000D01*
X186592455Y-139464505D01*
X186509760Y-139519760D01*
X186454505Y-139602455D01*
X186435102Y-139700000D01*
X168273500Y-139700000D01*
X168273500Y-139446000D01*
X185757000Y-139446000D01*
X186436000Y-139446000D01*
X186436000Y-138767000D01*
X186944000Y-138767000D01*
X186944000Y-139446000D01*
X187623000Y-139446000D01*
X187623000Y-139226414D01*
X187622999Y-139226402D01*
X187616494Y-139165906D01*
X187565444Y-139029035D01*
X187565444Y-139029034D01*
X187477904Y-138912095D01*
X187360965Y-138824555D01*
X187224093Y-138773505D01*
X187163597Y-138767000D01*
X186944000Y-138767000D01*
X186436000Y-138767000D01*
X186216402Y-138767000D01*
X186155906Y-138773505D01*
X186019035Y-138824555D01*
X186019034Y-138824555D01*
X185902095Y-138912095D01*
X185814555Y-139029034D01*
X185814555Y-139029035D01*
X185763505Y-139165906D01*
X185757000Y-139226402D01*
X185757000Y-139446000D01*
X168273500Y-139446000D01*
X168273500Y-134934594D01*
X168293502Y-134866473D01*
X168310405Y-134845499D01*
X169502221Y-133653683D01*
X172645740Y-133653683D01*
X172655754Y-133838404D01*
X172655756Y-133838415D01*
X172705243Y-134016651D01*
X172705246Y-134016659D01*
X172791899Y-134180104D01*
X172911657Y-134321093D01*
X172911663Y-134321100D01*
X173034088Y-134414165D01*
X173058939Y-134433056D01*
X173152721Y-134476444D01*
X173226833Y-134510732D01*
X173407503Y-134550500D01*
X173407506Y-134550500D01*
X173546105Y-134550500D01*
X173546113Y-134550500D01*
X173557365Y-134549276D01*
X173683903Y-134535515D01*
X173683905Y-134535514D01*
X173683910Y-134535514D01*
X173859221Y-134476444D01*
X174017736Y-134381070D01*
X174152041Y-134253849D01*
X174255858Y-134100730D01*
X174324331Y-133928875D01*
X174354260Y-133746317D01*
X174352048Y-133705525D01*
X174344245Y-133561595D01*
X174344243Y-133561584D01*
X174294756Y-133383348D01*
X174294755Y-133383347D01*
X174294754Y-133383341D01*
X174254041Y-133306549D01*
X174208100Y-133219895D01*
X174088342Y-133078906D01*
X174088337Y-133078900D01*
X173941064Y-132966946D01*
X173941063Y-132966945D01*
X173941060Y-132966943D01*
X173773166Y-132889267D01*
X173592503Y-132849501D01*
X173592500Y-132849500D01*
X173592497Y-132849500D01*
X173453887Y-132849500D01*
X173453877Y-132849500D01*
X173316096Y-132864484D01*
X173316087Y-132864486D01*
X173140779Y-132923555D01*
X173140776Y-132923557D01*
X172982266Y-133018928D01*
X172982265Y-133018929D01*
X172847961Y-133146148D01*
X172744139Y-133299273D01*
X172675669Y-133471122D01*
X172675668Y-133471125D01*
X172645740Y-133653682D01*
X172645740Y-133653683D01*
X169502221Y-133653683D01*
X171626405Y-131529499D01*
X171688717Y-131495473D01*
X171759532Y-131500538D01*
X171816368Y-131543085D01*
X171841179Y-131609605D01*
X171841500Y-131618594D01*
X171841500Y-131848649D01*
X171848009Y-131909196D01*
X171848011Y-131909204D01*
X171899110Y-132046202D01*
X171899112Y-132046207D01*
X171986738Y-132163261D01*
X172103792Y-132250887D01*
X172103794Y-132250888D01*
X172103796Y-132250889D01*
X172162875Y-132272924D01*
X172240795Y-132301988D01*
X172240803Y-132301990D01*
X172301350Y-132308499D01*
X172301355Y-132308499D01*
X172301362Y-132308500D01*
X172301368Y-132308500D01*
X174698632Y-132308500D01*
X174698638Y-132308500D01*
X174698645Y-132308499D01*
X174698649Y-132308499D01*
X174759196Y-132301990D01*
X174759199Y-132301989D01*
X174759201Y-132301989D01*
X174896204Y-132250889D01*
X175013261Y-132163261D01*
X175100889Y-132046204D01*
X175151989Y-131909201D01*
X175158500Y-131848638D01*
X175158500Y-129954594D01*
X175178502Y-129886473D01*
X175195400Y-129865503D01*
X175902659Y-129158243D01*
X175915093Y-129148284D01*
X175914905Y-129148057D01*
X175921016Y-129143001D01*
X175921015Y-129143001D01*
X175921018Y-129143000D01*
X175932115Y-129131182D01*
X183249500Y-129131182D01*
X183264754Y-129232383D01*
X183288604Y-129390619D01*
X183365933Y-129641314D01*
X183365938Y-129641327D01*
X183479773Y-129877706D01*
X183479777Y-129877713D01*
X183627562Y-130094472D01*
X183627567Y-130094479D01*
X183806019Y-130286805D01*
X184011143Y-130450386D01*
X184011146Y-130450388D01*
X184238352Y-130581566D01*
X184238356Y-130581567D01*
X184238357Y-130581568D01*
X184482584Y-130677420D01*
X184738370Y-130735802D01*
X184934506Y-130750500D01*
X184934507Y-130750500D01*
X185065493Y-130750500D01*
X185065494Y-130750500D01*
X185261630Y-130735802D01*
X185517416Y-130677420D01*
X185761643Y-130581568D01*
X185761645Y-130581566D01*
X185761647Y-130581566D01*
X185875250Y-130515977D01*
X185988857Y-130450386D01*
X186193981Y-130286805D01*
X186372433Y-130094479D01*
X186520228Y-129877704D01*
X186634063Y-129641323D01*
X186639453Y-129623849D01*
X186711395Y-129390619D01*
X186711396Y-129390615D01*
X186750500Y-129131182D01*
X186750500Y-128868818D01*
X186711396Y-128609385D01*
X186711395Y-128609383D01*
X186711395Y-128609380D01*
X186634066Y-128358685D01*
X186634061Y-128358672D01*
X186585854Y-128258570D01*
X186520228Y-128122296D01*
X186520226Y-128122293D01*
X186520222Y-128122286D01*
X186372437Y-127905527D01*
X186372433Y-127905521D01*
X186193981Y-127713195D01*
X185988857Y-127549614D01*
X185988852Y-127549611D01*
X185988853Y-127549611D01*
X185761647Y-127418433D01*
X185761639Y-127418430D01*
X185517419Y-127322581D01*
X185517417Y-127322580D01*
X185261633Y-127264198D01*
X185114528Y-127253174D01*
X185065494Y-127249500D01*
X184934506Y-127249500D01*
X184895278Y-127252439D01*
X184738366Y-127264198D01*
X184482582Y-127322580D01*
X184482580Y-127322581D01*
X184238360Y-127418430D01*
X184238352Y-127418433D01*
X184011146Y-127549611D01*
X183806018Y-127713195D01*
X183627566Y-127905522D01*
X183627562Y-127905527D01*
X183479777Y-128122286D01*
X183479773Y-128122293D01*
X183365938Y-128358672D01*
X183365933Y-128358685D01*
X183288604Y-128609380D01*
X183270268Y-128731031D01*
X183249500Y-128868818D01*
X183249500Y-129131182D01*
X175932115Y-129131182D01*
X175967676Y-129093312D01*
X175970367Y-129090535D01*
X175990135Y-129070769D01*
X175992614Y-129067571D01*
X176000299Y-129058571D01*
X176030586Y-129026321D01*
X176040345Y-129008567D01*
X176051204Y-128992038D01*
X176063614Y-128976040D01*
X176081177Y-128935451D01*
X176086396Y-128924801D01*
X176107694Y-128886061D01*
X176107695Y-128886060D01*
X176112733Y-128866435D01*
X176119138Y-128847730D01*
X176127181Y-128829145D01*
X176134096Y-128785481D01*
X176136504Y-128773852D01*
X176147500Y-128731030D01*
X176147500Y-128710775D01*
X176149051Y-128691063D01*
X176152220Y-128671057D01*
X176148059Y-128627036D01*
X176147500Y-128615179D01*
X176147500Y-125807100D01*
X176167502Y-125738979D01*
X176221158Y-125692486D01*
X176273500Y-125681100D01*
X176662180Y-125681100D01*
X176722146Y-125696285D01*
X176744426Y-125708342D01*
X176957365Y-125781444D01*
X177179431Y-125818500D01*
X177179435Y-125818500D01*
X177404565Y-125818500D01*
X177404569Y-125818500D01*
X177626635Y-125781444D01*
X177839574Y-125708342D01*
X178037576Y-125601189D01*
X178215240Y-125462906D01*
X178367722Y-125297268D01*
X178490860Y-125108791D01*
X178581296Y-124902616D01*
X178636564Y-124684368D01*
X178655156Y-124460000D01*
X178636564Y-124235632D01*
X178626580Y-124196207D01*
X178581297Y-124017387D01*
X178581296Y-124017386D01*
X178581296Y-124017384D01*
X178490860Y-123811209D01*
X178425647Y-123711393D01*
X178367724Y-123622734D01*
X178367719Y-123622729D01*
X178363124Y-123617738D01*
X178224524Y-123467179D01*
X178193103Y-123403514D01*
X178201090Y-123332968D01*
X178245948Y-123277939D01*
X178273183Y-123263789D01*
X178388204Y-123220889D01*
X178505261Y-123133261D01*
X178516908Y-123117702D01*
X178592887Y-123016207D01*
X178592887Y-123016206D01*
X178592889Y-123016204D01*
X178643989Y-122879201D01*
X178650500Y-122818638D01*
X178650500Y-121021362D01*
X178650499Y-121021350D01*
X178643990Y-120960803D01*
X178643988Y-120960795D01*
X178592889Y-120823797D01*
X178592887Y-120823792D01*
X178505261Y-120706738D01*
X178388207Y-120619112D01*
X178388202Y-120619110D01*
X178251204Y-120568011D01*
X178251196Y-120568009D01*
X178190649Y-120561500D01*
X178190638Y-120561500D01*
X176393362Y-120561500D01*
X176393350Y-120561500D01*
X176332803Y-120568009D01*
X176332795Y-120568011D01*
X176195797Y-120619110D01*
X176195792Y-120619112D01*
X176078738Y-120706738D01*
X175991112Y-120823792D01*
X175991110Y-120823797D01*
X175940011Y-120960795D01*
X175940009Y-120960803D01*
X175933500Y-121021350D01*
X175933500Y-121160500D01*
X175913498Y-121228621D01*
X175859842Y-121275114D01*
X175807500Y-121286500D01*
X174185853Y-121286500D01*
X174170011Y-121284750D01*
X174169984Y-121285044D01*
X174162088Y-121284297D01*
X174156728Y-121284466D01*
X174134844Y-121283246D01*
X174074772Y-121274609D01*
X174059112Y-121272358D01*
X174059111Y-121272358D01*
X174002514Y-121272358D01*
X174002218Y-121272271D01*
X173950236Y-121272271D01*
X173521764Y-121272271D01*
X173470295Y-121272271D01*
X173469486Y-121272358D01*
X173412882Y-121272358D01*
X173279496Y-121291537D01*
X173279491Y-121291537D01*
X173276456Y-121291974D01*
X173270568Y-121292820D01*
X173130278Y-121334014D01*
X173130263Y-121334020D01*
X172999492Y-121393741D01*
X172999487Y-121393744D01*
X172876478Y-121472797D01*
X172876472Y-121472802D01*
X172771176Y-121564040D01*
X172769427Y-121565451D01*
X172767816Y-121566952D01*
X172731372Y-121609012D01*
X172671646Y-121647396D01*
X172636147Y-121652500D01*
X172310854Y-121652500D01*
X172295012Y-121650750D01*
X172294985Y-121651044D01*
X172287092Y-121650297D01*
X172219002Y-121652438D01*
X172215044Y-121652500D01*
X172187144Y-121652500D01*
X172187138Y-121652500D01*
X172187132Y-121652501D01*
X172183133Y-121653006D01*
X172171313Y-121653936D01*
X172127114Y-121655325D01*
X172127107Y-121655327D01*
X172107649Y-121660979D01*
X172088304Y-121664985D01*
X172068206Y-121667525D01*
X172068198Y-121667527D01*
X172027090Y-121683802D01*
X172015866Y-121687645D01*
X171973409Y-121699981D01*
X171973407Y-121699981D01*
X171973407Y-121699982D01*
X171955964Y-121710297D01*
X171938218Y-121718990D01*
X171919382Y-121726448D01*
X171883610Y-121752437D01*
X171873694Y-121758951D01*
X171835637Y-121781458D01*
X171821311Y-121795784D01*
X171806285Y-121808617D01*
X171789895Y-121820525D01*
X171789893Y-121820527D01*
X171761700Y-121854605D01*
X171753713Y-121863381D01*
X169825594Y-123791499D01*
X169763282Y-123825525D01*
X169692466Y-123820460D01*
X169635631Y-123777913D01*
X169610820Y-123711393D01*
X169610499Y-123702430D01*
X169610499Y-122932456D01*
X169609546Y-122923131D01*
X169599887Y-122828574D01*
X169585780Y-122786002D01*
X169544115Y-122660262D01*
X169451030Y-122509348D01*
X169451029Y-122509347D01*
X169451024Y-122509341D01*
X169325658Y-122383975D01*
X169325652Y-122383970D01*
X169285403Y-122359144D01*
X169174738Y-122290885D01*
X169027310Y-122242033D01*
X169006427Y-122235113D01*
X169006420Y-122235112D01*
X168902553Y-122224500D01*
X168902545Y-122224500D01*
X168241594Y-122224500D01*
X168173473Y-122204498D01*
X168152499Y-122187595D01*
X165328905Y-119364000D01*
X169692000Y-119364000D01*
X169692000Y-119510516D01*
X169702605Y-119614318D01*
X169702606Y-119614321D01*
X169758342Y-119782525D01*
X169851365Y-119933339D01*
X169851370Y-119933345D01*
X169976654Y-120058629D01*
X169976660Y-120058634D01*
X170127474Y-120151657D01*
X170295678Y-120207393D01*
X170295681Y-120207394D01*
X170399483Y-120217999D01*
X170399483Y-120218000D01*
X170646000Y-120218000D01*
X170646000Y-119364000D01*
X171154000Y-119364000D01*
X171154000Y-120218000D01*
X171400517Y-120218000D01*
X171400516Y-120217999D01*
X171504318Y-120207394D01*
X171504321Y-120207393D01*
X171672525Y-120151657D01*
X171823339Y-120058634D01*
X171823345Y-120058629D01*
X171948629Y-119933345D01*
X171948634Y-119933339D01*
X172041657Y-119782525D01*
X172097393Y-119614321D01*
X172097394Y-119614318D01*
X172107999Y-119510516D01*
X172108000Y-119510516D01*
X172108000Y-119364000D01*
X172592000Y-119364000D01*
X172592000Y-119510516D01*
X172602605Y-119614318D01*
X172602606Y-119614321D01*
X172658342Y-119782525D01*
X172751365Y-119933339D01*
X172751370Y-119933345D01*
X172876654Y-120058629D01*
X172876660Y-120058634D01*
X173027474Y-120151657D01*
X173195678Y-120207393D01*
X173195681Y-120207394D01*
X173299483Y-120217999D01*
X173299483Y-120218000D01*
X173546000Y-120218000D01*
X173546000Y-119364000D01*
X172592000Y-119364000D01*
X172108000Y-119364000D01*
X171154000Y-119364000D01*
X170646000Y-119364000D01*
X169692000Y-119364000D01*
X165328905Y-119364000D01*
X165144705Y-119179800D01*
X165110679Y-119117488D01*
X165107800Y-119090705D01*
X165107800Y-118846460D01*
X165127802Y-118778339D01*
X165181458Y-118731846D01*
X165251732Y-118721742D01*
X165271277Y-118726163D01*
X165329661Y-118744356D01*
X165397271Y-118750500D01*
X166740728Y-118750499D01*
X166808339Y-118744356D01*
X166866945Y-118726094D01*
X166963905Y-118695881D01*
X166963906Y-118695880D01*
X166963910Y-118695879D01*
X167103358Y-118611579D01*
X167109259Y-118605678D01*
X167127533Y-118587405D01*
X167189845Y-118553379D01*
X167216628Y-118550500D01*
X167237851Y-118550500D01*
X167237856Y-118550500D01*
X167241867Y-118549992D01*
X167253699Y-118549061D01*
X167297889Y-118547673D01*
X167317347Y-118542019D01*
X167336694Y-118538013D01*
X167356797Y-118535474D01*
X167397910Y-118519195D01*
X167409130Y-118515353D01*
X167440964Y-118506106D01*
X167451591Y-118503019D01*
X167451595Y-118503017D01*
X167469026Y-118492708D01*
X167486780Y-118484009D01*
X167505617Y-118476552D01*
X167541392Y-118450558D01*
X167551298Y-118444051D01*
X167589362Y-118421542D01*
X167603685Y-118407218D01*
X167618724Y-118394374D01*
X167635107Y-118382472D01*
X167663303Y-118348386D01*
X167671272Y-118339630D01*
X168028657Y-117982245D01*
X168041092Y-117972284D01*
X168040905Y-117972057D01*
X168047016Y-117967001D01*
X168047015Y-117967001D01*
X168047018Y-117967000D01*
X168093676Y-117917312D01*
X168096367Y-117914535D01*
X168116134Y-117894770D01*
X168118617Y-117891567D01*
X168126308Y-117882562D01*
X168156586Y-117850321D01*
X168166345Y-117832567D01*
X168177197Y-117816046D01*
X168189613Y-117800041D01*
X168207168Y-117759470D01*
X168212392Y-117748808D01*
X168213774Y-117746295D01*
X168233695Y-117710060D01*
X168238733Y-117690435D01*
X168245138Y-117671730D01*
X168246801Y-117667887D01*
X168253181Y-117653145D01*
X168260096Y-117609476D01*
X168262503Y-117597856D01*
X168266151Y-117583651D01*
X168273500Y-117555030D01*
X168273500Y-117534769D01*
X168275051Y-117515058D01*
X168275766Y-117510544D01*
X169691500Y-117510544D01*
X169702112Y-117614425D01*
X169757885Y-117782738D01*
X169850970Y-117933652D01*
X169850975Y-117933658D01*
X169938576Y-118021259D01*
X169972602Y-118083571D01*
X169967537Y-118154386D01*
X169938576Y-118199449D01*
X169851370Y-118286654D01*
X169851365Y-118286660D01*
X169758342Y-118437474D01*
X169702606Y-118605678D01*
X169702605Y-118605681D01*
X169692000Y-118709483D01*
X169692000Y-118856000D01*
X172108001Y-118856000D01*
X172113611Y-118850389D01*
X172128002Y-118801379D01*
X172181658Y-118754886D01*
X172234000Y-118743500D01*
X172466000Y-118743500D01*
X172534121Y-118763502D01*
X172580614Y-118817158D01*
X172588247Y-118852248D01*
X172591999Y-118856000D01*
X173928000Y-118856000D01*
X173996121Y-118876002D01*
X174042614Y-118929658D01*
X174054000Y-118982000D01*
X174054000Y-120218000D01*
X174300517Y-120218000D01*
X174300516Y-120217999D01*
X174404318Y-120207394D01*
X174404321Y-120207393D01*
X174572525Y-120151657D01*
X174723339Y-120058634D01*
X174723345Y-120058629D01*
X174848629Y-119933345D01*
X174848634Y-119933339D01*
X174941657Y-119782525D01*
X174997393Y-119614321D01*
X174997394Y-119614318D01*
X175007999Y-119510516D01*
X175008000Y-119510516D01*
X175008000Y-119235694D01*
X175028002Y-119167573D01*
X175081658Y-119121080D01*
X175151932Y-119110976D01*
X175216512Y-119140470D01*
X175223095Y-119146599D01*
X175972153Y-119895657D01*
X175982120Y-119908097D01*
X175982347Y-119907910D01*
X175987399Y-119914017D01*
X175987400Y-119914018D01*
X176013365Y-119938401D01*
X176037066Y-119960657D01*
X176039910Y-119963414D01*
X176059626Y-119983131D01*
X176062823Y-119985611D01*
X176071844Y-119993316D01*
X176104079Y-120023586D01*
X176104080Y-120023586D01*
X176104082Y-120023588D01*
X176121829Y-120033344D01*
X176138359Y-120044202D01*
X176154359Y-120056613D01*
X176194936Y-120074172D01*
X176205587Y-120079390D01*
X176244340Y-120100695D01*
X176263962Y-120105733D01*
X176282663Y-120112135D01*
X176301255Y-120120181D01*
X176344922Y-120127096D01*
X176356525Y-120129498D01*
X176399370Y-120140500D01*
X176419631Y-120140500D01*
X176439339Y-120142050D01*
X176459343Y-120145219D01*
X176503354Y-120141058D01*
X176515211Y-120140500D01*
X178203547Y-120140500D01*
X178219388Y-120142249D01*
X178219416Y-120141956D01*
X178227302Y-120142700D01*
X178227309Y-120142702D01*
X178295386Y-120140562D01*
X178299345Y-120140500D01*
X178327251Y-120140500D01*
X178327256Y-120140500D01*
X178331267Y-120139992D01*
X178343099Y-120139061D01*
X178387289Y-120137673D01*
X178406747Y-120132019D01*
X178426094Y-120128013D01*
X178446197Y-120125474D01*
X178447266Y-120125051D01*
X178472319Y-120115131D01*
X178487310Y-120109195D01*
X178498530Y-120105353D01*
X178523313Y-120098154D01*
X178540991Y-120093019D01*
X178540995Y-120093017D01*
X178558426Y-120082708D01*
X178576180Y-120074009D01*
X178595017Y-120066552D01*
X178630792Y-120040558D01*
X178640698Y-120034051D01*
X178678762Y-120011542D01*
X178693085Y-119997218D01*
X178708124Y-119984374D01*
X178715352Y-119979123D01*
X178724507Y-119972472D01*
X178752703Y-119938386D01*
X178760672Y-119929630D01*
X179912969Y-118777334D01*
X179975279Y-118743310D01*
X180046095Y-118748375D01*
X180102930Y-118790922D01*
X180127340Y-118852966D01*
X180128261Y-118861535D01*
X180128261Y-118888468D01*
X180121500Y-118951350D01*
X180121500Y-119648649D01*
X180125826Y-119688881D01*
X180125826Y-119715817D01*
X180122000Y-119751398D01*
X180122000Y-119846001D01*
X180124539Y-119848540D01*
X180184008Y-119866002D01*
X180216755Y-119896491D01*
X180266738Y-119963261D01*
X180383792Y-120050887D01*
X180383794Y-120050888D01*
X180383796Y-120050889D01*
X180409642Y-120060529D01*
X180520795Y-120101988D01*
X180520803Y-120101990D01*
X180527612Y-120102722D01*
X180593204Y-120129890D01*
X180633696Y-120188208D01*
X180636230Y-120259159D01*
X180600004Y-120320218D01*
X180536517Y-120351998D01*
X180514144Y-120354000D01*
X180122000Y-120354000D01*
X180122000Y-120448597D01*
X180128505Y-120509093D01*
X180179555Y-120645964D01*
X180179555Y-120645965D01*
X180267095Y-120762904D01*
X180384034Y-120850444D01*
X180520906Y-120901494D01*
X180581402Y-120907999D01*
X180581415Y-120908000D01*
X180593405Y-120908000D01*
X180661526Y-120928002D01*
X180708019Y-120981658D01*
X180718798Y-121046350D01*
X180706620Y-121169996D01*
X180706620Y-121170003D01*
X180726090Y-121367694D01*
X180726091Y-121367700D01*
X180726092Y-121367701D01*
X180783759Y-121557804D01*
X180877405Y-121733004D01*
X181003432Y-121886568D01*
X181156996Y-122012595D01*
X181332196Y-122106241D01*
X181522299Y-122163908D01*
X181522303Y-122163908D01*
X181522305Y-122163909D01*
X181606513Y-122172202D01*
X181670453Y-122178500D01*
X181670462Y-122178500D01*
X182869538Y-122178500D01*
X182869547Y-122178500D01*
X182953761Y-122170205D01*
X183017694Y-122163909D01*
X183017695Y-122163908D01*
X183017701Y-122163908D01*
X183207804Y-122106241D01*
X183383004Y-122012595D01*
X183536568Y-121886568D01*
X183662595Y-121733004D01*
X183756241Y-121557804D01*
X183813908Y-121367701D01*
X183817226Y-121334020D01*
X183833380Y-121170003D01*
X185136620Y-121170003D01*
X185156090Y-121367694D01*
X185156091Y-121367700D01*
X185156092Y-121367701D01*
X185213759Y-121557804D01*
X185307405Y-121733004D01*
X185433432Y-121886568D01*
X185586996Y-122012595D01*
X185762196Y-122106241D01*
X185952299Y-122163908D01*
X185952303Y-122163908D01*
X185952305Y-122163909D01*
X186036513Y-122172202D01*
X186100453Y-122178500D01*
X186100462Y-122178500D01*
X186799538Y-122178500D01*
X186799547Y-122178500D01*
X186883761Y-122170205D01*
X186947694Y-122163909D01*
X186947695Y-122163908D01*
X186947701Y-122163908D01*
X187137804Y-122106241D01*
X187313004Y-122012595D01*
X187466568Y-121886568D01*
X187592595Y-121733004D01*
X187686241Y-121557804D01*
X187743908Y-121367701D01*
X187747226Y-121334020D01*
X187763380Y-121170003D01*
X187763380Y-121169996D01*
X187743909Y-120972305D01*
X187743908Y-120972303D01*
X187743908Y-120972299D01*
X187686241Y-120782196D01*
X187592595Y-120606996D01*
X187466568Y-120453432D01*
X187313004Y-120327405D01*
X187137804Y-120233759D01*
X186947701Y-120176092D01*
X186947700Y-120176091D01*
X186947694Y-120176090D01*
X186799553Y-120161500D01*
X186799547Y-120161500D01*
X186100453Y-120161500D01*
X186100446Y-120161500D01*
X185952305Y-120176090D01*
X185762195Y-120233759D01*
X185586995Y-120327405D01*
X185433432Y-120453432D01*
X185307405Y-120606995D01*
X185213759Y-120782195D01*
X185156090Y-120972305D01*
X185136620Y-121169996D01*
X185136620Y-121170003D01*
X183833380Y-121170003D01*
X183833380Y-121169996D01*
X183813909Y-120972305D01*
X183813908Y-120972303D01*
X183813908Y-120972299D01*
X183756241Y-120782196D01*
X183662595Y-120606996D01*
X183536568Y-120453432D01*
X183383004Y-120327405D01*
X183295322Y-120280538D01*
X183244674Y-120230786D01*
X183228964Y-120161549D01*
X183253180Y-120094810D01*
X183254724Y-120092752D01*
X183302698Y-120030233D01*
X183360687Y-119890236D01*
X183380466Y-119740000D01*
X183360687Y-119589764D01*
X183302698Y-119449767D01*
X183296379Y-119441532D01*
X183214287Y-119334547D01*
X183188686Y-119268327D01*
X183202951Y-119198778D01*
X183225151Y-119168751D01*
X183903657Y-118490245D01*
X183916097Y-118480282D01*
X183915908Y-118480054D01*
X183922012Y-118475003D01*
X183922018Y-118475000D01*
X183968662Y-118425327D01*
X183971352Y-118422551D01*
X183991135Y-118402770D01*
X183993614Y-118399573D01*
X184001311Y-118390559D01*
X184031586Y-118358321D01*
X184041346Y-118340565D01*
X184052195Y-118324050D01*
X184064614Y-118308041D01*
X184082179Y-118267446D01*
X184087384Y-118256821D01*
X184108695Y-118218060D01*
X184113733Y-118198434D01*
X184120137Y-118179732D01*
X184128180Y-118161147D01*
X184128179Y-118161147D01*
X184128181Y-118161145D01*
X184135096Y-118117481D01*
X184137504Y-118105852D01*
X184138010Y-118103883D01*
X184148500Y-118063030D01*
X184148500Y-118042775D01*
X184150051Y-118023063D01*
X184150337Y-118021259D01*
X184153220Y-118003057D01*
X184149059Y-117959036D01*
X184148500Y-117947179D01*
X184148500Y-115889953D01*
X184150249Y-115874111D01*
X184149956Y-115874084D01*
X184150702Y-115866191D01*
X184148562Y-115798100D01*
X184148500Y-115794142D01*
X184148500Y-115766250D01*
X184148500Y-115766244D01*
X184147993Y-115762235D01*
X184147062Y-115750406D01*
X184145674Y-115706211D01*
X184140017Y-115686742D01*
X184136012Y-115667398D01*
X184133474Y-115647303D01*
X184117196Y-115606192D01*
X184113356Y-115594977D01*
X184101018Y-115552507D01*
X184090706Y-115535070D01*
X184082010Y-115517321D01*
X184074552Y-115498483D01*
X184048552Y-115462698D01*
X184042059Y-115452814D01*
X184019542Y-115414738D01*
X184005214Y-115400410D01*
X183992384Y-115385389D01*
X183980472Y-115368993D01*
X183980469Y-115368991D01*
X183980469Y-115368990D01*
X183946400Y-115340805D01*
X183937622Y-115332817D01*
X183178965Y-114574160D01*
X183144939Y-114511848D01*
X183150004Y-114441033D01*
X183191356Y-114385102D01*
X183210451Y-114370451D01*
X183302698Y-114250233D01*
X183360687Y-114110236D01*
X183380466Y-113960000D01*
X183360687Y-113809764D01*
X183302698Y-113669767D01*
X183254754Y-113607286D01*
X183229155Y-113541067D01*
X183243420Y-113471518D01*
X183293021Y-113420722D01*
X183295228Y-113419511D01*
X183383004Y-113372595D01*
X183536568Y-113246568D01*
X183575142Y-113199565D01*
X183633818Y-113159597D01*
X183672540Y-113153500D01*
X185297460Y-113153500D01*
X185365581Y-113173502D01*
X185394856Y-113199564D01*
X185433432Y-113246568D01*
X185433434Y-113246569D01*
X185433434Y-113246570D01*
X185526471Y-113322923D01*
X185586996Y-113372595D01*
X185762196Y-113466241D01*
X185952299Y-113523908D01*
X185952303Y-113523908D01*
X185952305Y-113523909D01*
X186036513Y-113532202D01*
X186100453Y-113538500D01*
X186100462Y-113538500D01*
X186799538Y-113538500D01*
X186799547Y-113538500D01*
X186883761Y-113530205D01*
X186947694Y-113523909D01*
X186947695Y-113523908D01*
X186947701Y-113523908D01*
X187137804Y-113466241D01*
X187313004Y-113372595D01*
X187466568Y-113246568D01*
X187592595Y-113093004D01*
X187686241Y-112917804D01*
X187743908Y-112727701D01*
X187744332Y-112723403D01*
X187763380Y-112530003D01*
X187763380Y-112529996D01*
X187743909Y-112332305D01*
X187743908Y-112332303D01*
X187743908Y-112332299D01*
X187686241Y-112142196D01*
X187592595Y-111966996D01*
X187466568Y-111813432D01*
X187313004Y-111687405D01*
X187137804Y-111593759D01*
X186947701Y-111536092D01*
X186947700Y-111536091D01*
X186947694Y-111536090D01*
X186799553Y-111521500D01*
X186799547Y-111521500D01*
X186100453Y-111521500D01*
X186100446Y-111521500D01*
X185952305Y-111536090D01*
X185762195Y-111593759D01*
X185586995Y-111687405D01*
X185433429Y-111813434D01*
X185411272Y-111840433D01*
X185352595Y-111880402D01*
X185313873Y-111886500D01*
X183656127Y-111886500D01*
X183588006Y-111866498D01*
X183558728Y-111840433D01*
X183536570Y-111813434D01*
X183523277Y-111802525D01*
X183383004Y-111687405D01*
X183207804Y-111593759D01*
X183017701Y-111536092D01*
X183017700Y-111536091D01*
X183017694Y-111536090D01*
X182869553Y-111521500D01*
X182869547Y-111521500D01*
X181670453Y-111521500D01*
X181670446Y-111521500D01*
X181522305Y-111536090D01*
X181332195Y-111593759D01*
X181156995Y-111687405D01*
X181003432Y-111813432D01*
X180877405Y-111966995D01*
X180783759Y-112142195D01*
X180726090Y-112332305D01*
X180706620Y-112529996D01*
X180706620Y-112530003D01*
X180718798Y-112653650D01*
X180705569Y-112723403D01*
X180656729Y-112774931D01*
X180593405Y-112792000D01*
X180581402Y-112792000D01*
X180520906Y-112798505D01*
X180384035Y-112849555D01*
X180384034Y-112849555D01*
X180267095Y-112937095D01*
X180179555Y-113054034D01*
X180179554Y-113054037D01*
X180167954Y-113085138D01*
X180125407Y-113141973D01*
X180058886Y-113166783D01*
X179989512Y-113151691D01*
X179960804Y-113130199D01*
X179471944Y-112641339D01*
X179461979Y-112628901D01*
X179461752Y-112629090D01*
X179456701Y-112622984D01*
X179456700Y-112622982D01*
X179453310Y-112619799D01*
X179407049Y-112576357D01*
X179404205Y-112573600D01*
X179384477Y-112553871D01*
X179384471Y-112553866D01*
X179381267Y-112551380D01*
X179372256Y-112543683D01*
X179340025Y-112513417D01*
X179340019Y-112513413D01*
X179322263Y-112503651D01*
X179305747Y-112492802D01*
X179289741Y-112480386D01*
X179250807Y-112463538D01*
X179249164Y-112462827D01*
X179238507Y-112457605D01*
X179199763Y-112436306D01*
X179199760Y-112436305D01*
X179180136Y-112431266D01*
X179161436Y-112424864D01*
X179154949Y-112422057D01*
X179142845Y-112416819D01*
X179142843Y-112416818D01*
X179142841Y-112416818D01*
X179099174Y-112409901D01*
X179087555Y-112407495D01*
X179044730Y-112396500D01*
X179024476Y-112396500D01*
X179004766Y-112394949D01*
X178984757Y-112391780D01*
X178940739Y-112395941D01*
X178928881Y-112396500D01*
X176309153Y-112396500D01*
X176293311Y-112394750D01*
X176293284Y-112395044D01*
X176285392Y-112394298D01*
X176285391Y-112394298D01*
X176264682Y-112394949D01*
X176217314Y-112396438D01*
X176213355Y-112396500D01*
X176185444Y-112396500D01*
X176185441Y-112396500D01*
X176185426Y-112396501D01*
X176181421Y-112397007D01*
X176169604Y-112397937D01*
X176125412Y-112399326D01*
X176125410Y-112399327D01*
X176105955Y-112404978D01*
X176086602Y-112408986D01*
X176066510Y-112411524D01*
X176066503Y-112411526D01*
X176025396Y-112427801D01*
X176014171Y-112431644D01*
X175990114Y-112438634D01*
X175971707Y-112443982D01*
X175971705Y-112443982D01*
X175971702Y-112443984D01*
X175954263Y-112454297D01*
X175936518Y-112462990D01*
X175917679Y-112470449D01*
X175881927Y-112496426D01*
X175872004Y-112502944D01*
X175833940Y-112525454D01*
X175819607Y-112539787D01*
X175804581Y-112552620D01*
X175788195Y-112564526D01*
X175788193Y-112564527D01*
X175788193Y-112564528D01*
X175771737Y-112584419D01*
X175760015Y-112598588D01*
X175752028Y-112607365D01*
X175026452Y-113332942D01*
X174964139Y-113366967D01*
X174893324Y-113361903D01*
X174869837Y-113348674D01*
X174869286Y-113349568D01*
X174863041Y-113345716D01*
X174863040Y-113345715D01*
X174717101Y-113255698D01*
X174554336Y-113201764D01*
X174554333Y-113201763D01*
X174453880Y-113191500D01*
X174453872Y-113191500D01*
X173906128Y-113191500D01*
X173906120Y-113191500D01*
X173805666Y-113201763D01*
X173642899Y-113255698D01*
X173496959Y-113345715D01*
X173496953Y-113345720D01*
X173375720Y-113466953D01*
X173375715Y-113466959D01*
X173285698Y-113612899D01*
X173231763Y-113775666D01*
X173221500Y-113876119D01*
X173221500Y-114723880D01*
X173221499Y-114723880D01*
X173231763Y-114824333D01*
X173231764Y-114824336D01*
X173285698Y-114987101D01*
X173348846Y-115089479D01*
X173375715Y-115133040D01*
X173375720Y-115133046D01*
X173496953Y-115254279D01*
X173496959Y-115254284D01*
X173496960Y-115254285D01*
X173642899Y-115344302D01*
X173805664Y-115398236D01*
X173825756Y-115400288D01*
X173906120Y-115408500D01*
X174301404Y-115408500D01*
X174369525Y-115428502D01*
X174416018Y-115482158D01*
X174426122Y-115552432D01*
X174396628Y-115617012D01*
X174390512Y-115623581D01*
X174219952Y-115794142D01*
X174049498Y-115964596D01*
X173987186Y-115998621D01*
X173960403Y-116001500D01*
X173299455Y-116001500D01*
X173195574Y-116012112D01*
X173027261Y-116067885D01*
X172876347Y-116160970D01*
X172876341Y-116160975D01*
X172750975Y-116286341D01*
X172750970Y-116286347D01*
X172657885Y-116437262D01*
X172602113Y-116605572D01*
X172602112Y-116605579D01*
X172591500Y-116709446D01*
X172591500Y-116709454D01*
X172591500Y-116709455D01*
X172591500Y-117091765D01*
X172591501Y-117350500D01*
X172571499Y-117418621D01*
X172517843Y-117465114D01*
X172465501Y-117476500D01*
X172234499Y-117476500D01*
X172166378Y-117456498D01*
X172119885Y-117402842D01*
X172108499Y-117350500D01*
X172108499Y-116709455D01*
X172097887Y-116605574D01*
X172072600Y-116529261D01*
X172042115Y-116437262D01*
X171949030Y-116286348D01*
X171949029Y-116286347D01*
X171949024Y-116286341D01*
X171823658Y-116160975D01*
X171823652Y-116160970D01*
X171813386Y-116154638D01*
X171672738Y-116067885D01*
X171557079Y-116029560D01*
X171504427Y-116012113D01*
X171504420Y-116012112D01*
X171400553Y-116001500D01*
X170399455Y-116001500D01*
X170295574Y-116012112D01*
X170127261Y-116067885D01*
X169976347Y-116160970D01*
X169976341Y-116160975D01*
X169850975Y-116286341D01*
X169850970Y-116286347D01*
X169757885Y-116437262D01*
X169702113Y-116605572D01*
X169702112Y-116605579D01*
X169691500Y-116709446D01*
X169691500Y-117510544D01*
X168275766Y-117510544D01*
X168278219Y-117495057D01*
X168274059Y-117451045D01*
X168273500Y-117439188D01*
X168273500Y-114891849D01*
X168275249Y-114876012D01*
X168274955Y-114875985D01*
X168275701Y-114868092D01*
X168273562Y-114800031D01*
X168273500Y-114796073D01*
X168273500Y-114768151D01*
X168273500Y-114768144D01*
X168272991Y-114764123D01*
X168272061Y-114752296D01*
X168270673Y-114708110D01*
X168265022Y-114688663D01*
X168261012Y-114669300D01*
X168258474Y-114649203D01*
X168242195Y-114608090D01*
X168238353Y-114596869D01*
X168226018Y-114554407D01*
X168215705Y-114536969D01*
X168207010Y-114519222D01*
X168199552Y-114500383D01*
X168173568Y-114464620D01*
X168167051Y-114454699D01*
X168144541Y-114416635D01*
X168130218Y-114402312D01*
X168117377Y-114387279D01*
X168105471Y-114370892D01*
X168071405Y-114342710D01*
X168062626Y-114334721D01*
X166750244Y-113022339D01*
X166740279Y-113009901D01*
X166740052Y-113010090D01*
X166735001Y-113003984D01*
X166735000Y-113003982D01*
X166685348Y-112957356D01*
X166682505Y-112954600D01*
X166662777Y-112934871D01*
X166662771Y-112934866D01*
X166659567Y-112932380D01*
X166650556Y-112924683D01*
X166618325Y-112894417D01*
X166618319Y-112894413D01*
X166600563Y-112884651D01*
X166584047Y-112873802D01*
X166568041Y-112861386D01*
X166527464Y-112843827D01*
X166516807Y-112838605D01*
X166478063Y-112817306D01*
X166478060Y-112817305D01*
X166458436Y-112812266D01*
X166439736Y-112805864D01*
X166421145Y-112797819D01*
X166421143Y-112797818D01*
X166421141Y-112797818D01*
X166377474Y-112790901D01*
X166365855Y-112788495D01*
X166323030Y-112777500D01*
X166302776Y-112777500D01*
X166283066Y-112775949D01*
X166263057Y-112772780D01*
X166226106Y-112776273D01*
X166219039Y-112776941D01*
X166207181Y-112777500D01*
X164017595Y-112777500D01*
X163949474Y-112757498D01*
X163928500Y-112740595D01*
X162849405Y-111661500D01*
X162815379Y-111599188D01*
X162812500Y-111572405D01*
X162812500Y-109881182D01*
X164249500Y-109881182D01*
X164267334Y-109999500D01*
X164288604Y-110140619D01*
X164365933Y-110391314D01*
X164365938Y-110391327D01*
X164479773Y-110627706D01*
X164479777Y-110627713D01*
X164609155Y-110817474D01*
X164627567Y-110844479D01*
X164806019Y-111036805D01*
X165011143Y-111200386D01*
X165011146Y-111200388D01*
X165238352Y-111331566D01*
X165238356Y-111331567D01*
X165238357Y-111331568D01*
X165482584Y-111427420D01*
X165738370Y-111485802D01*
X165934506Y-111500500D01*
X165934507Y-111500500D01*
X166065493Y-111500500D01*
X166065494Y-111500500D01*
X166261630Y-111485802D01*
X166517416Y-111427420D01*
X166761643Y-111331568D01*
X166761645Y-111331566D01*
X166761647Y-111331566D01*
X166903789Y-111249500D01*
X166988857Y-111200386D01*
X167193981Y-111036805D01*
X167372433Y-110844479D01*
X167512743Y-110638683D01*
X167520222Y-110627713D01*
X167520222Y-110627711D01*
X167520228Y-110627704D01*
X167634063Y-110391323D01*
X167634066Y-110391314D01*
X167711395Y-110140619D01*
X167712290Y-110134682D01*
X167750500Y-109881182D01*
X167750500Y-109618818D01*
X167711396Y-109359385D01*
X167711395Y-109359383D01*
X167711395Y-109359380D01*
X167634066Y-109108685D01*
X167634061Y-109108672D01*
X167562091Y-108959226D01*
X167520228Y-108872296D01*
X167520226Y-108872293D01*
X167520222Y-108872286D01*
X167375524Y-108660055D01*
X167372433Y-108655521D01*
X167193981Y-108463195D01*
X166988857Y-108299614D01*
X166988852Y-108299611D01*
X166988853Y-108299611D01*
X166761647Y-108168433D01*
X166761639Y-108168430D01*
X166517419Y-108072581D01*
X166517417Y-108072580D01*
X166261633Y-108014198D01*
X166114528Y-108003174D01*
X166065494Y-107999500D01*
X165934506Y-107999500D01*
X165912034Y-108001184D01*
X165738366Y-108014198D01*
X165482582Y-108072580D01*
X165482580Y-108072581D01*
X165238360Y-108168430D01*
X165238352Y-108168433D01*
X165011146Y-108299611D01*
X164806018Y-108463195D01*
X164627566Y-108655522D01*
X164627562Y-108655527D01*
X164479777Y-108872286D01*
X164479773Y-108872293D01*
X164365938Y-109108672D01*
X164365933Y-109108685D01*
X164288604Y-109359380D01*
X164271015Y-109476079D01*
X164249500Y-109618818D01*
X164249500Y-109881182D01*
X162812500Y-109881182D01*
X162812500Y-106131182D01*
X165749500Y-106131182D01*
X165757526Y-106184427D01*
X165788604Y-106390619D01*
X165865933Y-106641314D01*
X165865938Y-106641327D01*
X165979773Y-106877706D01*
X165979777Y-106877713D01*
X166101879Y-107056802D01*
X166127567Y-107094479D01*
X166306019Y-107286805D01*
X166511143Y-107450386D01*
X166511146Y-107450388D01*
X166738352Y-107581566D01*
X166738356Y-107581567D01*
X166738357Y-107581568D01*
X166982584Y-107677420D01*
X167238370Y-107735802D01*
X167434506Y-107750500D01*
X167434507Y-107750500D01*
X167565493Y-107750500D01*
X167565494Y-107750500D01*
X167761630Y-107735802D01*
X168017416Y-107677420D01*
X168261643Y-107581568D01*
X168261645Y-107581566D01*
X168261647Y-107581566D01*
X168429366Y-107484733D01*
X168488857Y-107450386D01*
X168693981Y-107286805D01*
X168872433Y-107094479D01*
X169020228Y-106877704D01*
X169134063Y-106641323D01*
X169143852Y-106609589D01*
X169211395Y-106390619D01*
X169211396Y-106390615D01*
X169250500Y-106131182D01*
X169250500Y-105868818D01*
X169211396Y-105609385D01*
X169211395Y-105609383D01*
X169211395Y-105609380D01*
X169134066Y-105358685D01*
X169134061Y-105358672D01*
X169070630Y-105226957D01*
X169020228Y-105122296D01*
X169020226Y-105122293D01*
X169020222Y-105122286D01*
X168878919Y-104915034D01*
X168872433Y-104905521D01*
X168693981Y-104713195D01*
X168488857Y-104549614D01*
X168488852Y-104549611D01*
X168488853Y-104549611D01*
X168261647Y-104418433D01*
X168261639Y-104418430D01*
X168017419Y-104322581D01*
X168017417Y-104322580D01*
X167761633Y-104264198D01*
X167614528Y-104253174D01*
X167565494Y-104249500D01*
X167434506Y-104249500D01*
X167395278Y-104252439D01*
X167238366Y-104264198D01*
X166982582Y-104322580D01*
X166982580Y-104322581D01*
X166738360Y-104418430D01*
X166738352Y-104418433D01*
X166511146Y-104549611D01*
X166306018Y-104713195D01*
X166127566Y-104905522D01*
X166127562Y-104905527D01*
X165979777Y-105122286D01*
X165979773Y-105122293D01*
X165865938Y-105358672D01*
X165865933Y-105358685D01*
X165788604Y-105609380D01*
X165771811Y-105720795D01*
X165749500Y-105868818D01*
X165749500Y-106131182D01*
X162812500Y-106131182D01*
X162812500Y-105493854D01*
X162814249Y-105478012D01*
X162813956Y-105477985D01*
X162814700Y-105470099D01*
X162814702Y-105470092D01*
X162812562Y-105402000D01*
X162812500Y-105398042D01*
X162812500Y-105370150D01*
X162812500Y-105370144D01*
X162811993Y-105366135D01*
X162811062Y-105354306D01*
X162809674Y-105310111D01*
X162804020Y-105290652D01*
X162800012Y-105271297D01*
X162797474Y-105251203D01*
X162781195Y-105210087D01*
X162777356Y-105198872D01*
X162770587Y-105175574D01*
X162765019Y-105156407D01*
X162754703Y-105138964D01*
X162746005Y-105121209D01*
X162738552Y-105102383D01*
X162712563Y-105066612D01*
X162706052Y-105056700D01*
X162683542Y-105018638D01*
X162669214Y-105004310D01*
X162656384Y-104989289D01*
X162644472Y-104972893D01*
X162644469Y-104972891D01*
X162644469Y-104972890D01*
X162610394Y-104944700D01*
X162601616Y-104936712D01*
X161328344Y-103663439D01*
X161318379Y-103651001D01*
X161318152Y-103651190D01*
X161313101Y-103645084D01*
X161313100Y-103645082D01*
X161288135Y-103621638D01*
X161268246Y-103602961D01*
X161232280Y-103541748D01*
X161228499Y-103511111D01*
X161228499Y-103469455D01*
X161217887Y-103365574D01*
X161210391Y-103342951D01*
X161162115Y-103197262D01*
X161069030Y-103046348D01*
X161069029Y-103046347D01*
X161069024Y-103046341D01*
X160981778Y-102959095D01*
X160947752Y-102896783D01*
X160952817Y-102825968D01*
X160981778Y-102780905D01*
X161069024Y-102693658D01*
X161069030Y-102693652D01*
X161149400Y-102563351D01*
X161202185Y-102515875D01*
X161256640Y-102503500D01*
X170262406Y-102503500D01*
X170330527Y-102523502D01*
X170351501Y-102540405D01*
X172049595Y-104238499D01*
X172083621Y-104300811D01*
X172086500Y-104327594D01*
X172086500Y-107762404D01*
X172066498Y-107830525D01*
X172049595Y-107851499D01*
X170491336Y-109409757D01*
X170478901Y-109419721D01*
X170479089Y-109419948D01*
X170472979Y-109425002D01*
X170426370Y-109474635D01*
X170423620Y-109477473D01*
X170403863Y-109497231D01*
X170401374Y-109500439D01*
X170393688Y-109509436D01*
X170363418Y-109541673D01*
X170363411Y-109541683D01*
X170353651Y-109559435D01*
X170342803Y-109575950D01*
X170330386Y-109591958D01*
X170312824Y-109632540D01*
X170307604Y-109643195D01*
X170286305Y-109681939D01*
X170286303Y-109681944D01*
X170281267Y-109701559D01*
X170274864Y-109720262D01*
X170266819Y-109738852D01*
X170259901Y-109782525D01*
X170257495Y-109794142D01*
X170246500Y-109836968D01*
X170246500Y-109857223D01*
X170244949Y-109876933D01*
X170241780Y-109896942D01*
X170245941Y-109940961D01*
X170246500Y-109952819D01*
X170246500Y-110619223D01*
X170244949Y-110638933D01*
X170243770Y-110646380D01*
X170241780Y-110658943D01*
X170245941Y-110702961D01*
X170246500Y-110714819D01*
X170246500Y-113245542D01*
X170226498Y-113313663D01*
X170202146Y-113340522D01*
X170202149Y-113340525D01*
X170202091Y-113340582D01*
X170198653Y-113344375D01*
X170196961Y-113345712D01*
X170075720Y-113466953D01*
X170075715Y-113466959D01*
X169985698Y-113612899D01*
X169931763Y-113775666D01*
X169921500Y-113876119D01*
X169921500Y-114723880D01*
X169921499Y-114723880D01*
X169931763Y-114824333D01*
X169931764Y-114824336D01*
X169985698Y-114987101D01*
X170048846Y-115089479D01*
X170075715Y-115133040D01*
X170075720Y-115133046D01*
X170196953Y-115254279D01*
X170196959Y-115254284D01*
X170196960Y-115254285D01*
X170342899Y-115344302D01*
X170505664Y-115398236D01*
X170525756Y-115400288D01*
X170606120Y-115408500D01*
X170606128Y-115408500D01*
X171153880Y-115408500D01*
X171232988Y-115400417D01*
X171254336Y-115398236D01*
X171417101Y-115344302D01*
X171563040Y-115254285D01*
X171684285Y-115133040D01*
X171774302Y-114987101D01*
X171828236Y-114824336D01*
X171833265Y-114775114D01*
X171838500Y-114723880D01*
X171838500Y-113876119D01*
X171828236Y-113775666D01*
X171828236Y-113775664D01*
X171774302Y-113612899D01*
X171684285Y-113466960D01*
X171684284Y-113466959D01*
X171684279Y-113466953D01*
X171563038Y-113345712D01*
X171561347Y-113344375D01*
X171560488Y-113343162D01*
X171557851Y-113340525D01*
X171558301Y-113340074D01*
X171520320Y-113286433D01*
X171513500Y-113245542D01*
X171513500Y-111249500D01*
X171533502Y-111181379D01*
X171587158Y-111134886D01*
X171639500Y-111123500D01*
X171882314Y-111123500D01*
X171950435Y-111143502D01*
X171989553Y-111183351D01*
X172053324Y-111286739D01*
X172075715Y-111323040D01*
X172075720Y-111323046D01*
X172196953Y-111444279D01*
X172196959Y-111444284D01*
X172196960Y-111444285D01*
X172342899Y-111534302D01*
X172505664Y-111588236D01*
X172525756Y-111590288D01*
X172606120Y-111598500D01*
X172606128Y-111598500D01*
X173153880Y-111598500D01*
X173226936Y-111591035D01*
X173254336Y-111588236D01*
X173417101Y-111534302D01*
X173563040Y-111444285D01*
X173684285Y-111323040D01*
X173774302Y-111177101D01*
X173828236Y-111014336D01*
X173832817Y-110969499D01*
X173838500Y-110913880D01*
X175221499Y-110913880D01*
X175231763Y-111014333D01*
X175231764Y-111014336D01*
X175285698Y-111177101D01*
X175353324Y-111286739D01*
X175375715Y-111323040D01*
X175375720Y-111323046D01*
X175496953Y-111444279D01*
X175496959Y-111444284D01*
X175496960Y-111444285D01*
X175642899Y-111534302D01*
X175805664Y-111588236D01*
X175825756Y-111590288D01*
X175906120Y-111598500D01*
X175906128Y-111598500D01*
X176453880Y-111598500D01*
X176526936Y-111591035D01*
X176554336Y-111588236D01*
X176717101Y-111534302D01*
X176863040Y-111444285D01*
X176984285Y-111323040D01*
X177074302Y-111177101D01*
X177128236Y-111014336D01*
X177132817Y-110969499D01*
X177138500Y-110913880D01*
X177138500Y-110066119D01*
X177128236Y-109965666D01*
X177128236Y-109965664D01*
X177074302Y-109802899D01*
X177002235Y-109686061D01*
X176983498Y-109617584D01*
X177004757Y-109549845D01*
X177020376Y-109530826D01*
X178188659Y-108362544D01*
X178201098Y-108352580D01*
X178200910Y-108352353D01*
X178207016Y-108347301D01*
X178207015Y-108347301D01*
X178207018Y-108347300D01*
X178253662Y-108297627D01*
X178256352Y-108294851D01*
X178276135Y-108275070D01*
X178278614Y-108271873D01*
X178286311Y-108262859D01*
X178316586Y-108230621D01*
X178326346Y-108212865D01*
X178337195Y-108196350D01*
X178349614Y-108180341D01*
X178367179Y-108139746D01*
X178372384Y-108129121D01*
X178386310Y-108103791D01*
X178436659Y-108053736D01*
X178496721Y-108038500D01*
X178698632Y-108038500D01*
X178698638Y-108038500D01*
X178698645Y-108038499D01*
X178698649Y-108038499D01*
X178759196Y-108031990D01*
X178759199Y-108031989D01*
X178759201Y-108031989D01*
X178896204Y-107980889D01*
X179013261Y-107893261D01*
X179100889Y-107776204D01*
X179151989Y-107639201D01*
X179158500Y-107578638D01*
X179158500Y-105781362D01*
X179158499Y-105781350D01*
X179151990Y-105720803D01*
X179151988Y-105720795D01*
X179100889Y-105583797D01*
X179100887Y-105583792D01*
X179013261Y-105466738D01*
X178896207Y-105379112D01*
X178896204Y-105379111D01*
X178780686Y-105336024D01*
X178723851Y-105293477D01*
X178699041Y-105226957D01*
X178714133Y-105157583D01*
X178732019Y-105132632D01*
X178875323Y-104976961D01*
X178998419Y-104788548D01*
X179088820Y-104582456D01*
X179088823Y-104582449D01*
X179136544Y-104394000D01*
X178231116Y-104394000D01*
X178259493Y-104349844D01*
X178300000Y-104211889D01*
X178300000Y-104068111D01*
X178259493Y-103930156D01*
X178231116Y-103886000D01*
X179136544Y-103886000D01*
X179136544Y-103885999D01*
X179088823Y-103697550D01*
X179088820Y-103697543D01*
X178998419Y-103491451D01*
X178875325Y-103303041D01*
X178722902Y-103137465D01*
X178545301Y-102999232D01*
X178545300Y-102999231D01*
X178347371Y-102892117D01*
X178347369Y-102892116D01*
X178134512Y-102819043D01*
X178134501Y-102819040D01*
X178054000Y-102805606D01*
X178054000Y-103706325D01*
X177942315Y-103655320D01*
X177835763Y-103640000D01*
X177764237Y-103640000D01*
X177657685Y-103655320D01*
X177546000Y-103706325D01*
X177546000Y-102805607D01*
X177545999Y-102805606D01*
X177465498Y-102819040D01*
X177465487Y-102819043D01*
X177252630Y-102892116D01*
X177252628Y-102892117D01*
X177054699Y-102999231D01*
X177054698Y-102999232D01*
X176877097Y-103137465D01*
X176724674Y-103303041D01*
X176601580Y-103491451D01*
X176511179Y-103697543D01*
X176511176Y-103697550D01*
X176463455Y-103885999D01*
X176463456Y-103886000D01*
X177368884Y-103886000D01*
X177340507Y-103930156D01*
X177300000Y-104068111D01*
X177300000Y-104211889D01*
X177340507Y-104349844D01*
X177368884Y-104394000D01*
X176463455Y-104394000D01*
X176511176Y-104582449D01*
X176511179Y-104582456D01*
X176601580Y-104788548D01*
X176724674Y-104976958D01*
X176867981Y-105132632D01*
X176899401Y-105196297D01*
X176891414Y-105266843D01*
X176846555Y-105321872D01*
X176819313Y-105336024D01*
X176703795Y-105379111D01*
X176703792Y-105379112D01*
X176586738Y-105466738D01*
X176499112Y-105583792D01*
X176499110Y-105583797D01*
X176448011Y-105720795D01*
X176448009Y-105720803D01*
X176441500Y-105781350D01*
X176441500Y-107578649D01*
X176448009Y-107639196D01*
X176448011Y-107639204D01*
X176499110Y-107776202D01*
X176499112Y-107776207D01*
X176586738Y-107893261D01*
X176630113Y-107925731D01*
X176672660Y-107982567D01*
X176677724Y-108053383D01*
X176643699Y-108115694D01*
X175791336Y-108968057D01*
X175778901Y-108978021D01*
X175779089Y-108978248D01*
X175772979Y-108983302D01*
X175726370Y-109032935D01*
X175723620Y-109035773D01*
X175703863Y-109055531D01*
X175701374Y-109058739D01*
X175693688Y-109067736D01*
X175663418Y-109099973D01*
X175663411Y-109099983D01*
X175653651Y-109117735D01*
X175642803Y-109134250D01*
X175630386Y-109150258D01*
X175612824Y-109190840D01*
X175607604Y-109201495D01*
X175586306Y-109240238D01*
X175586303Y-109240244D01*
X175581267Y-109259859D01*
X175574864Y-109278562D01*
X175566819Y-109297152D01*
X175559901Y-109340825D01*
X175557495Y-109352442D01*
X175546500Y-109395268D01*
X175546500Y-109415523D01*
X175544948Y-109435236D01*
X175541323Y-109458121D01*
X175510910Y-109522273D01*
X175502041Y-109530632D01*
X175375720Y-109656953D01*
X175375715Y-109656959D01*
X175285698Y-109802899D01*
X175231763Y-109965666D01*
X175221500Y-110066119D01*
X175221500Y-110913880D01*
X175221499Y-110913880D01*
X173838500Y-110913880D01*
X173838500Y-110066119D01*
X173828236Y-109965666D01*
X173828236Y-109965664D01*
X173774302Y-109802899D01*
X173684285Y-109656960D01*
X173684284Y-109656959D01*
X173684279Y-109656953D01*
X173563046Y-109535720D01*
X173563040Y-109535715D01*
X173536640Y-109519431D01*
X173417101Y-109445698D01*
X173254336Y-109391764D01*
X173254333Y-109391763D01*
X173153880Y-109381500D01*
X173153872Y-109381500D01*
X172615594Y-109381500D01*
X172547473Y-109361498D01*
X172500980Y-109307842D01*
X172490876Y-109237568D01*
X172520370Y-109172988D01*
X172526484Y-109166419D01*
X173108664Y-108584239D01*
X173121098Y-108574280D01*
X173120910Y-108574053D01*
X173127016Y-108569001D01*
X173127015Y-108569001D01*
X173127018Y-108569000D01*
X173173662Y-108519327D01*
X173176352Y-108516551D01*
X173196135Y-108496770D01*
X173198614Y-108493573D01*
X173206311Y-108484559D01*
X173236586Y-108452321D01*
X173246346Y-108434565D01*
X173257195Y-108418050D01*
X173269614Y-108402041D01*
X173287179Y-108361446D01*
X173292384Y-108350821D01*
X173313695Y-108312060D01*
X173318733Y-108292434D01*
X173325137Y-108273732D01*
X173325935Y-108271888D01*
X173333181Y-108255145D01*
X173340096Y-108211481D01*
X173342504Y-108199852D01*
X173346465Y-108184426D01*
X173353500Y-108157030D01*
X173353500Y-108136775D01*
X173355051Y-108117063D01*
X173355268Y-108115694D01*
X173358220Y-108097057D01*
X173354059Y-108053036D01*
X173353500Y-108041179D01*
X173353500Y-104096854D01*
X173355249Y-104081012D01*
X173354956Y-104080985D01*
X173355700Y-104073099D01*
X173355702Y-104073092D01*
X173353562Y-104005000D01*
X173353500Y-104001042D01*
X173353500Y-103973150D01*
X173353500Y-103973144D01*
X173352993Y-103969135D01*
X173352062Y-103957306D01*
X173351209Y-103930156D01*
X173350674Y-103913111D01*
X173345020Y-103893652D01*
X173341012Y-103874297D01*
X173338474Y-103854203D01*
X173322195Y-103813087D01*
X173318356Y-103801872D01*
X173306019Y-103759407D01*
X173295703Y-103741964D01*
X173287005Y-103724209D01*
X173279552Y-103705383D01*
X173253563Y-103669612D01*
X173247052Y-103659700D01*
X173224542Y-103621638D01*
X173210214Y-103607310D01*
X173197384Y-103592289D01*
X173185472Y-103575893D01*
X173185469Y-103575891D01*
X173185469Y-103575890D01*
X173151394Y-103547700D01*
X173142616Y-103539712D01*
X171084245Y-101481340D01*
X171074283Y-101468904D01*
X171074056Y-101469093D01*
X171069002Y-101462984D01*
X171019364Y-101416372D01*
X171016519Y-101413614D01*
X170996781Y-101393875D01*
X170996773Y-101393868D01*
X170996770Y-101393865D01*
X170993566Y-101391380D01*
X170984554Y-101383681D01*
X170952325Y-101353417D01*
X170952319Y-101353413D01*
X170934563Y-101343651D01*
X170918047Y-101332802D01*
X170902041Y-101320386D01*
X170861464Y-101302827D01*
X170850807Y-101297605D01*
X170812063Y-101276306D01*
X170812060Y-101276305D01*
X170792436Y-101271266D01*
X170773736Y-101264864D01*
X170755145Y-101256819D01*
X170755143Y-101256818D01*
X170755141Y-101256818D01*
X170711474Y-101249901D01*
X170699855Y-101247495D01*
X170657030Y-101236500D01*
X170636776Y-101236500D01*
X170617066Y-101234949D01*
X170597057Y-101231780D01*
X170553039Y-101235941D01*
X170541181Y-101236500D01*
X161256640Y-101236500D01*
X161188519Y-101216498D01*
X161149399Y-101176647D01*
X161069029Y-101046347D01*
X161069024Y-101046341D01*
X160943658Y-100920975D01*
X160943652Y-100920970D01*
X160792738Y-100827885D01*
X160708582Y-100799999D01*
X160624427Y-100772113D01*
X160624420Y-100772112D01*
X160520553Y-100761500D01*
X159519455Y-100761500D01*
X159415574Y-100772112D01*
X159247261Y-100827885D01*
X159096347Y-100920970D01*
X159096341Y-100920975D01*
X158970975Y-101046341D01*
X158970970Y-101046347D01*
X158890601Y-101176647D01*
X158837815Y-101224125D01*
X158783360Y-101236500D01*
X150826640Y-101236500D01*
X150758519Y-101216498D01*
X150719399Y-101176647D01*
X150639029Y-101046347D01*
X150639024Y-101046341D01*
X150513658Y-100920975D01*
X150513652Y-100920970D01*
X150362738Y-100827885D01*
X150278582Y-100799999D01*
X150194427Y-100772113D01*
X150194420Y-100772112D01*
X150090553Y-100761500D01*
X149089455Y-100761500D01*
X148985574Y-100772112D01*
X148817261Y-100827885D01*
X148666347Y-100920970D01*
X148666341Y-100920975D01*
X148540975Y-101046341D01*
X148540970Y-101046347D01*
X148460601Y-101176647D01*
X148407815Y-101224125D01*
X148353360Y-101236500D01*
X140936640Y-101236500D01*
X140868519Y-101216498D01*
X140829399Y-101176647D01*
X140749029Y-101046347D01*
X140749024Y-101046341D01*
X140623658Y-100920975D01*
X140623652Y-100920970D01*
X140472738Y-100827885D01*
X140388582Y-100799999D01*
X140304427Y-100772113D01*
X140304420Y-100772112D01*
X140200553Y-100761500D01*
X139199455Y-100761500D01*
X139095574Y-100772112D01*
X138927261Y-100827885D01*
X138776347Y-100920970D01*
X138776341Y-100920975D01*
X138650975Y-101046341D01*
X138650970Y-101046347D01*
X138557885Y-101197262D01*
X138502113Y-101365572D01*
X138502112Y-101365579D01*
X138491500Y-101469446D01*
X138491500Y-102270544D01*
X138502112Y-102374425D01*
X138557885Y-102542738D01*
X138650970Y-102693652D01*
X138650975Y-102693658D01*
X138738222Y-102780905D01*
X138772248Y-102843217D01*
X138767183Y-102914032D01*
X138738222Y-102959095D01*
X138650975Y-103046341D01*
X138650970Y-103046347D01*
X138570601Y-103176647D01*
X138517815Y-103224125D01*
X138463360Y-103236500D01*
X124178853Y-103236500D01*
X124163011Y-103234750D01*
X124162984Y-103235044D01*
X124155092Y-103234298D01*
X124155091Y-103234298D01*
X124131360Y-103235044D01*
X124087014Y-103236438D01*
X124083055Y-103236500D01*
X124055144Y-103236500D01*
X124055141Y-103236500D01*
X124055126Y-103236501D01*
X124051121Y-103237007D01*
X124039304Y-103237937D01*
X123995113Y-103239326D01*
X123995111Y-103239327D01*
X123975656Y-103244978D01*
X123956303Y-103248986D01*
X123936211Y-103251524D01*
X123936205Y-103251525D01*
X123936203Y-103251526D01*
X123905504Y-103263680D01*
X123895098Y-103267800D01*
X123883874Y-103271643D01*
X123841407Y-103283982D01*
X123823964Y-103294297D01*
X123806218Y-103302990D01*
X123787382Y-103310448D01*
X123751610Y-103336437D01*
X123741694Y-103342951D01*
X123703637Y-103365458D01*
X123689311Y-103379784D01*
X123674285Y-103392617D01*
X123657895Y-103404525D01*
X123657893Y-103404527D01*
X123629700Y-103438605D01*
X123621713Y-103447381D01*
X117848336Y-109220757D01*
X117835901Y-109230721D01*
X117836089Y-109230948D01*
X117829979Y-109236002D01*
X117783370Y-109285635D01*
X117780620Y-109288473D01*
X117760863Y-109308231D01*
X117758374Y-109311439D01*
X117750688Y-109320436D01*
X117720418Y-109352673D01*
X117720411Y-109352683D01*
X117710651Y-109370435D01*
X117699803Y-109386950D01*
X117687386Y-109402958D01*
X117669824Y-109443540D01*
X117664604Y-109454195D01*
X117643305Y-109492939D01*
X117643303Y-109492944D01*
X117638267Y-109512559D01*
X117631864Y-109531262D01*
X117623819Y-109549852D01*
X117616901Y-109593525D01*
X117614495Y-109605142D01*
X117603500Y-109647968D01*
X117603500Y-109668223D01*
X117601949Y-109687933D01*
X117598780Y-109707943D01*
X117601702Y-109738852D01*
X117602941Y-109751961D01*
X117603500Y-109763819D01*
X117603500Y-116756146D01*
X117601751Y-116771988D01*
X117602044Y-116772016D01*
X117601298Y-116779907D01*
X117601298Y-116779909D01*
X117602686Y-116824073D01*
X117603438Y-116847984D01*
X117603500Y-116851943D01*
X117603500Y-116879851D01*
X117603501Y-116879869D01*
X117604007Y-116883877D01*
X117604937Y-116895696D01*
X117606326Y-116939888D01*
X117606327Y-116939893D01*
X117611977Y-116959339D01*
X117615986Y-116978697D01*
X117618525Y-116998793D01*
X117618526Y-116998800D01*
X117634800Y-117039903D01*
X117638644Y-117051129D01*
X117650982Y-117093593D01*
X117661294Y-117111031D01*
X117669988Y-117128779D01*
X117677444Y-117147609D01*
X117677450Y-117147620D01*
X117703432Y-117183381D01*
X117709949Y-117193301D01*
X117732458Y-117231362D01*
X117732459Y-117231363D01*
X117732461Y-117231366D01*
X117746779Y-117245684D01*
X117759617Y-117260714D01*
X117771526Y-117277104D01*
X117771530Y-117277109D01*
X117805598Y-117305292D01*
X117814378Y-117313282D01*
X119761755Y-119260660D01*
X119771720Y-119273097D01*
X119771947Y-119272910D01*
X119776999Y-119279017D01*
X119826650Y-119325642D01*
X119829494Y-119328399D01*
X119849223Y-119348129D01*
X119849224Y-119348130D01*
X119849228Y-119348133D01*
X119849230Y-119348135D01*
X119852435Y-119350621D01*
X119861442Y-119358314D01*
X119893679Y-119388586D01*
X119911428Y-119398343D01*
X119927953Y-119409198D01*
X119943959Y-119421614D01*
X119984542Y-119439175D01*
X119995193Y-119444393D01*
X120033940Y-119465695D01*
X120033948Y-119465697D01*
X120053558Y-119470732D01*
X120072267Y-119477137D01*
X120090855Y-119485181D01*
X120134530Y-119492098D01*
X120146141Y-119494502D01*
X120188970Y-119505500D01*
X120209224Y-119505500D01*
X120228934Y-119507051D01*
X120231141Y-119507400D01*
X120248943Y-119510220D01*
X120292961Y-119506058D01*
X120304819Y-119505500D01*
X125891405Y-119505500D01*
X125959526Y-119525502D01*
X126006019Y-119579158D01*
X126016123Y-119649432D01*
X125986629Y-119714012D01*
X125980500Y-119720595D01*
X109611336Y-136089757D01*
X109598901Y-136099721D01*
X109599089Y-136099948D01*
X109592979Y-136105002D01*
X109546370Y-136154635D01*
X109543620Y-136157473D01*
X109523863Y-136177231D01*
X109521374Y-136180439D01*
X109513688Y-136189436D01*
X109483418Y-136221673D01*
X109483411Y-136221683D01*
X109473651Y-136239435D01*
X109462803Y-136255950D01*
X109450386Y-136271958D01*
X109432824Y-136312540D01*
X109427604Y-136323195D01*
X109406305Y-136361939D01*
X109406303Y-136361944D01*
X109401267Y-136381559D01*
X109394864Y-136400262D01*
X109386819Y-136418852D01*
X109379901Y-136462525D01*
X109377495Y-136474142D01*
X109366500Y-136516968D01*
X109366500Y-136537223D01*
X109364949Y-136556933D01*
X109361780Y-136576942D01*
X109365941Y-136620961D01*
X109366500Y-136632819D01*
X109366500Y-140320761D01*
X109346498Y-140388882D01*
X109292842Y-140435375D01*
X109280133Y-140440365D01*
X109227265Y-140457883D01*
X109076347Y-140550970D01*
X109076341Y-140550975D01*
X108950975Y-140676341D01*
X108950970Y-140676347D01*
X108857885Y-140827262D01*
X108802113Y-140995572D01*
X108802112Y-140995579D01*
X108791500Y-141099446D01*
X108791500Y-141900544D01*
X108802112Y-142004425D01*
X108857885Y-142172738D01*
X108950970Y-142323652D01*
X108950975Y-142323658D01*
X109038222Y-142410905D01*
X109072248Y-142473217D01*
X109067183Y-142544032D01*
X109038222Y-142589095D01*
X108950975Y-142676341D01*
X108950970Y-142676347D01*
X108857885Y-142827262D01*
X108802113Y-142995572D01*
X108802112Y-142995579D01*
X108791500Y-143099446D01*
X108791500Y-143900544D01*
X108802112Y-144004425D01*
X108857885Y-144172738D01*
X108950970Y-144323652D01*
X108950975Y-144323658D01*
X109076341Y-144449024D01*
X109076347Y-144449029D01*
X109076348Y-144449030D01*
X109227262Y-144542115D01*
X109227263Y-144542115D01*
X109228307Y-144542759D01*
X109275785Y-144595545D01*
X109287188Y-144665620D01*
X109258896Y-144730736D01*
X109228307Y-144757241D01*
X109227263Y-144757884D01*
X109227262Y-144757885D01*
X109155683Y-144802035D01*
X109076347Y-144850970D01*
X109076341Y-144850975D01*
X108950975Y-144976341D01*
X108950970Y-144976347D01*
X108857885Y-145127262D01*
X108802113Y-145295572D01*
X108802112Y-145295579D01*
X108791500Y-145399446D01*
X108791500Y-146150544D01*
X108802112Y-146254425D01*
X108857885Y-146422738D01*
X108950970Y-146573652D01*
X108950975Y-146573658D01*
X109076344Y-146699027D01*
X109079049Y-146701166D01*
X109080421Y-146703104D01*
X109081537Y-146704220D01*
X109081346Y-146704410D01*
X109120076Y-146759108D01*
X109123264Y-146830033D01*
X109087602Y-146891423D01*
X109079049Y-146898834D01*
X109076344Y-146900972D01*
X108950975Y-147026341D01*
X108950970Y-147026347D01*
X108857885Y-147177262D01*
X108802113Y-147345572D01*
X108802112Y-147345579D01*
X108791500Y-147449446D01*
X108791500Y-148200544D01*
X102005822Y-148200544D01*
X101505403Y-148108839D01*
X101505396Y-148108838D01*
X100905456Y-148035991D01*
X100302184Y-147999500D01*
X100302183Y-147999500D01*
X100126500Y-147999500D01*
X100058379Y-147979498D01*
X100011886Y-147925842D01*
X100000500Y-147873500D01*
X100000500Y-129131182D01*
X103249500Y-129131182D01*
X103264754Y-129232383D01*
X103288604Y-129390619D01*
X103365933Y-129641314D01*
X103365938Y-129641327D01*
X103479773Y-129877706D01*
X103479777Y-129877713D01*
X103627562Y-130094472D01*
X103627567Y-130094479D01*
X103806019Y-130286805D01*
X104011143Y-130450386D01*
X104011146Y-130450388D01*
X104238352Y-130581566D01*
X104238356Y-130581567D01*
X104238357Y-130581568D01*
X104482584Y-130677420D01*
X104738370Y-130735802D01*
X104934506Y-130750500D01*
X104934507Y-130750500D01*
X105065493Y-130750500D01*
X105065494Y-130750500D01*
X105261630Y-130735802D01*
X105517416Y-130677420D01*
X105761643Y-130581568D01*
X105761645Y-130581566D01*
X105761647Y-130581566D01*
X105875250Y-130515977D01*
X105988857Y-130450386D01*
X106193981Y-130286805D01*
X106372433Y-130094479D01*
X106520228Y-129877704D01*
X106634063Y-129641323D01*
X106639453Y-129623849D01*
X106711395Y-129390619D01*
X106711396Y-129390615D01*
X106750500Y-129131182D01*
X106750500Y-128868818D01*
X106711396Y-128609385D01*
X106711395Y-128609383D01*
X106711395Y-128609380D01*
X106634066Y-128358685D01*
X106634061Y-128358672D01*
X106585854Y-128258570D01*
X106520228Y-128122296D01*
X106520226Y-128122293D01*
X106520222Y-128122286D01*
X106372437Y-127905527D01*
X106372433Y-127905521D01*
X106193981Y-127713195D01*
X105988857Y-127549614D01*
X105988852Y-127549611D01*
X105988853Y-127549611D01*
X105761647Y-127418433D01*
X105761639Y-127418430D01*
X105517419Y-127322581D01*
X105517417Y-127322580D01*
X105261633Y-127264198D01*
X105114528Y-127253174D01*
X105065494Y-127249500D01*
X104934506Y-127249500D01*
X104895278Y-127252439D01*
X104738366Y-127264198D01*
X104482582Y-127322580D01*
X104482580Y-127322581D01*
X104238360Y-127418430D01*
X104238352Y-127418433D01*
X104011146Y-127549611D01*
X103806018Y-127713195D01*
X103627566Y-127905522D01*
X103627562Y-127905527D01*
X103479777Y-128122286D01*
X103479773Y-128122293D01*
X103365938Y-128358672D01*
X103365933Y-128358685D01*
X103288604Y-128609380D01*
X103270268Y-128731031D01*
X103249500Y-128868818D01*
X103249500Y-129131182D01*
X100000500Y-129131182D01*
X100000500Y-114631182D01*
X103749500Y-114631182D01*
X103764187Y-114728621D01*
X103788604Y-114890619D01*
X103865933Y-115141314D01*
X103865938Y-115141327D01*
X103979773Y-115377706D01*
X103979777Y-115377713D01*
X104127562Y-115594472D01*
X104127567Y-115594479D01*
X104306019Y-115786805D01*
X104511143Y-115950386D01*
X104511146Y-115950388D01*
X104738352Y-116081566D01*
X104738356Y-116081567D01*
X104738357Y-116081568D01*
X104982584Y-116177420D01*
X105238370Y-116235802D01*
X105434506Y-116250500D01*
X105434507Y-116250500D01*
X105565493Y-116250500D01*
X105565494Y-116250500D01*
X105761630Y-116235802D01*
X106017416Y-116177420D01*
X106261643Y-116081568D01*
X106261645Y-116081566D01*
X106261647Y-116081566D01*
X106402575Y-116000201D01*
X106488857Y-115950386D01*
X106693981Y-115786805D01*
X106872433Y-115594479D01*
X107005802Y-115398863D01*
X107020222Y-115377713D01*
X107020222Y-115377711D01*
X107020228Y-115377704D01*
X107134063Y-115141323D01*
X107137785Y-115129257D01*
X107211395Y-114890619D01*
X107212972Y-114880158D01*
X107250500Y-114631182D01*
X107250500Y-114368818D01*
X107211396Y-114109385D01*
X107211395Y-114109383D01*
X107211395Y-114109380D01*
X107134066Y-113858685D01*
X107134061Y-113858672D01*
X107093057Y-113773528D01*
X107020228Y-113622296D01*
X107020224Y-113622290D01*
X107020222Y-113622286D01*
X106872437Y-113405527D01*
X106872433Y-113405521D01*
X106693981Y-113213195D01*
X106488857Y-113049614D01*
X106488852Y-113049611D01*
X106488853Y-113049611D01*
X106261647Y-112918433D01*
X106261639Y-112918430D01*
X106017419Y-112822581D01*
X106017417Y-112822580D01*
X105761633Y-112764198D01*
X105614528Y-112753174D01*
X105565494Y-112749500D01*
X105434506Y-112749500D01*
X105395278Y-112752439D01*
X105238366Y-112764198D01*
X104982582Y-112822580D01*
X104982580Y-112822581D01*
X104738360Y-112918430D01*
X104738352Y-112918433D01*
X104511146Y-113049611D01*
X104306018Y-113213195D01*
X104127566Y-113405522D01*
X104127562Y-113405527D01*
X103979777Y-113622286D01*
X103979775Y-113622291D01*
X103979772Y-113622296D01*
X103946152Y-113692109D01*
X103865938Y-113858672D01*
X103865933Y-113858685D01*
X103788604Y-114109380D01*
X103773970Y-114206472D01*
X103749500Y-114368818D01*
X103749500Y-114631182D01*
X100000500Y-114631182D01*
X100000500Y-110126500D01*
X100020502Y-110058379D01*
X100074158Y-110011886D01*
X100126500Y-110000500D01*
X100302184Y-110000500D01*
X100365473Y-109996671D01*
X100905447Y-109964009D01*
X100905455Y-109964008D01*
X100905457Y-109964008D01*
X101139188Y-109935627D01*
X101505407Y-109891160D01*
X102099874Y-109782220D01*
X102686679Y-109637586D01*
X103263680Y-109457785D01*
X103828772Y-109243474D01*
X104379894Y-108995434D01*
X104915034Y-108714571D01*
X105432239Y-108401909D01*
X105929623Y-108058590D01*
X106405370Y-107685866D01*
X106857745Y-107285097D01*
X107285097Y-106857745D01*
X107685866Y-106405370D01*
X108058590Y-105929623D01*
X108401909Y-105432239D01*
X108714571Y-104915034D01*
X108995434Y-104379894D01*
X109243474Y-103828772D01*
X109457785Y-103263680D01*
X109637586Y-102686679D01*
X109782220Y-102099874D01*
X109891160Y-101505407D01*
X109946900Y-101046348D01*
X109964008Y-100905457D01*
X109964008Y-100905455D01*
X109964007Y-100905455D01*
X109964009Y-100905447D01*
X110000500Y-100302183D01*
X110000500Y-100126500D01*
X110020502Y-100058379D01*
X110074158Y-100011886D01*
X110126500Y-100000500D01*
X179873500Y-100000500D01*
X179941621Y-100020502D01*
G37*
G04 #@! TD.AperFunction*
D36*
X180000000Y-100000000D02*
G75*
G03*
X190000000Y-110000000I10000000J0D01*
G01*
X110000000Y-100000000D02*
X180000000Y-100000000D01*
X190000000Y-148000000D02*
G75*
G03*
X180000000Y-158000000I0J-10000000D01*
G01*
X110000000Y-158000000D02*
X180000000Y-158000000D01*
X100000000Y-110000000D02*
X100000000Y-148000000D01*
X100000000Y-110000000D02*
G75*
G03*
X110000000Y-100000000I0J10000000D01*
G01*
X190000000Y-110000000D02*
X190000000Y-148000000D01*
X110000000Y-158000000D02*
G75*
G03*
X100000000Y-148000000I-10000000J0D01*
G01*
M02*
