<?xml version="1.0" standalone="no"?>
 <!DOCTYPE svg PUBLIC "-//W3C//DTD SVG 1.1//EN" 
 "http://www.w3.org/Graphics/SVG/1.1/DTD/svg11.dtd"> 
<svg
  xmlns:svg="http://www.w3.org/2000/svg"
  xmlns="http://www.w3.org/2000/svg"
  xmlns:xlink="http://www.w3.org/1999/xlink"
  version="1.1"
  width="29.700220cm" height="21.000720cm" viewBox="0 0 297002200 210007200">
<title>SVG Picture created as lir-multi-charger-B_Silkscreen.svg date 2023/10/02 20:56:18 </title>
  <desc>Picture generated by PCBNEW </desc>
<g style="fill:#000000; fill-opacity:1.000000;stroke:#000000; stroke-opacity:1.000000;
stroke-linecap:round; stroke-linejoin:round;"
 transform="translate(0 0) scale(1 1)">
</g>
<g style="fill:#000000; fill-opacity:0.0; 
stroke:#000000; stroke-width:0.000000; stroke-opacity:1; 
stroke-linecap:round; stroke-linejoin:round;">
</g>
<g style="fill:#000000; fill-opacity:0.0; 
stroke:#000000; stroke-width:50000.000000; stroke-opacity:1; 
stroke-linecap:round; stroke-linejoin:round;">
<path d="M180000000.000000 100000000.000000 A10000000.000000 10000000.000000 0.0 0 0 190000000.000000 110000000.000000" />
<path d="M110000000 100000000
L180000000 100000000
" />
<path d="M190000000.000000 148000000.000000 A10000000.000000 10000000.000000 0.0 0 0 180000000.000000 158000000.000000" />
<path d="M110000000 158000000
L180000000 158000000
" />
<path d="M100000000 110000000
L100000000 148000000
" />
<path d="M100000000.000000 110000000.000000 A10000000.000000 10000000.000000 0.0 0 0 110000000.000000 100000000.000000" />
<path d="M190000000 110000000
L190000000 148000000
" />
<path d="M110000000.000000 158000000.000000 A10000000.000000 10000000.000000 0.0 0 0 100000000.000000 148000000.000000" />
</g>
<g style="fill:#000000; fill-opacity:0.0; 
stroke:#000000; stroke-width:150000.000000; stroke-opacity:1; 
stroke-linecap:round; stroke-linejoin:round;">
<g transform="rotate(-90.000000 106387900.000000 140830300.000000)">
<text x="106387900.000000" y="141230300.000000"
transform="scale(-1 1) translate(-212775800.000000 0)"
textLength="11690714.000000" font-size="1066666.000000" lengthAdjust="spacingAndGlyphs"
text-anchor="middle" opacity="0">LIR MULTI CHARGER</text>
</g>
<g class="stroked-text"><desc>LIR MULTI CHARGER</desc>
<path d="M106749804 135458871
L106749804 135077919
L105949804 135077919
" />
<path d="M106749804 135725538
L105949804 135725538
" />
<path d="M106749804 136563633
L106368852 136296966
" />
<path d="M106749804 136106490
L105949804 136106490
L105949804 136411252
L105987900 136487442
L106025995 136525538
L106102185 136563633
L106216471 136563633
L106292661 136525538
L106330757 136487442
L106368852 136411252
L106368852 136106490
" />
<path d="M106749804 137516014
L105949804 137516014
L106521233 137782680
L105949804 138049347
L106749804 138049347
" />
<path d="M105949804 138430300
L106597423 138430300
L106673614 138468395
L106711709 138506490
L106749804 138582680
L106749804 138735061
L106711709 138811252
L106673614 138849347
L106597423 138887442
L105949804 138887442
" />
<path d="M106749804 139649347
L106749804 139268395
L105949804 139268395
" />
<path d="M105949804 139801728
L105949804 140258871
" />
<path d="M106749804 140030300
L105949804 140030300
" />
<path d="M106749804 140525538
L105949804 140525538
" />
<path d="M106673614 141973157
L106711709 141935061
L106749804 141820776
L106749804 141744585
L106711709 141630300
L106635519 141554109
L106559328 141516014
L106406947 141477919
L106292661 141477919
L106140280 141516014
L106064090 141554109
L105987900 141630300
L105949804 141744585
L105949804 141820776
L105987900 141935061
L106025995 141973157
" />
<path d="M106749804 142316014
L105949804 142316014
" />
<path d="M106330757 142316014
L106330757 142773157
" />
<path d="M106749804 142773157
L105949804 142773157
" />
<path d="M106521233 143116014
L106521233 143496966
" />
<path d="M106749804 143039823
L105949804 143306490
L106749804 143573157
" />
<path d="M106749804 144296966
L106368852 144030300
" />
<path d="M106749804 143839823
L105949804 143839823
L105949804 144144585
L105987900 144220776
L106025995 144258871
L106102185 144296966
L106216471 144296966
L106292661 144258871
L106330757 144220776
L106368852 144144585
L106368852 143839823
" />
<path d="M105987900 145058871
L105949804 144982680
L105949804 144868395
L105987900 144754109
L106064090 144677919
L106140280 144639823
L106292661 144601728
L106406947 144601728
L106559328 144639823
L106635519 144677919
L106711709 144754109
L106749804 144868395
L106749804 144944585
L106711709 145058871
L106673614 145096966
L106406947 145096966
L106406947 144944585
" />
<path d="M106330757 145439823
L106330757 145706490
" />
<path d="M106749804 145820776
L106749804 145439823
L105949804 145439823
L105949804 145820776
" />
<path d="M106749804 146620776
L106368852 146354109
" />
<path d="M106749804 146163633
L105949804 146163633
L105949804 146468395
L105987900 146544585
L106025995 146582680
L106102185 146620776
L106216471 146620776
L106292661 146582680
L106330757 146544585
L106368852 146468395
L106368852 146163633
" />
</g><g >
</g>
<g >
</g>
<g >
</g>
<g >
</g>
<g >
</g>
<g >
</g>
<g >
</g>
<g >
</g>
<g >
</g>
<g >
</g>
<g >
</g>
<g >
</g>
<g >
</g>
<g >
</g>
<g >
</g>
<g >
</g>
<g >
</g>
<g >
</g>
</g> 
</svg>
