M48
; DRILL file {KiCad 6.0.11-2627ca5db0~126~ubuntu20.04.1} date mar 13 ago 2024 23:32:22
; FORMAT={-:-/ absolute / metric / decimal}
; #@! TF.CreationDate,2024-08-13T23:32:22-05:00
; #@! TF.GenerationSoftware,Kicad,Pcbnew,6.0.11-2627ca5db0~126~ubuntu20.04.1
; #@! TF.FileFunction,Plated,1,2,PTH
FMAT,2
METRIC
; #@! TA.AperFunction,Plated,PTH,ViaDrill
T1C0.400
; #@! TA.AperFunction,Plated,PTH,ComponentDrill
T2C0.600
; #@! TA.AperFunction,Plated,PTH,ComponentDrill
T3C0.800
; #@! TA.AperFunction,Plated,PTH,ComponentDrill
T4C1.000
%
G90
G05
T1
X128.964Y-114.516
X133.235Y-150.396
X142.082Y-120.834
T3
X186.69Y-139.7
X186.69Y-143.51
T4
X133.604Y-107.437
X133.604Y-109.977
X156.464Y-112.5
X156.464Y-115.04
X177.292Y-121.92
X177.292Y-124.46
X177.8Y-104.14
X177.8Y-106.68
X177.8Y-115.316
X177.8Y-117.856
T2
G00X181.74Y-112.52
M15
G01X182.84Y-112.52
M16
G05
G00X181.74Y-121.16
M15
G01X182.84Y-121.16
M16
G05
G00X186.17Y-112.52
M15
G01X186.77Y-112.52
M16
G05
G00X186.17Y-121.16
M15
G01X186.77Y-121.16
M16
G05
T0
M30
