G04 #@! TF.GenerationSoftware,KiCad,Pcbnew,7.0.11+dfsg-1build4*
G04 #@! TF.CreationDate,2025-09-21T21:37:11-05:00*
G04 #@! TF.ProjectId,lir-multi-charger,6c69722d-6d75-46c7-9469-2d6368617267,rev?*
G04 #@! TF.SameCoordinates,Original*
G04 #@! TF.FileFunction,Copper,L2,Bot*
G04 #@! TF.FilePolarity,Positive*
%FSLAX46Y46*%
G04 Gerber Fmt 4.6, Leading zero omitted, Abs format (unit mm)*
G04 Created by KiCad (PCBNEW 7.0.11+dfsg-1build4) date 2025-09-21 21:37:11*
%MOMM*%
%LPD*%
G01*
G04 APERTURE LIST*
G04 #@! TA.AperFunction,EtchedComponent*
%ADD10C,0.010000*%
G04 #@! TD*
G04 #@! TA.AperFunction,ComponentPad*
%ADD11R,2.400000X2.400000*%
G04 #@! TD*
G04 #@! TA.AperFunction,ComponentPad*
%ADD12C,2.400000*%
G04 #@! TD*
G04 #@! TA.AperFunction,ComponentPad*
%ADD13R,1.700000X1.700000*%
G04 #@! TD*
G04 #@! TA.AperFunction,ComponentPad*
%ADD14O,1.700000X1.700000*%
G04 #@! TD*
G04 #@! TA.AperFunction,ComponentPad*
%ADD15R,0.850000X0.850000*%
G04 #@! TD*
G04 #@! TA.AperFunction,ComponentPad*
%ADD16O,2.100000X1.000000*%
G04 #@! TD*
G04 #@! TA.AperFunction,ComponentPad*
%ADD17O,1.600000X1.000000*%
G04 #@! TD*
G04 #@! TA.AperFunction,ViaPad*
%ADD18C,0.800000*%
G04 #@! TD*
G04 #@! TA.AperFunction,Conductor*
%ADD19C,0.250000*%
G04 #@! TD*
G04 #@! TA.AperFunction,Profile*
%ADD20C,0.050000*%
G04 #@! TD*
G04 APERTURE END LIST*
D10*
X104839835Y-119206051D02*
X104923655Y-119650675D01*
X105542227Y-119905671D01*
X105913267Y-119653366D01*
X105986704Y-119603626D01*
X106084059Y-119538338D01*
X106168347Y-119482574D01*
X106235191Y-119439198D01*
X106280214Y-119411073D01*
X106299038Y-119401062D01*
X106310599Y-119408181D01*
X106345156Y-119438014D01*
X106397454Y-119486972D01*
X106463060Y-119550560D01*
X106537543Y-119624283D01*
X106616473Y-119703645D01*
X106695416Y-119784151D01*
X106769944Y-119861305D01*
X106835623Y-119930613D01*
X106888023Y-119987577D01*
X106922713Y-120027704D01*
X106935261Y-120046497D01*
X106932342Y-120054571D01*
X106912131Y-120090589D01*
X106875223Y-120149864D01*
X106824610Y-120227750D01*
X106763285Y-120319601D01*
X106694239Y-120420770D01*
X106656347Y-120475946D01*
X106591166Y-120572004D01*
X106535283Y-120655837D01*
X106491677Y-120722897D01*
X106463329Y-120768639D01*
X106453217Y-120788516D01*
X106453383Y-120789617D01*
X106462303Y-120814814D01*
X106482766Y-120866267D01*
X106511920Y-120937255D01*
X106546913Y-121021055D01*
X106584892Y-121110948D01*
X106623005Y-121200211D01*
X106658399Y-121282123D01*
X106688222Y-121349963D01*
X106709621Y-121397010D01*
X106719744Y-121416542D01*
X106725734Y-121418275D01*
X106762126Y-121426089D01*
X106826987Y-121439035D01*
X106915125Y-121456099D01*
X107021347Y-121476271D01*
X107140462Y-121498538D01*
X107203243Y-121510343D01*
X107318472Y-121532868D01*
X107419222Y-121553670D01*
X107499986Y-121571555D01*
X107555258Y-121585328D01*
X107579531Y-121593794D01*
X107583891Y-121602186D01*
X107591123Y-121643192D01*
X107596806Y-121711488D01*
X107600942Y-121800649D01*
X107603537Y-121904248D01*
X107604596Y-122015860D01*
X107604121Y-122129058D01*
X107602119Y-122237416D01*
X107598593Y-122334509D01*
X107593547Y-122413910D01*
X107586987Y-122469192D01*
X107578916Y-122493930D01*
X107574018Y-122496720D01*
X107537490Y-122508689D01*
X107474125Y-122524525D01*
X107391246Y-122542494D01*
X107296178Y-122560861D01*
X107264102Y-122566711D01*
X107115953Y-122593918D01*
X106999521Y-122615783D01*
X106910769Y-122633213D01*
X106845663Y-122647116D01*
X106800166Y-122658397D01*
X106770242Y-122667963D01*
X106751854Y-122676721D01*
X106740967Y-122685577D01*
X106739702Y-122687063D01*
X106721898Y-122718051D01*
X106695554Y-122774754D01*
X106663221Y-122850519D01*
X106627453Y-122938694D01*
X106590804Y-123032627D01*
X106555826Y-123125667D01*
X106525073Y-123211161D01*
X106501098Y-123282456D01*
X106486455Y-123332902D01*
X106483696Y-123355846D01*
X106485541Y-123358823D01*
X106504635Y-123387613D01*
X106540544Y-123440715D01*
X106589938Y-123513237D01*
X106649487Y-123600287D01*
X106715863Y-123696974D01*
X106734080Y-123723576D01*
X106798137Y-123818995D01*
X106853497Y-123904332D01*
X106896999Y-123974525D01*
X106925484Y-124024514D01*
X106935792Y-124049236D01*
X106933571Y-124055736D01*
X106910418Y-124087764D01*
X106864737Y-124140065D01*
X106799801Y-124209119D01*
X106718879Y-124291406D01*
X106625245Y-124383406D01*
X106571725Y-124434901D01*
X106487102Y-124515103D01*
X106413035Y-124583798D01*
X106353501Y-124637372D01*
X106312477Y-124672205D01*
X106293941Y-124684683D01*
X106281206Y-124680058D01*
X106241996Y-124658177D01*
X106185055Y-124622393D01*
X106117810Y-124577237D01*
X106069998Y-124544285D01*
X105974545Y-124478847D01*
X105872685Y-124409348D01*
X105779648Y-124346195D01*
X105597392Y-124222920D01*
X105444401Y-124305640D01*
X105408377Y-124324733D01*
X105342863Y-124357392D01*
X105292200Y-124379939D01*
X105265124Y-124388346D01*
X105256263Y-124377550D01*
X105234259Y-124336443D01*
X105201759Y-124268669D01*
X105160570Y-124178529D01*
X105112502Y-124070325D01*
X105059362Y-123948357D01*
X105002959Y-123816928D01*
X104945102Y-123680338D01*
X104887598Y-123542887D01*
X104832257Y-123408878D01*
X104780886Y-123282611D01*
X104735295Y-123168388D01*
X104697292Y-123070510D01*
X104668684Y-122993277D01*
X104651281Y-122940991D01*
X104646891Y-122917953D01*
X104647188Y-122917280D01*
X104667637Y-122895983D01*
X104710410Y-122862628D01*
X104766677Y-122824131D01*
X104784437Y-122812376D01*
X104919574Y-122700855D01*
X105031416Y-122568026D01*
X105117315Y-122419418D01*
X105174622Y-122260560D01*
X105200691Y-122096980D01*
X105192873Y-121934208D01*
X105161204Y-121789435D01*
X105104342Y-121643244D01*
X105021448Y-121512823D01*
X104907691Y-121388933D01*
X104862993Y-121349355D01*
X104718495Y-121251843D01*
X104562398Y-121186170D01*
X104399227Y-121151750D01*
X104233503Y-121147994D01*
X104069752Y-121174314D01*
X103912496Y-121230123D01*
X103766258Y-121314834D01*
X103635564Y-121427857D01*
X103524934Y-121568607D01*
X103503665Y-121603462D01*
X103431370Y-121762775D01*
X103392975Y-121928672D01*
X103387474Y-122096857D01*
X103413861Y-122263033D01*
X103471130Y-122422904D01*
X103558277Y-122572173D01*
X103674296Y-122706543D01*
X103818182Y-122821719D01*
X103822854Y-122824822D01*
X103878524Y-122864053D01*
X103920249Y-122897406D01*
X103939306Y-122917953D01*
X103936902Y-122934061D01*
X103921951Y-122980964D01*
X103895441Y-123053659D01*
X103859180Y-123147845D01*
X103814976Y-123259218D01*
X103764636Y-123383478D01*
X103709967Y-123516322D01*
X103652778Y-123653447D01*
X103594876Y-123790552D01*
X103538070Y-123923335D01*
X103484166Y-124047494D01*
X103434972Y-124158726D01*
X103392297Y-124252729D01*
X103357947Y-124325202D01*
X103333731Y-124371842D01*
X103321457Y-124388346D01*
X103311249Y-124386111D01*
X103271146Y-124370046D01*
X103211878Y-124341879D01*
X103142179Y-124305640D01*
X102989189Y-124222920D01*
X102806933Y-124346195D01*
X102753087Y-124382699D01*
X102652934Y-124450904D01*
X102553085Y-124519218D01*
X102468771Y-124577237D01*
X102422239Y-124608856D01*
X102361760Y-124648140D01*
X102316917Y-124675032D01*
X102295015Y-124685003D01*
X102285605Y-124680770D01*
X102251591Y-124654841D01*
X102199155Y-124609190D01*
X102132861Y-124548306D01*
X102057273Y-124476681D01*
X101976956Y-124398803D01*
X101896473Y-124319165D01*
X101820389Y-124242255D01*
X101753267Y-124172565D01*
X101699672Y-124114584D01*
X101664168Y-124072804D01*
X101651319Y-124051713D01*
X101652060Y-124047701D01*
X101667353Y-124015040D01*
X101700022Y-123958532D01*
X101746910Y-123883283D01*
X101804861Y-123794395D01*
X101870717Y-123696974D01*
X101889187Y-123670102D01*
X101954042Y-123575543D01*
X102011169Y-123491947D01*
X102057238Y-123424204D01*
X102088919Y-123377206D01*
X102102884Y-123355846D01*
X102103228Y-123354931D01*
X102099106Y-123328798D01*
X102083367Y-123275860D01*
X102058564Y-123202767D01*
X102027249Y-123116172D01*
X101991977Y-123022728D01*
X101955300Y-122929085D01*
X101919772Y-122841897D01*
X101887946Y-122767815D01*
X101862376Y-122713491D01*
X101845613Y-122685577D01*
X101843934Y-122683844D01*
X101831932Y-122675076D01*
X101811663Y-122666235D01*
X101779089Y-122656412D01*
X101730176Y-122644703D01*
X101660887Y-122630200D01*
X101567185Y-122611996D01*
X101445036Y-122589186D01*
X101290402Y-122560861D01*
X101258330Y-122554900D01*
X101166453Y-122536472D01*
X101089167Y-122519012D01*
X101033796Y-122504253D01*
X101007665Y-122493930D01*
X101003293Y-122485317D01*
X100996005Y-122443946D01*
X100990229Y-122375361D01*
X100985970Y-122285988D01*
X100983233Y-122182255D01*
X100982022Y-122070585D01*
X100982342Y-121957407D01*
X100984196Y-121849146D01*
X100987590Y-121752228D01*
X100992527Y-121673079D01*
X100999012Y-121618126D01*
X101007049Y-121593794D01*
X101015256Y-121590199D01*
X101056079Y-121578868D01*
X101125084Y-121562842D01*
X101216763Y-121543315D01*
X101325610Y-121521482D01*
X101446118Y-121498538D01*
X101511917Y-121486279D01*
X101624695Y-121465021D01*
X101721767Y-121446407D01*
X101797942Y-121431448D01*
X101848029Y-121421156D01*
X101866836Y-121416542D01*
X101867543Y-121415591D01*
X101879521Y-121391430D01*
X101902354Y-121340814D01*
X101933190Y-121270458D01*
X101969173Y-121187078D01*
X102007451Y-121097390D01*
X102045169Y-121008109D01*
X102079473Y-120925952D01*
X102107509Y-120857633D01*
X102126424Y-120809868D01*
X102133363Y-120789374D01*
X102130302Y-120782163D01*
X102109932Y-120747848D01*
X102072982Y-120690090D01*
X102022420Y-120613419D01*
X101961217Y-120522368D01*
X101892341Y-120421470D01*
X101854554Y-120366213D01*
X101789342Y-120269335D01*
X101733431Y-120184313D01*
X101689801Y-120115782D01*
X101661437Y-120068380D01*
X101651319Y-120046743D01*
X101658350Y-120035007D01*
X101687757Y-119999938D01*
X101736001Y-119946865D01*
X101798653Y-119880284D01*
X101871285Y-119804694D01*
X101949468Y-119724592D01*
X102028774Y-119644474D01*
X102104773Y-119568838D01*
X102173038Y-119502182D01*
X102229140Y-119449002D01*
X102268650Y-119413796D01*
X102287139Y-119401062D01*
X102297403Y-119406013D01*
X102335090Y-119428977D01*
X102395908Y-119468058D01*
X102475473Y-119520392D01*
X102569403Y-119583116D01*
X102673314Y-119653366D01*
X103044354Y-119905671D01*
X103353640Y-119778173D01*
X103662925Y-119650675D01*
X103746746Y-119206051D01*
X103830566Y-118761427D01*
X104756014Y-118761427D01*
X104839835Y-119206051D01*
G04 #@! TA.AperFunction,EtchedComponent*
G36*
X104839835Y-119206051D02*
G01*
X104923655Y-119650675D01*
X105542227Y-119905671D01*
X105913267Y-119653366D01*
X105986704Y-119603626D01*
X106084059Y-119538338D01*
X106168347Y-119482574D01*
X106235191Y-119439198D01*
X106280214Y-119411073D01*
X106299038Y-119401062D01*
X106310599Y-119408181D01*
X106345156Y-119438014D01*
X106397454Y-119486972D01*
X106463060Y-119550560D01*
X106537543Y-119624283D01*
X106616473Y-119703645D01*
X106695416Y-119784151D01*
X106769944Y-119861305D01*
X106835623Y-119930613D01*
X106888023Y-119987577D01*
X106922713Y-120027704D01*
X106935261Y-120046497D01*
X106932342Y-120054571D01*
X106912131Y-120090589D01*
X106875223Y-120149864D01*
X106824610Y-120227750D01*
X106763285Y-120319601D01*
X106694239Y-120420770D01*
X106656347Y-120475946D01*
X106591166Y-120572004D01*
X106535283Y-120655837D01*
X106491677Y-120722897D01*
X106463329Y-120768639D01*
X106453217Y-120788516D01*
X106453383Y-120789617D01*
X106462303Y-120814814D01*
X106482766Y-120866267D01*
X106511920Y-120937255D01*
X106546913Y-121021055D01*
X106584892Y-121110948D01*
X106623005Y-121200211D01*
X106658399Y-121282123D01*
X106688222Y-121349963D01*
X106709621Y-121397010D01*
X106719744Y-121416542D01*
X106725734Y-121418275D01*
X106762126Y-121426089D01*
X106826987Y-121439035D01*
X106915125Y-121456099D01*
X107021347Y-121476271D01*
X107140462Y-121498538D01*
X107203243Y-121510343D01*
X107318472Y-121532868D01*
X107419222Y-121553670D01*
X107499986Y-121571555D01*
X107555258Y-121585328D01*
X107579531Y-121593794D01*
X107583891Y-121602186D01*
X107591123Y-121643192D01*
X107596806Y-121711488D01*
X107600942Y-121800649D01*
X107603537Y-121904248D01*
X107604596Y-122015860D01*
X107604121Y-122129058D01*
X107602119Y-122237416D01*
X107598593Y-122334509D01*
X107593547Y-122413910D01*
X107586987Y-122469192D01*
X107578916Y-122493930D01*
X107574018Y-122496720D01*
X107537490Y-122508689D01*
X107474125Y-122524525D01*
X107391246Y-122542494D01*
X107296178Y-122560861D01*
X107264102Y-122566711D01*
X107115953Y-122593918D01*
X106999521Y-122615783D01*
X106910769Y-122633213D01*
X106845663Y-122647116D01*
X106800166Y-122658397D01*
X106770242Y-122667963D01*
X106751854Y-122676721D01*
X106740967Y-122685577D01*
X106739702Y-122687063D01*
X106721898Y-122718051D01*
X106695554Y-122774754D01*
X106663221Y-122850519D01*
X106627453Y-122938694D01*
X106590804Y-123032627D01*
X106555826Y-123125667D01*
X106525073Y-123211161D01*
X106501098Y-123282456D01*
X106486455Y-123332902D01*
X106483696Y-123355846D01*
X106485541Y-123358823D01*
X106504635Y-123387613D01*
X106540544Y-123440715D01*
X106589938Y-123513237D01*
X106649487Y-123600287D01*
X106715863Y-123696974D01*
X106734080Y-123723576D01*
X106798137Y-123818995D01*
X106853497Y-123904332D01*
X106896999Y-123974525D01*
X106925484Y-124024514D01*
X106935792Y-124049236D01*
X106933571Y-124055736D01*
X106910418Y-124087764D01*
X106864737Y-124140065D01*
X106799801Y-124209119D01*
X106718879Y-124291406D01*
X106625245Y-124383406D01*
X106571725Y-124434901D01*
X106487102Y-124515103D01*
X106413035Y-124583798D01*
X106353501Y-124637372D01*
X106312477Y-124672205D01*
X106293941Y-124684683D01*
X106281206Y-124680058D01*
X106241996Y-124658177D01*
X106185055Y-124622393D01*
X106117810Y-124577237D01*
X106069998Y-124544285D01*
X105974545Y-124478847D01*
X105872685Y-124409348D01*
X105779648Y-124346195D01*
X105597392Y-124222920D01*
X105444401Y-124305640D01*
X105408377Y-124324733D01*
X105342863Y-124357392D01*
X105292200Y-124379939D01*
X105265124Y-124388346D01*
X105256263Y-124377550D01*
X105234259Y-124336443D01*
X105201759Y-124268669D01*
X105160570Y-124178529D01*
X105112502Y-124070325D01*
X105059362Y-123948357D01*
X105002959Y-123816928D01*
X104945102Y-123680338D01*
X104887598Y-123542887D01*
X104832257Y-123408878D01*
X104780886Y-123282611D01*
X104735295Y-123168388D01*
X104697292Y-123070510D01*
X104668684Y-122993277D01*
X104651281Y-122940991D01*
X104646891Y-122917953D01*
X104647188Y-122917280D01*
X104667637Y-122895983D01*
X104710410Y-122862628D01*
X104766677Y-122824131D01*
X104784437Y-122812376D01*
X104919574Y-122700855D01*
X105031416Y-122568026D01*
X105117315Y-122419418D01*
X105174622Y-122260560D01*
X105200691Y-122096980D01*
X105192873Y-121934208D01*
X105161204Y-121789435D01*
X105104342Y-121643244D01*
X105021448Y-121512823D01*
X104907691Y-121388933D01*
X104862993Y-121349355D01*
X104718495Y-121251843D01*
X104562398Y-121186170D01*
X104399227Y-121151750D01*
X104233503Y-121147994D01*
X104069752Y-121174314D01*
X103912496Y-121230123D01*
X103766258Y-121314834D01*
X103635564Y-121427857D01*
X103524934Y-121568607D01*
X103503665Y-121603462D01*
X103431370Y-121762775D01*
X103392975Y-121928672D01*
X103387474Y-122096857D01*
X103413861Y-122263033D01*
X103471130Y-122422904D01*
X103558277Y-122572173D01*
X103674296Y-122706543D01*
X103818182Y-122821719D01*
X103822854Y-122824822D01*
X103878524Y-122864053D01*
X103920249Y-122897406D01*
X103939306Y-122917953D01*
X103936902Y-122934061D01*
X103921951Y-122980964D01*
X103895441Y-123053659D01*
X103859180Y-123147845D01*
X103814976Y-123259218D01*
X103764636Y-123383478D01*
X103709967Y-123516322D01*
X103652778Y-123653447D01*
X103594876Y-123790552D01*
X103538070Y-123923335D01*
X103484166Y-124047494D01*
X103434972Y-124158726D01*
X103392297Y-124252729D01*
X103357947Y-124325202D01*
X103333731Y-124371842D01*
X103321457Y-124388346D01*
X103311249Y-124386111D01*
X103271146Y-124370046D01*
X103211878Y-124341879D01*
X103142179Y-124305640D01*
X102989189Y-124222920D01*
X102806933Y-124346195D01*
X102753087Y-124382699D01*
X102652934Y-124450904D01*
X102553085Y-124519218D01*
X102468771Y-124577237D01*
X102422239Y-124608856D01*
X102361760Y-124648140D01*
X102316917Y-124675032D01*
X102295015Y-124685003D01*
X102285605Y-124680770D01*
X102251591Y-124654841D01*
X102199155Y-124609190D01*
X102132861Y-124548306D01*
X102057273Y-124476681D01*
X101976956Y-124398803D01*
X101896473Y-124319165D01*
X101820389Y-124242255D01*
X101753267Y-124172565D01*
X101699672Y-124114584D01*
X101664168Y-124072804D01*
X101651319Y-124051713D01*
X101652060Y-124047701D01*
X101667353Y-124015040D01*
X101700022Y-123958532D01*
X101746910Y-123883283D01*
X101804861Y-123794395D01*
X101870717Y-123696974D01*
X101889187Y-123670102D01*
X101954042Y-123575543D01*
X102011169Y-123491947D01*
X102057238Y-123424204D01*
X102088919Y-123377206D01*
X102102884Y-123355846D01*
X102103228Y-123354931D01*
X102099106Y-123328798D01*
X102083367Y-123275860D01*
X102058564Y-123202767D01*
X102027249Y-123116172D01*
X101991977Y-123022728D01*
X101955300Y-122929085D01*
X101919772Y-122841897D01*
X101887946Y-122767815D01*
X101862376Y-122713491D01*
X101845613Y-122685577D01*
X101843934Y-122683844D01*
X101831932Y-122675076D01*
X101811663Y-122666235D01*
X101779089Y-122656412D01*
X101730176Y-122644703D01*
X101660887Y-122630200D01*
X101567185Y-122611996D01*
X101445036Y-122589186D01*
X101290402Y-122560861D01*
X101258330Y-122554900D01*
X101166453Y-122536472D01*
X101089167Y-122519012D01*
X101033796Y-122504253D01*
X101007665Y-122493930D01*
X101003293Y-122485317D01*
X100996005Y-122443946D01*
X100990229Y-122375361D01*
X100985970Y-122285988D01*
X100983233Y-122182255D01*
X100982022Y-122070585D01*
X100982342Y-121957407D01*
X100984196Y-121849146D01*
X100987590Y-121752228D01*
X100992527Y-121673079D01*
X100999012Y-121618126D01*
X101007049Y-121593794D01*
X101015256Y-121590199D01*
X101056079Y-121578868D01*
X101125084Y-121562842D01*
X101216763Y-121543315D01*
X101325610Y-121521482D01*
X101446118Y-121498538D01*
X101511917Y-121486279D01*
X101624695Y-121465021D01*
X101721767Y-121446407D01*
X101797942Y-121431448D01*
X101848029Y-121421156D01*
X101866836Y-121416542D01*
X101867543Y-121415591D01*
X101879521Y-121391430D01*
X101902354Y-121340814D01*
X101933190Y-121270458D01*
X101969173Y-121187078D01*
X102007451Y-121097390D01*
X102045169Y-121008109D01*
X102079473Y-120925952D01*
X102107509Y-120857633D01*
X102126424Y-120809868D01*
X102133363Y-120789374D01*
X102130302Y-120782163D01*
X102109932Y-120747848D01*
X102072982Y-120690090D01*
X102022420Y-120613419D01*
X101961217Y-120522368D01*
X101892341Y-120421470D01*
X101854554Y-120366213D01*
X101789342Y-120269335D01*
X101733431Y-120184313D01*
X101689801Y-120115782D01*
X101661437Y-120068380D01*
X101651319Y-120046743D01*
X101658350Y-120035007D01*
X101687757Y-119999938D01*
X101736001Y-119946865D01*
X101798653Y-119880284D01*
X101871285Y-119804694D01*
X101949468Y-119724592D01*
X102028774Y-119644474D01*
X102104773Y-119568838D01*
X102173038Y-119502182D01*
X102229140Y-119449002D01*
X102268650Y-119413796D01*
X102287139Y-119401062D01*
X102297403Y-119406013D01*
X102335090Y-119428977D01*
X102395908Y-119468058D01*
X102475473Y-119520392D01*
X102569403Y-119583116D01*
X102673314Y-119653366D01*
X103044354Y-119905671D01*
X103353640Y-119778173D01*
X103662925Y-119650675D01*
X103746746Y-119206051D01*
X103830566Y-118761427D01*
X104756014Y-118761427D01*
X104839835Y-119206051D01*
G37*
G04 #@! TD.AperFunction*
D11*
X153000000Y-153300000D03*
D12*
X156500000Y-153300000D03*
D11*
X173700000Y-153300000D03*
D12*
X177200000Y-153300000D03*
D13*
X177292000Y-121920000D03*
D14*
X177292000Y-124460000D03*
D13*
X133604000Y-107437000D03*
D14*
X133604000Y-109977000D03*
D11*
X130000000Y-153300000D03*
D12*
X133500000Y-153300000D03*
D15*
X186690000Y-139700000D03*
D13*
X177800000Y-106680000D03*
D14*
X177800000Y-104140000D03*
D13*
X156464000Y-112500000D03*
D14*
X156464000Y-115040000D03*
D13*
X177800000Y-115316000D03*
D14*
X177800000Y-117856000D03*
D16*
X182270000Y-121170000D03*
D17*
X186450000Y-121170000D03*
D16*
X182270000Y-112530000D03*
D17*
X186450000Y-112530000D03*
D15*
X186690000Y-143510000D03*
D18*
X124460000Y-116840000D03*
X142082000Y-120834500D03*
X128963900Y-114516000D03*
X127000000Y-119597000D03*
D19*
X130000000Y-153300000D02*
X129540000Y-152840000D01*
X129540000Y-127000000D02*
X127000000Y-124460000D01*
X129540000Y-152840000D02*
X129540000Y-127000000D01*
X127000000Y-124460000D02*
X124460000Y-121920000D01*
X124460000Y-116840000D02*
X124460000Y-119597000D01*
X124460000Y-121920000D02*
X124460000Y-119380000D01*
X155288700Y-112500000D02*
X146954200Y-120834500D01*
X146954200Y-120834500D02*
X142082000Y-120834500D01*
X156464000Y-112500000D02*
X155288700Y-112500000D01*
X128963900Y-117633100D02*
X128963900Y-114516000D01*
X127000000Y-119597000D02*
X128963900Y-117633100D01*
X186470000Y-112520000D02*
X186470000Y-121160000D01*
X186470000Y-121160000D02*
X182290000Y-121160000D01*
G04 #@! TA.AperFunction,Conductor*
G36*
X179941621Y-100020502D02*
G01*
X179988114Y-100074158D01*
X179999500Y-100126500D01*
X179999500Y-100302184D01*
X180035991Y-100905455D01*
X180035991Y-100905457D01*
X180108838Y-101505396D01*
X180108839Y-101505403D01*
X180217778Y-102099865D01*
X180362415Y-102686683D01*
X180542215Y-103263681D01*
X180756514Y-103828742D01*
X180756534Y-103828790D01*
X181004567Y-104379897D01*
X181004568Y-104379899D01*
X181285427Y-104915032D01*
X181598085Y-105432230D01*
X181598094Y-105432244D01*
X181839073Y-105781362D01*
X181941410Y-105929623D01*
X182314134Y-106405370D01*
X182314138Y-106405375D01*
X182314140Y-106405377D01*
X182314141Y-106405378D01*
X182714896Y-106857738D01*
X182714917Y-106857760D01*
X183142239Y-107285082D01*
X183142261Y-107285103D01*
X183476902Y-107581568D01*
X183594630Y-107685866D01*
X184070377Y-108058590D01*
X184229508Y-108168430D01*
X184567755Y-108401905D01*
X184567769Y-108401914D01*
X185084967Y-108714572D01*
X185551117Y-108959226D01*
X185620106Y-108995434D01*
X186171228Y-109243474D01*
X186736320Y-109457785D01*
X187313321Y-109637586D01*
X187900126Y-109782220D01*
X188494593Y-109891160D01*
X188786399Y-109926592D01*
X189094543Y-109964008D01*
X189094546Y-109964008D01*
X189094553Y-109964009D01*
X189617719Y-109995654D01*
X189697816Y-110000500D01*
X189697817Y-110000500D01*
X189873500Y-110000500D01*
X189941621Y-110020502D01*
X189988114Y-110074158D01*
X189999500Y-110126500D01*
X189999500Y-147873500D01*
X189979498Y-147941621D01*
X189925842Y-147988114D01*
X189873500Y-147999500D01*
X189697816Y-147999500D01*
X189094544Y-148035991D01*
X189094542Y-148035991D01*
X188494603Y-148108838D01*
X188494596Y-148108839D01*
X187900134Y-148217778D01*
X187313316Y-148362415D01*
X186736318Y-148542215D01*
X186171257Y-148756514D01*
X186171209Y-148756534D01*
X185620102Y-149004567D01*
X185620100Y-149004568D01*
X185084967Y-149285427D01*
X184567769Y-149598085D01*
X184567755Y-149598094D01*
X184070380Y-149941407D01*
X183594622Y-150314140D01*
X183594621Y-150314141D01*
X183142261Y-150714896D01*
X183142239Y-150714917D01*
X182714917Y-151142239D01*
X182714896Y-151142261D01*
X182314141Y-151594621D01*
X182314140Y-151594622D01*
X181941407Y-152070380D01*
X181598094Y-152567755D01*
X181598085Y-152567769D01*
X181285427Y-153084967D01*
X181004568Y-153620100D01*
X181004567Y-153620102D01*
X180756534Y-154171209D01*
X180756514Y-154171257D01*
X180542215Y-154736318D01*
X180362415Y-155313316D01*
X180217778Y-155900134D01*
X180108839Y-156494596D01*
X180108838Y-156494603D01*
X180035991Y-157094542D01*
X180035991Y-157094544D01*
X179999500Y-157697815D01*
X179999500Y-157873500D01*
X179979498Y-157941621D01*
X179925842Y-157988114D01*
X179873500Y-157999500D01*
X110126500Y-157999500D01*
X110058379Y-157979498D01*
X110011886Y-157925842D01*
X110000500Y-157873500D01*
X110000500Y-157697815D01*
X109964008Y-157094544D01*
X109964008Y-157094542D01*
X109891161Y-156494603D01*
X109891160Y-156494596D01*
X109891160Y-156494593D01*
X109782220Y-155900126D01*
X109637586Y-155313321D01*
X109457785Y-154736320D01*
X109243474Y-154171228D01*
X108995434Y-153620106D01*
X108995431Y-153620100D01*
X108714572Y-153084967D01*
X108401914Y-152567769D01*
X108401905Y-152567755D01*
X108100561Y-152131182D01*
X120749500Y-152131182D01*
X120771224Y-152275311D01*
X120788604Y-152390619D01*
X120865933Y-152641314D01*
X120865938Y-152641327D01*
X120979773Y-152877706D01*
X120979777Y-152877713D01*
X121093640Y-153044718D01*
X121127567Y-153094479D01*
X121306019Y-153286805D01*
X121511143Y-153450386D01*
X121511146Y-153450388D01*
X121738352Y-153581566D01*
X121738356Y-153581567D01*
X121738357Y-153581568D01*
X121982584Y-153677420D01*
X122238370Y-153735802D01*
X122434506Y-153750500D01*
X122434507Y-153750500D01*
X122565493Y-153750500D01*
X122565494Y-153750500D01*
X122761630Y-153735802D01*
X123017416Y-153677420D01*
X123261643Y-153581568D01*
X123261645Y-153581566D01*
X123261647Y-153581566D01*
X123478040Y-153456631D01*
X123488857Y-153450386D01*
X123693981Y-153286805D01*
X123872433Y-153094479D01*
X124020228Y-152877704D01*
X124134063Y-152641323D01*
X124134066Y-152641314D01*
X124211395Y-152390619D01*
X124219755Y-152335155D01*
X124250500Y-152131182D01*
X124250500Y-151868818D01*
X124211396Y-151609385D01*
X124211395Y-151609383D01*
X124211395Y-151609380D01*
X124134066Y-151358685D01*
X124134061Y-151358672D01*
X124085854Y-151258570D01*
X124020228Y-151122296D01*
X124020226Y-151122293D01*
X124020222Y-151122286D01*
X123872437Y-150905527D01*
X123872433Y-150905521D01*
X123693981Y-150713195D01*
X123488857Y-150549614D01*
X123488852Y-150549611D01*
X123488853Y-150549611D01*
X123261647Y-150418433D01*
X123261639Y-150418430D01*
X123017419Y-150322581D01*
X123017417Y-150322580D01*
X122761633Y-150264198D01*
X122614528Y-150253174D01*
X122565494Y-150249500D01*
X122434506Y-150249500D01*
X122395278Y-150252439D01*
X122238366Y-150264198D01*
X121982582Y-150322580D01*
X121982580Y-150322581D01*
X121738360Y-150418430D01*
X121738352Y-150418433D01*
X121511146Y-150549611D01*
X121306018Y-150713195D01*
X121127566Y-150905522D01*
X121127562Y-150905527D01*
X120979777Y-151122286D01*
X120979773Y-151122293D01*
X120865938Y-151358672D01*
X120865933Y-151358685D01*
X120788604Y-151609380D01*
X120769408Y-151736738D01*
X120749500Y-151868818D01*
X120749500Y-152131182D01*
X108100561Y-152131182D01*
X108058592Y-152070380D01*
X108058590Y-152070377D01*
X107685866Y-151594630D01*
X107571467Y-151465500D01*
X107285103Y-151142261D01*
X107285082Y-151142239D01*
X106857760Y-150714917D01*
X106857738Y-150714896D01*
X106405378Y-150314141D01*
X106405377Y-150314140D01*
X106405375Y-150314138D01*
X106405370Y-150314134D01*
X105929623Y-149941410D01*
X105682123Y-149770573D01*
X105432244Y-149598094D01*
X105432230Y-149598085D01*
X104915032Y-149285427D01*
X104379899Y-149004568D01*
X104379897Y-149004567D01*
X103828790Y-148756534D01*
X103828786Y-148756532D01*
X103828772Y-148756526D01*
X103828758Y-148756520D01*
X103828742Y-148756514D01*
X103263681Y-148542215D01*
X102686683Y-148362415D01*
X102686679Y-148362414D01*
X102099874Y-148217780D01*
X102099870Y-148217779D01*
X102099865Y-148217778D01*
X101505403Y-148108839D01*
X101505396Y-148108838D01*
X100905456Y-148035991D01*
X100302184Y-147999500D01*
X100302183Y-147999500D01*
X100126500Y-147999500D01*
X100058379Y-147979498D01*
X100011886Y-147925842D01*
X100000500Y-147873500D01*
X100000500Y-129131182D01*
X103249500Y-129131182D01*
X103271224Y-129275311D01*
X103288604Y-129390619D01*
X103365933Y-129641314D01*
X103365938Y-129641327D01*
X103479773Y-129877706D01*
X103479777Y-129877713D01*
X103627562Y-130094472D01*
X103627567Y-130094479D01*
X103806019Y-130286805D01*
X104011143Y-130450386D01*
X104011146Y-130450388D01*
X104238352Y-130581566D01*
X104238356Y-130581567D01*
X104238357Y-130581568D01*
X104482584Y-130677420D01*
X104738370Y-130735802D01*
X104934506Y-130750500D01*
X104934507Y-130750500D01*
X105065493Y-130750500D01*
X105065494Y-130750500D01*
X105261630Y-130735802D01*
X105517416Y-130677420D01*
X105761643Y-130581568D01*
X105761645Y-130581566D01*
X105761647Y-130581566D01*
X105875250Y-130515977D01*
X105988857Y-130450386D01*
X106193981Y-130286805D01*
X106372433Y-130094479D01*
X106520228Y-129877704D01*
X106634063Y-129641323D01*
X106711396Y-129390615D01*
X106750500Y-129131182D01*
X106750500Y-128868818D01*
X106711396Y-128609385D01*
X106711395Y-128609383D01*
X106711395Y-128609380D01*
X106634066Y-128358685D01*
X106634061Y-128358672D01*
X106585854Y-128258570D01*
X106520228Y-128122296D01*
X106520226Y-128122293D01*
X106520222Y-128122286D01*
X106372437Y-127905527D01*
X106372433Y-127905521D01*
X106193981Y-127713195D01*
X105988857Y-127549614D01*
X105988852Y-127549611D01*
X105988853Y-127549611D01*
X105761647Y-127418433D01*
X105761639Y-127418430D01*
X105517419Y-127322581D01*
X105517417Y-127322580D01*
X105261633Y-127264198D01*
X105114528Y-127253174D01*
X105065494Y-127249500D01*
X104934506Y-127249500D01*
X104895278Y-127252439D01*
X104738366Y-127264198D01*
X104482582Y-127322580D01*
X104482580Y-127322581D01*
X104238360Y-127418430D01*
X104238352Y-127418433D01*
X104011146Y-127549611D01*
X103806018Y-127713195D01*
X103627566Y-127905522D01*
X103627562Y-127905527D01*
X103479777Y-128122286D01*
X103479773Y-128122293D01*
X103365938Y-128358672D01*
X103365933Y-128358685D01*
X103288604Y-128609380D01*
X103266879Y-128753514D01*
X103249500Y-128868818D01*
X103249500Y-129131182D01*
X100000500Y-129131182D01*
X100000500Y-122039417D01*
X100468154Y-122039417D01*
X100468503Y-122071771D01*
X100468510Y-122073478D01*
X100468420Y-122105862D01*
X100468709Y-122110065D01*
X100468998Y-122117329D01*
X100469321Y-122147086D01*
X100468925Y-122154589D01*
X100469145Y-122154599D01*
X100468942Y-122159089D01*
X100469778Y-122190774D01*
X100469815Y-122192725D01*
X100470161Y-122224544D01*
X100470530Y-122229018D01*
X100470313Y-122229035D01*
X100470985Y-122236525D01*
X100471621Y-122260632D01*
X100471326Y-122269241D01*
X100471411Y-122269243D01*
X100471304Y-122273742D01*
X100471304Y-122273746D01*
X100471304Y-122273748D01*
X100471774Y-122283619D01*
X100472727Y-122303630D01*
X100472825Y-122306290D01*
X100473617Y-122336243D01*
X100474056Y-122340717D01*
X100473972Y-122340725D01*
X100474903Y-122349295D01*
X100475689Y-122365784D01*
X100475615Y-122379169D01*
X100475457Y-122381844D01*
X100475458Y-122381860D01*
X100477564Y-122406880D01*
X100477865Y-122411447D01*
X100479058Y-122436485D01*
X100479565Y-122439113D01*
X100481396Y-122452378D01*
X100482909Y-122470345D01*
X100483290Y-122476933D01*
X100483920Y-122496858D01*
X100483920Y-122496861D01*
X100485278Y-122504570D01*
X100486741Y-122515834D01*
X100487398Y-122523634D01*
X100487400Y-122523649D01*
X100489075Y-122530903D01*
X100492195Y-122554034D01*
X100493280Y-122580287D01*
X100493281Y-122580295D01*
X100509816Y-122629059D01*
X100514102Y-122645107D01*
X100518197Y-122665845D01*
X100523955Y-122676891D01*
X100531937Y-122695830D01*
X100533474Y-122700512D01*
X100537286Y-122712125D01*
X100538433Y-122715617D01*
X100556132Y-122741335D01*
X100564692Y-122755737D01*
X100566401Y-122759105D01*
X100567566Y-122761043D01*
X100571290Y-122767688D01*
X100586455Y-122796777D01*
X100586457Y-122796780D01*
X100603515Y-122814506D01*
X100615815Y-122829428D01*
X100629963Y-122849562D01*
X100651446Y-122866676D01*
X100654662Y-122869238D01*
X100666942Y-122880421D01*
X100681870Y-122895934D01*
X100688843Y-122903180D01*
X100710202Y-122915382D01*
X100726208Y-122926235D01*
X100745454Y-122941567D01*
X100745455Y-122941567D01*
X100745456Y-122941568D01*
X100775825Y-122953947D01*
X100782804Y-122957042D01*
X100784836Y-122958018D01*
X100784841Y-122958021D01*
X100815840Y-122970266D01*
X100816996Y-122970731D01*
X100838159Y-122979358D01*
X100852473Y-122985193D01*
X100854361Y-122985981D01*
X100860242Y-122988490D01*
X100866056Y-122990971D01*
X100866074Y-122990976D01*
X100866592Y-122991155D01*
X100873074Y-122993591D01*
X100882191Y-122997308D01*
X100883369Y-122997427D01*
X100899757Y-123000197D01*
X100906617Y-123001828D01*
X100909830Y-123002638D01*
X100924619Y-123006580D01*
X100937109Y-123010620D01*
X100940190Y-123011797D01*
X100964102Y-123017198D01*
X100968726Y-123018337D01*
X100992397Y-123024647D01*
X100995666Y-123025033D01*
X101008620Y-123027255D01*
X101016275Y-123028985D01*
X101025118Y-123031542D01*
X101025123Y-123031525D01*
X101029458Y-123032721D01*
X101029463Y-123032723D01*
X101057918Y-123038430D01*
X101060836Y-123039052D01*
X101089119Y-123045442D01*
X101089124Y-123045443D01*
X101093566Y-123046118D01*
X101093563Y-123046135D01*
X101102661Y-123047404D01*
X101116986Y-123050277D01*
X101123947Y-123052208D01*
X101124027Y-123051905D01*
X101128379Y-123053040D01*
X101128385Y-123053041D01*
X101128391Y-123053043D01*
X101156164Y-123058204D01*
X101159022Y-123058838D01*
X101161753Y-123059338D01*
X101161758Y-123059340D01*
X101165504Y-123060026D01*
X101167515Y-123060412D01*
X101193354Y-123065595D01*
X101193362Y-123065595D01*
X101197830Y-123066164D01*
X101197797Y-123066421D01*
X101204995Y-123067281D01*
X101232674Y-123072426D01*
X101232677Y-123072426D01*
X101235410Y-123072934D01*
X101238317Y-123073363D01*
X101328874Y-123089951D01*
X101351419Y-123094081D01*
X101351846Y-123094160D01*
X101408972Y-123104828D01*
X101472263Y-123136995D01*
X101503162Y-123182731D01*
X101512385Y-123206276D01*
X101512947Y-123207737D01*
X101514815Y-123212686D01*
X101520157Y-123283482D01*
X101500840Y-123328450D01*
X101470726Y-123372355D01*
X101465937Y-123378878D01*
X101465867Y-123378966D01*
X101446700Y-123407319D01*
X101446157Y-123408117D01*
X101426728Y-123436386D01*
X101426613Y-123436583D01*
X101422361Y-123443323D01*
X101402049Y-123473371D01*
X101397325Y-123479496D01*
X101397476Y-123479611D01*
X101394760Y-123483190D01*
X101377593Y-123509520D01*
X101376436Y-123511262D01*
X101358878Y-123537237D01*
X101356632Y-123541133D01*
X101356466Y-123541037D01*
X101352659Y-123547766D01*
X101338130Y-123570050D01*
X101333082Y-123576849D01*
X101333163Y-123576908D01*
X101330515Y-123580551D01*
X101314551Y-123606169D01*
X101313167Y-123608340D01*
X101296699Y-123633600D01*
X101294514Y-123637541D01*
X101294425Y-123637491D01*
X101290392Y-123644942D01*
X101282777Y-123657163D01*
X101274847Y-123668459D01*
X101273854Y-123669720D01*
X101260752Y-123692382D01*
X101258610Y-123695948D01*
X101244789Y-123718129D01*
X101244779Y-123718147D01*
X101244130Y-123719623D01*
X101237887Y-123731932D01*
X101231844Y-123742384D01*
X101228113Y-123748436D01*
X101217878Y-123764035D01*
X101214003Y-123772309D01*
X101208989Y-123781915D01*
X101202174Y-123793706D01*
X101201934Y-123793567D01*
X101195666Y-123804219D01*
X101189116Y-123813569D01*
X101177017Y-123849425D01*
X101171754Y-123862542D01*
X101171441Y-123863210D01*
X101171292Y-123863599D01*
X101166988Y-123873515D01*
X101157208Y-123893635D01*
X101157207Y-123893641D01*
X101152361Y-123922416D01*
X101148665Y-123938135D01*
X101139286Y-123968987D01*
X101139285Y-123968992D01*
X101139066Y-123991999D01*
X101137324Y-124011713D01*
X101132688Y-124039247D01*
X101132688Y-124039253D01*
X101135414Y-124062094D01*
X101136202Y-124082041D01*
X101135285Y-124105030D01*
X101135286Y-124105033D01*
X101135796Y-124107067D01*
X101137113Y-124113930D01*
X101140124Y-124124559D01*
X101141108Y-124128245D01*
X101143356Y-124137207D01*
X101146254Y-124152930D01*
X101150185Y-124185869D01*
X101150185Y-124185871D01*
X101159237Y-124207022D01*
X101165611Y-124225934D01*
X101171210Y-124248256D01*
X101180812Y-124264592D01*
X101187299Y-124277204D01*
X101190218Y-124283763D01*
X101217503Y-124327133D01*
X101219453Y-124330338D01*
X101242345Y-124369285D01*
X101246032Y-124375558D01*
X101248494Y-124377869D01*
X101258271Y-124388142D01*
X101261723Y-124392204D01*
X101269887Y-124401811D01*
X101271051Y-124403201D01*
X101291154Y-124427560D01*
X101297537Y-124436016D01*
X101297662Y-124436172D01*
X101297663Y-124436173D01*
X101300848Y-124439618D01*
X101305503Y-124444946D01*
X101315234Y-124456738D01*
X101326194Y-124468073D01*
X101332152Y-124475085D01*
X101335442Y-124477991D01*
X101344532Y-124486878D01*
X101349612Y-124492374D01*
X101354987Y-124498954D01*
X101355066Y-124498889D01*
X101357941Y-124502336D01*
X101375343Y-124520404D01*
X101378865Y-124524060D01*
X101380615Y-124525914D01*
X101384449Y-124530062D01*
X101401108Y-124548085D01*
X101404384Y-124551156D01*
X101404313Y-124551231D01*
X101410556Y-124556964D01*
X101422004Y-124568850D01*
X101426894Y-124574233D01*
X101429504Y-124577279D01*
X101443315Y-124591239D01*
X101451675Y-124599690D01*
X101452288Y-124600309D01*
X101453447Y-124601495D01*
X101476015Y-124624927D01*
X101476020Y-124624932D01*
X101479011Y-124627624D01*
X101484290Y-124632660D01*
X101502559Y-124651126D01*
X101507781Y-124656736D01*
X101509189Y-124658343D01*
X101509190Y-124658345D01*
X101525966Y-124674945D01*
X101532856Y-124681762D01*
X101533811Y-124682717D01*
X101557250Y-124706411D01*
X101558876Y-124707836D01*
X101564471Y-124713046D01*
X101586619Y-124734961D01*
X101591940Y-124740559D01*
X101593127Y-124741887D01*
X101617131Y-124765163D01*
X101618040Y-124766054D01*
X101641866Y-124789629D01*
X101641872Y-124789634D01*
X101641882Y-124789644D01*
X101641893Y-124789652D01*
X101643223Y-124790792D01*
X101648931Y-124795997D01*
X101659828Y-124806563D01*
X101670341Y-124816757D01*
X101675589Y-124822159D01*
X101677408Y-124824147D01*
X101677419Y-124824160D01*
X101682585Y-124829055D01*
X101701445Y-124846928D01*
X101702489Y-124847929D01*
X101726176Y-124870897D01*
X101728243Y-124872633D01*
X101733880Y-124877662D01*
X101750104Y-124893035D01*
X101755224Y-124898547D01*
X101755385Y-124898396D01*
X101758470Y-124901664D01*
X101758472Y-124901666D01*
X101758474Y-124901668D01*
X101770889Y-124913070D01*
X101781778Y-124923071D01*
X101783212Y-124924409D01*
X101806314Y-124946299D01*
X101809798Y-124949157D01*
X101809660Y-124949324D01*
X101815510Y-124954052D01*
X101824408Y-124962223D01*
X101832790Y-124970870D01*
X101834281Y-124972368D01*
X101855590Y-124990920D01*
X101858082Y-124993148D01*
X101871025Y-125005035D01*
X101878871Y-125012240D01*
X101880526Y-125013555D01*
X101890034Y-125020908D01*
X101895642Y-125025790D01*
X101902774Y-125032503D01*
X101907809Y-125037626D01*
X101911079Y-125040953D01*
X101923327Y-125050290D01*
X101941693Y-125067442D01*
X101948108Y-125074761D01*
X101987282Y-125099623D01*
X101996136Y-125105791D01*
X102003505Y-125111409D01*
X102019662Y-125120415D01*
X102025802Y-125124071D01*
X102041453Y-125134004D01*
X102041458Y-125134006D01*
X102041461Y-125134008D01*
X102045419Y-125136141D01*
X102045380Y-125136213D01*
X102057187Y-125142625D01*
X102078948Y-125156647D01*
X102078950Y-125156647D01*
X102083358Y-125158667D01*
X102091613Y-125162134D01*
X102091659Y-125162017D01*
X102100068Y-125165237D01*
X102100073Y-125165240D01*
X102129175Y-125171836D01*
X102136124Y-125173622D01*
X102150904Y-125177871D01*
X102151733Y-125178112D01*
X102160573Y-125180719D01*
X102220577Y-125198415D01*
X102220578Y-125198415D01*
X102220646Y-125198435D01*
X102221758Y-125198589D01*
X102222606Y-125198709D01*
X102224015Y-125198913D01*
X102224099Y-125198912D01*
X102224101Y-125198913D01*
X102295862Y-125198505D01*
X102296432Y-125198504D01*
X102368238Y-125198590D01*
X102368238Y-125198589D01*
X102368314Y-125198590D01*
X102369579Y-125198401D01*
X102370440Y-125198276D01*
X102371681Y-125198098D01*
X102371754Y-125198076D01*
X102371759Y-125198076D01*
X102427414Y-125181389D01*
X102444311Y-125177937D01*
X102447564Y-125177090D01*
X102447573Y-125177090D01*
X102454314Y-125174260D01*
X102467698Y-125169512D01*
X102474354Y-125167567D01*
X102474363Y-125167562D01*
X102474670Y-125167473D01*
X102481724Y-125165106D01*
X102513200Y-125155671D01*
X102530214Y-125144598D01*
X102545565Y-125136468D01*
X102545499Y-125136337D01*
X102549495Y-125134313D01*
X102549507Y-125134305D01*
X102549516Y-125134302D01*
X102549986Y-125134019D01*
X102562612Y-125127387D01*
X102563103Y-125127164D01*
X102586005Y-125112482D01*
X102589124Y-125110547D01*
X102596515Y-125106115D01*
X102608397Y-125099828D01*
X102610677Y-125098774D01*
X102631860Y-125085013D01*
X102635687Y-125082625D01*
X102639150Y-125080548D01*
X102657348Y-125069635D01*
X102658794Y-125068458D01*
X102676837Y-125056934D01*
X102676572Y-125056477D01*
X102680454Y-125054225D01*
X102680468Y-125054219D01*
X102705424Y-125037260D01*
X102707402Y-125035945D01*
X102732751Y-125019481D01*
X102732755Y-125019477D01*
X102736340Y-125016766D01*
X102736420Y-125016872D01*
X102741815Y-125012677D01*
X102758292Y-125001339D01*
X102758833Y-125000970D01*
X102785180Y-124983066D01*
X102787750Y-124981320D01*
X102787752Y-124981318D01*
X102788435Y-124980854D01*
X102793621Y-124977028D01*
X102843734Y-124942544D01*
X102942296Y-124875110D01*
X102942449Y-124875007D01*
X102954753Y-124866627D01*
X102962826Y-124861129D01*
X103030386Y-124839315D01*
X103079046Y-124849650D01*
X103079706Y-124847960D01*
X103083889Y-124849592D01*
X103083901Y-124849598D01*
X103084846Y-124849891D01*
X103085113Y-124849974D01*
X103091987Y-124852325D01*
X103124333Y-124864439D01*
X103126997Y-124865471D01*
X103154386Y-124876443D01*
X103154398Y-124876446D01*
X103158681Y-124877817D01*
X103158664Y-124877869D01*
X103161204Y-124878650D01*
X103161220Y-124878597D01*
X103165539Y-124879871D01*
X103165541Y-124879871D01*
X103165548Y-124879874D01*
X103168369Y-124880491D01*
X103185066Y-124885377D01*
X103212776Y-124895614D01*
X103230691Y-124896838D01*
X103251821Y-124900102D01*
X103261822Y-124902531D01*
X103261823Y-124902530D01*
X103261824Y-124902531D01*
X103264937Y-124902383D01*
X103284756Y-124901443D01*
X103299871Y-124901633D01*
X103357770Y-124905854D01*
X103357774Y-124905852D01*
X103357803Y-124905855D01*
X103358806Y-124905781D01*
X103359313Y-124905744D01*
X103360068Y-124905690D01*
X103360087Y-124905685D01*
X103360092Y-124905686D01*
X103394671Y-124898049D01*
X103400470Y-124897278D01*
X103400464Y-124897242D01*
X103409310Y-124895538D01*
X103409317Y-124895538D01*
X103409322Y-124895535D01*
X103410112Y-124895384D01*
X103422210Y-124891967D01*
X103431039Y-124890018D01*
X103502098Y-124874661D01*
X103502102Y-124874658D01*
X103502128Y-124874653D01*
X103503042Y-124874310D01*
X103503524Y-124874130D01*
X103504253Y-124873858D01*
X103504275Y-124873845D01*
X103504279Y-124873845D01*
X103567902Y-124838843D01*
X103631792Y-124804069D01*
X103631795Y-124804065D01*
X103631817Y-124804054D01*
X103632478Y-124803557D01*
X103632869Y-124803264D01*
X103633631Y-124802694D01*
X103633651Y-124802673D01*
X103633654Y-124802672D01*
X103684832Y-124751171D01*
X103688792Y-124747220D01*
X103700163Y-124737170D01*
X103708151Y-124730928D01*
X103709638Y-124728851D01*
X103723098Y-124713007D01*
X103736344Y-124699798D01*
X103750542Y-124673876D01*
X103759932Y-124659238D01*
X103767689Y-124648809D01*
X103767693Y-124648802D01*
X103770114Y-124645009D01*
X103770260Y-124645102D01*
X103770332Y-124644987D01*
X103770184Y-124644897D01*
X103772540Y-124641057D01*
X103775776Y-124634826D01*
X103786872Y-124613455D01*
X103787917Y-124611486D01*
X103789548Y-124608476D01*
X103801683Y-124586082D01*
X103804421Y-124581530D01*
X103806231Y-124578326D01*
X103806231Y-124578324D01*
X103806236Y-124578318D01*
X103807166Y-124576354D01*
X103810244Y-124570290D01*
X103817459Y-124556978D01*
X103820369Y-124551609D01*
X103820369Y-124551604D01*
X103821051Y-124549762D01*
X103827427Y-124535345D01*
X103830170Y-124530062D01*
X103830602Y-124529231D01*
X103831466Y-124526757D01*
X103836563Y-124514331D01*
X103837814Y-124511693D01*
X103838988Y-124509214D01*
X103842718Y-124502489D01*
X103842540Y-124502393D01*
X103844692Y-124498431D01*
X103857685Y-124469808D01*
X103858517Y-124468011D01*
X103872044Y-124439475D01*
X103872048Y-124439460D01*
X103873677Y-124435278D01*
X103873864Y-124435351D01*
X103876587Y-124428171D01*
X103885611Y-124408293D01*
X103889037Y-124401329D01*
X103889723Y-124400034D01*
X103889739Y-124400009D01*
X103903345Y-124369242D01*
X103903832Y-124368156D01*
X103909073Y-124356612D01*
X103917726Y-124337553D01*
X103917731Y-124337535D01*
X103918246Y-124336147D01*
X103921179Y-124328919D01*
X103937203Y-124292687D01*
X103940422Y-124286003D01*
X103940560Y-124285685D01*
X103940565Y-124285677D01*
X103954449Y-124253696D01*
X103954663Y-124253210D01*
X103955447Y-124251435D01*
X103968641Y-124221605D01*
X103968642Y-124221598D01*
X103968769Y-124221313D01*
X103971505Y-124214412D01*
X103992765Y-124165441D01*
X103995283Y-124160129D01*
X103995731Y-124159079D01*
X103995736Y-124159073D01*
X104009592Y-124126683D01*
X104018109Y-124107067D01*
X104024161Y-124093129D01*
X104026310Y-124087602D01*
X104050867Y-124030204D01*
X104053039Y-124025566D01*
X104053631Y-124024163D01*
X104053634Y-124024159D01*
X104067450Y-123991442D01*
X104081432Y-123958762D01*
X104081433Y-123958755D01*
X104082038Y-123957343D01*
X104083875Y-123952548D01*
X104109868Y-123890999D01*
X104111945Y-123886512D01*
X104114902Y-123879421D01*
X104126229Y-123852263D01*
X104140111Y-123819392D01*
X104140112Y-123819386D01*
X104140744Y-123817891D01*
X104142494Y-123813261D01*
X104168118Y-123751820D01*
X104170284Y-123747082D01*
X104170849Y-123745708D01*
X104170853Y-123745702D01*
X104176765Y-123731333D01*
X104221180Y-123675950D01*
X104288491Y-123653370D01*
X104357323Y-123670765D01*
X104405824Y-123722613D01*
X104409520Y-123730642D01*
X104413352Y-123739801D01*
X104413506Y-123740172D01*
X104427581Y-123774255D01*
X104429708Y-123778898D01*
X104455556Y-123840681D01*
X104457306Y-123845293D01*
X104464613Y-123862542D01*
X104471868Y-123879669D01*
X104476620Y-123891027D01*
X104486197Y-123913921D01*
X104488261Y-123918373D01*
X104514102Y-123979380D01*
X104514136Y-123979459D01*
X104516019Y-123984351D01*
X104530372Y-124017794D01*
X104530605Y-124018340D01*
X104545022Y-124052374D01*
X104547249Y-124057123D01*
X104571310Y-124113188D01*
X104573520Y-124118845D01*
X104587896Y-124151841D01*
X104588170Y-124152475D01*
X104602368Y-124185559D01*
X104604979Y-124191049D01*
X104625382Y-124237881D01*
X104628274Y-124245145D01*
X104642300Y-124276719D01*
X104642662Y-124277541D01*
X104656461Y-124309212D01*
X104659851Y-124316227D01*
X104674640Y-124349517D01*
X104677536Y-124356612D01*
X104678254Y-124358535D01*
X104678255Y-124358538D01*
X104678257Y-124358543D01*
X104686031Y-124375557D01*
X104692091Y-124388819D01*
X104692635Y-124390026D01*
X104706201Y-124420563D01*
X104707176Y-124422392D01*
X104710561Y-124429240D01*
X104715299Y-124439608D01*
X104718178Y-124445908D01*
X104721078Y-124453461D01*
X104721215Y-124453408D01*
X104722862Y-124457583D01*
X104722864Y-124457588D01*
X104736227Y-124485455D01*
X104737171Y-124487472D01*
X104749969Y-124515482D01*
X104752129Y-124519436D01*
X104751999Y-124519507D01*
X104755941Y-124526567D01*
X104757617Y-124530062D01*
X104762420Y-124541487D01*
X104764205Y-124546397D01*
X104764206Y-124546400D01*
X104764207Y-124546401D01*
X104766792Y-124551231D01*
X104768287Y-124554023D01*
X104777289Y-124576878D01*
X104778774Y-124580374D01*
X104790470Y-124599690D01*
X104796470Y-124610825D01*
X104796611Y-124611121D01*
X104803918Y-124622115D01*
X104806772Y-124626613D01*
X104808246Y-124629048D01*
X104811539Y-124634826D01*
X104820867Y-124652250D01*
X104820870Y-124652255D01*
X104820874Y-124652262D01*
X104820878Y-124652268D01*
X104820881Y-124652272D01*
X104825614Y-124658706D01*
X104831895Y-124668100D01*
X104836040Y-124674945D01*
X104847774Y-124689242D01*
X104855308Y-124699425D01*
X104878353Y-124734093D01*
X104878355Y-124734096D01*
X104879115Y-124734734D01*
X104885519Y-124740654D01*
X104886390Y-124741317D01*
X104890084Y-124744130D01*
X104894740Y-124747855D01*
X104916411Y-124766054D01*
X104924551Y-124772890D01*
X104928538Y-124776384D01*
X104957934Y-124803264D01*
X104973088Y-124817121D01*
X104980540Y-124822197D01*
X104980346Y-124822481D01*
X104983593Y-124824594D01*
X104983776Y-124824301D01*
X104991430Y-124829055D01*
X105046710Y-124853274D01*
X105051459Y-124855476D01*
X105105719Y-124882030D01*
X105105720Y-124882030D01*
X105105722Y-124882031D01*
X105114300Y-124884801D01*
X105114194Y-124885128D01*
X105117896Y-124886237D01*
X105117988Y-124885906D01*
X105126675Y-124888310D01*
X105126679Y-124888312D01*
X105186551Y-124895977D01*
X105191749Y-124896754D01*
X105251263Y-124906941D01*
X105251270Y-124906940D01*
X105260278Y-124907182D01*
X105260268Y-124907526D01*
X105264142Y-124907547D01*
X105264137Y-124907203D01*
X105273142Y-124907064D01*
X105273142Y-124907063D01*
X105273144Y-124907064D01*
X105332779Y-124897546D01*
X105337961Y-124896831D01*
X105397929Y-124889839D01*
X105434067Y-124874488D01*
X105448977Y-124869234D01*
X105467434Y-124864009D01*
X105467443Y-124864004D01*
X105471678Y-124862473D01*
X105475342Y-124861094D01*
X105479520Y-124859460D01*
X105479541Y-124859454D01*
X105497716Y-124850811D01*
X105567825Y-124839620D01*
X105622838Y-124860517D01*
X105684524Y-124902605D01*
X105684707Y-124902827D01*
X105684753Y-124902761D01*
X105778957Y-124967343D01*
X105792566Y-124976722D01*
X105798587Y-124981140D01*
X105801054Y-124983066D01*
X105828394Y-125001425D01*
X105829581Y-125002233D01*
X105856637Y-125020880D01*
X105856642Y-125020883D01*
X105856648Y-125020887D01*
X105856653Y-125020889D01*
X105859328Y-125022464D01*
X105865632Y-125026430D01*
X105868903Y-125028627D01*
X105880186Y-125037162D01*
X105880732Y-125037626D01*
X105890302Y-125043640D01*
X105903606Y-125052001D01*
X105906806Y-125054080D01*
X105929272Y-125069167D01*
X105929919Y-125069478D01*
X105942297Y-125076315D01*
X105944173Y-125077494D01*
X105953581Y-125084019D01*
X105956324Y-125086112D01*
X105959700Y-125088689D01*
X105963457Y-125091152D01*
X105963453Y-125091156D01*
X105972268Y-125096825D01*
X105973904Y-125098028D01*
X105973910Y-125098031D01*
X105973912Y-125098033D01*
X105989811Y-125106536D01*
X105997417Y-125110955D01*
X105999860Y-125112491D01*
X106003824Y-125114603D01*
X106003672Y-125114887D01*
X106003683Y-125114894D01*
X106003590Y-125115040D01*
X106003418Y-125115364D01*
X106014968Y-125122558D01*
X106015143Y-125122273D01*
X106022822Y-125126980D01*
X106022823Y-125126980D01*
X106022825Y-125126982D01*
X106041125Y-125134873D01*
X106052612Y-125140536D01*
X106063044Y-125146358D01*
X106063047Y-125146359D01*
X106063056Y-125146364D01*
X106067117Y-125148264D01*
X106067045Y-125148417D01*
X106067209Y-125148492D01*
X106067278Y-125148338D01*
X106071390Y-125150172D01*
X106071401Y-125150178D01*
X106100655Y-125160801D01*
X106102677Y-125161557D01*
X106103328Y-125161807D01*
X106108010Y-125163713D01*
X106158417Y-125185449D01*
X106205008Y-125191137D01*
X106215443Y-125192858D01*
X106261403Y-125202442D01*
X106270537Y-125201709D01*
X106295882Y-125202233D01*
X106304989Y-125203346D01*
X106351302Y-125195676D01*
X106361789Y-125194389D01*
X106408591Y-125190636D01*
X106417152Y-125187357D01*
X106441630Y-125180719D01*
X106442852Y-125180516D01*
X106450666Y-125179223D01*
X106492940Y-125158817D01*
X106502647Y-125154626D01*
X106524243Y-125146358D01*
X106546490Y-125137841D01*
X106588482Y-125105834D01*
X106597805Y-125099372D01*
X106601857Y-125096825D01*
X106616843Y-125087406D01*
X106617630Y-125086737D01*
X106628836Y-125078250D01*
X106629697Y-125077671D01*
X106648571Y-125060597D01*
X106656713Y-125053834D01*
X106667495Y-125045616D01*
X106669684Y-125043645D01*
X106669693Y-125043640D01*
X106690209Y-125025176D01*
X106692867Y-125022854D01*
X106713855Y-125005035D01*
X106713992Y-125004879D01*
X106724114Y-124994666D01*
X106726135Y-124992847D01*
X106731941Y-124988267D01*
X106731792Y-124988081D01*
X106735287Y-124985274D01*
X106735298Y-124985267D01*
X106758757Y-124963508D01*
X106760101Y-124962281D01*
X106783823Y-124940935D01*
X106783828Y-124940927D01*
X106786951Y-124937688D01*
X106787123Y-124937854D01*
X106792212Y-124932480D01*
X106806216Y-124919491D01*
X106811982Y-124914462D01*
X106813666Y-124913079D01*
X106813680Y-124913070D01*
X106838002Y-124890018D01*
X106838687Y-124889376D01*
X106863217Y-124866626D01*
X106863217Y-124866625D01*
X106864723Y-124865014D01*
X106870125Y-124859572D01*
X106876783Y-124853262D01*
X106895212Y-124835795D01*
X106901257Y-124830424D01*
X106901279Y-124830404D01*
X106901293Y-124830395D01*
X106926196Y-124806433D01*
X106926544Y-124806100D01*
X106951613Y-124782343D01*
X106954890Y-124779238D01*
X106955022Y-124779377D01*
X106955781Y-124778645D01*
X106955723Y-124778585D01*
X106969383Y-124765163D01*
X106982764Y-124752014D01*
X106983669Y-124751136D01*
X107007736Y-124727980D01*
X107009068Y-124726501D01*
X107014405Y-124720925D01*
X107014967Y-124720373D01*
X107050077Y-124685876D01*
X107055995Y-124680755D01*
X107055874Y-124680618D01*
X107059246Y-124677644D01*
X107059253Y-124677640D01*
X107081203Y-124655317D01*
X107082701Y-124653822D01*
X107091903Y-124644781D01*
X107104964Y-124631949D01*
X107104974Y-124631934D01*
X107107945Y-124628569D01*
X107108081Y-124628689D01*
X107113206Y-124622776D01*
X107113856Y-124622115D01*
X107138897Y-124596650D01*
X107145460Y-124590737D01*
X107145419Y-124590693D01*
X107148729Y-124587642D01*
X107155563Y-124580374D01*
X107169040Y-124566042D01*
X107170875Y-124564133D01*
X107191674Y-124542985D01*
X107191680Y-124542976D01*
X107194597Y-124539554D01*
X107194643Y-124539593D01*
X107200292Y-124532807D01*
X107215570Y-124516561D01*
X107225226Y-124507328D01*
X107227329Y-124505521D01*
X107243773Y-124486692D01*
X107246856Y-124483291D01*
X107247874Y-124482209D01*
X107263977Y-124465086D01*
X107265573Y-124462810D01*
X107273813Y-124452298D01*
X107286497Y-124437777D01*
X107290818Y-124433077D01*
X107296154Y-124427560D01*
X107305053Y-124418360D01*
X107309322Y-124412453D01*
X107316525Y-124403398D01*
X107321326Y-124397902D01*
X107325021Y-124392200D01*
X107339223Y-124374141D01*
X107357339Y-124354991D01*
X107357338Y-124354991D01*
X107357341Y-124354989D01*
X107378051Y-124314421D01*
X107386592Y-124300120D01*
X107400241Y-124280365D01*
X107404876Y-124266326D01*
X107412940Y-124247308D01*
X107422596Y-124228904D01*
X107428805Y-124197873D01*
X107433127Y-124181850D01*
X107433583Y-124180519D01*
X107433586Y-124180501D01*
X107434062Y-124178701D01*
X107436250Y-124171321D01*
X107446544Y-124140153D01*
X107447223Y-124119794D01*
X107447370Y-124115382D01*
X107449485Y-124096218D01*
X107452160Y-124082041D01*
X107454078Y-124071877D01*
X107450969Y-124040635D01*
X107450421Y-124023957D01*
X107450609Y-124018340D01*
X107451469Y-123992574D01*
X107451251Y-123991730D01*
X107448089Y-123979459D01*
X107445285Y-123968582D01*
X107441916Y-123949608D01*
X107439463Y-123924941D01*
X107436811Y-123918393D01*
X107427146Y-123894524D01*
X107424471Y-123887290D01*
X107423878Y-123885523D01*
X107423876Y-123885515D01*
X107410949Y-123854512D01*
X107410595Y-123853652D01*
X107392057Y-123807869D01*
X107391610Y-123806747D01*
X107388993Y-123800101D01*
X107388003Y-123797859D01*
X107384042Y-123788076D01*
X107384037Y-123788070D01*
X107384037Y-123788069D01*
X107382454Y-123786072D01*
X107372985Y-123772353D01*
X107369757Y-123766942D01*
X107368492Y-123764771D01*
X107359933Y-123749751D01*
X107353953Y-123737832D01*
X107352819Y-123735236D01*
X107339668Y-123714017D01*
X107337303Y-123710037D01*
X107324972Y-123688396D01*
X107324966Y-123688388D01*
X107323231Y-123686155D01*
X107315619Y-123675211D01*
X107310571Y-123667066D01*
X107306538Y-123659573D01*
X107306452Y-123659621D01*
X107304278Y-123655679D01*
X107287892Y-123630421D01*
X107286539Y-123628288D01*
X107270626Y-123602612D01*
X107270622Y-123602607D01*
X107270617Y-123602599D01*
X107267981Y-123598954D01*
X107268060Y-123598896D01*
X107263005Y-123592059D01*
X107253139Y-123576849D01*
X107251062Y-123573647D01*
X107247366Y-123567073D01*
X107247180Y-123567180D01*
X107244944Y-123563273D01*
X107227225Y-123536879D01*
X107226271Y-123535433D01*
X107208943Y-123508722D01*
X107208942Y-123508721D01*
X107208935Y-123508710D01*
X107206229Y-123505128D01*
X107206400Y-123504998D01*
X107201803Y-123499010D01*
X107183259Y-123471388D01*
X107179101Y-123464755D01*
X107178509Y-123463742D01*
X107162816Y-123440826D01*
X107162097Y-123439692D01*
X107157313Y-123432725D01*
X107156617Y-123431701D01*
X107139950Y-123406874D01*
X107139946Y-123406868D01*
X107139221Y-123405939D01*
X107134599Y-123399619D01*
X107116719Y-123373510D01*
X107115920Y-123372429D01*
X107085760Y-123328497D01*
X107063697Y-123261018D01*
X107072257Y-123211389D01*
X107083386Y-123182867D01*
X107126782Y-123126677D01*
X107177507Y-123104833D01*
X107209682Y-123098792D01*
X107347981Y-123073393D01*
X107355747Y-123072217D01*
X107357518Y-123072004D01*
X107357527Y-123072004D01*
X107387750Y-123066164D01*
X107390369Y-123065658D01*
X107391671Y-123065414D01*
X107398333Y-123064198D01*
X107424438Y-123059439D01*
X107424455Y-123059433D01*
X107426346Y-123058947D01*
X107433818Y-123057263D01*
X107450907Y-123053962D01*
X107459699Y-123052808D01*
X107459692Y-123052755D01*
X107464154Y-123052116D01*
X107464160Y-123052116D01*
X107492986Y-123045865D01*
X107495751Y-123045299D01*
X107524709Y-123039705D01*
X107524715Y-123039702D01*
X107529054Y-123038539D01*
X107529067Y-123038590D01*
X107537618Y-123036188D01*
X107548095Y-123033917D01*
X107561945Y-123031714D01*
X107563000Y-123031607D01*
X107588914Y-123025129D01*
X107592683Y-123024249D01*
X107618820Y-123018584D01*
X107619806Y-123018217D01*
X107633218Y-123014057D01*
X107639959Y-123012373D01*
X107648680Y-123010519D01*
X107662484Y-123008096D01*
X107664551Y-123007418D01*
X107692552Y-123001654D01*
X107693391Y-123001579D01*
X107738024Y-122984010D01*
X107752276Y-122979359D01*
X107780283Y-122972035D01*
X107817670Y-122949550D01*
X107826681Y-122944623D01*
X107867902Y-122924230D01*
X107873665Y-122918913D01*
X107894154Y-122903555D01*
X107906824Y-122895937D01*
X107920693Y-122880861D01*
X107936110Y-122866676D01*
X107952286Y-122854107D01*
X107961443Y-122841404D01*
X107972802Y-122828590D01*
X107976436Y-122824122D01*
X107976442Y-122824117D01*
X107976445Y-122824111D01*
X107991783Y-122803591D01*
X108006800Y-122787270D01*
X108015861Y-122768895D01*
X108026655Y-122750945D01*
X108038636Y-122734327D01*
X108046465Y-122712125D01*
X108049112Y-122705263D01*
X108055870Y-122689162D01*
X108057183Y-122689713D01*
X108060681Y-122681343D01*
X108060521Y-122681275D01*
X108064060Y-122672990D01*
X108064060Y-122672988D01*
X108064062Y-122672986D01*
X108074631Y-122633396D01*
X108077527Y-122624036D01*
X108087742Y-122595071D01*
X108087761Y-122594708D01*
X108091848Y-122568916D01*
X108092582Y-122566170D01*
X108094859Y-122546966D01*
X108095844Y-122540238D01*
X108105537Y-122484635D01*
X108105537Y-122484631D01*
X108105589Y-122482872D01*
X108105657Y-122455975D01*
X108106084Y-122452378D01*
X108107797Y-122437951D01*
X108107586Y-122429417D01*
X108107800Y-122418337D01*
X108108710Y-122404012D01*
X108110283Y-122391121D01*
X108110419Y-122389859D01*
X108110422Y-122389845D01*
X108111440Y-122361794D01*
X108111611Y-122358378D01*
X108111692Y-122357104D01*
X108113388Y-122330427D01*
X108113386Y-122330412D01*
X108113377Y-122329164D01*
X108113097Y-122316172D01*
X108113829Y-122296025D01*
X108114614Y-122288128D01*
X108114448Y-122288113D01*
X108114850Y-122283635D01*
X108114853Y-122283619D01*
X108115426Y-122252533D01*
X108115484Y-122250427D01*
X108116614Y-122219352D01*
X108116612Y-122219334D01*
X108116455Y-122214860D01*
X108116621Y-122214854D01*
X108116270Y-122206880D01*
X108116773Y-122179684D01*
X108117377Y-122172439D01*
X108117122Y-122172420D01*
X108117460Y-122167947D01*
X108117462Y-122167936D01*
X108117596Y-122135722D01*
X108117617Y-122133966D01*
X108117656Y-122131890D01*
X108118212Y-122101826D01*
X108118211Y-122101820D01*
X108117974Y-122097331D01*
X108118225Y-122097317D01*
X108117789Y-122090061D01*
X108117836Y-122078793D01*
X108117918Y-122059182D01*
X108118159Y-122051914D01*
X108118417Y-122047735D01*
X108118421Y-122047710D01*
X108118113Y-122015364D01*
X108118109Y-122013783D01*
X108118246Y-121981291D01*
X108118242Y-121981268D01*
X108117960Y-121977065D01*
X108117681Y-121969803D01*
X108117399Y-121940131D01*
X108117810Y-121932626D01*
X108117586Y-121932616D01*
X108117793Y-121928119D01*
X108117796Y-121928102D01*
X108116997Y-121896218D01*
X108116966Y-121894453D01*
X108116665Y-121862654D01*
X108116664Y-121862652D01*
X108116302Y-121858170D01*
X108116526Y-121858151D01*
X108115855Y-121850673D01*
X108115254Y-121826674D01*
X108115563Y-121818050D01*
X108115479Y-121818048D01*
X108115591Y-121813551D01*
X108115590Y-121813549D01*
X108115592Y-121813539D01*
X108114203Y-121783617D01*
X108114109Y-121780970D01*
X108113986Y-121776059D01*
X108113361Y-121751078D01*
X108113360Y-121751072D01*
X108113360Y-121751068D01*
X108112928Y-121746602D01*
X108113012Y-121746593D01*
X108112088Y-121738009D01*
X108111328Y-121721618D01*
X108111419Y-121708252D01*
X108111583Y-121705513D01*
X108111582Y-121705509D01*
X108111583Y-121705504D01*
X108109505Y-121680538D01*
X108109212Y-121676012D01*
X108108053Y-121651009D01*
X108107535Y-121648305D01*
X108105719Y-121635048D01*
X108104934Y-121625617D01*
X108104211Y-121616926D01*
X108103843Y-121610522D01*
X108103197Y-121590171D01*
X108101901Y-121582829D01*
X108100424Y-121571415D01*
X108099809Y-121564013D01*
X108098280Y-121557361D01*
X108095618Y-121540776D01*
X108095241Y-121536710D01*
X108095412Y-121536694D01*
X108094351Y-121529336D01*
X108092983Y-121502397D01*
X108071773Y-121441738D01*
X108068199Y-121429584D01*
X108061610Y-121402135D01*
X108061161Y-121401354D01*
X108050724Y-121377939D01*
X108048707Y-121371796D01*
X108048705Y-121371793D01*
X108048704Y-121371790D01*
X108029315Y-121343629D01*
X108021288Y-121330272D01*
X108018269Y-121324461D01*
X108015665Y-121320830D01*
X108008797Y-121310154D01*
X107988086Y-121274081D01*
X107977570Y-121264006D01*
X107962334Y-121246435D01*
X107953858Y-121234611D01*
X107953855Y-121234608D01*
X107921080Y-121209000D01*
X107911490Y-121200697D01*
X107881464Y-121171931D01*
X107881461Y-121171928D01*
X107868540Y-121165228D01*
X107848974Y-121152663D01*
X107837506Y-121143703D01*
X107837502Y-121143700D01*
X107837500Y-121143699D01*
X107837498Y-121143698D01*
X107837496Y-121143697D01*
X107798830Y-121128359D01*
X107787298Y-121123098D01*
X107785500Y-121122166D01*
X107783312Y-121121031D01*
X107783304Y-121121028D01*
X107761342Y-121113368D01*
X107756382Y-121111521D01*
X107744697Y-121106886D01*
X107700244Y-121089253D01*
X107700242Y-121089252D01*
X107700240Y-121089252D01*
X107695041Y-121088772D01*
X107682494Y-121086972D01*
X107669793Y-121084493D01*
X107663481Y-121083092D01*
X107660349Y-121082312D01*
X107649317Y-121078870D01*
X107646866Y-121078141D01*
X107619208Y-121072015D01*
X107616006Y-121071262D01*
X107603948Y-121068258D01*
X107588509Y-121064411D01*
X107586053Y-121063983D01*
X107574605Y-121062137D01*
X107570392Y-121061204D01*
X107563408Y-121059206D01*
X107563347Y-121059424D01*
X107559020Y-121058203D01*
X107527539Y-121051703D01*
X107525782Y-121051327D01*
X107506267Y-121047006D01*
X107494390Y-121044376D01*
X107494382Y-121044375D01*
X107489944Y-121043720D01*
X107489979Y-121043477D01*
X107482786Y-121042462D01*
X107462479Y-121038269D01*
X107455039Y-121036496D01*
X107453030Y-121035952D01*
X107420282Y-121029550D01*
X107418983Y-121029289D01*
X107386332Y-121022548D01*
X107384262Y-121022273D01*
X107376724Y-121021035D01*
X107341974Y-121014242D01*
X107334337Y-121012493D01*
X107300384Y-121006109D01*
X107299501Y-121005939D01*
X107265308Y-120999256D01*
X107258393Y-120998188D01*
X107235090Y-120993832D01*
X107235092Y-120993819D01*
X107234958Y-120993807D01*
X107195590Y-120986405D01*
X107194389Y-120986223D01*
X107149505Y-120977833D01*
X107086220Y-120945654D01*
X107050377Y-120884370D01*
X107053358Y-120813436D01*
X107068390Y-120783236D01*
X107080501Y-120765389D01*
X107094288Y-120745313D01*
X107096221Y-120742697D01*
X107097671Y-120740572D01*
X107097674Y-120740569D01*
X107117967Y-120710834D01*
X107138323Y-120681194D01*
X107138325Y-120681188D01*
X107139789Y-120679058D01*
X107141521Y-120676320D01*
X107164317Y-120642920D01*
X107168849Y-120636700D01*
X107169947Y-120635284D01*
X107169956Y-120635275D01*
X107188705Y-120607190D01*
X107189102Y-120606602D01*
X107208124Y-120578733D01*
X107208130Y-120578719D01*
X107209025Y-120577184D01*
X107213114Y-120570631D01*
X107228851Y-120547061D01*
X107233155Y-120541011D01*
X107235167Y-120538351D01*
X107235173Y-120538345D01*
X107243446Y-120525614D01*
X107253062Y-120510816D01*
X107253854Y-120509611D01*
X107272064Y-120482339D01*
X107272075Y-120482315D01*
X107273717Y-120479432D01*
X107277576Y-120473091D01*
X107284260Y-120462805D01*
X107289167Y-120456188D01*
X107289062Y-120456112D01*
X107291707Y-120452468D01*
X107291717Y-120452458D01*
X107307859Y-120426530D01*
X107309158Y-120424491D01*
X107310625Y-120422233D01*
X107325807Y-120398872D01*
X107325809Y-120398867D01*
X107327988Y-120394926D01*
X107328450Y-120395181D01*
X107338851Y-120377973D01*
X107341975Y-120373900D01*
X107341978Y-120373893D01*
X107344463Y-120370126D01*
X107344706Y-120370286D01*
X107348066Y-120364936D01*
X107350759Y-120361262D01*
X107350763Y-120361258D01*
X107361018Y-120342016D01*
X107375555Y-120320451D01*
X107376532Y-120319284D01*
X107387581Y-120293921D01*
X107393209Y-120282594D01*
X107398128Y-120273830D01*
X107398134Y-120273813D01*
X107400044Y-120269759D01*
X107400113Y-120269791D01*
X107401005Y-120267843D01*
X107400935Y-120267812D01*
X107402758Y-120263707D01*
X107402766Y-120263694D01*
X107411216Y-120240318D01*
X107414182Y-120232865D01*
X107435511Y-120183913D01*
X107435512Y-120183908D01*
X107435598Y-120183592D01*
X107437648Y-120172042D01*
X107437955Y-120170700D01*
X107437958Y-120170695D01*
X107439258Y-120155052D01*
X107439805Y-120149813D01*
X107441589Y-120135642D01*
X107443208Y-120125903D01*
X107453066Y-120078285D01*
X107452457Y-120070831D01*
X107453028Y-120044828D01*
X107453962Y-120037415D01*
X107453961Y-120037413D01*
X107453962Y-120037411D01*
X107446198Y-119989408D01*
X107445002Y-119979554D01*
X107444838Y-119977545D01*
X107441047Y-119931114D01*
X107438361Y-119924130D01*
X107431582Y-119899018D01*
X107430390Y-119891643D01*
X107423274Y-119876757D01*
X107409423Y-119847781D01*
X107405497Y-119838660D01*
X107388053Y-119793295D01*
X107388052Y-119793292D01*
X107388050Y-119793290D01*
X107388049Y-119793287D01*
X107356172Y-119751589D01*
X107350203Y-119743074D01*
X107335192Y-119719658D01*
X107335188Y-119719653D01*
X107332499Y-119716053D01*
X107332617Y-119715964D01*
X107332253Y-119715486D01*
X107332136Y-119715578D01*
X107329370Y-119712014D01*
X107309435Y-119689806D01*
X107303099Y-119682162D01*
X107295924Y-119672776D01*
X107291776Y-119668177D01*
X107290812Y-119666966D01*
X107290809Y-119666961D01*
X107290802Y-119666953D01*
X107272627Y-119647195D01*
X107270042Y-119644297D01*
X107253661Y-119625349D01*
X107252467Y-119623968D01*
X107251797Y-119623386D01*
X107241732Y-119613609D01*
X107241325Y-119613167D01*
X107236650Y-119607382D01*
X107236463Y-119607536D01*
X107233609Y-119604058D01*
X107211577Y-119580809D01*
X107210300Y-119579440D01*
X107188689Y-119555946D01*
X107185412Y-119552858D01*
X107185572Y-119552687D01*
X107180174Y-119547671D01*
X107170858Y-119537839D01*
X107165686Y-119532031D01*
X107164784Y-119530953D01*
X107141428Y-119506775D01*
X107140592Y-119505902D01*
X107117408Y-119481437D01*
X107116381Y-119480498D01*
X107110791Y-119475059D01*
X107093210Y-119456858D01*
X107087823Y-119450912D01*
X107087770Y-119450850D01*
X107063677Y-119426280D01*
X107063176Y-119425766D01*
X107039232Y-119400978D01*
X107039231Y-119400977D01*
X107039226Y-119400972D01*
X107039178Y-119400929D01*
X107033371Y-119395373D01*
X107011798Y-119373373D01*
X107006575Y-119367693D01*
X106982169Y-119343154D01*
X106981699Y-119342679D01*
X106957402Y-119317901D01*
X106957399Y-119317899D01*
X106957268Y-119317765D01*
X106951670Y-119312487D01*
X106930519Y-119291221D01*
X106925053Y-119285363D01*
X106924874Y-119285158D01*
X106900527Y-119261059D01*
X106899943Y-119260477D01*
X106875735Y-119236137D01*
X106875727Y-119236131D01*
X106875529Y-119235958D01*
X106869648Y-119230496D01*
X106853452Y-119214465D01*
X106848158Y-119208896D01*
X106846819Y-119207398D01*
X106844310Y-119204966D01*
X106822751Y-119184070D01*
X106821911Y-119183246D01*
X106802972Y-119164500D01*
X106798200Y-119159776D01*
X106796651Y-119158448D01*
X106790979Y-119153275D01*
X106783676Y-119146196D01*
X106778386Y-119140385D01*
X106778258Y-119140504D01*
X106775200Y-119137202D01*
X106772498Y-119134673D01*
X106752431Y-119115887D01*
X106750846Y-119114377D01*
X106728473Y-119092692D01*
X106728474Y-119092692D01*
X106728468Y-119092687D01*
X106728461Y-119092681D01*
X106725019Y-119089792D01*
X106725437Y-119089293D01*
X106710595Y-119075712D01*
X106708515Y-119073321D01*
X106708510Y-119073317D01*
X106708491Y-119073300D01*
X106697240Y-119062283D01*
X106696056Y-119060969D01*
X106696053Y-119060966D01*
X106696052Y-119060965D01*
X106677986Y-119045911D01*
X106672557Y-119041114D01*
X106669278Y-119038044D01*
X106669275Y-119038041D01*
X106669273Y-119038040D01*
X106669157Y-119037959D01*
X106660639Y-119031453D01*
X106643614Y-119017265D01*
X106641955Y-119015858D01*
X106637004Y-119011585D01*
X106629265Y-119004315D01*
X106614488Y-118989208D01*
X106569924Y-118964232D01*
X106563623Y-118960454D01*
X106539363Y-118944926D01*
X106525238Y-118935885D01*
X106519744Y-118933389D01*
X106500419Y-118925279D01*
X106485679Y-118917018D01*
X106485676Y-118917017D01*
X106471195Y-118913699D01*
X106449211Y-118906483D01*
X106435581Y-118900573D01*
X106394603Y-118895484D01*
X106382003Y-118893265D01*
X106341747Y-118884043D01*
X106341744Y-118884043D01*
X106326910Y-118884939D01*
X106303793Y-118884208D01*
X106289053Y-118882378D01*
X106289044Y-118882378D01*
X106248292Y-118889040D01*
X106235573Y-118890460D01*
X106197119Y-118892785D01*
X106194355Y-118892953D01*
X106180374Y-118897992D01*
X106157987Y-118903804D01*
X106143325Y-118906201D01*
X106106095Y-118924077D01*
X106094304Y-118929019D01*
X106090347Y-118930445D01*
X106090341Y-118930448D01*
X106069520Y-118941521D01*
X106064901Y-118943857D01*
X106042159Y-118954777D01*
X106038895Y-118956282D01*
X106036300Y-118957590D01*
X106010212Y-118970118D01*
X106010208Y-118970121D01*
X106005967Y-118973942D01*
X105990228Y-118986016D01*
X105960240Y-119005475D01*
X105958443Y-119006619D01*
X105949522Y-119012193D01*
X105931981Y-119023150D01*
X105928357Y-119025792D01*
X105928086Y-119025421D01*
X105919331Y-119031491D01*
X105919387Y-119031576D01*
X105887380Y-119052749D01*
X105886455Y-119053355D01*
X105858007Y-119071816D01*
X105857263Y-119072379D01*
X105850831Y-119076930D01*
X105834894Y-119087473D01*
X105829046Y-119091074D01*
X105806725Y-119106044D01*
X105799694Y-119110758D01*
X105799143Y-119111126D01*
X105769605Y-119130668D01*
X105764033Y-119134673D01*
X105734755Y-119154308D01*
X105730421Y-119157009D01*
X105699921Y-119177667D01*
X105699446Y-119177987D01*
X105668929Y-119198453D01*
X105664782Y-119201467D01*
X105659318Y-119205167D01*
X105657559Y-119206272D01*
X105624671Y-119228634D01*
X105624491Y-119228756D01*
X105592218Y-119250617D01*
X105590551Y-119251837D01*
X105554996Y-119276014D01*
X105487418Y-119297779D01*
X105418801Y-119279552D01*
X105370930Y-119227122D01*
X105360327Y-119195163D01*
X105351250Y-119147011D01*
X105351250Y-119147009D01*
X105272297Y-118728206D01*
X105271695Y-118725014D01*
X105269514Y-118701672D01*
X105269514Y-118687600D01*
X105269513Y-118687596D01*
X105257662Y-118647232D01*
X105254739Y-118635073D01*
X105254564Y-118634146D01*
X105253822Y-118630209D01*
X105246452Y-118608630D01*
X105244792Y-118603402D01*
X105227912Y-118545915D01*
X105224169Y-118537719D01*
X105224424Y-118537602D01*
X105222435Y-118533485D01*
X105222185Y-118533613D01*
X105218088Y-118525586D01*
X105183526Y-118476630D01*
X105180476Y-118472105D01*
X105148082Y-118421698D01*
X105148079Y-118421695D01*
X105142181Y-118414888D01*
X105142393Y-118414703D01*
X105139321Y-118411309D01*
X105139116Y-118411504D01*
X105132920Y-118404952D01*
X105085968Y-118367718D01*
X105081765Y-118364234D01*
X105036488Y-118325001D01*
X105036486Y-118324999D01*
X105028905Y-118320127D01*
X105029057Y-118319890D01*
X105025153Y-118317499D01*
X105025011Y-118317744D01*
X105017231Y-118313209D01*
X105017229Y-118313208D01*
X105017226Y-118313206D01*
X105017223Y-118313205D01*
X104961707Y-118290718D01*
X104956670Y-118288549D01*
X104902171Y-118263660D01*
X104893522Y-118261121D01*
X104893600Y-118260853D01*
X104889190Y-118259661D01*
X104889124Y-118259933D01*
X104880369Y-118257771D01*
X104820738Y-118251831D01*
X104815303Y-118251170D01*
X104792743Y-118247927D01*
X104792738Y-118247927D01*
X104787782Y-118247927D01*
X104775295Y-118247307D01*
X104733436Y-118243138D01*
X104719601Y-118245746D01*
X104696261Y-118247927D01*
X103890318Y-118247927D01*
X103866977Y-118245746D01*
X103853143Y-118243138D01*
X103853142Y-118243138D01*
X103811284Y-118247307D01*
X103798797Y-118247927D01*
X103793835Y-118247927D01*
X103771270Y-118251171D01*
X103765833Y-118251833D01*
X103706205Y-118257772D01*
X103697468Y-118259930D01*
X103697401Y-118259660D01*
X103692976Y-118260855D01*
X103693055Y-118261122D01*
X103684413Y-118263659D01*
X103629903Y-118288551D01*
X103624873Y-118290717D01*
X103569347Y-118313210D01*
X103561565Y-118317746D01*
X103561424Y-118317505D01*
X103557520Y-118319895D01*
X103557671Y-118320130D01*
X103550088Y-118325002D01*
X103504815Y-118364230D01*
X103500600Y-118367725D01*
X103453655Y-118404955D01*
X103447462Y-118411504D01*
X103447259Y-118411312D01*
X103444186Y-118414707D01*
X103444397Y-118414890D01*
X103438496Y-118421699D01*
X103406102Y-118472105D01*
X103403043Y-118476644D01*
X103383174Y-118504791D01*
X103368489Y-118525592D01*
X103364394Y-118533615D01*
X103364144Y-118533487D01*
X103362154Y-118537605D01*
X103362410Y-118537722D01*
X103358665Y-118545921D01*
X103341783Y-118603412D01*
X103340127Y-118608631D01*
X103332756Y-118630213D01*
X103332756Y-118630214D01*
X103331836Y-118635093D01*
X103328917Y-118647232D01*
X103317066Y-118687596D01*
X103317066Y-118701675D01*
X103314885Y-118725017D01*
X103248773Y-119075712D01*
X103246217Y-119089268D01*
X103244924Y-119096129D01*
X103226252Y-119195166D01*
X103193975Y-119258402D01*
X103132635Y-119294149D01*
X103061706Y-119291058D01*
X103031584Y-119276015D01*
X102996047Y-119251850D01*
X102993573Y-119250040D01*
X102961656Y-119228463D01*
X102961377Y-119228274D01*
X102929477Y-119206583D01*
X102926900Y-119204966D01*
X102912404Y-119195166D01*
X102890957Y-119180667D01*
X102885864Y-119176974D01*
X102860099Y-119159769D01*
X102855966Y-119157009D01*
X102855528Y-119156714D01*
X102825834Y-119136639D01*
X102820483Y-119133315D01*
X102819692Y-119132787D01*
X102794714Y-119116107D01*
X102788532Y-119111685D01*
X102788343Y-119111560D01*
X102788340Y-119111558D01*
X102768039Y-119098204D01*
X102759540Y-119092614D01*
X102758812Y-119092132D01*
X102756733Y-119090744D01*
X102730098Y-119072958D01*
X102730096Y-119072957D01*
X102729918Y-119072838D01*
X102723430Y-119068862D01*
X102712375Y-119061591D01*
X102706113Y-119057195D01*
X102704401Y-119055914D01*
X102704400Y-119055913D01*
X102676316Y-119037866D01*
X102675264Y-119037182D01*
X102643652Y-119016389D01*
X102643813Y-119016143D01*
X102637556Y-119011859D01*
X102637319Y-119012193D01*
X102633647Y-119009579D01*
X102608822Y-118994452D01*
X102606272Y-118992857D01*
X102600595Y-118989209D01*
X102581792Y-118977126D01*
X102581789Y-118977124D01*
X102578008Y-118974695D01*
X102578260Y-118974302D01*
X102566377Y-118966331D01*
X102553539Y-118955906D01*
X102553540Y-118955906D01*
X102508624Y-118937102D01*
X102501049Y-118933930D01*
X102495017Y-118931216D01*
X102477158Y-118922602D01*
X102477153Y-118922600D01*
X102477146Y-118922597D01*
X102469532Y-118920186D01*
X102458923Y-118916295D01*
X102428461Y-118903542D01*
X102417331Y-118898883D01*
X102417332Y-118898883D01*
X102406368Y-118897663D01*
X102382280Y-118892561D01*
X102371757Y-118889229D01*
X102360926Y-118889001D01*
X102326672Y-118888280D01*
X102315384Y-118887534D01*
X102270582Y-118882546D01*
X102270574Y-118882546D01*
X102259708Y-118884464D01*
X102235167Y-118886353D01*
X102224132Y-118886121D01*
X102224126Y-118886121D01*
X102180600Y-118897912D01*
X102169564Y-118900376D01*
X102125170Y-118908213D01*
X102125157Y-118908218D01*
X102115270Y-118913120D01*
X102092267Y-118921843D01*
X102081614Y-118924730D01*
X102081600Y-118924736D01*
X102061436Y-118937102D01*
X102049509Y-118943560D01*
X102046624Y-118944926D01*
X102039758Y-118949474D01*
X102026191Y-118957293D01*
X102026123Y-118957326D01*
X102026108Y-118957335D01*
X102009814Y-118968556D01*
X102004232Y-118972186D01*
X101955739Y-119001929D01*
X101955733Y-119001934D01*
X101949379Y-119008963D01*
X101941426Y-119017002D01*
X101924456Y-119032682D01*
X101922774Y-119034208D01*
X101914278Y-119041779D01*
X101903254Y-119050548D01*
X101902534Y-119051057D01*
X101902529Y-119051061D01*
X101883013Y-119069559D01*
X101880165Y-119072176D01*
X101860110Y-119090046D01*
X101860100Y-119090057D01*
X101859522Y-119090744D01*
X101849935Y-119100915D01*
X101849579Y-119101253D01*
X101843846Y-119106044D01*
X101843997Y-119106223D01*
X101840571Y-119109120D01*
X101817650Y-119131500D01*
X101816312Y-119132787D01*
X101793119Y-119154772D01*
X101790088Y-119158087D01*
X101789923Y-119157936D01*
X101784984Y-119163397D01*
X101775377Y-119172778D01*
X101769660Y-119178026D01*
X101768577Y-119178959D01*
X101744598Y-119202823D01*
X101743749Y-119203660D01*
X101719750Y-119227093D01*
X101718826Y-119228135D01*
X101713497Y-119233775D01*
X101695562Y-119251624D01*
X101689723Y-119257078D01*
X101689672Y-119257122D01*
X101665454Y-119281586D01*
X101664796Y-119282245D01*
X101640516Y-119306410D01*
X101640469Y-119306465D01*
X101635009Y-119312343D01*
X101613346Y-119334227D01*
X101607760Y-119339520D01*
X101583660Y-119364211D01*
X101583047Y-119364835D01*
X101558554Y-119389581D01*
X101553380Y-119395235D01*
X101532417Y-119416712D01*
X101526672Y-119422237D01*
X101526467Y-119422421D01*
X101502824Y-119447026D01*
X101502146Y-119447725D01*
X101478166Y-119472296D01*
X101477972Y-119472526D01*
X101472634Y-119478444D01*
X101456794Y-119494929D01*
X101451318Y-119500292D01*
X101449849Y-119501644D01*
X101426926Y-119526004D01*
X101426027Y-119526949D01*
X101402938Y-119550979D01*
X101401646Y-119552532D01*
X101396585Y-119558248D01*
X101389584Y-119565689D01*
X101383856Y-119571061D01*
X101383979Y-119571190D01*
X101380726Y-119574290D01*
X101359722Y-119597396D01*
X101358256Y-119598981D01*
X101336874Y-119621706D01*
X101334036Y-119625189D01*
X101333534Y-119624780D01*
X101320169Y-119639807D01*
X101317879Y-119641856D01*
X101317768Y-119641990D01*
X101306721Y-119653575D01*
X101306462Y-119653813D01*
X101291917Y-119671704D01*
X101287405Y-119676952D01*
X101283090Y-119681700D01*
X101280309Y-119685238D01*
X101280056Y-119685039D01*
X101262460Y-119705040D01*
X101256210Y-119710556D01*
X101256205Y-119710561D01*
X101248487Y-119722812D01*
X101243718Y-119729427D01*
X101243913Y-119729568D01*
X101238961Y-119736408D01*
X101236726Y-119739599D01*
X101220353Y-119766929D01*
X101219354Y-119768567D01*
X101200652Y-119798731D01*
X101200175Y-119799495D01*
X101177496Y-119835495D01*
X101167856Y-119869455D01*
X101162848Y-119883757D01*
X101149204Y-119916304D01*
X101149203Y-119916310D01*
X101146883Y-119937055D01*
X101142877Y-119957451D01*
X101139726Y-119968556D01*
X101137174Y-119977546D01*
X101137173Y-119977547D01*
X101137491Y-120012843D01*
X101136716Y-120027972D01*
X101132795Y-120063047D01*
X101132795Y-120063051D01*
X101132795Y-120063053D01*
X101136415Y-120083622D01*
X101138317Y-120104315D01*
X101138506Y-120125200D01*
X101141162Y-120133951D01*
X101147741Y-120155634D01*
X101148753Y-120158967D01*
X101152274Y-120173711D01*
X101158393Y-120208475D01*
X101158394Y-120208477D01*
X101185737Y-120263689D01*
X101187983Y-120268223D01*
X101189185Y-120270721D01*
X101190748Y-120274062D01*
X101192825Y-120278754D01*
X101200696Y-120297558D01*
X101201942Y-120300533D01*
X101204069Y-120304088D01*
X101210083Y-120315409D01*
X101211836Y-120319159D01*
X101211838Y-120319162D01*
X101211839Y-120319164D01*
X101213298Y-120321390D01*
X101220820Y-120334526D01*
X101223927Y-120340799D01*
X101223928Y-120340800D01*
X101229036Y-120348224D01*
X101228380Y-120348674D01*
X101234278Y-120356925D01*
X101234500Y-120356784D01*
X101251880Y-120384084D01*
X101253712Y-120387052D01*
X101268020Y-120410964D01*
X101268286Y-120411343D01*
X101276419Y-120422628D01*
X101278260Y-120425520D01*
X101281801Y-120431957D01*
X101282010Y-120431841D01*
X101284210Y-120435771D01*
X101297690Y-120456270D01*
X101301779Y-120462487D01*
X101302771Y-120464019D01*
X101303901Y-120465794D01*
X101319995Y-120491074D01*
X101322669Y-120494677D01*
X101322478Y-120494818D01*
X101326907Y-120500700D01*
X101337748Y-120517185D01*
X101341749Y-120523689D01*
X101342854Y-120525614D01*
X101361447Y-120553237D01*
X101362197Y-120554364D01*
X101380473Y-120582156D01*
X101381824Y-120583922D01*
X101386274Y-120590120D01*
X101405690Y-120618964D01*
X101409929Y-120625719D01*
X101429358Y-120654130D01*
X101429877Y-120654895D01*
X101449102Y-120683456D01*
X101453811Y-120689888D01*
X101467994Y-120710628D01*
X101467995Y-120710629D01*
X101468053Y-120710715D01*
X101517434Y-120783054D01*
X101539320Y-120850593D01*
X101521218Y-120919243D01*
X101468874Y-120967208D01*
X101436706Y-120977912D01*
X101417669Y-120981500D01*
X101417412Y-120981548D01*
X101392375Y-120986213D01*
X101388038Y-120986871D01*
X101351195Y-120993886D01*
X101350710Y-120993977D01*
X101314069Y-121000804D01*
X101309795Y-121001767D01*
X101269842Y-121009374D01*
X101262202Y-121010587D01*
X101260646Y-121010785D01*
X101260632Y-121010787D01*
X101260628Y-121010788D01*
X101227578Y-121017417D01*
X101226495Y-121017628D01*
X101193484Y-121023913D01*
X101191944Y-121024322D01*
X101184409Y-121026076D01*
X101168710Y-121029225D01*
X101156056Y-121031763D01*
X101148694Y-121033014D01*
X101145709Y-121033430D01*
X101113504Y-121040289D01*
X101112040Y-121040592D01*
X101079760Y-121047067D01*
X101076875Y-121047863D01*
X101069628Y-121049633D01*
X101057082Y-121052306D01*
X101049115Y-121053492D01*
X101049139Y-121053643D01*
X101044690Y-121054346D01*
X101028081Y-121058203D01*
X101014611Y-121061330D01*
X101012388Y-121061825D01*
X100982193Y-121068258D01*
X100982189Y-121068259D01*
X100977877Y-121069505D01*
X100977715Y-121068944D01*
X100958151Y-121073734D01*
X100954128Y-121074251D01*
X100931851Y-121080434D01*
X100926673Y-121081753D01*
X100904148Y-121086986D01*
X100904130Y-121086991D01*
X100899810Y-121088672D01*
X100887843Y-121092649D01*
X100877097Y-121095632D01*
X100877014Y-121095655D01*
X100842837Y-121105117D01*
X100842599Y-121105202D01*
X100842374Y-121105283D01*
X100840712Y-121105872D01*
X100830068Y-121109122D01*
X100807434Y-121114955D01*
X100807428Y-121114957D01*
X100778348Y-121132299D01*
X100770941Y-121136116D01*
X100771021Y-121136270D01*
X100770612Y-121136483D01*
X100765178Y-121139086D01*
X100764512Y-121139430D01*
X100763903Y-121139697D01*
X100763055Y-121140104D01*
X100741299Y-121149653D01*
X100741290Y-121149658D01*
X100729676Y-121159424D01*
X100713132Y-121171196D01*
X100680608Y-121190594D01*
X100678971Y-121191919D01*
X100678512Y-121192245D01*
X100677882Y-121192775D01*
X100676168Y-121194188D01*
X100675477Y-121194747D01*
X100675050Y-121195154D01*
X100673451Y-121196496D01*
X100642675Y-121230918D01*
X100629836Y-121243373D01*
X100628276Y-121244684D01*
X100628170Y-121244803D01*
X100615789Y-121260534D01*
X100580235Y-121298896D01*
X100579044Y-121300621D01*
X100578691Y-121301069D01*
X100578220Y-121301779D01*
X100576962Y-121303636D01*
X100576472Y-121304344D01*
X100576190Y-121304832D01*
X100575033Y-121306571D01*
X100545767Y-121368104D01*
X100544786Y-121370120D01*
X100528975Y-121401892D01*
X100528673Y-121401742D01*
X100523757Y-121411425D01*
X100521807Y-121414634D01*
X100520005Y-121418860D01*
X100514493Y-121433865D01*
X100511613Y-121439920D01*
X100508089Y-121461986D01*
X100503313Y-121481618D01*
X100499904Y-121491940D01*
X100498176Y-121501644D01*
X100495888Y-121511960D01*
X100493354Y-121521475D01*
X100493354Y-121521476D01*
X100491253Y-121539280D01*
X100490171Y-121546596D01*
X100480521Y-121600790D01*
X100480625Y-121601730D01*
X100481143Y-121623132D01*
X100481131Y-121623329D01*
X100480496Y-121630431D01*
X100478261Y-121649367D01*
X100478481Y-121658066D01*
X100478277Y-121669074D01*
X100477387Y-121683357D01*
X100475804Y-121696479D01*
X100475689Y-121697562D01*
X100474707Y-121725549D01*
X100474541Y-121728967D01*
X100472799Y-121756905D01*
X100472809Y-121757923D01*
X100473110Y-121771200D01*
X100472409Y-121791211D01*
X100471637Y-121799130D01*
X100471798Y-121799145D01*
X100471399Y-121803637D01*
X100470868Y-121834607D01*
X100470810Y-121836847D01*
X100469725Y-121867871D01*
X100469889Y-121872375D01*
X100469724Y-121872380D01*
X100470085Y-121880337D01*
X100469619Y-121907497D01*
X100469061Y-121914734D01*
X100469281Y-121914751D01*
X100468947Y-121919244D01*
X100468856Y-121951291D01*
X100468839Y-121953083D01*
X100468288Y-121985336D01*
X100468532Y-121989824D01*
X100468280Y-121989837D01*
X100468727Y-121997096D01*
X100468639Y-122027932D01*
X100468411Y-122035164D01*
X100468154Y-122039417D01*
X100000500Y-122039417D01*
X100000500Y-116840000D01*
X123546496Y-116840000D01*
X123566457Y-117029927D01*
X123596526Y-117122470D01*
X123625473Y-117211556D01*
X123720960Y-117376944D01*
X123794137Y-117458215D01*
X123824853Y-117522220D01*
X123826500Y-117542524D01*
X123826500Y-121836146D01*
X123824751Y-121851988D01*
X123825044Y-121852016D01*
X123824298Y-121859907D01*
X123824298Y-121859909D01*
X123824690Y-121872375D01*
X123826438Y-121927984D01*
X123826500Y-121931943D01*
X123826500Y-121959851D01*
X123826501Y-121959869D01*
X123827007Y-121963877D01*
X123827937Y-121975696D01*
X123829326Y-122019888D01*
X123829327Y-122019893D01*
X123834977Y-122039339D01*
X123838986Y-122058697D01*
X123841525Y-122078793D01*
X123841526Y-122078800D01*
X123857800Y-122119903D01*
X123861644Y-122131129D01*
X123873982Y-122173593D01*
X123884294Y-122191031D01*
X123892988Y-122208779D01*
X123900444Y-122227609D01*
X123900450Y-122227620D01*
X123926432Y-122263381D01*
X123932949Y-122273301D01*
X123955458Y-122311362D01*
X123955459Y-122311363D01*
X123955461Y-122311366D01*
X123969779Y-122325684D01*
X123982617Y-122340714D01*
X123994526Y-122357104D01*
X123994530Y-122357109D01*
X124028598Y-122385292D01*
X124037378Y-122393282D01*
X128869595Y-127225499D01*
X128903621Y-127287811D01*
X128906500Y-127314594D01*
X128906500Y-151465500D01*
X128886498Y-151533621D01*
X128832842Y-151580114D01*
X128780500Y-151591500D01*
X128751350Y-151591500D01*
X128690803Y-151598009D01*
X128690795Y-151598011D01*
X128553797Y-151649110D01*
X128553792Y-151649112D01*
X128436738Y-151736738D01*
X128349112Y-151853792D01*
X128349110Y-151853797D01*
X128298011Y-151990795D01*
X128298009Y-151990803D01*
X128291500Y-152051350D01*
X128291500Y-154548649D01*
X128298009Y-154609196D01*
X128298011Y-154609204D01*
X128349110Y-154746202D01*
X128349112Y-154746207D01*
X128436738Y-154863261D01*
X128553792Y-154950887D01*
X128553794Y-154950888D01*
X128553796Y-154950889D01*
X128612875Y-154972924D01*
X128690795Y-155001988D01*
X128690803Y-155001990D01*
X128751350Y-155008499D01*
X128751355Y-155008499D01*
X128751362Y-155008500D01*
X128751368Y-155008500D01*
X131248632Y-155008500D01*
X131248638Y-155008500D01*
X131248645Y-155008499D01*
X131248649Y-155008499D01*
X131309196Y-155001990D01*
X131309199Y-155001989D01*
X131309201Y-155001989D01*
X131446204Y-154950889D01*
X131563261Y-154863261D01*
X131623103Y-154783322D01*
X131650887Y-154746207D01*
X131650887Y-154746206D01*
X131650889Y-154746204D01*
X131701989Y-154609201D01*
X131708500Y-154548638D01*
X131708500Y-154076343D01*
X131728502Y-154008222D01*
X131782158Y-153961729D01*
X131852432Y-153951625D01*
X131917012Y-153981119D01*
X131951791Y-154030312D01*
X131956828Y-154043147D01*
X131956828Y-154043148D01*
X132084824Y-154264844D01*
X132084829Y-154264852D01*
X132125250Y-154315537D01*
X132125252Y-154315537D01*
X132935570Y-153505219D01*
X132975901Y-153602588D01*
X133072075Y-153727925D01*
X133197412Y-153824099D01*
X133294779Y-153864429D01*
X132484421Y-154674786D01*
X132484421Y-154674787D01*
X132643610Y-154783321D01*
X132643611Y-154783322D01*
X132874239Y-154894386D01*
X133118862Y-154969844D01*
X133118870Y-154969845D01*
X133372008Y-155008000D01*
X133627992Y-155008000D01*
X133881129Y-154969845D01*
X133881141Y-154969843D01*
X134125746Y-154894392D01*
X134125753Y-154894389D01*
X134356397Y-154783318D01*
X134356399Y-154783317D01*
X134515577Y-154674789D01*
X134515578Y-154674787D01*
X134389440Y-154548649D01*
X151291500Y-154548649D01*
X151298009Y-154609196D01*
X151298011Y-154609204D01*
X151349110Y-154746202D01*
X151349112Y-154746207D01*
X151436738Y-154863261D01*
X151553792Y-154950887D01*
X151553794Y-154950888D01*
X151553796Y-154950889D01*
X151612875Y-154972924D01*
X151690795Y-155001988D01*
X151690803Y-155001990D01*
X151751350Y-155008499D01*
X151751355Y-155008499D01*
X151751362Y-155008500D01*
X151751368Y-155008500D01*
X154248632Y-155008500D01*
X154248638Y-155008500D01*
X154248645Y-155008499D01*
X154248649Y-155008499D01*
X154309196Y-155001990D01*
X154309199Y-155001989D01*
X154309201Y-155001989D01*
X154446204Y-154950889D01*
X154563261Y-154863261D01*
X154623103Y-154783322D01*
X154650887Y-154746207D01*
X154650887Y-154746206D01*
X154650889Y-154746204D01*
X154701989Y-154609201D01*
X154708500Y-154548638D01*
X154708500Y-154076343D01*
X154728502Y-154008222D01*
X154782158Y-153961729D01*
X154852432Y-153951625D01*
X154917012Y-153981119D01*
X154951791Y-154030312D01*
X154956828Y-154043147D01*
X154956828Y-154043148D01*
X155084824Y-154264844D01*
X155084829Y-154264852D01*
X155125250Y-154315537D01*
X155125252Y-154315537D01*
X155935570Y-153505219D01*
X155975901Y-153602588D01*
X156072075Y-153727925D01*
X156197412Y-153824099D01*
X156294779Y-153864429D01*
X155484421Y-154674786D01*
X155484421Y-154674787D01*
X155643610Y-154783321D01*
X155643611Y-154783322D01*
X155874239Y-154894386D01*
X156118862Y-154969844D01*
X156118870Y-154969845D01*
X156372008Y-155008000D01*
X156627992Y-155008000D01*
X156881129Y-154969845D01*
X156881141Y-154969843D01*
X157125746Y-154894392D01*
X157125753Y-154894389D01*
X157356397Y-154783318D01*
X157356399Y-154783317D01*
X157515577Y-154674789D01*
X157515578Y-154674787D01*
X157389440Y-154548649D01*
X171991500Y-154548649D01*
X171998009Y-154609196D01*
X171998011Y-154609204D01*
X172049110Y-154746202D01*
X172049112Y-154746207D01*
X172136738Y-154863261D01*
X172253792Y-154950887D01*
X172253794Y-154950888D01*
X172253796Y-154950889D01*
X172312875Y-154972924D01*
X172390795Y-155001988D01*
X172390803Y-155001990D01*
X172451350Y-155008499D01*
X172451355Y-155008499D01*
X172451362Y-155008500D01*
X172451368Y-155008500D01*
X174948632Y-155008500D01*
X174948638Y-155008500D01*
X174948645Y-155008499D01*
X174948649Y-155008499D01*
X175009196Y-155001990D01*
X175009199Y-155001989D01*
X175009201Y-155001989D01*
X175146204Y-154950889D01*
X175263261Y-154863261D01*
X175323103Y-154783322D01*
X175350887Y-154746207D01*
X175350887Y-154746206D01*
X175350889Y-154746204D01*
X175401989Y-154609201D01*
X175408500Y-154548638D01*
X175408500Y-154076343D01*
X175428502Y-154008222D01*
X175482158Y-153961729D01*
X175552432Y-153951625D01*
X175617012Y-153981119D01*
X175651791Y-154030312D01*
X175656828Y-154043147D01*
X175656828Y-154043148D01*
X175784824Y-154264844D01*
X175784829Y-154264852D01*
X175825250Y-154315537D01*
X175825252Y-154315537D01*
X176635570Y-153505219D01*
X176675901Y-153602588D01*
X176772075Y-153727925D01*
X176897412Y-153824099D01*
X176994779Y-153864429D01*
X176184421Y-154674786D01*
X176184421Y-154674787D01*
X176343610Y-154783321D01*
X176343611Y-154783322D01*
X176574239Y-154894386D01*
X176818862Y-154969844D01*
X176818870Y-154969845D01*
X177072008Y-155008000D01*
X177327992Y-155008000D01*
X177581129Y-154969845D01*
X177581141Y-154969843D01*
X177825746Y-154894392D01*
X177825753Y-154894389D01*
X178056397Y-154783318D01*
X178056399Y-154783317D01*
X178215577Y-154674789D01*
X178215578Y-154674787D01*
X177405220Y-153864429D01*
X177502588Y-153824099D01*
X177627925Y-153727925D01*
X177724099Y-153602589D01*
X177764429Y-153505220D01*
X178574747Y-154315538D01*
X178574748Y-154315537D01*
X178615172Y-154264849D01*
X178615172Y-154264848D01*
X178743171Y-154043148D01*
X178743173Y-154043144D01*
X178836693Y-153804856D01*
X178836694Y-153804854D01*
X178893658Y-153555281D01*
X178912788Y-153300000D01*
X178893658Y-153044718D01*
X178836694Y-152795145D01*
X178836693Y-152795143D01*
X178743173Y-152556855D01*
X178743171Y-152556851D01*
X178615175Y-152335155D01*
X178574747Y-152284460D01*
X177764429Y-153094778D01*
X177724099Y-152997412D01*
X177627925Y-152872075D01*
X177502588Y-152775901D01*
X177405220Y-152735570D01*
X178215578Y-151925211D01*
X178056390Y-151816678D01*
X178056389Y-151816677D01*
X177825753Y-151705610D01*
X177825746Y-151705607D01*
X177581141Y-151630156D01*
X177581129Y-151630154D01*
X177327992Y-151592000D01*
X177072008Y-151592000D01*
X176818870Y-151630154D01*
X176818862Y-151630155D01*
X176574239Y-151705613D01*
X176343611Y-151816677D01*
X176343603Y-151816682D01*
X176184421Y-151925210D01*
X176184421Y-151925212D01*
X176994779Y-152735570D01*
X176897412Y-152775901D01*
X176772075Y-152872075D01*
X176675901Y-152997411D01*
X176635570Y-153094779D01*
X175825252Y-152284461D01*
X175825250Y-152284461D01*
X175784828Y-152335148D01*
X175784825Y-152335153D01*
X175656828Y-152556851D01*
X175651790Y-152569690D01*
X175608283Y-152625794D01*
X175541350Y-152649470D01*
X175472243Y-152633201D01*
X175422902Y-152582152D01*
X175408500Y-152523656D01*
X175408500Y-152051367D01*
X175408499Y-152051350D01*
X175401990Y-151990803D01*
X175401988Y-151990795D01*
X175350889Y-151853797D01*
X175350887Y-151853792D01*
X175263261Y-151736738D01*
X175146207Y-151649112D01*
X175146202Y-151649110D01*
X175009204Y-151598011D01*
X175009196Y-151598009D01*
X174948649Y-151591500D01*
X174948638Y-151591500D01*
X172451362Y-151591500D01*
X172451350Y-151591500D01*
X172390803Y-151598009D01*
X172390795Y-151598011D01*
X172253797Y-151649110D01*
X172253792Y-151649112D01*
X172136738Y-151736738D01*
X172049112Y-151853792D01*
X172049110Y-151853797D01*
X171998011Y-151990795D01*
X171998009Y-151990803D01*
X171991500Y-152051350D01*
X171991500Y-154548649D01*
X157389440Y-154548649D01*
X156705220Y-153864429D01*
X156802588Y-153824099D01*
X156927925Y-153727925D01*
X157024099Y-153602589D01*
X157064429Y-153505220D01*
X157874747Y-154315538D01*
X157874748Y-154315537D01*
X157915172Y-154264849D01*
X157915172Y-154264848D01*
X158043171Y-154043148D01*
X158043173Y-154043144D01*
X158136693Y-153804856D01*
X158136694Y-153804854D01*
X158193658Y-153555281D01*
X158212788Y-153300000D01*
X158193658Y-153044718D01*
X158136694Y-152795145D01*
X158136693Y-152795143D01*
X158043173Y-152556855D01*
X158043171Y-152556851D01*
X157915175Y-152335155D01*
X157874747Y-152284460D01*
X157064429Y-153094778D01*
X157024099Y-152997412D01*
X156927925Y-152872075D01*
X156802588Y-152775901D01*
X156705220Y-152735570D01*
X157309607Y-152131182D01*
X165749500Y-152131182D01*
X165771224Y-152275311D01*
X165788604Y-152390619D01*
X165865933Y-152641314D01*
X165865938Y-152641327D01*
X165979773Y-152877706D01*
X165979777Y-152877713D01*
X166093640Y-153044718D01*
X166127567Y-153094479D01*
X166306019Y-153286805D01*
X166511143Y-153450386D01*
X166511146Y-153450388D01*
X166738352Y-153581566D01*
X166738356Y-153581567D01*
X166738357Y-153581568D01*
X166982584Y-153677420D01*
X167238370Y-153735802D01*
X167434506Y-153750500D01*
X167434507Y-153750500D01*
X167565493Y-153750500D01*
X167565494Y-153750500D01*
X167761630Y-153735802D01*
X168017416Y-153677420D01*
X168261643Y-153581568D01*
X168261645Y-153581566D01*
X168261647Y-153581566D01*
X168478040Y-153456631D01*
X168488857Y-153450386D01*
X168693981Y-153286805D01*
X168872433Y-153094479D01*
X169020228Y-152877704D01*
X169134063Y-152641323D01*
X169134066Y-152641314D01*
X169211395Y-152390619D01*
X169219755Y-152335155D01*
X169250500Y-152131182D01*
X169250500Y-151868818D01*
X169211396Y-151609385D01*
X169211395Y-151609383D01*
X169211395Y-151609380D01*
X169134066Y-151358685D01*
X169134061Y-151358672D01*
X169085854Y-151258570D01*
X169020228Y-151122296D01*
X169020226Y-151122293D01*
X169020222Y-151122286D01*
X168872437Y-150905527D01*
X168872433Y-150905521D01*
X168693981Y-150713195D01*
X168488857Y-150549614D01*
X168488852Y-150549611D01*
X168488853Y-150549611D01*
X168261647Y-150418433D01*
X168261639Y-150418430D01*
X168017419Y-150322581D01*
X168017417Y-150322580D01*
X167761633Y-150264198D01*
X167614528Y-150253174D01*
X167565494Y-150249500D01*
X167434506Y-150249500D01*
X167395278Y-150252439D01*
X167238366Y-150264198D01*
X166982582Y-150322580D01*
X166982580Y-150322581D01*
X166738360Y-150418430D01*
X166738352Y-150418433D01*
X166511146Y-150549611D01*
X166306018Y-150713195D01*
X166127566Y-150905522D01*
X166127562Y-150905527D01*
X165979777Y-151122286D01*
X165979773Y-151122293D01*
X165865938Y-151358672D01*
X165865933Y-151358685D01*
X165788604Y-151609380D01*
X165769408Y-151736738D01*
X165749500Y-151868818D01*
X165749500Y-152131182D01*
X157309607Y-152131182D01*
X157515578Y-151925211D01*
X157356390Y-151816678D01*
X157356389Y-151816677D01*
X157125753Y-151705610D01*
X157125746Y-151705607D01*
X156881141Y-151630156D01*
X156881129Y-151630154D01*
X156627992Y-151592000D01*
X156372008Y-151592000D01*
X156118870Y-151630154D01*
X156118862Y-151630155D01*
X155874239Y-151705613D01*
X155643611Y-151816677D01*
X155643603Y-151816682D01*
X155484421Y-151925210D01*
X155484421Y-151925212D01*
X156294779Y-152735570D01*
X156197412Y-152775901D01*
X156072075Y-152872075D01*
X155975901Y-152997411D01*
X155935570Y-153094779D01*
X155125252Y-152284461D01*
X155125250Y-152284461D01*
X155084828Y-152335148D01*
X155084825Y-152335153D01*
X154956828Y-152556851D01*
X154951790Y-152569690D01*
X154908283Y-152625794D01*
X154841350Y-152649470D01*
X154772243Y-152633201D01*
X154722902Y-152582152D01*
X154708500Y-152523656D01*
X154708500Y-152051367D01*
X154708499Y-152051350D01*
X154701990Y-151990803D01*
X154701988Y-151990795D01*
X154650889Y-151853797D01*
X154650887Y-151853792D01*
X154563261Y-151736738D01*
X154446207Y-151649112D01*
X154446202Y-151649110D01*
X154309204Y-151598011D01*
X154309196Y-151598009D01*
X154248649Y-151591500D01*
X154248638Y-151591500D01*
X151751362Y-151591500D01*
X151751350Y-151591500D01*
X151690803Y-151598009D01*
X151690795Y-151598011D01*
X151553797Y-151649110D01*
X151553792Y-151649112D01*
X151436738Y-151736738D01*
X151349112Y-151853792D01*
X151349110Y-151853797D01*
X151298011Y-151990795D01*
X151298009Y-151990803D01*
X151291500Y-152051350D01*
X151291500Y-154548649D01*
X134389440Y-154548649D01*
X133705220Y-153864429D01*
X133802588Y-153824099D01*
X133927925Y-153727925D01*
X134024099Y-153602589D01*
X134064429Y-153505220D01*
X134874747Y-154315538D01*
X134874748Y-154315537D01*
X134915172Y-154264849D01*
X134915172Y-154264848D01*
X135043171Y-154043148D01*
X135043173Y-154043144D01*
X135136693Y-153804856D01*
X135136694Y-153804854D01*
X135193658Y-153555281D01*
X135212788Y-153300000D01*
X135193658Y-153044718D01*
X135136694Y-152795145D01*
X135136693Y-152795143D01*
X135043173Y-152556855D01*
X135043171Y-152556851D01*
X134915175Y-152335155D01*
X134874747Y-152284460D01*
X134064429Y-153094778D01*
X134024099Y-152997412D01*
X133927925Y-152872075D01*
X133802588Y-152775901D01*
X133705220Y-152735570D01*
X134515578Y-151925211D01*
X134356390Y-151816678D01*
X134356389Y-151816677D01*
X134125753Y-151705610D01*
X134125746Y-151705607D01*
X133881141Y-151630156D01*
X133881129Y-151630154D01*
X133627992Y-151592000D01*
X133372008Y-151592000D01*
X133118870Y-151630154D01*
X133118862Y-151630155D01*
X132874239Y-151705613D01*
X132643611Y-151816677D01*
X132643603Y-151816682D01*
X132484421Y-151925210D01*
X132484421Y-151925212D01*
X133294779Y-152735570D01*
X133197412Y-152775901D01*
X133072075Y-152872075D01*
X132975901Y-152997411D01*
X132935570Y-153094779D01*
X132125252Y-152284461D01*
X132125250Y-152284461D01*
X132084828Y-152335148D01*
X132084825Y-152335153D01*
X131956828Y-152556851D01*
X131951790Y-152569690D01*
X131908283Y-152625794D01*
X131841350Y-152649470D01*
X131772243Y-152633201D01*
X131722902Y-152582152D01*
X131708500Y-152523656D01*
X131708500Y-152051367D01*
X131708499Y-152051350D01*
X131701990Y-151990803D01*
X131701988Y-151990795D01*
X131650889Y-151853797D01*
X131650887Y-151853792D01*
X131563261Y-151736738D01*
X131446207Y-151649112D01*
X131446202Y-151649110D01*
X131309204Y-151598011D01*
X131309196Y-151598009D01*
X131248649Y-151591500D01*
X131248638Y-151591500D01*
X130299500Y-151591500D01*
X130231379Y-151571498D01*
X130184886Y-151517842D01*
X130173500Y-151465500D01*
X130173500Y-143764000D01*
X185757000Y-143764000D01*
X185757000Y-143983597D01*
X185763505Y-144044093D01*
X185814555Y-144180964D01*
X185814555Y-144180965D01*
X185902095Y-144297904D01*
X186019034Y-144385444D01*
X186155906Y-144436494D01*
X186216402Y-144442999D01*
X186216415Y-144443000D01*
X186436000Y-144443000D01*
X186436000Y-143764000D01*
X186944000Y-143764000D01*
X186944000Y-144443000D01*
X187163585Y-144443000D01*
X187163597Y-144442999D01*
X187224093Y-144436494D01*
X187360964Y-144385444D01*
X187360965Y-144385444D01*
X187477904Y-144297904D01*
X187565444Y-144180965D01*
X187565444Y-144180964D01*
X187616494Y-144044093D01*
X187622999Y-143983597D01*
X187623000Y-143983585D01*
X187623000Y-143764000D01*
X186944000Y-143764000D01*
X186436000Y-143764000D01*
X185757000Y-143764000D01*
X130173500Y-143764000D01*
X130173500Y-143510000D01*
X186435102Y-143510000D01*
X186454505Y-143607545D01*
X186509760Y-143690240D01*
X186592455Y-143745495D01*
X186665376Y-143760000D01*
X186714624Y-143760000D01*
X186787545Y-143745495D01*
X186870240Y-143690240D01*
X186925495Y-143607545D01*
X186944898Y-143510000D01*
X186925495Y-143412455D01*
X186870240Y-143329760D01*
X186787545Y-143274505D01*
X186714624Y-143260000D01*
X186665376Y-143260000D01*
X186592455Y-143274505D01*
X186509760Y-143329760D01*
X186454505Y-143412455D01*
X186435102Y-143510000D01*
X130173500Y-143510000D01*
X130173500Y-143256000D01*
X185757000Y-143256000D01*
X186436000Y-143256000D01*
X186436000Y-142577000D01*
X186944000Y-142577000D01*
X186944000Y-143256000D01*
X187623000Y-143256000D01*
X187623000Y-143036414D01*
X187622999Y-143036402D01*
X187616494Y-142975906D01*
X187565444Y-142839035D01*
X187565444Y-142839034D01*
X187477904Y-142722095D01*
X187360965Y-142634555D01*
X187224093Y-142583505D01*
X187163597Y-142577000D01*
X186944000Y-142577000D01*
X186436000Y-142577000D01*
X186216402Y-142577000D01*
X186155906Y-142583505D01*
X186019035Y-142634555D01*
X186019034Y-142634555D01*
X185902095Y-142722095D01*
X185814555Y-142839034D01*
X185814555Y-142839035D01*
X185763505Y-142975906D01*
X185757000Y-143036402D01*
X185757000Y-143256000D01*
X130173500Y-143256000D01*
X130173500Y-141153683D01*
X172645740Y-141153683D01*
X172655754Y-141338404D01*
X172655756Y-141338415D01*
X172705243Y-141516651D01*
X172705246Y-141516659D01*
X172791899Y-141680104D01*
X172854541Y-141753851D01*
X172911663Y-141821100D01*
X172990554Y-141881071D01*
X173058939Y-141933056D01*
X173152721Y-141976444D01*
X173226833Y-142010732D01*
X173407503Y-142050500D01*
X173407506Y-142050500D01*
X173546105Y-142050500D01*
X173546113Y-142050500D01*
X173557365Y-142049276D01*
X173683903Y-142035515D01*
X173683905Y-142035514D01*
X173683910Y-142035514D01*
X173859221Y-141976444D01*
X174017736Y-141881070D01*
X174152041Y-141753849D01*
X174255858Y-141600730D01*
X174324331Y-141428875D01*
X174354260Y-141246317D01*
X174344245Y-141061593D01*
X174294754Y-140883341D01*
X174254041Y-140806549D01*
X174208100Y-140719895D01*
X174088342Y-140578906D01*
X174088337Y-140578900D01*
X173941064Y-140466946D01*
X173941063Y-140466945D01*
X173941060Y-140466943D01*
X173773166Y-140389267D01*
X173592503Y-140349501D01*
X173592500Y-140349500D01*
X173592497Y-140349500D01*
X173453887Y-140349500D01*
X173453877Y-140349500D01*
X173316096Y-140364484D01*
X173316087Y-140364486D01*
X173140779Y-140423555D01*
X173140776Y-140423557D01*
X172982266Y-140518928D01*
X172982265Y-140518929D01*
X172847961Y-140646148D01*
X172744139Y-140799273D01*
X172675669Y-140971122D01*
X172675668Y-140971125D01*
X172645740Y-141153682D01*
X172645740Y-141153683D01*
X130173500Y-141153683D01*
X130173500Y-139954000D01*
X185757000Y-139954000D01*
X185757000Y-140173597D01*
X185763505Y-140234093D01*
X185814555Y-140370964D01*
X185814555Y-140370965D01*
X185902095Y-140487904D01*
X186019034Y-140575444D01*
X186155906Y-140626494D01*
X186216402Y-140632999D01*
X186216415Y-140633000D01*
X186436000Y-140633000D01*
X186436000Y-139954000D01*
X186944000Y-139954000D01*
X186944000Y-140633000D01*
X187163585Y-140633000D01*
X187163597Y-140632999D01*
X187224093Y-140626494D01*
X187360964Y-140575444D01*
X187360965Y-140575444D01*
X187477904Y-140487904D01*
X187565444Y-140370965D01*
X187565444Y-140370964D01*
X187616494Y-140234093D01*
X187622999Y-140173597D01*
X187623000Y-140173585D01*
X187623000Y-139954000D01*
X186944000Y-139954000D01*
X186436000Y-139954000D01*
X185757000Y-139954000D01*
X130173500Y-139954000D01*
X130173500Y-139700000D01*
X186435102Y-139700000D01*
X186454505Y-139797545D01*
X186509760Y-139880240D01*
X186592455Y-139935495D01*
X186665376Y-139950000D01*
X186714624Y-139950000D01*
X186787545Y-139935495D01*
X186870240Y-139880240D01*
X186925495Y-139797545D01*
X186944898Y-139700000D01*
X186925495Y-139602455D01*
X186870240Y-139519760D01*
X186787545Y-139464505D01*
X186714624Y-139450000D01*
X186665376Y-139450000D01*
X186592455Y-139464505D01*
X186509760Y-139519760D01*
X186454505Y-139602455D01*
X186435102Y-139700000D01*
X130173500Y-139700000D01*
X130173500Y-139446000D01*
X185757000Y-139446000D01*
X186436000Y-139446000D01*
X186436000Y-138767000D01*
X186944000Y-138767000D01*
X186944000Y-139446000D01*
X187623000Y-139446000D01*
X187623000Y-139226414D01*
X187622999Y-139226402D01*
X187616494Y-139165906D01*
X187565444Y-139029035D01*
X187565444Y-139029034D01*
X187477904Y-138912095D01*
X187360965Y-138824555D01*
X187224093Y-138773505D01*
X187163597Y-138767000D01*
X186944000Y-138767000D01*
X186436000Y-138767000D01*
X186216402Y-138767000D01*
X186155906Y-138773505D01*
X186019035Y-138824555D01*
X186019034Y-138824555D01*
X185902095Y-138912095D01*
X185814555Y-139029034D01*
X185814555Y-139029035D01*
X185763505Y-139165906D01*
X185757000Y-139226402D01*
X185757000Y-139446000D01*
X130173500Y-139446000D01*
X130173500Y-133653683D01*
X172645740Y-133653683D01*
X172655754Y-133838404D01*
X172655756Y-133838415D01*
X172705243Y-134016651D01*
X172705246Y-134016659D01*
X172791899Y-134180104D01*
X172854541Y-134253851D01*
X172911663Y-134321100D01*
X172990554Y-134381071D01*
X173058939Y-134433056D01*
X173152721Y-134476444D01*
X173226833Y-134510732D01*
X173407503Y-134550500D01*
X173407506Y-134550500D01*
X173546105Y-134550500D01*
X173546113Y-134550500D01*
X173557365Y-134549276D01*
X173683903Y-134535515D01*
X173683905Y-134535514D01*
X173683910Y-134535514D01*
X173859221Y-134476444D01*
X174017736Y-134381070D01*
X174152041Y-134253849D01*
X174255858Y-134100730D01*
X174324331Y-133928875D01*
X174354260Y-133746317D01*
X174344245Y-133561593D01*
X174294754Y-133383341D01*
X174254041Y-133306549D01*
X174208100Y-133219895D01*
X174088342Y-133078906D01*
X174088337Y-133078900D01*
X173941064Y-132966946D01*
X173941063Y-132966945D01*
X173941060Y-132966943D01*
X173773166Y-132889267D01*
X173592503Y-132849501D01*
X173592500Y-132849500D01*
X173592497Y-132849500D01*
X173453887Y-132849500D01*
X173453877Y-132849500D01*
X173316096Y-132864484D01*
X173316087Y-132864486D01*
X173140779Y-132923555D01*
X173140776Y-132923557D01*
X172982266Y-133018928D01*
X172982265Y-133018929D01*
X172847961Y-133146148D01*
X172744139Y-133299273D01*
X172675669Y-133471122D01*
X172675668Y-133471125D01*
X172645740Y-133653682D01*
X172645740Y-133653683D01*
X130173500Y-133653683D01*
X130173500Y-129131182D01*
X183249500Y-129131182D01*
X183271224Y-129275311D01*
X183288604Y-129390619D01*
X183365933Y-129641314D01*
X183365938Y-129641327D01*
X183479773Y-129877706D01*
X183479777Y-129877713D01*
X183627562Y-130094472D01*
X183627567Y-130094479D01*
X183806019Y-130286805D01*
X184011143Y-130450386D01*
X184011146Y-130450388D01*
X184238352Y-130581566D01*
X184238356Y-130581567D01*
X184238357Y-130581568D01*
X184482584Y-130677420D01*
X184738370Y-130735802D01*
X184934506Y-130750500D01*
X184934507Y-130750500D01*
X185065493Y-130750500D01*
X185065494Y-130750500D01*
X185261630Y-130735802D01*
X185517416Y-130677420D01*
X185761643Y-130581568D01*
X185761645Y-130581566D01*
X185761647Y-130581566D01*
X185875250Y-130515977D01*
X185988857Y-130450386D01*
X186193981Y-130286805D01*
X186372433Y-130094479D01*
X186520228Y-129877704D01*
X186634063Y-129641323D01*
X186711396Y-129390615D01*
X186750500Y-129131182D01*
X186750500Y-128868818D01*
X186711396Y-128609385D01*
X186711395Y-128609383D01*
X186711395Y-128609380D01*
X186634066Y-128358685D01*
X186634061Y-128358672D01*
X186585854Y-128258570D01*
X186520228Y-128122296D01*
X186520226Y-128122293D01*
X186520222Y-128122286D01*
X186372437Y-127905527D01*
X186372433Y-127905521D01*
X186193981Y-127713195D01*
X185988857Y-127549614D01*
X185988852Y-127549611D01*
X185988853Y-127549611D01*
X185761647Y-127418433D01*
X185761639Y-127418430D01*
X185517419Y-127322581D01*
X185517417Y-127322580D01*
X185261633Y-127264198D01*
X185114528Y-127253174D01*
X185065494Y-127249500D01*
X184934506Y-127249500D01*
X184895278Y-127252439D01*
X184738366Y-127264198D01*
X184482582Y-127322580D01*
X184482580Y-127322581D01*
X184238360Y-127418430D01*
X184238352Y-127418433D01*
X184011146Y-127549611D01*
X183806018Y-127713195D01*
X183627566Y-127905522D01*
X183627562Y-127905527D01*
X183479777Y-128122286D01*
X183479773Y-128122293D01*
X183365938Y-128358672D01*
X183365933Y-128358685D01*
X183288604Y-128609380D01*
X183266879Y-128753514D01*
X183249500Y-128868818D01*
X183249500Y-129131182D01*
X130173500Y-129131182D01*
X130173500Y-127083849D01*
X130175249Y-127068012D01*
X130174955Y-127067985D01*
X130175701Y-127060092D01*
X130173562Y-126992031D01*
X130173500Y-126988073D01*
X130173500Y-126960151D01*
X130173500Y-126960144D01*
X130172991Y-126956123D01*
X130172061Y-126944296D01*
X130170673Y-126900110D01*
X130165022Y-126880663D01*
X130161012Y-126861300D01*
X130158474Y-126841203D01*
X130142192Y-126800081D01*
X130138358Y-126788882D01*
X130126018Y-126746406D01*
X130115700Y-126728961D01*
X130107005Y-126711209D01*
X130099553Y-126692385D01*
X130099550Y-126692379D01*
X130073564Y-126656613D01*
X130067045Y-126646689D01*
X130044541Y-126608635D01*
X130030218Y-126594312D01*
X130017377Y-126579279D01*
X130005471Y-126562892D01*
X129971405Y-126534710D01*
X129962626Y-126526721D01*
X127895905Y-124460000D01*
X175928844Y-124460000D01*
X175947299Y-124682717D01*
X175947437Y-124684375D01*
X176002702Y-124902612D01*
X176002703Y-124902613D01*
X176002704Y-124902616D01*
X176093140Y-125108791D01*
X176093141Y-125108793D01*
X176216275Y-125297265D01*
X176216279Y-125297270D01*
X176368762Y-125462908D01*
X176423331Y-125505381D01*
X176546424Y-125601189D01*
X176744426Y-125708342D01*
X176744427Y-125708342D01*
X176744428Y-125708343D01*
X176856227Y-125746723D01*
X176957365Y-125781444D01*
X177179431Y-125818500D01*
X177179435Y-125818500D01*
X177404565Y-125818500D01*
X177404569Y-125818500D01*
X177626635Y-125781444D01*
X177839574Y-125708342D01*
X178037576Y-125601189D01*
X178215240Y-125462906D01*
X178367722Y-125297268D01*
X178490860Y-125108791D01*
X178581296Y-124902616D01*
X178636564Y-124684368D01*
X178655156Y-124460000D01*
X178636564Y-124235632D01*
X178632585Y-124219918D01*
X178581297Y-124017387D01*
X178581296Y-124017386D01*
X178581296Y-124017384D01*
X178490860Y-123811209D01*
X178476888Y-123789823D01*
X178367724Y-123622734D01*
X178367719Y-123622729D01*
X178357421Y-123611543D01*
X178224524Y-123467179D01*
X178193103Y-123403514D01*
X178201090Y-123332968D01*
X178245948Y-123277939D01*
X178273183Y-123263789D01*
X178388204Y-123220889D01*
X178394347Y-123216291D01*
X178505261Y-123133261D01*
X178592887Y-123016207D01*
X178592887Y-123016206D01*
X178592889Y-123016204D01*
X178637748Y-122895934D01*
X178643988Y-122879204D01*
X178643990Y-122879196D01*
X178650499Y-122818649D01*
X178650500Y-122818632D01*
X178650500Y-121170003D01*
X180706620Y-121170003D01*
X180726090Y-121367694D01*
X180726091Y-121367700D01*
X180726092Y-121367701D01*
X180783759Y-121557804D01*
X180877405Y-121733004D01*
X181003432Y-121886568D01*
X181156996Y-122012595D01*
X181332196Y-122106241D01*
X181522299Y-122163908D01*
X181522303Y-122163908D01*
X181522305Y-122163909D01*
X181606513Y-122172202D01*
X181670453Y-122178500D01*
X181670462Y-122178500D01*
X182869538Y-122178500D01*
X182869547Y-122178500D01*
X182953761Y-122170205D01*
X183017694Y-122163909D01*
X183017695Y-122163908D01*
X183017701Y-122163908D01*
X183207804Y-122106241D01*
X183383004Y-122012595D01*
X183536568Y-121886568D01*
X183575142Y-121839565D01*
X183633818Y-121799597D01*
X183672540Y-121793500D01*
X185297460Y-121793500D01*
X185365581Y-121813502D01*
X185394856Y-121839564D01*
X185433432Y-121886568D01*
X185433434Y-121886569D01*
X185433434Y-121886570D01*
X185522727Y-121959851D01*
X185586996Y-122012595D01*
X185762196Y-122106241D01*
X185952299Y-122163908D01*
X185952303Y-122163908D01*
X185952305Y-122163909D01*
X186036513Y-122172202D01*
X186100453Y-122178500D01*
X186100462Y-122178500D01*
X186799538Y-122178500D01*
X186799547Y-122178500D01*
X186883761Y-122170205D01*
X186947694Y-122163909D01*
X186947695Y-122163908D01*
X186947701Y-122163908D01*
X187137804Y-122106241D01*
X187313004Y-122012595D01*
X187466568Y-121886568D01*
X187592595Y-121733004D01*
X187686241Y-121557804D01*
X187743908Y-121367701D01*
X187744515Y-121361544D01*
X187763380Y-121170003D01*
X187763380Y-121169996D01*
X187743909Y-120972305D01*
X187743908Y-120972303D01*
X187743908Y-120972299D01*
X187686241Y-120782196D01*
X187592595Y-120606996D01*
X187466568Y-120453432D01*
X187313004Y-120327405D01*
X187257164Y-120297558D01*
X187170104Y-120251023D01*
X187119456Y-120201271D01*
X187103500Y-120139901D01*
X187103500Y-113560097D01*
X187123502Y-113491976D01*
X187170100Y-113448978D01*
X187313004Y-113372595D01*
X187466568Y-113246568D01*
X187592595Y-113093004D01*
X187686241Y-112917804D01*
X187743908Y-112727701D01*
X187763380Y-112530000D01*
X187743908Y-112332299D01*
X187686241Y-112142196D01*
X187592595Y-111966996D01*
X187466568Y-111813432D01*
X187313004Y-111687405D01*
X187137804Y-111593759D01*
X186947701Y-111536092D01*
X186947700Y-111536091D01*
X186947694Y-111536090D01*
X186799553Y-111521500D01*
X186799547Y-111521500D01*
X186100453Y-111521500D01*
X186100446Y-111521500D01*
X185952305Y-111536090D01*
X185762195Y-111593759D01*
X185586995Y-111687405D01*
X185433432Y-111813432D01*
X185307405Y-111966995D01*
X185213759Y-112142195D01*
X185156090Y-112332305D01*
X185136620Y-112529996D01*
X185136620Y-112530003D01*
X185156090Y-112727694D01*
X185156091Y-112727700D01*
X185156092Y-112727701D01*
X185213759Y-112917804D01*
X185307405Y-113093004D01*
X185433432Y-113246568D01*
X185586996Y-113372595D01*
X185762196Y-113466241D01*
X185762197Y-113466241D01*
X185767656Y-113469159D01*
X185766590Y-113471153D01*
X185813976Y-113509314D01*
X185836418Y-113576671D01*
X185836500Y-113581208D01*
X185836500Y-120118790D01*
X185816498Y-120186911D01*
X185767067Y-120229742D01*
X185767655Y-120230841D01*
X185586995Y-120327405D01*
X185433429Y-120453434D01*
X185411272Y-120480433D01*
X185352595Y-120520402D01*
X185313873Y-120526500D01*
X183656127Y-120526500D01*
X183588006Y-120506498D01*
X183558728Y-120480433D01*
X183536570Y-120453434D01*
X183510400Y-120431957D01*
X183383004Y-120327405D01*
X183327145Y-120297548D01*
X183295322Y-120280538D01*
X183244674Y-120230786D01*
X183228964Y-120161549D01*
X183253180Y-120094810D01*
X183254724Y-120092752D01*
X183302698Y-120030233D01*
X183360687Y-119890236D01*
X183380466Y-119740000D01*
X183360687Y-119589764D01*
X183302698Y-119449767D01*
X183301131Y-119447725D01*
X183210451Y-119329548D01*
X183090239Y-119237306D01*
X183090231Y-119237301D01*
X182950234Y-119179312D01*
X182837722Y-119164500D01*
X182837720Y-119164500D01*
X182762280Y-119164500D01*
X182762277Y-119164500D01*
X182649765Y-119179312D01*
X182509768Y-119237301D01*
X182509760Y-119237306D01*
X182389548Y-119329548D01*
X182297306Y-119449760D01*
X182297301Y-119449768D01*
X182239312Y-119589765D01*
X182219534Y-119739999D01*
X182219534Y-119740000D01*
X182233723Y-119847781D01*
X182239313Y-119890236D01*
X182279512Y-119987285D01*
X182287101Y-120057871D01*
X182255322Y-120121358D01*
X182194264Y-120157586D01*
X182163103Y-120161500D01*
X181670446Y-120161500D01*
X181522305Y-120176090D01*
X181332195Y-120233759D01*
X181156995Y-120327405D01*
X181003432Y-120453432D01*
X180877405Y-120606995D01*
X180783759Y-120782195D01*
X180726090Y-120972305D01*
X180706620Y-121169996D01*
X180706620Y-121170003D01*
X178650500Y-121170003D01*
X178650500Y-121021367D01*
X178650499Y-121021350D01*
X178643990Y-120960803D01*
X178643988Y-120960795D01*
X178592889Y-120823797D01*
X178592887Y-120823792D01*
X178505261Y-120706738D01*
X178388207Y-120619112D01*
X178388202Y-120619110D01*
X178251204Y-120568011D01*
X178251196Y-120568009D01*
X178190649Y-120561500D01*
X178190638Y-120561500D01*
X176393362Y-120561500D01*
X176393350Y-120561500D01*
X176332803Y-120568009D01*
X176332795Y-120568011D01*
X176195797Y-120619110D01*
X176195792Y-120619112D01*
X176078738Y-120706738D01*
X175991112Y-120823792D01*
X175991110Y-120823797D01*
X175940011Y-120960795D01*
X175940009Y-120960803D01*
X175933500Y-121021350D01*
X175933500Y-122818649D01*
X175940009Y-122879196D01*
X175940011Y-122879204D01*
X175991110Y-123016202D01*
X175991112Y-123016207D01*
X176078738Y-123133261D01*
X176195791Y-123220886D01*
X176195792Y-123220886D01*
X176195796Y-123220889D01*
X176310810Y-123263787D01*
X176367642Y-123306332D01*
X176392453Y-123372852D01*
X176377362Y-123442226D01*
X176359475Y-123467179D01*
X176216280Y-123622729D01*
X176216275Y-123622734D01*
X176093141Y-123811206D01*
X176002703Y-124017386D01*
X176002702Y-124017387D01*
X175947437Y-124235624D01*
X175947436Y-124235630D01*
X175947436Y-124235632D01*
X175928844Y-124460000D01*
X127895905Y-124460000D01*
X125130405Y-121694500D01*
X125096379Y-121632188D01*
X125093500Y-121605405D01*
X125093500Y-120834500D01*
X141168496Y-120834500D01*
X141188457Y-121024427D01*
X141211594Y-121095632D01*
X141247473Y-121206056D01*
X141247476Y-121206061D01*
X141342958Y-121371441D01*
X141342965Y-121371451D01*
X141470744Y-121513364D01*
X141470747Y-121513366D01*
X141625248Y-121625618D01*
X141799712Y-121703294D01*
X141986513Y-121743000D01*
X142177487Y-121743000D01*
X142364288Y-121703294D01*
X142538752Y-121625618D01*
X142693253Y-121513366D01*
X142696563Y-121509690D01*
X142757009Y-121472450D01*
X142790200Y-121468000D01*
X146870347Y-121468000D01*
X146886188Y-121469749D01*
X146886216Y-121469456D01*
X146894102Y-121470200D01*
X146894109Y-121470202D01*
X146962186Y-121468062D01*
X146966145Y-121468000D01*
X146994051Y-121468000D01*
X146994056Y-121468000D01*
X146998067Y-121467492D01*
X147009899Y-121466561D01*
X147054089Y-121465173D01*
X147073547Y-121459519D01*
X147092894Y-121455513D01*
X147112997Y-121452974D01*
X147154110Y-121436695D01*
X147165330Y-121432853D01*
X147197897Y-121423393D01*
X147207791Y-121420519D01*
X147207795Y-121420517D01*
X147225226Y-121410208D01*
X147242980Y-121401509D01*
X147261817Y-121394052D01*
X147297592Y-121368058D01*
X147307498Y-121361551D01*
X147345562Y-121339042D01*
X147359885Y-121324718D01*
X147374924Y-121311874D01*
X147391307Y-121299972D01*
X147419503Y-121265886D01*
X147427472Y-121257130D01*
X150828602Y-117856000D01*
X176436844Y-117856000D01*
X176453157Y-118052871D01*
X176455437Y-118080375D01*
X176510702Y-118298612D01*
X176510703Y-118298613D01*
X176510704Y-118298616D01*
X176564693Y-118421699D01*
X176601141Y-118504793D01*
X176724275Y-118693265D01*
X176724279Y-118693270D01*
X176876762Y-118858908D01*
X176926554Y-118897663D01*
X177054424Y-118997189D01*
X177252426Y-119104342D01*
X177252427Y-119104342D01*
X177252428Y-119104343D01*
X177340777Y-119134673D01*
X177465365Y-119177444D01*
X177687431Y-119214500D01*
X177687435Y-119214500D01*
X177912565Y-119214500D01*
X177912569Y-119214500D01*
X178134635Y-119177444D01*
X178347574Y-119104342D01*
X178545576Y-118997189D01*
X178723240Y-118858906D01*
X178875722Y-118693268D01*
X178998860Y-118504791D01*
X179089296Y-118298616D01*
X179144564Y-118080368D01*
X179163156Y-117856000D01*
X179144564Y-117631632D01*
X179089296Y-117413384D01*
X178998860Y-117207209D01*
X178883037Y-117029928D01*
X178875724Y-117018734D01*
X178875719Y-117018729D01*
X178732524Y-116863179D01*
X178701103Y-116799514D01*
X178709090Y-116728968D01*
X178753948Y-116673939D01*
X178781183Y-116659789D01*
X178896204Y-116616889D01*
X179013261Y-116529261D01*
X179100887Y-116412207D01*
X179100887Y-116412206D01*
X179100889Y-116412204D01*
X179151989Y-116275201D01*
X179158500Y-116214638D01*
X179158500Y-114417362D01*
X179158499Y-114417350D01*
X179151990Y-114356803D01*
X179151988Y-114356795D01*
X179112244Y-114250239D01*
X179100889Y-114219796D01*
X179100888Y-114219794D01*
X179100887Y-114219792D01*
X179013261Y-114102738D01*
X178896207Y-114015112D01*
X178896202Y-114015110D01*
X178759204Y-113964011D01*
X178759196Y-113964009D01*
X178698649Y-113957500D01*
X178698638Y-113957500D01*
X176901362Y-113957500D01*
X176901350Y-113957500D01*
X176840803Y-113964009D01*
X176840795Y-113964011D01*
X176703797Y-114015110D01*
X176703792Y-114015112D01*
X176586738Y-114102738D01*
X176499112Y-114219792D01*
X176499110Y-114219797D01*
X176448011Y-114356795D01*
X176448009Y-114356803D01*
X176441500Y-114417350D01*
X176441500Y-116214649D01*
X176448009Y-116275196D01*
X176448011Y-116275204D01*
X176499110Y-116412202D01*
X176499112Y-116412207D01*
X176586738Y-116529261D01*
X176703791Y-116616886D01*
X176703792Y-116616886D01*
X176703796Y-116616889D01*
X176818810Y-116659787D01*
X176875642Y-116702332D01*
X176900453Y-116768852D01*
X176885362Y-116838226D01*
X176867475Y-116863179D01*
X176724280Y-117018729D01*
X176724275Y-117018734D01*
X176601141Y-117207206D01*
X176510703Y-117413386D01*
X176510702Y-117413387D01*
X176455437Y-117631624D01*
X176455436Y-117631630D01*
X176455436Y-117631632D01*
X176436844Y-117856000D01*
X150828602Y-117856000D01*
X155028306Y-113656297D01*
X155090616Y-113622273D01*
X155161431Y-113627338D01*
X155218266Y-113669884D01*
X155250738Y-113713260D01*
X155367791Y-113800886D01*
X155367792Y-113800886D01*
X155367796Y-113800889D01*
X155482810Y-113843787D01*
X155539642Y-113886332D01*
X155564453Y-113952852D01*
X155549362Y-114022226D01*
X155531475Y-114047179D01*
X155388280Y-114202729D01*
X155388275Y-114202734D01*
X155265141Y-114391206D01*
X155174703Y-114597386D01*
X155174702Y-114597387D01*
X155119437Y-114815624D01*
X155119436Y-114815630D01*
X155119436Y-114815632D01*
X155100844Y-115040000D01*
X155115637Y-115218524D01*
X155119437Y-115264375D01*
X155174702Y-115482612D01*
X155174703Y-115482613D01*
X155174704Y-115482616D01*
X155223771Y-115594479D01*
X155265141Y-115688793D01*
X155388275Y-115877265D01*
X155388279Y-115877270D01*
X155540762Y-116042908D01*
X155590430Y-116081566D01*
X155718424Y-116181189D01*
X155916426Y-116288342D01*
X155916427Y-116288342D01*
X155916428Y-116288343D01*
X155959263Y-116303048D01*
X156129365Y-116361444D01*
X156351431Y-116398500D01*
X156351435Y-116398500D01*
X156576565Y-116398500D01*
X156576569Y-116398500D01*
X156798635Y-116361444D01*
X157011574Y-116288342D01*
X157209576Y-116181189D01*
X157387240Y-116042906D01*
X157539722Y-115877268D01*
X157662860Y-115688791D01*
X157753296Y-115482616D01*
X157808564Y-115264368D01*
X157827156Y-115040000D01*
X157808564Y-114815632D01*
X157753296Y-114597384D01*
X157662860Y-114391209D01*
X157648231Y-114368818D01*
X157539724Y-114202734D01*
X157539719Y-114202729D01*
X157486064Y-114144445D01*
X157396524Y-114047179D01*
X157365103Y-113983514D01*
X157373090Y-113912968D01*
X157417948Y-113857939D01*
X157445183Y-113843789D01*
X157560204Y-113800889D01*
X157677261Y-113713261D01*
X157756433Y-113607500D01*
X157764887Y-113596207D01*
X157764887Y-113596206D01*
X157764889Y-113596204D01*
X157815989Y-113459201D01*
X157817089Y-113448974D01*
X157822499Y-113398649D01*
X157822500Y-113398632D01*
X157822500Y-112530003D01*
X180706620Y-112530003D01*
X180726090Y-112727694D01*
X180726091Y-112727700D01*
X180726092Y-112727701D01*
X180783759Y-112917804D01*
X180877405Y-113093004D01*
X181003432Y-113246568D01*
X181156996Y-113372595D01*
X181332196Y-113466241D01*
X181522299Y-113523908D01*
X181522303Y-113523908D01*
X181522305Y-113523909D01*
X181606513Y-113532202D01*
X181670453Y-113538500D01*
X182163103Y-113538500D01*
X182231224Y-113558502D01*
X182277717Y-113612158D01*
X182287821Y-113682432D01*
X182279514Y-113712708D01*
X182239313Y-113809764D01*
X182239312Y-113809767D01*
X182219534Y-113959999D01*
X182219534Y-113960000D01*
X182239312Y-114110234D01*
X182297301Y-114250231D01*
X182297306Y-114250239D01*
X182389548Y-114370451D01*
X182509760Y-114462693D01*
X182509767Y-114462698D01*
X182649764Y-114520687D01*
X182762280Y-114535500D01*
X182762287Y-114535500D01*
X182837713Y-114535500D01*
X182837720Y-114535500D01*
X182950236Y-114520687D01*
X183090233Y-114462698D01*
X183210451Y-114370451D01*
X183302698Y-114250233D01*
X183360687Y-114110236D01*
X183380466Y-113960000D01*
X183360687Y-113809764D01*
X183302698Y-113669767D01*
X183254754Y-113607286D01*
X183229155Y-113541067D01*
X183243420Y-113471518D01*
X183293021Y-113420722D01*
X183295228Y-113419511D01*
X183383004Y-113372595D01*
X183536568Y-113246568D01*
X183662595Y-113093004D01*
X183756241Y-112917804D01*
X183813908Y-112727701D01*
X183833380Y-112530000D01*
X183813908Y-112332299D01*
X183756241Y-112142196D01*
X183662595Y-111966996D01*
X183536568Y-111813432D01*
X183383004Y-111687405D01*
X183207804Y-111593759D01*
X183017701Y-111536092D01*
X183017700Y-111536091D01*
X183017694Y-111536090D01*
X182869553Y-111521500D01*
X182869547Y-111521500D01*
X181670453Y-111521500D01*
X181670446Y-111521500D01*
X181522305Y-111536090D01*
X181332195Y-111593759D01*
X181156995Y-111687405D01*
X181003432Y-111813432D01*
X180877405Y-111966995D01*
X180783759Y-112142195D01*
X180726090Y-112332305D01*
X180706620Y-112529996D01*
X180706620Y-112530003D01*
X157822500Y-112530003D01*
X157822500Y-111601367D01*
X157822499Y-111601350D01*
X157815990Y-111540803D01*
X157815988Y-111540795D01*
X157773700Y-111427419D01*
X157764889Y-111403796D01*
X157764888Y-111403794D01*
X157764887Y-111403792D01*
X157677261Y-111286738D01*
X157560207Y-111199112D01*
X157560202Y-111199110D01*
X157423204Y-111148011D01*
X157423196Y-111148009D01*
X157362649Y-111141500D01*
X157362638Y-111141500D01*
X155565362Y-111141500D01*
X155565350Y-111141500D01*
X155504803Y-111148009D01*
X155504795Y-111148011D01*
X155367797Y-111199110D01*
X155367792Y-111199112D01*
X155250738Y-111286738D01*
X155163112Y-111403792D01*
X155163110Y-111403797D01*
X155112011Y-111540795D01*
X155112009Y-111540803D01*
X155105500Y-111601350D01*
X155105500Y-111800753D01*
X155085498Y-111868874D01*
X155040629Y-111907752D01*
X155041928Y-111909949D01*
X155035108Y-111913981D01*
X155035107Y-111913982D01*
X155017664Y-111924297D01*
X154999918Y-111932990D01*
X154981082Y-111940448D01*
X154945310Y-111966437D01*
X154935394Y-111972951D01*
X154897337Y-111995458D01*
X154883011Y-112009784D01*
X154867985Y-112022617D01*
X154851595Y-112034525D01*
X154851593Y-112034527D01*
X154823400Y-112068605D01*
X154815413Y-112077381D01*
X146728700Y-120164095D01*
X146666388Y-120198121D01*
X146639605Y-120201000D01*
X142790200Y-120201000D01*
X142722079Y-120180998D01*
X142696563Y-120159310D01*
X142693252Y-120155633D01*
X142538752Y-120043382D01*
X142364288Y-119965706D01*
X142177487Y-119926000D01*
X141986513Y-119926000D01*
X141799711Y-119965706D01*
X141625247Y-120043382D01*
X141470744Y-120155635D01*
X141342965Y-120297548D01*
X141342958Y-120297558D01*
X141247552Y-120462807D01*
X141247473Y-120462944D01*
X141235205Y-120500700D01*
X141188457Y-120644572D01*
X141168496Y-120834500D01*
X125093500Y-120834500D01*
X125093500Y-119597000D01*
X126086496Y-119597000D01*
X126106457Y-119786927D01*
X126133273Y-119869455D01*
X126165473Y-119968556D01*
X126165476Y-119968561D01*
X126260958Y-120133941D01*
X126260965Y-120133951D01*
X126388744Y-120275864D01*
X126418603Y-120297558D01*
X126543248Y-120388118D01*
X126717712Y-120465794D01*
X126904513Y-120505500D01*
X127095487Y-120505500D01*
X127282288Y-120465794D01*
X127456752Y-120388118D01*
X127611253Y-120275866D01*
X127611255Y-120275864D01*
X127739034Y-120133951D01*
X127739035Y-120133949D01*
X127739040Y-120133944D01*
X127834527Y-119968556D01*
X127893542Y-119786928D01*
X127910907Y-119621704D01*
X127937920Y-119556049D01*
X127947113Y-119545790D01*
X129352560Y-118140343D01*
X129364998Y-118130380D01*
X129364810Y-118130153D01*
X129370916Y-118125101D01*
X129370915Y-118125101D01*
X129370918Y-118125100D01*
X129417562Y-118075427D01*
X129420252Y-118072651D01*
X129440035Y-118052870D01*
X129442514Y-118049673D01*
X129450211Y-118040659D01*
X129480486Y-118008421D01*
X129490246Y-117990665D01*
X129501095Y-117974150D01*
X129513514Y-117958141D01*
X129531079Y-117917546D01*
X129536284Y-117906921D01*
X129557595Y-117868160D01*
X129562633Y-117848534D01*
X129569037Y-117829832D01*
X129577080Y-117811247D01*
X129577079Y-117811247D01*
X129577081Y-117811245D01*
X129583996Y-117767581D01*
X129586404Y-117755952D01*
X129597400Y-117713130D01*
X129597400Y-117692875D01*
X129598951Y-117673163D01*
X129602120Y-117653157D01*
X129597959Y-117609136D01*
X129597400Y-117597279D01*
X129597400Y-115218524D01*
X129617402Y-115150403D01*
X129629758Y-115134220D01*
X129702940Y-115052944D01*
X129798427Y-114887556D01*
X129857442Y-114705928D01*
X129877404Y-114516000D01*
X129857442Y-114326072D01*
X129798427Y-114144444D01*
X129702940Y-113979056D01*
X129702938Y-113979054D01*
X129702934Y-113979048D01*
X129575155Y-113837135D01*
X129420652Y-113724882D01*
X129246188Y-113647206D01*
X129059387Y-113607500D01*
X128868413Y-113607500D01*
X128681611Y-113647206D01*
X128507147Y-113724882D01*
X128352644Y-113837135D01*
X128224865Y-113979048D01*
X128224858Y-113979058D01*
X128129376Y-114144438D01*
X128129373Y-114144445D01*
X128070357Y-114326072D01*
X128050396Y-114516000D01*
X128070357Y-114705927D01*
X128100426Y-114798470D01*
X128129373Y-114887556D01*
X128224860Y-115052944D01*
X128298037Y-115134215D01*
X128328753Y-115198220D01*
X128330400Y-115218524D01*
X128330400Y-117318505D01*
X128310398Y-117386626D01*
X128293495Y-117407600D01*
X127049500Y-118651595D01*
X126987188Y-118685621D01*
X126960405Y-118688500D01*
X126904513Y-118688500D01*
X126717711Y-118728206D01*
X126543247Y-118805882D01*
X126388744Y-118918135D01*
X126260965Y-119060048D01*
X126260958Y-119060058D01*
X126165476Y-119225438D01*
X126165473Y-119225444D01*
X126155557Y-119255963D01*
X126106457Y-119407072D01*
X126086496Y-119597000D01*
X125093500Y-119597000D01*
X125093500Y-117542524D01*
X125113502Y-117474403D01*
X125125858Y-117458220D01*
X125199040Y-117376944D01*
X125294527Y-117211556D01*
X125353542Y-117029928D01*
X125373504Y-116840000D01*
X125353542Y-116650072D01*
X125294527Y-116468444D01*
X125199040Y-116303056D01*
X125199038Y-116303054D01*
X125199034Y-116303048D01*
X125071255Y-116161135D01*
X124916752Y-116048882D01*
X124742288Y-115971206D01*
X124555487Y-115931500D01*
X124364513Y-115931500D01*
X124177711Y-115971206D01*
X124003247Y-116048882D01*
X123848744Y-116161135D01*
X123720965Y-116303048D01*
X123720958Y-116303058D01*
X123625476Y-116468438D01*
X123625473Y-116468445D01*
X123566457Y-116650072D01*
X123546496Y-116840000D01*
X100000500Y-116840000D01*
X100000500Y-114631182D01*
X103749500Y-114631182D01*
X103771224Y-114775311D01*
X103788604Y-114890619D01*
X103865933Y-115141314D01*
X103865938Y-115141327D01*
X103979773Y-115377706D01*
X103979777Y-115377713D01*
X104127562Y-115594472D01*
X104127567Y-115594479D01*
X104306019Y-115786805D01*
X104511143Y-115950386D01*
X104511146Y-115950388D01*
X104738352Y-116081566D01*
X104738356Y-116081567D01*
X104738357Y-116081568D01*
X104982584Y-116177420D01*
X105238370Y-116235802D01*
X105434506Y-116250500D01*
X105434507Y-116250500D01*
X105565493Y-116250500D01*
X105565494Y-116250500D01*
X105761630Y-116235802D01*
X106017416Y-116177420D01*
X106261643Y-116081568D01*
X106261645Y-116081566D01*
X106261647Y-116081566D01*
X106375250Y-116015977D01*
X106488857Y-115950386D01*
X106693981Y-115786805D01*
X106872433Y-115594479D01*
X107020228Y-115377704D01*
X107134063Y-115141323D01*
X107211396Y-114890615D01*
X107250500Y-114631182D01*
X107250500Y-114368818D01*
X107211396Y-114109385D01*
X107211395Y-114109383D01*
X107211395Y-114109380D01*
X107134066Y-113858685D01*
X107134061Y-113858672D01*
X107043089Y-113669768D01*
X107020228Y-113622296D01*
X107020226Y-113622293D01*
X107020222Y-113622286D01*
X106872437Y-113405527D01*
X106872433Y-113405521D01*
X106693981Y-113213195D01*
X106488857Y-113049614D01*
X106488852Y-113049611D01*
X106488853Y-113049611D01*
X106261647Y-112918433D01*
X106261639Y-112918430D01*
X106017419Y-112822581D01*
X106017417Y-112822580D01*
X105761633Y-112764198D01*
X105614528Y-112753174D01*
X105565494Y-112749500D01*
X105434506Y-112749500D01*
X105395278Y-112752439D01*
X105238366Y-112764198D01*
X104982582Y-112822580D01*
X104982580Y-112822581D01*
X104738360Y-112918430D01*
X104738352Y-112918433D01*
X104511146Y-113049611D01*
X104306018Y-113213195D01*
X104127566Y-113405522D01*
X104127562Y-113405527D01*
X103979777Y-113622286D01*
X103979773Y-113622293D01*
X103865938Y-113858672D01*
X103865933Y-113858685D01*
X103788604Y-114109380D01*
X103771962Y-114219792D01*
X103749500Y-114368818D01*
X103749500Y-114631182D01*
X100000500Y-114631182D01*
X100000500Y-110126500D01*
X100020502Y-110058379D01*
X100074158Y-110011886D01*
X100126500Y-110000500D01*
X100302184Y-110000500D01*
X100365473Y-109996671D01*
X100690677Y-109977000D01*
X132240844Y-109977000D01*
X132247587Y-110058379D01*
X132259437Y-110201375D01*
X132314702Y-110419612D01*
X132314703Y-110419613D01*
X132405141Y-110625793D01*
X132528275Y-110814265D01*
X132528279Y-110814270D01*
X132680762Y-110979908D01*
X132735331Y-111022381D01*
X132858424Y-111118189D01*
X133056426Y-111225342D01*
X133056427Y-111225342D01*
X133056428Y-111225343D01*
X133168227Y-111263723D01*
X133269365Y-111298444D01*
X133491431Y-111335500D01*
X133491435Y-111335500D01*
X133716565Y-111335500D01*
X133716569Y-111335500D01*
X133938635Y-111298444D01*
X134151574Y-111225342D01*
X134349576Y-111118189D01*
X134527240Y-110979906D01*
X134679722Y-110814268D01*
X134802860Y-110625791D01*
X134893296Y-110419616D01*
X134948564Y-110201368D01*
X134967156Y-109977000D01*
X134959216Y-109881182D01*
X164249500Y-109881182D01*
X164267334Y-109999500D01*
X164288604Y-110140619D01*
X164365933Y-110391314D01*
X164365938Y-110391327D01*
X164479773Y-110627706D01*
X164479777Y-110627713D01*
X164627562Y-110844472D01*
X164627567Y-110844479D01*
X164806019Y-111036805D01*
X165011143Y-111200386D01*
X165011146Y-111200388D01*
X165238352Y-111331566D01*
X165238356Y-111331567D01*
X165238357Y-111331568D01*
X165482584Y-111427420D01*
X165738370Y-111485802D01*
X165934506Y-111500500D01*
X165934507Y-111500500D01*
X166065493Y-111500500D01*
X166065494Y-111500500D01*
X166261630Y-111485802D01*
X166517416Y-111427420D01*
X166761643Y-111331568D01*
X166761645Y-111331566D01*
X166761647Y-111331566D01*
X166945632Y-111225342D01*
X166988857Y-111200386D01*
X167193981Y-111036805D01*
X167372433Y-110844479D01*
X167520228Y-110627704D01*
X167634063Y-110391323D01*
X167711396Y-110140615D01*
X167750500Y-109881182D01*
X167750500Y-109618818D01*
X167711396Y-109359385D01*
X167711395Y-109359383D01*
X167711395Y-109359380D01*
X167634066Y-109108685D01*
X167634061Y-109108672D01*
X167562091Y-108959226D01*
X167520228Y-108872296D01*
X167520226Y-108872293D01*
X167520222Y-108872286D01*
X167372437Y-108655527D01*
X167372433Y-108655521D01*
X167193981Y-108463195D01*
X166988857Y-108299614D01*
X166988852Y-108299611D01*
X166988853Y-108299611D01*
X166761647Y-108168433D01*
X166761639Y-108168430D01*
X166517419Y-108072581D01*
X166517417Y-108072580D01*
X166261633Y-108014198D01*
X166114528Y-108003174D01*
X166065494Y-107999500D01*
X165934506Y-107999500D01*
X165895278Y-108002439D01*
X165738366Y-108014198D01*
X165482582Y-108072580D01*
X165482580Y-108072581D01*
X165238360Y-108168430D01*
X165238352Y-108168433D01*
X165011146Y-108299611D01*
X164806018Y-108463195D01*
X164627566Y-108655522D01*
X164627562Y-108655527D01*
X164479777Y-108872286D01*
X164479773Y-108872293D01*
X164365938Y-109108672D01*
X164365933Y-109108685D01*
X164288604Y-109359380D01*
X164273772Y-109457784D01*
X164249500Y-109618818D01*
X164249500Y-109881182D01*
X134959216Y-109881182D01*
X134948564Y-109752632D01*
X134893296Y-109534384D01*
X134802860Y-109328209D01*
X134747494Y-109243465D01*
X134679724Y-109139734D01*
X134679719Y-109139729D01*
X134651133Y-109108677D01*
X134536524Y-108984179D01*
X134505103Y-108920514D01*
X134513090Y-108849968D01*
X134557948Y-108794939D01*
X134585183Y-108780789D01*
X134700204Y-108737889D01*
X134810235Y-108655521D01*
X134817261Y-108650261D01*
X134904887Y-108533207D01*
X134904887Y-108533206D01*
X134904889Y-108533204D01*
X134953860Y-108401909D01*
X134955988Y-108396204D01*
X134955990Y-108396196D01*
X134962499Y-108335649D01*
X134962500Y-108335632D01*
X134962500Y-106538367D01*
X134962499Y-106538350D01*
X134955990Y-106477803D01*
X134955988Y-106477795D01*
X134904889Y-106340797D01*
X134904887Y-106340792D01*
X134817261Y-106223738D01*
X134700207Y-106136112D01*
X134700202Y-106136110D01*
X134686990Y-106131182D01*
X165749500Y-106131182D01*
X165754881Y-106166880D01*
X165788604Y-106390619D01*
X165865933Y-106641314D01*
X165865938Y-106641327D01*
X165979773Y-106877706D01*
X165979777Y-106877713D01*
X166111364Y-107070714D01*
X166127567Y-107094479D01*
X166306019Y-107286805D01*
X166511143Y-107450386D01*
X166511146Y-107450388D01*
X166738352Y-107581566D01*
X166738356Y-107581567D01*
X166738357Y-107581568D01*
X166982584Y-107677420D01*
X167238370Y-107735802D01*
X167434506Y-107750500D01*
X167434507Y-107750500D01*
X167565493Y-107750500D01*
X167565494Y-107750500D01*
X167761630Y-107735802D01*
X168017416Y-107677420D01*
X168261643Y-107581568D01*
X168261645Y-107581566D01*
X168261647Y-107581566D01*
X168266699Y-107578649D01*
X176441500Y-107578649D01*
X176448009Y-107639196D01*
X176448011Y-107639204D01*
X176499110Y-107776202D01*
X176499112Y-107776207D01*
X176586738Y-107893261D01*
X176703792Y-107980887D01*
X176703794Y-107980888D01*
X176703796Y-107980889D01*
X176753694Y-107999500D01*
X176840795Y-108031988D01*
X176840803Y-108031990D01*
X176901350Y-108038499D01*
X176901355Y-108038499D01*
X176901362Y-108038500D01*
X176901368Y-108038500D01*
X178698632Y-108038500D01*
X178698638Y-108038500D01*
X178698645Y-108038499D01*
X178698649Y-108038499D01*
X178759196Y-108031990D01*
X178759199Y-108031989D01*
X178759201Y-108031989D01*
X178896204Y-107980889D01*
X179013261Y-107893261D01*
X179100889Y-107776204D01*
X179151989Y-107639201D01*
X179158500Y-107578638D01*
X179158500Y-105781362D01*
X179158499Y-105781350D01*
X179151990Y-105720803D01*
X179151988Y-105720795D01*
X179100889Y-105583797D01*
X179100887Y-105583792D01*
X179013261Y-105466738D01*
X178896207Y-105379112D01*
X178896204Y-105379111D01*
X178780686Y-105336024D01*
X178723851Y-105293477D01*
X178699041Y-105226957D01*
X178714133Y-105157583D01*
X178732019Y-105132632D01*
X178875323Y-104976961D01*
X178998419Y-104788548D01*
X179088820Y-104582456D01*
X179088823Y-104582449D01*
X179136544Y-104394000D01*
X178231116Y-104394000D01*
X178259493Y-104349844D01*
X178300000Y-104211889D01*
X178300000Y-104068111D01*
X178259493Y-103930156D01*
X178231116Y-103886000D01*
X179136544Y-103886000D01*
X179136544Y-103885999D01*
X179088823Y-103697550D01*
X179088820Y-103697543D01*
X178998419Y-103491451D01*
X178875325Y-103303041D01*
X178722902Y-103137465D01*
X178545301Y-102999232D01*
X178545300Y-102999231D01*
X178347371Y-102892117D01*
X178347369Y-102892116D01*
X178134512Y-102819043D01*
X178134501Y-102819040D01*
X178054000Y-102805606D01*
X178054000Y-103706325D01*
X177942315Y-103655320D01*
X177835763Y-103640000D01*
X177764237Y-103640000D01*
X177657685Y-103655320D01*
X177546000Y-103706325D01*
X177546000Y-102805607D01*
X177545999Y-102805606D01*
X177465498Y-102819040D01*
X177465487Y-102819043D01*
X177252630Y-102892116D01*
X177252628Y-102892117D01*
X177054699Y-102999231D01*
X177054698Y-102999232D01*
X176877097Y-103137465D01*
X176724674Y-103303041D01*
X176601580Y-103491451D01*
X176511179Y-103697543D01*
X176511176Y-103697550D01*
X176463455Y-103885999D01*
X176463456Y-103886000D01*
X177368884Y-103886000D01*
X177340507Y-103930156D01*
X177300000Y-104068111D01*
X177300000Y-104211889D01*
X177340507Y-104349844D01*
X177368884Y-104394000D01*
X176463455Y-104394000D01*
X176511176Y-104582449D01*
X176511179Y-104582456D01*
X176601580Y-104788548D01*
X176724674Y-104976958D01*
X176867981Y-105132632D01*
X176899401Y-105196297D01*
X176891414Y-105266843D01*
X176846555Y-105321872D01*
X176819313Y-105336024D01*
X176703795Y-105379111D01*
X176703792Y-105379112D01*
X176586738Y-105466738D01*
X176499112Y-105583792D01*
X176499110Y-105583797D01*
X176448011Y-105720795D01*
X176448009Y-105720803D01*
X176441500Y-105781350D01*
X176441500Y-107578649D01*
X168266699Y-107578649D01*
X168429366Y-107484733D01*
X168488857Y-107450386D01*
X168693981Y-107286805D01*
X168872433Y-107094479D01*
X169020228Y-106877704D01*
X169134063Y-106641323D01*
X169184502Y-106477803D01*
X169211395Y-106390619D01*
X169218905Y-106340796D01*
X169250500Y-106131182D01*
X169250500Y-105868818D01*
X169211396Y-105609385D01*
X169211395Y-105609383D01*
X169211395Y-105609380D01*
X169134066Y-105358685D01*
X169134061Y-105358672D01*
X169037221Y-105157583D01*
X169020228Y-105122296D01*
X169020226Y-105122293D01*
X169020222Y-105122286D01*
X168878919Y-104915034D01*
X168872433Y-104905521D01*
X168693981Y-104713195D01*
X168488857Y-104549614D01*
X168488852Y-104549611D01*
X168488853Y-104549611D01*
X168261647Y-104418433D01*
X168261639Y-104418430D01*
X168017419Y-104322581D01*
X168017417Y-104322580D01*
X167761633Y-104264198D01*
X167614528Y-104253174D01*
X167565494Y-104249500D01*
X167434506Y-104249500D01*
X167395278Y-104252439D01*
X167238366Y-104264198D01*
X166982582Y-104322580D01*
X166982580Y-104322581D01*
X166738360Y-104418430D01*
X166738352Y-104418433D01*
X166511146Y-104549611D01*
X166306018Y-104713195D01*
X166127566Y-104905522D01*
X166127562Y-104905527D01*
X165979777Y-105122286D01*
X165979773Y-105122293D01*
X165865938Y-105358672D01*
X165865933Y-105358685D01*
X165788604Y-105609380D01*
X165771811Y-105720795D01*
X165749500Y-105868818D01*
X165749500Y-106131182D01*
X134686990Y-106131182D01*
X134563204Y-106085011D01*
X134563196Y-106085009D01*
X134502649Y-106078500D01*
X134502638Y-106078500D01*
X132705362Y-106078500D01*
X132705350Y-106078500D01*
X132644803Y-106085009D01*
X132644795Y-106085011D01*
X132507797Y-106136110D01*
X132507792Y-106136112D01*
X132390738Y-106223738D01*
X132303112Y-106340792D01*
X132303110Y-106340797D01*
X132252011Y-106477795D01*
X132252009Y-106477803D01*
X132245500Y-106538350D01*
X132245500Y-108335649D01*
X132252009Y-108396196D01*
X132252011Y-108396204D01*
X132303110Y-108533202D01*
X132303112Y-108533207D01*
X132390738Y-108650261D01*
X132507791Y-108737886D01*
X132507792Y-108737886D01*
X132507796Y-108737889D01*
X132622810Y-108780787D01*
X132679642Y-108823332D01*
X132704453Y-108889852D01*
X132689362Y-108959226D01*
X132671475Y-108984179D01*
X132528280Y-109139729D01*
X132528275Y-109139734D01*
X132405141Y-109328206D01*
X132314703Y-109534386D01*
X132314702Y-109534387D01*
X132259437Y-109752624D01*
X132259436Y-109752630D01*
X132259436Y-109752632D01*
X132240844Y-109977000D01*
X100690677Y-109977000D01*
X100905447Y-109964009D01*
X100905455Y-109964008D01*
X100905457Y-109964008D01*
X101139188Y-109935627D01*
X101505407Y-109891160D01*
X102099874Y-109782220D01*
X102686679Y-109637586D01*
X103263680Y-109457785D01*
X103828772Y-109243474D01*
X104379894Y-108995434D01*
X104915034Y-108714571D01*
X105432239Y-108401909D01*
X105929623Y-108058590D01*
X106405370Y-107685866D01*
X106857745Y-107285097D01*
X107285097Y-106857745D01*
X107685866Y-106405370D01*
X108058590Y-105929623D01*
X108401909Y-105432239D01*
X108714571Y-104915034D01*
X108995434Y-104379894D01*
X109243474Y-103828772D01*
X109457785Y-103263680D01*
X109637586Y-102686679D01*
X109782220Y-102099874D01*
X109891160Y-101505407D01*
X109964009Y-100905447D01*
X110000500Y-100302183D01*
X110000500Y-100126500D01*
X110020502Y-100058379D01*
X110074158Y-100011886D01*
X110126500Y-100000500D01*
X179873500Y-100000500D01*
X179941621Y-100020502D01*
G37*
G04 #@! TD.AperFunction*
D20*
X180000000Y-100000000D02*
G75*
G03*
X190000000Y-110000000I10000000J0D01*
G01*
X110000000Y-100000000D02*
X180000000Y-100000000D01*
X190000000Y-148000000D02*
G75*
G03*
X180000000Y-158000000I0J-10000000D01*
G01*
X110000000Y-158000000D02*
X180000000Y-158000000D01*
X100000000Y-110000000D02*
X100000000Y-148000000D01*
X100000000Y-110000000D02*
G75*
G03*
X110000000Y-100000000I0J10000000D01*
G01*
X190000000Y-110000000D02*
X190000000Y-148000000D01*
X110000000Y-158000000D02*
G75*
G03*
X100000000Y-148000000I-10000000J0D01*
G01*
M02*
