G04 #@! TF.GenerationSoftware,KiCad,Pcbnew,6.0.11-2627ca5db0~126~ubuntu20.04.1*
G04 #@! TF.CreationDate,2024-08-13T23:32:27-05:00*
G04 #@! TF.ProjectId,lir-multi-charger,6c69722d-6d75-46c7-9469-2d6368617267,rev?*
G04 #@! TF.SameCoordinates,Original*
G04 #@! TF.FileFunction,Legend,Top*
G04 #@! TF.FilePolarity,Positive*
%FSLAX46Y46*%
G04 Gerber Fmt 4.6, Leading zero omitted, Abs format (unit mm)*
G04 Created by KiCad (PCBNEW 6.0.11-2627ca5db0~126~ubuntu20.04.1) date 2024-08-13 23:32:27*
%MOMM*%
%LPD*%
G01*
G04 APERTURE LIST*
G04 Aperture macros list*
%AMRoundRect*
0 Rectangle with rounded corners*
0 $1 Rounding radius*
0 $2 $3 $4 $5 $6 $7 $8 $9 X,Y pos of 4 corners*
0 Add a 4 corners polygon primitive as box body*
4,1,4,$2,$3,$4,$5,$6,$7,$8,$9,$2,$3,0*
0 Add four circle primitives for the rounded corners*
1,1,$1+$1,$2,$3*
1,1,$1+$1,$4,$5*
1,1,$1+$1,$6,$7*
1,1,$1+$1,$8,$9*
0 Add four rect primitives between the rounded corners*
20,1,$1+$1,$2,$3,$4,$5,0*
20,1,$1+$1,$4,$5,$6,$7,0*
20,1,$1+$1,$6,$7,$8,$9,0*
20,1,$1+$1,$8,$9,$2,$3,0*%
%AMFreePoly0*
4,1,22,0.500000,-0.750000,0.000000,-0.750000,0.000000,-0.745033,-0.079941,-0.743568,-0.215256,-0.701293,-0.333266,-0.622738,-0.424486,-0.514219,-0.481581,-0.384460,-0.499164,-0.250000,-0.500000,-0.250000,-0.500000,0.250000,-0.499164,0.250000,-0.499963,0.256109,-0.478152,0.396186,-0.417904,0.524511,-0.324060,0.630769,-0.204165,0.706417,-0.067858,0.745374,0.000000,0.744959,0.000000,0.750000,
0.500000,0.750000,0.500000,-0.750000,0.500000,-0.750000,$1*%
%AMFreePoly1*
4,1,20,0.000000,0.744959,0.073905,0.744508,0.209726,0.703889,0.328688,0.626782,0.421226,0.519385,0.479903,0.390333,0.500000,0.250000,0.500000,-0.250000,0.499851,-0.262216,0.476331,-0.402017,0.414519,-0.529596,0.319384,-0.634700,0.198574,-0.708877,0.061801,-0.746166,0.000000,-0.745033,0.000000,-0.750000,-0.500000,-0.750000,-0.500000,0.750000,0.000000,0.750000,0.000000,0.744959,
0.000000,0.744959,$1*%
G04 Aperture macros list end*
G04 #@! TA.AperFunction,Profile*
%ADD10C,0.050000*%
G04 #@! TD*
%ADD11C,0.300000*%
%ADD12C,0.175000*%
%ADD13C,0.150000*%
%ADD14C,0.010000*%
%ADD15C,0.120000*%
%ADD16C,0.100000*%
%ADD17C,3.000000*%
%ADD18C,1.998980*%
%ADD19RoundRect,0.250000X-0.450000X0.350000X-0.450000X-0.350000X0.450000X-0.350000X0.450000X0.350000X0*%
%ADD20R,1.700000X1.700000*%
%ADD21O,1.700000X1.700000*%
%ADD22R,1.560000X0.650000*%
%ADD23RoundRect,0.250000X0.450000X-0.350000X0.450000X0.350000X-0.450000X0.350000X-0.450000X-0.350000X0*%
%ADD24RoundRect,0.250000X0.475000X-0.337500X0.475000X0.337500X-0.475000X0.337500X-0.475000X-0.337500X0*%
%ADD25FreePoly0,270.000000*%
%ADD26FreePoly1,270.000000*%
%ADD27RoundRect,0.250000X-0.450000X0.325000X-0.450000X-0.325000X0.450000X-0.325000X0.450000X0.325000X0*%
%ADD28R,0.900000X1.200000*%
%ADD29RoundRect,0.250000X-0.475000X0.337500X-0.475000X-0.337500X0.475000X-0.337500X0.475000X0.337500X0*%
%ADD30R,3.800000X3.500000*%
%ADD31R,2.800000X5.700000*%
%ADD32C,1.200000*%
%ADD33R,2.300000X4.400000*%
%ADD34R,2.300000X4.000000*%
%ADD35C,1.700000*%
%ADD36C,0.650000*%
%ADD37R,1.450000X0.600000*%
%ADD38R,1.450000X0.300000*%
%ADD39O,2.100000X1.000000*%
%ADD40O,1.600000X1.000000*%
%ADD41R,3.900000X4.300000*%
%ADD42R,3.000000X6.500000*%
G04 APERTURE END LIST*
D10*
X180000000Y-100000000D02*
G75*
G03*
X190000000Y-110000000I10000000J0D01*
G01*
X110000000Y-100000000D02*
X180000000Y-100000000D01*
X190000000Y-148000000D02*
G75*
G03*
X180000000Y-158000000I0J-10000000D01*
G01*
X110000000Y-158000000D02*
X180000000Y-158000000D01*
X100000000Y-110000000D02*
X100000000Y-148000000D01*
X100000000Y-110000000D02*
G75*
G03*
X110000000Y-100000000I0J10000000D01*
G01*
X190000000Y-110000000D02*
X190000000Y-148000000D01*
X110000000Y-158000000D02*
G75*
G03*
X100000000Y-148000000I-10000000J0D01*
G01*
D11*
X172593142Y-103390000D02*
X172450285Y-103318571D01*
X172236000Y-103318571D01*
X172021714Y-103390000D01*
X171878857Y-103532857D01*
X171807428Y-103675714D01*
X171736000Y-103961428D01*
X171736000Y-104175714D01*
X171807428Y-104461428D01*
X171878857Y-104604285D01*
X172021714Y-104747142D01*
X172236000Y-104818571D01*
X172378857Y-104818571D01*
X172593142Y-104747142D01*
X172664571Y-104675714D01*
X172664571Y-104175714D01*
X172378857Y-104175714D01*
X173307428Y-104818571D02*
X173307428Y-103318571D01*
X174164571Y-104818571D01*
X174164571Y-103318571D01*
X174878857Y-104818571D02*
X174878857Y-103318571D01*
X175236000Y-103318571D01*
X175450285Y-103390000D01*
X175593142Y-103532857D01*
X175664571Y-103675714D01*
X175736000Y-103961428D01*
X175736000Y-104175714D01*
X175664571Y-104461428D01*
X175593142Y-104604285D01*
X175450285Y-104747142D01*
X175236000Y-104818571D01*
X174878857Y-104818571D01*
X163632000Y-148506571D02*
X162917714Y-148506571D01*
X162917714Y-147006571D01*
X164132000Y-148506571D02*
X164132000Y-147006571D01*
X165703428Y-148506571D02*
X165203428Y-147792285D01*
X164846285Y-148506571D02*
X164846285Y-147006571D01*
X165417714Y-147006571D01*
X165560571Y-147078000D01*
X165632000Y-147149428D01*
X165703428Y-147292285D01*
X165703428Y-147506571D01*
X165632000Y-147649428D01*
X165560571Y-147720857D01*
X165417714Y-147792285D01*
X164846285Y-147792285D01*
X167132000Y-148506571D02*
X166274857Y-148506571D01*
X166703428Y-148506571D02*
X166703428Y-147006571D01*
X166560571Y-147220857D01*
X166417714Y-147363714D01*
X166274857Y-147435142D01*
X167703428Y-147149428D02*
X167774857Y-147078000D01*
X167917714Y-147006571D01*
X168274857Y-147006571D01*
X168417714Y-147078000D01*
X168489142Y-147149428D01*
X168560571Y-147292285D01*
X168560571Y-147435142D01*
X168489142Y-147649428D01*
X167632000Y-148506571D01*
X168560571Y-148506571D01*
X169132000Y-147149428D02*
X169203428Y-147078000D01*
X169346285Y-147006571D01*
X169703428Y-147006571D01*
X169846285Y-147078000D01*
X169917714Y-147149428D01*
X169989142Y-147292285D01*
X169989142Y-147435142D01*
X169917714Y-147649428D01*
X169060571Y-148506571D01*
X169989142Y-148506571D01*
X170917714Y-147006571D02*
X171060571Y-147006571D01*
X171203428Y-147078000D01*
X171274857Y-147149428D01*
X171346285Y-147292285D01*
X171417714Y-147578000D01*
X171417714Y-147935142D01*
X171346285Y-148220857D01*
X171274857Y-148363714D01*
X171203428Y-148435142D01*
X171060571Y-148506571D01*
X170917714Y-148506571D01*
X170774857Y-148435142D01*
X170703428Y-148363714D01*
X170632000Y-148220857D01*
X170560571Y-147935142D01*
X170560571Y-147578000D01*
X170632000Y-147292285D01*
X170703428Y-147149428D01*
X170774857Y-147078000D01*
X170917714Y-147006571D01*
D12*
X180148666Y-115932666D02*
X179448666Y-115932666D01*
X179448666Y-115766000D01*
X179482000Y-115666000D01*
X179548666Y-115599333D01*
X179615333Y-115566000D01*
X179748666Y-115532666D01*
X179848666Y-115532666D01*
X179982000Y-115566000D01*
X180048666Y-115599333D01*
X180115333Y-115666000D01*
X180148666Y-115766000D01*
X180148666Y-115932666D01*
X179882000Y-115232666D02*
X179882000Y-114699333D01*
X180148666Y-114966000D02*
X179615333Y-114966000D01*
X180148666Y-118472666D02*
X179448666Y-118472666D01*
X179448666Y-118306000D01*
X179482000Y-118206000D01*
X179548666Y-118139333D01*
X179615333Y-118106000D01*
X179748666Y-118072666D01*
X179848666Y-118072666D01*
X179982000Y-118106000D01*
X180048666Y-118139333D01*
X180115333Y-118206000D01*
X180148666Y-118306000D01*
X180148666Y-118472666D01*
X179882000Y-117772666D02*
X179882000Y-117239333D01*
D11*
X112324000Y-148506571D02*
X111609714Y-148506571D01*
X111609714Y-147006571D01*
X112824000Y-148506571D02*
X112824000Y-147006571D01*
X114395428Y-148506571D02*
X113895428Y-147792285D01*
X113538285Y-148506571D02*
X113538285Y-147006571D01*
X114109714Y-147006571D01*
X114252571Y-147078000D01*
X114324000Y-147149428D01*
X114395428Y-147292285D01*
X114395428Y-147506571D01*
X114324000Y-147649428D01*
X114252571Y-147720857D01*
X114109714Y-147792285D01*
X113538285Y-147792285D01*
X114966857Y-147149428D02*
X115038285Y-147078000D01*
X115181142Y-147006571D01*
X115538285Y-147006571D01*
X115681142Y-147078000D01*
X115752571Y-147149428D01*
X115824000Y-147292285D01*
X115824000Y-147435142D01*
X115752571Y-147649428D01*
X114895428Y-148506571D01*
X115824000Y-148506571D01*
X117109714Y-147506571D02*
X117109714Y-148506571D01*
X116752571Y-146935142D02*
X116395428Y-148006571D01*
X117324000Y-148006571D01*
X118609714Y-147006571D02*
X117895428Y-147006571D01*
X117824000Y-147720857D01*
X117895428Y-147649428D01*
X118038285Y-147578000D01*
X118395428Y-147578000D01*
X118538285Y-147649428D01*
X118609714Y-147720857D01*
X118681142Y-147863714D01*
X118681142Y-148220857D01*
X118609714Y-148363714D01*
X118538285Y-148435142D01*
X118395428Y-148506571D01*
X118038285Y-148506571D01*
X117895428Y-148435142D01*
X117824000Y-148363714D01*
X119609714Y-147006571D02*
X119752571Y-147006571D01*
X119895428Y-147078000D01*
X119966857Y-147149428D01*
X120038285Y-147292285D01*
X120109714Y-147578000D01*
X120109714Y-147935142D01*
X120038285Y-148220857D01*
X119966857Y-148363714D01*
X119895428Y-148435142D01*
X119752571Y-148506571D01*
X119609714Y-148506571D01*
X119466857Y-148435142D01*
X119395428Y-148363714D01*
X119324000Y-148220857D01*
X119252571Y-147935142D01*
X119252571Y-147578000D01*
X119324000Y-147292285D01*
X119395428Y-147149428D01*
X119466857Y-147078000D01*
X119609714Y-147006571D01*
X171736000Y-105858571D02*
X172236000Y-107358571D01*
X172736000Y-105858571D01*
X174093142Y-107215714D02*
X174021714Y-107287142D01*
X173807428Y-107358571D01*
X173664571Y-107358571D01*
X173450285Y-107287142D01*
X173307428Y-107144285D01*
X173236000Y-107001428D01*
X173164571Y-106715714D01*
X173164571Y-106501428D01*
X173236000Y-106215714D01*
X173307428Y-106072857D01*
X173450285Y-105930000D01*
X173664571Y-105858571D01*
X173807428Y-105858571D01*
X174021714Y-105930000D01*
X174093142Y-106001428D01*
X175593142Y-107215714D02*
X175521714Y-107287142D01*
X175307428Y-107358571D01*
X175164571Y-107358571D01*
X174950285Y-107287142D01*
X174807428Y-107144285D01*
X174736000Y-107001428D01*
X174664571Y-106715714D01*
X174664571Y-106501428D01*
X174736000Y-106215714D01*
X174807428Y-106072857D01*
X174950285Y-105930000D01*
X175164571Y-105858571D01*
X175307428Y-105858571D01*
X175521714Y-105930000D01*
X175593142Y-106001428D01*
X140772000Y-148506571D02*
X140057714Y-148506571D01*
X140057714Y-147006571D01*
X141272000Y-148506571D02*
X141272000Y-147006571D01*
X142843428Y-148506571D02*
X142343428Y-147792285D01*
X141986285Y-148506571D02*
X141986285Y-147006571D01*
X142557714Y-147006571D01*
X142700571Y-147078000D01*
X142772000Y-147149428D01*
X142843428Y-147292285D01*
X142843428Y-147506571D01*
X142772000Y-147649428D01*
X142700571Y-147720857D01*
X142557714Y-147792285D01*
X141986285Y-147792285D01*
X143414857Y-147149428D02*
X143486285Y-147078000D01*
X143629142Y-147006571D01*
X143986285Y-147006571D01*
X144129142Y-147078000D01*
X144200571Y-147149428D01*
X144272000Y-147292285D01*
X144272000Y-147435142D01*
X144200571Y-147649428D01*
X143343428Y-148506571D01*
X144272000Y-148506571D01*
X145200571Y-147006571D02*
X145343428Y-147006571D01*
X145486285Y-147078000D01*
X145557714Y-147149428D01*
X145629142Y-147292285D01*
X145700571Y-147578000D01*
X145700571Y-147935142D01*
X145629142Y-148220857D01*
X145557714Y-148363714D01*
X145486285Y-148435142D01*
X145343428Y-148506571D01*
X145200571Y-148506571D01*
X145057714Y-148435142D01*
X144986285Y-148363714D01*
X144914857Y-148220857D01*
X144843428Y-147935142D01*
X144843428Y-147578000D01*
X144914857Y-147292285D01*
X144986285Y-147149428D01*
X145057714Y-147078000D01*
X145200571Y-147006571D01*
X146200571Y-147006571D02*
X147129142Y-147006571D01*
X146629142Y-147578000D01*
X146843428Y-147578000D01*
X146986285Y-147649428D01*
X147057714Y-147720857D01*
X147129142Y-147863714D01*
X147129142Y-148220857D01*
X147057714Y-148363714D01*
X146986285Y-148435142D01*
X146843428Y-148506571D01*
X146414857Y-148506571D01*
X146272000Y-148435142D01*
X146200571Y-148363714D01*
X147700571Y-147149428D02*
X147772000Y-147078000D01*
X147914857Y-147006571D01*
X148272000Y-147006571D01*
X148414857Y-147078000D01*
X148486285Y-147149428D01*
X148557714Y-147292285D01*
X148557714Y-147435142D01*
X148486285Y-147649428D01*
X147629142Y-148506571D01*
X148557714Y-148506571D01*
D13*
X139408571Y-155927904D02*
X139027619Y-155927904D01*
X139027619Y-155127904D01*
X139675238Y-155927904D02*
X139675238Y-155127904D01*
X140513333Y-155927904D02*
X140246666Y-155546952D01*
X140056190Y-155927904D02*
X140056190Y-155127904D01*
X140360952Y-155127904D01*
X140437142Y-155166000D01*
X140475238Y-155204095D01*
X140513333Y-155280285D01*
X140513333Y-155394571D01*
X140475238Y-155470761D01*
X140437142Y-155508857D01*
X140360952Y-155546952D01*
X140056190Y-155546952D01*
X141465714Y-155927904D02*
X141465714Y-155127904D01*
X141732380Y-155699333D01*
X141999047Y-155127904D01*
X141999047Y-155927904D01*
X142380000Y-155127904D02*
X142380000Y-155775523D01*
X142418095Y-155851714D01*
X142456190Y-155889809D01*
X142532380Y-155927904D01*
X142684761Y-155927904D01*
X142760952Y-155889809D01*
X142799047Y-155851714D01*
X142837142Y-155775523D01*
X142837142Y-155127904D01*
X143599047Y-155927904D02*
X143218095Y-155927904D01*
X143218095Y-155127904D01*
X143751428Y-155127904D02*
X144208571Y-155127904D01*
X143980000Y-155927904D02*
X143980000Y-155127904D01*
X144475238Y-155927904D02*
X144475238Y-155127904D01*
X145922857Y-155851714D02*
X145884761Y-155889809D01*
X145770476Y-155927904D01*
X145694285Y-155927904D01*
X145580000Y-155889809D01*
X145503809Y-155813619D01*
X145465714Y-155737428D01*
X145427619Y-155585047D01*
X145427619Y-155470761D01*
X145465714Y-155318380D01*
X145503809Y-155242190D01*
X145580000Y-155166000D01*
X145694285Y-155127904D01*
X145770476Y-155127904D01*
X145884761Y-155166000D01*
X145922857Y-155204095D01*
X146265714Y-155927904D02*
X146265714Y-155127904D01*
X146265714Y-155508857D02*
X146722857Y-155508857D01*
X146722857Y-155927904D02*
X146722857Y-155127904D01*
X147065714Y-155699333D02*
X147446666Y-155699333D01*
X146989523Y-155927904D02*
X147256190Y-155127904D01*
X147522857Y-155927904D01*
X148246666Y-155927904D02*
X147980000Y-155546952D01*
X147789523Y-155927904D02*
X147789523Y-155127904D01*
X148094285Y-155127904D01*
X148170476Y-155166000D01*
X148208571Y-155204095D01*
X148246666Y-155280285D01*
X148246666Y-155394571D01*
X148208571Y-155470761D01*
X148170476Y-155508857D01*
X148094285Y-155546952D01*
X147789523Y-155546952D01*
X149008571Y-155166000D02*
X148932380Y-155127904D01*
X148818095Y-155127904D01*
X148703809Y-155166000D01*
X148627619Y-155242190D01*
X148589523Y-155318380D01*
X148551428Y-155470761D01*
X148551428Y-155585047D01*
X148589523Y-155737428D01*
X148627619Y-155813619D01*
X148703809Y-155889809D01*
X148818095Y-155927904D01*
X148894285Y-155927904D01*
X149008571Y-155889809D01*
X149046666Y-155851714D01*
X149046666Y-155585047D01*
X148894285Y-155585047D01*
X149389523Y-155508857D02*
X149656190Y-155508857D01*
X149770476Y-155927904D02*
X149389523Y-155927904D01*
X149389523Y-155127904D01*
X149770476Y-155127904D01*
X150570476Y-155927904D02*
X150303809Y-155546952D01*
X150113333Y-155927904D02*
X150113333Y-155127904D01*
X150418095Y-155127904D01*
X150494285Y-155166000D01*
X150532380Y-155204095D01*
X150570476Y-155280285D01*
X150570476Y-155394571D01*
X150532380Y-155470761D01*
X150494285Y-155508857D01*
X150418095Y-155546952D01*
X150113333Y-155546952D01*
X141802380Y-103512857D02*
X141326190Y-103846190D01*
X141802380Y-104084285D02*
X140802380Y-104084285D01*
X140802380Y-103703333D01*
X140850000Y-103608095D01*
X140897619Y-103560476D01*
X140992857Y-103512857D01*
X141135714Y-103512857D01*
X141230952Y-103560476D01*
X141278571Y-103608095D01*
X141326190Y-103703333D01*
X141326190Y-104084285D01*
X141802380Y-102560476D02*
X141802380Y-103131904D01*
X141802380Y-102846190D02*
X140802380Y-102846190D01*
X140945238Y-102941428D01*
X141040476Y-103036666D01*
X141088095Y-103131904D01*
X140802380Y-101655714D02*
X140802380Y-102131904D01*
X141278571Y-102179523D01*
X141230952Y-102131904D01*
X141183333Y-102036666D01*
X141183333Y-101798571D01*
X141230952Y-101703333D01*
X141278571Y-101655714D01*
X141373809Y-101608095D01*
X141611904Y-101608095D01*
X141707142Y-101655714D01*
X141754761Y-101703333D01*
X141802380Y-101798571D01*
X141802380Y-102036666D01*
X141754761Y-102131904D01*
X141707142Y-102179523D01*
X156130666Y-109622380D02*
X156130666Y-110336666D01*
X156083047Y-110479523D01*
X155987809Y-110574761D01*
X155844952Y-110622380D01*
X155749714Y-110622380D01*
X157035428Y-109955714D02*
X157035428Y-110622380D01*
X156797333Y-109574761D02*
X156559238Y-110289047D01*
X157178285Y-110289047D01*
X163957095Y-113519380D02*
X163957095Y-114328904D01*
X164004714Y-114424142D01*
X164052333Y-114471761D01*
X164147571Y-114519380D01*
X164338047Y-114519380D01*
X164433285Y-114471761D01*
X164480904Y-114424142D01*
X164528523Y-114328904D01*
X164528523Y-113519380D01*
X165528523Y-114519380D02*
X164957095Y-114519380D01*
X165242809Y-114519380D02*
X165242809Y-113519380D01*
X165147571Y-113662238D01*
X165052333Y-113757476D01*
X164957095Y-113805095D01*
X167204380Y-124499666D02*
X166728190Y-124833000D01*
X167204380Y-125071095D02*
X166204380Y-125071095D01*
X166204380Y-124690142D01*
X166252000Y-124594904D01*
X166299619Y-124547285D01*
X166394857Y-124499666D01*
X166537714Y-124499666D01*
X166632952Y-124547285D01*
X166680571Y-124594904D01*
X166728190Y-124690142D01*
X166728190Y-125071095D01*
X166537714Y-123642523D02*
X167204380Y-123642523D01*
X166156761Y-123880619D02*
X166871047Y-124118714D01*
X166871047Y-123499666D01*
X156762142Y-119276666D02*
X156809761Y-119324285D01*
X156857380Y-119467142D01*
X156857380Y-119562380D01*
X156809761Y-119705238D01*
X156714523Y-119800476D01*
X156619285Y-119848095D01*
X156428809Y-119895714D01*
X156285952Y-119895714D01*
X156095476Y-119848095D01*
X156000238Y-119800476D01*
X155905000Y-119705238D01*
X155857380Y-119562380D01*
X155857380Y-119467142D01*
X155905000Y-119324285D01*
X155952619Y-119276666D01*
X156857380Y-118324285D02*
X156857380Y-118895714D01*
X156857380Y-118610000D02*
X155857380Y-118610000D01*
X156000238Y-118705238D01*
X156095476Y-118800476D01*
X156143095Y-118895714D01*
X155901380Y-152566666D02*
X155425190Y-152900000D01*
X155901380Y-153138095D02*
X154901380Y-153138095D01*
X154901380Y-152757142D01*
X154949000Y-152661904D01*
X154996619Y-152614285D01*
X155091857Y-152566666D01*
X155234714Y-152566666D01*
X155329952Y-152614285D01*
X155377571Y-152661904D01*
X155425190Y-152757142D01*
X155425190Y-153138095D01*
X155329952Y-151995238D02*
X155282333Y-152090476D01*
X155234714Y-152138095D01*
X155139476Y-152185714D01*
X155091857Y-152185714D01*
X154996619Y-152138095D01*
X154949000Y-152090476D01*
X154901380Y-151995238D01*
X154901380Y-151804761D01*
X154949000Y-151709523D01*
X154996619Y-151661904D01*
X155091857Y-151614285D01*
X155139476Y-151614285D01*
X155234714Y-151661904D01*
X155282333Y-151709523D01*
X155329952Y-151804761D01*
X155329952Y-151995238D01*
X155377571Y-152090476D01*
X155425190Y-152138095D01*
X155520428Y-152185714D01*
X155710904Y-152185714D01*
X155806142Y-152138095D01*
X155853761Y-152090476D01*
X155901380Y-151995238D01*
X155901380Y-151804761D01*
X155853761Y-151709523D01*
X155806142Y-151661904D01*
X155710904Y-151614285D01*
X155520428Y-151614285D01*
X155425190Y-151661904D01*
X155377571Y-151709523D01*
X155329952Y-151804761D01*
X152868380Y-111577334D02*
X153582666Y-111577334D01*
X153725523Y-111624953D01*
X153820761Y-111720191D01*
X153868380Y-111863048D01*
X153868380Y-111958286D01*
X153868380Y-111101143D02*
X152868380Y-111101143D01*
X152868380Y-110720191D01*
X152916000Y-110624953D01*
X152963619Y-110577334D01*
X153058857Y-110529715D01*
X153201714Y-110529715D01*
X153296952Y-110577334D01*
X153344571Y-110624953D01*
X153392190Y-110720191D01*
X153392190Y-111101143D01*
X152963619Y-110148762D02*
X152916000Y-110101143D01*
X152868380Y-110005905D01*
X152868380Y-109767810D01*
X152916000Y-109672572D01*
X152963619Y-109624953D01*
X153058857Y-109577334D01*
X153154095Y-109577334D01*
X153296952Y-109624953D01*
X153868380Y-110196381D01*
X153868380Y-109577334D01*
X162122380Y-110656666D02*
X161646190Y-110990000D01*
X162122380Y-111228095D02*
X161122380Y-111228095D01*
X161122380Y-110847142D01*
X161170000Y-110751904D01*
X161217619Y-110704285D01*
X161312857Y-110656666D01*
X161455714Y-110656666D01*
X161550952Y-110704285D01*
X161598571Y-110751904D01*
X161646190Y-110847142D01*
X161646190Y-111228095D01*
X161122380Y-110323333D02*
X161122380Y-109656666D01*
X162122380Y-110085238D01*
X151692380Y-103512857D02*
X151216190Y-103846190D01*
X151692380Y-104084285D02*
X150692380Y-104084285D01*
X150692380Y-103703333D01*
X150740000Y-103608095D01*
X150787619Y-103560476D01*
X150882857Y-103512857D01*
X151025714Y-103512857D01*
X151120952Y-103560476D01*
X151168571Y-103608095D01*
X151216190Y-103703333D01*
X151216190Y-104084285D01*
X151692380Y-102560476D02*
X151692380Y-103131904D01*
X151692380Y-102846190D02*
X150692380Y-102846190D01*
X150835238Y-102941428D01*
X150930476Y-103036666D01*
X150978095Y-103131904D01*
X150692380Y-101941428D02*
X150692380Y-101846190D01*
X150740000Y-101750952D01*
X150787619Y-101703333D01*
X150882857Y-101655714D01*
X151073333Y-101608095D01*
X151311428Y-101608095D01*
X151501904Y-101655714D01*
X151597142Y-101703333D01*
X151644761Y-101750952D01*
X151692380Y-101846190D01*
X151692380Y-101941428D01*
X151644761Y-102036666D01*
X151597142Y-102084285D01*
X151501904Y-102131904D01*
X151311428Y-102179523D01*
X151073333Y-102179523D01*
X150882857Y-102131904D01*
X150787619Y-102084285D01*
X150740000Y-102036666D01*
X150692380Y-101941428D01*
X171156380Y-123769333D02*
X171870666Y-123769333D01*
X172013523Y-123816952D01*
X172108761Y-123912190D01*
X172156380Y-124055047D01*
X172156380Y-124150285D01*
X172156380Y-123293142D02*
X171156380Y-123293142D01*
X171156380Y-122912190D01*
X171204000Y-122816952D01*
X171251619Y-122769333D01*
X171346857Y-122721714D01*
X171489714Y-122721714D01*
X171584952Y-122769333D01*
X171632571Y-122816952D01*
X171680190Y-122912190D01*
X171680190Y-123293142D01*
X172156380Y-121769333D02*
X172156380Y-122340761D01*
X172156380Y-122055047D02*
X171156380Y-122055047D01*
X171299238Y-122150285D01*
X171394476Y-122245523D01*
X171442095Y-122340761D01*
X176220380Y-153138095D02*
X175220380Y-153138095D01*
X175220380Y-152900000D01*
X175268000Y-152757142D01*
X175363238Y-152661904D01*
X175458476Y-152614285D01*
X175648952Y-152566666D01*
X175791809Y-152566666D01*
X175982285Y-152614285D01*
X176077523Y-152661904D01*
X176172761Y-152757142D01*
X176220380Y-152900000D01*
X176220380Y-153138095D01*
X175220380Y-152233333D02*
X175220380Y-151614285D01*
X175601333Y-151947619D01*
X175601333Y-151804761D01*
X175648952Y-151709523D01*
X175696571Y-151661904D01*
X175791809Y-151614285D01*
X176029904Y-151614285D01*
X176125142Y-151661904D01*
X176172761Y-151709523D01*
X176220380Y-151804761D01*
X176220380Y-152090476D01*
X176172761Y-152185714D01*
X176125142Y-152233333D01*
X169949904Y-111196380D02*
X169949904Y-110196380D01*
X170188000Y-110196380D01*
X170330857Y-110244000D01*
X170426095Y-110339238D01*
X170473714Y-110434476D01*
X170521333Y-110624952D01*
X170521333Y-110767809D01*
X170473714Y-110958285D01*
X170426095Y-111053523D01*
X170330857Y-111148761D01*
X170188000Y-111196380D01*
X169949904Y-111196380D01*
X171473714Y-111196380D02*
X170902285Y-111196380D01*
X171188000Y-111196380D02*
X171188000Y-110196380D01*
X171092761Y-110339238D01*
X170997523Y-110434476D01*
X170902285Y-110482095D01*
X162122380Y-103036666D02*
X161646190Y-103370000D01*
X162122380Y-103608095D02*
X161122380Y-103608095D01*
X161122380Y-103227142D01*
X161170000Y-103131904D01*
X161217619Y-103084285D01*
X161312857Y-103036666D01*
X161455714Y-103036666D01*
X161550952Y-103084285D01*
X161598571Y-103131904D01*
X161646190Y-103227142D01*
X161646190Y-103608095D01*
X161122380Y-102131904D02*
X161122380Y-102608095D01*
X161598571Y-102655714D01*
X161550952Y-102608095D01*
X161503333Y-102512857D01*
X161503333Y-102274761D01*
X161550952Y-102179523D01*
X161598571Y-102131904D01*
X161693809Y-102084285D01*
X161931904Y-102084285D01*
X162027142Y-102131904D01*
X162074761Y-102179523D01*
X162122380Y-102274761D01*
X162122380Y-102512857D01*
X162074761Y-102608095D01*
X162027142Y-102655714D01*
X180006666Y-122896380D02*
X180006666Y-123610666D01*
X179959047Y-123753523D01*
X179863809Y-123848761D01*
X179720952Y-123896380D01*
X179625714Y-123896380D01*
X180387619Y-122896380D02*
X181006666Y-122896380D01*
X180673333Y-123277333D01*
X180816190Y-123277333D01*
X180911428Y-123324952D01*
X180959047Y-123372571D01*
X181006666Y-123467809D01*
X181006666Y-123705904D01*
X180959047Y-123801142D01*
X180911428Y-123848761D01*
X180816190Y-123896380D01*
X180530476Y-123896380D01*
X180435238Y-123848761D01*
X180387619Y-123801142D01*
X131064095Y-111868380D02*
X131064095Y-112677904D01*
X131111714Y-112773142D01*
X131159333Y-112820761D01*
X131254571Y-112868380D01*
X131445047Y-112868380D01*
X131540285Y-112820761D01*
X131587904Y-112773142D01*
X131635523Y-112677904D01*
X131635523Y-111868380D01*
X132016476Y-111868380D02*
X132635523Y-111868380D01*
X132302190Y-112249333D01*
X132445047Y-112249333D01*
X132540285Y-112296952D01*
X132587904Y-112344571D01*
X132635523Y-112439809D01*
X132635523Y-112677904D01*
X132587904Y-112773142D01*
X132540285Y-112820761D01*
X132445047Y-112868380D01*
X132159333Y-112868380D01*
X132064095Y-112820761D01*
X132016476Y-112773142D01*
X146304095Y-111741380D02*
X146304095Y-112550904D01*
X146351714Y-112646142D01*
X146399333Y-112693761D01*
X146494571Y-112741380D01*
X146685047Y-112741380D01*
X146780285Y-112693761D01*
X146827904Y-112646142D01*
X146875523Y-112550904D01*
X146875523Y-111741380D01*
X147304095Y-111836619D02*
X147351714Y-111789000D01*
X147446952Y-111741380D01*
X147685047Y-111741380D01*
X147780285Y-111789000D01*
X147827904Y-111836619D01*
X147875523Y-111931857D01*
X147875523Y-112027095D01*
X147827904Y-112169952D01*
X147256476Y-112741380D01*
X147875523Y-112741380D01*
X154502380Y-153138095D02*
X153502380Y-153138095D01*
X153502380Y-152900000D01*
X153550000Y-152757142D01*
X153645238Y-152661904D01*
X153740476Y-152614285D01*
X153930952Y-152566666D01*
X154073809Y-152566666D01*
X154264285Y-152614285D01*
X154359523Y-152661904D01*
X154454761Y-152757142D01*
X154502380Y-152900000D01*
X154502380Y-153138095D01*
X153835714Y-151709523D02*
X154502380Y-151709523D01*
X153454761Y-151947619D02*
X154169047Y-152185714D01*
X154169047Y-151566666D01*
X141802380Y-107322857D02*
X141326190Y-107656190D01*
X141802380Y-107894285D02*
X140802380Y-107894285D01*
X140802380Y-107513333D01*
X140850000Y-107418095D01*
X140897619Y-107370476D01*
X140992857Y-107322857D01*
X141135714Y-107322857D01*
X141230952Y-107370476D01*
X141278571Y-107418095D01*
X141326190Y-107513333D01*
X141326190Y-107894285D01*
X141802380Y-106370476D02*
X141802380Y-106941904D01*
X141802380Y-106656190D02*
X140802380Y-106656190D01*
X140945238Y-106751428D01*
X141040476Y-106846666D01*
X141088095Y-106941904D01*
X140802380Y-105513333D02*
X140802380Y-105703809D01*
X140850000Y-105799047D01*
X140897619Y-105846666D01*
X141040476Y-105941904D01*
X141230952Y-105989523D01*
X141611904Y-105989523D01*
X141707142Y-105941904D01*
X141754761Y-105894285D01*
X141802380Y-105799047D01*
X141802380Y-105608571D01*
X141754761Y-105513333D01*
X141707142Y-105465714D01*
X141611904Y-105418095D01*
X141373809Y-105418095D01*
X141278571Y-105465714D01*
X141230952Y-105513333D01*
X141183333Y-105608571D01*
X141183333Y-105799047D01*
X141230952Y-105894285D01*
X141278571Y-105941904D01*
X141373809Y-105989523D01*
X151692380Y-107322857D02*
X151216190Y-107656190D01*
X151692380Y-107894285D02*
X150692380Y-107894285D01*
X150692380Y-107513333D01*
X150740000Y-107418095D01*
X150787619Y-107370476D01*
X150882857Y-107322857D01*
X151025714Y-107322857D01*
X151120952Y-107370476D01*
X151168571Y-107418095D01*
X151216190Y-107513333D01*
X151216190Y-107894285D01*
X151692380Y-106370476D02*
X151692380Y-106941904D01*
X151692380Y-106656190D02*
X150692380Y-106656190D01*
X150835238Y-106751428D01*
X150930476Y-106846666D01*
X150978095Y-106941904D01*
X151692380Y-105418095D02*
X151692380Y-105989523D01*
X151692380Y-105703809D02*
X150692380Y-105703809D01*
X150835238Y-105799047D01*
X150930476Y-105894285D01*
X150978095Y-105989523D01*
X162122380Y-106846666D02*
X161646190Y-107180000D01*
X162122380Y-107418095D02*
X161122380Y-107418095D01*
X161122380Y-107037142D01*
X161170000Y-106941904D01*
X161217619Y-106894285D01*
X161312857Y-106846666D01*
X161455714Y-106846666D01*
X161550952Y-106894285D01*
X161598571Y-106941904D01*
X161646190Y-107037142D01*
X161646190Y-107418095D01*
X161122380Y-105989523D02*
X161122380Y-106180000D01*
X161170000Y-106275238D01*
X161217619Y-106322857D01*
X161360476Y-106418095D01*
X161550952Y-106465714D01*
X161931904Y-106465714D01*
X162027142Y-106418095D01*
X162074761Y-106370476D01*
X162122380Y-106275238D01*
X162122380Y-106084761D01*
X162074761Y-105989523D01*
X162027142Y-105941904D01*
X161931904Y-105894285D01*
X161693809Y-105894285D01*
X161598571Y-105941904D01*
X161550952Y-105989523D01*
X161503333Y-106084761D01*
X161503333Y-106275238D01*
X161550952Y-106370476D01*
X161598571Y-106418095D01*
X161693809Y-106465714D01*
X142626142Y-121070666D02*
X142673761Y-121118285D01*
X142721380Y-121261142D01*
X142721380Y-121356380D01*
X142673761Y-121499238D01*
X142578523Y-121594476D01*
X142483285Y-121642095D01*
X142292809Y-121689714D01*
X142149952Y-121689714D01*
X141959476Y-121642095D01*
X141864238Y-121594476D01*
X141769000Y-121499238D01*
X141721380Y-121356380D01*
X141721380Y-121261142D01*
X141769000Y-121118285D01*
X141816619Y-121070666D01*
X142054714Y-120213523D02*
X142721380Y-120213523D01*
X141673761Y-120451619D02*
X142388047Y-120689714D01*
X142388047Y-120070666D01*
X165867142Y-124626666D02*
X165914761Y-124674285D01*
X165962380Y-124817142D01*
X165962380Y-124912380D01*
X165914761Y-125055238D01*
X165819523Y-125150476D01*
X165724285Y-125198095D01*
X165533809Y-125245714D01*
X165390952Y-125245714D01*
X165200476Y-125198095D01*
X165105238Y-125150476D01*
X165010000Y-125055238D01*
X164962380Y-124912380D01*
X164962380Y-124817142D01*
X165010000Y-124674285D01*
X165057619Y-124626666D01*
X165057619Y-124245714D02*
X165010000Y-124198095D01*
X164962380Y-124102857D01*
X164962380Y-123864761D01*
X165010000Y-123769523D01*
X165057619Y-123721904D01*
X165152857Y-123674285D01*
X165248095Y-123674285D01*
X165390952Y-123721904D01*
X165962380Y-124293333D01*
X165962380Y-123674285D01*
X141802380Y-111132857D02*
X141326190Y-111466190D01*
X141802380Y-111704285D02*
X140802380Y-111704285D01*
X140802380Y-111323333D01*
X140850000Y-111228095D01*
X140897619Y-111180476D01*
X140992857Y-111132857D01*
X141135714Y-111132857D01*
X141230952Y-111180476D01*
X141278571Y-111228095D01*
X141326190Y-111323333D01*
X141326190Y-111704285D01*
X141802380Y-110180476D02*
X141802380Y-110751904D01*
X141802380Y-110466190D02*
X140802380Y-110466190D01*
X140945238Y-110561428D01*
X141040476Y-110656666D01*
X141088095Y-110751904D01*
X140802380Y-109847142D02*
X140802380Y-109180476D01*
X141802380Y-109609047D01*
X135837142Y-122086666D02*
X135884761Y-122134285D01*
X135932380Y-122277142D01*
X135932380Y-122372380D01*
X135884761Y-122515238D01*
X135789523Y-122610476D01*
X135694285Y-122658095D01*
X135503809Y-122705714D01*
X135360952Y-122705714D01*
X135170476Y-122658095D01*
X135075238Y-122610476D01*
X134980000Y-122515238D01*
X134932380Y-122372380D01*
X134932380Y-122277142D01*
X134980000Y-122134285D01*
X135027619Y-122086666D01*
X134932380Y-121181904D02*
X134932380Y-121658095D01*
X135408571Y-121705714D01*
X135360952Y-121658095D01*
X135313333Y-121562857D01*
X135313333Y-121324761D01*
X135360952Y-121229523D01*
X135408571Y-121181904D01*
X135503809Y-121134285D01*
X135741904Y-121134285D01*
X135837142Y-121181904D01*
X135884761Y-121229523D01*
X135932380Y-121324761D01*
X135932380Y-121562857D01*
X135884761Y-121658095D01*
X135837142Y-121705714D01*
X149023571Y-134080714D02*
X149071190Y-133937857D01*
X149118809Y-133890238D01*
X149214047Y-133842619D01*
X149356904Y-133842619D01*
X149452142Y-133890238D01*
X149499761Y-133937857D01*
X149547380Y-134033095D01*
X149547380Y-134414047D01*
X148547380Y-134414047D01*
X148547380Y-134080714D01*
X148595000Y-133985476D01*
X148642619Y-133937857D01*
X148737857Y-133890238D01*
X148833095Y-133890238D01*
X148928333Y-133937857D01*
X148975952Y-133985476D01*
X149023571Y-134080714D01*
X149023571Y-134414047D01*
X148547380Y-133556904D02*
X148547380Y-132985476D01*
X149547380Y-133271190D02*
X148547380Y-133271190D01*
X148642619Y-132699761D02*
X148595000Y-132652142D01*
X148547380Y-132556904D01*
X148547380Y-132318809D01*
X148595000Y-132223571D01*
X148642619Y-132175952D01*
X148737857Y-132128333D01*
X148833095Y-132128333D01*
X148975952Y-132175952D01*
X149547380Y-132747380D01*
X149547380Y-132128333D01*
X180514666Y-107656380D02*
X180514666Y-108370666D01*
X180467047Y-108513523D01*
X180371809Y-108608761D01*
X180228952Y-108656380D01*
X180133714Y-108656380D01*
X180943238Y-107751619D02*
X180990857Y-107704000D01*
X181086095Y-107656380D01*
X181324190Y-107656380D01*
X181419428Y-107704000D01*
X181467047Y-107751619D01*
X181514666Y-107846857D01*
X181514666Y-107942095D01*
X181467047Y-108084952D01*
X180895619Y-108656380D01*
X181514666Y-108656380D01*
X168983571Y-138385714D02*
X169031190Y-138242857D01*
X169078809Y-138195238D01*
X169174047Y-138147619D01*
X169316904Y-138147619D01*
X169412142Y-138195238D01*
X169459761Y-138242857D01*
X169507380Y-138338095D01*
X169507380Y-138719047D01*
X168507380Y-138719047D01*
X168507380Y-138385714D01*
X168555000Y-138290476D01*
X168602619Y-138242857D01*
X168697857Y-138195238D01*
X168793095Y-138195238D01*
X168888333Y-138242857D01*
X168935952Y-138290476D01*
X168983571Y-138385714D01*
X168983571Y-138719047D01*
X168507380Y-137861904D02*
X168507380Y-137290476D01*
X169507380Y-137576190D02*
X168507380Y-137576190D01*
X168507380Y-137052380D02*
X168507380Y-136433333D01*
X168888333Y-136766666D01*
X168888333Y-136623809D01*
X168935952Y-136528571D01*
X168983571Y-136480952D01*
X169078809Y-136433333D01*
X169316904Y-136433333D01*
X169412142Y-136480952D01*
X169459761Y-136528571D01*
X169507380Y-136623809D01*
X169507380Y-136909523D01*
X169459761Y-137004761D01*
X169412142Y-137052380D01*
X151692380Y-111132857D02*
X151216190Y-111466190D01*
X151692380Y-111704285D02*
X150692380Y-111704285D01*
X150692380Y-111323333D01*
X150740000Y-111228095D01*
X150787619Y-111180476D01*
X150882857Y-111132857D01*
X151025714Y-111132857D01*
X151120952Y-111180476D01*
X151168571Y-111228095D01*
X151216190Y-111323333D01*
X151216190Y-111704285D01*
X151692380Y-110180476D02*
X151692380Y-110751904D01*
X151692380Y-110466190D02*
X150692380Y-110466190D01*
X150835238Y-110561428D01*
X150930476Y-110656666D01*
X150978095Y-110751904D01*
X150787619Y-109799523D02*
X150740000Y-109751904D01*
X150692380Y-109656666D01*
X150692380Y-109418571D01*
X150740000Y-109323333D01*
X150787619Y-109275714D01*
X150882857Y-109228095D01*
X150978095Y-109228095D01*
X151120952Y-109275714D01*
X151692380Y-109847142D01*
X151692380Y-109228095D01*
X129500379Y-105989334D02*
X130214665Y-105989334D01*
X130357522Y-106036953D01*
X130452760Y-106132191D01*
X130500379Y-106275048D01*
X130500379Y-106370286D01*
X130500379Y-105513143D02*
X129500379Y-105513143D01*
X129500379Y-105132191D01*
X129547999Y-105036953D01*
X129595618Y-104989334D01*
X129690856Y-104941715D01*
X129833713Y-104941715D01*
X129928951Y-104989334D01*
X129976570Y-105036953D01*
X130024189Y-105132191D01*
X130024189Y-105513143D01*
X129500379Y-104608381D02*
X129500379Y-103989334D01*
X129881332Y-104322667D01*
X129881332Y-104179810D01*
X129928951Y-104084572D01*
X129976570Y-104036953D01*
X130071808Y-103989334D01*
X130309903Y-103989334D01*
X130405141Y-104036953D01*
X130452760Y-104084572D01*
X130500379Y-104179810D01*
X130500379Y-104465524D01*
X130452760Y-104560762D01*
X130405141Y-104608381D01*
X177466666Y-112438380D02*
X177466666Y-113152666D01*
X177419047Y-113295523D01*
X177323809Y-113390761D01*
X177180952Y-113438380D01*
X177085714Y-113438380D01*
X178371428Y-112438380D02*
X178180952Y-112438380D01*
X178085714Y-112486000D01*
X178038095Y-112533619D01*
X177942857Y-112676476D01*
X177895238Y-112866952D01*
X177895238Y-113247904D01*
X177942857Y-113343142D01*
X177990476Y-113390761D01*
X178085714Y-113438380D01*
X178276190Y-113438380D01*
X178371428Y-113390761D01*
X178419047Y-113343142D01*
X178466666Y-113247904D01*
X178466666Y-113009809D01*
X178419047Y-112914571D01*
X178371428Y-112866952D01*
X178276190Y-112819333D01*
X178085714Y-112819333D01*
X177990476Y-112866952D01*
X177942857Y-112914571D01*
X177895238Y-113009809D01*
X141737142Y-127166666D02*
X141784761Y-127214285D01*
X141832380Y-127357142D01*
X141832380Y-127452380D01*
X141784761Y-127595238D01*
X141689523Y-127690476D01*
X141594285Y-127738095D01*
X141403809Y-127785714D01*
X141260952Y-127785714D01*
X141070476Y-127738095D01*
X140975238Y-127690476D01*
X140880000Y-127595238D01*
X140832380Y-127452380D01*
X140832380Y-127357142D01*
X140880000Y-127214285D01*
X140927619Y-127166666D01*
X140832380Y-126309523D02*
X140832380Y-126500000D01*
X140880000Y-126595238D01*
X140927619Y-126642857D01*
X141070476Y-126738095D01*
X141260952Y-126785714D01*
X141641904Y-126785714D01*
X141737142Y-126738095D01*
X141784761Y-126690476D01*
X141832380Y-126595238D01*
X141832380Y-126404761D01*
X141784761Y-126309523D01*
X141737142Y-126261904D01*
X141641904Y-126214285D01*
X141403809Y-126214285D01*
X141308571Y-126261904D01*
X141260952Y-126309523D01*
X141213333Y-126404761D01*
X141213333Y-126595238D01*
X141260952Y-126690476D01*
X141308571Y-126738095D01*
X141403809Y-126785714D01*
X131642380Y-153138095D02*
X130642380Y-153138095D01*
X130642380Y-152900000D01*
X130690000Y-152757142D01*
X130785238Y-152661904D01*
X130880476Y-152614285D01*
X131070952Y-152566666D01*
X131213809Y-152566666D01*
X131404285Y-152614285D01*
X131499523Y-152661904D01*
X131594761Y-152757142D01*
X131642380Y-152900000D01*
X131642380Y-153138095D01*
X130642380Y-151661904D02*
X130642380Y-152138095D01*
X131118571Y-152185714D01*
X131070952Y-152138095D01*
X131023333Y-152042857D01*
X131023333Y-151804761D01*
X131070952Y-151709523D01*
X131118571Y-151661904D01*
X131213809Y-151614285D01*
X131451904Y-151614285D01*
X131547142Y-151661904D01*
X131594761Y-151709523D01*
X131642380Y-151804761D01*
X131642380Y-152042857D01*
X131594761Y-152138095D01*
X131547142Y-152185714D01*
X184364380Y-123269333D02*
X185078666Y-123269333D01*
X185221523Y-123316952D01*
X185316761Y-123412190D01*
X185364380Y-123555047D01*
X185364380Y-123650285D01*
X185364380Y-122269333D02*
X185364380Y-122840761D01*
X185364380Y-122555047D02*
X184364380Y-122555047D01*
X184507238Y-122650285D01*
X184602476Y-122745523D01*
X184650095Y-122840761D01*
X144090380Y-119546666D02*
X143614190Y-119880000D01*
X144090380Y-120118095D02*
X143090380Y-120118095D01*
X143090380Y-119737142D01*
X143138000Y-119641904D01*
X143185619Y-119594285D01*
X143280857Y-119546666D01*
X143423714Y-119546666D01*
X143518952Y-119594285D01*
X143566571Y-119641904D01*
X143614190Y-119737142D01*
X143614190Y-120118095D01*
X144090380Y-119070476D02*
X144090380Y-118880000D01*
X144042761Y-118784761D01*
X143995142Y-118737142D01*
X143852285Y-118641904D01*
X143661809Y-118594285D01*
X143280857Y-118594285D01*
X143185619Y-118641904D01*
X143138000Y-118689523D01*
X143090380Y-118784761D01*
X143090380Y-118975238D01*
X143138000Y-119070476D01*
X143185619Y-119118095D01*
X143280857Y-119165714D01*
X143518952Y-119165714D01*
X143614190Y-119118095D01*
X143661809Y-119070476D01*
X143709428Y-118975238D01*
X143709428Y-118784761D01*
X143661809Y-118689523D01*
X143614190Y-118641904D01*
X143518952Y-118594285D01*
X121928571Y-130785714D02*
X121976190Y-130642857D01*
X122023809Y-130595238D01*
X122119047Y-130547619D01*
X122261904Y-130547619D01*
X122357142Y-130595238D01*
X122404761Y-130642857D01*
X122452380Y-130738095D01*
X122452380Y-131119047D01*
X121452380Y-131119047D01*
X121452380Y-130785714D01*
X121500000Y-130690476D01*
X121547619Y-130642857D01*
X121642857Y-130595238D01*
X121738095Y-130595238D01*
X121833333Y-130642857D01*
X121880952Y-130690476D01*
X121928571Y-130785714D01*
X121928571Y-131119047D01*
X121452380Y-130261904D02*
X121452380Y-129690476D01*
X122452380Y-129976190D02*
X121452380Y-129976190D01*
X122452380Y-128833333D02*
X122452380Y-129404761D01*
X122452380Y-129119047D02*
X121452380Y-129119047D01*
X121595238Y-129214285D01*
X121690476Y-129309523D01*
X121738095Y-129404761D01*
X175902380Y-118276666D02*
X175426190Y-118610000D01*
X175902380Y-118848095D02*
X174902380Y-118848095D01*
X174902380Y-118467142D01*
X174950000Y-118371904D01*
X174997619Y-118324285D01*
X175092857Y-118276666D01*
X175235714Y-118276666D01*
X175330952Y-118324285D01*
X175378571Y-118371904D01*
X175426190Y-118467142D01*
X175426190Y-118848095D01*
X175902380Y-117324285D02*
X175902380Y-117895714D01*
X175902380Y-117610000D02*
X174902380Y-117610000D01*
X175045238Y-117705238D01*
X175140476Y-117800476D01*
X175188095Y-117895714D01*
X167917904Y-114752380D02*
X167917904Y-113752380D01*
X168156000Y-113752380D01*
X168298857Y-113800000D01*
X168394095Y-113895238D01*
X168441714Y-113990476D01*
X168489333Y-114180952D01*
X168489333Y-114323809D01*
X168441714Y-114514285D01*
X168394095Y-114609523D01*
X168298857Y-114704761D01*
X168156000Y-114752380D01*
X167917904Y-114752380D01*
X168870285Y-113847619D02*
X168917904Y-113800000D01*
X169013142Y-113752380D01*
X169251238Y-113752380D01*
X169346476Y-113800000D01*
X169394095Y-113847619D01*
X169441714Y-113942857D01*
X169441714Y-114038095D01*
X169394095Y-114180952D01*
X168822666Y-114752380D01*
X169441714Y-114752380D01*
X169680380Y-118276666D02*
X169204190Y-118610000D01*
X169680380Y-118848095D02*
X168680380Y-118848095D01*
X168680380Y-118467142D01*
X168728000Y-118371904D01*
X168775619Y-118324285D01*
X168870857Y-118276666D01*
X169013714Y-118276666D01*
X169108952Y-118324285D01*
X169156571Y-118371904D01*
X169204190Y-118467142D01*
X169204190Y-118848095D01*
X168775619Y-117895714D02*
X168728000Y-117848095D01*
X168680380Y-117752857D01*
X168680380Y-117514761D01*
X168728000Y-117419523D01*
X168775619Y-117371904D01*
X168870857Y-117324285D01*
X168966095Y-117324285D01*
X169108952Y-117371904D01*
X169680380Y-117943333D01*
X169680380Y-117324285D01*
X133270666Y-104559380D02*
X133270666Y-105273666D01*
X133223047Y-105416523D01*
X133127809Y-105511761D01*
X132984952Y-105559380D01*
X132889714Y-105559380D01*
X134223047Y-104559380D02*
X133746857Y-104559380D01*
X133699238Y-105035571D01*
X133746857Y-104987952D01*
X133842095Y-104940333D01*
X134080190Y-104940333D01*
X134175428Y-104987952D01*
X134223047Y-105035571D01*
X134270666Y-105130809D01*
X134270666Y-105368904D01*
X134223047Y-105464142D01*
X134175428Y-105511761D01*
X134080190Y-105559380D01*
X133842095Y-105559380D01*
X133746857Y-105511761D01*
X133699238Y-105464142D01*
X177618380Y-152566666D02*
X177142190Y-152900000D01*
X177618380Y-153138095D02*
X176618380Y-153138095D01*
X176618380Y-152757142D01*
X176666000Y-152661904D01*
X176713619Y-152614285D01*
X176808857Y-152566666D01*
X176951714Y-152566666D01*
X177046952Y-152614285D01*
X177094571Y-152661904D01*
X177142190Y-152757142D01*
X177142190Y-153138095D01*
X176618380Y-152233333D02*
X176618380Y-151614285D01*
X176999333Y-151947619D01*
X176999333Y-151804761D01*
X177046952Y-151709523D01*
X177094571Y-151661904D01*
X177189809Y-151614285D01*
X177427904Y-151614285D01*
X177523142Y-151661904D01*
X177570761Y-151709523D01*
X177618380Y-151804761D01*
X177618380Y-152090476D01*
X177570761Y-152185714D01*
X177523142Y-152233333D01*
X140272142Y-115736666D02*
X140319761Y-115784285D01*
X140367380Y-115927142D01*
X140367380Y-116022380D01*
X140319761Y-116165238D01*
X140224523Y-116260476D01*
X140129285Y-116308095D01*
X139938809Y-116355714D01*
X139795952Y-116355714D01*
X139605476Y-116308095D01*
X139510238Y-116260476D01*
X139415000Y-116165238D01*
X139367380Y-116022380D01*
X139367380Y-115927142D01*
X139415000Y-115784285D01*
X139462619Y-115736666D01*
X139367380Y-115403333D02*
X139367380Y-114784285D01*
X139748333Y-115117619D01*
X139748333Y-114974761D01*
X139795952Y-114879523D01*
X139843571Y-114831904D01*
X139938809Y-114784285D01*
X140176904Y-114784285D01*
X140272142Y-114831904D01*
X140319761Y-114879523D01*
X140367380Y-114974761D01*
X140367380Y-115260476D01*
X140319761Y-115355714D01*
X140272142Y-115403333D01*
X133041380Y-153042857D02*
X132565190Y-153376190D01*
X133041380Y-153614285D02*
X132041380Y-153614285D01*
X132041380Y-153233333D01*
X132089000Y-153138095D01*
X132136619Y-153090476D01*
X132231857Y-153042857D01*
X132374714Y-153042857D01*
X132469952Y-153090476D01*
X132517571Y-153138095D01*
X132565190Y-153233333D01*
X132565190Y-153614285D01*
X133041380Y-152090476D02*
X133041380Y-152661904D01*
X133041380Y-152376190D02*
X132041380Y-152376190D01*
X132184238Y-152471428D01*
X132279476Y-152566666D01*
X132327095Y-152661904D01*
X132041380Y-151757142D02*
X132041380Y-151138095D01*
X132422333Y-151471428D01*
X132422333Y-151328571D01*
X132469952Y-151233333D01*
X132517571Y-151185714D01*
X132612809Y-151138095D01*
X132850904Y-151138095D01*
X132946142Y-151185714D01*
X132993761Y-151233333D01*
X133041380Y-151328571D01*
X133041380Y-151614285D01*
X132993761Y-151709523D01*
X132946142Y-151757142D01*
X135835380Y-116212857D02*
X135359190Y-116546190D01*
X135835380Y-116784285D02*
X134835380Y-116784285D01*
X134835380Y-116403333D01*
X134883000Y-116308095D01*
X134930619Y-116260476D01*
X135025857Y-116212857D01*
X135168714Y-116212857D01*
X135263952Y-116260476D01*
X135311571Y-116308095D01*
X135359190Y-116403333D01*
X135359190Y-116784285D01*
X135835380Y-115260476D02*
X135835380Y-115831904D01*
X135835380Y-115546190D02*
X134835380Y-115546190D01*
X134978238Y-115641428D01*
X135073476Y-115736666D01*
X135121095Y-115831904D01*
X135168714Y-114403333D02*
X135835380Y-114403333D01*
X134787761Y-114641428D02*
X135502047Y-114879523D01*
X135502047Y-114260476D01*
G36*
X105274934Y-119206051D02*
G01*
X105358755Y-119650675D01*
X105668040Y-119778173D01*
X105977326Y-119905671D01*
X106348366Y-119653366D01*
X106452277Y-119583116D01*
X106546207Y-119520392D01*
X106625772Y-119468058D01*
X106686590Y-119428977D01*
X106724277Y-119406013D01*
X106734541Y-119401062D01*
X106753030Y-119413796D01*
X106792540Y-119449002D01*
X106848642Y-119502182D01*
X106916907Y-119568838D01*
X106992906Y-119644474D01*
X107072212Y-119724592D01*
X107150395Y-119804694D01*
X107223027Y-119880284D01*
X107285679Y-119946865D01*
X107333923Y-119999938D01*
X107363330Y-120035007D01*
X107370361Y-120046743D01*
X107360243Y-120068380D01*
X107331879Y-120115782D01*
X107288249Y-120184313D01*
X107232338Y-120269335D01*
X107167126Y-120366213D01*
X107129339Y-120421470D01*
X107060463Y-120522368D01*
X106999260Y-120613419D01*
X106948698Y-120690090D01*
X106911748Y-120747848D01*
X106891378Y-120782163D01*
X106888317Y-120789374D01*
X106895256Y-120809868D01*
X106914171Y-120857633D01*
X106942207Y-120925952D01*
X106976511Y-121008109D01*
X107014229Y-121097390D01*
X107052507Y-121187078D01*
X107088490Y-121270458D01*
X107119326Y-121340814D01*
X107142159Y-121391430D01*
X107154137Y-121415591D01*
X107154844Y-121416542D01*
X107173651Y-121421156D01*
X107223738Y-121431448D01*
X107299913Y-121446407D01*
X107396985Y-121465021D01*
X107509763Y-121486279D01*
X107575562Y-121498538D01*
X107696070Y-121521482D01*
X107804917Y-121543315D01*
X107896596Y-121562842D01*
X107965601Y-121578868D01*
X108006424Y-121590199D01*
X108014631Y-121593794D01*
X108022668Y-121618126D01*
X108029153Y-121673079D01*
X108034090Y-121752228D01*
X108037484Y-121849146D01*
X108039338Y-121957407D01*
X108039658Y-122070585D01*
X108038447Y-122182255D01*
X108035710Y-122285988D01*
X108031451Y-122375361D01*
X108025675Y-122443946D01*
X108018387Y-122485317D01*
X108014015Y-122493930D01*
X107987884Y-122504253D01*
X107932513Y-122519012D01*
X107855227Y-122536472D01*
X107763350Y-122554900D01*
X107731278Y-122560861D01*
X107576644Y-122589186D01*
X107454495Y-122611996D01*
X107360793Y-122630200D01*
X107291504Y-122644703D01*
X107242591Y-122656412D01*
X107210017Y-122666235D01*
X107189748Y-122675076D01*
X107177746Y-122683844D01*
X107176067Y-122685577D01*
X107159304Y-122713491D01*
X107133734Y-122767815D01*
X107101908Y-122841897D01*
X107066380Y-122929085D01*
X107029703Y-123022728D01*
X106994431Y-123116172D01*
X106963116Y-123202767D01*
X106938313Y-123275860D01*
X106922574Y-123328798D01*
X106918452Y-123354931D01*
X106918796Y-123355846D01*
X106932761Y-123377206D01*
X106964442Y-123424204D01*
X107010511Y-123491947D01*
X107067638Y-123575543D01*
X107132493Y-123670102D01*
X107150963Y-123696974D01*
X107216819Y-123794395D01*
X107274770Y-123883283D01*
X107321658Y-123958532D01*
X107354327Y-124015040D01*
X107369620Y-124047701D01*
X107370361Y-124051713D01*
X107357512Y-124072804D01*
X107322008Y-124114584D01*
X107268413Y-124172565D01*
X107201291Y-124242255D01*
X107125207Y-124319165D01*
X107044724Y-124398803D01*
X106964407Y-124476681D01*
X106888819Y-124548306D01*
X106822525Y-124609190D01*
X106770089Y-124654841D01*
X106736075Y-124680770D01*
X106726665Y-124685003D01*
X106704763Y-124675032D01*
X106659920Y-124648140D01*
X106599441Y-124608856D01*
X106552909Y-124577237D01*
X106468595Y-124519218D01*
X106368746Y-124450904D01*
X106268593Y-124382699D01*
X106214747Y-124346195D01*
X106032491Y-124222920D01*
X105879501Y-124305640D01*
X105809802Y-124341879D01*
X105750534Y-124370046D01*
X105710431Y-124386111D01*
X105700223Y-124388346D01*
X105687949Y-124371842D01*
X105663733Y-124325202D01*
X105629383Y-124252729D01*
X105586708Y-124158726D01*
X105537514Y-124047494D01*
X105483610Y-123923335D01*
X105426804Y-123790552D01*
X105368902Y-123653447D01*
X105311713Y-123516322D01*
X105257044Y-123383478D01*
X105206704Y-123259218D01*
X105162500Y-123147845D01*
X105126239Y-123053659D01*
X105099729Y-122980964D01*
X105084778Y-122934061D01*
X105082374Y-122917953D01*
X105101431Y-122897406D01*
X105143156Y-122864053D01*
X105198826Y-122824822D01*
X105203498Y-122821719D01*
X105347384Y-122706543D01*
X105463403Y-122572173D01*
X105550550Y-122422904D01*
X105607819Y-122263033D01*
X105634206Y-122096857D01*
X105628705Y-121928672D01*
X105590310Y-121762775D01*
X105518015Y-121603462D01*
X105496746Y-121568607D01*
X105386116Y-121427857D01*
X105255422Y-121314834D01*
X105109184Y-121230123D01*
X104951928Y-121174314D01*
X104788177Y-121147994D01*
X104622453Y-121151750D01*
X104459282Y-121186170D01*
X104303185Y-121251843D01*
X104158687Y-121349355D01*
X104113989Y-121388933D01*
X104000232Y-121512823D01*
X103917338Y-121643244D01*
X103860476Y-121789435D01*
X103828807Y-121934208D01*
X103820989Y-122096980D01*
X103847058Y-122260560D01*
X103904365Y-122419418D01*
X103990264Y-122568026D01*
X104102106Y-122700855D01*
X104237243Y-122812376D01*
X104255003Y-122824131D01*
X104311270Y-122862628D01*
X104354043Y-122895983D01*
X104374492Y-122917280D01*
X104374789Y-122917953D01*
X104370399Y-122940991D01*
X104352996Y-122993277D01*
X104324388Y-123070510D01*
X104286385Y-123168388D01*
X104240794Y-123282611D01*
X104189423Y-123408878D01*
X104134082Y-123542887D01*
X104076578Y-123680338D01*
X104018721Y-123816928D01*
X103962318Y-123948357D01*
X103909178Y-124070325D01*
X103861110Y-124178529D01*
X103819921Y-124268669D01*
X103787421Y-124336443D01*
X103765417Y-124377550D01*
X103756556Y-124388346D01*
X103729480Y-124379939D01*
X103678817Y-124357392D01*
X103613303Y-124324733D01*
X103577279Y-124305640D01*
X103424288Y-124222920D01*
X103242032Y-124346195D01*
X103148995Y-124409348D01*
X103047135Y-124478847D01*
X102951682Y-124544285D01*
X102903870Y-124577237D01*
X102836625Y-124622393D01*
X102779684Y-124658177D01*
X102740474Y-124680058D01*
X102727739Y-124684683D01*
X102709203Y-124672205D01*
X102668179Y-124637372D01*
X102608645Y-124583798D01*
X102534578Y-124515103D01*
X102449955Y-124434901D01*
X102396435Y-124383406D01*
X102302801Y-124291406D01*
X102221879Y-124209119D01*
X102156943Y-124140065D01*
X102111262Y-124087764D01*
X102088109Y-124055736D01*
X102085888Y-124049236D01*
X102096196Y-124024514D01*
X102124681Y-123974525D01*
X102168183Y-123904332D01*
X102223543Y-123818995D01*
X102287600Y-123723576D01*
X102305817Y-123696974D01*
X102372193Y-123600287D01*
X102431742Y-123513237D01*
X102481136Y-123440715D01*
X102517045Y-123387613D01*
X102536139Y-123358823D01*
X102537984Y-123355846D01*
X102535225Y-123332902D01*
X102520582Y-123282456D01*
X102496607Y-123211161D01*
X102465854Y-123125667D01*
X102430876Y-123032627D01*
X102394227Y-122938694D01*
X102358459Y-122850519D01*
X102326126Y-122774754D01*
X102299782Y-122718051D01*
X102281978Y-122687063D01*
X102280713Y-122685577D01*
X102269826Y-122676721D01*
X102251438Y-122667963D01*
X102221514Y-122658397D01*
X102176017Y-122647116D01*
X102110911Y-122633213D01*
X102022159Y-122615783D01*
X101905727Y-122593918D01*
X101757578Y-122566711D01*
X101725502Y-122560861D01*
X101630434Y-122542494D01*
X101547555Y-122524525D01*
X101484190Y-122508689D01*
X101447662Y-122496720D01*
X101442764Y-122493930D01*
X101434693Y-122469192D01*
X101428133Y-122413910D01*
X101423087Y-122334509D01*
X101419561Y-122237416D01*
X101417559Y-122129058D01*
X101417084Y-122015860D01*
X101418143Y-121904248D01*
X101420738Y-121800649D01*
X101424874Y-121711488D01*
X101430557Y-121643192D01*
X101437789Y-121602186D01*
X101442149Y-121593794D01*
X101466422Y-121585328D01*
X101521694Y-121571555D01*
X101602458Y-121553670D01*
X101703208Y-121532868D01*
X101818437Y-121510343D01*
X101881218Y-121498538D01*
X102000333Y-121476271D01*
X102106555Y-121456099D01*
X102194693Y-121439035D01*
X102259554Y-121426089D01*
X102295946Y-121418275D01*
X102301936Y-121416542D01*
X102312059Y-121397010D01*
X102333458Y-121349963D01*
X102363281Y-121282123D01*
X102398675Y-121200211D01*
X102436788Y-121110948D01*
X102474767Y-121021055D01*
X102509760Y-120937255D01*
X102538914Y-120866267D01*
X102559377Y-120814814D01*
X102568297Y-120789617D01*
X102568463Y-120788516D01*
X102558351Y-120768639D01*
X102530003Y-120722897D01*
X102486397Y-120655837D01*
X102430514Y-120572004D01*
X102365333Y-120475946D01*
X102327441Y-120420770D01*
X102258395Y-120319601D01*
X102197070Y-120227750D01*
X102146457Y-120149864D01*
X102109549Y-120090589D01*
X102089338Y-120054571D01*
X102086419Y-120046497D01*
X102098967Y-120027704D01*
X102133657Y-119987577D01*
X102186057Y-119930613D01*
X102251736Y-119861305D01*
X102326264Y-119784151D01*
X102405207Y-119703645D01*
X102484137Y-119624283D01*
X102558620Y-119550560D01*
X102624226Y-119486972D01*
X102676524Y-119438014D01*
X102711081Y-119408181D01*
X102722642Y-119401062D01*
X102741466Y-119411073D01*
X102786489Y-119439198D01*
X102853333Y-119482574D01*
X102937621Y-119538338D01*
X103034976Y-119603626D01*
X103108413Y-119653366D01*
X103479453Y-119905671D01*
X104098025Y-119650675D01*
X104181845Y-119206051D01*
X104265666Y-118761427D01*
X105191114Y-118761427D01*
X105274934Y-119206051D01*
G37*
D14*
X105274934Y-119206051D02*
X105358755Y-119650675D01*
X105668040Y-119778173D01*
X105977326Y-119905671D01*
X106348366Y-119653366D01*
X106452277Y-119583116D01*
X106546207Y-119520392D01*
X106625772Y-119468058D01*
X106686590Y-119428977D01*
X106724277Y-119406013D01*
X106734541Y-119401062D01*
X106753030Y-119413796D01*
X106792540Y-119449002D01*
X106848642Y-119502182D01*
X106916907Y-119568838D01*
X106992906Y-119644474D01*
X107072212Y-119724592D01*
X107150395Y-119804694D01*
X107223027Y-119880284D01*
X107285679Y-119946865D01*
X107333923Y-119999938D01*
X107363330Y-120035007D01*
X107370361Y-120046743D01*
X107360243Y-120068380D01*
X107331879Y-120115782D01*
X107288249Y-120184313D01*
X107232338Y-120269335D01*
X107167126Y-120366213D01*
X107129339Y-120421470D01*
X107060463Y-120522368D01*
X106999260Y-120613419D01*
X106948698Y-120690090D01*
X106911748Y-120747848D01*
X106891378Y-120782163D01*
X106888317Y-120789374D01*
X106895256Y-120809868D01*
X106914171Y-120857633D01*
X106942207Y-120925952D01*
X106976511Y-121008109D01*
X107014229Y-121097390D01*
X107052507Y-121187078D01*
X107088490Y-121270458D01*
X107119326Y-121340814D01*
X107142159Y-121391430D01*
X107154137Y-121415591D01*
X107154844Y-121416542D01*
X107173651Y-121421156D01*
X107223738Y-121431448D01*
X107299913Y-121446407D01*
X107396985Y-121465021D01*
X107509763Y-121486279D01*
X107575562Y-121498538D01*
X107696070Y-121521482D01*
X107804917Y-121543315D01*
X107896596Y-121562842D01*
X107965601Y-121578868D01*
X108006424Y-121590199D01*
X108014631Y-121593794D01*
X108022668Y-121618126D01*
X108029153Y-121673079D01*
X108034090Y-121752228D01*
X108037484Y-121849146D01*
X108039338Y-121957407D01*
X108039658Y-122070585D01*
X108038447Y-122182255D01*
X108035710Y-122285988D01*
X108031451Y-122375361D01*
X108025675Y-122443946D01*
X108018387Y-122485317D01*
X108014015Y-122493930D01*
X107987884Y-122504253D01*
X107932513Y-122519012D01*
X107855227Y-122536472D01*
X107763350Y-122554900D01*
X107731278Y-122560861D01*
X107576644Y-122589186D01*
X107454495Y-122611996D01*
X107360793Y-122630200D01*
X107291504Y-122644703D01*
X107242591Y-122656412D01*
X107210017Y-122666235D01*
X107189748Y-122675076D01*
X107177746Y-122683844D01*
X107176067Y-122685577D01*
X107159304Y-122713491D01*
X107133734Y-122767815D01*
X107101908Y-122841897D01*
X107066380Y-122929085D01*
X107029703Y-123022728D01*
X106994431Y-123116172D01*
X106963116Y-123202767D01*
X106938313Y-123275860D01*
X106922574Y-123328798D01*
X106918452Y-123354931D01*
X106918796Y-123355846D01*
X106932761Y-123377206D01*
X106964442Y-123424204D01*
X107010511Y-123491947D01*
X107067638Y-123575543D01*
X107132493Y-123670102D01*
X107150963Y-123696974D01*
X107216819Y-123794395D01*
X107274770Y-123883283D01*
X107321658Y-123958532D01*
X107354327Y-124015040D01*
X107369620Y-124047701D01*
X107370361Y-124051713D01*
X107357512Y-124072804D01*
X107322008Y-124114584D01*
X107268413Y-124172565D01*
X107201291Y-124242255D01*
X107125207Y-124319165D01*
X107044724Y-124398803D01*
X106964407Y-124476681D01*
X106888819Y-124548306D01*
X106822525Y-124609190D01*
X106770089Y-124654841D01*
X106736075Y-124680770D01*
X106726665Y-124685003D01*
X106704763Y-124675032D01*
X106659920Y-124648140D01*
X106599441Y-124608856D01*
X106552909Y-124577237D01*
X106468595Y-124519218D01*
X106368746Y-124450904D01*
X106268593Y-124382699D01*
X106214747Y-124346195D01*
X106032491Y-124222920D01*
X105879501Y-124305640D01*
X105809802Y-124341879D01*
X105750534Y-124370046D01*
X105710431Y-124386111D01*
X105700223Y-124388346D01*
X105687949Y-124371842D01*
X105663733Y-124325202D01*
X105629383Y-124252729D01*
X105586708Y-124158726D01*
X105537514Y-124047494D01*
X105483610Y-123923335D01*
X105426804Y-123790552D01*
X105368902Y-123653447D01*
X105311713Y-123516322D01*
X105257044Y-123383478D01*
X105206704Y-123259218D01*
X105162500Y-123147845D01*
X105126239Y-123053659D01*
X105099729Y-122980964D01*
X105084778Y-122934061D01*
X105082374Y-122917953D01*
X105101431Y-122897406D01*
X105143156Y-122864053D01*
X105198826Y-122824822D01*
X105203498Y-122821719D01*
X105347384Y-122706543D01*
X105463403Y-122572173D01*
X105550550Y-122422904D01*
X105607819Y-122263033D01*
X105634206Y-122096857D01*
X105628705Y-121928672D01*
X105590310Y-121762775D01*
X105518015Y-121603462D01*
X105496746Y-121568607D01*
X105386116Y-121427857D01*
X105255422Y-121314834D01*
X105109184Y-121230123D01*
X104951928Y-121174314D01*
X104788177Y-121147994D01*
X104622453Y-121151750D01*
X104459282Y-121186170D01*
X104303185Y-121251843D01*
X104158687Y-121349355D01*
X104113989Y-121388933D01*
X104000232Y-121512823D01*
X103917338Y-121643244D01*
X103860476Y-121789435D01*
X103828807Y-121934208D01*
X103820989Y-122096980D01*
X103847058Y-122260560D01*
X103904365Y-122419418D01*
X103990264Y-122568026D01*
X104102106Y-122700855D01*
X104237243Y-122812376D01*
X104255003Y-122824131D01*
X104311270Y-122862628D01*
X104354043Y-122895983D01*
X104374492Y-122917280D01*
X104374789Y-122917953D01*
X104370399Y-122940991D01*
X104352996Y-122993277D01*
X104324388Y-123070510D01*
X104286385Y-123168388D01*
X104240794Y-123282611D01*
X104189423Y-123408878D01*
X104134082Y-123542887D01*
X104076578Y-123680338D01*
X104018721Y-123816928D01*
X103962318Y-123948357D01*
X103909178Y-124070325D01*
X103861110Y-124178529D01*
X103819921Y-124268669D01*
X103787421Y-124336443D01*
X103765417Y-124377550D01*
X103756556Y-124388346D01*
X103729480Y-124379939D01*
X103678817Y-124357392D01*
X103613303Y-124324733D01*
X103577279Y-124305640D01*
X103424288Y-124222920D01*
X103242032Y-124346195D01*
X103148995Y-124409348D01*
X103047135Y-124478847D01*
X102951682Y-124544285D01*
X102903870Y-124577237D01*
X102836625Y-124622393D01*
X102779684Y-124658177D01*
X102740474Y-124680058D01*
X102727739Y-124684683D01*
X102709203Y-124672205D01*
X102668179Y-124637372D01*
X102608645Y-124583798D01*
X102534578Y-124515103D01*
X102449955Y-124434901D01*
X102396435Y-124383406D01*
X102302801Y-124291406D01*
X102221879Y-124209119D01*
X102156943Y-124140065D01*
X102111262Y-124087764D01*
X102088109Y-124055736D01*
X102085888Y-124049236D01*
X102096196Y-124024514D01*
X102124681Y-123974525D01*
X102168183Y-123904332D01*
X102223543Y-123818995D01*
X102287600Y-123723576D01*
X102305817Y-123696974D01*
X102372193Y-123600287D01*
X102431742Y-123513237D01*
X102481136Y-123440715D01*
X102517045Y-123387613D01*
X102536139Y-123358823D01*
X102537984Y-123355846D01*
X102535225Y-123332902D01*
X102520582Y-123282456D01*
X102496607Y-123211161D01*
X102465854Y-123125667D01*
X102430876Y-123032627D01*
X102394227Y-122938694D01*
X102358459Y-122850519D01*
X102326126Y-122774754D01*
X102299782Y-122718051D01*
X102281978Y-122687063D01*
X102280713Y-122685577D01*
X102269826Y-122676721D01*
X102251438Y-122667963D01*
X102221514Y-122658397D01*
X102176017Y-122647116D01*
X102110911Y-122633213D01*
X102022159Y-122615783D01*
X101905727Y-122593918D01*
X101757578Y-122566711D01*
X101725502Y-122560861D01*
X101630434Y-122542494D01*
X101547555Y-122524525D01*
X101484190Y-122508689D01*
X101447662Y-122496720D01*
X101442764Y-122493930D01*
X101434693Y-122469192D01*
X101428133Y-122413910D01*
X101423087Y-122334509D01*
X101419561Y-122237416D01*
X101417559Y-122129058D01*
X101417084Y-122015860D01*
X101418143Y-121904248D01*
X101420738Y-121800649D01*
X101424874Y-121711488D01*
X101430557Y-121643192D01*
X101437789Y-121602186D01*
X101442149Y-121593794D01*
X101466422Y-121585328D01*
X101521694Y-121571555D01*
X101602458Y-121553670D01*
X101703208Y-121532868D01*
X101818437Y-121510343D01*
X101881218Y-121498538D01*
X102000333Y-121476271D01*
X102106555Y-121456099D01*
X102194693Y-121439035D01*
X102259554Y-121426089D01*
X102295946Y-121418275D01*
X102301936Y-121416542D01*
X102312059Y-121397010D01*
X102333458Y-121349963D01*
X102363281Y-121282123D01*
X102398675Y-121200211D01*
X102436788Y-121110948D01*
X102474767Y-121021055D01*
X102509760Y-120937255D01*
X102538914Y-120866267D01*
X102559377Y-120814814D01*
X102568297Y-120789617D01*
X102568463Y-120788516D01*
X102558351Y-120768639D01*
X102530003Y-120722897D01*
X102486397Y-120655837D01*
X102430514Y-120572004D01*
X102365333Y-120475946D01*
X102327441Y-120420770D01*
X102258395Y-120319601D01*
X102197070Y-120227750D01*
X102146457Y-120149864D01*
X102109549Y-120090589D01*
X102089338Y-120054571D01*
X102086419Y-120046497D01*
X102098967Y-120027704D01*
X102133657Y-119987577D01*
X102186057Y-119930613D01*
X102251736Y-119861305D01*
X102326264Y-119784151D01*
X102405207Y-119703645D01*
X102484137Y-119624283D01*
X102558620Y-119550560D01*
X102624226Y-119486972D01*
X102676524Y-119438014D01*
X102711081Y-119408181D01*
X102722642Y-119401062D01*
X102741466Y-119411073D01*
X102786489Y-119439198D01*
X102853333Y-119482574D01*
X102937621Y-119538338D01*
X103034976Y-119603626D01*
X103108413Y-119653366D01*
X103479453Y-119905671D01*
X104098025Y-119650675D01*
X104181845Y-119206051D01*
X104265666Y-118761427D01*
X105191114Y-118761427D01*
X105274934Y-119206051D01*
D15*
X138965000Y-102642936D02*
X138965000Y-103097064D01*
X140435000Y-102642936D02*
X140435000Y-103097064D01*
X155134000Y-112500000D02*
X155134000Y-111170000D01*
X155134000Y-111170000D02*
X156464000Y-111170000D01*
X155134000Y-113770000D02*
X155134000Y-116370000D01*
X155134000Y-116370000D02*
X157794000Y-116370000D01*
X157794000Y-113770000D02*
X157794000Y-116370000D01*
X155134000Y-113770000D02*
X157794000Y-113770000D01*
X165619000Y-115357000D02*
X162669000Y-115357000D01*
X163819000Y-118577000D02*
X165619000Y-118577000D01*
X167667000Y-124560064D02*
X167667000Y-124105936D01*
X169137000Y-124560064D02*
X169137000Y-124105936D01*
X157350000Y-119371252D02*
X157350000Y-118848748D01*
X158820000Y-119371252D02*
X158820000Y-118848748D01*
X156364000Y-152627064D02*
X156364000Y-152172936D01*
X157834000Y-152627064D02*
X157834000Y-152172936D01*
X153416000Y-115508000D02*
X152816000Y-115508000D01*
X152816000Y-112708000D02*
X153416000Y-112708000D01*
X154116000Y-113408000D02*
X154116000Y-114808000D01*
X152116000Y-114808000D02*
X152116000Y-113408000D01*
X153416000Y-115508000D02*
G75*
G03*
X154116000Y-114808000I0J700000D01*
G01*
X154116000Y-113408000D02*
G75*
G03*
X153416000Y-112708000I-699999J1D01*
G01*
X152116000Y-114808000D02*
G75*
G03*
X152816000Y-115508000I700000J0D01*
G01*
X152816000Y-112708000D02*
G75*
G03*
X152116000Y-113408000I-1J-699999D01*
G01*
X159285000Y-110262936D02*
X159285000Y-110717064D01*
X160755000Y-110262936D02*
X160755000Y-110717064D01*
X148855000Y-102642936D02*
X148855000Y-103097064D01*
X150325000Y-102642936D02*
X150325000Y-103097064D01*
X174736000Y-122236000D02*
X174736000Y-123636000D01*
X173436000Y-121536000D02*
X174036000Y-121536000D01*
X174036000Y-124336000D02*
X173436000Y-124336000D01*
X172736000Y-123636000D02*
X172736000Y-122236000D01*
X174736000Y-122236000D02*
G75*
G03*
X174036000Y-121536000I-699999J1D01*
G01*
X173436000Y-121536000D02*
G75*
G03*
X172736000Y-122236000I-1J-699999D01*
G01*
X174036000Y-124336000D02*
G75*
G03*
X174736000Y-123636000I0J700000D01*
G01*
X172736000Y-123636000D02*
G75*
G03*
X173436000Y-124336000I700000J0D01*
G01*
X175020000Y-153400000D02*
X175020000Y-150540000D01*
X175020000Y-150540000D02*
X173100000Y-150540000D01*
X173100000Y-150540000D02*
X173100000Y-153400000D01*
X172280000Y-111490000D02*
X176180000Y-111490000D01*
X172280000Y-109490000D02*
X176180000Y-109490000D01*
X172280000Y-109490000D02*
X172280000Y-111490000D01*
X160755000Y-102642936D02*
X160755000Y-103097064D01*
X159285000Y-102642936D02*
X159285000Y-103097064D01*
X175962000Y-123190000D02*
X175962000Y-125790000D01*
X175962000Y-121920000D02*
X175962000Y-120590000D01*
X175962000Y-120590000D02*
X177292000Y-120590000D01*
X178622000Y-123190000D02*
X178622000Y-125790000D01*
X175962000Y-125790000D02*
X178622000Y-125790000D01*
X175962000Y-123190000D02*
X178622000Y-123190000D01*
X132726000Y-113706000D02*
X129776000Y-113706000D01*
X130926000Y-116926000D02*
X132726000Y-116926000D01*
X147966000Y-113579000D02*
X145016000Y-113579000D01*
X146166000Y-116799000D02*
X147966000Y-116799000D01*
X153360000Y-150540000D02*
X151440000Y-150540000D01*
X151440000Y-150540000D02*
X151440000Y-153400000D01*
X153360000Y-153400000D02*
X153360000Y-150540000D01*
X138965000Y-106452936D02*
X138965000Y-106907064D01*
X140435000Y-106452936D02*
X140435000Y-106907064D01*
X150325000Y-106452936D02*
X150325000Y-106907064D01*
X148855000Y-106452936D02*
X148855000Y-106907064D01*
X160755000Y-106452936D02*
X160755000Y-106907064D01*
X159285000Y-106452936D02*
X159285000Y-106907064D01*
X139854000Y-121658748D02*
X139854000Y-122181252D01*
X141324000Y-121658748D02*
X141324000Y-122181252D01*
X163095000Y-124198748D02*
X163095000Y-124721252D01*
X164565000Y-124198748D02*
X164565000Y-124721252D01*
X138965000Y-110262936D02*
X138965000Y-110717064D01*
X140435000Y-110262936D02*
X140435000Y-110717064D01*
X136425000Y-122181252D02*
X136425000Y-121658748D01*
X137895000Y-122181252D02*
X137895000Y-121658748D01*
X144390000Y-126030000D02*
X144390000Y-122125000D01*
X149490000Y-147660000D02*
X149490000Y-146350000D01*
X158960000Y-143120000D02*
X158960000Y-127170000D01*
X157610000Y-126030000D02*
X157610000Y-122125000D01*
X148990000Y-126945000D02*
X153010000Y-126945000D01*
X151000000Y-124935000D02*
X151000000Y-128955000D01*
X148990000Y-120340000D02*
X153010000Y-120340000D01*
X144390000Y-122125000D02*
X148990000Y-122125000D01*
X148990000Y-122125000D02*
X148990000Y-120340000D01*
X153010000Y-122125000D02*
X153010000Y-120340000D01*
X152510000Y-147660000D02*
X152510000Y-146350000D01*
X149490000Y-147660000D02*
X152510000Y-147660000D01*
X153010000Y-122125000D02*
X157610000Y-122125000D01*
X143040000Y-143120000D02*
X143040000Y-127170000D01*
X151000000Y-137000000D02*
X151000000Y-141020000D01*
X144390000Y-126030000D02*
G75*
G03*
X143040000Y-127170000I6649260J-9243466D01*
G01*
X158960000Y-127170000D02*
G75*
G03*
X157610000Y-126030000I-7999260J-8103466D01*
G01*
X152510000Y-146350000D02*
G75*
G03*
X158960000Y-143120000I-1152650J10356747D01*
G01*
X143040000Y-143120000D02*
G75*
G03*
X149490000Y-146350000I7602650J7126747D01*
G01*
X179130000Y-106680000D02*
X179130000Y-108010000D01*
X179130000Y-105410000D02*
X179130000Y-102810000D01*
X179130000Y-108010000D02*
X177800000Y-108010000D01*
X179130000Y-102810000D02*
X176470000Y-102810000D01*
X179130000Y-105410000D02*
X176470000Y-105410000D01*
X176470000Y-105410000D02*
X176470000Y-102810000D01*
X180710000Y-132810000D02*
X179350000Y-132810000D01*
X180710000Y-132810000D02*
X180710000Y-129590000D01*
X174760000Y-129590000D02*
X174760000Y-127290000D01*
X166290000Y-129590000D02*
X172240000Y-129590000D01*
X174770000Y-147710000D02*
X174770000Y-145060000D01*
X167650000Y-132810000D02*
X166290000Y-132810000D01*
X166290000Y-132810000D02*
X166290000Y-129590000D01*
X172240000Y-127290000D02*
X174760000Y-127290000D01*
X173500000Y-137620000D02*
X173500000Y-140140000D01*
X172240000Y-135695000D02*
X174760000Y-135695000D01*
X172230000Y-147710000D02*
X172230000Y-145060000D01*
X172240000Y-129590000D02*
X172240000Y-127290000D01*
X174760000Y-129590000D02*
X180710000Y-129590000D01*
X172230000Y-147710000D02*
X174770000Y-147710000D01*
X173500000Y-134435000D02*
X173500000Y-136955000D01*
X174770000Y-145059999D02*
G75*
G03*
X179350000Y-132810000I-1175359J7420619D01*
G01*
X167650000Y-132810000D02*
G75*
G03*
X172230000Y-145060000I5755359J-4829380D01*
G01*
X150325000Y-110262936D02*
X150325000Y-110717064D01*
X148855000Y-110262936D02*
X148855000Y-110717064D01*
X128840000Y-109220000D02*
X128840000Y-107820000D01*
X129540000Y-107120000D02*
X130140000Y-107120000D01*
X130840000Y-107820000D02*
X130840000Y-109220000D01*
X130140000Y-109920000D02*
X129540000Y-109920000D01*
X130840000Y-107820000D02*
G75*
G03*
X130140000Y-107120000I-699999J1D01*
G01*
X130140000Y-109920000D02*
G75*
G03*
X130840000Y-109220000I0J700000D01*
G01*
X129540000Y-107120000D02*
G75*
G03*
X128840000Y-107820000I-1J-699999D01*
G01*
X128840000Y-109220000D02*
G75*
G03*
X129540000Y-109920000I700000J0D01*
G01*
X176470000Y-119186000D02*
X179130000Y-119186000D01*
X176470000Y-116586000D02*
X179130000Y-116586000D01*
X176470000Y-116586000D02*
X176470000Y-119186000D01*
X176470000Y-115316000D02*
X176470000Y-113986000D01*
X176470000Y-113986000D02*
X177800000Y-113986000D01*
X179130000Y-116586000D02*
X179130000Y-119186000D01*
X140435000Y-126738748D02*
X140435000Y-127261252D01*
X138965000Y-126738748D02*
X138965000Y-127261252D01*
X128580000Y-150540000D02*
X128580000Y-153400000D01*
X130500000Y-153400000D02*
X130500000Y-150540000D01*
X130500000Y-150540000D02*
X128580000Y-150540000D01*
X187420000Y-112140000D02*
X189320000Y-112140000D01*
X183520000Y-112140000D02*
X185520000Y-112140000D01*
X183520000Y-121540000D02*
X185520000Y-121540000D01*
X189320000Y-121540000D02*
X189320000Y-112140000D01*
X187420000Y-121540000D02*
X189320000Y-121540000D01*
X146023000Y-119607064D02*
X146023000Y-119152936D01*
X144553000Y-119607064D02*
X144553000Y-119152936D01*
X120440000Y-114181000D02*
X120440000Y-111481000D01*
X122500000Y-119285000D02*
X122500000Y-116585000D01*
X124560000Y-114181000D02*
X128010000Y-114181000D01*
X116990000Y-114181000D02*
X120440000Y-114181000D01*
X116990000Y-117719000D02*
X116990000Y-114181000D01*
X124560000Y-114181000D02*
X124560000Y-111481000D01*
X120890000Y-147710000D02*
X124110000Y-147710000D01*
X122500000Y-140875000D02*
X122500000Y-138175000D01*
X120890000Y-147710000D02*
X120890000Y-143363000D01*
X121150000Y-117935000D02*
X123850000Y-117935000D01*
X124110000Y-147710000D02*
X124110000Y-143363000D01*
X120440000Y-111481000D02*
X124560000Y-111481000D01*
X128010000Y-117719000D02*
X128010000Y-114181000D01*
D16*
X124110000Y-143363000D02*
G75*
G03*
X128010000Y-117719636I-1609987J13363107D01*
G01*
X116990000Y-117719000D02*
G75*
G03*
X120890000Y-143363000I5510075J-12280575D01*
G01*
D15*
X174535000Y-117882936D02*
X174535000Y-118337064D01*
X173065000Y-117882936D02*
X173065000Y-118337064D01*
X170280000Y-115300000D02*
X174180000Y-115300000D01*
X170280000Y-113300000D02*
X174180000Y-113300000D01*
X170280000Y-113300000D02*
X170280000Y-115300000D01*
X171635000Y-117882936D02*
X171635000Y-118337064D01*
X170165000Y-117882936D02*
X170165000Y-118337064D01*
X132274000Y-108707000D02*
X134934000Y-108707000D01*
X134934000Y-108707000D02*
X134934000Y-111307000D01*
X132274000Y-106107000D02*
X133604000Y-106107000D01*
X132274000Y-111307000D02*
X134934000Y-111307000D01*
X132274000Y-107437000D02*
X132274000Y-106107000D01*
X132274000Y-108707000D02*
X132274000Y-111307000D01*
X178081000Y-152627064D02*
X178081000Y-152172936D01*
X179551000Y-152627064D02*
X179551000Y-152172936D01*
X142330000Y-115831252D02*
X142330000Y-115308748D01*
X140860000Y-115831252D02*
X140860000Y-115308748D01*
X134974000Y-152627064D02*
X134974000Y-152172936D01*
X133504000Y-152627064D02*
X133504000Y-152172936D01*
X137768000Y-115797064D02*
X137768000Y-115342936D01*
X136298000Y-115797064D02*
X136298000Y-115342936D01*
%LPC*%
D17*
X105000000Y-129000000D03*
X122500000Y-152000000D03*
X185000000Y-129000000D03*
X167500000Y-152000000D03*
D18*
X186690000Y-139700000D03*
X186690000Y-143510000D03*
D17*
X167500000Y-106000000D03*
X105500000Y-114500000D03*
X166000000Y-109750000D03*
D19*
X139700000Y-101870000D03*
X139700000Y-103870000D03*
D20*
X156464000Y-112500000D03*
D21*
X156464000Y-115040000D03*
D22*
X163369000Y-116017000D03*
X163369000Y-116967000D03*
X163369000Y-117917000D03*
X166069000Y-117917000D03*
X166069000Y-116967000D03*
X166069000Y-116017000D03*
D23*
X168402000Y-125333000D03*
X168402000Y-123333000D03*
D24*
X158085000Y-120147500D03*
X158085000Y-118072500D03*
D23*
X157099000Y-153400000D03*
X157099000Y-151400000D03*
D25*
X153116000Y-113458000D03*
D26*
X153116000Y-114758000D03*
D19*
X160020000Y-109490000D03*
X160020000Y-111490000D03*
X149590000Y-101870000D03*
X149590000Y-103870000D03*
D25*
X173736000Y-122286000D03*
D26*
X173736000Y-123586000D03*
D27*
X174060000Y-151375000D03*
X174060000Y-153425000D03*
D28*
X172880000Y-110490000D03*
X176180000Y-110490000D03*
D19*
X160020000Y-101870000D03*
X160020000Y-103870000D03*
D20*
X177292000Y-121920000D03*
D21*
X177292000Y-124460000D03*
D22*
X130476000Y-114366000D03*
X130476000Y-115316000D03*
X130476000Y-116266000D03*
X133176000Y-116266000D03*
X133176000Y-115316000D03*
X133176000Y-114366000D03*
X145716000Y-114239000D03*
X145716000Y-115189000D03*
X145716000Y-116139000D03*
X148416000Y-116139000D03*
X148416000Y-115189000D03*
X148416000Y-114239000D03*
D27*
X152400000Y-151375000D03*
X152400000Y-153425000D03*
D19*
X139700000Y-105680000D03*
X139700000Y-107680000D03*
X149590000Y-105680000D03*
X149590000Y-107680000D03*
X160020000Y-105680000D03*
X160020000Y-107680000D03*
D29*
X140589000Y-120882500D03*
X140589000Y-122957500D03*
X163830000Y-123422500D03*
X163830000Y-125497500D03*
D19*
X139700000Y-109490000D03*
X139700000Y-111490000D03*
D24*
X137160000Y-122957500D03*
X137160000Y-120882500D03*
D30*
X151000000Y-122200000D03*
D31*
X151000000Y-144700000D03*
D20*
X177800000Y-106680000D03*
D21*
X177800000Y-104140000D03*
D32*
X173500000Y-133700000D03*
X173500000Y-141200000D03*
D33*
X173500000Y-129600000D03*
D34*
X173500000Y-145600000D03*
D19*
X149590000Y-109490000D03*
X149590000Y-111490000D03*
D25*
X129840000Y-107870000D03*
D26*
X129840000Y-109170000D03*
D35*
X177800000Y-115316000D03*
D21*
X177800000Y-117856000D03*
D29*
X139700000Y-125962500D03*
X139700000Y-128037500D03*
D27*
X129540000Y-151375000D03*
X129540000Y-153425000D03*
D36*
X182820000Y-119730000D03*
X182820000Y-113950000D03*
D37*
X181375000Y-120090000D03*
X181375000Y-119290000D03*
D38*
X181375000Y-118090000D03*
X181375000Y-117090000D03*
X181375000Y-116590000D03*
X181375000Y-115590000D03*
D37*
X181375000Y-114390000D03*
X181375000Y-113590000D03*
X181375000Y-113590000D03*
X181375000Y-114390000D03*
D38*
X181375000Y-115090000D03*
X181375000Y-116090000D03*
X181375000Y-117590000D03*
X181375000Y-118590000D03*
D37*
X181375000Y-119290000D03*
X181375000Y-120090000D03*
D39*
X182290000Y-121160000D03*
X182290000Y-112520000D03*
D40*
X186470000Y-121160000D03*
X186470000Y-112520000D03*
D23*
X145288000Y-120380000D03*
X145288000Y-118380000D03*
D41*
X122500000Y-113741000D03*
D42*
X122500000Y-144350000D03*
D19*
X173800000Y-117110000D03*
X173800000Y-119110000D03*
D28*
X170880000Y-114300000D03*
X174180000Y-114300000D03*
D19*
X170900000Y-117110000D03*
X170900000Y-119110000D03*
D20*
X133604000Y-107437000D03*
D21*
X133604000Y-109977000D03*
D23*
X178816000Y-153400000D03*
X178816000Y-151400000D03*
D24*
X141595000Y-116607500D03*
X141595000Y-114532500D03*
D23*
X134239000Y-153400000D03*
X134239000Y-151400000D03*
X137033000Y-116570000D03*
X137033000Y-114570000D03*
M02*
