G04 #@! TF.GenerationSoftware,KiCad,Pcbnew,7.0.11+dfsg-1build4*
G04 #@! TF.CreationDate,2025-09-21T21:37:11-05:00*
G04 #@! TF.ProjectId,lir-multi-charger,6c69722d-6d75-46c7-9469-2d6368617267,rev?*
G04 #@! TF.SameCoordinates,Original*
G04 #@! TF.FileFunction,Soldermask,Bot*
G04 #@! TF.FilePolarity,Negative*
%FSLAX46Y46*%
G04 Gerber Fmt 4.6, Leading zero omitted, Abs format (unit mm)*
G04 Created by KiCad (PCBNEW 7.0.11+dfsg-1build4) date 2025-09-21 21:37:11*
%MOMM*%
%LPD*%
G01*
G04 APERTURE LIST*
%ADD10C,3.000000*%
%ADD11R,2.400000X2.400000*%
%ADD12C,2.400000*%
%ADD13R,1.700000X1.700000*%
%ADD14O,1.700000X1.700000*%
%ADD15C,1.200000*%
%ADD16R,0.850000X0.850000*%
%ADD17C,0.650000*%
%ADD18O,2.100000X1.000000*%
%ADD19O,1.600000X1.000000*%
G04 #@! TA.AperFunction,Profile*
%ADD20C,0.050000*%
G04 #@! TD*
G04 APERTURE END LIST*
D10*
X105000000Y-129000000D03*
X122500000Y-152000000D03*
X185000000Y-129000000D03*
X167500000Y-152000000D03*
X167500000Y-106000000D03*
X105500000Y-114500000D03*
X166000000Y-109750000D03*
D11*
X153000000Y-153300000D03*
D12*
X156500000Y-153300000D03*
D11*
X173700000Y-153300000D03*
D12*
X177200000Y-153300000D03*
D13*
X177292000Y-121920000D03*
D14*
X177292000Y-124460000D03*
D15*
X173500000Y-141200000D03*
X173500000Y-133700000D03*
D13*
X133604000Y-107437000D03*
D14*
X133604000Y-109977000D03*
D11*
X130000000Y-153300000D03*
D12*
X133500000Y-153300000D03*
D16*
X186690000Y-139700000D03*
D13*
X177800000Y-106680000D03*
D14*
X177800000Y-104140000D03*
D13*
X156464000Y-112500000D03*
D14*
X156464000Y-115040000D03*
D13*
X177800000Y-115316000D03*
D14*
X177800000Y-117856000D03*
D17*
X182800000Y-119740000D03*
X182800000Y-113960000D03*
D18*
X182270000Y-121170000D03*
D19*
X186450000Y-121170000D03*
D18*
X182270000Y-112530000D03*
D19*
X186450000Y-112530000D03*
D16*
X186690000Y-143510000D03*
D20*
X180000000Y-100000000D02*
G75*
G03*
X190000000Y-110000000I10000000J0D01*
G01*
X110000000Y-100000000D02*
X180000000Y-100000000D01*
X190000000Y-148000000D02*
G75*
G03*
X180000000Y-158000000I0J-10000000D01*
G01*
X110000000Y-158000000D02*
X180000000Y-158000000D01*
X100000000Y-110000000D02*
X100000000Y-148000000D01*
X100000000Y-110000000D02*
G75*
G03*
X110000000Y-100000000I0J10000000D01*
G01*
X190000000Y-110000000D02*
X190000000Y-148000000D01*
X110000000Y-158000000D02*
G75*
G03*
X100000000Y-148000000I-10000000J0D01*
G01*
M02*
