G04 #@! TF.GenerationSoftware,KiCad,Pcbnew,7.0.11+dfsg-1build4*
G04 #@! TF.CreationDate,2025-09-21T21:37:11-05:00*
G04 #@! TF.ProjectId,lir-multi-charger,6c69722d-6d75-46c7-9469-2d6368617267,rev?*
G04 #@! TF.SameCoordinates,Original*
G04 #@! TF.FileFunction,Legend,Top*
G04 #@! TF.FilePolarity,Positive*
%FSLAX46Y46*%
G04 Gerber Fmt 4.6, Leading zero omitted, Abs format (unit mm)*
G04 Created by KiCad (PCBNEW 7.0.11+dfsg-1build4) date 2025-09-21 21:37:11*
%MOMM*%
%LPD*%
G01*
G04 APERTURE LIST*
G04 Aperture macros list*
%AMRoundRect*
0 Rectangle with rounded corners*
0 $1 Rounding radius*
0 $2 $3 $4 $5 $6 $7 $8 $9 X,Y pos of 4 corners*
0 Add a 4 corners polygon primitive as box body*
4,1,4,$2,$3,$4,$5,$6,$7,$8,$9,$2,$3,0*
0 Add four circle primitives for the rounded corners*
1,1,$1+$1,$2,$3*
1,1,$1+$1,$4,$5*
1,1,$1+$1,$6,$7*
1,1,$1+$1,$8,$9*
0 Add four rect primitives between the rounded corners*
20,1,$1+$1,$2,$3,$4,$5,0*
20,1,$1+$1,$4,$5,$6,$7,0*
20,1,$1+$1,$6,$7,$8,$9,0*
20,1,$1+$1,$8,$9,$2,$3,0*%
%AMFreePoly0*
4,1,19,0.500000,-0.750000,0.000000,-0.750000,0.000000,-0.744911,-0.071157,-0.744911,-0.207708,-0.704816,-0.327430,-0.627875,-0.420627,-0.520320,-0.479746,-0.390866,-0.500000,-0.250000,-0.500000,0.250000,-0.479746,0.390866,-0.420627,0.520320,-0.327430,0.627875,-0.207708,0.704816,-0.071157,0.744911,0.000000,0.744911,0.000000,0.750000,0.500000,0.750000,0.500000,-0.750000,0.500000,-0.750000,
$1*%
%AMFreePoly1*
4,1,19,0.000000,0.744911,0.071157,0.744911,0.207708,0.704816,0.327430,0.627875,0.420627,0.520320,0.479746,0.390866,0.500000,0.250000,0.500000,-0.250000,0.479746,-0.390866,0.420627,-0.520320,0.327430,-0.627875,0.207708,-0.704816,0.071157,-0.744911,0.000000,-0.744911,0.000000,-0.750000,-0.500000,-0.750000,-0.500000,0.750000,0.000000,0.750000,0.000000,0.744911,0.000000,0.744911,
$1*%
G04 Aperture macros list end*
%ADD10C,0.300000*%
%ADD11C,0.175000*%
%ADD12C,0.150000*%
%ADD13C,0.010000*%
%ADD14C,0.120000*%
%ADD15C,0.100000*%
%ADD16C,3.000000*%
%ADD17RoundRect,0.250000X-0.450000X0.350000X-0.450000X-0.350000X0.450000X-0.350000X0.450000X0.350000X0*%
%ADD18R,3.800000X3.500000*%
%ADD19R,2.800000X5.700000*%
%ADD20R,2.400000X2.400000*%
%ADD21C,2.400000*%
%ADD22RoundRect,0.250000X0.450000X-0.350000X0.450000X0.350000X-0.450000X0.350000X-0.450000X-0.350000X0*%
%ADD23RoundRect,0.250000X0.475000X-0.337500X0.475000X0.337500X-0.475000X0.337500X-0.475000X-0.337500X0*%
%ADD24FreePoly0,270.000000*%
%ADD25FreePoly1,270.000000*%
%ADD26R,1.700000X1.700000*%
%ADD27O,1.700000X1.700000*%
%ADD28C,1.200000*%
%ADD29R,2.300000X4.400000*%
%ADD30R,2.300000X4.000000*%
%ADD31RoundRect,0.250000X-0.450000X0.325000X-0.450000X-0.325000X0.450000X-0.325000X0.450000X0.325000X0*%
%ADD32RoundRect,0.225000X-0.225000X-0.375000X0.225000X-0.375000X0.225000X0.375000X-0.225000X0.375000X0*%
%ADD33R,0.850000X0.850000*%
%ADD34RoundRect,0.250000X-0.475000X0.337500X-0.475000X-0.337500X0.475000X-0.337500X0.475000X0.337500X0*%
%ADD35RoundRect,0.162500X-0.617500X-0.162500X0.617500X-0.162500X0.617500X0.162500X-0.617500X0.162500X0*%
%ADD36C,0.650000*%
%ADD37R,1.450000X0.600000*%
%ADD38R,1.450000X0.300000*%
%ADD39O,2.100000X1.000000*%
%ADD40O,1.600000X1.000000*%
%ADD41R,3.900000X4.300000*%
%ADD42R,3.000000X6.500000*%
G04 #@! TA.AperFunction,Profile*
%ADD43C,0.050000*%
G04 #@! TD*
G04 APERTURE END LIST*
D10*
X149254510Y-150729400D02*
X150397368Y-150729400D01*
X149825939Y-151300828D02*
X149825939Y-150157971D01*
X159111652Y-150729400D02*
X160254510Y-150729400D01*
X172593143Y-103389757D02*
X172450286Y-103318328D01*
X172450286Y-103318328D02*
X172236000Y-103318328D01*
X172236000Y-103318328D02*
X172021714Y-103389757D01*
X172021714Y-103389757D02*
X171878857Y-103532614D01*
X171878857Y-103532614D02*
X171807428Y-103675471D01*
X171807428Y-103675471D02*
X171736000Y-103961185D01*
X171736000Y-103961185D02*
X171736000Y-104175471D01*
X171736000Y-104175471D02*
X171807428Y-104461185D01*
X171807428Y-104461185D02*
X171878857Y-104604042D01*
X171878857Y-104604042D02*
X172021714Y-104746900D01*
X172021714Y-104746900D02*
X172236000Y-104818328D01*
X172236000Y-104818328D02*
X172378857Y-104818328D01*
X172378857Y-104818328D02*
X172593143Y-104746900D01*
X172593143Y-104746900D02*
X172664571Y-104675471D01*
X172664571Y-104675471D02*
X172664571Y-104175471D01*
X172664571Y-104175471D02*
X172378857Y-104175471D01*
X173307428Y-104818328D02*
X173307428Y-103318328D01*
X173307428Y-103318328D02*
X174164571Y-104818328D01*
X174164571Y-104818328D02*
X174164571Y-103318328D01*
X174878857Y-104818328D02*
X174878857Y-103318328D01*
X174878857Y-103318328D02*
X175236000Y-103318328D01*
X175236000Y-103318328D02*
X175450286Y-103389757D01*
X175450286Y-103389757D02*
X175593143Y-103532614D01*
X175593143Y-103532614D02*
X175664572Y-103675471D01*
X175664572Y-103675471D02*
X175736000Y-103961185D01*
X175736000Y-103961185D02*
X175736000Y-104175471D01*
X175736000Y-104175471D02*
X175664572Y-104461185D01*
X175664572Y-104461185D02*
X175593143Y-104604042D01*
X175593143Y-104604042D02*
X175450286Y-104746900D01*
X175450286Y-104746900D02*
X175236000Y-104818328D01*
X175236000Y-104818328D02*
X174878857Y-104818328D01*
X163632000Y-148506328D02*
X162917714Y-148506328D01*
X162917714Y-148506328D02*
X162917714Y-147006328D01*
X164132000Y-148506328D02*
X164132000Y-147006328D01*
X165703429Y-148506328D02*
X165203429Y-147792042D01*
X164846286Y-148506328D02*
X164846286Y-147006328D01*
X164846286Y-147006328D02*
X165417715Y-147006328D01*
X165417715Y-147006328D02*
X165560572Y-147077757D01*
X165560572Y-147077757D02*
X165632001Y-147149185D01*
X165632001Y-147149185D02*
X165703429Y-147292042D01*
X165703429Y-147292042D02*
X165703429Y-147506328D01*
X165703429Y-147506328D02*
X165632001Y-147649185D01*
X165632001Y-147649185D02*
X165560572Y-147720614D01*
X165560572Y-147720614D02*
X165417715Y-147792042D01*
X165417715Y-147792042D02*
X164846286Y-147792042D01*
X167132001Y-148506328D02*
X166274858Y-148506328D01*
X166703429Y-148506328D02*
X166703429Y-147006328D01*
X166703429Y-147006328D02*
X166560572Y-147220614D01*
X166560572Y-147220614D02*
X166417715Y-147363471D01*
X166417715Y-147363471D02*
X166274858Y-147434900D01*
X167703429Y-147149185D02*
X167774857Y-147077757D01*
X167774857Y-147077757D02*
X167917715Y-147006328D01*
X167917715Y-147006328D02*
X168274857Y-147006328D01*
X168274857Y-147006328D02*
X168417715Y-147077757D01*
X168417715Y-147077757D02*
X168489143Y-147149185D01*
X168489143Y-147149185D02*
X168560572Y-147292042D01*
X168560572Y-147292042D02*
X168560572Y-147434900D01*
X168560572Y-147434900D02*
X168489143Y-147649185D01*
X168489143Y-147649185D02*
X167632000Y-148506328D01*
X167632000Y-148506328D02*
X168560572Y-148506328D01*
X169132000Y-147149185D02*
X169203428Y-147077757D01*
X169203428Y-147077757D02*
X169346286Y-147006328D01*
X169346286Y-147006328D02*
X169703428Y-147006328D01*
X169703428Y-147006328D02*
X169846286Y-147077757D01*
X169846286Y-147077757D02*
X169917714Y-147149185D01*
X169917714Y-147149185D02*
X169989143Y-147292042D01*
X169989143Y-147292042D02*
X169989143Y-147434900D01*
X169989143Y-147434900D02*
X169917714Y-147649185D01*
X169917714Y-147649185D02*
X169060571Y-148506328D01*
X169060571Y-148506328D02*
X169989143Y-148506328D01*
X170917714Y-147006328D02*
X171060571Y-147006328D01*
X171060571Y-147006328D02*
X171203428Y-147077757D01*
X171203428Y-147077757D02*
X171274857Y-147149185D01*
X171274857Y-147149185D02*
X171346285Y-147292042D01*
X171346285Y-147292042D02*
X171417714Y-147577757D01*
X171417714Y-147577757D02*
X171417714Y-147934900D01*
X171417714Y-147934900D02*
X171346285Y-148220614D01*
X171346285Y-148220614D02*
X171274857Y-148363471D01*
X171274857Y-148363471D02*
X171203428Y-148434900D01*
X171203428Y-148434900D02*
X171060571Y-148506328D01*
X171060571Y-148506328D02*
X170917714Y-148506328D01*
X170917714Y-148506328D02*
X170774857Y-148434900D01*
X170774857Y-148434900D02*
X170703428Y-148363471D01*
X170703428Y-148363471D02*
X170631999Y-148220614D01*
X170631999Y-148220614D02*
X170560571Y-147934900D01*
X170560571Y-147934900D02*
X170560571Y-147577757D01*
X170560571Y-147577757D02*
X170631999Y-147292042D01*
X170631999Y-147292042D02*
X170703428Y-147149185D01*
X170703428Y-147149185D02*
X170774857Y-147077757D01*
X170774857Y-147077757D02*
X170917714Y-147006328D01*
D11*
X180192995Y-115932666D02*
X179392995Y-115932666D01*
X179392995Y-115932666D02*
X179392995Y-115765999D01*
X179392995Y-115765999D02*
X179431090Y-115665999D01*
X179431090Y-115665999D02*
X179507280Y-115599333D01*
X179507280Y-115599333D02*
X179583471Y-115565999D01*
X179583471Y-115565999D02*
X179735852Y-115532666D01*
X179735852Y-115532666D02*
X179850138Y-115532666D01*
X179850138Y-115532666D02*
X180002519Y-115565999D01*
X180002519Y-115565999D02*
X180078709Y-115599333D01*
X180078709Y-115599333D02*
X180154900Y-115665999D01*
X180154900Y-115665999D02*
X180192995Y-115765999D01*
X180192995Y-115765999D02*
X180192995Y-115932666D01*
X179888233Y-115232666D02*
X179888233Y-114699333D01*
X180192995Y-114965999D02*
X179583471Y-114965999D01*
X180192995Y-118472666D02*
X179392995Y-118472666D01*
X179392995Y-118472666D02*
X179392995Y-118305999D01*
X179392995Y-118305999D02*
X179431090Y-118205999D01*
X179431090Y-118205999D02*
X179507280Y-118139333D01*
X179507280Y-118139333D02*
X179583471Y-118105999D01*
X179583471Y-118105999D02*
X179735852Y-118072666D01*
X179735852Y-118072666D02*
X179850138Y-118072666D01*
X179850138Y-118072666D02*
X180002519Y-118105999D01*
X180002519Y-118105999D02*
X180078709Y-118139333D01*
X180078709Y-118139333D02*
X180154900Y-118205999D01*
X180154900Y-118205999D02*
X180192995Y-118305999D01*
X180192995Y-118305999D02*
X180192995Y-118472666D01*
X179888233Y-117772666D02*
X179888233Y-117239333D01*
D10*
X112324000Y-148506328D02*
X111609714Y-148506328D01*
X111609714Y-148506328D02*
X111609714Y-147006328D01*
X112824000Y-148506328D02*
X112824000Y-147006328D01*
X114395429Y-148506328D02*
X113895429Y-147792042D01*
X113538286Y-148506328D02*
X113538286Y-147006328D01*
X113538286Y-147006328D02*
X114109715Y-147006328D01*
X114109715Y-147006328D02*
X114252572Y-147077757D01*
X114252572Y-147077757D02*
X114324001Y-147149185D01*
X114324001Y-147149185D02*
X114395429Y-147292042D01*
X114395429Y-147292042D02*
X114395429Y-147506328D01*
X114395429Y-147506328D02*
X114324001Y-147649185D01*
X114324001Y-147649185D02*
X114252572Y-147720614D01*
X114252572Y-147720614D02*
X114109715Y-147792042D01*
X114109715Y-147792042D02*
X113538286Y-147792042D01*
X114966858Y-147149185D02*
X115038286Y-147077757D01*
X115038286Y-147077757D02*
X115181144Y-147006328D01*
X115181144Y-147006328D02*
X115538286Y-147006328D01*
X115538286Y-147006328D02*
X115681144Y-147077757D01*
X115681144Y-147077757D02*
X115752572Y-147149185D01*
X115752572Y-147149185D02*
X115824001Y-147292042D01*
X115824001Y-147292042D02*
X115824001Y-147434900D01*
X115824001Y-147434900D02*
X115752572Y-147649185D01*
X115752572Y-147649185D02*
X114895429Y-148506328D01*
X114895429Y-148506328D02*
X115824001Y-148506328D01*
X117109715Y-147506328D02*
X117109715Y-148506328D01*
X116752572Y-146934900D02*
X116395429Y-148006328D01*
X116395429Y-148006328D02*
X117324000Y-148006328D01*
X118609714Y-147006328D02*
X117895428Y-147006328D01*
X117895428Y-147006328D02*
X117824000Y-147720614D01*
X117824000Y-147720614D02*
X117895428Y-147649185D01*
X117895428Y-147649185D02*
X118038286Y-147577757D01*
X118038286Y-147577757D02*
X118395428Y-147577757D01*
X118395428Y-147577757D02*
X118538286Y-147649185D01*
X118538286Y-147649185D02*
X118609714Y-147720614D01*
X118609714Y-147720614D02*
X118681143Y-147863471D01*
X118681143Y-147863471D02*
X118681143Y-148220614D01*
X118681143Y-148220614D02*
X118609714Y-148363471D01*
X118609714Y-148363471D02*
X118538286Y-148434900D01*
X118538286Y-148434900D02*
X118395428Y-148506328D01*
X118395428Y-148506328D02*
X118038286Y-148506328D01*
X118038286Y-148506328D02*
X117895428Y-148434900D01*
X117895428Y-148434900D02*
X117824000Y-148363471D01*
X119609714Y-147006328D02*
X119752571Y-147006328D01*
X119752571Y-147006328D02*
X119895428Y-147077757D01*
X119895428Y-147077757D02*
X119966857Y-147149185D01*
X119966857Y-147149185D02*
X120038285Y-147292042D01*
X120038285Y-147292042D02*
X120109714Y-147577757D01*
X120109714Y-147577757D02*
X120109714Y-147934900D01*
X120109714Y-147934900D02*
X120038285Y-148220614D01*
X120038285Y-148220614D02*
X119966857Y-148363471D01*
X119966857Y-148363471D02*
X119895428Y-148434900D01*
X119895428Y-148434900D02*
X119752571Y-148506328D01*
X119752571Y-148506328D02*
X119609714Y-148506328D01*
X119609714Y-148506328D02*
X119466857Y-148434900D01*
X119466857Y-148434900D02*
X119395428Y-148363471D01*
X119395428Y-148363471D02*
X119323999Y-148220614D01*
X119323999Y-148220614D02*
X119252571Y-147934900D01*
X119252571Y-147934900D02*
X119252571Y-147577757D01*
X119252571Y-147577757D02*
X119323999Y-147292042D01*
X119323999Y-147292042D02*
X119395428Y-147149185D01*
X119395428Y-147149185D02*
X119466857Y-147077757D01*
X119466857Y-147077757D02*
X119609714Y-147006328D01*
X171736000Y-105858328D02*
X172236000Y-107358328D01*
X172236000Y-107358328D02*
X172736000Y-105858328D01*
X174093142Y-107215471D02*
X174021714Y-107286900D01*
X174021714Y-107286900D02*
X173807428Y-107358328D01*
X173807428Y-107358328D02*
X173664571Y-107358328D01*
X173664571Y-107358328D02*
X173450285Y-107286900D01*
X173450285Y-107286900D02*
X173307428Y-107144042D01*
X173307428Y-107144042D02*
X173235999Y-107001185D01*
X173235999Y-107001185D02*
X173164571Y-106715471D01*
X173164571Y-106715471D02*
X173164571Y-106501185D01*
X173164571Y-106501185D02*
X173235999Y-106215471D01*
X173235999Y-106215471D02*
X173307428Y-106072614D01*
X173307428Y-106072614D02*
X173450285Y-105929757D01*
X173450285Y-105929757D02*
X173664571Y-105858328D01*
X173664571Y-105858328D02*
X173807428Y-105858328D01*
X173807428Y-105858328D02*
X174021714Y-105929757D01*
X174021714Y-105929757D02*
X174093142Y-106001185D01*
X175593142Y-107215471D02*
X175521714Y-107286900D01*
X175521714Y-107286900D02*
X175307428Y-107358328D01*
X175307428Y-107358328D02*
X175164571Y-107358328D01*
X175164571Y-107358328D02*
X174950285Y-107286900D01*
X174950285Y-107286900D02*
X174807428Y-107144042D01*
X174807428Y-107144042D02*
X174735999Y-107001185D01*
X174735999Y-107001185D02*
X174664571Y-106715471D01*
X174664571Y-106715471D02*
X174664571Y-106501185D01*
X174664571Y-106501185D02*
X174735999Y-106215471D01*
X174735999Y-106215471D02*
X174807428Y-106072614D01*
X174807428Y-106072614D02*
X174950285Y-105929757D01*
X174950285Y-105929757D02*
X175164571Y-105858328D01*
X175164571Y-105858328D02*
X175307428Y-105858328D01*
X175307428Y-105858328D02*
X175521714Y-105929757D01*
X175521714Y-105929757D02*
X175593142Y-106001185D01*
X126254510Y-150729400D02*
X127397368Y-150729400D01*
X126825939Y-151300828D02*
X126825939Y-150157971D01*
X136111652Y-150729400D02*
X137254510Y-150729400D01*
X140772000Y-148506328D02*
X140057714Y-148506328D01*
X140057714Y-148506328D02*
X140057714Y-147006328D01*
X141272000Y-148506328D02*
X141272000Y-147006328D01*
X142843429Y-148506328D02*
X142343429Y-147792042D01*
X141986286Y-148506328D02*
X141986286Y-147006328D01*
X141986286Y-147006328D02*
X142557715Y-147006328D01*
X142557715Y-147006328D02*
X142700572Y-147077757D01*
X142700572Y-147077757D02*
X142772001Y-147149185D01*
X142772001Y-147149185D02*
X142843429Y-147292042D01*
X142843429Y-147292042D02*
X142843429Y-147506328D01*
X142843429Y-147506328D02*
X142772001Y-147649185D01*
X142772001Y-147649185D02*
X142700572Y-147720614D01*
X142700572Y-147720614D02*
X142557715Y-147792042D01*
X142557715Y-147792042D02*
X141986286Y-147792042D01*
X143414858Y-147149185D02*
X143486286Y-147077757D01*
X143486286Y-147077757D02*
X143629144Y-147006328D01*
X143629144Y-147006328D02*
X143986286Y-147006328D01*
X143986286Y-147006328D02*
X144129144Y-147077757D01*
X144129144Y-147077757D02*
X144200572Y-147149185D01*
X144200572Y-147149185D02*
X144272001Y-147292042D01*
X144272001Y-147292042D02*
X144272001Y-147434900D01*
X144272001Y-147434900D02*
X144200572Y-147649185D01*
X144200572Y-147649185D02*
X143343429Y-148506328D01*
X143343429Y-148506328D02*
X144272001Y-148506328D01*
X145200572Y-147006328D02*
X145343429Y-147006328D01*
X145343429Y-147006328D02*
X145486286Y-147077757D01*
X145486286Y-147077757D02*
X145557715Y-147149185D01*
X145557715Y-147149185D02*
X145629143Y-147292042D01*
X145629143Y-147292042D02*
X145700572Y-147577757D01*
X145700572Y-147577757D02*
X145700572Y-147934900D01*
X145700572Y-147934900D02*
X145629143Y-148220614D01*
X145629143Y-148220614D02*
X145557715Y-148363471D01*
X145557715Y-148363471D02*
X145486286Y-148434900D01*
X145486286Y-148434900D02*
X145343429Y-148506328D01*
X145343429Y-148506328D02*
X145200572Y-148506328D01*
X145200572Y-148506328D02*
X145057715Y-148434900D01*
X145057715Y-148434900D02*
X144986286Y-148363471D01*
X144986286Y-148363471D02*
X144914857Y-148220614D01*
X144914857Y-148220614D02*
X144843429Y-147934900D01*
X144843429Y-147934900D02*
X144843429Y-147577757D01*
X144843429Y-147577757D02*
X144914857Y-147292042D01*
X144914857Y-147292042D02*
X144986286Y-147149185D01*
X144986286Y-147149185D02*
X145057715Y-147077757D01*
X145057715Y-147077757D02*
X145200572Y-147006328D01*
X146200571Y-147006328D02*
X147129143Y-147006328D01*
X147129143Y-147006328D02*
X146629143Y-147577757D01*
X146629143Y-147577757D02*
X146843428Y-147577757D01*
X146843428Y-147577757D02*
X146986286Y-147649185D01*
X146986286Y-147649185D02*
X147057714Y-147720614D01*
X147057714Y-147720614D02*
X147129143Y-147863471D01*
X147129143Y-147863471D02*
X147129143Y-148220614D01*
X147129143Y-148220614D02*
X147057714Y-148363471D01*
X147057714Y-148363471D02*
X146986286Y-148434900D01*
X146986286Y-148434900D02*
X146843428Y-148506328D01*
X146843428Y-148506328D02*
X146414857Y-148506328D01*
X146414857Y-148506328D02*
X146272000Y-148434900D01*
X146272000Y-148434900D02*
X146200571Y-148363471D01*
X147700571Y-147149185D02*
X147771999Y-147077757D01*
X147771999Y-147077757D02*
X147914857Y-147006328D01*
X147914857Y-147006328D02*
X148271999Y-147006328D01*
X148271999Y-147006328D02*
X148414857Y-147077757D01*
X148414857Y-147077757D02*
X148486285Y-147149185D01*
X148486285Y-147149185D02*
X148557714Y-147292042D01*
X148557714Y-147292042D02*
X148557714Y-147434900D01*
X148557714Y-147434900D02*
X148486285Y-147649185D01*
X148486285Y-147649185D02*
X147629142Y-148506328D01*
X147629142Y-148506328D02*
X148557714Y-148506328D01*
X170054510Y-150729400D02*
X171197368Y-150729400D01*
X170625939Y-151300828D02*
X170625939Y-150157971D01*
X179911652Y-150729400D02*
X181054510Y-150729400D01*
D12*
X136868571Y-155928295D02*
X136487619Y-155928295D01*
X136487619Y-155928295D02*
X136487619Y-155128295D01*
X137135238Y-155928295D02*
X137135238Y-155128295D01*
X137973333Y-155928295D02*
X137706666Y-155547342D01*
X137516190Y-155928295D02*
X137516190Y-155128295D01*
X137516190Y-155128295D02*
X137820952Y-155128295D01*
X137820952Y-155128295D02*
X137897142Y-155166390D01*
X137897142Y-155166390D02*
X137935237Y-155204485D01*
X137935237Y-155204485D02*
X137973333Y-155280676D01*
X137973333Y-155280676D02*
X137973333Y-155394961D01*
X137973333Y-155394961D02*
X137935237Y-155471152D01*
X137935237Y-155471152D02*
X137897142Y-155509247D01*
X137897142Y-155509247D02*
X137820952Y-155547342D01*
X137820952Y-155547342D02*
X137516190Y-155547342D01*
X138925714Y-155928295D02*
X138925714Y-155128295D01*
X138925714Y-155128295D02*
X139192380Y-155699723D01*
X139192380Y-155699723D02*
X139459047Y-155128295D01*
X139459047Y-155128295D02*
X139459047Y-155928295D01*
X139840000Y-155128295D02*
X139840000Y-155775914D01*
X139840000Y-155775914D02*
X139878095Y-155852104D01*
X139878095Y-155852104D02*
X139916190Y-155890200D01*
X139916190Y-155890200D02*
X139992381Y-155928295D01*
X139992381Y-155928295D02*
X140144762Y-155928295D01*
X140144762Y-155928295D02*
X140220952Y-155890200D01*
X140220952Y-155890200D02*
X140259047Y-155852104D01*
X140259047Y-155852104D02*
X140297143Y-155775914D01*
X140297143Y-155775914D02*
X140297143Y-155128295D01*
X141059047Y-155928295D02*
X140678095Y-155928295D01*
X140678095Y-155928295D02*
X140678095Y-155128295D01*
X141211428Y-155128295D02*
X141668571Y-155128295D01*
X141439999Y-155928295D02*
X141439999Y-155128295D01*
X141935238Y-155928295D02*
X141935238Y-155128295D01*
X143382857Y-155852104D02*
X143344761Y-155890200D01*
X143344761Y-155890200D02*
X143230476Y-155928295D01*
X143230476Y-155928295D02*
X143154285Y-155928295D01*
X143154285Y-155928295D02*
X143039999Y-155890200D01*
X143039999Y-155890200D02*
X142963809Y-155814009D01*
X142963809Y-155814009D02*
X142925714Y-155737819D01*
X142925714Y-155737819D02*
X142887618Y-155585438D01*
X142887618Y-155585438D02*
X142887618Y-155471152D01*
X142887618Y-155471152D02*
X142925714Y-155318771D01*
X142925714Y-155318771D02*
X142963809Y-155242580D01*
X142963809Y-155242580D02*
X143039999Y-155166390D01*
X143039999Y-155166390D02*
X143154285Y-155128295D01*
X143154285Y-155128295D02*
X143230476Y-155128295D01*
X143230476Y-155128295D02*
X143344761Y-155166390D01*
X143344761Y-155166390D02*
X143382857Y-155204485D01*
X143725714Y-155928295D02*
X143725714Y-155128295D01*
X143725714Y-155509247D02*
X144182857Y-155509247D01*
X144182857Y-155928295D02*
X144182857Y-155128295D01*
X144525713Y-155699723D02*
X144906666Y-155699723D01*
X144449523Y-155928295D02*
X144716190Y-155128295D01*
X144716190Y-155128295D02*
X144982856Y-155928295D01*
X145706666Y-155928295D02*
X145439999Y-155547342D01*
X145249523Y-155928295D02*
X145249523Y-155128295D01*
X145249523Y-155128295D02*
X145554285Y-155128295D01*
X145554285Y-155128295D02*
X145630475Y-155166390D01*
X145630475Y-155166390D02*
X145668570Y-155204485D01*
X145668570Y-155204485D02*
X145706666Y-155280676D01*
X145706666Y-155280676D02*
X145706666Y-155394961D01*
X145706666Y-155394961D02*
X145668570Y-155471152D01*
X145668570Y-155471152D02*
X145630475Y-155509247D01*
X145630475Y-155509247D02*
X145554285Y-155547342D01*
X145554285Y-155547342D02*
X145249523Y-155547342D01*
X146468570Y-155166390D02*
X146392380Y-155128295D01*
X146392380Y-155128295D02*
X146278094Y-155128295D01*
X146278094Y-155128295D02*
X146163808Y-155166390D01*
X146163808Y-155166390D02*
X146087618Y-155242580D01*
X146087618Y-155242580D02*
X146049523Y-155318771D01*
X146049523Y-155318771D02*
X146011427Y-155471152D01*
X146011427Y-155471152D02*
X146011427Y-155585438D01*
X146011427Y-155585438D02*
X146049523Y-155737819D01*
X146049523Y-155737819D02*
X146087618Y-155814009D01*
X146087618Y-155814009D02*
X146163808Y-155890200D01*
X146163808Y-155890200D02*
X146278094Y-155928295D01*
X146278094Y-155928295D02*
X146354285Y-155928295D01*
X146354285Y-155928295D02*
X146468570Y-155890200D01*
X146468570Y-155890200D02*
X146506666Y-155852104D01*
X146506666Y-155852104D02*
X146506666Y-155585438D01*
X146506666Y-155585438D02*
X146354285Y-155585438D01*
X146849523Y-155509247D02*
X147116189Y-155509247D01*
X147230475Y-155928295D02*
X146849523Y-155928295D01*
X146849523Y-155928295D02*
X146849523Y-155128295D01*
X146849523Y-155128295D02*
X147230475Y-155128295D01*
X148030476Y-155928295D02*
X147763809Y-155547342D01*
X147573333Y-155928295D02*
X147573333Y-155128295D01*
X147573333Y-155128295D02*
X147878095Y-155128295D01*
X147878095Y-155128295D02*
X147954285Y-155166390D01*
X147954285Y-155166390D02*
X147992380Y-155204485D01*
X147992380Y-155204485D02*
X148030476Y-155280676D01*
X148030476Y-155280676D02*
X148030476Y-155394961D01*
X148030476Y-155394961D02*
X147992380Y-155471152D01*
X147992380Y-155471152D02*
X147954285Y-155509247D01*
X147954285Y-155509247D02*
X147878095Y-155547342D01*
X147878095Y-155547342D02*
X147573333Y-155547342D01*
X141804819Y-103512857D02*
X141328628Y-103846190D01*
X141804819Y-104084285D02*
X140804819Y-104084285D01*
X140804819Y-104084285D02*
X140804819Y-103703333D01*
X140804819Y-103703333D02*
X140852438Y-103608095D01*
X140852438Y-103608095D02*
X140900057Y-103560476D01*
X140900057Y-103560476D02*
X140995295Y-103512857D01*
X140995295Y-103512857D02*
X141138152Y-103512857D01*
X141138152Y-103512857D02*
X141233390Y-103560476D01*
X141233390Y-103560476D02*
X141281009Y-103608095D01*
X141281009Y-103608095D02*
X141328628Y-103703333D01*
X141328628Y-103703333D02*
X141328628Y-104084285D01*
X141804819Y-102560476D02*
X141804819Y-103131904D01*
X141804819Y-102846190D02*
X140804819Y-102846190D01*
X140804819Y-102846190D02*
X140947676Y-102941428D01*
X140947676Y-102941428D02*
X141042914Y-103036666D01*
X141042914Y-103036666D02*
X141090533Y-103131904D01*
X140804819Y-101655714D02*
X140804819Y-102131904D01*
X140804819Y-102131904D02*
X141281009Y-102179523D01*
X141281009Y-102179523D02*
X141233390Y-102131904D01*
X141233390Y-102131904D02*
X141185771Y-102036666D01*
X141185771Y-102036666D02*
X141185771Y-101798571D01*
X141185771Y-101798571D02*
X141233390Y-101703333D01*
X141233390Y-101703333D02*
X141281009Y-101655714D01*
X141281009Y-101655714D02*
X141376247Y-101608095D01*
X141376247Y-101608095D02*
X141614342Y-101608095D01*
X141614342Y-101608095D02*
X141709580Y-101655714D01*
X141709580Y-101655714D02*
X141757200Y-101703333D01*
X141757200Y-101703333D02*
X141804819Y-101798571D01*
X141804819Y-101798571D02*
X141804819Y-102036666D01*
X141804819Y-102036666D02*
X141757200Y-102131904D01*
X141757200Y-102131904D02*
X141709580Y-102179523D01*
X149026009Y-134080714D02*
X149073628Y-133937857D01*
X149073628Y-133937857D02*
X149121247Y-133890238D01*
X149121247Y-133890238D02*
X149216485Y-133842619D01*
X149216485Y-133842619D02*
X149359342Y-133842619D01*
X149359342Y-133842619D02*
X149454580Y-133890238D01*
X149454580Y-133890238D02*
X149502200Y-133937857D01*
X149502200Y-133937857D02*
X149549819Y-134033095D01*
X149549819Y-134033095D02*
X149549819Y-134414047D01*
X149549819Y-134414047D02*
X148549819Y-134414047D01*
X148549819Y-134414047D02*
X148549819Y-134080714D01*
X148549819Y-134080714D02*
X148597438Y-133985476D01*
X148597438Y-133985476D02*
X148645057Y-133937857D01*
X148645057Y-133937857D02*
X148740295Y-133890238D01*
X148740295Y-133890238D02*
X148835533Y-133890238D01*
X148835533Y-133890238D02*
X148930771Y-133937857D01*
X148930771Y-133937857D02*
X148978390Y-133985476D01*
X148978390Y-133985476D02*
X149026009Y-134080714D01*
X149026009Y-134080714D02*
X149026009Y-134414047D01*
X148549819Y-133556904D02*
X148549819Y-132985476D01*
X149549819Y-133271190D02*
X148549819Y-133271190D01*
X148645057Y-132699761D02*
X148597438Y-132652142D01*
X148597438Y-132652142D02*
X148549819Y-132556904D01*
X148549819Y-132556904D02*
X148549819Y-132318809D01*
X148549819Y-132318809D02*
X148597438Y-132223571D01*
X148597438Y-132223571D02*
X148645057Y-132175952D01*
X148645057Y-132175952D02*
X148740295Y-132128333D01*
X148740295Y-132128333D02*
X148835533Y-132128333D01*
X148835533Y-132128333D02*
X148978390Y-132175952D01*
X148978390Y-132175952D02*
X149549819Y-132747380D01*
X149549819Y-132747380D02*
X149549819Y-132128333D01*
X154416666Y-148294819D02*
X154416666Y-149009104D01*
X154416666Y-149009104D02*
X154369047Y-149151961D01*
X154369047Y-149151961D02*
X154273809Y-149247200D01*
X154273809Y-149247200D02*
X154130952Y-149294819D01*
X154130952Y-149294819D02*
X154035714Y-149294819D01*
X155035714Y-148723390D02*
X154940476Y-148675771D01*
X154940476Y-148675771D02*
X154892857Y-148628152D01*
X154892857Y-148628152D02*
X154845238Y-148532914D01*
X154845238Y-148532914D02*
X154845238Y-148485295D01*
X154845238Y-148485295D02*
X154892857Y-148390057D01*
X154892857Y-148390057D02*
X154940476Y-148342438D01*
X154940476Y-148342438D02*
X155035714Y-148294819D01*
X155035714Y-148294819D02*
X155226190Y-148294819D01*
X155226190Y-148294819D02*
X155321428Y-148342438D01*
X155321428Y-148342438D02*
X155369047Y-148390057D01*
X155369047Y-148390057D02*
X155416666Y-148485295D01*
X155416666Y-148485295D02*
X155416666Y-148532914D01*
X155416666Y-148532914D02*
X155369047Y-148628152D01*
X155369047Y-148628152D02*
X155321428Y-148675771D01*
X155321428Y-148675771D02*
X155226190Y-148723390D01*
X155226190Y-148723390D02*
X155035714Y-148723390D01*
X155035714Y-148723390D02*
X154940476Y-148771009D01*
X154940476Y-148771009D02*
X154892857Y-148818628D01*
X154892857Y-148818628D02*
X154845238Y-148913866D01*
X154845238Y-148913866D02*
X154845238Y-149104342D01*
X154845238Y-149104342D02*
X154892857Y-149199580D01*
X154892857Y-149199580D02*
X154940476Y-149247200D01*
X154940476Y-149247200D02*
X155035714Y-149294819D01*
X155035714Y-149294819D02*
X155226190Y-149294819D01*
X155226190Y-149294819D02*
X155321428Y-149247200D01*
X155321428Y-149247200D02*
X155369047Y-149199580D01*
X155369047Y-149199580D02*
X155416666Y-149104342D01*
X155416666Y-149104342D02*
X155416666Y-148913866D01*
X155416666Y-148913866D02*
X155369047Y-148818628D01*
X155369047Y-148818628D02*
X155321428Y-148771009D01*
X155321428Y-148771009D02*
X155226190Y-148723390D01*
X175116666Y-148294819D02*
X175116666Y-149009104D01*
X175116666Y-149009104D02*
X175069047Y-149151961D01*
X175069047Y-149151961D02*
X174973809Y-149247200D01*
X174973809Y-149247200D02*
X174830952Y-149294819D01*
X174830952Y-149294819D02*
X174735714Y-149294819D01*
X175497619Y-148294819D02*
X176164285Y-148294819D01*
X176164285Y-148294819D02*
X175735714Y-149294819D01*
X167206819Y-124499666D02*
X166730628Y-124832999D01*
X167206819Y-125071094D02*
X166206819Y-125071094D01*
X166206819Y-125071094D02*
X166206819Y-124690142D01*
X166206819Y-124690142D02*
X166254438Y-124594904D01*
X166254438Y-124594904D02*
X166302057Y-124547285D01*
X166302057Y-124547285D02*
X166397295Y-124499666D01*
X166397295Y-124499666D02*
X166540152Y-124499666D01*
X166540152Y-124499666D02*
X166635390Y-124547285D01*
X166635390Y-124547285D02*
X166683009Y-124594904D01*
X166683009Y-124594904D02*
X166730628Y-124690142D01*
X166730628Y-124690142D02*
X166730628Y-125071094D01*
X166540152Y-123642523D02*
X167206819Y-123642523D01*
X166159200Y-123880618D02*
X166873485Y-124118713D01*
X166873485Y-124118713D02*
X166873485Y-123499666D01*
X156764580Y-119276666D02*
X156812200Y-119324285D01*
X156812200Y-119324285D02*
X156859819Y-119467142D01*
X156859819Y-119467142D02*
X156859819Y-119562380D01*
X156859819Y-119562380D02*
X156812200Y-119705237D01*
X156812200Y-119705237D02*
X156716961Y-119800475D01*
X156716961Y-119800475D02*
X156621723Y-119848094D01*
X156621723Y-119848094D02*
X156431247Y-119895713D01*
X156431247Y-119895713D02*
X156288390Y-119895713D01*
X156288390Y-119895713D02*
X156097914Y-119848094D01*
X156097914Y-119848094D02*
X156002676Y-119800475D01*
X156002676Y-119800475D02*
X155907438Y-119705237D01*
X155907438Y-119705237D02*
X155859819Y-119562380D01*
X155859819Y-119562380D02*
X155859819Y-119467142D01*
X155859819Y-119467142D02*
X155907438Y-119324285D01*
X155907438Y-119324285D02*
X155955057Y-119276666D01*
X156859819Y-118324285D02*
X156859819Y-118895713D01*
X156859819Y-118609999D02*
X155859819Y-118609999D01*
X155859819Y-118609999D02*
X156002676Y-118705237D01*
X156002676Y-118705237D02*
X156097914Y-118800475D01*
X156097914Y-118800475D02*
X156145533Y-118895713D01*
X137304819Y-142666666D02*
X136828628Y-142999999D01*
X137304819Y-143238094D02*
X136304819Y-143238094D01*
X136304819Y-143238094D02*
X136304819Y-142857142D01*
X136304819Y-142857142D02*
X136352438Y-142761904D01*
X136352438Y-142761904D02*
X136400057Y-142714285D01*
X136400057Y-142714285D02*
X136495295Y-142666666D01*
X136495295Y-142666666D02*
X136638152Y-142666666D01*
X136638152Y-142666666D02*
X136733390Y-142714285D01*
X136733390Y-142714285D02*
X136781009Y-142761904D01*
X136781009Y-142761904D02*
X136828628Y-142857142D01*
X136828628Y-142857142D02*
X136828628Y-143238094D01*
X136733390Y-142095237D02*
X136685771Y-142190475D01*
X136685771Y-142190475D02*
X136638152Y-142238094D01*
X136638152Y-142238094D02*
X136542914Y-142285713D01*
X136542914Y-142285713D02*
X136495295Y-142285713D01*
X136495295Y-142285713D02*
X136400057Y-142238094D01*
X136400057Y-142238094D02*
X136352438Y-142190475D01*
X136352438Y-142190475D02*
X136304819Y-142095237D01*
X136304819Y-142095237D02*
X136304819Y-141904761D01*
X136304819Y-141904761D02*
X136352438Y-141809523D01*
X136352438Y-141809523D02*
X136400057Y-141761904D01*
X136400057Y-141761904D02*
X136495295Y-141714285D01*
X136495295Y-141714285D02*
X136542914Y-141714285D01*
X136542914Y-141714285D02*
X136638152Y-141761904D01*
X136638152Y-141761904D02*
X136685771Y-141809523D01*
X136685771Y-141809523D02*
X136733390Y-141904761D01*
X136733390Y-141904761D02*
X136733390Y-142095237D01*
X136733390Y-142095237D02*
X136781009Y-142190475D01*
X136781009Y-142190475D02*
X136828628Y-142238094D01*
X136828628Y-142238094D02*
X136923866Y-142285713D01*
X136923866Y-142285713D02*
X137114342Y-142285713D01*
X137114342Y-142285713D02*
X137209580Y-142238094D01*
X137209580Y-142238094D02*
X137257200Y-142190475D01*
X137257200Y-142190475D02*
X137304819Y-142095237D01*
X137304819Y-142095237D02*
X137304819Y-141904761D01*
X137304819Y-141904761D02*
X137257200Y-141809523D01*
X137257200Y-141809523D02*
X137209580Y-141761904D01*
X137209580Y-141761904D02*
X137114342Y-141714285D01*
X137114342Y-141714285D02*
X136923866Y-141714285D01*
X136923866Y-141714285D02*
X136828628Y-141761904D01*
X136828628Y-141761904D02*
X136781009Y-141809523D01*
X136781009Y-141809523D02*
X136733390Y-141904761D01*
X152870819Y-111577334D02*
X153585104Y-111577334D01*
X153585104Y-111577334D02*
X153727961Y-111624953D01*
X153727961Y-111624953D02*
X153823200Y-111720191D01*
X153823200Y-111720191D02*
X153870819Y-111863048D01*
X153870819Y-111863048D02*
X153870819Y-111958286D01*
X153870819Y-111101143D02*
X152870819Y-111101143D01*
X152870819Y-111101143D02*
X152870819Y-110720191D01*
X152870819Y-110720191D02*
X152918438Y-110624953D01*
X152918438Y-110624953D02*
X152966057Y-110577334D01*
X152966057Y-110577334D02*
X153061295Y-110529715D01*
X153061295Y-110529715D02*
X153204152Y-110529715D01*
X153204152Y-110529715D02*
X153299390Y-110577334D01*
X153299390Y-110577334D02*
X153347009Y-110624953D01*
X153347009Y-110624953D02*
X153394628Y-110720191D01*
X153394628Y-110720191D02*
X153394628Y-111101143D01*
X152966057Y-110148762D02*
X152918438Y-110101143D01*
X152918438Y-110101143D02*
X152870819Y-110005905D01*
X152870819Y-110005905D02*
X152870819Y-109767810D01*
X152870819Y-109767810D02*
X152918438Y-109672572D01*
X152918438Y-109672572D02*
X152966057Y-109624953D01*
X152966057Y-109624953D02*
X153061295Y-109577334D01*
X153061295Y-109577334D02*
X153156533Y-109577334D01*
X153156533Y-109577334D02*
X153299390Y-109624953D01*
X153299390Y-109624953D02*
X153870819Y-110196381D01*
X153870819Y-110196381D02*
X153870819Y-109577334D01*
X162124819Y-110656666D02*
X161648628Y-110989999D01*
X162124819Y-111228094D02*
X161124819Y-111228094D01*
X161124819Y-111228094D02*
X161124819Y-110847142D01*
X161124819Y-110847142D02*
X161172438Y-110751904D01*
X161172438Y-110751904D02*
X161220057Y-110704285D01*
X161220057Y-110704285D02*
X161315295Y-110656666D01*
X161315295Y-110656666D02*
X161458152Y-110656666D01*
X161458152Y-110656666D02*
X161553390Y-110704285D01*
X161553390Y-110704285D02*
X161601009Y-110751904D01*
X161601009Y-110751904D02*
X161648628Y-110847142D01*
X161648628Y-110847142D02*
X161648628Y-111228094D01*
X161124819Y-110323332D02*
X161124819Y-109656666D01*
X161124819Y-109656666D02*
X162124819Y-110085237D01*
X151694819Y-103512857D02*
X151218628Y-103846190D01*
X151694819Y-104084285D02*
X150694819Y-104084285D01*
X150694819Y-104084285D02*
X150694819Y-103703333D01*
X150694819Y-103703333D02*
X150742438Y-103608095D01*
X150742438Y-103608095D02*
X150790057Y-103560476D01*
X150790057Y-103560476D02*
X150885295Y-103512857D01*
X150885295Y-103512857D02*
X151028152Y-103512857D01*
X151028152Y-103512857D02*
X151123390Y-103560476D01*
X151123390Y-103560476D02*
X151171009Y-103608095D01*
X151171009Y-103608095D02*
X151218628Y-103703333D01*
X151218628Y-103703333D02*
X151218628Y-104084285D01*
X151694819Y-102560476D02*
X151694819Y-103131904D01*
X151694819Y-102846190D02*
X150694819Y-102846190D01*
X150694819Y-102846190D02*
X150837676Y-102941428D01*
X150837676Y-102941428D02*
X150932914Y-103036666D01*
X150932914Y-103036666D02*
X150980533Y-103131904D01*
X150694819Y-101941428D02*
X150694819Y-101846190D01*
X150694819Y-101846190D02*
X150742438Y-101750952D01*
X150742438Y-101750952D02*
X150790057Y-101703333D01*
X150790057Y-101703333D02*
X150885295Y-101655714D01*
X150885295Y-101655714D02*
X151075771Y-101608095D01*
X151075771Y-101608095D02*
X151313866Y-101608095D01*
X151313866Y-101608095D02*
X151504342Y-101655714D01*
X151504342Y-101655714D02*
X151599580Y-101703333D01*
X151599580Y-101703333D02*
X151647200Y-101750952D01*
X151647200Y-101750952D02*
X151694819Y-101846190D01*
X151694819Y-101846190D02*
X151694819Y-101941428D01*
X151694819Y-101941428D02*
X151647200Y-102036666D01*
X151647200Y-102036666D02*
X151599580Y-102084285D01*
X151599580Y-102084285D02*
X151504342Y-102131904D01*
X151504342Y-102131904D02*
X151313866Y-102179523D01*
X151313866Y-102179523D02*
X151075771Y-102179523D01*
X151075771Y-102179523D02*
X150885295Y-102131904D01*
X150885295Y-102131904D02*
X150790057Y-102084285D01*
X150790057Y-102084285D02*
X150742438Y-102036666D01*
X150742438Y-102036666D02*
X150694819Y-101941428D01*
X171158819Y-123769333D02*
X171873104Y-123769333D01*
X171873104Y-123769333D02*
X172015961Y-123816952D01*
X172015961Y-123816952D02*
X172111200Y-123912190D01*
X172111200Y-123912190D02*
X172158819Y-124055047D01*
X172158819Y-124055047D02*
X172158819Y-124150285D01*
X172158819Y-123293142D02*
X171158819Y-123293142D01*
X171158819Y-123293142D02*
X171158819Y-122912190D01*
X171158819Y-122912190D02*
X171206438Y-122816952D01*
X171206438Y-122816952D02*
X171254057Y-122769333D01*
X171254057Y-122769333D02*
X171349295Y-122721714D01*
X171349295Y-122721714D02*
X171492152Y-122721714D01*
X171492152Y-122721714D02*
X171587390Y-122769333D01*
X171587390Y-122769333D02*
X171635009Y-122816952D01*
X171635009Y-122816952D02*
X171682628Y-122912190D01*
X171682628Y-122912190D02*
X171682628Y-123293142D01*
X172158819Y-121769333D02*
X172158819Y-122340761D01*
X172158819Y-122055047D02*
X171158819Y-122055047D01*
X171158819Y-122055047D02*
X171301676Y-122150285D01*
X171301676Y-122150285D02*
X171396914Y-122245523D01*
X171396914Y-122245523D02*
X171444533Y-122340761D01*
X180006666Y-123914819D02*
X180006666Y-124629104D01*
X180006666Y-124629104D02*
X179959047Y-124771961D01*
X179959047Y-124771961D02*
X179863809Y-124867200D01*
X179863809Y-124867200D02*
X179720952Y-124914819D01*
X179720952Y-124914819D02*
X179625714Y-124914819D01*
X180387619Y-123914819D02*
X181006666Y-123914819D01*
X181006666Y-123914819D02*
X180673333Y-124295771D01*
X180673333Y-124295771D02*
X180816190Y-124295771D01*
X180816190Y-124295771D02*
X180911428Y-124343390D01*
X180911428Y-124343390D02*
X180959047Y-124391009D01*
X180959047Y-124391009D02*
X181006666Y-124486247D01*
X181006666Y-124486247D02*
X181006666Y-124724342D01*
X181006666Y-124724342D02*
X180959047Y-124819580D01*
X180959047Y-124819580D02*
X180911428Y-124867200D01*
X180911428Y-124867200D02*
X180816190Y-124914819D01*
X180816190Y-124914819D02*
X180530476Y-124914819D01*
X180530476Y-124914819D02*
X180435238Y-124867200D01*
X180435238Y-124867200D02*
X180387619Y-124819580D01*
X168986009Y-138385714D02*
X169033628Y-138242857D01*
X169033628Y-138242857D02*
X169081247Y-138195238D01*
X169081247Y-138195238D02*
X169176485Y-138147619D01*
X169176485Y-138147619D02*
X169319342Y-138147619D01*
X169319342Y-138147619D02*
X169414580Y-138195238D01*
X169414580Y-138195238D02*
X169462200Y-138242857D01*
X169462200Y-138242857D02*
X169509819Y-138338095D01*
X169509819Y-138338095D02*
X169509819Y-138719047D01*
X169509819Y-138719047D02*
X168509819Y-138719047D01*
X168509819Y-138719047D02*
X168509819Y-138385714D01*
X168509819Y-138385714D02*
X168557438Y-138290476D01*
X168557438Y-138290476D02*
X168605057Y-138242857D01*
X168605057Y-138242857D02*
X168700295Y-138195238D01*
X168700295Y-138195238D02*
X168795533Y-138195238D01*
X168795533Y-138195238D02*
X168890771Y-138242857D01*
X168890771Y-138242857D02*
X168938390Y-138290476D01*
X168938390Y-138290476D02*
X168986009Y-138385714D01*
X168986009Y-138385714D02*
X168986009Y-138719047D01*
X168509819Y-137861904D02*
X168509819Y-137290476D01*
X169509819Y-137576190D02*
X168509819Y-137576190D01*
X168509819Y-137052380D02*
X168509819Y-136433333D01*
X168509819Y-136433333D02*
X168890771Y-136766666D01*
X168890771Y-136766666D02*
X168890771Y-136623809D01*
X168890771Y-136623809D02*
X168938390Y-136528571D01*
X168938390Y-136528571D02*
X168986009Y-136480952D01*
X168986009Y-136480952D02*
X169081247Y-136433333D01*
X169081247Y-136433333D02*
X169319342Y-136433333D01*
X169319342Y-136433333D02*
X169414580Y-136480952D01*
X169414580Y-136480952D02*
X169462200Y-136528571D01*
X169462200Y-136528571D02*
X169509819Y-136623809D01*
X169509819Y-136623809D02*
X169509819Y-136909523D01*
X169509819Y-136909523D02*
X169462200Y-137004761D01*
X169462200Y-137004761D02*
X169414580Y-137052380D01*
X160154819Y-147538094D02*
X159154819Y-147538094D01*
X159154819Y-147538094D02*
X159154819Y-147299999D01*
X159154819Y-147299999D02*
X159202438Y-147157142D01*
X159202438Y-147157142D02*
X159297676Y-147061904D01*
X159297676Y-147061904D02*
X159392914Y-147014285D01*
X159392914Y-147014285D02*
X159583390Y-146966666D01*
X159583390Y-146966666D02*
X159726247Y-146966666D01*
X159726247Y-146966666D02*
X159916723Y-147014285D01*
X159916723Y-147014285D02*
X160011961Y-147061904D01*
X160011961Y-147061904D02*
X160107200Y-147157142D01*
X160107200Y-147157142D02*
X160154819Y-147299999D01*
X160154819Y-147299999D02*
X160154819Y-147538094D01*
X159154819Y-146633332D02*
X159154819Y-146014285D01*
X159154819Y-146014285D02*
X159535771Y-146347618D01*
X159535771Y-146347618D02*
X159535771Y-146204761D01*
X159535771Y-146204761D02*
X159583390Y-146109523D01*
X159583390Y-146109523D02*
X159631009Y-146061904D01*
X159631009Y-146061904D02*
X159726247Y-146014285D01*
X159726247Y-146014285D02*
X159964342Y-146014285D01*
X159964342Y-146014285D02*
X160059580Y-146061904D01*
X160059580Y-146061904D02*
X160107200Y-146109523D01*
X160107200Y-146109523D02*
X160154819Y-146204761D01*
X160154819Y-146204761D02*
X160154819Y-146490475D01*
X160154819Y-146490475D02*
X160107200Y-146585713D01*
X160107200Y-146585713D02*
X160059580Y-146633332D01*
X133270666Y-104561819D02*
X133270666Y-105276104D01*
X133270666Y-105276104D02*
X133223047Y-105418961D01*
X133223047Y-105418961D02*
X133127809Y-105514200D01*
X133127809Y-105514200D02*
X132984952Y-105561819D01*
X132984952Y-105561819D02*
X132889714Y-105561819D01*
X134223047Y-104561819D02*
X133746857Y-104561819D01*
X133746857Y-104561819D02*
X133699238Y-105038009D01*
X133699238Y-105038009D02*
X133746857Y-104990390D01*
X133746857Y-104990390D02*
X133842095Y-104942771D01*
X133842095Y-104942771D02*
X134080190Y-104942771D01*
X134080190Y-104942771D02*
X134175428Y-104990390D01*
X134175428Y-104990390D02*
X134223047Y-105038009D01*
X134223047Y-105038009D02*
X134270666Y-105133247D01*
X134270666Y-105133247D02*
X134270666Y-105371342D01*
X134270666Y-105371342D02*
X134223047Y-105466580D01*
X134223047Y-105466580D02*
X134175428Y-105514200D01*
X134175428Y-105514200D02*
X134080190Y-105561819D01*
X134080190Y-105561819D02*
X133842095Y-105561819D01*
X133842095Y-105561819D02*
X133746857Y-105514200D01*
X133746857Y-105514200D02*
X133699238Y-105466580D01*
X162124819Y-103036666D02*
X161648628Y-103369999D01*
X162124819Y-103608094D02*
X161124819Y-103608094D01*
X161124819Y-103608094D02*
X161124819Y-103227142D01*
X161124819Y-103227142D02*
X161172438Y-103131904D01*
X161172438Y-103131904D02*
X161220057Y-103084285D01*
X161220057Y-103084285D02*
X161315295Y-103036666D01*
X161315295Y-103036666D02*
X161458152Y-103036666D01*
X161458152Y-103036666D02*
X161553390Y-103084285D01*
X161553390Y-103084285D02*
X161601009Y-103131904D01*
X161601009Y-103131904D02*
X161648628Y-103227142D01*
X161648628Y-103227142D02*
X161648628Y-103608094D01*
X161124819Y-102131904D02*
X161124819Y-102608094D01*
X161124819Y-102608094D02*
X161601009Y-102655713D01*
X161601009Y-102655713D02*
X161553390Y-102608094D01*
X161553390Y-102608094D02*
X161505771Y-102512856D01*
X161505771Y-102512856D02*
X161505771Y-102274761D01*
X161505771Y-102274761D02*
X161553390Y-102179523D01*
X161553390Y-102179523D02*
X161601009Y-102131904D01*
X161601009Y-102131904D02*
X161696247Y-102084285D01*
X161696247Y-102084285D02*
X161934342Y-102084285D01*
X161934342Y-102084285D02*
X162029580Y-102131904D01*
X162029580Y-102131904D02*
X162077200Y-102179523D01*
X162077200Y-102179523D02*
X162124819Y-102274761D01*
X162124819Y-102274761D02*
X162124819Y-102512856D01*
X162124819Y-102512856D02*
X162077200Y-102608094D01*
X162077200Y-102608094D02*
X162029580Y-102655713D01*
X171791905Y-112754819D02*
X171791905Y-111754819D01*
X171791905Y-111754819D02*
X172030000Y-111754819D01*
X172030000Y-111754819D02*
X172172857Y-111802438D01*
X172172857Y-111802438D02*
X172268095Y-111897676D01*
X172268095Y-111897676D02*
X172315714Y-111992914D01*
X172315714Y-111992914D02*
X172363333Y-112183390D01*
X172363333Y-112183390D02*
X172363333Y-112326247D01*
X172363333Y-112326247D02*
X172315714Y-112516723D01*
X172315714Y-112516723D02*
X172268095Y-112611961D01*
X172268095Y-112611961D02*
X172172857Y-112707200D01*
X172172857Y-112707200D02*
X172030000Y-112754819D01*
X172030000Y-112754819D02*
X171791905Y-112754819D01*
X172744286Y-111850057D02*
X172791905Y-111802438D01*
X172791905Y-111802438D02*
X172887143Y-111754819D01*
X172887143Y-111754819D02*
X173125238Y-111754819D01*
X173125238Y-111754819D02*
X173220476Y-111802438D01*
X173220476Y-111802438D02*
X173268095Y-111850057D01*
X173268095Y-111850057D02*
X173315714Y-111945295D01*
X173315714Y-111945295D02*
X173315714Y-112040533D01*
X173315714Y-112040533D02*
X173268095Y-112183390D01*
X173268095Y-112183390D02*
X172696667Y-112754819D01*
X172696667Y-112754819D02*
X173315714Y-112754819D01*
X137134819Y-147538094D02*
X136134819Y-147538094D01*
X136134819Y-147538094D02*
X136134819Y-147299999D01*
X136134819Y-147299999D02*
X136182438Y-147157142D01*
X136182438Y-147157142D02*
X136277676Y-147061904D01*
X136277676Y-147061904D02*
X136372914Y-147014285D01*
X136372914Y-147014285D02*
X136563390Y-146966666D01*
X136563390Y-146966666D02*
X136706247Y-146966666D01*
X136706247Y-146966666D02*
X136896723Y-147014285D01*
X136896723Y-147014285D02*
X136991961Y-147061904D01*
X136991961Y-147061904D02*
X137087200Y-147157142D01*
X137087200Y-147157142D02*
X137134819Y-147299999D01*
X137134819Y-147299999D02*
X137134819Y-147538094D01*
X136468152Y-146109523D02*
X137134819Y-146109523D01*
X136087200Y-146347618D02*
X136801485Y-146585713D01*
X136801485Y-146585713D02*
X136801485Y-145966666D01*
X131416666Y-148294819D02*
X131416666Y-149009104D01*
X131416666Y-149009104D02*
X131369047Y-149151961D01*
X131369047Y-149151961D02*
X131273809Y-149247200D01*
X131273809Y-149247200D02*
X131130952Y-149294819D01*
X131130952Y-149294819D02*
X131035714Y-149294819D01*
X131940476Y-149294819D02*
X132130952Y-149294819D01*
X132130952Y-149294819D02*
X132226190Y-149247200D01*
X132226190Y-149247200D02*
X132273809Y-149199580D01*
X132273809Y-149199580D02*
X132369047Y-149056723D01*
X132369047Y-149056723D02*
X132416666Y-148866247D01*
X132416666Y-148866247D02*
X132416666Y-148485295D01*
X132416666Y-148485295D02*
X132369047Y-148390057D01*
X132369047Y-148390057D02*
X132321428Y-148342438D01*
X132321428Y-148342438D02*
X132226190Y-148294819D01*
X132226190Y-148294819D02*
X132035714Y-148294819D01*
X132035714Y-148294819D02*
X131940476Y-148342438D01*
X131940476Y-148342438D02*
X131892857Y-148390057D01*
X131892857Y-148390057D02*
X131845238Y-148485295D01*
X131845238Y-148485295D02*
X131845238Y-148723390D01*
X131845238Y-148723390D02*
X131892857Y-148818628D01*
X131892857Y-148818628D02*
X131940476Y-148866247D01*
X131940476Y-148866247D02*
X132035714Y-148913866D01*
X132035714Y-148913866D02*
X132226190Y-148913866D01*
X132226190Y-148913866D02*
X132321428Y-148866247D01*
X132321428Y-148866247D02*
X132369047Y-148818628D01*
X132369047Y-148818628D02*
X132416666Y-148723390D01*
X141804819Y-107322857D02*
X141328628Y-107656190D01*
X141804819Y-107894285D02*
X140804819Y-107894285D01*
X140804819Y-107894285D02*
X140804819Y-107513333D01*
X140804819Y-107513333D02*
X140852438Y-107418095D01*
X140852438Y-107418095D02*
X140900057Y-107370476D01*
X140900057Y-107370476D02*
X140995295Y-107322857D01*
X140995295Y-107322857D02*
X141138152Y-107322857D01*
X141138152Y-107322857D02*
X141233390Y-107370476D01*
X141233390Y-107370476D02*
X141281009Y-107418095D01*
X141281009Y-107418095D02*
X141328628Y-107513333D01*
X141328628Y-107513333D02*
X141328628Y-107894285D01*
X141804819Y-106370476D02*
X141804819Y-106941904D01*
X141804819Y-106656190D02*
X140804819Y-106656190D01*
X140804819Y-106656190D02*
X140947676Y-106751428D01*
X140947676Y-106751428D02*
X141042914Y-106846666D01*
X141042914Y-106846666D02*
X141090533Y-106941904D01*
X140804819Y-105513333D02*
X140804819Y-105703809D01*
X140804819Y-105703809D02*
X140852438Y-105799047D01*
X140852438Y-105799047D02*
X140900057Y-105846666D01*
X140900057Y-105846666D02*
X141042914Y-105941904D01*
X141042914Y-105941904D02*
X141233390Y-105989523D01*
X141233390Y-105989523D02*
X141614342Y-105989523D01*
X141614342Y-105989523D02*
X141709580Y-105941904D01*
X141709580Y-105941904D02*
X141757200Y-105894285D01*
X141757200Y-105894285D02*
X141804819Y-105799047D01*
X141804819Y-105799047D02*
X141804819Y-105608571D01*
X141804819Y-105608571D02*
X141757200Y-105513333D01*
X141757200Y-105513333D02*
X141709580Y-105465714D01*
X141709580Y-105465714D02*
X141614342Y-105418095D01*
X141614342Y-105418095D02*
X141376247Y-105418095D01*
X141376247Y-105418095D02*
X141281009Y-105465714D01*
X141281009Y-105465714D02*
X141233390Y-105513333D01*
X141233390Y-105513333D02*
X141185771Y-105608571D01*
X141185771Y-105608571D02*
X141185771Y-105799047D01*
X141185771Y-105799047D02*
X141233390Y-105894285D01*
X141233390Y-105894285D02*
X141281009Y-105941904D01*
X141281009Y-105941904D02*
X141376247Y-105989523D01*
X151694819Y-107322857D02*
X151218628Y-107656190D01*
X151694819Y-107894285D02*
X150694819Y-107894285D01*
X150694819Y-107894285D02*
X150694819Y-107513333D01*
X150694819Y-107513333D02*
X150742438Y-107418095D01*
X150742438Y-107418095D02*
X150790057Y-107370476D01*
X150790057Y-107370476D02*
X150885295Y-107322857D01*
X150885295Y-107322857D02*
X151028152Y-107322857D01*
X151028152Y-107322857D02*
X151123390Y-107370476D01*
X151123390Y-107370476D02*
X151171009Y-107418095D01*
X151171009Y-107418095D02*
X151218628Y-107513333D01*
X151218628Y-107513333D02*
X151218628Y-107894285D01*
X151694819Y-106370476D02*
X151694819Y-106941904D01*
X151694819Y-106656190D02*
X150694819Y-106656190D01*
X150694819Y-106656190D02*
X150837676Y-106751428D01*
X150837676Y-106751428D02*
X150932914Y-106846666D01*
X150932914Y-106846666D02*
X150980533Y-106941904D01*
X151694819Y-105418095D02*
X151694819Y-105989523D01*
X151694819Y-105703809D02*
X150694819Y-105703809D01*
X150694819Y-105703809D02*
X150837676Y-105799047D01*
X150837676Y-105799047D02*
X150932914Y-105894285D01*
X150932914Y-105894285D02*
X150980533Y-105989523D01*
X162124819Y-106846666D02*
X161648628Y-107179999D01*
X162124819Y-107418094D02*
X161124819Y-107418094D01*
X161124819Y-107418094D02*
X161124819Y-107037142D01*
X161124819Y-107037142D02*
X161172438Y-106941904D01*
X161172438Y-106941904D02*
X161220057Y-106894285D01*
X161220057Y-106894285D02*
X161315295Y-106846666D01*
X161315295Y-106846666D02*
X161458152Y-106846666D01*
X161458152Y-106846666D02*
X161553390Y-106894285D01*
X161553390Y-106894285D02*
X161601009Y-106941904D01*
X161601009Y-106941904D02*
X161648628Y-107037142D01*
X161648628Y-107037142D02*
X161648628Y-107418094D01*
X161124819Y-105989523D02*
X161124819Y-106179999D01*
X161124819Y-106179999D02*
X161172438Y-106275237D01*
X161172438Y-106275237D02*
X161220057Y-106322856D01*
X161220057Y-106322856D02*
X161362914Y-106418094D01*
X161362914Y-106418094D02*
X161553390Y-106465713D01*
X161553390Y-106465713D02*
X161934342Y-106465713D01*
X161934342Y-106465713D02*
X162029580Y-106418094D01*
X162029580Y-106418094D02*
X162077200Y-106370475D01*
X162077200Y-106370475D02*
X162124819Y-106275237D01*
X162124819Y-106275237D02*
X162124819Y-106084761D01*
X162124819Y-106084761D02*
X162077200Y-105989523D01*
X162077200Y-105989523D02*
X162029580Y-105941904D01*
X162029580Y-105941904D02*
X161934342Y-105894285D01*
X161934342Y-105894285D02*
X161696247Y-105894285D01*
X161696247Y-105894285D02*
X161601009Y-105941904D01*
X161601009Y-105941904D02*
X161553390Y-105989523D01*
X161553390Y-105989523D02*
X161505771Y-106084761D01*
X161505771Y-106084761D02*
X161505771Y-106275237D01*
X161505771Y-106275237D02*
X161553390Y-106370475D01*
X161553390Y-106370475D02*
X161601009Y-106418094D01*
X161601009Y-106418094D02*
X161696247Y-106465713D01*
X142628580Y-121070666D02*
X142676200Y-121118285D01*
X142676200Y-121118285D02*
X142723819Y-121261142D01*
X142723819Y-121261142D02*
X142723819Y-121356380D01*
X142723819Y-121356380D02*
X142676200Y-121499237D01*
X142676200Y-121499237D02*
X142580961Y-121594475D01*
X142580961Y-121594475D02*
X142485723Y-121642094D01*
X142485723Y-121642094D02*
X142295247Y-121689713D01*
X142295247Y-121689713D02*
X142152390Y-121689713D01*
X142152390Y-121689713D02*
X141961914Y-121642094D01*
X141961914Y-121642094D02*
X141866676Y-121594475D01*
X141866676Y-121594475D02*
X141771438Y-121499237D01*
X141771438Y-121499237D02*
X141723819Y-121356380D01*
X141723819Y-121356380D02*
X141723819Y-121261142D01*
X141723819Y-121261142D02*
X141771438Y-121118285D01*
X141771438Y-121118285D02*
X141819057Y-121070666D01*
X142057152Y-120213523D02*
X142723819Y-120213523D01*
X141676200Y-120451618D02*
X142390485Y-120689713D01*
X142390485Y-120689713D02*
X142390485Y-120070666D01*
X146304095Y-111743819D02*
X146304095Y-112553342D01*
X146304095Y-112553342D02*
X146351714Y-112648580D01*
X146351714Y-112648580D02*
X146399333Y-112696200D01*
X146399333Y-112696200D02*
X146494571Y-112743819D01*
X146494571Y-112743819D02*
X146685047Y-112743819D01*
X146685047Y-112743819D02*
X146780285Y-112696200D01*
X146780285Y-112696200D02*
X146827904Y-112648580D01*
X146827904Y-112648580D02*
X146875523Y-112553342D01*
X146875523Y-112553342D02*
X146875523Y-111743819D01*
X147304095Y-111839057D02*
X147351714Y-111791438D01*
X147351714Y-111791438D02*
X147446952Y-111743819D01*
X147446952Y-111743819D02*
X147685047Y-111743819D01*
X147685047Y-111743819D02*
X147780285Y-111791438D01*
X147780285Y-111791438D02*
X147827904Y-111839057D01*
X147827904Y-111839057D02*
X147875523Y-111934295D01*
X147875523Y-111934295D02*
X147875523Y-112029533D01*
X147875523Y-112029533D02*
X147827904Y-112172390D01*
X147827904Y-112172390D02*
X147256476Y-112743819D01*
X147256476Y-112743819D02*
X147875523Y-112743819D01*
X165869580Y-124626666D02*
X165917200Y-124674285D01*
X165917200Y-124674285D02*
X165964819Y-124817142D01*
X165964819Y-124817142D02*
X165964819Y-124912380D01*
X165964819Y-124912380D02*
X165917200Y-125055237D01*
X165917200Y-125055237D02*
X165821961Y-125150475D01*
X165821961Y-125150475D02*
X165726723Y-125198094D01*
X165726723Y-125198094D02*
X165536247Y-125245713D01*
X165536247Y-125245713D02*
X165393390Y-125245713D01*
X165393390Y-125245713D02*
X165202914Y-125198094D01*
X165202914Y-125198094D02*
X165107676Y-125150475D01*
X165107676Y-125150475D02*
X165012438Y-125055237D01*
X165012438Y-125055237D02*
X164964819Y-124912380D01*
X164964819Y-124912380D02*
X164964819Y-124817142D01*
X164964819Y-124817142D02*
X165012438Y-124674285D01*
X165012438Y-124674285D02*
X165060057Y-124626666D01*
X165060057Y-124245713D02*
X165012438Y-124198094D01*
X165012438Y-124198094D02*
X164964819Y-124102856D01*
X164964819Y-124102856D02*
X164964819Y-123864761D01*
X164964819Y-123864761D02*
X165012438Y-123769523D01*
X165012438Y-123769523D02*
X165060057Y-123721904D01*
X165060057Y-123721904D02*
X165155295Y-123674285D01*
X165155295Y-123674285D02*
X165250533Y-123674285D01*
X165250533Y-123674285D02*
X165393390Y-123721904D01*
X165393390Y-123721904D02*
X165964819Y-124293332D01*
X165964819Y-124293332D02*
X165964819Y-123674285D01*
X180006666Y-106134819D02*
X180006666Y-106849104D01*
X180006666Y-106849104D02*
X179959047Y-106991961D01*
X179959047Y-106991961D02*
X179863809Y-107087200D01*
X179863809Y-107087200D02*
X179720952Y-107134819D01*
X179720952Y-107134819D02*
X179625714Y-107134819D01*
X180435238Y-106230057D02*
X180482857Y-106182438D01*
X180482857Y-106182438D02*
X180578095Y-106134819D01*
X180578095Y-106134819D02*
X180816190Y-106134819D01*
X180816190Y-106134819D02*
X180911428Y-106182438D01*
X180911428Y-106182438D02*
X180959047Y-106230057D01*
X180959047Y-106230057D02*
X181006666Y-106325295D01*
X181006666Y-106325295D02*
X181006666Y-106420533D01*
X181006666Y-106420533D02*
X180959047Y-106563390D01*
X180959047Y-106563390D02*
X180387619Y-107134819D01*
X180387619Y-107134819D02*
X181006666Y-107134819D01*
X141804819Y-111132857D02*
X141328628Y-111466190D01*
X141804819Y-111704285D02*
X140804819Y-111704285D01*
X140804819Y-111704285D02*
X140804819Y-111323333D01*
X140804819Y-111323333D02*
X140852438Y-111228095D01*
X140852438Y-111228095D02*
X140900057Y-111180476D01*
X140900057Y-111180476D02*
X140995295Y-111132857D01*
X140995295Y-111132857D02*
X141138152Y-111132857D01*
X141138152Y-111132857D02*
X141233390Y-111180476D01*
X141233390Y-111180476D02*
X141281009Y-111228095D01*
X141281009Y-111228095D02*
X141328628Y-111323333D01*
X141328628Y-111323333D02*
X141328628Y-111704285D01*
X141804819Y-110180476D02*
X141804819Y-110751904D01*
X141804819Y-110466190D02*
X140804819Y-110466190D01*
X140804819Y-110466190D02*
X140947676Y-110561428D01*
X140947676Y-110561428D02*
X141042914Y-110656666D01*
X141042914Y-110656666D02*
X141090533Y-110751904D01*
X140804819Y-109847142D02*
X140804819Y-109180476D01*
X140804819Y-109180476D02*
X141804819Y-109609047D01*
X135839580Y-122086666D02*
X135887200Y-122134285D01*
X135887200Y-122134285D02*
X135934819Y-122277142D01*
X135934819Y-122277142D02*
X135934819Y-122372380D01*
X135934819Y-122372380D02*
X135887200Y-122515237D01*
X135887200Y-122515237D02*
X135791961Y-122610475D01*
X135791961Y-122610475D02*
X135696723Y-122658094D01*
X135696723Y-122658094D02*
X135506247Y-122705713D01*
X135506247Y-122705713D02*
X135363390Y-122705713D01*
X135363390Y-122705713D02*
X135172914Y-122658094D01*
X135172914Y-122658094D02*
X135077676Y-122610475D01*
X135077676Y-122610475D02*
X134982438Y-122515237D01*
X134982438Y-122515237D02*
X134934819Y-122372380D01*
X134934819Y-122372380D02*
X134934819Y-122277142D01*
X134934819Y-122277142D02*
X134982438Y-122134285D01*
X134982438Y-122134285D02*
X135030057Y-122086666D01*
X134934819Y-121181904D02*
X134934819Y-121658094D01*
X134934819Y-121658094D02*
X135411009Y-121705713D01*
X135411009Y-121705713D02*
X135363390Y-121658094D01*
X135363390Y-121658094D02*
X135315771Y-121562856D01*
X135315771Y-121562856D02*
X135315771Y-121324761D01*
X135315771Y-121324761D02*
X135363390Y-121229523D01*
X135363390Y-121229523D02*
X135411009Y-121181904D01*
X135411009Y-121181904D02*
X135506247Y-121134285D01*
X135506247Y-121134285D02*
X135744342Y-121134285D01*
X135744342Y-121134285D02*
X135839580Y-121181904D01*
X135839580Y-121181904D02*
X135887200Y-121229523D01*
X135887200Y-121229523D02*
X135934819Y-121324761D01*
X135934819Y-121324761D02*
X135934819Y-121562856D01*
X135934819Y-121562856D02*
X135887200Y-121658094D01*
X135887200Y-121658094D02*
X135839580Y-121705713D01*
X163957095Y-113521819D02*
X163957095Y-114331342D01*
X163957095Y-114331342D02*
X164004714Y-114426580D01*
X164004714Y-114426580D02*
X164052333Y-114474200D01*
X164052333Y-114474200D02*
X164147571Y-114521819D01*
X164147571Y-114521819D02*
X164338047Y-114521819D01*
X164338047Y-114521819D02*
X164433285Y-114474200D01*
X164433285Y-114474200D02*
X164480904Y-114426580D01*
X164480904Y-114426580D02*
X164528523Y-114331342D01*
X164528523Y-114331342D02*
X164528523Y-113521819D01*
X165528523Y-114521819D02*
X164957095Y-114521819D01*
X165242809Y-114521819D02*
X165242809Y-113521819D01*
X165242809Y-113521819D02*
X165147571Y-113664676D01*
X165147571Y-113664676D02*
X165052333Y-113759914D01*
X165052333Y-113759914D02*
X164957095Y-113807533D01*
X151694819Y-111132857D02*
X151218628Y-111466190D01*
X151694819Y-111704285D02*
X150694819Y-111704285D01*
X150694819Y-111704285D02*
X150694819Y-111323333D01*
X150694819Y-111323333D02*
X150742438Y-111228095D01*
X150742438Y-111228095D02*
X150790057Y-111180476D01*
X150790057Y-111180476D02*
X150885295Y-111132857D01*
X150885295Y-111132857D02*
X151028152Y-111132857D01*
X151028152Y-111132857D02*
X151123390Y-111180476D01*
X151123390Y-111180476D02*
X151171009Y-111228095D01*
X151171009Y-111228095D02*
X151218628Y-111323333D01*
X151218628Y-111323333D02*
X151218628Y-111704285D01*
X151694819Y-110180476D02*
X151694819Y-110751904D01*
X151694819Y-110466190D02*
X150694819Y-110466190D01*
X150694819Y-110466190D02*
X150837676Y-110561428D01*
X150837676Y-110561428D02*
X150932914Y-110656666D01*
X150932914Y-110656666D02*
X150980533Y-110751904D01*
X150790057Y-109799523D02*
X150742438Y-109751904D01*
X150742438Y-109751904D02*
X150694819Y-109656666D01*
X150694819Y-109656666D02*
X150694819Y-109418571D01*
X150694819Y-109418571D02*
X150742438Y-109323333D01*
X150742438Y-109323333D02*
X150790057Y-109275714D01*
X150790057Y-109275714D02*
X150885295Y-109228095D01*
X150885295Y-109228095D02*
X150980533Y-109228095D01*
X150980533Y-109228095D02*
X151123390Y-109275714D01*
X151123390Y-109275714D02*
X151694819Y-109847142D01*
X151694819Y-109847142D02*
X151694819Y-109228095D01*
X129502818Y-105989334D02*
X130217103Y-105989334D01*
X130217103Y-105989334D02*
X130359960Y-106036953D01*
X130359960Y-106036953D02*
X130455199Y-106132191D01*
X130455199Y-106132191D02*
X130502818Y-106275048D01*
X130502818Y-106275048D02*
X130502818Y-106370286D01*
X130502818Y-105513143D02*
X129502818Y-105513143D01*
X129502818Y-105513143D02*
X129502818Y-105132191D01*
X129502818Y-105132191D02*
X129550437Y-105036953D01*
X129550437Y-105036953D02*
X129598056Y-104989334D01*
X129598056Y-104989334D02*
X129693294Y-104941715D01*
X129693294Y-104941715D02*
X129836151Y-104941715D01*
X129836151Y-104941715D02*
X129931389Y-104989334D01*
X129931389Y-104989334D02*
X129979008Y-105036953D01*
X129979008Y-105036953D02*
X130026627Y-105132191D01*
X130026627Y-105132191D02*
X130026627Y-105513143D01*
X129502818Y-104608381D02*
X129502818Y-103989334D01*
X129502818Y-103989334D02*
X129883770Y-104322667D01*
X129883770Y-104322667D02*
X129883770Y-104179810D01*
X129883770Y-104179810D02*
X129931389Y-104084572D01*
X129931389Y-104084572D02*
X129979008Y-104036953D01*
X129979008Y-104036953D02*
X130074246Y-103989334D01*
X130074246Y-103989334D02*
X130312341Y-103989334D01*
X130312341Y-103989334D02*
X130407579Y-104036953D01*
X130407579Y-104036953D02*
X130455199Y-104084572D01*
X130455199Y-104084572D02*
X130502818Y-104179810D01*
X130502818Y-104179810D02*
X130502818Y-104465524D01*
X130502818Y-104465524D02*
X130455199Y-104560762D01*
X130455199Y-104560762D02*
X130407579Y-104608381D01*
X156130666Y-109624819D02*
X156130666Y-110339104D01*
X156130666Y-110339104D02*
X156083047Y-110481961D01*
X156083047Y-110481961D02*
X155987809Y-110577200D01*
X155987809Y-110577200D02*
X155844952Y-110624819D01*
X155844952Y-110624819D02*
X155749714Y-110624819D01*
X157035428Y-109958152D02*
X157035428Y-110624819D01*
X156797333Y-109577200D02*
X156559238Y-110291485D01*
X156559238Y-110291485D02*
X157178285Y-110291485D01*
X141739580Y-127166666D02*
X141787200Y-127214285D01*
X141787200Y-127214285D02*
X141834819Y-127357142D01*
X141834819Y-127357142D02*
X141834819Y-127452380D01*
X141834819Y-127452380D02*
X141787200Y-127595237D01*
X141787200Y-127595237D02*
X141691961Y-127690475D01*
X141691961Y-127690475D02*
X141596723Y-127738094D01*
X141596723Y-127738094D02*
X141406247Y-127785713D01*
X141406247Y-127785713D02*
X141263390Y-127785713D01*
X141263390Y-127785713D02*
X141072914Y-127738094D01*
X141072914Y-127738094D02*
X140977676Y-127690475D01*
X140977676Y-127690475D02*
X140882438Y-127595237D01*
X140882438Y-127595237D02*
X140834819Y-127452380D01*
X140834819Y-127452380D02*
X140834819Y-127357142D01*
X140834819Y-127357142D02*
X140882438Y-127214285D01*
X140882438Y-127214285D02*
X140930057Y-127166666D01*
X140834819Y-126309523D02*
X140834819Y-126499999D01*
X140834819Y-126499999D02*
X140882438Y-126595237D01*
X140882438Y-126595237D02*
X140930057Y-126642856D01*
X140930057Y-126642856D02*
X141072914Y-126738094D01*
X141072914Y-126738094D02*
X141263390Y-126785713D01*
X141263390Y-126785713D02*
X141644342Y-126785713D01*
X141644342Y-126785713D02*
X141739580Y-126738094D01*
X141739580Y-126738094D02*
X141787200Y-126690475D01*
X141787200Y-126690475D02*
X141834819Y-126595237D01*
X141834819Y-126595237D02*
X141834819Y-126404761D01*
X141834819Y-126404761D02*
X141787200Y-126309523D01*
X141787200Y-126309523D02*
X141739580Y-126261904D01*
X141739580Y-126261904D02*
X141644342Y-126214285D01*
X141644342Y-126214285D02*
X141406247Y-126214285D01*
X141406247Y-126214285D02*
X141311009Y-126261904D01*
X141311009Y-126261904D02*
X141263390Y-126309523D01*
X141263390Y-126309523D02*
X141215771Y-126404761D01*
X141215771Y-126404761D02*
X141215771Y-126595237D01*
X141215771Y-126595237D02*
X141263390Y-126690475D01*
X141263390Y-126690475D02*
X141311009Y-126738094D01*
X141311009Y-126738094D02*
X141406247Y-126785713D01*
X108734819Y-147538094D02*
X107734819Y-147538094D01*
X107734819Y-147538094D02*
X107734819Y-147299999D01*
X107734819Y-147299999D02*
X107782438Y-147157142D01*
X107782438Y-147157142D02*
X107877676Y-147061904D01*
X107877676Y-147061904D02*
X107972914Y-147014285D01*
X107972914Y-147014285D02*
X108163390Y-146966666D01*
X108163390Y-146966666D02*
X108306247Y-146966666D01*
X108306247Y-146966666D02*
X108496723Y-147014285D01*
X108496723Y-147014285D02*
X108591961Y-147061904D01*
X108591961Y-147061904D02*
X108687200Y-147157142D01*
X108687200Y-147157142D02*
X108734819Y-147299999D01*
X108734819Y-147299999D02*
X108734819Y-147538094D01*
X107734819Y-146061904D02*
X107734819Y-146538094D01*
X107734819Y-146538094D02*
X108211009Y-146585713D01*
X108211009Y-146585713D02*
X108163390Y-146538094D01*
X108163390Y-146538094D02*
X108115771Y-146442856D01*
X108115771Y-146442856D02*
X108115771Y-146204761D01*
X108115771Y-146204761D02*
X108163390Y-146109523D01*
X108163390Y-146109523D02*
X108211009Y-146061904D01*
X108211009Y-146061904D02*
X108306247Y-146014285D01*
X108306247Y-146014285D02*
X108544342Y-146014285D01*
X108544342Y-146014285D02*
X108639580Y-146061904D01*
X108639580Y-146061904D02*
X108687200Y-146109523D01*
X108687200Y-146109523D02*
X108734819Y-146204761D01*
X108734819Y-146204761D02*
X108734819Y-146442856D01*
X108734819Y-146442856D02*
X108687200Y-146538094D01*
X108687200Y-146538094D02*
X108639580Y-146585713D01*
X144092819Y-119546666D02*
X143616628Y-119879999D01*
X144092819Y-120118094D02*
X143092819Y-120118094D01*
X143092819Y-120118094D02*
X143092819Y-119737142D01*
X143092819Y-119737142D02*
X143140438Y-119641904D01*
X143140438Y-119641904D02*
X143188057Y-119594285D01*
X143188057Y-119594285D02*
X143283295Y-119546666D01*
X143283295Y-119546666D02*
X143426152Y-119546666D01*
X143426152Y-119546666D02*
X143521390Y-119594285D01*
X143521390Y-119594285D02*
X143569009Y-119641904D01*
X143569009Y-119641904D02*
X143616628Y-119737142D01*
X143616628Y-119737142D02*
X143616628Y-120118094D01*
X144092819Y-119070475D02*
X144092819Y-118879999D01*
X144092819Y-118879999D02*
X144045200Y-118784761D01*
X144045200Y-118784761D02*
X143997580Y-118737142D01*
X143997580Y-118737142D02*
X143854723Y-118641904D01*
X143854723Y-118641904D02*
X143664247Y-118594285D01*
X143664247Y-118594285D02*
X143283295Y-118594285D01*
X143283295Y-118594285D02*
X143188057Y-118641904D01*
X143188057Y-118641904D02*
X143140438Y-118689523D01*
X143140438Y-118689523D02*
X143092819Y-118784761D01*
X143092819Y-118784761D02*
X143092819Y-118975237D01*
X143092819Y-118975237D02*
X143140438Y-119070475D01*
X143140438Y-119070475D02*
X143188057Y-119118094D01*
X143188057Y-119118094D02*
X143283295Y-119165713D01*
X143283295Y-119165713D02*
X143521390Y-119165713D01*
X143521390Y-119165713D02*
X143616628Y-119118094D01*
X143616628Y-119118094D02*
X143664247Y-119070475D01*
X143664247Y-119070475D02*
X143711866Y-118975237D01*
X143711866Y-118975237D02*
X143711866Y-118784761D01*
X143711866Y-118784761D02*
X143664247Y-118689523D01*
X143664247Y-118689523D02*
X143616628Y-118641904D01*
X143616628Y-118641904D02*
X143521390Y-118594285D01*
X177466666Y-112440819D02*
X177466666Y-113155104D01*
X177466666Y-113155104D02*
X177419047Y-113297961D01*
X177419047Y-113297961D02*
X177323809Y-113393200D01*
X177323809Y-113393200D02*
X177180952Y-113440819D01*
X177180952Y-113440819D02*
X177085714Y-113440819D01*
X178371428Y-112440819D02*
X178180952Y-112440819D01*
X178180952Y-112440819D02*
X178085714Y-112488438D01*
X178085714Y-112488438D02*
X178038095Y-112536057D01*
X178038095Y-112536057D02*
X177942857Y-112678914D01*
X177942857Y-112678914D02*
X177895238Y-112869390D01*
X177895238Y-112869390D02*
X177895238Y-113250342D01*
X177895238Y-113250342D02*
X177942857Y-113345580D01*
X177942857Y-113345580D02*
X177990476Y-113393200D01*
X177990476Y-113393200D02*
X178085714Y-113440819D01*
X178085714Y-113440819D02*
X178276190Y-113440819D01*
X178276190Y-113440819D02*
X178371428Y-113393200D01*
X178371428Y-113393200D02*
X178419047Y-113345580D01*
X178419047Y-113345580D02*
X178466666Y-113250342D01*
X178466666Y-113250342D02*
X178466666Y-113012247D01*
X178466666Y-113012247D02*
X178419047Y-112917009D01*
X178419047Y-112917009D02*
X178371428Y-112869390D01*
X178371428Y-112869390D02*
X178276190Y-112821771D01*
X178276190Y-112821771D02*
X178085714Y-112821771D01*
X178085714Y-112821771D02*
X177990476Y-112869390D01*
X177990476Y-112869390D02*
X177942857Y-112917009D01*
X177942857Y-112917009D02*
X177895238Y-113012247D01*
X170361905Y-110944819D02*
X170361905Y-109944819D01*
X170361905Y-109944819D02*
X170600000Y-109944819D01*
X170600000Y-109944819D02*
X170742857Y-109992438D01*
X170742857Y-109992438D02*
X170838095Y-110087676D01*
X170838095Y-110087676D02*
X170885714Y-110182914D01*
X170885714Y-110182914D02*
X170933333Y-110373390D01*
X170933333Y-110373390D02*
X170933333Y-110516247D01*
X170933333Y-110516247D02*
X170885714Y-110706723D01*
X170885714Y-110706723D02*
X170838095Y-110801961D01*
X170838095Y-110801961D02*
X170742857Y-110897200D01*
X170742857Y-110897200D02*
X170600000Y-110944819D01*
X170600000Y-110944819D02*
X170361905Y-110944819D01*
X171885714Y-110944819D02*
X171314286Y-110944819D01*
X171600000Y-110944819D02*
X171600000Y-109944819D01*
X171600000Y-109944819D02*
X171504762Y-110087676D01*
X171504762Y-110087676D02*
X171409524Y-110182914D01*
X171409524Y-110182914D02*
X171314286Y-110230533D01*
X175904819Y-118276666D02*
X175428628Y-118609999D01*
X175904819Y-118848094D02*
X174904819Y-118848094D01*
X174904819Y-118848094D02*
X174904819Y-118467142D01*
X174904819Y-118467142D02*
X174952438Y-118371904D01*
X174952438Y-118371904D02*
X175000057Y-118324285D01*
X175000057Y-118324285D02*
X175095295Y-118276666D01*
X175095295Y-118276666D02*
X175238152Y-118276666D01*
X175238152Y-118276666D02*
X175333390Y-118324285D01*
X175333390Y-118324285D02*
X175381009Y-118371904D01*
X175381009Y-118371904D02*
X175428628Y-118467142D01*
X175428628Y-118467142D02*
X175428628Y-118848094D01*
X175904819Y-117324285D02*
X175904819Y-117895713D01*
X175904819Y-117609999D02*
X174904819Y-117609999D01*
X174904819Y-117609999D02*
X175047676Y-117705237D01*
X175047676Y-117705237D02*
X175142914Y-117800475D01*
X175142914Y-117800475D02*
X175190533Y-117895713D01*
X184874819Y-124793333D02*
X185589104Y-124793333D01*
X185589104Y-124793333D02*
X185731961Y-124840952D01*
X185731961Y-124840952D02*
X185827200Y-124936190D01*
X185827200Y-124936190D02*
X185874819Y-125079047D01*
X185874819Y-125079047D02*
X185874819Y-125174285D01*
X185874819Y-123793333D02*
X185874819Y-124364761D01*
X185874819Y-124079047D02*
X184874819Y-124079047D01*
X184874819Y-124079047D02*
X185017676Y-124174285D01*
X185017676Y-124174285D02*
X185112914Y-124269523D01*
X185112914Y-124269523D02*
X185160533Y-124364761D01*
X121931009Y-130785714D02*
X121978628Y-130642857D01*
X121978628Y-130642857D02*
X122026247Y-130595238D01*
X122026247Y-130595238D02*
X122121485Y-130547619D01*
X122121485Y-130547619D02*
X122264342Y-130547619D01*
X122264342Y-130547619D02*
X122359580Y-130595238D01*
X122359580Y-130595238D02*
X122407200Y-130642857D01*
X122407200Y-130642857D02*
X122454819Y-130738095D01*
X122454819Y-130738095D02*
X122454819Y-131119047D01*
X122454819Y-131119047D02*
X121454819Y-131119047D01*
X121454819Y-131119047D02*
X121454819Y-130785714D01*
X121454819Y-130785714D02*
X121502438Y-130690476D01*
X121502438Y-130690476D02*
X121550057Y-130642857D01*
X121550057Y-130642857D02*
X121645295Y-130595238D01*
X121645295Y-130595238D02*
X121740533Y-130595238D01*
X121740533Y-130595238D02*
X121835771Y-130642857D01*
X121835771Y-130642857D02*
X121883390Y-130690476D01*
X121883390Y-130690476D02*
X121931009Y-130785714D01*
X121931009Y-130785714D02*
X121931009Y-131119047D01*
X121454819Y-130261904D02*
X121454819Y-129690476D01*
X122454819Y-129976190D02*
X121454819Y-129976190D01*
X122454819Y-128833333D02*
X122454819Y-129404761D01*
X122454819Y-129119047D02*
X121454819Y-129119047D01*
X121454819Y-129119047D02*
X121597676Y-129214285D01*
X121597676Y-129214285D02*
X121692914Y-129309523D01*
X121692914Y-129309523D02*
X121740533Y-129404761D01*
X169682819Y-118276666D02*
X169206628Y-118609999D01*
X169682819Y-118848094D02*
X168682819Y-118848094D01*
X168682819Y-118848094D02*
X168682819Y-118467142D01*
X168682819Y-118467142D02*
X168730438Y-118371904D01*
X168730438Y-118371904D02*
X168778057Y-118324285D01*
X168778057Y-118324285D02*
X168873295Y-118276666D01*
X168873295Y-118276666D02*
X169016152Y-118276666D01*
X169016152Y-118276666D02*
X169111390Y-118324285D01*
X169111390Y-118324285D02*
X169159009Y-118371904D01*
X169159009Y-118371904D02*
X169206628Y-118467142D01*
X169206628Y-118467142D02*
X169206628Y-118848094D01*
X168778057Y-117895713D02*
X168730438Y-117848094D01*
X168730438Y-117848094D02*
X168682819Y-117752856D01*
X168682819Y-117752856D02*
X168682819Y-117514761D01*
X168682819Y-117514761D02*
X168730438Y-117419523D01*
X168730438Y-117419523D02*
X168778057Y-117371904D01*
X168778057Y-117371904D02*
X168873295Y-117324285D01*
X168873295Y-117324285D02*
X168968533Y-117324285D01*
X168968533Y-117324285D02*
X169111390Y-117371904D01*
X169111390Y-117371904D02*
X169682819Y-117943332D01*
X169682819Y-117943332D02*
X169682819Y-117324285D01*
X160304819Y-142666666D02*
X159828628Y-142999999D01*
X160304819Y-143238094D02*
X159304819Y-143238094D01*
X159304819Y-143238094D02*
X159304819Y-142857142D01*
X159304819Y-142857142D02*
X159352438Y-142761904D01*
X159352438Y-142761904D02*
X159400057Y-142714285D01*
X159400057Y-142714285D02*
X159495295Y-142666666D01*
X159495295Y-142666666D02*
X159638152Y-142666666D01*
X159638152Y-142666666D02*
X159733390Y-142714285D01*
X159733390Y-142714285D02*
X159781009Y-142761904D01*
X159781009Y-142761904D02*
X159828628Y-142857142D01*
X159828628Y-142857142D02*
X159828628Y-143238094D01*
X159304819Y-142333332D02*
X159304819Y-141714285D01*
X159304819Y-141714285D02*
X159685771Y-142047618D01*
X159685771Y-142047618D02*
X159685771Y-141904761D01*
X159685771Y-141904761D02*
X159733390Y-141809523D01*
X159733390Y-141809523D02*
X159781009Y-141761904D01*
X159781009Y-141761904D02*
X159876247Y-141714285D01*
X159876247Y-141714285D02*
X160114342Y-141714285D01*
X160114342Y-141714285D02*
X160209580Y-141761904D01*
X160209580Y-141761904D02*
X160257200Y-141809523D01*
X160257200Y-141809523D02*
X160304819Y-141904761D01*
X160304819Y-141904761D02*
X160304819Y-142190475D01*
X160304819Y-142190475D02*
X160257200Y-142285713D01*
X160257200Y-142285713D02*
X160209580Y-142333332D01*
X140274580Y-115736666D02*
X140322200Y-115784285D01*
X140322200Y-115784285D02*
X140369819Y-115927142D01*
X140369819Y-115927142D02*
X140369819Y-116022380D01*
X140369819Y-116022380D02*
X140322200Y-116165237D01*
X140322200Y-116165237D02*
X140226961Y-116260475D01*
X140226961Y-116260475D02*
X140131723Y-116308094D01*
X140131723Y-116308094D02*
X139941247Y-116355713D01*
X139941247Y-116355713D02*
X139798390Y-116355713D01*
X139798390Y-116355713D02*
X139607914Y-116308094D01*
X139607914Y-116308094D02*
X139512676Y-116260475D01*
X139512676Y-116260475D02*
X139417438Y-116165237D01*
X139417438Y-116165237D02*
X139369819Y-116022380D01*
X139369819Y-116022380D02*
X139369819Y-115927142D01*
X139369819Y-115927142D02*
X139417438Y-115784285D01*
X139417438Y-115784285D02*
X139465057Y-115736666D01*
X139369819Y-115403332D02*
X139369819Y-114784285D01*
X139369819Y-114784285D02*
X139750771Y-115117618D01*
X139750771Y-115117618D02*
X139750771Y-114974761D01*
X139750771Y-114974761D02*
X139798390Y-114879523D01*
X139798390Y-114879523D02*
X139846009Y-114831904D01*
X139846009Y-114831904D02*
X139941247Y-114784285D01*
X139941247Y-114784285D02*
X140179342Y-114784285D01*
X140179342Y-114784285D02*
X140274580Y-114831904D01*
X140274580Y-114831904D02*
X140322200Y-114879523D01*
X140322200Y-114879523D02*
X140369819Y-114974761D01*
X140369819Y-114974761D02*
X140369819Y-115260475D01*
X140369819Y-115260475D02*
X140322200Y-115355713D01*
X140322200Y-115355713D02*
X140274580Y-115403332D01*
X108804819Y-143142857D02*
X108328628Y-143476190D01*
X108804819Y-143714285D02*
X107804819Y-143714285D01*
X107804819Y-143714285D02*
X107804819Y-143333333D01*
X107804819Y-143333333D02*
X107852438Y-143238095D01*
X107852438Y-143238095D02*
X107900057Y-143190476D01*
X107900057Y-143190476D02*
X107995295Y-143142857D01*
X107995295Y-143142857D02*
X108138152Y-143142857D01*
X108138152Y-143142857D02*
X108233390Y-143190476D01*
X108233390Y-143190476D02*
X108281009Y-143238095D01*
X108281009Y-143238095D02*
X108328628Y-143333333D01*
X108328628Y-143333333D02*
X108328628Y-143714285D01*
X108804819Y-142190476D02*
X108804819Y-142761904D01*
X108804819Y-142476190D02*
X107804819Y-142476190D01*
X107804819Y-142476190D02*
X107947676Y-142571428D01*
X107947676Y-142571428D02*
X108042914Y-142666666D01*
X108042914Y-142666666D02*
X108090533Y-142761904D01*
X107804819Y-141857142D02*
X107804819Y-141238095D01*
X107804819Y-141238095D02*
X108185771Y-141571428D01*
X108185771Y-141571428D02*
X108185771Y-141428571D01*
X108185771Y-141428571D02*
X108233390Y-141333333D01*
X108233390Y-141333333D02*
X108281009Y-141285714D01*
X108281009Y-141285714D02*
X108376247Y-141238095D01*
X108376247Y-141238095D02*
X108614342Y-141238095D01*
X108614342Y-141238095D02*
X108709580Y-141285714D01*
X108709580Y-141285714D02*
X108757200Y-141333333D01*
X108757200Y-141333333D02*
X108804819Y-141428571D01*
X108804819Y-141428571D02*
X108804819Y-141714285D01*
X108804819Y-141714285D02*
X108757200Y-141809523D01*
X108757200Y-141809523D02*
X108709580Y-141857142D01*
X131064095Y-111870819D02*
X131064095Y-112680342D01*
X131064095Y-112680342D02*
X131111714Y-112775580D01*
X131111714Y-112775580D02*
X131159333Y-112823200D01*
X131159333Y-112823200D02*
X131254571Y-112870819D01*
X131254571Y-112870819D02*
X131445047Y-112870819D01*
X131445047Y-112870819D02*
X131540285Y-112823200D01*
X131540285Y-112823200D02*
X131587904Y-112775580D01*
X131587904Y-112775580D02*
X131635523Y-112680342D01*
X131635523Y-112680342D02*
X131635523Y-111870819D01*
X132016476Y-111870819D02*
X132635523Y-111870819D01*
X132635523Y-111870819D02*
X132302190Y-112251771D01*
X132302190Y-112251771D02*
X132445047Y-112251771D01*
X132445047Y-112251771D02*
X132540285Y-112299390D01*
X132540285Y-112299390D02*
X132587904Y-112347009D01*
X132587904Y-112347009D02*
X132635523Y-112442247D01*
X132635523Y-112442247D02*
X132635523Y-112680342D01*
X132635523Y-112680342D02*
X132587904Y-112775580D01*
X132587904Y-112775580D02*
X132540285Y-112823200D01*
X132540285Y-112823200D02*
X132445047Y-112870819D01*
X132445047Y-112870819D02*
X132159333Y-112870819D01*
X132159333Y-112870819D02*
X132064095Y-112823200D01*
X132064095Y-112823200D02*
X132016476Y-112775580D01*
X135837819Y-116212857D02*
X135361628Y-116546190D01*
X135837819Y-116784285D02*
X134837819Y-116784285D01*
X134837819Y-116784285D02*
X134837819Y-116403333D01*
X134837819Y-116403333D02*
X134885438Y-116308095D01*
X134885438Y-116308095D02*
X134933057Y-116260476D01*
X134933057Y-116260476D02*
X135028295Y-116212857D01*
X135028295Y-116212857D02*
X135171152Y-116212857D01*
X135171152Y-116212857D02*
X135266390Y-116260476D01*
X135266390Y-116260476D02*
X135314009Y-116308095D01*
X135314009Y-116308095D02*
X135361628Y-116403333D01*
X135361628Y-116403333D02*
X135361628Y-116784285D01*
X135837819Y-115260476D02*
X135837819Y-115831904D01*
X135837819Y-115546190D02*
X134837819Y-115546190D01*
X134837819Y-115546190D02*
X134980676Y-115641428D01*
X134980676Y-115641428D02*
X135075914Y-115736666D01*
X135075914Y-115736666D02*
X135123533Y-115831904D01*
X135171152Y-114403333D02*
X135837819Y-114403333D01*
X134790200Y-114641428D02*
X135504485Y-114879523D01*
X135504485Y-114879523D02*
X135504485Y-114260476D01*
D13*
X105274934Y-119206051D02*
X105358755Y-119650675D01*
X105668040Y-119778173D01*
X105977326Y-119905671D01*
X106348366Y-119653366D01*
X106452277Y-119583116D01*
X106546207Y-119520392D01*
X106625772Y-119468058D01*
X106686590Y-119428977D01*
X106724277Y-119406013D01*
X106734541Y-119401062D01*
X106753030Y-119413796D01*
X106792540Y-119449002D01*
X106848642Y-119502182D01*
X106916907Y-119568838D01*
X106992906Y-119644474D01*
X107072212Y-119724592D01*
X107150395Y-119804694D01*
X107223027Y-119880284D01*
X107285679Y-119946865D01*
X107333923Y-119999938D01*
X107363330Y-120035007D01*
X107370361Y-120046743D01*
X107360243Y-120068380D01*
X107331879Y-120115782D01*
X107288249Y-120184313D01*
X107232338Y-120269335D01*
X107167126Y-120366213D01*
X107129339Y-120421470D01*
X107060463Y-120522368D01*
X106999260Y-120613419D01*
X106948698Y-120690090D01*
X106911748Y-120747848D01*
X106891378Y-120782163D01*
X106888317Y-120789374D01*
X106895256Y-120809868D01*
X106914171Y-120857633D01*
X106942207Y-120925952D01*
X106976511Y-121008109D01*
X107014229Y-121097390D01*
X107052507Y-121187078D01*
X107088490Y-121270458D01*
X107119326Y-121340814D01*
X107142159Y-121391430D01*
X107154137Y-121415591D01*
X107154844Y-121416542D01*
X107173651Y-121421156D01*
X107223738Y-121431448D01*
X107299913Y-121446407D01*
X107396985Y-121465021D01*
X107509763Y-121486279D01*
X107575562Y-121498538D01*
X107696070Y-121521482D01*
X107804917Y-121543315D01*
X107896596Y-121562842D01*
X107965601Y-121578868D01*
X108006424Y-121590199D01*
X108014631Y-121593794D01*
X108022668Y-121618126D01*
X108029153Y-121673079D01*
X108034090Y-121752228D01*
X108037484Y-121849146D01*
X108039338Y-121957407D01*
X108039658Y-122070585D01*
X108038447Y-122182255D01*
X108035710Y-122285988D01*
X108031451Y-122375361D01*
X108025675Y-122443946D01*
X108018387Y-122485317D01*
X108014015Y-122493930D01*
X107987884Y-122504253D01*
X107932513Y-122519012D01*
X107855227Y-122536472D01*
X107763350Y-122554900D01*
X107731278Y-122560861D01*
X107576644Y-122589186D01*
X107454495Y-122611996D01*
X107360793Y-122630200D01*
X107291504Y-122644703D01*
X107242591Y-122656412D01*
X107210017Y-122666235D01*
X107189748Y-122675076D01*
X107177746Y-122683844D01*
X107176067Y-122685577D01*
X107159304Y-122713491D01*
X107133734Y-122767815D01*
X107101908Y-122841897D01*
X107066380Y-122929085D01*
X107029703Y-123022728D01*
X106994431Y-123116172D01*
X106963116Y-123202767D01*
X106938313Y-123275860D01*
X106922574Y-123328798D01*
X106918452Y-123354931D01*
X106918796Y-123355846D01*
X106932761Y-123377206D01*
X106964442Y-123424204D01*
X107010511Y-123491947D01*
X107067638Y-123575543D01*
X107132493Y-123670102D01*
X107150963Y-123696974D01*
X107216819Y-123794395D01*
X107274770Y-123883283D01*
X107321658Y-123958532D01*
X107354327Y-124015040D01*
X107369620Y-124047701D01*
X107370361Y-124051713D01*
X107357512Y-124072804D01*
X107322008Y-124114584D01*
X107268413Y-124172565D01*
X107201291Y-124242255D01*
X107125207Y-124319165D01*
X107044724Y-124398803D01*
X106964407Y-124476681D01*
X106888819Y-124548306D01*
X106822525Y-124609190D01*
X106770089Y-124654841D01*
X106736075Y-124680770D01*
X106726665Y-124685003D01*
X106704763Y-124675032D01*
X106659920Y-124648140D01*
X106599441Y-124608856D01*
X106552909Y-124577237D01*
X106468595Y-124519218D01*
X106368746Y-124450904D01*
X106268593Y-124382699D01*
X106214747Y-124346195D01*
X106032491Y-124222920D01*
X105879501Y-124305640D01*
X105809802Y-124341879D01*
X105750534Y-124370046D01*
X105710431Y-124386111D01*
X105700223Y-124388346D01*
X105687949Y-124371842D01*
X105663733Y-124325202D01*
X105629383Y-124252729D01*
X105586708Y-124158726D01*
X105537514Y-124047494D01*
X105483610Y-123923335D01*
X105426804Y-123790552D01*
X105368902Y-123653447D01*
X105311713Y-123516322D01*
X105257044Y-123383478D01*
X105206704Y-123259218D01*
X105162500Y-123147845D01*
X105126239Y-123053659D01*
X105099729Y-122980964D01*
X105084778Y-122934061D01*
X105082374Y-122917953D01*
X105101431Y-122897406D01*
X105143156Y-122864053D01*
X105198826Y-122824822D01*
X105203498Y-122821719D01*
X105347384Y-122706543D01*
X105463403Y-122572173D01*
X105550550Y-122422904D01*
X105607819Y-122263033D01*
X105634206Y-122096857D01*
X105628705Y-121928672D01*
X105590310Y-121762775D01*
X105518015Y-121603462D01*
X105496746Y-121568607D01*
X105386116Y-121427857D01*
X105255422Y-121314834D01*
X105109184Y-121230123D01*
X104951928Y-121174314D01*
X104788177Y-121147994D01*
X104622453Y-121151750D01*
X104459282Y-121186170D01*
X104303185Y-121251843D01*
X104158687Y-121349355D01*
X104113989Y-121388933D01*
X104000232Y-121512823D01*
X103917338Y-121643244D01*
X103860476Y-121789435D01*
X103828807Y-121934208D01*
X103820989Y-122096980D01*
X103847058Y-122260560D01*
X103904365Y-122419418D01*
X103990264Y-122568026D01*
X104102106Y-122700855D01*
X104237243Y-122812376D01*
X104255003Y-122824131D01*
X104311270Y-122862628D01*
X104354043Y-122895983D01*
X104374492Y-122917280D01*
X104374789Y-122917953D01*
X104370399Y-122940991D01*
X104352996Y-122993277D01*
X104324388Y-123070510D01*
X104286385Y-123168388D01*
X104240794Y-123282611D01*
X104189423Y-123408878D01*
X104134082Y-123542887D01*
X104076578Y-123680338D01*
X104018721Y-123816928D01*
X103962318Y-123948357D01*
X103909178Y-124070325D01*
X103861110Y-124178529D01*
X103819921Y-124268669D01*
X103787421Y-124336443D01*
X103765417Y-124377550D01*
X103756556Y-124388346D01*
X103729480Y-124379939D01*
X103678817Y-124357392D01*
X103613303Y-124324733D01*
X103577279Y-124305640D01*
X103424288Y-124222920D01*
X103242032Y-124346195D01*
X103148995Y-124409348D01*
X103047135Y-124478847D01*
X102951682Y-124544285D01*
X102903870Y-124577237D01*
X102836625Y-124622393D01*
X102779684Y-124658177D01*
X102740474Y-124680058D01*
X102727739Y-124684683D01*
X102709203Y-124672205D01*
X102668179Y-124637372D01*
X102608645Y-124583798D01*
X102534578Y-124515103D01*
X102449955Y-124434901D01*
X102396435Y-124383406D01*
X102302801Y-124291406D01*
X102221879Y-124209119D01*
X102156943Y-124140065D01*
X102111262Y-124087764D01*
X102088109Y-124055736D01*
X102085888Y-124049236D01*
X102096196Y-124024514D01*
X102124681Y-123974525D01*
X102168183Y-123904332D01*
X102223543Y-123818995D01*
X102287600Y-123723576D01*
X102305817Y-123696974D01*
X102372193Y-123600287D01*
X102431742Y-123513237D01*
X102481136Y-123440715D01*
X102517045Y-123387613D01*
X102536139Y-123358823D01*
X102537984Y-123355846D01*
X102535225Y-123332902D01*
X102520582Y-123282456D01*
X102496607Y-123211161D01*
X102465854Y-123125667D01*
X102430876Y-123032627D01*
X102394227Y-122938694D01*
X102358459Y-122850519D01*
X102326126Y-122774754D01*
X102299782Y-122718051D01*
X102281978Y-122687063D01*
X102280713Y-122685577D01*
X102269826Y-122676721D01*
X102251438Y-122667963D01*
X102221514Y-122658397D01*
X102176017Y-122647116D01*
X102110911Y-122633213D01*
X102022159Y-122615783D01*
X101905727Y-122593918D01*
X101757578Y-122566711D01*
X101725502Y-122560861D01*
X101630434Y-122542494D01*
X101547555Y-122524525D01*
X101484190Y-122508689D01*
X101447662Y-122496720D01*
X101442764Y-122493930D01*
X101434693Y-122469192D01*
X101428133Y-122413910D01*
X101423087Y-122334509D01*
X101419561Y-122237416D01*
X101417559Y-122129058D01*
X101417084Y-122015860D01*
X101418143Y-121904248D01*
X101420738Y-121800649D01*
X101424874Y-121711488D01*
X101430557Y-121643192D01*
X101437789Y-121602186D01*
X101442149Y-121593794D01*
X101466422Y-121585328D01*
X101521694Y-121571555D01*
X101602458Y-121553670D01*
X101703208Y-121532868D01*
X101818437Y-121510343D01*
X101881218Y-121498538D01*
X102000333Y-121476271D01*
X102106555Y-121456099D01*
X102194693Y-121439035D01*
X102259554Y-121426089D01*
X102295946Y-121418275D01*
X102301936Y-121416542D01*
X102312059Y-121397010D01*
X102333458Y-121349963D01*
X102363281Y-121282123D01*
X102398675Y-121200211D01*
X102436788Y-121110948D01*
X102474767Y-121021055D01*
X102509760Y-120937255D01*
X102538914Y-120866267D01*
X102559377Y-120814814D01*
X102568297Y-120789617D01*
X102568463Y-120788516D01*
X102558351Y-120768639D01*
X102530003Y-120722897D01*
X102486397Y-120655837D01*
X102430514Y-120572004D01*
X102365333Y-120475946D01*
X102327441Y-120420770D01*
X102258395Y-120319601D01*
X102197070Y-120227750D01*
X102146457Y-120149864D01*
X102109549Y-120090589D01*
X102089338Y-120054571D01*
X102086419Y-120046497D01*
X102098967Y-120027704D01*
X102133657Y-119987577D01*
X102186057Y-119930613D01*
X102251736Y-119861305D01*
X102326264Y-119784151D01*
X102405207Y-119703645D01*
X102484137Y-119624283D01*
X102558620Y-119550560D01*
X102624226Y-119486972D01*
X102676524Y-119438014D01*
X102711081Y-119408181D01*
X102722642Y-119401062D01*
X102741466Y-119411073D01*
X102786489Y-119439198D01*
X102853333Y-119482574D01*
X102937621Y-119538338D01*
X103034976Y-119603626D01*
X103108413Y-119653366D01*
X103479453Y-119905671D01*
X104098025Y-119650675D01*
X104181845Y-119206051D01*
X104265666Y-118761427D01*
X105191114Y-118761427D01*
X105274934Y-119206051D01*
G36*
X105274934Y-119206051D02*
G01*
X105358755Y-119650675D01*
X105668040Y-119778173D01*
X105977326Y-119905671D01*
X106348366Y-119653366D01*
X106452277Y-119583116D01*
X106546207Y-119520392D01*
X106625772Y-119468058D01*
X106686590Y-119428977D01*
X106724277Y-119406013D01*
X106734541Y-119401062D01*
X106753030Y-119413796D01*
X106792540Y-119449002D01*
X106848642Y-119502182D01*
X106916907Y-119568838D01*
X106992906Y-119644474D01*
X107072212Y-119724592D01*
X107150395Y-119804694D01*
X107223027Y-119880284D01*
X107285679Y-119946865D01*
X107333923Y-119999938D01*
X107363330Y-120035007D01*
X107370361Y-120046743D01*
X107360243Y-120068380D01*
X107331879Y-120115782D01*
X107288249Y-120184313D01*
X107232338Y-120269335D01*
X107167126Y-120366213D01*
X107129339Y-120421470D01*
X107060463Y-120522368D01*
X106999260Y-120613419D01*
X106948698Y-120690090D01*
X106911748Y-120747848D01*
X106891378Y-120782163D01*
X106888317Y-120789374D01*
X106895256Y-120809868D01*
X106914171Y-120857633D01*
X106942207Y-120925952D01*
X106976511Y-121008109D01*
X107014229Y-121097390D01*
X107052507Y-121187078D01*
X107088490Y-121270458D01*
X107119326Y-121340814D01*
X107142159Y-121391430D01*
X107154137Y-121415591D01*
X107154844Y-121416542D01*
X107173651Y-121421156D01*
X107223738Y-121431448D01*
X107299913Y-121446407D01*
X107396985Y-121465021D01*
X107509763Y-121486279D01*
X107575562Y-121498538D01*
X107696070Y-121521482D01*
X107804917Y-121543315D01*
X107896596Y-121562842D01*
X107965601Y-121578868D01*
X108006424Y-121590199D01*
X108014631Y-121593794D01*
X108022668Y-121618126D01*
X108029153Y-121673079D01*
X108034090Y-121752228D01*
X108037484Y-121849146D01*
X108039338Y-121957407D01*
X108039658Y-122070585D01*
X108038447Y-122182255D01*
X108035710Y-122285988D01*
X108031451Y-122375361D01*
X108025675Y-122443946D01*
X108018387Y-122485317D01*
X108014015Y-122493930D01*
X107987884Y-122504253D01*
X107932513Y-122519012D01*
X107855227Y-122536472D01*
X107763350Y-122554900D01*
X107731278Y-122560861D01*
X107576644Y-122589186D01*
X107454495Y-122611996D01*
X107360793Y-122630200D01*
X107291504Y-122644703D01*
X107242591Y-122656412D01*
X107210017Y-122666235D01*
X107189748Y-122675076D01*
X107177746Y-122683844D01*
X107176067Y-122685577D01*
X107159304Y-122713491D01*
X107133734Y-122767815D01*
X107101908Y-122841897D01*
X107066380Y-122929085D01*
X107029703Y-123022728D01*
X106994431Y-123116172D01*
X106963116Y-123202767D01*
X106938313Y-123275860D01*
X106922574Y-123328798D01*
X106918452Y-123354931D01*
X106918796Y-123355846D01*
X106932761Y-123377206D01*
X106964442Y-123424204D01*
X107010511Y-123491947D01*
X107067638Y-123575543D01*
X107132493Y-123670102D01*
X107150963Y-123696974D01*
X107216819Y-123794395D01*
X107274770Y-123883283D01*
X107321658Y-123958532D01*
X107354327Y-124015040D01*
X107369620Y-124047701D01*
X107370361Y-124051713D01*
X107357512Y-124072804D01*
X107322008Y-124114584D01*
X107268413Y-124172565D01*
X107201291Y-124242255D01*
X107125207Y-124319165D01*
X107044724Y-124398803D01*
X106964407Y-124476681D01*
X106888819Y-124548306D01*
X106822525Y-124609190D01*
X106770089Y-124654841D01*
X106736075Y-124680770D01*
X106726665Y-124685003D01*
X106704763Y-124675032D01*
X106659920Y-124648140D01*
X106599441Y-124608856D01*
X106552909Y-124577237D01*
X106468595Y-124519218D01*
X106368746Y-124450904D01*
X106268593Y-124382699D01*
X106214747Y-124346195D01*
X106032491Y-124222920D01*
X105879501Y-124305640D01*
X105809802Y-124341879D01*
X105750534Y-124370046D01*
X105710431Y-124386111D01*
X105700223Y-124388346D01*
X105687949Y-124371842D01*
X105663733Y-124325202D01*
X105629383Y-124252729D01*
X105586708Y-124158726D01*
X105537514Y-124047494D01*
X105483610Y-123923335D01*
X105426804Y-123790552D01*
X105368902Y-123653447D01*
X105311713Y-123516322D01*
X105257044Y-123383478D01*
X105206704Y-123259218D01*
X105162500Y-123147845D01*
X105126239Y-123053659D01*
X105099729Y-122980964D01*
X105084778Y-122934061D01*
X105082374Y-122917953D01*
X105101431Y-122897406D01*
X105143156Y-122864053D01*
X105198826Y-122824822D01*
X105203498Y-122821719D01*
X105347384Y-122706543D01*
X105463403Y-122572173D01*
X105550550Y-122422904D01*
X105607819Y-122263033D01*
X105634206Y-122096857D01*
X105628705Y-121928672D01*
X105590310Y-121762775D01*
X105518015Y-121603462D01*
X105496746Y-121568607D01*
X105386116Y-121427857D01*
X105255422Y-121314834D01*
X105109184Y-121230123D01*
X104951928Y-121174314D01*
X104788177Y-121147994D01*
X104622453Y-121151750D01*
X104459282Y-121186170D01*
X104303185Y-121251843D01*
X104158687Y-121349355D01*
X104113989Y-121388933D01*
X104000232Y-121512823D01*
X103917338Y-121643244D01*
X103860476Y-121789435D01*
X103828807Y-121934208D01*
X103820989Y-122096980D01*
X103847058Y-122260560D01*
X103904365Y-122419418D01*
X103990264Y-122568026D01*
X104102106Y-122700855D01*
X104237243Y-122812376D01*
X104255003Y-122824131D01*
X104311270Y-122862628D01*
X104354043Y-122895983D01*
X104374492Y-122917280D01*
X104374789Y-122917953D01*
X104370399Y-122940991D01*
X104352996Y-122993277D01*
X104324388Y-123070510D01*
X104286385Y-123168388D01*
X104240794Y-123282611D01*
X104189423Y-123408878D01*
X104134082Y-123542887D01*
X104076578Y-123680338D01*
X104018721Y-123816928D01*
X103962318Y-123948357D01*
X103909178Y-124070325D01*
X103861110Y-124178529D01*
X103819921Y-124268669D01*
X103787421Y-124336443D01*
X103765417Y-124377550D01*
X103756556Y-124388346D01*
X103729480Y-124379939D01*
X103678817Y-124357392D01*
X103613303Y-124324733D01*
X103577279Y-124305640D01*
X103424288Y-124222920D01*
X103242032Y-124346195D01*
X103148995Y-124409348D01*
X103047135Y-124478847D01*
X102951682Y-124544285D01*
X102903870Y-124577237D01*
X102836625Y-124622393D01*
X102779684Y-124658177D01*
X102740474Y-124680058D01*
X102727739Y-124684683D01*
X102709203Y-124672205D01*
X102668179Y-124637372D01*
X102608645Y-124583798D01*
X102534578Y-124515103D01*
X102449955Y-124434901D01*
X102396435Y-124383406D01*
X102302801Y-124291406D01*
X102221879Y-124209119D01*
X102156943Y-124140065D01*
X102111262Y-124087764D01*
X102088109Y-124055736D01*
X102085888Y-124049236D01*
X102096196Y-124024514D01*
X102124681Y-123974525D01*
X102168183Y-123904332D01*
X102223543Y-123818995D01*
X102287600Y-123723576D01*
X102305817Y-123696974D01*
X102372193Y-123600287D01*
X102431742Y-123513237D01*
X102481136Y-123440715D01*
X102517045Y-123387613D01*
X102536139Y-123358823D01*
X102537984Y-123355846D01*
X102535225Y-123332902D01*
X102520582Y-123282456D01*
X102496607Y-123211161D01*
X102465854Y-123125667D01*
X102430876Y-123032627D01*
X102394227Y-122938694D01*
X102358459Y-122850519D01*
X102326126Y-122774754D01*
X102299782Y-122718051D01*
X102281978Y-122687063D01*
X102280713Y-122685577D01*
X102269826Y-122676721D01*
X102251438Y-122667963D01*
X102221514Y-122658397D01*
X102176017Y-122647116D01*
X102110911Y-122633213D01*
X102022159Y-122615783D01*
X101905727Y-122593918D01*
X101757578Y-122566711D01*
X101725502Y-122560861D01*
X101630434Y-122542494D01*
X101547555Y-122524525D01*
X101484190Y-122508689D01*
X101447662Y-122496720D01*
X101442764Y-122493930D01*
X101434693Y-122469192D01*
X101428133Y-122413910D01*
X101423087Y-122334509D01*
X101419561Y-122237416D01*
X101417559Y-122129058D01*
X101417084Y-122015860D01*
X101418143Y-121904248D01*
X101420738Y-121800649D01*
X101424874Y-121711488D01*
X101430557Y-121643192D01*
X101437789Y-121602186D01*
X101442149Y-121593794D01*
X101466422Y-121585328D01*
X101521694Y-121571555D01*
X101602458Y-121553670D01*
X101703208Y-121532868D01*
X101818437Y-121510343D01*
X101881218Y-121498538D01*
X102000333Y-121476271D01*
X102106555Y-121456099D01*
X102194693Y-121439035D01*
X102259554Y-121426089D01*
X102295946Y-121418275D01*
X102301936Y-121416542D01*
X102312059Y-121397010D01*
X102333458Y-121349963D01*
X102363281Y-121282123D01*
X102398675Y-121200211D01*
X102436788Y-121110948D01*
X102474767Y-121021055D01*
X102509760Y-120937255D01*
X102538914Y-120866267D01*
X102559377Y-120814814D01*
X102568297Y-120789617D01*
X102568463Y-120788516D01*
X102558351Y-120768639D01*
X102530003Y-120722897D01*
X102486397Y-120655837D01*
X102430514Y-120572004D01*
X102365333Y-120475946D01*
X102327441Y-120420770D01*
X102258395Y-120319601D01*
X102197070Y-120227750D01*
X102146457Y-120149864D01*
X102109549Y-120090589D01*
X102089338Y-120054571D01*
X102086419Y-120046497D01*
X102098967Y-120027704D01*
X102133657Y-119987577D01*
X102186057Y-119930613D01*
X102251736Y-119861305D01*
X102326264Y-119784151D01*
X102405207Y-119703645D01*
X102484137Y-119624283D01*
X102558620Y-119550560D01*
X102624226Y-119486972D01*
X102676524Y-119438014D01*
X102711081Y-119408181D01*
X102722642Y-119401062D01*
X102741466Y-119411073D01*
X102786489Y-119439198D01*
X102853333Y-119482574D01*
X102937621Y-119538338D01*
X103034976Y-119603626D01*
X103108413Y-119653366D01*
X103479453Y-119905671D01*
X104098025Y-119650675D01*
X104181845Y-119206051D01*
X104265666Y-118761427D01*
X105191114Y-118761427D01*
X105274934Y-119206051D01*
G37*
D14*
X140435000Y-102642936D02*
X140435000Y-103097064D01*
X138965000Y-102642936D02*
X138965000Y-103097064D01*
X149490000Y-147660000D02*
X152510000Y-147660000D01*
X149490000Y-147660000D02*
X149490000Y-146350000D01*
X152510000Y-147660000D02*
X152510000Y-146350000D01*
X143040000Y-143120000D02*
X143040000Y-127170000D01*
X158960000Y-143120000D02*
X158960000Y-127170000D01*
X151000000Y-137000000D02*
X151000000Y-141020000D01*
X148990000Y-126945000D02*
X153010000Y-126945000D01*
X144390000Y-126030000D02*
X144390000Y-122125000D01*
X157610000Y-126030000D02*
X157610000Y-122125000D01*
X151000000Y-124935000D02*
X151000000Y-128955000D01*
X144390000Y-122125000D02*
X148990000Y-122125000D01*
X148990000Y-122125000D02*
X148990000Y-120340000D01*
X153010000Y-122125000D02*
X157610000Y-122125000D01*
X153010000Y-122125000D02*
X153010000Y-120340000D01*
X148990000Y-120340000D02*
X153010000Y-120340000D01*
X143040000Y-143120000D02*
G75*
G03*
X149490000Y-146350000I7602650J7126747D01*
G01*
X152510000Y-146350000D02*
G75*
G03*
X158960000Y-143120000I-1152650J10356747D01*
G01*
X144390000Y-126030000D02*
G75*
G03*
X143040000Y-127170000I6649260J-9243466D01*
G01*
X158960000Y-127170000D02*
G75*
G03*
X157610000Y-126030000I-7999260J-8103466D01*
G01*
X150600000Y-155460000D02*
X150600000Y-157200000D01*
X150600000Y-157200000D02*
X152100000Y-157200000D01*
X150840000Y-149840000D02*
X150840000Y-156960000D01*
X150840000Y-149840000D02*
X158660000Y-149840000D01*
X150840000Y-155400000D02*
X158660000Y-155400000D01*
X150840000Y-156960000D02*
X158660000Y-156960000D01*
X158660000Y-149840000D02*
X158660000Y-156960000D01*
X151568000Y-152692000D02*
G75*
G03*
X151567891Y-153907742I1432000J-608000D01*
G01*
X153608000Y-151868000D02*
G75*
G03*
X152392258Y-151867891I-608000J-1432000D01*
G01*
X152392000Y-154731999D02*
G75*
G03*
X153027011Y-154855492I607998J1431987D01*
G01*
X153000000Y-154854999D02*
G75*
G03*
X153607587Y-154731384I0J1554999D01*
G01*
X154432000Y-153908000D02*
G75*
G03*
X154432109Y-152692258I-1432003J607999D01*
G01*
X158055000Y-153300000D02*
G75*
G03*
X154945000Y-153300000I-1555000J0D01*
G01*
X154945000Y-153300000D02*
G75*
G03*
X158055000Y-153300000I1555000J0D01*
G01*
X171300000Y-155460000D02*
X171300000Y-157200000D01*
X171300000Y-157200000D02*
X172800000Y-157200000D01*
X171540000Y-149840000D02*
X171540000Y-156960000D01*
X171540000Y-149840000D02*
X179360000Y-149840000D01*
X171540000Y-155400000D02*
X179360000Y-155400000D01*
X171540000Y-156960000D02*
X179360000Y-156960000D01*
X179360000Y-149840000D02*
X179360000Y-156960000D01*
X172268000Y-152692000D02*
G75*
G03*
X172267891Y-153907742I1432000J-608000D01*
G01*
X174308000Y-151868000D02*
G75*
G03*
X173092258Y-151867891I-608000J-1432000D01*
G01*
X173092000Y-154731999D02*
G75*
G03*
X173727011Y-154855492I607998J1431987D01*
G01*
X173700000Y-154854999D02*
G75*
G03*
X174307587Y-154731384I0J1554999D01*
G01*
X175132000Y-153908000D02*
G75*
G03*
X175132109Y-152692258I-1432003J607999D01*
G01*
X178755000Y-153300000D02*
G75*
G03*
X175645000Y-153300000I-1555000J0D01*
G01*
X175645000Y-153300000D02*
G75*
G03*
X178755000Y-153300000I1555000J0D01*
G01*
X167667000Y-124560064D02*
X167667000Y-124105936D01*
X169137000Y-124560064D02*
X169137000Y-124105936D01*
X157350000Y-119371252D02*
X157350000Y-118848748D01*
X158820000Y-119371252D02*
X158820000Y-118848748D01*
X137765000Y-142727064D02*
X137765000Y-142272936D01*
X139235000Y-142727064D02*
X139235000Y-142272936D01*
X152816000Y-112708000D02*
X153416000Y-112708000D01*
X154116000Y-113408000D02*
X154116000Y-114808000D01*
X152116000Y-114808000D02*
X152116000Y-113408000D01*
X153416000Y-115508000D02*
X152816000Y-115508000D01*
X154116000Y-113408000D02*
G75*
G03*
X153416000Y-112708000I-699999J1D01*
G01*
X152816000Y-112708000D02*
G75*
G03*
X152116000Y-113408000I-1J-699999D01*
G01*
X153416000Y-115508000D02*
G75*
G03*
X154116000Y-114808000I0J700000D01*
G01*
X152116000Y-114808000D02*
G75*
G03*
X152816000Y-115508000I700000J0D01*
G01*
X160755000Y-110262936D02*
X160755000Y-110717064D01*
X159285000Y-110262936D02*
X159285000Y-110717064D01*
X150325000Y-102642936D02*
X150325000Y-103097064D01*
X148855000Y-102642936D02*
X148855000Y-103097064D01*
X173436000Y-121536000D02*
X174036000Y-121536000D01*
X174736000Y-122236000D02*
X174736000Y-123636000D01*
X172736000Y-123636000D02*
X172736000Y-122236000D01*
X174036000Y-124336000D02*
X173436000Y-124336000D01*
X174736000Y-122236000D02*
G75*
G03*
X174036000Y-121536000I-699999J1D01*
G01*
X173436000Y-121536000D02*
G75*
G03*
X172736000Y-122236000I-1J-699999D01*
G01*
X174036000Y-124336000D02*
G75*
G03*
X174736000Y-123636000I0J700000D01*
G01*
X172736000Y-123636000D02*
G75*
G03*
X173436000Y-124336000I700000J0D01*
G01*
X175962000Y-120590000D02*
X177292000Y-120590000D01*
X175962000Y-121920000D02*
X175962000Y-120590000D01*
X175962000Y-123190000D02*
X175962000Y-125790000D01*
X175962000Y-123190000D02*
X178622000Y-123190000D01*
X175962000Y-125790000D02*
X178622000Y-125790000D01*
X178622000Y-123190000D02*
X178622000Y-125790000D01*
X172230000Y-147710000D02*
X174770000Y-147710000D01*
X172230000Y-147710000D02*
X172230000Y-145060000D01*
X174770000Y-147710000D02*
X174770000Y-145060000D01*
X173500000Y-137620000D02*
X173500000Y-140140000D01*
X172240000Y-135695000D02*
X174760000Y-135695000D01*
X173500000Y-134435000D02*
X173500000Y-136955000D01*
X166290000Y-132810000D02*
X166290000Y-129590000D01*
X167650000Y-132810000D02*
X166290000Y-132810000D01*
X180710000Y-132810000D02*
X179350000Y-132810000D01*
X180710000Y-132810000D02*
X180710000Y-129590000D01*
X166290000Y-129590000D02*
X172240000Y-129590000D01*
X172240000Y-129590000D02*
X172240000Y-127290000D01*
X174760000Y-129590000D02*
X180710000Y-129590000D01*
X174760000Y-129590000D02*
X174760000Y-127290000D01*
X172240000Y-127290000D02*
X174760000Y-127290000D01*
X167650001Y-132810001D02*
G75*
G03*
X172230000Y-145060000I5755357J-4829380D01*
G01*
X174770000Y-145059999D02*
G75*
G03*
X179350000Y-132810000I-1175359J7420619D01*
G01*
X162460000Y-144940000D02*
X160540000Y-144940000D01*
X160540000Y-144940000D02*
X160540000Y-147800000D01*
X162460000Y-147800000D02*
X162460000Y-144940000D01*
X132274000Y-106107000D02*
X133604000Y-106107000D01*
X132274000Y-107437000D02*
X132274000Y-106107000D01*
X132274000Y-108707000D02*
X132274000Y-111307000D01*
X132274000Y-108707000D02*
X134934000Y-108707000D01*
X132274000Y-111307000D02*
X134934000Y-111307000D01*
X134934000Y-108707000D02*
X134934000Y-111307000D01*
X160755000Y-102642936D02*
X160755000Y-103097064D01*
X159285000Y-102642936D02*
X159285000Y-103097064D01*
X170170000Y-113300000D02*
X170170000Y-115300000D01*
X170170000Y-113300000D02*
X174180000Y-113300000D01*
X170170000Y-115300000D02*
X174180000Y-115300000D01*
X139460000Y-144940000D02*
X137540000Y-144940000D01*
X137540000Y-144940000D02*
X137540000Y-147800000D01*
X139460000Y-147800000D02*
X139460000Y-144940000D01*
X127600000Y-155460000D02*
X127600000Y-157200000D01*
X127600000Y-157200000D02*
X129100000Y-157200000D01*
X127840000Y-149840000D02*
X127840000Y-156960000D01*
X127840000Y-149840000D02*
X135660000Y-149840000D01*
X127840000Y-155400000D02*
X135660000Y-155400000D01*
X127840000Y-156960000D02*
X135660000Y-156960000D01*
X135660000Y-149840000D02*
X135660000Y-156960000D01*
X128568000Y-152692000D02*
G75*
G03*
X128567891Y-153907742I1432000J-608000D01*
G01*
X130608000Y-151868000D02*
G75*
G03*
X129392258Y-151867891I-608000J-1432000D01*
G01*
X129392000Y-154731999D02*
G75*
G03*
X130027011Y-154855492I607998J1431987D01*
G01*
X130000000Y-154854999D02*
G75*
G03*
X130607587Y-154731384I0J1554999D01*
G01*
X131432000Y-153908000D02*
G75*
G03*
X131432109Y-152692258I-1432003J607999D01*
G01*
X135055000Y-153300000D02*
G75*
G03*
X131945000Y-153300000I-1555000J0D01*
G01*
X131945000Y-153300000D02*
G75*
G03*
X135055000Y-153300000I1555000J0D01*
G01*
X140435000Y-106452936D02*
X140435000Y-106907064D01*
X138965000Y-106452936D02*
X138965000Y-106907064D01*
X150325000Y-106452936D02*
X150325000Y-106907064D01*
X148855000Y-106452936D02*
X148855000Y-106907064D01*
X160755000Y-106452936D02*
X160755000Y-106907064D01*
X159285000Y-106452936D02*
X159285000Y-106907064D01*
X185995000Y-139015000D02*
X186690000Y-139015000D01*
X185995000Y-139700000D02*
X185995000Y-139015000D01*
X185995000Y-140385000D02*
X185995000Y-140260000D01*
X185995000Y-140385000D02*
X186081724Y-140385000D01*
X185995000Y-140385000D02*
X187385000Y-140385000D01*
X187298276Y-140385000D02*
X187385000Y-140385000D01*
X187385000Y-140385000D02*
X187385000Y-140260000D01*
X141324000Y-121658748D02*
X141324000Y-122181252D01*
X139854000Y-121658748D02*
X139854000Y-122181252D01*
X146166000Y-116799000D02*
X147966000Y-116799000D01*
X147166000Y-113579000D02*
X146366000Y-113579000D01*
X147166000Y-113579000D02*
X147966000Y-113579000D01*
X145866000Y-113629000D02*
X145626000Y-113299000D01*
X146106000Y-113299000D01*
X145866000Y-113629000D01*
G36*
X145866000Y-113629000D02*
G01*
X145626000Y-113299000D01*
X146106000Y-113299000D01*
X145866000Y-113629000D01*
G37*
X164565000Y-124198748D02*
X164565000Y-124721252D01*
X163095000Y-124198748D02*
X163095000Y-124721252D01*
X179130000Y-108010000D02*
X177800000Y-108010000D01*
X179130000Y-106680000D02*
X179130000Y-108010000D01*
X179130000Y-105410000D02*
X179130000Y-102810000D01*
X179130000Y-105410000D02*
X176470000Y-105410000D01*
X179130000Y-102810000D02*
X176470000Y-102810000D01*
X176470000Y-105410000D02*
X176470000Y-102810000D01*
X140435000Y-110262936D02*
X140435000Y-110717064D01*
X138965000Y-110262936D02*
X138965000Y-110717064D01*
X136425000Y-122181252D02*
X136425000Y-121658748D01*
X137895000Y-122181252D02*
X137895000Y-121658748D01*
X163819000Y-118577000D02*
X165619000Y-118577000D01*
X164819000Y-115357000D02*
X164019000Y-115357000D01*
X164819000Y-115357000D02*
X165619000Y-115357000D01*
X163519000Y-115407000D02*
X163279000Y-115077000D01*
X163759000Y-115077000D01*
X163519000Y-115407000D01*
G36*
X163519000Y-115407000D02*
G01*
X163279000Y-115077000D01*
X163759000Y-115077000D01*
X163519000Y-115407000D01*
G37*
X150325000Y-110262936D02*
X150325000Y-110717064D01*
X148855000Y-110262936D02*
X148855000Y-110717064D01*
X129540000Y-107120000D02*
X130140000Y-107120000D01*
X130840000Y-107820000D02*
X130840000Y-109220000D01*
X128840000Y-109220000D02*
X128840000Y-107820000D01*
X130140000Y-109920000D02*
X129540000Y-109920000D01*
X130840000Y-107820000D02*
G75*
G03*
X130140000Y-107120000I-699999J1D01*
G01*
X129540000Y-107120000D02*
G75*
G03*
X128840000Y-107820000I-1J-699999D01*
G01*
X130140000Y-109920000D02*
G75*
G03*
X130840000Y-109220000I0J700000D01*
G01*
X128840000Y-109220000D02*
G75*
G03*
X129540000Y-109920000I700000J0D01*
G01*
X155134000Y-111170000D02*
X156464000Y-111170000D01*
X155134000Y-112500000D02*
X155134000Y-111170000D01*
X155134000Y-113770000D02*
X155134000Y-116370000D01*
X155134000Y-113770000D02*
X157794000Y-113770000D01*
X155134000Y-116370000D02*
X157794000Y-116370000D01*
X157794000Y-113770000D02*
X157794000Y-116370000D01*
X140435000Y-126738748D02*
X140435000Y-127261252D01*
X138965000Y-126738748D02*
X138965000Y-127261252D01*
X110960000Y-144940000D02*
X109040000Y-144940000D01*
X109040000Y-144940000D02*
X109040000Y-147800000D01*
X110960000Y-147800000D02*
X110960000Y-144940000D01*
X144553000Y-119607064D02*
X144553000Y-119152936D01*
X146023000Y-119607064D02*
X146023000Y-119152936D01*
X176470000Y-113986000D02*
X177800000Y-113986000D01*
X176470000Y-115316000D02*
X176470000Y-113986000D01*
X176470000Y-116586000D02*
X176470000Y-119186000D01*
X176470000Y-116586000D02*
X179130000Y-116586000D01*
X176470000Y-119186000D02*
X179130000Y-119186000D01*
X179130000Y-116586000D02*
X179130000Y-119186000D01*
X172170000Y-109490000D02*
X172170000Y-111490000D01*
X172170000Y-109490000D02*
X176180000Y-109490000D01*
X172170000Y-111490000D02*
X176180000Y-111490000D01*
X174535000Y-117882936D02*
X174535000Y-118337064D01*
X173065000Y-117882936D02*
X173065000Y-118337064D01*
X183500000Y-121550000D02*
X185500000Y-121550000D01*
X187400000Y-121550000D02*
X189300000Y-121550000D01*
X189300000Y-121550000D02*
X189300000Y-112150000D01*
X183500000Y-112150000D02*
X185500000Y-112150000D01*
X187400000Y-112150000D02*
X189300000Y-112150000D01*
X120890000Y-147710000D02*
X124110000Y-147710000D01*
X120890000Y-147710000D02*
X120890000Y-143363000D01*
X124110000Y-147710000D02*
X124110000Y-143363000D01*
X122500000Y-140875000D02*
X122500000Y-138175000D01*
X122500000Y-119285000D02*
X122500000Y-116585000D01*
X121150000Y-117935000D02*
X123850000Y-117935000D01*
X116990000Y-117719000D02*
X116990000Y-114181000D01*
X128010000Y-117719000D02*
X128010000Y-114181000D01*
X116990000Y-114181000D02*
X120440000Y-114181000D01*
X120440000Y-114181000D02*
X120440000Y-111481000D01*
X124560000Y-114181000D02*
X128010000Y-114181000D01*
X124560000Y-114181000D02*
X124560000Y-111481000D01*
X120440000Y-111481000D02*
X124560000Y-111481000D01*
D15*
X116990000Y-117719000D02*
G75*
G03*
X120890000Y-143363000I5510075J-12280575D01*
G01*
X124110000Y-143362999D02*
G75*
G03*
X128010000Y-117719636I-1609987J13363106D01*
G01*
D14*
X171635000Y-117882936D02*
X171635000Y-118337064D01*
X170165000Y-117882936D02*
X170165000Y-118337064D01*
X160765000Y-142727064D02*
X160765000Y-142272936D01*
X162235000Y-142727064D02*
X162235000Y-142272936D01*
X140860000Y-115831252D02*
X140860000Y-115308748D01*
X142330000Y-115831252D02*
X142330000Y-115308748D01*
X109265000Y-142727064D02*
X109265000Y-142272936D01*
X110735000Y-142727064D02*
X110735000Y-142272936D01*
X130926000Y-116926000D02*
X132726000Y-116926000D01*
X131926000Y-113706000D02*
X131126000Y-113706000D01*
X131926000Y-113706000D02*
X132726000Y-113706000D01*
X130626000Y-113756000D02*
X130386000Y-113426000D01*
X130866000Y-113426000D01*
X130626000Y-113756000D01*
G36*
X130626000Y-113756000D02*
G01*
X130386000Y-113426000D01*
X130866000Y-113426000D01*
X130626000Y-113756000D01*
G37*
X136298000Y-115797064D02*
X136298000Y-115342936D01*
X137768000Y-115797064D02*
X137768000Y-115342936D01*
X185995000Y-142825000D02*
X186690000Y-142825000D01*
X185995000Y-143510000D02*
X185995000Y-142825000D01*
X185995000Y-144195000D02*
X185995000Y-144070000D01*
X185995000Y-144195000D02*
X186081724Y-144195000D01*
X185995000Y-144195000D02*
X187385000Y-144195000D01*
X187298276Y-144195000D02*
X187385000Y-144195000D01*
X187385000Y-144195000D02*
X187385000Y-144070000D01*
%LPC*%
D16*
X105000000Y-129000000D03*
X122500000Y-152000000D03*
X185000000Y-129000000D03*
X167500000Y-152000000D03*
X167500000Y-106000000D03*
X105500000Y-114500000D03*
X166000000Y-109750000D03*
D17*
X139700000Y-101870000D03*
X139700000Y-103870000D03*
D18*
X151000000Y-122200000D03*
D19*
X151000000Y-144700000D03*
D20*
X153000000Y-153300000D03*
D21*
X156500000Y-153300000D03*
D20*
X173700000Y-153300000D03*
D21*
X177200000Y-153300000D03*
D22*
X168402000Y-125333000D03*
X168402000Y-123333000D03*
D23*
X158085000Y-120147500D03*
X158085000Y-118072500D03*
D22*
X138500000Y-143500000D03*
X138500000Y-141500000D03*
D24*
X153116000Y-113458000D03*
D25*
X153116000Y-114758000D03*
D17*
X160020000Y-109490000D03*
X160020000Y-111490000D03*
X149590000Y-101870000D03*
X149590000Y-103870000D03*
D24*
X173736000Y-122286000D03*
D25*
X173736000Y-123586000D03*
D26*
X177292000Y-121920000D03*
D27*
X177292000Y-124460000D03*
D28*
X173500000Y-141200000D03*
X173500000Y-133700000D03*
D29*
X173500000Y-129600000D03*
D30*
X173500000Y-145600000D03*
D31*
X161500000Y-145775000D03*
X161500000Y-147825000D03*
D26*
X133604000Y-107437000D03*
D27*
X133604000Y-109977000D03*
D17*
X160020000Y-101870000D03*
X160020000Y-103870000D03*
D32*
X170880000Y-114300000D03*
X174180000Y-114300000D03*
D31*
X138500000Y-145775000D03*
X138500000Y-147825000D03*
D20*
X130000000Y-153300000D03*
D21*
X133500000Y-153300000D03*
D17*
X139700000Y-105680000D03*
X139700000Y-107680000D03*
X149590000Y-105680000D03*
X149590000Y-107680000D03*
X160020000Y-105680000D03*
X160020000Y-107680000D03*
D33*
X186690000Y-139700000D03*
D34*
X140589000Y-120882500D03*
X140589000Y-122957500D03*
D35*
X145716000Y-114239000D03*
X145716000Y-115189000D03*
X145716000Y-116139000D03*
X148416000Y-116139000D03*
X148416000Y-115189000D03*
X148416000Y-114239000D03*
D34*
X163830000Y-123422500D03*
X163830000Y-125497500D03*
D26*
X177800000Y-106680000D03*
D27*
X177800000Y-104140000D03*
D17*
X139700000Y-109490000D03*
X139700000Y-111490000D03*
D23*
X137160000Y-122957500D03*
X137160000Y-120882500D03*
D35*
X163369000Y-116017000D03*
X163369000Y-116967000D03*
X163369000Y-117917000D03*
X166069000Y-117917000D03*
X166069000Y-116967000D03*
X166069000Y-116017000D03*
D17*
X149590000Y-109490000D03*
X149590000Y-111490000D03*
D24*
X129840000Y-107870000D03*
D25*
X129840000Y-109170000D03*
D26*
X156464000Y-112500000D03*
D27*
X156464000Y-115040000D03*
D34*
X139700000Y-125962500D03*
X139700000Y-128037500D03*
D31*
X110000000Y-145775000D03*
X110000000Y-147825000D03*
D22*
X145288000Y-120380000D03*
X145288000Y-118380000D03*
D26*
X177800000Y-115316000D03*
D27*
X177800000Y-117856000D03*
D32*
X172880000Y-110490000D03*
X176180000Y-110490000D03*
D17*
X173800000Y-117110000D03*
X173800000Y-119110000D03*
D36*
X182800000Y-119740000D03*
X182800000Y-113960000D03*
D37*
X181355000Y-120100000D03*
X181355000Y-119300000D03*
D38*
X181355000Y-118100000D03*
X181355000Y-117100000D03*
X181355000Y-116600000D03*
X181355000Y-115600000D03*
D37*
X181355000Y-114400000D03*
X181355000Y-113600000D03*
X181355000Y-113600000D03*
X181355000Y-114400000D03*
D38*
X181355000Y-115100000D03*
X181355000Y-116100000D03*
X181355000Y-117600000D03*
X181355000Y-118600000D03*
D37*
X181355000Y-119300000D03*
X181355000Y-120100000D03*
D39*
X182270000Y-121170000D03*
D40*
X186450000Y-121170000D03*
D39*
X182270000Y-112530000D03*
D40*
X186450000Y-112530000D03*
D41*
X122500000Y-113741000D03*
D42*
X122500000Y-144350000D03*
D17*
X170900000Y-117110000D03*
X170900000Y-119110000D03*
D22*
X161500000Y-143500000D03*
X161500000Y-141500000D03*
D23*
X141595000Y-116607500D03*
X141595000Y-114532500D03*
D22*
X110000000Y-143500000D03*
X110000000Y-141500000D03*
D35*
X130476000Y-114366000D03*
X130476000Y-115316000D03*
X130476000Y-116266000D03*
X133176000Y-116266000D03*
X133176000Y-115316000D03*
X133176000Y-114366000D03*
D22*
X137033000Y-116570000D03*
X137033000Y-114570000D03*
D33*
X186690000Y-143510000D03*
%LPD*%
D43*
X180000000Y-100000000D02*
G75*
G03*
X190000000Y-110000000I10000000J0D01*
G01*
X110000000Y-100000000D02*
X180000000Y-100000000D01*
X190000000Y-148000000D02*
G75*
G03*
X180000000Y-158000000I0J-10000000D01*
G01*
X110000000Y-158000000D02*
X180000000Y-158000000D01*
X100000000Y-110000000D02*
X100000000Y-148000000D01*
X100000000Y-110000000D02*
G75*
G03*
X110000000Y-100000000I0J10000000D01*
G01*
X190000000Y-110000000D02*
X190000000Y-148000000D01*
X110000000Y-158000000D02*
G75*
G03*
X100000000Y-148000000I-10000000J0D01*
G01*
M02*
