G04 #@! TF.GenerationSoftware,KiCad,Pcbnew,7.0.11+dfsg-1build4*
G04 #@! TF.CreationDate,2025-09-21T21:37:11-05:00*
G04 #@! TF.ProjectId,lir-multi-charger,6c69722d-6d75-46c7-9469-2d6368617267,rev?*
G04 #@! TF.SameCoordinates,Original*
G04 #@! TF.FileFunction,Soldermask,Top*
G04 #@! TF.FilePolarity,Negative*
%FSLAX46Y46*%
G04 Gerber Fmt 4.6, Leading zero omitted, Abs format (unit mm)*
G04 Created by KiCad (PCBNEW 7.0.11+dfsg-1build4) date 2025-09-21 21:37:11*
%MOMM*%
%LPD*%
G01*
G04 APERTURE LIST*
G04 Aperture macros list*
%AMRoundRect*
0 Rectangle with rounded corners*
0 $1 Rounding radius*
0 $2 $3 $4 $5 $6 $7 $8 $9 X,Y pos of 4 corners*
0 Add a 4 corners polygon primitive as box body*
4,1,4,$2,$3,$4,$5,$6,$7,$8,$9,$2,$3,0*
0 Add four circle primitives for the rounded corners*
1,1,$1+$1,$2,$3*
1,1,$1+$1,$4,$5*
1,1,$1+$1,$6,$7*
1,1,$1+$1,$8,$9*
0 Add four rect primitives between the rounded corners*
20,1,$1+$1,$2,$3,$4,$5,0*
20,1,$1+$1,$4,$5,$6,$7,0*
20,1,$1+$1,$6,$7,$8,$9,0*
20,1,$1+$1,$8,$9,$2,$3,0*%
%AMFreePoly0*
4,1,19,0.500000,-0.750000,0.000000,-0.750000,0.000000,-0.744911,-0.071157,-0.744911,-0.207708,-0.704816,-0.327430,-0.627875,-0.420627,-0.520320,-0.479746,-0.390866,-0.500000,-0.250000,-0.500000,0.250000,-0.479746,0.390866,-0.420627,0.520320,-0.327430,0.627875,-0.207708,0.704816,-0.071157,0.744911,0.000000,0.744911,0.000000,0.750000,0.500000,0.750000,0.500000,-0.750000,0.500000,-0.750000,
$1*%
%AMFreePoly1*
4,1,19,0.000000,0.744911,0.071157,0.744911,0.207708,0.704816,0.327430,0.627875,0.420627,0.520320,0.479746,0.390866,0.500000,0.250000,0.500000,-0.250000,0.479746,-0.390866,0.420627,-0.520320,0.327430,-0.627875,0.207708,-0.704816,0.071157,-0.744911,0.000000,-0.744911,0.000000,-0.750000,-0.500000,-0.750000,-0.500000,0.750000,0.000000,0.750000,0.000000,0.744911,0.000000,0.744911,
$1*%
G04 Aperture macros list end*
%ADD10C,3.000000*%
%ADD11RoundRect,0.250000X-0.450000X0.350000X-0.450000X-0.350000X0.450000X-0.350000X0.450000X0.350000X0*%
%ADD12R,3.800000X3.500000*%
%ADD13R,2.800000X5.700000*%
%ADD14R,2.400000X2.400000*%
%ADD15C,2.400000*%
%ADD16RoundRect,0.250000X0.450000X-0.350000X0.450000X0.350000X-0.450000X0.350000X-0.450000X-0.350000X0*%
%ADD17RoundRect,0.250000X0.475000X-0.337500X0.475000X0.337500X-0.475000X0.337500X-0.475000X-0.337500X0*%
%ADD18FreePoly0,270.000000*%
%ADD19FreePoly1,270.000000*%
%ADD20R,1.700000X1.700000*%
%ADD21O,1.700000X1.700000*%
%ADD22C,1.200000*%
%ADD23R,2.300000X4.400000*%
%ADD24R,2.300000X4.000000*%
%ADD25RoundRect,0.250000X-0.450000X0.325000X-0.450000X-0.325000X0.450000X-0.325000X0.450000X0.325000X0*%
%ADD26RoundRect,0.225000X-0.225000X-0.375000X0.225000X-0.375000X0.225000X0.375000X-0.225000X0.375000X0*%
%ADD27R,0.850000X0.850000*%
%ADD28RoundRect,0.250000X-0.475000X0.337500X-0.475000X-0.337500X0.475000X-0.337500X0.475000X0.337500X0*%
%ADD29RoundRect,0.162500X-0.617500X-0.162500X0.617500X-0.162500X0.617500X0.162500X-0.617500X0.162500X0*%
%ADD30C,0.650000*%
%ADD31R,1.450000X0.600000*%
%ADD32R,1.450000X0.300000*%
%ADD33O,2.100000X1.000000*%
%ADD34O,1.600000X1.000000*%
%ADD35R,3.900000X4.300000*%
%ADD36R,3.000000X6.500000*%
G04 #@! TA.AperFunction,Profile*
%ADD37C,0.050000*%
G04 #@! TD*
G04 APERTURE END LIST*
D10*
X105000000Y-129000000D03*
X122500000Y-152000000D03*
X185000000Y-129000000D03*
X167500000Y-152000000D03*
X167500000Y-106000000D03*
X105500000Y-114500000D03*
X166000000Y-109750000D03*
D11*
X139700000Y-101870000D03*
X139700000Y-103870000D03*
D12*
X151000000Y-122200000D03*
D13*
X151000000Y-144700000D03*
D14*
X153000000Y-153300000D03*
D15*
X156500000Y-153300000D03*
D14*
X173700000Y-153300000D03*
D15*
X177200000Y-153300000D03*
D16*
X168402000Y-125333000D03*
X168402000Y-123333000D03*
D17*
X158085000Y-120147500D03*
X158085000Y-118072500D03*
D16*
X138500000Y-143500000D03*
X138500000Y-141500000D03*
D18*
X153116000Y-113458000D03*
D19*
X153116000Y-114758000D03*
D11*
X160020000Y-109490000D03*
X160020000Y-111490000D03*
X149590000Y-101870000D03*
X149590000Y-103870000D03*
D18*
X173736000Y-122286000D03*
D19*
X173736000Y-123586000D03*
D20*
X177292000Y-121920000D03*
D21*
X177292000Y-124460000D03*
D22*
X173500000Y-141200000D03*
X173500000Y-133700000D03*
D23*
X173500000Y-129600000D03*
D24*
X173500000Y-145600000D03*
D25*
X161500000Y-145775000D03*
X161500000Y-147825000D03*
D20*
X133604000Y-107437000D03*
D21*
X133604000Y-109977000D03*
D11*
X160020000Y-101870000D03*
X160020000Y-103870000D03*
D26*
X170880000Y-114300000D03*
X174180000Y-114300000D03*
D25*
X138500000Y-145775000D03*
X138500000Y-147825000D03*
D14*
X130000000Y-153300000D03*
D15*
X133500000Y-153300000D03*
D11*
X139700000Y-105680000D03*
X139700000Y-107680000D03*
X149590000Y-105680000D03*
X149590000Y-107680000D03*
X160020000Y-105680000D03*
X160020000Y-107680000D03*
D27*
X186690000Y-139700000D03*
D28*
X140589000Y-120882500D03*
X140589000Y-122957500D03*
D29*
X145716000Y-114239000D03*
X145716000Y-115189000D03*
X145716000Y-116139000D03*
X148416000Y-116139000D03*
X148416000Y-115189000D03*
X148416000Y-114239000D03*
D28*
X163830000Y-123422500D03*
X163830000Y-125497500D03*
D20*
X177800000Y-106680000D03*
D21*
X177800000Y-104140000D03*
D11*
X139700000Y-109490000D03*
X139700000Y-111490000D03*
D17*
X137160000Y-122957500D03*
X137160000Y-120882500D03*
D29*
X163369000Y-116017000D03*
X163369000Y-116967000D03*
X163369000Y-117917000D03*
X166069000Y-117917000D03*
X166069000Y-116967000D03*
X166069000Y-116017000D03*
D11*
X149590000Y-109490000D03*
X149590000Y-111490000D03*
D18*
X129840000Y-107870000D03*
D19*
X129840000Y-109170000D03*
D20*
X156464000Y-112500000D03*
D21*
X156464000Y-115040000D03*
D28*
X139700000Y-125962500D03*
X139700000Y-128037500D03*
D25*
X110000000Y-145775000D03*
X110000000Y-147825000D03*
D16*
X145288000Y-120380000D03*
X145288000Y-118380000D03*
D20*
X177800000Y-115316000D03*
D21*
X177800000Y-117856000D03*
D26*
X172880000Y-110490000D03*
X176180000Y-110490000D03*
D11*
X173800000Y-117110000D03*
X173800000Y-119110000D03*
D30*
X182800000Y-119740000D03*
X182800000Y-113960000D03*
D31*
X181355000Y-120100000D03*
X181355000Y-119300000D03*
D32*
X181355000Y-118100000D03*
X181355000Y-117100000D03*
X181355000Y-116600000D03*
X181355000Y-115600000D03*
D31*
X181355000Y-114400000D03*
X181355000Y-113600000D03*
X181355000Y-113600000D03*
X181355000Y-114400000D03*
D32*
X181355000Y-115100000D03*
X181355000Y-116100000D03*
X181355000Y-117600000D03*
X181355000Y-118600000D03*
D31*
X181355000Y-119300000D03*
X181355000Y-120100000D03*
D33*
X182270000Y-121170000D03*
D34*
X186450000Y-121170000D03*
D33*
X182270000Y-112530000D03*
D34*
X186450000Y-112530000D03*
D35*
X122500000Y-113741000D03*
D36*
X122500000Y-144350000D03*
D11*
X170900000Y-117110000D03*
X170900000Y-119110000D03*
D16*
X161500000Y-143500000D03*
X161500000Y-141500000D03*
D17*
X141595000Y-116607500D03*
X141595000Y-114532500D03*
D16*
X110000000Y-143500000D03*
X110000000Y-141500000D03*
D29*
X130476000Y-114366000D03*
X130476000Y-115316000D03*
X130476000Y-116266000D03*
X133176000Y-116266000D03*
X133176000Y-115316000D03*
X133176000Y-114366000D03*
D16*
X137033000Y-116570000D03*
X137033000Y-114570000D03*
D27*
X186690000Y-143510000D03*
D37*
X180000000Y-100000000D02*
G75*
G03*
X190000000Y-110000000I10000000J0D01*
G01*
X110000000Y-100000000D02*
X180000000Y-100000000D01*
X190000000Y-148000000D02*
G75*
G03*
X180000000Y-158000000I0J-10000000D01*
G01*
X110000000Y-158000000D02*
X180000000Y-158000000D01*
X100000000Y-110000000D02*
X100000000Y-148000000D01*
X100000000Y-110000000D02*
G75*
G03*
X110000000Y-100000000I0J10000000D01*
G01*
X190000000Y-110000000D02*
X190000000Y-148000000D01*
X110000000Y-158000000D02*
G75*
G03*
X100000000Y-148000000I-10000000J0D01*
G01*
M02*
