<?xml version="1.0" standalone="no"?>
 <!DOCTYPE svg PUBLIC "-//W3C//DTD SVG 1.1//EN" 
 "http://www.w3.org/Graphics/SVG/1.1/DTD/svg11.dtd"> 
<svg
  xmlns:svg="http://www.w3.org/2000/svg"
  xmlns="http://www.w3.org/2000/svg"
  xmlns:xlink="http://www.w3.org/1999/xlink"
  version="1.1"
  width="29.700220cm" height="21.000720cm" viewBox="0 0 297002200 210007200">
<title>SVG Picture created as lir-multi-charger-F_Silkscreen.svg date 2023/10/02 20:56:18 </title>
  <desc>Picture generated by PCBNEW </desc>
<g style="fill:#000000; fill-opacity:1.000000;stroke:#000000; stroke-opacity:1.000000;
stroke-linecap:round; stroke-linejoin:round;"
 transform="translate(0 0) scale(1 1)">
</g>
<g style="fill:#000000; fill-opacity:0.0; 
stroke:#000000; stroke-width:0.000000; stroke-opacity:1; 
stroke-linecap:round; stroke-linejoin:round;">
</g>
<g style="fill:#000000; fill-opacity:0.0; 
stroke:#000000; stroke-width:50000.000000; stroke-opacity:1; 
stroke-linecap:round; stroke-linejoin:round;">
<path d="M180000000.000000 100000000.000000 A10000000.000000 10000000.000000 0.0 0 0 190000000.000000 110000000.000000" />
<path d="M110000000 100000000
L180000000 100000000
" />
<path d="M190000000.000000 148000000.000000 A10000000.000000 10000000.000000 0.0 0 0 180000000.000000 158000000.000000" />
<path d="M110000000 158000000
L180000000 158000000
" />
<path d="M100000000 110000000
L100000000 148000000
" />
<path d="M100000000.000000 110000000.000000 A10000000.000000 10000000.000000 0.0 0 0 110000000.000000 100000000.000000" />
<path d="M190000000 110000000
L190000000 148000000
" />
<path d="M110000000.000000 158000000.000000 A10000000.000000 10000000.000000 0.0 0 0 100000000.000000 148000000.000000" />
</g>
<g style="fill:#000000; fill-opacity:0.0; 
stroke:#000000; stroke-width:150000.000000; stroke-opacity:1; 
stroke-linecap:round; stroke-linejoin:round;">
<g transform="rotate(-90.000000 104854900.000000 140474700.000000)">
<text x="104854900.000000" y="140874700.000000"
textLength="11885715.000000" font-size="1066666.000000" lengthAdjust="spacingAndGlyphs"
text-anchor="middle" opacity="0">LIR MULTI CHARGER</text>
</g>
<g class="stroked-text"><desc>LIR MULTI CHARGER</desc>
<path d="M105216804 145846128
L105216804 146227080
L104416804 146227080
" />
<path d="M105216804 145579461
L104416804 145579461
" />
<path d="M105216804 144741366
L104835852 145008033
" />
<path d="M105216804 145198509
L104416804 145198509
L104416804 144893747
L104454900 144817557
L104492995 144779461
L104569185 144741366
L104683471 144741366
L104759661 144779461
L104797757 144817557
L104835852 144893747
L104835852 145198509
" />
<path d="M105216804 143788985
L104416804 143788985
L104988233 143522319
L104416804 143255652
L105216804 143255652
" />
<path d="M104416804 142874700
L105064423 142874700
L105140614 142836604
L105178709 142798509
L105216804 142722319
L105216804 142569938
L105178709 142493747
L105140614 142455652
L105064423 142417557
L104416804 142417557
" />
<path d="M105216804 141655652
L105216804 142036604
L104416804 142036604
" />
<path d="M104416804 141503271
L104416804 141046128
" />
<path d="M105216804 141274700
L104416804 141274700
" />
<path d="M105216804 140779461
L104416804 140779461
" />
<path d="M105140614 139331842
L105178709 139369938
L105216804 139484223
L105216804 139560414
L105178709 139674700
L105102519 139750890
L105026328 139788985
L104873947 139827080
L104759661 139827080
L104607280 139788985
L104531090 139750890
L104454900 139674700
L104416804 139560414
L104416804 139484223
L104454900 139369938
L104492995 139331842
" />
<path d="M105216804 138988985
L104416804 138988985
" />
<path d="M104797757 138988985
L104797757 138531842
" />
<path d="M105216804 138531842
L104416804 138531842
" />
<path d="M104988233 138188985
L104988233 137808033
" />
<path d="M105216804 138265176
L104416804 137998509
L105216804 137731842
" />
<path d="M105216804 137008033
L104835852 137274700
" />
<path d="M105216804 137465176
L104416804 137465176
L104416804 137160414
L104454900 137084223
L104492995 137046128
L104569185 137008033
L104683471 137008033
L104759661 137046128
L104797757 137084223
L104835852 137160414
L104835852 137465176
" />
<path d="M104454900 136246128
L104416804 136322319
L104416804 136436604
L104454900 136550890
L104531090 136627080
L104607280 136665176
L104759661 136703271
L104873947 136703271
L105026328 136665176
L105102519 136627080
L105178709 136550890
L105216804 136436604
L105216804 136360414
L105178709 136246128
L105140614 136208033
L104873947 136208033
L104873947 136360414
" />
<path d="M104797757 135865176
L104797757 135598509
" />
<path d="M105216804 135484223
L105216804 135865176
L104416804 135865176
L104416804 135484223
" />
<path d="M105216804 134684223
L104835852 134950890
" />
<path d="M105216804 135141366
L104416804 135141366
L104416804 134836604
L104454900 134760414
L104492995 134722319
L104569185 134684223
L104683471 134684223
L104759661 134722319
L104797757 134760414
L104835852 134836604
L104835852 135141366
" />
</g><g transform="rotate(-90.000000 106142900.000000 140474700.000000)">
<text x="106142900.000000" y="140874700.000000"
textLength="195000.000000" font-size="1066666.000000" lengthAdjust="spacingAndGlyphs"
text-anchor="middle" opacity="0"></text>
</g>
<g class="stroked-text"><desc></desc>
</g><g transform="rotate(-90.000000 142875000.000000 133775000.000000)">
<text x="142875000.000000" y="134275000.000000"
textLength="2864286.000000" font-size="1333333.000000" lengthAdjust="spacingAndGlyphs"
text-anchor="middle" opacity="0">BT2</text>
</g>
<g class="stroked-text"><desc>BT2</desc>
<path d="M142803571 134560714
L142851190 134417857
L142898809 134370238
L142994047 134322619
L143136904 134322619
L143232142 134370238
L143279761 134417857
L143327380 134513095
L143327380 134894047
L142327380 134894047
L142327380 134560714
L142375000 134465476
L142422619 134417857
L142517857 134370238
L142613095 134370238
L142708333 134417857
L142755952 134465476
L142803571 134560714
L142803571 134894047
" />
<path d="M142327380 134036904
L142327380 133465476
" />
<path d="M143327380 133751190
L142327380 133751190
" />
<path d="M142422619 133179761
L142375000 133132142
L142327380 133036904
L142327380 132798809
L142375000 132703571
L142422619 132655952
L142517857 132608333
L142613095 132608333
L142755952 132655952
L143327380 133227380
L143327380 132608333
" />
</g><g transform="rotate(-90.000000 158063817.000000 138432543.000000)">
<text x="158063817.000000" y="138932543.000000"
textLength="2909286.000000" font-size="1333333.000000" lengthAdjust="spacingAndGlyphs"
text-anchor="middle" opacity="0">BT3</text>
</g>
<g class="stroked-text"><desc>BT3</desc>
<path d="M157992388 139218257
L158040007 139075400
L158087626 139027781
L158182864 138980162
L158325721 138980162
L158420959 139027781
L158468578 139075400
L158516197 139170638
L158516197 139551590
L157516197 139551590
L157516197 139218257
L157563817 139123019
L157611436 139075400
L157706674 139027781
L157801912 139027781
L157897150 139075400
L157944769 139123019
L157992388 139218257
L157992388 139551590
" />
<path d="M157516197 138694447
L157516197 138123019
" />
<path d="M158516197 138408733
L157516197 138408733
" />
<path d="M157516197 137884923
L157516197 137265876
L157897150 137599209
L157897150 137456352
L157944769 137361114
L157992388 137313495
L158087626 137265876
L158325721 137265876
L158420959 137313495
L158468578 137361114
L158516197 137456352
L158516197 137742066
L158468578 137837304
L158420959 137884923
" />
</g><g transform="rotate(-90.000000 121420375.000000 130807875.000000)">
<text x="121420375.000000" y="131307875.000000"
textLength="2909286.000000" font-size="1333333.000000" lengthAdjust="spacingAndGlyphs"
text-anchor="middle" opacity="0">BT1</text>
</g>
<g class="stroked-text"><desc>BT1</desc>
<path d="M121348946 131593589
L121396565 131450732
L121444184 131403113
L121539422 131355494
L121682279 131355494
L121777517 131403113
L121825136 131450732
L121872755 131545970
L121872755 131926922
L120872755 131926922
L120872755 131593589
L120920375 131498351
L120967994 131450732
L121063232 131403113
L121158470 131403113
L121253708 131450732
L121301327 131498351
L121348946 131593589
L121348946 131926922
" />
<path d="M120872755 131069779
L120872755 130498351
" />
<path d="M121872755 130784065
L120872755 130784065
" />
<path d="M121872755 129641208
L121872755 130212636
" />
<path d="M121872755 129926922
L120872755 129926922
L121015613 130022160
L121110851 130117398
L121158470 130212636
" />
</g><g transform="rotate(-90.000000 175540000.000000 112750000.000000)">
<text x="175540000.000000" y="113250000.000000"
textLength="1909286.000000" font-size="1333333.000000" lengthAdjust="spacingAndGlyphs"
text-anchor="middle" opacity="0">J1</text>
</g>
<g class="stroked-text"><desc>J1</desc>
<path d="M174992380 113083333
L175706666 113083333
L175849523 113130952
L175944761 113226190
L175992380 113369047
L175992380 113464285
" />
<path d="M175992380 112083333
L175992380 112654761
" />
<path d="M175992380 112369047
L174992380 112369047
L175135238 112464285
L175230476 112559523
L175278095 112654761
" />
</g></g>
<g style="fill:#000000; fill-opacity:1.0; 
stroke:#000000; stroke-width:10000.000000; stroke-opacity:1; 
stroke-linecap:round; stroke-linejoin:round;">
<path style="fill:#000000; fill-opacity:1.0; 
stroke:#000000; stroke-width:10000.000000; stroke-opacity:1; 
stroke-linecap:round; stroke-linejoin:round;fill-rule:evenodd;"
d="M 105164255.000000,118417793.000000
105267988.000000,118420530.000000
105357361.000000,118424789.000000
105425946.000000,118430565.000000
105467317.000000,118437853.000000
105475930.000000,118442225.000000
105486253.000000,118468356.000000
105501012.000000,118523727.000000
105518472.000000,118601013.000000
105536900.000000,118692890.000000
105542861.000000,118724962.000000
105571186.000000,118879596.000000
105593996.000000,119001745.000000
105612200.000000,119095447.000000
105626703.000000,119164736.000000
105638412.000000,119213649.000000
105648235.000000,119246223.000000
105657076.000000,119266492.000000
105665844.000000,119278494.000000
105667577.000000,119280173.000000
105695491.000000,119296936.000000
105749815.000000,119322506.000000
105823897.000000,119354332.000000
105911085.000000,119389860.000000
106004728.000000,119426537.000000
106098172.000000,119461809.000000
106184767.000000,119493124.000000
106257860.000000,119517927.000000
106310798.000000,119533666.000000
106336931.000000,119537788.000000
106337846.000000,119537444.000000
106359206.000000,119523479.000000
106406204.000000,119491798.000000
106473947.000000,119445729.000000
106557543.000000,119388602.000000
106652102.000000,119323747.000000
106678974.000000,119305277.000000
106776395.000000,119239421.000000
106865283.000000,119181470.000000
106940532.000000,119134582.000000
106997040.000000,119101913.000000
107029701.000000,119086620.000000
107033713.000000,119085879.000000
107054804.000000,119098728.000000
107096584.000000,119134232.000000
107154565.000000,119187827.000000
107224255.000000,119254949.000000
107301165.000000,119331033.000000
107380803.000000,119411516.000000
107458681.000000,119491833.000000
107530306.000000,119567421.000000
107591190.000000,119633715.000000
107636841.000000,119686151.000000
107662770.000000,119720165.000000
107667003.000000,119729575.000000
107657032.000000,119751477.000000
107630140.000000,119796320.000000
107590856.000000,119856799.000000
107559237.000000,119903331.000000
107501218.000000,119987645.000000
107432904.000000,120087494.000000
107364699.000000,120187647.000000
107328195.000000,120241493.000000
107204920.000000,120423749.000000
107287640.000000,120576739.000000
107323879.000000,120646438.000000
107352046.000000,120705706.000000
107368111.000000,120745809.000000
107370346.000000,120756017.000000
107353842.000000,120768291.000000
107307202.000000,120792507.000000
107234729.000000,120826857.000000
107140726.000000,120869532.000000
107029494.000000,120918726.000000
106905335.000000,120972630.000000
106772552.000000,121029436.000000
106635447.000000,121087338.000000
106498322.000000,121144527.000000
106365478.000000,121199196.000000
106241218.000000,121249536.000000
106129845.000000,121293740.000000
106035659.000000,121330001.000000
105962964.000000,121356511.000000
105916061.000000,121371462.000000
105899953.000000,121373866.000000
105879406.000000,121354809.000000
105846053.000000,121313084.000000
105806822.000000,121257414.000000
105803719.000000,121252742.000000
105688543.000000,121108856.000000
105554173.000000,120992837.000000
105404904.000000,120905690.000000
105245033.000000,120848421.000000
105078857.000000,120822034.000000
104910672.000000,120827535.000000
104744775.000000,120865930.000000
104585462.000000,120938225.000000
104550607.000000,120959494.000000
104409857.000000,121070124.000000
104296834.000000,121200818.000000
104212123.000000,121347056.000000
104156314.000000,121504312.000000
104129994.000000,121668063.000000
104133750.000000,121833787.000000
104168170.000000,121996958.000000
104233843.000000,122153055.000000
104331355.000000,122297553.000000
104370933.000000,122342251.000000
104494823.000000,122456008.000000
104625244.000000,122538902.000000
104771435.000000,122595764.000000
104916208.000000,122627433.000000
105078980.000000,122635251.000000
105242560.000000,122609182.000000
105401418.000000,122551875.000000
105550026.000000,122465976.000000
105682855.000000,122354134.000000
105794376.000000,122218997.000000
105806131.000000,122201237.000000
105844628.000000,122144970.000000
105877983.000000,122102197.000000
105899280.000000,122081748.000000
105899953.000000,122081451.000000
105922991.000000,122085841.000000
105975277.000000,122103244.000000
106052510.000000,122131852.000000
106150388.000000,122169855.000000
106264611.000000,122215446.000000
106390878.000000,122266817.000000
106524887.000000,122322158.000000
106662338.000000,122379662.000000
106798928.000000,122437519.000000
106930357.000000,122493922.000000
107052325.000000,122547062.000000
107160529.000000,122595130.000000
107250669.000000,122636319.000000
107318443.000000,122668819.000000
107359550.000000,122690823.000000
107370346.000000,122699684.000000
107361939.000000,122726760.000000
107339392.000000,122777423.000000
107306733.000000,122842937.000000
107287640.000000,122878961.000000
107204920.000000,123031952.000000
107328195.000000,123214208.000000
107391348.000000,123307245.000000
107460847.000000,123409105.000000
107526285.000000,123504558.000000
107559237.000000,123552370.000000
107604393.000000,123619615.000000
107640177.000000,123676556.000000
107662058.000000,123715766.000000
107666683.000000,123728501.000000
107654205.000000,123747037.000000
107619372.000000,123788061.000000
107565798.000000,123847595.000000
107497103.000000,123921662.000000
107416901.000000,124006285.000000
107365406.000000,124059805.000000
107273406.000000,124153439.000000
107191119.000000,124234361.000000
107122065.000000,124299297.000000
107069764.000000,124344978.000000
107037736.000000,124368131.000000
107031236.000000,124370352.000000
107006514.000000,124360044.000000
106956525.000000,124331559.000000
106886332.000000,124288057.000000
106800995.000000,124232697.000000
106705576.000000,124168640.000000
106678974.000000,124150423.000000
106582287.000000,124084047.000000
106495237.000000,124024498.000000
106422715.000000,123975104.000000
106369613.000000,123939195.000000
106340823.000000,123920101.000000
106337846.000000,123918256.000000
106314902.000000,123921015.000000
106264456.000000,123935658.000000
106193161.000000,123959633.000000
106107667.000000,123990386.000000
106014627.000000,124025364.000000
105920694.000000,124062013.000000
105832519.000000,124097781.000000
105756754.000000,124130114.000000
105700051.000000,124156458.000000
105669063.000000,124174262.000000
105667577.000000,124175527.000000
105658721.000000,124186414.000000
105649963.000000,124204802.000000
105640397.000000,124234726.000000
105629116.000000,124280223.000000
105615213.000000,124345329.000000
105597783.000000,124434081.000000
105575918.000000,124550513.000000
105548711.000000,124698662.000000
105542861.000000,124730738.000000
105524494.000000,124825806.000000
105506525.000000,124908685.000000
105490689.000000,124972050.000000
105478720.000000,125008578.000000
105475930.000000,125013476.000000
105451192.000000,125021547.000000
105395910.000000,125028107.000000
105316509.000000,125033153.000000
105219416.000000,125036679.000000
105111058.000000,125038681.000000
104997860.000000,125039156.000000
104886248.000000,125038097.000000
104782649.000000,125035502.000000
104693488.000000,125031366.000000
104625192.000000,125025683.000000
104584186.000000,125018451.000000
104575794.000000,125014091.000000
104567328.000000,124989818.000000
104553555.000000,124934546.000000
104535670.000000,124853782.000000
104514868.000000,124753032.000000
104492343.000000,124637803.000000
104480538.000000,124575022.000000
104458271.000000,124455907.000000
104438099.000000,124349685.000000
104421035.000000,124261547.000000
104408089.000000,124196686.000000
104400275.000000,124160294.000000
104398542.000000,124154304.000000
104379010.000000,124144181.000000
104331963.000000,124122782.000000
104264123.000000,124092959.000000
104182211.000000,124057565.000000
104092948.000000,124019452.000000
104003055.000000,123981473.000000
103919255.000000,123946480.000000
103848267.000000,123917326.000000
103796814.000000,123896863.000000
103771617.000000,123887943.000000
103770516.000000,123887777.000000
103750639.000000,123897889.000000
103704897.000000,123926237.000000
103637837.000000,123969843.000000
103554004.000000,124025726.000000
103457946.000000,124090907.000000
103402770.000000,124128799.000000
103301601.000000,124197845.000000
103209750.000000,124259170.000000
103131864.000000,124309783.000000
103072589.000000,124346691.000000
103036571.000000,124366902.000000
103028497.000000,124369821.000000
103009704.000000,124357273.000000
102969577.000000,124322583.000000
102912613.000000,124270183.000000
102843305.000000,124204504.000000
102766151.000000,124129976.000000
102685645.000000,124051033.000000
102606283.000000,123972103.000000
102532560.000000,123897620.000000
102468972.000000,123832014.000000
102420014.000000,123779716.000000
102390181.000000,123745159.000000
102383062.000000,123733598.000000
102393073.000000,123714774.000000
102421198.000000,123669751.000000
102464574.000000,123602907.000000
102520338.000000,123518619.000000
102585626.000000,123421264.000000
102635366.000000,123347827.000000
102887671.000000,122976787.000000
102632675.000000,122358215.000000
102188051.000000,122274395.000000
101743427.000000,122190574.000000
101743427.000000,121265126.000000
102188051.000000,121181306.000000
102632675.000000,121097485.000000
102760173.000000,120788200.000000
102887671.000000,120478914.000000
102635366.000000,120107874.000000
102565116.000000,120003963.000000
102502392.000000,119910033.000000
102450058.000000,119830468.000000
102410977.000000,119769650.000000
102388013.000000,119731963.000000
102383062.000000,119721699.000000
102395796.000000,119703210.000000
102431002.000000,119663700.000000
102484182.000000,119607598.000000
102550838.000000,119539333.000000
102626474.000000,119463334.000000
102706592.000000,119384028.000000
102786694.000000,119305845.000000
102862284.000000,119233213.000000
102928865.000000,119170561.000000
102981938.000000,119122317.000000
103017007.000000,119092910.000000
103028743.000000,119085879.000000
103050380.000000,119095997.000000
103097782.000000,119124361.000000
103166313.000000,119167991.000000
103251335.000000,119223902.000000
103348213.000000,119289114.000000
103403470.000000,119326901.000000
103504368.000000,119395777.000000
103595419.000000,119456980.000000
103672090.000000,119507542.000000
103729848.000000,119544492.000000
103764163.000000,119564862.000000
103771374.000000,119567923.000000
103791868.000000,119560984.000000
103839633.000000,119542069.000000
103907952.000000,119514033.000000
103990109.000000,119479729.000000
104079390.000000,119442011.000000
104169078.000000,119403733.000000
104252458.000000,119367750.000000
104322814.000000,119336914.000000
104373430.000000,119314081.000000
104397591.000000,119302103.000000
104398542.000000,119301396.000000
104403156.000000,119282589.000000
104413448.000000,119232502.000000
104428407.000000,119156327.000000
104447021.000000,119059255.000000
104468279.000000,118946477.000000
104480538.000000,118880678.000000
104503482.000000,118760170.000000
104525315.000000,118651323.000000
104544842.000000,118559644.000000
104560868.000000,118490639.000000
104572199.000000,118449816.000000
104575794.000000,118441609.000000
104600126.000000,118433572.000000
104655079.000000,118427087.000000
104734228.000000,118422150.000000
104831146.000000,118418756.000000
104939407.000000,118416902.000000
105052585.000000,118416582.000000
Z" /> 
</g>
<g style="fill:#000000; fill-opacity:1.0; 
stroke:#000000; stroke-width:120000.000000; stroke-opacity:1; 
stroke-linecap:round; stroke-linejoin:round;">
</g>
<g style="fill:#000000; fill-opacity:0.0; 
stroke:#000000; stroke-width:120000.000000; stroke-opacity:1; 
stroke-linecap:round; stroke-linejoin:round;">
<path d="M138170000 126510000
L138170000 122605000
" />
<path d="M143270000 148140000
L143270000 146830000
" />
<path d="M152740000 143600000
L152740000 127650000
" />
<path d="M151390000 126510000
L151390000 122605000
" />
<path d="M142770000 127425000
L146790000 127425000
" />
<path d="M144780000 125415000
L144780000 129435000
" />
<path d="M142770000 120820000
L146790000 120820000
" />
<path d="M138170000 122605000
L142770000 122605000
" />
<path d="M142770000 122605000
L142770000 120820000
" />
<path d="M146790000 122605000
L146790000 120820000
" />
<path d="M146290000 148140000
L146290000 146830000
" />
<path d="M143270000 148140000
L146290000 148140000
" />
<path d="M146790000 122605000
L151390000 122605000
" />
<path d="M136820000 143600000
L136820000 127650000
" />
<path d="M144780000 137480000
L144780000 141500000
" />
<path d="M138170000.109711 126510000.152515 A11386585.000000 11386585.000000 0.0 0 0 136820000.117179 127650000.118705" />
<path d="M152739999.882821 127650000.118705 A11386585.000000 11386585.000000 0.0 0 0 151389999.890289 126510000.152515" />
<path d="M146289999.949437 146829999.545684 A10420691.000000 10420691.000000 0.0 0 0 152739999.688201 143599999.707719" />
<path d="M136820000.311799 143599999.707719 A10420691.000000 10420691.000000 0.0 0 0 143270000.050563 146829999.545684" />
<path d="M169718817 133642543
L168358817 133642543
" />
<path d="M169718817 133642543
L169718817 130422543
" />
<path d="M163768817 130422543
L163768817 128122543
" />
<path d="M155298817 130422543
L161248817 130422543
" />
<path d="M163778817 148542543
L163778817 145892543
" />
<path d="M156658817 133642543
L155298817 133642543
" />
<path d="M155298817 133642543
L155298817 130422543
" />
<path d="M161248817 128122543
L163768817 128122543
" />
<path d="M162508817 138452543
L162508817 140972543
" />
<path d="M161248817 136527543
L163768817 136527543
" />
<path d="M161238817 148542543
L161238817 145892543
" />
<path d="M161248817 130422543
L161248817 128122543
" />
<path d="M163768817 130422543
L169718817 130422543
" />
<path d="M161238817 148542543
L163778817 148542543
" />
<path d="M162508817 135267543
L162508817 137787543
" />
<path d="M163778816.920132 145892542.495753 A7513126.000000 7513126.000000 0.0 0 0 168358816.688440 133642543.261433" />
<path d="M156658816.545520 133642542.618641 A7513127.000000 7513127.000000 0.0 0 0 161238816.923427 145892543.483440" />
<path d="M119860375 114988875
L119860375 112288875
" />
<path d="M121920375 120092875
L121920375 117392875
" />
<path d="M123980375 114988875
L127430375 114988875
" />
<path d="M116410375 114988875
L119860375 114988875
" />
<path d="M116410375 118526875
L116410375 114988875
" />
<path d="M123980375 114988875
L123980375 112288875
" />
<path d="M120310375 148517875
L123530375 148517875
" />
<path d="M121920375 141682875
L121920375 138982875
" />
<path d="M120310375 148517875
L120310375 144170875
" />
<path d="M120570375 118742875
L123270375 118742875
" />
<path d="M123530375 148517875
L123530375 144170875
" />
<path d="M119860375 112288875
L123980375 112288875
" />
<path d="M127430375 118526875
L127430375 114988875
" />
</g>
<g style="fill:#000000; fill-opacity:0.0; 
stroke:#000000; stroke-width:100000.000000; stroke-opacity:1; 
stroke-linecap:round; stroke-linejoin:round;">
<path d="M123530374.976861 144170874.807939 A13459743.000000 13459743.000000 0.0 0 0 127430375.196169 118527510.562792" />
<path d="M116410374.868485 118526874.706887 A13460069.000000 13460069.000000 0.0 0 0 120310375.052217 144170874.566603" />
</g>
<g style="fill:#000000; fill-opacity:0.0; 
stroke:#000000; stroke-width:120000.000000; stroke-opacity:1; 
stroke-linecap:round; stroke-linejoin:round;">
<path d="M183900000 116900000
L183900000 115400000
" />
<path d="M182160000 116900000
L183900000 116900000
" />
<path d="M176540000 116660000
L176540000 108840000
" />
<path d="M176540000 116660000
L183660000 116660000
" />
<path d="M182100000 116660000
L182100000 108840000
" />
<path d="M183660000 116660000
L183660000 108840000
" />
<path d="M176540000 108840000
L183660000 108840000
" />
<path d="M179392000.188592 115931999.555816 A1555727.000000 1555727.000000 0.0 0 0 180607741.996495 115932108.991741" />
<path d="M178568000.444184 113892000.188592 A1555727.000000 1555727.000000 0.0 0 0 178567891.008259 115107741.996495" />
<path d="M180608000.057387 113067999.864837 A1555730.000000 1555730.000000 0.0 0 0 179392258.062988 113067891.148428" />
<path d="M181555000.000000 114500000.000000 A1555000.000000 1555000.000000 0.0 0 0 181431385.005685 113892412.997587" />
<path d="M181432000.317285 115108000.134714 A1555716.000000 1555716.000000 0.0 0 0 181555493.459245 114472988.992025" />
<circle cx="180000000.000000" cy="111000000.000000" r="1555000.000000" /> 
<g >
</g>
<g >
</g>
<g >
</g>
<g >
</g>
<g >
</g>
<g >
</g>
<g >
</g>
<g >
</g>
<g >
</g>
<g >
</g>
<g >
</g>
<g >
</g>
<g >
</g>
<g >
</g>
<g >
</g>
<g >
</g>
<g >
</g>
<g >
</g>
</g> 
</svg>
